G04 #@! TF.GenerationSoftware,KiCad,Pcbnew,(5.1.5-0-10_14)*
G04 #@! TF.CreationDate,2020-11-09T16:05:26+01:00*
G04 #@! TF.ProjectId,ATmega128_CC1101_Board,41546d65-6761-4313-9238-5f4343313130,rev?*
G04 #@! TF.SameCoordinates,Original*
G04 #@! TF.FileFunction,Paste,Top*
G04 #@! TF.FilePolarity,Positive*
%FSLAX46Y46*%
G04 Gerber Fmt 4.6, Leading zero omitted, Abs format (unit mm)*
G04 Created by KiCad (PCBNEW (5.1.5-0-10_14)) date 2020-11-09 16:05:26*
%MOMM*%
%LPD*%
G04 APERTURE LIST*
%ADD10R,1.550000X1.300000*%
%ADD11C,0.100000*%
%ADD12R,3.300000X1.540000*%
%ADD13R,0.550000X1.500000*%
%ADD14R,1.500000X0.550000*%
G04 APERTURE END LIST*
D10*
X121180000Y-73150000D03*
X121180000Y-68650000D03*
X113220000Y-68650000D03*
X113220000Y-73150000D03*
D11*
G36*
X131649504Y-104526204D02*
G01*
X131673773Y-104529804D01*
X131697571Y-104535765D01*
X131720671Y-104544030D01*
X131742849Y-104554520D01*
X131763893Y-104567133D01*
X131783598Y-104581747D01*
X131801777Y-104598223D01*
X131818253Y-104616402D01*
X131832867Y-104636107D01*
X131845480Y-104657151D01*
X131855970Y-104679329D01*
X131864235Y-104702429D01*
X131870196Y-104726227D01*
X131873796Y-104750496D01*
X131875000Y-104775000D01*
X131875000Y-105775000D01*
X131873796Y-105799504D01*
X131870196Y-105823773D01*
X131864235Y-105847571D01*
X131855970Y-105870671D01*
X131845480Y-105892849D01*
X131832867Y-105913893D01*
X131818253Y-105933598D01*
X131801777Y-105951777D01*
X131783598Y-105968253D01*
X131763893Y-105982867D01*
X131742849Y-105995480D01*
X131720671Y-106005970D01*
X131697571Y-106014235D01*
X131673773Y-106020196D01*
X131649504Y-106023796D01*
X131625000Y-106025000D01*
X129775000Y-106025000D01*
X129750496Y-106023796D01*
X129726227Y-106020196D01*
X129702429Y-106014235D01*
X129679329Y-106005970D01*
X129657151Y-105995480D01*
X129636107Y-105982867D01*
X129616402Y-105968253D01*
X129598223Y-105951777D01*
X129581747Y-105933598D01*
X129567133Y-105913893D01*
X129554520Y-105892849D01*
X129544030Y-105870671D01*
X129535765Y-105847571D01*
X129529804Y-105823773D01*
X129526204Y-105799504D01*
X129525000Y-105775000D01*
X129525000Y-104775000D01*
X129526204Y-104750496D01*
X129529804Y-104726227D01*
X129535765Y-104702429D01*
X129544030Y-104679329D01*
X129554520Y-104657151D01*
X129567133Y-104636107D01*
X129581747Y-104616402D01*
X129598223Y-104598223D01*
X129616402Y-104581747D01*
X129636107Y-104567133D01*
X129657151Y-104554520D01*
X129679329Y-104544030D01*
X129702429Y-104535765D01*
X129726227Y-104529804D01*
X129750496Y-104526204D01*
X129775000Y-104525000D01*
X131625000Y-104525000D01*
X131649504Y-104526204D01*
G37*
G36*
X131649504Y-107776204D02*
G01*
X131673773Y-107779804D01*
X131697571Y-107785765D01*
X131720671Y-107794030D01*
X131742849Y-107804520D01*
X131763893Y-107817133D01*
X131783598Y-107831747D01*
X131801777Y-107848223D01*
X131818253Y-107866402D01*
X131832867Y-107886107D01*
X131845480Y-107907151D01*
X131855970Y-107929329D01*
X131864235Y-107952429D01*
X131870196Y-107976227D01*
X131873796Y-108000496D01*
X131875000Y-108025000D01*
X131875000Y-109025000D01*
X131873796Y-109049504D01*
X131870196Y-109073773D01*
X131864235Y-109097571D01*
X131855970Y-109120671D01*
X131845480Y-109142849D01*
X131832867Y-109163893D01*
X131818253Y-109183598D01*
X131801777Y-109201777D01*
X131783598Y-109218253D01*
X131763893Y-109232867D01*
X131742849Y-109245480D01*
X131720671Y-109255970D01*
X131697571Y-109264235D01*
X131673773Y-109270196D01*
X131649504Y-109273796D01*
X131625000Y-109275000D01*
X129775000Y-109275000D01*
X129750496Y-109273796D01*
X129726227Y-109270196D01*
X129702429Y-109264235D01*
X129679329Y-109255970D01*
X129657151Y-109245480D01*
X129636107Y-109232867D01*
X129616402Y-109218253D01*
X129598223Y-109201777D01*
X129581747Y-109183598D01*
X129567133Y-109163893D01*
X129554520Y-109142849D01*
X129544030Y-109120671D01*
X129535765Y-109097571D01*
X129529804Y-109073773D01*
X129526204Y-109049504D01*
X129525000Y-109025000D01*
X129525000Y-108025000D01*
X129526204Y-108000496D01*
X129529804Y-107976227D01*
X129535765Y-107952429D01*
X129544030Y-107929329D01*
X129554520Y-107907151D01*
X129567133Y-107886107D01*
X129581747Y-107866402D01*
X129598223Y-107848223D01*
X129616402Y-107831747D01*
X129636107Y-107817133D01*
X129657151Y-107804520D01*
X129679329Y-107794030D01*
X129702429Y-107785765D01*
X129726227Y-107779804D01*
X129750496Y-107776204D01*
X129775000Y-107775000D01*
X131625000Y-107775000D01*
X131649504Y-107776204D01*
G37*
G36*
X117124505Y-97601204D02*
G01*
X117148773Y-97604804D01*
X117172572Y-97610765D01*
X117195671Y-97619030D01*
X117217850Y-97629520D01*
X117238893Y-97642132D01*
X117258599Y-97656747D01*
X117276777Y-97673223D01*
X117293253Y-97691401D01*
X117307868Y-97711107D01*
X117320480Y-97732150D01*
X117330970Y-97754329D01*
X117339235Y-97777428D01*
X117345196Y-97801227D01*
X117348796Y-97825495D01*
X117350000Y-97849999D01*
X117350000Y-98750001D01*
X117348796Y-98774505D01*
X117345196Y-98798773D01*
X117339235Y-98822572D01*
X117330970Y-98845671D01*
X117320480Y-98867850D01*
X117307868Y-98888893D01*
X117293253Y-98908599D01*
X117276777Y-98926777D01*
X117258599Y-98943253D01*
X117238893Y-98957868D01*
X117217850Y-98970480D01*
X117195671Y-98980970D01*
X117172572Y-98989235D01*
X117148773Y-98995196D01*
X117124505Y-98998796D01*
X117100001Y-99000000D01*
X116449999Y-99000000D01*
X116425495Y-98998796D01*
X116401227Y-98995196D01*
X116377428Y-98989235D01*
X116354329Y-98980970D01*
X116332150Y-98970480D01*
X116311107Y-98957868D01*
X116291401Y-98943253D01*
X116273223Y-98926777D01*
X116256747Y-98908599D01*
X116242132Y-98888893D01*
X116229520Y-98867850D01*
X116219030Y-98845671D01*
X116210765Y-98822572D01*
X116204804Y-98798773D01*
X116201204Y-98774505D01*
X116200000Y-98750001D01*
X116200000Y-97849999D01*
X116201204Y-97825495D01*
X116204804Y-97801227D01*
X116210765Y-97777428D01*
X116219030Y-97754329D01*
X116229520Y-97732150D01*
X116242132Y-97711107D01*
X116256747Y-97691401D01*
X116273223Y-97673223D01*
X116291401Y-97656747D01*
X116311107Y-97642132D01*
X116332150Y-97629520D01*
X116354329Y-97619030D01*
X116377428Y-97610765D01*
X116401227Y-97604804D01*
X116425495Y-97601204D01*
X116449999Y-97600000D01*
X117100001Y-97600000D01*
X117124505Y-97601204D01*
G37*
G36*
X119174505Y-97601204D02*
G01*
X119198773Y-97604804D01*
X119222572Y-97610765D01*
X119245671Y-97619030D01*
X119267850Y-97629520D01*
X119288893Y-97642132D01*
X119308599Y-97656747D01*
X119326777Y-97673223D01*
X119343253Y-97691401D01*
X119357868Y-97711107D01*
X119370480Y-97732150D01*
X119380970Y-97754329D01*
X119389235Y-97777428D01*
X119395196Y-97801227D01*
X119398796Y-97825495D01*
X119400000Y-97849999D01*
X119400000Y-98750001D01*
X119398796Y-98774505D01*
X119395196Y-98798773D01*
X119389235Y-98822572D01*
X119380970Y-98845671D01*
X119370480Y-98867850D01*
X119357868Y-98888893D01*
X119343253Y-98908599D01*
X119326777Y-98926777D01*
X119308599Y-98943253D01*
X119288893Y-98957868D01*
X119267850Y-98970480D01*
X119245671Y-98980970D01*
X119222572Y-98989235D01*
X119198773Y-98995196D01*
X119174505Y-98998796D01*
X119150001Y-99000000D01*
X118499999Y-99000000D01*
X118475495Y-98998796D01*
X118451227Y-98995196D01*
X118427428Y-98989235D01*
X118404329Y-98980970D01*
X118382150Y-98970480D01*
X118361107Y-98957868D01*
X118341401Y-98943253D01*
X118323223Y-98926777D01*
X118306747Y-98908599D01*
X118292132Y-98888893D01*
X118279520Y-98867850D01*
X118269030Y-98845671D01*
X118260765Y-98822572D01*
X118254804Y-98798773D01*
X118251204Y-98774505D01*
X118250000Y-98750001D01*
X118250000Y-97849999D01*
X118251204Y-97825495D01*
X118254804Y-97801227D01*
X118260765Y-97777428D01*
X118269030Y-97754329D01*
X118279520Y-97732150D01*
X118292132Y-97711107D01*
X118306747Y-97691401D01*
X118323223Y-97673223D01*
X118341401Y-97656747D01*
X118361107Y-97642132D01*
X118382150Y-97629520D01*
X118404329Y-97619030D01*
X118427428Y-97610765D01*
X118451227Y-97604804D01*
X118475495Y-97601204D01*
X118499999Y-97600000D01*
X119150001Y-97600000D01*
X119174505Y-97601204D01*
G37*
D12*
X121800000Y-103620000D03*
X114400000Y-103620000D03*
X114400000Y-100980000D03*
X121800000Y-100980000D03*
D11*
G36*
X111874505Y-99251204D02*
G01*
X111898773Y-99254804D01*
X111922572Y-99260765D01*
X111945671Y-99269030D01*
X111967850Y-99279520D01*
X111988893Y-99292132D01*
X112008599Y-99306747D01*
X112026777Y-99323223D01*
X112043253Y-99341401D01*
X112057868Y-99361107D01*
X112070480Y-99382150D01*
X112080970Y-99404329D01*
X112089235Y-99427428D01*
X112095196Y-99451227D01*
X112098796Y-99475495D01*
X112100000Y-99499999D01*
X112100000Y-100150001D01*
X112098796Y-100174505D01*
X112095196Y-100198773D01*
X112089235Y-100222572D01*
X112080970Y-100245671D01*
X112070480Y-100267850D01*
X112057868Y-100288893D01*
X112043253Y-100308599D01*
X112026777Y-100326777D01*
X112008599Y-100343253D01*
X111988893Y-100357868D01*
X111967850Y-100370480D01*
X111945671Y-100380970D01*
X111922572Y-100389235D01*
X111898773Y-100395196D01*
X111874505Y-100398796D01*
X111850001Y-100400000D01*
X110949999Y-100400000D01*
X110925495Y-100398796D01*
X110901227Y-100395196D01*
X110877428Y-100389235D01*
X110854329Y-100380970D01*
X110832150Y-100370480D01*
X110811107Y-100357868D01*
X110791401Y-100343253D01*
X110773223Y-100326777D01*
X110756747Y-100308599D01*
X110742132Y-100288893D01*
X110729520Y-100267850D01*
X110719030Y-100245671D01*
X110710765Y-100222572D01*
X110704804Y-100198773D01*
X110701204Y-100174505D01*
X110700000Y-100150001D01*
X110700000Y-99499999D01*
X110701204Y-99475495D01*
X110704804Y-99451227D01*
X110710765Y-99427428D01*
X110719030Y-99404329D01*
X110729520Y-99382150D01*
X110742132Y-99361107D01*
X110756747Y-99341401D01*
X110773223Y-99323223D01*
X110791401Y-99306747D01*
X110811107Y-99292132D01*
X110832150Y-99279520D01*
X110854329Y-99269030D01*
X110877428Y-99260765D01*
X110901227Y-99254804D01*
X110925495Y-99251204D01*
X110949999Y-99250000D01*
X111850001Y-99250000D01*
X111874505Y-99251204D01*
G37*
G36*
X111874505Y-97201204D02*
G01*
X111898773Y-97204804D01*
X111922572Y-97210765D01*
X111945671Y-97219030D01*
X111967850Y-97229520D01*
X111988893Y-97242132D01*
X112008599Y-97256747D01*
X112026777Y-97273223D01*
X112043253Y-97291401D01*
X112057868Y-97311107D01*
X112070480Y-97332150D01*
X112080970Y-97354329D01*
X112089235Y-97377428D01*
X112095196Y-97401227D01*
X112098796Y-97425495D01*
X112100000Y-97449999D01*
X112100000Y-98100001D01*
X112098796Y-98124505D01*
X112095196Y-98148773D01*
X112089235Y-98172572D01*
X112080970Y-98195671D01*
X112070480Y-98217850D01*
X112057868Y-98238893D01*
X112043253Y-98258599D01*
X112026777Y-98276777D01*
X112008599Y-98293253D01*
X111988893Y-98307868D01*
X111967850Y-98320480D01*
X111945671Y-98330970D01*
X111922572Y-98339235D01*
X111898773Y-98345196D01*
X111874505Y-98348796D01*
X111850001Y-98350000D01*
X110949999Y-98350000D01*
X110925495Y-98348796D01*
X110901227Y-98345196D01*
X110877428Y-98339235D01*
X110854329Y-98330970D01*
X110832150Y-98320480D01*
X110811107Y-98307868D01*
X110791401Y-98293253D01*
X110773223Y-98276777D01*
X110756747Y-98258599D01*
X110742132Y-98238893D01*
X110729520Y-98217850D01*
X110719030Y-98195671D01*
X110710765Y-98172572D01*
X110704804Y-98148773D01*
X110701204Y-98124505D01*
X110700000Y-98100001D01*
X110700000Y-97449999D01*
X110701204Y-97425495D01*
X110704804Y-97401227D01*
X110710765Y-97377428D01*
X110719030Y-97354329D01*
X110729520Y-97332150D01*
X110742132Y-97311107D01*
X110756747Y-97291401D01*
X110773223Y-97273223D01*
X110791401Y-97256747D01*
X110811107Y-97242132D01*
X110832150Y-97229520D01*
X110854329Y-97219030D01*
X110877428Y-97210765D01*
X110901227Y-97204804D01*
X110925495Y-97201204D01*
X110949999Y-97200000D01*
X111850001Y-97200000D01*
X111874505Y-97201204D01*
G37*
D13*
X112600000Y-79700000D03*
X113400000Y-79700000D03*
X114200000Y-79700000D03*
X115000000Y-79700000D03*
X115800000Y-79700000D03*
X116600000Y-79700000D03*
X117400000Y-79700000D03*
X118200000Y-79700000D03*
X119000000Y-79700000D03*
X119800000Y-79700000D03*
X120600000Y-79700000D03*
X121400000Y-79700000D03*
X122200000Y-79700000D03*
X123000000Y-79700000D03*
X123800000Y-79700000D03*
X124600000Y-79700000D03*
D14*
X126300000Y-81400000D03*
X126300000Y-82200000D03*
X126300000Y-83000000D03*
X126300000Y-83800000D03*
X126300000Y-84600000D03*
X126300000Y-85400000D03*
X126300000Y-86200000D03*
X126300000Y-87000000D03*
X126300000Y-87800000D03*
X126300000Y-88600000D03*
X126300000Y-89400000D03*
X126300000Y-90200000D03*
X126300000Y-91000000D03*
X126300000Y-91800000D03*
X126300000Y-92600000D03*
X126300000Y-93400000D03*
D13*
X124600000Y-95100000D03*
X123800000Y-95100000D03*
X123000000Y-95100000D03*
X122200000Y-95100000D03*
X121400000Y-95100000D03*
X120600000Y-95100000D03*
X119800000Y-95100000D03*
X119000000Y-95100000D03*
X118200000Y-95100000D03*
X117400000Y-95100000D03*
X116600000Y-95100000D03*
X115800000Y-95100000D03*
X115000000Y-95100000D03*
X114200000Y-95100000D03*
X113400000Y-95100000D03*
X112600000Y-95100000D03*
D14*
X110900000Y-93400000D03*
X110900000Y-92600000D03*
X110900000Y-91800000D03*
X110900000Y-91000000D03*
X110900000Y-90200000D03*
X110900000Y-89400000D03*
X110900000Y-88600000D03*
X110900000Y-87800000D03*
X110900000Y-87000000D03*
X110900000Y-86200000D03*
X110900000Y-85400000D03*
X110900000Y-84600000D03*
X110900000Y-83800000D03*
X110900000Y-83000000D03*
X110900000Y-82200000D03*
X110900000Y-81400000D03*
D11*
G36*
X108674505Y-79001204D02*
G01*
X108698773Y-79004804D01*
X108722572Y-79010765D01*
X108745671Y-79019030D01*
X108767850Y-79029520D01*
X108788893Y-79042132D01*
X108808599Y-79056747D01*
X108826777Y-79073223D01*
X108843253Y-79091401D01*
X108857868Y-79111107D01*
X108870480Y-79132150D01*
X108880970Y-79154329D01*
X108889235Y-79177428D01*
X108895196Y-79201227D01*
X108898796Y-79225495D01*
X108900000Y-79249999D01*
X108900000Y-79900001D01*
X108898796Y-79924505D01*
X108895196Y-79948773D01*
X108889235Y-79972572D01*
X108880970Y-79995671D01*
X108870480Y-80017850D01*
X108857868Y-80038893D01*
X108843253Y-80058599D01*
X108826777Y-80076777D01*
X108808599Y-80093253D01*
X108788893Y-80107868D01*
X108767850Y-80120480D01*
X108745671Y-80130970D01*
X108722572Y-80139235D01*
X108698773Y-80145196D01*
X108674505Y-80148796D01*
X108650001Y-80150000D01*
X107749999Y-80150000D01*
X107725495Y-80148796D01*
X107701227Y-80145196D01*
X107677428Y-80139235D01*
X107654329Y-80130970D01*
X107632150Y-80120480D01*
X107611107Y-80107868D01*
X107591401Y-80093253D01*
X107573223Y-80076777D01*
X107556747Y-80058599D01*
X107542132Y-80038893D01*
X107529520Y-80017850D01*
X107519030Y-79995671D01*
X107510765Y-79972572D01*
X107504804Y-79948773D01*
X107501204Y-79924505D01*
X107500000Y-79900001D01*
X107500000Y-79249999D01*
X107501204Y-79225495D01*
X107504804Y-79201227D01*
X107510765Y-79177428D01*
X107519030Y-79154329D01*
X107529520Y-79132150D01*
X107542132Y-79111107D01*
X107556747Y-79091401D01*
X107573223Y-79073223D01*
X107591401Y-79056747D01*
X107611107Y-79042132D01*
X107632150Y-79029520D01*
X107654329Y-79019030D01*
X107677428Y-79010765D01*
X107701227Y-79004804D01*
X107725495Y-79001204D01*
X107749999Y-79000000D01*
X108650001Y-79000000D01*
X108674505Y-79001204D01*
G37*
G36*
X108674505Y-81051204D02*
G01*
X108698773Y-81054804D01*
X108722572Y-81060765D01*
X108745671Y-81069030D01*
X108767850Y-81079520D01*
X108788893Y-81092132D01*
X108808599Y-81106747D01*
X108826777Y-81123223D01*
X108843253Y-81141401D01*
X108857868Y-81161107D01*
X108870480Y-81182150D01*
X108880970Y-81204329D01*
X108889235Y-81227428D01*
X108895196Y-81251227D01*
X108898796Y-81275495D01*
X108900000Y-81299999D01*
X108900000Y-81950001D01*
X108898796Y-81974505D01*
X108895196Y-81998773D01*
X108889235Y-82022572D01*
X108880970Y-82045671D01*
X108870480Y-82067850D01*
X108857868Y-82088893D01*
X108843253Y-82108599D01*
X108826777Y-82126777D01*
X108808599Y-82143253D01*
X108788893Y-82157868D01*
X108767850Y-82170480D01*
X108745671Y-82180970D01*
X108722572Y-82189235D01*
X108698773Y-82195196D01*
X108674505Y-82198796D01*
X108650001Y-82200000D01*
X107749999Y-82200000D01*
X107725495Y-82198796D01*
X107701227Y-82195196D01*
X107677428Y-82189235D01*
X107654329Y-82180970D01*
X107632150Y-82170480D01*
X107611107Y-82157868D01*
X107591401Y-82143253D01*
X107573223Y-82126777D01*
X107556747Y-82108599D01*
X107542132Y-82088893D01*
X107529520Y-82067850D01*
X107519030Y-82045671D01*
X107510765Y-82022572D01*
X107504804Y-81998773D01*
X107501204Y-81974505D01*
X107500000Y-81950001D01*
X107500000Y-81299999D01*
X107501204Y-81275495D01*
X107504804Y-81251227D01*
X107510765Y-81227428D01*
X107519030Y-81204329D01*
X107529520Y-81182150D01*
X107542132Y-81161107D01*
X107556747Y-81141401D01*
X107573223Y-81123223D01*
X107591401Y-81106747D01*
X107611107Y-81092132D01*
X107632150Y-81079520D01*
X107654329Y-81069030D01*
X107677428Y-81060765D01*
X107701227Y-81054804D01*
X107725495Y-81051204D01*
X107749999Y-81050000D01*
X108650001Y-81050000D01*
X108674505Y-81051204D01*
G37*
G36*
X131854505Y-94051204D02*
G01*
X131878773Y-94054804D01*
X131902572Y-94060765D01*
X131925671Y-94069030D01*
X131947850Y-94079520D01*
X131968893Y-94092132D01*
X131988599Y-94106747D01*
X132006777Y-94123223D01*
X132023253Y-94141401D01*
X132037868Y-94161107D01*
X132050480Y-94182150D01*
X132060970Y-94204329D01*
X132069235Y-94227428D01*
X132075196Y-94251227D01*
X132078796Y-94275495D01*
X132080000Y-94299999D01*
X132080000Y-94950001D01*
X132078796Y-94974505D01*
X132075196Y-94998773D01*
X132069235Y-95022572D01*
X132060970Y-95045671D01*
X132050480Y-95067850D01*
X132037868Y-95088893D01*
X132023253Y-95108599D01*
X132006777Y-95126777D01*
X131988599Y-95143253D01*
X131968893Y-95157868D01*
X131947850Y-95170480D01*
X131925671Y-95180970D01*
X131902572Y-95189235D01*
X131878773Y-95195196D01*
X131854505Y-95198796D01*
X131830001Y-95200000D01*
X130929999Y-95200000D01*
X130905495Y-95198796D01*
X130881227Y-95195196D01*
X130857428Y-95189235D01*
X130834329Y-95180970D01*
X130812150Y-95170480D01*
X130791107Y-95157868D01*
X130771401Y-95143253D01*
X130753223Y-95126777D01*
X130736747Y-95108599D01*
X130722132Y-95088893D01*
X130709520Y-95067850D01*
X130699030Y-95045671D01*
X130690765Y-95022572D01*
X130684804Y-94998773D01*
X130681204Y-94974505D01*
X130680000Y-94950001D01*
X130680000Y-94299999D01*
X130681204Y-94275495D01*
X130684804Y-94251227D01*
X130690765Y-94227428D01*
X130699030Y-94204329D01*
X130709520Y-94182150D01*
X130722132Y-94161107D01*
X130736747Y-94141401D01*
X130753223Y-94123223D01*
X130771401Y-94106747D01*
X130791107Y-94092132D01*
X130812150Y-94079520D01*
X130834329Y-94069030D01*
X130857428Y-94060765D01*
X130881227Y-94054804D01*
X130905495Y-94051204D01*
X130929999Y-94050000D01*
X131830001Y-94050000D01*
X131854505Y-94051204D01*
G37*
G36*
X131854505Y-92001204D02*
G01*
X131878773Y-92004804D01*
X131902572Y-92010765D01*
X131925671Y-92019030D01*
X131947850Y-92029520D01*
X131968893Y-92042132D01*
X131988599Y-92056747D01*
X132006777Y-92073223D01*
X132023253Y-92091401D01*
X132037868Y-92111107D01*
X132050480Y-92132150D01*
X132060970Y-92154329D01*
X132069235Y-92177428D01*
X132075196Y-92201227D01*
X132078796Y-92225495D01*
X132080000Y-92249999D01*
X132080000Y-92900001D01*
X132078796Y-92924505D01*
X132075196Y-92948773D01*
X132069235Y-92972572D01*
X132060970Y-92995671D01*
X132050480Y-93017850D01*
X132037868Y-93038893D01*
X132023253Y-93058599D01*
X132006777Y-93076777D01*
X131988599Y-93093253D01*
X131968893Y-93107868D01*
X131947850Y-93120480D01*
X131925671Y-93130970D01*
X131902572Y-93139235D01*
X131878773Y-93145196D01*
X131854505Y-93148796D01*
X131830001Y-93150000D01*
X130929999Y-93150000D01*
X130905495Y-93148796D01*
X130881227Y-93145196D01*
X130857428Y-93139235D01*
X130834329Y-93130970D01*
X130812150Y-93120480D01*
X130791107Y-93107868D01*
X130771401Y-93093253D01*
X130753223Y-93076777D01*
X130736747Y-93058599D01*
X130722132Y-93038893D01*
X130709520Y-93017850D01*
X130699030Y-92995671D01*
X130690765Y-92972572D01*
X130684804Y-92948773D01*
X130681204Y-92924505D01*
X130680000Y-92900001D01*
X130680000Y-92249999D01*
X130681204Y-92225495D01*
X130684804Y-92201227D01*
X130690765Y-92177428D01*
X130699030Y-92154329D01*
X130709520Y-92132150D01*
X130722132Y-92111107D01*
X130736747Y-92091401D01*
X130753223Y-92073223D01*
X130771401Y-92056747D01*
X130791107Y-92042132D01*
X130812150Y-92029520D01*
X130834329Y-92019030D01*
X130857428Y-92010765D01*
X130881227Y-92004804D01*
X130905495Y-92001204D01*
X130929999Y-92000000D01*
X131830001Y-92000000D01*
X131854505Y-92001204D01*
G37*
G36*
X107874505Y-104851204D02*
G01*
X107898773Y-104854804D01*
X107922572Y-104860765D01*
X107945671Y-104869030D01*
X107967850Y-104879520D01*
X107988893Y-104892132D01*
X108008599Y-104906747D01*
X108026777Y-104923223D01*
X108043253Y-104941401D01*
X108057868Y-104961107D01*
X108070480Y-104982150D01*
X108080970Y-105004329D01*
X108089235Y-105027428D01*
X108095196Y-105051227D01*
X108098796Y-105075495D01*
X108100000Y-105099999D01*
X108100000Y-105750001D01*
X108098796Y-105774505D01*
X108095196Y-105798773D01*
X108089235Y-105822572D01*
X108080970Y-105845671D01*
X108070480Y-105867850D01*
X108057868Y-105888893D01*
X108043253Y-105908599D01*
X108026777Y-105926777D01*
X108008599Y-105943253D01*
X107988893Y-105957868D01*
X107967850Y-105970480D01*
X107945671Y-105980970D01*
X107922572Y-105989235D01*
X107898773Y-105995196D01*
X107874505Y-105998796D01*
X107850001Y-106000000D01*
X106949999Y-106000000D01*
X106925495Y-105998796D01*
X106901227Y-105995196D01*
X106877428Y-105989235D01*
X106854329Y-105980970D01*
X106832150Y-105970480D01*
X106811107Y-105957868D01*
X106791401Y-105943253D01*
X106773223Y-105926777D01*
X106756747Y-105908599D01*
X106742132Y-105888893D01*
X106729520Y-105867850D01*
X106719030Y-105845671D01*
X106710765Y-105822572D01*
X106704804Y-105798773D01*
X106701204Y-105774505D01*
X106700000Y-105750001D01*
X106700000Y-105099999D01*
X106701204Y-105075495D01*
X106704804Y-105051227D01*
X106710765Y-105027428D01*
X106719030Y-105004329D01*
X106729520Y-104982150D01*
X106742132Y-104961107D01*
X106756747Y-104941401D01*
X106773223Y-104923223D01*
X106791401Y-104906747D01*
X106811107Y-104892132D01*
X106832150Y-104879520D01*
X106854329Y-104869030D01*
X106877428Y-104860765D01*
X106901227Y-104854804D01*
X106925495Y-104851204D01*
X106949999Y-104850000D01*
X107850001Y-104850000D01*
X107874505Y-104851204D01*
G37*
G36*
X107874505Y-102801204D02*
G01*
X107898773Y-102804804D01*
X107922572Y-102810765D01*
X107945671Y-102819030D01*
X107967850Y-102829520D01*
X107988893Y-102842132D01*
X108008599Y-102856747D01*
X108026777Y-102873223D01*
X108043253Y-102891401D01*
X108057868Y-102911107D01*
X108070480Y-102932150D01*
X108080970Y-102954329D01*
X108089235Y-102977428D01*
X108095196Y-103001227D01*
X108098796Y-103025495D01*
X108100000Y-103049999D01*
X108100000Y-103700001D01*
X108098796Y-103724505D01*
X108095196Y-103748773D01*
X108089235Y-103772572D01*
X108080970Y-103795671D01*
X108070480Y-103817850D01*
X108057868Y-103838893D01*
X108043253Y-103858599D01*
X108026777Y-103876777D01*
X108008599Y-103893253D01*
X107988893Y-103907868D01*
X107967850Y-103920480D01*
X107945671Y-103930970D01*
X107922572Y-103939235D01*
X107898773Y-103945196D01*
X107874505Y-103948796D01*
X107850001Y-103950000D01*
X106949999Y-103950000D01*
X106925495Y-103948796D01*
X106901227Y-103945196D01*
X106877428Y-103939235D01*
X106854329Y-103930970D01*
X106832150Y-103920480D01*
X106811107Y-103907868D01*
X106791401Y-103893253D01*
X106773223Y-103876777D01*
X106756747Y-103858599D01*
X106742132Y-103838893D01*
X106729520Y-103817850D01*
X106719030Y-103795671D01*
X106710765Y-103772572D01*
X106704804Y-103748773D01*
X106701204Y-103724505D01*
X106700000Y-103700001D01*
X106700000Y-103049999D01*
X106701204Y-103025495D01*
X106704804Y-103001227D01*
X106710765Y-102977428D01*
X106719030Y-102954329D01*
X106729520Y-102932150D01*
X106742132Y-102911107D01*
X106756747Y-102891401D01*
X106773223Y-102873223D01*
X106791401Y-102856747D01*
X106811107Y-102842132D01*
X106832150Y-102829520D01*
X106854329Y-102819030D01*
X106877428Y-102810765D01*
X106901227Y-102804804D01*
X106925495Y-102801204D01*
X106949999Y-102800000D01*
X107850001Y-102800000D01*
X107874505Y-102801204D01*
G37*
G36*
X131874505Y-96101204D02*
G01*
X131898773Y-96104804D01*
X131922572Y-96110765D01*
X131945671Y-96119030D01*
X131967850Y-96129520D01*
X131988893Y-96142132D01*
X132008599Y-96156747D01*
X132026777Y-96173223D01*
X132043253Y-96191401D01*
X132057868Y-96211107D01*
X132070480Y-96232150D01*
X132080970Y-96254329D01*
X132089235Y-96277428D01*
X132095196Y-96301227D01*
X132098796Y-96325495D01*
X132100000Y-96349999D01*
X132100000Y-97000001D01*
X132098796Y-97024505D01*
X132095196Y-97048773D01*
X132089235Y-97072572D01*
X132080970Y-97095671D01*
X132070480Y-97117850D01*
X132057868Y-97138893D01*
X132043253Y-97158599D01*
X132026777Y-97176777D01*
X132008599Y-97193253D01*
X131988893Y-97207868D01*
X131967850Y-97220480D01*
X131945671Y-97230970D01*
X131922572Y-97239235D01*
X131898773Y-97245196D01*
X131874505Y-97248796D01*
X131850001Y-97250000D01*
X130949999Y-97250000D01*
X130925495Y-97248796D01*
X130901227Y-97245196D01*
X130877428Y-97239235D01*
X130854329Y-97230970D01*
X130832150Y-97220480D01*
X130811107Y-97207868D01*
X130791401Y-97193253D01*
X130773223Y-97176777D01*
X130756747Y-97158599D01*
X130742132Y-97138893D01*
X130729520Y-97117850D01*
X130719030Y-97095671D01*
X130710765Y-97072572D01*
X130704804Y-97048773D01*
X130701204Y-97024505D01*
X130700000Y-97000001D01*
X130700000Y-96349999D01*
X130701204Y-96325495D01*
X130704804Y-96301227D01*
X130710765Y-96277428D01*
X130719030Y-96254329D01*
X130729520Y-96232150D01*
X130742132Y-96211107D01*
X130756747Y-96191401D01*
X130773223Y-96173223D01*
X130791401Y-96156747D01*
X130811107Y-96142132D01*
X130832150Y-96129520D01*
X130854329Y-96119030D01*
X130877428Y-96110765D01*
X130901227Y-96104804D01*
X130925495Y-96101204D01*
X130949999Y-96100000D01*
X131850001Y-96100000D01*
X131874505Y-96101204D01*
G37*
G36*
X131874505Y-98151204D02*
G01*
X131898773Y-98154804D01*
X131922572Y-98160765D01*
X131945671Y-98169030D01*
X131967850Y-98179520D01*
X131988893Y-98192132D01*
X132008599Y-98206747D01*
X132026777Y-98223223D01*
X132043253Y-98241401D01*
X132057868Y-98261107D01*
X132070480Y-98282150D01*
X132080970Y-98304329D01*
X132089235Y-98327428D01*
X132095196Y-98351227D01*
X132098796Y-98375495D01*
X132100000Y-98399999D01*
X132100000Y-99050001D01*
X132098796Y-99074505D01*
X132095196Y-99098773D01*
X132089235Y-99122572D01*
X132080970Y-99145671D01*
X132070480Y-99167850D01*
X132057868Y-99188893D01*
X132043253Y-99208599D01*
X132026777Y-99226777D01*
X132008599Y-99243253D01*
X131988893Y-99257868D01*
X131967850Y-99270480D01*
X131945671Y-99280970D01*
X131922572Y-99289235D01*
X131898773Y-99295196D01*
X131874505Y-99298796D01*
X131850001Y-99300000D01*
X130949999Y-99300000D01*
X130925495Y-99298796D01*
X130901227Y-99295196D01*
X130877428Y-99289235D01*
X130854329Y-99280970D01*
X130832150Y-99270480D01*
X130811107Y-99257868D01*
X130791401Y-99243253D01*
X130773223Y-99226777D01*
X130756747Y-99208599D01*
X130742132Y-99188893D01*
X130729520Y-99167850D01*
X130719030Y-99145671D01*
X130710765Y-99122572D01*
X130704804Y-99098773D01*
X130701204Y-99074505D01*
X130700000Y-99050001D01*
X130700000Y-98399999D01*
X130701204Y-98375495D01*
X130704804Y-98351227D01*
X130710765Y-98327428D01*
X130719030Y-98304329D01*
X130729520Y-98282150D01*
X130742132Y-98261107D01*
X130756747Y-98241401D01*
X130773223Y-98223223D01*
X130791401Y-98206747D01*
X130811107Y-98192132D01*
X130832150Y-98179520D01*
X130854329Y-98169030D01*
X130877428Y-98160765D01*
X130901227Y-98154804D01*
X130925495Y-98151204D01*
X130949999Y-98150000D01*
X131850001Y-98150000D01*
X131874505Y-98151204D01*
G37*
G36*
X111874505Y-103051204D02*
G01*
X111898773Y-103054804D01*
X111922572Y-103060765D01*
X111945671Y-103069030D01*
X111967850Y-103079520D01*
X111988893Y-103092132D01*
X112008599Y-103106747D01*
X112026777Y-103123223D01*
X112043253Y-103141401D01*
X112057868Y-103161107D01*
X112070480Y-103182150D01*
X112080970Y-103204329D01*
X112089235Y-103227428D01*
X112095196Y-103251227D01*
X112098796Y-103275495D01*
X112100000Y-103299999D01*
X112100000Y-103950001D01*
X112098796Y-103974505D01*
X112095196Y-103998773D01*
X112089235Y-104022572D01*
X112080970Y-104045671D01*
X112070480Y-104067850D01*
X112057868Y-104088893D01*
X112043253Y-104108599D01*
X112026777Y-104126777D01*
X112008599Y-104143253D01*
X111988893Y-104157868D01*
X111967850Y-104170480D01*
X111945671Y-104180970D01*
X111922572Y-104189235D01*
X111898773Y-104195196D01*
X111874505Y-104198796D01*
X111850001Y-104200000D01*
X110949999Y-104200000D01*
X110925495Y-104198796D01*
X110901227Y-104195196D01*
X110877428Y-104189235D01*
X110854329Y-104180970D01*
X110832150Y-104170480D01*
X110811107Y-104157868D01*
X110791401Y-104143253D01*
X110773223Y-104126777D01*
X110756747Y-104108599D01*
X110742132Y-104088893D01*
X110729520Y-104067850D01*
X110719030Y-104045671D01*
X110710765Y-104022572D01*
X110704804Y-103998773D01*
X110701204Y-103974505D01*
X110700000Y-103950001D01*
X110700000Y-103299999D01*
X110701204Y-103275495D01*
X110704804Y-103251227D01*
X110710765Y-103227428D01*
X110719030Y-103204329D01*
X110729520Y-103182150D01*
X110742132Y-103161107D01*
X110756747Y-103141401D01*
X110773223Y-103123223D01*
X110791401Y-103106747D01*
X110811107Y-103092132D01*
X110832150Y-103079520D01*
X110854329Y-103069030D01*
X110877428Y-103060765D01*
X110901227Y-103054804D01*
X110925495Y-103051204D01*
X110949999Y-103050000D01*
X111850001Y-103050000D01*
X111874505Y-103051204D01*
G37*
G36*
X111874505Y-101001204D02*
G01*
X111898773Y-101004804D01*
X111922572Y-101010765D01*
X111945671Y-101019030D01*
X111967850Y-101029520D01*
X111988893Y-101042132D01*
X112008599Y-101056747D01*
X112026777Y-101073223D01*
X112043253Y-101091401D01*
X112057868Y-101111107D01*
X112070480Y-101132150D01*
X112080970Y-101154329D01*
X112089235Y-101177428D01*
X112095196Y-101201227D01*
X112098796Y-101225495D01*
X112100000Y-101249999D01*
X112100000Y-101900001D01*
X112098796Y-101924505D01*
X112095196Y-101948773D01*
X112089235Y-101972572D01*
X112080970Y-101995671D01*
X112070480Y-102017850D01*
X112057868Y-102038893D01*
X112043253Y-102058599D01*
X112026777Y-102076777D01*
X112008599Y-102093253D01*
X111988893Y-102107868D01*
X111967850Y-102120480D01*
X111945671Y-102130970D01*
X111922572Y-102139235D01*
X111898773Y-102145196D01*
X111874505Y-102148796D01*
X111850001Y-102150000D01*
X110949999Y-102150000D01*
X110925495Y-102148796D01*
X110901227Y-102145196D01*
X110877428Y-102139235D01*
X110854329Y-102130970D01*
X110832150Y-102120480D01*
X110811107Y-102107868D01*
X110791401Y-102093253D01*
X110773223Y-102076777D01*
X110756747Y-102058599D01*
X110742132Y-102038893D01*
X110729520Y-102017850D01*
X110719030Y-101995671D01*
X110710765Y-101972572D01*
X110704804Y-101948773D01*
X110701204Y-101924505D01*
X110700000Y-101900001D01*
X110700000Y-101249999D01*
X110701204Y-101225495D01*
X110704804Y-101201227D01*
X110710765Y-101177428D01*
X110719030Y-101154329D01*
X110729520Y-101132150D01*
X110742132Y-101111107D01*
X110756747Y-101091401D01*
X110773223Y-101073223D01*
X110791401Y-101056747D01*
X110811107Y-101042132D01*
X110832150Y-101029520D01*
X110854329Y-101019030D01*
X110877428Y-101010765D01*
X110901227Y-101004804D01*
X110925495Y-101001204D01*
X110949999Y-101000000D01*
X111850001Y-101000000D01*
X111874505Y-101001204D01*
G37*
G36*
X125274505Y-100601204D02*
G01*
X125298773Y-100604804D01*
X125322572Y-100610765D01*
X125345671Y-100619030D01*
X125367850Y-100629520D01*
X125388893Y-100642132D01*
X125408599Y-100656747D01*
X125426777Y-100673223D01*
X125443253Y-100691401D01*
X125457868Y-100711107D01*
X125470480Y-100732150D01*
X125480970Y-100754329D01*
X125489235Y-100777428D01*
X125495196Y-100801227D01*
X125498796Y-100825495D01*
X125500000Y-100849999D01*
X125500000Y-101500001D01*
X125498796Y-101524505D01*
X125495196Y-101548773D01*
X125489235Y-101572572D01*
X125480970Y-101595671D01*
X125470480Y-101617850D01*
X125457868Y-101638893D01*
X125443253Y-101658599D01*
X125426777Y-101676777D01*
X125408599Y-101693253D01*
X125388893Y-101707868D01*
X125367850Y-101720480D01*
X125345671Y-101730970D01*
X125322572Y-101739235D01*
X125298773Y-101745196D01*
X125274505Y-101748796D01*
X125250001Y-101750000D01*
X124349999Y-101750000D01*
X124325495Y-101748796D01*
X124301227Y-101745196D01*
X124277428Y-101739235D01*
X124254329Y-101730970D01*
X124232150Y-101720480D01*
X124211107Y-101707868D01*
X124191401Y-101693253D01*
X124173223Y-101676777D01*
X124156747Y-101658599D01*
X124142132Y-101638893D01*
X124129520Y-101617850D01*
X124119030Y-101595671D01*
X124110765Y-101572572D01*
X124104804Y-101548773D01*
X124101204Y-101524505D01*
X124100000Y-101500001D01*
X124100000Y-100849999D01*
X124101204Y-100825495D01*
X124104804Y-100801227D01*
X124110765Y-100777428D01*
X124119030Y-100754329D01*
X124129520Y-100732150D01*
X124142132Y-100711107D01*
X124156747Y-100691401D01*
X124173223Y-100673223D01*
X124191401Y-100656747D01*
X124211107Y-100642132D01*
X124232150Y-100629520D01*
X124254329Y-100619030D01*
X124277428Y-100610765D01*
X124301227Y-100604804D01*
X124325495Y-100601204D01*
X124349999Y-100600000D01*
X125250001Y-100600000D01*
X125274505Y-100601204D01*
G37*
G36*
X125274505Y-102651204D02*
G01*
X125298773Y-102654804D01*
X125322572Y-102660765D01*
X125345671Y-102669030D01*
X125367850Y-102679520D01*
X125388893Y-102692132D01*
X125408599Y-102706747D01*
X125426777Y-102723223D01*
X125443253Y-102741401D01*
X125457868Y-102761107D01*
X125470480Y-102782150D01*
X125480970Y-102804329D01*
X125489235Y-102827428D01*
X125495196Y-102851227D01*
X125498796Y-102875495D01*
X125500000Y-102899999D01*
X125500000Y-103550001D01*
X125498796Y-103574505D01*
X125495196Y-103598773D01*
X125489235Y-103622572D01*
X125480970Y-103645671D01*
X125470480Y-103667850D01*
X125457868Y-103688893D01*
X125443253Y-103708599D01*
X125426777Y-103726777D01*
X125408599Y-103743253D01*
X125388893Y-103757868D01*
X125367850Y-103770480D01*
X125345671Y-103780970D01*
X125322572Y-103789235D01*
X125298773Y-103795196D01*
X125274505Y-103798796D01*
X125250001Y-103800000D01*
X124349999Y-103800000D01*
X124325495Y-103798796D01*
X124301227Y-103795196D01*
X124277428Y-103789235D01*
X124254329Y-103780970D01*
X124232150Y-103770480D01*
X124211107Y-103757868D01*
X124191401Y-103743253D01*
X124173223Y-103726777D01*
X124156747Y-103708599D01*
X124142132Y-103688893D01*
X124129520Y-103667850D01*
X124119030Y-103645671D01*
X124110765Y-103622572D01*
X124104804Y-103598773D01*
X124101204Y-103574505D01*
X124100000Y-103550001D01*
X124100000Y-102899999D01*
X124101204Y-102875495D01*
X124104804Y-102851227D01*
X124110765Y-102827428D01*
X124119030Y-102804329D01*
X124129520Y-102782150D01*
X124142132Y-102761107D01*
X124156747Y-102741401D01*
X124173223Y-102723223D01*
X124191401Y-102706747D01*
X124211107Y-102692132D01*
X124232150Y-102679520D01*
X124254329Y-102669030D01*
X124277428Y-102660765D01*
X124301227Y-102654804D01*
X124325495Y-102651204D01*
X124349999Y-102650000D01*
X125250001Y-102650000D01*
X125274505Y-102651204D01*
G37*
G36*
X121024505Y-76401204D02*
G01*
X121048773Y-76404804D01*
X121072572Y-76410765D01*
X121095671Y-76419030D01*
X121117850Y-76429520D01*
X121138893Y-76442132D01*
X121158599Y-76456747D01*
X121176777Y-76473223D01*
X121193253Y-76491401D01*
X121207868Y-76511107D01*
X121220480Y-76532150D01*
X121230970Y-76554329D01*
X121239235Y-76577428D01*
X121245196Y-76601227D01*
X121248796Y-76625495D01*
X121250000Y-76649999D01*
X121250000Y-77550001D01*
X121248796Y-77574505D01*
X121245196Y-77598773D01*
X121239235Y-77622572D01*
X121230970Y-77645671D01*
X121220480Y-77667850D01*
X121207868Y-77688893D01*
X121193253Y-77708599D01*
X121176777Y-77726777D01*
X121158599Y-77743253D01*
X121138893Y-77757868D01*
X121117850Y-77770480D01*
X121095671Y-77780970D01*
X121072572Y-77789235D01*
X121048773Y-77795196D01*
X121024505Y-77798796D01*
X121000001Y-77800000D01*
X120349999Y-77800000D01*
X120325495Y-77798796D01*
X120301227Y-77795196D01*
X120277428Y-77789235D01*
X120254329Y-77780970D01*
X120232150Y-77770480D01*
X120211107Y-77757868D01*
X120191401Y-77743253D01*
X120173223Y-77726777D01*
X120156747Y-77708599D01*
X120142132Y-77688893D01*
X120129520Y-77667850D01*
X120119030Y-77645671D01*
X120110765Y-77622572D01*
X120104804Y-77598773D01*
X120101204Y-77574505D01*
X120100000Y-77550001D01*
X120100000Y-76649999D01*
X120101204Y-76625495D01*
X120104804Y-76601227D01*
X120110765Y-76577428D01*
X120119030Y-76554329D01*
X120129520Y-76532150D01*
X120142132Y-76511107D01*
X120156747Y-76491401D01*
X120173223Y-76473223D01*
X120191401Y-76456747D01*
X120211107Y-76442132D01*
X120232150Y-76429520D01*
X120254329Y-76419030D01*
X120277428Y-76410765D01*
X120301227Y-76404804D01*
X120325495Y-76401204D01*
X120349999Y-76400000D01*
X121000001Y-76400000D01*
X121024505Y-76401204D01*
G37*
G36*
X123074505Y-76401204D02*
G01*
X123098773Y-76404804D01*
X123122572Y-76410765D01*
X123145671Y-76419030D01*
X123167850Y-76429520D01*
X123188893Y-76442132D01*
X123208599Y-76456747D01*
X123226777Y-76473223D01*
X123243253Y-76491401D01*
X123257868Y-76511107D01*
X123270480Y-76532150D01*
X123280970Y-76554329D01*
X123289235Y-76577428D01*
X123295196Y-76601227D01*
X123298796Y-76625495D01*
X123300000Y-76649999D01*
X123300000Y-77550001D01*
X123298796Y-77574505D01*
X123295196Y-77598773D01*
X123289235Y-77622572D01*
X123280970Y-77645671D01*
X123270480Y-77667850D01*
X123257868Y-77688893D01*
X123243253Y-77708599D01*
X123226777Y-77726777D01*
X123208599Y-77743253D01*
X123188893Y-77757868D01*
X123167850Y-77770480D01*
X123145671Y-77780970D01*
X123122572Y-77789235D01*
X123098773Y-77795196D01*
X123074505Y-77798796D01*
X123050001Y-77800000D01*
X122399999Y-77800000D01*
X122375495Y-77798796D01*
X122351227Y-77795196D01*
X122327428Y-77789235D01*
X122304329Y-77780970D01*
X122282150Y-77770480D01*
X122261107Y-77757868D01*
X122241401Y-77743253D01*
X122223223Y-77726777D01*
X122206747Y-77708599D01*
X122192132Y-77688893D01*
X122179520Y-77667850D01*
X122169030Y-77645671D01*
X122160765Y-77622572D01*
X122154804Y-77598773D01*
X122151204Y-77574505D01*
X122150000Y-77550001D01*
X122150000Y-76649999D01*
X122151204Y-76625495D01*
X122154804Y-76601227D01*
X122160765Y-76577428D01*
X122169030Y-76554329D01*
X122179520Y-76532150D01*
X122192132Y-76511107D01*
X122206747Y-76491401D01*
X122223223Y-76473223D01*
X122241401Y-76456747D01*
X122261107Y-76442132D01*
X122282150Y-76429520D01*
X122304329Y-76419030D01*
X122327428Y-76410765D01*
X122351227Y-76404804D01*
X122375495Y-76401204D01*
X122399999Y-76400000D01*
X123050001Y-76400000D01*
X123074505Y-76401204D01*
G37*
G36*
X114274505Y-76401204D02*
G01*
X114298773Y-76404804D01*
X114322572Y-76410765D01*
X114345671Y-76419030D01*
X114367850Y-76429520D01*
X114388893Y-76442132D01*
X114408599Y-76456747D01*
X114426777Y-76473223D01*
X114443253Y-76491401D01*
X114457868Y-76511107D01*
X114470480Y-76532150D01*
X114480970Y-76554329D01*
X114489235Y-76577428D01*
X114495196Y-76601227D01*
X114498796Y-76625495D01*
X114500000Y-76649999D01*
X114500000Y-77550001D01*
X114498796Y-77574505D01*
X114495196Y-77598773D01*
X114489235Y-77622572D01*
X114480970Y-77645671D01*
X114470480Y-77667850D01*
X114457868Y-77688893D01*
X114443253Y-77708599D01*
X114426777Y-77726777D01*
X114408599Y-77743253D01*
X114388893Y-77757868D01*
X114367850Y-77770480D01*
X114345671Y-77780970D01*
X114322572Y-77789235D01*
X114298773Y-77795196D01*
X114274505Y-77798796D01*
X114250001Y-77800000D01*
X113599999Y-77800000D01*
X113575495Y-77798796D01*
X113551227Y-77795196D01*
X113527428Y-77789235D01*
X113504329Y-77780970D01*
X113482150Y-77770480D01*
X113461107Y-77757868D01*
X113441401Y-77743253D01*
X113423223Y-77726777D01*
X113406747Y-77708599D01*
X113392132Y-77688893D01*
X113379520Y-77667850D01*
X113369030Y-77645671D01*
X113360765Y-77622572D01*
X113354804Y-77598773D01*
X113351204Y-77574505D01*
X113350000Y-77550001D01*
X113350000Y-76649999D01*
X113351204Y-76625495D01*
X113354804Y-76601227D01*
X113360765Y-76577428D01*
X113369030Y-76554329D01*
X113379520Y-76532150D01*
X113392132Y-76511107D01*
X113406747Y-76491401D01*
X113423223Y-76473223D01*
X113441401Y-76456747D01*
X113461107Y-76442132D01*
X113482150Y-76429520D01*
X113504329Y-76419030D01*
X113527428Y-76410765D01*
X113551227Y-76404804D01*
X113575495Y-76401204D01*
X113599999Y-76400000D01*
X114250001Y-76400000D01*
X114274505Y-76401204D01*
G37*
G36*
X112224505Y-76401204D02*
G01*
X112248773Y-76404804D01*
X112272572Y-76410765D01*
X112295671Y-76419030D01*
X112317850Y-76429520D01*
X112338893Y-76442132D01*
X112358599Y-76456747D01*
X112376777Y-76473223D01*
X112393253Y-76491401D01*
X112407868Y-76511107D01*
X112420480Y-76532150D01*
X112430970Y-76554329D01*
X112439235Y-76577428D01*
X112445196Y-76601227D01*
X112448796Y-76625495D01*
X112450000Y-76649999D01*
X112450000Y-77550001D01*
X112448796Y-77574505D01*
X112445196Y-77598773D01*
X112439235Y-77622572D01*
X112430970Y-77645671D01*
X112420480Y-77667850D01*
X112407868Y-77688893D01*
X112393253Y-77708599D01*
X112376777Y-77726777D01*
X112358599Y-77743253D01*
X112338893Y-77757868D01*
X112317850Y-77770480D01*
X112295671Y-77780970D01*
X112272572Y-77789235D01*
X112248773Y-77795196D01*
X112224505Y-77798796D01*
X112200001Y-77800000D01*
X111549999Y-77800000D01*
X111525495Y-77798796D01*
X111501227Y-77795196D01*
X111477428Y-77789235D01*
X111454329Y-77780970D01*
X111432150Y-77770480D01*
X111411107Y-77757868D01*
X111391401Y-77743253D01*
X111373223Y-77726777D01*
X111356747Y-77708599D01*
X111342132Y-77688893D01*
X111329520Y-77667850D01*
X111319030Y-77645671D01*
X111310765Y-77622572D01*
X111304804Y-77598773D01*
X111301204Y-77574505D01*
X111300000Y-77550001D01*
X111300000Y-76649999D01*
X111301204Y-76625495D01*
X111304804Y-76601227D01*
X111310765Y-76577428D01*
X111319030Y-76554329D01*
X111329520Y-76532150D01*
X111342132Y-76511107D01*
X111356747Y-76491401D01*
X111373223Y-76473223D01*
X111391401Y-76456747D01*
X111411107Y-76442132D01*
X111432150Y-76429520D01*
X111454329Y-76419030D01*
X111477428Y-76410765D01*
X111501227Y-76404804D01*
X111525495Y-76401204D01*
X111549999Y-76400000D01*
X112200001Y-76400000D01*
X112224505Y-76401204D01*
G37*
G36*
X107874505Y-109251204D02*
G01*
X107898773Y-109254804D01*
X107922572Y-109260765D01*
X107945671Y-109269030D01*
X107967850Y-109279520D01*
X107988893Y-109292132D01*
X108008599Y-109306747D01*
X108026777Y-109323223D01*
X108043253Y-109341401D01*
X108057868Y-109361107D01*
X108070480Y-109382150D01*
X108080970Y-109404329D01*
X108089235Y-109427428D01*
X108095196Y-109451227D01*
X108098796Y-109475495D01*
X108100000Y-109499999D01*
X108100000Y-110150001D01*
X108098796Y-110174505D01*
X108095196Y-110198773D01*
X108089235Y-110222572D01*
X108080970Y-110245671D01*
X108070480Y-110267850D01*
X108057868Y-110288893D01*
X108043253Y-110308599D01*
X108026777Y-110326777D01*
X108008599Y-110343253D01*
X107988893Y-110357868D01*
X107967850Y-110370480D01*
X107945671Y-110380970D01*
X107922572Y-110389235D01*
X107898773Y-110395196D01*
X107874505Y-110398796D01*
X107850001Y-110400000D01*
X106949999Y-110400000D01*
X106925495Y-110398796D01*
X106901227Y-110395196D01*
X106877428Y-110389235D01*
X106854329Y-110380970D01*
X106832150Y-110370480D01*
X106811107Y-110357868D01*
X106791401Y-110343253D01*
X106773223Y-110326777D01*
X106756747Y-110308599D01*
X106742132Y-110288893D01*
X106729520Y-110267850D01*
X106719030Y-110245671D01*
X106710765Y-110222572D01*
X106704804Y-110198773D01*
X106701204Y-110174505D01*
X106700000Y-110150001D01*
X106700000Y-109499999D01*
X106701204Y-109475495D01*
X106704804Y-109451227D01*
X106710765Y-109427428D01*
X106719030Y-109404329D01*
X106729520Y-109382150D01*
X106742132Y-109361107D01*
X106756747Y-109341401D01*
X106773223Y-109323223D01*
X106791401Y-109306747D01*
X106811107Y-109292132D01*
X106832150Y-109279520D01*
X106854329Y-109269030D01*
X106877428Y-109260765D01*
X106901227Y-109254804D01*
X106925495Y-109251204D01*
X106949999Y-109250000D01*
X107850001Y-109250000D01*
X107874505Y-109251204D01*
G37*
G36*
X107874505Y-107201204D02*
G01*
X107898773Y-107204804D01*
X107922572Y-107210765D01*
X107945671Y-107219030D01*
X107967850Y-107229520D01*
X107988893Y-107242132D01*
X108008599Y-107256747D01*
X108026777Y-107273223D01*
X108043253Y-107291401D01*
X108057868Y-107311107D01*
X108070480Y-107332150D01*
X108080970Y-107354329D01*
X108089235Y-107377428D01*
X108095196Y-107401227D01*
X108098796Y-107425495D01*
X108100000Y-107449999D01*
X108100000Y-108100001D01*
X108098796Y-108124505D01*
X108095196Y-108148773D01*
X108089235Y-108172572D01*
X108080970Y-108195671D01*
X108070480Y-108217850D01*
X108057868Y-108238893D01*
X108043253Y-108258599D01*
X108026777Y-108276777D01*
X108008599Y-108293253D01*
X107988893Y-108307868D01*
X107967850Y-108320480D01*
X107945671Y-108330970D01*
X107922572Y-108339235D01*
X107898773Y-108345196D01*
X107874505Y-108348796D01*
X107850001Y-108350000D01*
X106949999Y-108350000D01*
X106925495Y-108348796D01*
X106901227Y-108345196D01*
X106877428Y-108339235D01*
X106854329Y-108330970D01*
X106832150Y-108320480D01*
X106811107Y-108307868D01*
X106791401Y-108293253D01*
X106773223Y-108276777D01*
X106756747Y-108258599D01*
X106742132Y-108238893D01*
X106729520Y-108217850D01*
X106719030Y-108195671D01*
X106710765Y-108172572D01*
X106704804Y-108148773D01*
X106701204Y-108124505D01*
X106700000Y-108100001D01*
X106700000Y-107449999D01*
X106701204Y-107425495D01*
X106704804Y-107401227D01*
X106710765Y-107377428D01*
X106719030Y-107354329D01*
X106729520Y-107332150D01*
X106742132Y-107311107D01*
X106756747Y-107291401D01*
X106773223Y-107273223D01*
X106791401Y-107256747D01*
X106811107Y-107242132D01*
X106832150Y-107229520D01*
X106854329Y-107219030D01*
X106877428Y-107210765D01*
X106901227Y-107204804D01*
X106925495Y-107201204D01*
X106949999Y-107200000D01*
X107850001Y-107200000D01*
X107874505Y-107201204D01*
G37*
M02*
