G04 #@! TF.GenerationSoftware,KiCad,Pcbnew,(5.1.5-0-10_14)*
G04 #@! TF.CreationDate,2020-11-09T16:05:26+01:00*
G04 #@! TF.ProjectId,ATmega128_CC1101_Board,41546d65-6761-4313-9238-5f4343313130,rev?*
G04 #@! TF.SameCoordinates,Original*
G04 #@! TF.FileFunction,Copper,L1,Top*
G04 #@! TF.FilePolarity,Positive*
%FSLAX46Y46*%
G04 Gerber Fmt 4.6, Leading zero omitted, Abs format (unit mm)*
G04 Created by KiCad (PCBNEW (5.1.5-0-10_14)) date 2020-11-09 16:05:26*
%MOMM*%
%LPD*%
G04 APERTURE LIST*
%ADD10R,1.700000X1.700000*%
%ADD11O,1.700000X1.700000*%
%ADD12R,1.550000X1.300000*%
%ADD13C,0.100000*%
%ADD14R,3.300000X1.540000*%
%ADD15R,0.550000X1.500000*%
%ADD16R,1.500000X0.550000*%
%ADD17C,0.800000*%
%ADD18C,0.250000*%
%ADD19C,0.254000*%
G04 APERTURE END LIST*
D10*
X102400000Y-67600000D03*
D11*
X102400000Y-87980000D03*
X102400000Y-85440000D03*
X102400000Y-82900000D03*
X102400000Y-80360000D03*
X102400000Y-77820000D03*
X102400000Y-75280000D03*
X102400000Y-72740000D03*
X102400000Y-70200000D03*
X131800000Y-70220000D03*
X131800000Y-72760000D03*
X131800000Y-75300000D03*
X131800000Y-77840000D03*
X131800000Y-80380000D03*
X131800000Y-82920000D03*
X131800000Y-85460000D03*
X131800000Y-88000000D03*
X102400000Y-109780000D03*
X102400000Y-107240000D03*
X102400000Y-104700000D03*
X102400000Y-102160000D03*
X102400000Y-99620000D03*
X102400000Y-97080000D03*
X102400000Y-94540000D03*
X102400000Y-92000000D03*
D12*
X121180000Y-73150000D03*
X121180000Y-68650000D03*
X113220000Y-68650000D03*
X113220000Y-73150000D03*
G04 #@! TA.AperFunction,SMDPad,CuDef*
D13*
G36*
X131649504Y-104526204D02*
G01*
X131673773Y-104529804D01*
X131697571Y-104535765D01*
X131720671Y-104544030D01*
X131742849Y-104554520D01*
X131763893Y-104567133D01*
X131783598Y-104581747D01*
X131801777Y-104598223D01*
X131818253Y-104616402D01*
X131832867Y-104636107D01*
X131845480Y-104657151D01*
X131855970Y-104679329D01*
X131864235Y-104702429D01*
X131870196Y-104726227D01*
X131873796Y-104750496D01*
X131875000Y-104775000D01*
X131875000Y-105775000D01*
X131873796Y-105799504D01*
X131870196Y-105823773D01*
X131864235Y-105847571D01*
X131855970Y-105870671D01*
X131845480Y-105892849D01*
X131832867Y-105913893D01*
X131818253Y-105933598D01*
X131801777Y-105951777D01*
X131783598Y-105968253D01*
X131763893Y-105982867D01*
X131742849Y-105995480D01*
X131720671Y-106005970D01*
X131697571Y-106014235D01*
X131673773Y-106020196D01*
X131649504Y-106023796D01*
X131625000Y-106025000D01*
X129775000Y-106025000D01*
X129750496Y-106023796D01*
X129726227Y-106020196D01*
X129702429Y-106014235D01*
X129679329Y-106005970D01*
X129657151Y-105995480D01*
X129636107Y-105982867D01*
X129616402Y-105968253D01*
X129598223Y-105951777D01*
X129581747Y-105933598D01*
X129567133Y-105913893D01*
X129554520Y-105892849D01*
X129544030Y-105870671D01*
X129535765Y-105847571D01*
X129529804Y-105823773D01*
X129526204Y-105799504D01*
X129525000Y-105775000D01*
X129525000Y-104775000D01*
X129526204Y-104750496D01*
X129529804Y-104726227D01*
X129535765Y-104702429D01*
X129544030Y-104679329D01*
X129554520Y-104657151D01*
X129567133Y-104636107D01*
X129581747Y-104616402D01*
X129598223Y-104598223D01*
X129616402Y-104581747D01*
X129636107Y-104567133D01*
X129657151Y-104554520D01*
X129679329Y-104544030D01*
X129702429Y-104535765D01*
X129726227Y-104529804D01*
X129750496Y-104526204D01*
X129775000Y-104525000D01*
X131625000Y-104525000D01*
X131649504Y-104526204D01*
G37*
G04 #@! TD.AperFunction*
G04 #@! TA.AperFunction,SMDPad,CuDef*
G36*
X131649504Y-107776204D02*
G01*
X131673773Y-107779804D01*
X131697571Y-107785765D01*
X131720671Y-107794030D01*
X131742849Y-107804520D01*
X131763893Y-107817133D01*
X131783598Y-107831747D01*
X131801777Y-107848223D01*
X131818253Y-107866402D01*
X131832867Y-107886107D01*
X131845480Y-107907151D01*
X131855970Y-107929329D01*
X131864235Y-107952429D01*
X131870196Y-107976227D01*
X131873796Y-108000496D01*
X131875000Y-108025000D01*
X131875000Y-109025000D01*
X131873796Y-109049504D01*
X131870196Y-109073773D01*
X131864235Y-109097571D01*
X131855970Y-109120671D01*
X131845480Y-109142849D01*
X131832867Y-109163893D01*
X131818253Y-109183598D01*
X131801777Y-109201777D01*
X131783598Y-109218253D01*
X131763893Y-109232867D01*
X131742849Y-109245480D01*
X131720671Y-109255970D01*
X131697571Y-109264235D01*
X131673773Y-109270196D01*
X131649504Y-109273796D01*
X131625000Y-109275000D01*
X129775000Y-109275000D01*
X129750496Y-109273796D01*
X129726227Y-109270196D01*
X129702429Y-109264235D01*
X129679329Y-109255970D01*
X129657151Y-109245480D01*
X129636107Y-109232867D01*
X129616402Y-109218253D01*
X129598223Y-109201777D01*
X129581747Y-109183598D01*
X129567133Y-109163893D01*
X129554520Y-109142849D01*
X129544030Y-109120671D01*
X129535765Y-109097571D01*
X129529804Y-109073773D01*
X129526204Y-109049504D01*
X129525000Y-109025000D01*
X129525000Y-108025000D01*
X129526204Y-108000496D01*
X129529804Y-107976227D01*
X129535765Y-107952429D01*
X129544030Y-107929329D01*
X129554520Y-107907151D01*
X129567133Y-107886107D01*
X129581747Y-107866402D01*
X129598223Y-107848223D01*
X129616402Y-107831747D01*
X129636107Y-107817133D01*
X129657151Y-107804520D01*
X129679329Y-107794030D01*
X129702429Y-107785765D01*
X129726227Y-107779804D01*
X129750496Y-107776204D01*
X129775000Y-107775000D01*
X131625000Y-107775000D01*
X131649504Y-107776204D01*
G37*
G04 #@! TD.AperFunction*
G04 #@! TA.AperFunction,SMDPad,CuDef*
G36*
X117124505Y-97601204D02*
G01*
X117148773Y-97604804D01*
X117172572Y-97610765D01*
X117195671Y-97619030D01*
X117217850Y-97629520D01*
X117238893Y-97642132D01*
X117258599Y-97656747D01*
X117276777Y-97673223D01*
X117293253Y-97691401D01*
X117307868Y-97711107D01*
X117320480Y-97732150D01*
X117330970Y-97754329D01*
X117339235Y-97777428D01*
X117345196Y-97801227D01*
X117348796Y-97825495D01*
X117350000Y-97849999D01*
X117350000Y-98750001D01*
X117348796Y-98774505D01*
X117345196Y-98798773D01*
X117339235Y-98822572D01*
X117330970Y-98845671D01*
X117320480Y-98867850D01*
X117307868Y-98888893D01*
X117293253Y-98908599D01*
X117276777Y-98926777D01*
X117258599Y-98943253D01*
X117238893Y-98957868D01*
X117217850Y-98970480D01*
X117195671Y-98980970D01*
X117172572Y-98989235D01*
X117148773Y-98995196D01*
X117124505Y-98998796D01*
X117100001Y-99000000D01*
X116449999Y-99000000D01*
X116425495Y-98998796D01*
X116401227Y-98995196D01*
X116377428Y-98989235D01*
X116354329Y-98980970D01*
X116332150Y-98970480D01*
X116311107Y-98957868D01*
X116291401Y-98943253D01*
X116273223Y-98926777D01*
X116256747Y-98908599D01*
X116242132Y-98888893D01*
X116229520Y-98867850D01*
X116219030Y-98845671D01*
X116210765Y-98822572D01*
X116204804Y-98798773D01*
X116201204Y-98774505D01*
X116200000Y-98750001D01*
X116200000Y-97849999D01*
X116201204Y-97825495D01*
X116204804Y-97801227D01*
X116210765Y-97777428D01*
X116219030Y-97754329D01*
X116229520Y-97732150D01*
X116242132Y-97711107D01*
X116256747Y-97691401D01*
X116273223Y-97673223D01*
X116291401Y-97656747D01*
X116311107Y-97642132D01*
X116332150Y-97629520D01*
X116354329Y-97619030D01*
X116377428Y-97610765D01*
X116401227Y-97604804D01*
X116425495Y-97601204D01*
X116449999Y-97600000D01*
X117100001Y-97600000D01*
X117124505Y-97601204D01*
G37*
G04 #@! TD.AperFunction*
G04 #@! TA.AperFunction,SMDPad,CuDef*
G36*
X119174505Y-97601204D02*
G01*
X119198773Y-97604804D01*
X119222572Y-97610765D01*
X119245671Y-97619030D01*
X119267850Y-97629520D01*
X119288893Y-97642132D01*
X119308599Y-97656747D01*
X119326777Y-97673223D01*
X119343253Y-97691401D01*
X119357868Y-97711107D01*
X119370480Y-97732150D01*
X119380970Y-97754329D01*
X119389235Y-97777428D01*
X119395196Y-97801227D01*
X119398796Y-97825495D01*
X119400000Y-97849999D01*
X119400000Y-98750001D01*
X119398796Y-98774505D01*
X119395196Y-98798773D01*
X119389235Y-98822572D01*
X119380970Y-98845671D01*
X119370480Y-98867850D01*
X119357868Y-98888893D01*
X119343253Y-98908599D01*
X119326777Y-98926777D01*
X119308599Y-98943253D01*
X119288893Y-98957868D01*
X119267850Y-98970480D01*
X119245671Y-98980970D01*
X119222572Y-98989235D01*
X119198773Y-98995196D01*
X119174505Y-98998796D01*
X119150001Y-99000000D01*
X118499999Y-99000000D01*
X118475495Y-98998796D01*
X118451227Y-98995196D01*
X118427428Y-98989235D01*
X118404329Y-98980970D01*
X118382150Y-98970480D01*
X118361107Y-98957868D01*
X118341401Y-98943253D01*
X118323223Y-98926777D01*
X118306747Y-98908599D01*
X118292132Y-98888893D01*
X118279520Y-98867850D01*
X118269030Y-98845671D01*
X118260765Y-98822572D01*
X118254804Y-98798773D01*
X118251204Y-98774505D01*
X118250000Y-98750001D01*
X118250000Y-97849999D01*
X118251204Y-97825495D01*
X118254804Y-97801227D01*
X118260765Y-97777428D01*
X118269030Y-97754329D01*
X118279520Y-97732150D01*
X118292132Y-97711107D01*
X118306747Y-97691401D01*
X118323223Y-97673223D01*
X118341401Y-97656747D01*
X118361107Y-97642132D01*
X118382150Y-97629520D01*
X118404329Y-97619030D01*
X118427428Y-97610765D01*
X118451227Y-97604804D01*
X118475495Y-97601204D01*
X118499999Y-97600000D01*
X119150001Y-97600000D01*
X119174505Y-97601204D01*
G37*
G04 #@! TD.AperFunction*
D14*
X121800000Y-103620000D03*
X114400000Y-103620000D03*
X114400000Y-100980000D03*
X121800000Y-100980000D03*
G04 #@! TA.AperFunction,SMDPad,CuDef*
D13*
G36*
X111874505Y-99251204D02*
G01*
X111898773Y-99254804D01*
X111922572Y-99260765D01*
X111945671Y-99269030D01*
X111967850Y-99279520D01*
X111988893Y-99292132D01*
X112008599Y-99306747D01*
X112026777Y-99323223D01*
X112043253Y-99341401D01*
X112057868Y-99361107D01*
X112070480Y-99382150D01*
X112080970Y-99404329D01*
X112089235Y-99427428D01*
X112095196Y-99451227D01*
X112098796Y-99475495D01*
X112100000Y-99499999D01*
X112100000Y-100150001D01*
X112098796Y-100174505D01*
X112095196Y-100198773D01*
X112089235Y-100222572D01*
X112080970Y-100245671D01*
X112070480Y-100267850D01*
X112057868Y-100288893D01*
X112043253Y-100308599D01*
X112026777Y-100326777D01*
X112008599Y-100343253D01*
X111988893Y-100357868D01*
X111967850Y-100370480D01*
X111945671Y-100380970D01*
X111922572Y-100389235D01*
X111898773Y-100395196D01*
X111874505Y-100398796D01*
X111850001Y-100400000D01*
X110949999Y-100400000D01*
X110925495Y-100398796D01*
X110901227Y-100395196D01*
X110877428Y-100389235D01*
X110854329Y-100380970D01*
X110832150Y-100370480D01*
X110811107Y-100357868D01*
X110791401Y-100343253D01*
X110773223Y-100326777D01*
X110756747Y-100308599D01*
X110742132Y-100288893D01*
X110729520Y-100267850D01*
X110719030Y-100245671D01*
X110710765Y-100222572D01*
X110704804Y-100198773D01*
X110701204Y-100174505D01*
X110700000Y-100150001D01*
X110700000Y-99499999D01*
X110701204Y-99475495D01*
X110704804Y-99451227D01*
X110710765Y-99427428D01*
X110719030Y-99404329D01*
X110729520Y-99382150D01*
X110742132Y-99361107D01*
X110756747Y-99341401D01*
X110773223Y-99323223D01*
X110791401Y-99306747D01*
X110811107Y-99292132D01*
X110832150Y-99279520D01*
X110854329Y-99269030D01*
X110877428Y-99260765D01*
X110901227Y-99254804D01*
X110925495Y-99251204D01*
X110949999Y-99250000D01*
X111850001Y-99250000D01*
X111874505Y-99251204D01*
G37*
G04 #@! TD.AperFunction*
G04 #@! TA.AperFunction,SMDPad,CuDef*
G36*
X111874505Y-97201204D02*
G01*
X111898773Y-97204804D01*
X111922572Y-97210765D01*
X111945671Y-97219030D01*
X111967850Y-97229520D01*
X111988893Y-97242132D01*
X112008599Y-97256747D01*
X112026777Y-97273223D01*
X112043253Y-97291401D01*
X112057868Y-97311107D01*
X112070480Y-97332150D01*
X112080970Y-97354329D01*
X112089235Y-97377428D01*
X112095196Y-97401227D01*
X112098796Y-97425495D01*
X112100000Y-97449999D01*
X112100000Y-98100001D01*
X112098796Y-98124505D01*
X112095196Y-98148773D01*
X112089235Y-98172572D01*
X112080970Y-98195671D01*
X112070480Y-98217850D01*
X112057868Y-98238893D01*
X112043253Y-98258599D01*
X112026777Y-98276777D01*
X112008599Y-98293253D01*
X111988893Y-98307868D01*
X111967850Y-98320480D01*
X111945671Y-98330970D01*
X111922572Y-98339235D01*
X111898773Y-98345196D01*
X111874505Y-98348796D01*
X111850001Y-98350000D01*
X110949999Y-98350000D01*
X110925495Y-98348796D01*
X110901227Y-98345196D01*
X110877428Y-98339235D01*
X110854329Y-98330970D01*
X110832150Y-98320480D01*
X110811107Y-98307868D01*
X110791401Y-98293253D01*
X110773223Y-98276777D01*
X110756747Y-98258599D01*
X110742132Y-98238893D01*
X110729520Y-98217850D01*
X110719030Y-98195671D01*
X110710765Y-98172572D01*
X110704804Y-98148773D01*
X110701204Y-98124505D01*
X110700000Y-98100001D01*
X110700000Y-97449999D01*
X110701204Y-97425495D01*
X110704804Y-97401227D01*
X110710765Y-97377428D01*
X110719030Y-97354329D01*
X110729520Y-97332150D01*
X110742132Y-97311107D01*
X110756747Y-97291401D01*
X110773223Y-97273223D01*
X110791401Y-97256747D01*
X110811107Y-97242132D01*
X110832150Y-97229520D01*
X110854329Y-97219030D01*
X110877428Y-97210765D01*
X110901227Y-97204804D01*
X110925495Y-97201204D01*
X110949999Y-97200000D01*
X111850001Y-97200000D01*
X111874505Y-97201204D01*
G37*
G04 #@! TD.AperFunction*
D15*
X112600000Y-79700000D03*
X113400000Y-79700000D03*
X114200000Y-79700000D03*
X115000000Y-79700000D03*
X115800000Y-79700000D03*
X116600000Y-79700000D03*
X117400000Y-79700000D03*
X118200000Y-79700000D03*
X119000000Y-79700000D03*
X119800000Y-79700000D03*
X120600000Y-79700000D03*
X121400000Y-79700000D03*
X122200000Y-79700000D03*
X123000000Y-79700000D03*
X123800000Y-79700000D03*
X124600000Y-79700000D03*
D16*
X126300000Y-81400000D03*
X126300000Y-82200000D03*
X126300000Y-83000000D03*
X126300000Y-83800000D03*
X126300000Y-84600000D03*
X126300000Y-85400000D03*
X126300000Y-86200000D03*
X126300000Y-87000000D03*
X126300000Y-87800000D03*
X126300000Y-88600000D03*
X126300000Y-89400000D03*
X126300000Y-90200000D03*
X126300000Y-91000000D03*
X126300000Y-91800000D03*
X126300000Y-92600000D03*
X126300000Y-93400000D03*
D15*
X124600000Y-95100000D03*
X123800000Y-95100000D03*
X123000000Y-95100000D03*
X122200000Y-95100000D03*
X121400000Y-95100000D03*
X120600000Y-95100000D03*
X119800000Y-95100000D03*
X119000000Y-95100000D03*
X118200000Y-95100000D03*
X117400000Y-95100000D03*
X116600000Y-95100000D03*
X115800000Y-95100000D03*
X115000000Y-95100000D03*
X114200000Y-95100000D03*
X113400000Y-95100000D03*
X112600000Y-95100000D03*
D16*
X110900000Y-93400000D03*
X110900000Y-92600000D03*
X110900000Y-91800000D03*
X110900000Y-91000000D03*
X110900000Y-90200000D03*
X110900000Y-89400000D03*
X110900000Y-88600000D03*
X110900000Y-87800000D03*
X110900000Y-87000000D03*
X110900000Y-86200000D03*
X110900000Y-85400000D03*
X110900000Y-84600000D03*
X110900000Y-83800000D03*
X110900000Y-83000000D03*
X110900000Y-82200000D03*
X110900000Y-81400000D03*
G04 #@! TA.AperFunction,SMDPad,CuDef*
D13*
G36*
X108674505Y-79001204D02*
G01*
X108698773Y-79004804D01*
X108722572Y-79010765D01*
X108745671Y-79019030D01*
X108767850Y-79029520D01*
X108788893Y-79042132D01*
X108808599Y-79056747D01*
X108826777Y-79073223D01*
X108843253Y-79091401D01*
X108857868Y-79111107D01*
X108870480Y-79132150D01*
X108880970Y-79154329D01*
X108889235Y-79177428D01*
X108895196Y-79201227D01*
X108898796Y-79225495D01*
X108900000Y-79249999D01*
X108900000Y-79900001D01*
X108898796Y-79924505D01*
X108895196Y-79948773D01*
X108889235Y-79972572D01*
X108880970Y-79995671D01*
X108870480Y-80017850D01*
X108857868Y-80038893D01*
X108843253Y-80058599D01*
X108826777Y-80076777D01*
X108808599Y-80093253D01*
X108788893Y-80107868D01*
X108767850Y-80120480D01*
X108745671Y-80130970D01*
X108722572Y-80139235D01*
X108698773Y-80145196D01*
X108674505Y-80148796D01*
X108650001Y-80150000D01*
X107749999Y-80150000D01*
X107725495Y-80148796D01*
X107701227Y-80145196D01*
X107677428Y-80139235D01*
X107654329Y-80130970D01*
X107632150Y-80120480D01*
X107611107Y-80107868D01*
X107591401Y-80093253D01*
X107573223Y-80076777D01*
X107556747Y-80058599D01*
X107542132Y-80038893D01*
X107529520Y-80017850D01*
X107519030Y-79995671D01*
X107510765Y-79972572D01*
X107504804Y-79948773D01*
X107501204Y-79924505D01*
X107500000Y-79900001D01*
X107500000Y-79249999D01*
X107501204Y-79225495D01*
X107504804Y-79201227D01*
X107510765Y-79177428D01*
X107519030Y-79154329D01*
X107529520Y-79132150D01*
X107542132Y-79111107D01*
X107556747Y-79091401D01*
X107573223Y-79073223D01*
X107591401Y-79056747D01*
X107611107Y-79042132D01*
X107632150Y-79029520D01*
X107654329Y-79019030D01*
X107677428Y-79010765D01*
X107701227Y-79004804D01*
X107725495Y-79001204D01*
X107749999Y-79000000D01*
X108650001Y-79000000D01*
X108674505Y-79001204D01*
G37*
G04 #@! TD.AperFunction*
G04 #@! TA.AperFunction,SMDPad,CuDef*
G36*
X108674505Y-81051204D02*
G01*
X108698773Y-81054804D01*
X108722572Y-81060765D01*
X108745671Y-81069030D01*
X108767850Y-81079520D01*
X108788893Y-81092132D01*
X108808599Y-81106747D01*
X108826777Y-81123223D01*
X108843253Y-81141401D01*
X108857868Y-81161107D01*
X108870480Y-81182150D01*
X108880970Y-81204329D01*
X108889235Y-81227428D01*
X108895196Y-81251227D01*
X108898796Y-81275495D01*
X108900000Y-81299999D01*
X108900000Y-81950001D01*
X108898796Y-81974505D01*
X108895196Y-81998773D01*
X108889235Y-82022572D01*
X108880970Y-82045671D01*
X108870480Y-82067850D01*
X108857868Y-82088893D01*
X108843253Y-82108599D01*
X108826777Y-82126777D01*
X108808599Y-82143253D01*
X108788893Y-82157868D01*
X108767850Y-82170480D01*
X108745671Y-82180970D01*
X108722572Y-82189235D01*
X108698773Y-82195196D01*
X108674505Y-82198796D01*
X108650001Y-82200000D01*
X107749999Y-82200000D01*
X107725495Y-82198796D01*
X107701227Y-82195196D01*
X107677428Y-82189235D01*
X107654329Y-82180970D01*
X107632150Y-82170480D01*
X107611107Y-82157868D01*
X107591401Y-82143253D01*
X107573223Y-82126777D01*
X107556747Y-82108599D01*
X107542132Y-82088893D01*
X107529520Y-82067850D01*
X107519030Y-82045671D01*
X107510765Y-82022572D01*
X107504804Y-81998773D01*
X107501204Y-81974505D01*
X107500000Y-81950001D01*
X107500000Y-81299999D01*
X107501204Y-81275495D01*
X107504804Y-81251227D01*
X107510765Y-81227428D01*
X107519030Y-81204329D01*
X107529520Y-81182150D01*
X107542132Y-81161107D01*
X107556747Y-81141401D01*
X107573223Y-81123223D01*
X107591401Y-81106747D01*
X107611107Y-81092132D01*
X107632150Y-81079520D01*
X107654329Y-81069030D01*
X107677428Y-81060765D01*
X107701227Y-81054804D01*
X107725495Y-81051204D01*
X107749999Y-81050000D01*
X108650001Y-81050000D01*
X108674505Y-81051204D01*
G37*
G04 #@! TD.AperFunction*
G04 #@! TA.AperFunction,SMDPad,CuDef*
G36*
X131854505Y-94051204D02*
G01*
X131878773Y-94054804D01*
X131902572Y-94060765D01*
X131925671Y-94069030D01*
X131947850Y-94079520D01*
X131968893Y-94092132D01*
X131988599Y-94106747D01*
X132006777Y-94123223D01*
X132023253Y-94141401D01*
X132037868Y-94161107D01*
X132050480Y-94182150D01*
X132060970Y-94204329D01*
X132069235Y-94227428D01*
X132075196Y-94251227D01*
X132078796Y-94275495D01*
X132080000Y-94299999D01*
X132080000Y-94950001D01*
X132078796Y-94974505D01*
X132075196Y-94998773D01*
X132069235Y-95022572D01*
X132060970Y-95045671D01*
X132050480Y-95067850D01*
X132037868Y-95088893D01*
X132023253Y-95108599D01*
X132006777Y-95126777D01*
X131988599Y-95143253D01*
X131968893Y-95157868D01*
X131947850Y-95170480D01*
X131925671Y-95180970D01*
X131902572Y-95189235D01*
X131878773Y-95195196D01*
X131854505Y-95198796D01*
X131830001Y-95200000D01*
X130929999Y-95200000D01*
X130905495Y-95198796D01*
X130881227Y-95195196D01*
X130857428Y-95189235D01*
X130834329Y-95180970D01*
X130812150Y-95170480D01*
X130791107Y-95157868D01*
X130771401Y-95143253D01*
X130753223Y-95126777D01*
X130736747Y-95108599D01*
X130722132Y-95088893D01*
X130709520Y-95067850D01*
X130699030Y-95045671D01*
X130690765Y-95022572D01*
X130684804Y-94998773D01*
X130681204Y-94974505D01*
X130680000Y-94950001D01*
X130680000Y-94299999D01*
X130681204Y-94275495D01*
X130684804Y-94251227D01*
X130690765Y-94227428D01*
X130699030Y-94204329D01*
X130709520Y-94182150D01*
X130722132Y-94161107D01*
X130736747Y-94141401D01*
X130753223Y-94123223D01*
X130771401Y-94106747D01*
X130791107Y-94092132D01*
X130812150Y-94079520D01*
X130834329Y-94069030D01*
X130857428Y-94060765D01*
X130881227Y-94054804D01*
X130905495Y-94051204D01*
X130929999Y-94050000D01*
X131830001Y-94050000D01*
X131854505Y-94051204D01*
G37*
G04 #@! TD.AperFunction*
G04 #@! TA.AperFunction,SMDPad,CuDef*
G36*
X131854505Y-92001204D02*
G01*
X131878773Y-92004804D01*
X131902572Y-92010765D01*
X131925671Y-92019030D01*
X131947850Y-92029520D01*
X131968893Y-92042132D01*
X131988599Y-92056747D01*
X132006777Y-92073223D01*
X132023253Y-92091401D01*
X132037868Y-92111107D01*
X132050480Y-92132150D01*
X132060970Y-92154329D01*
X132069235Y-92177428D01*
X132075196Y-92201227D01*
X132078796Y-92225495D01*
X132080000Y-92249999D01*
X132080000Y-92900001D01*
X132078796Y-92924505D01*
X132075196Y-92948773D01*
X132069235Y-92972572D01*
X132060970Y-92995671D01*
X132050480Y-93017850D01*
X132037868Y-93038893D01*
X132023253Y-93058599D01*
X132006777Y-93076777D01*
X131988599Y-93093253D01*
X131968893Y-93107868D01*
X131947850Y-93120480D01*
X131925671Y-93130970D01*
X131902572Y-93139235D01*
X131878773Y-93145196D01*
X131854505Y-93148796D01*
X131830001Y-93150000D01*
X130929999Y-93150000D01*
X130905495Y-93148796D01*
X130881227Y-93145196D01*
X130857428Y-93139235D01*
X130834329Y-93130970D01*
X130812150Y-93120480D01*
X130791107Y-93107868D01*
X130771401Y-93093253D01*
X130753223Y-93076777D01*
X130736747Y-93058599D01*
X130722132Y-93038893D01*
X130709520Y-93017850D01*
X130699030Y-92995671D01*
X130690765Y-92972572D01*
X130684804Y-92948773D01*
X130681204Y-92924505D01*
X130680000Y-92900001D01*
X130680000Y-92249999D01*
X130681204Y-92225495D01*
X130684804Y-92201227D01*
X130690765Y-92177428D01*
X130699030Y-92154329D01*
X130709520Y-92132150D01*
X130722132Y-92111107D01*
X130736747Y-92091401D01*
X130753223Y-92073223D01*
X130771401Y-92056747D01*
X130791107Y-92042132D01*
X130812150Y-92029520D01*
X130834329Y-92019030D01*
X130857428Y-92010765D01*
X130881227Y-92004804D01*
X130905495Y-92001204D01*
X130929999Y-92000000D01*
X131830001Y-92000000D01*
X131854505Y-92001204D01*
G37*
G04 #@! TD.AperFunction*
G04 #@! TA.AperFunction,SMDPad,CuDef*
G36*
X107874505Y-104851204D02*
G01*
X107898773Y-104854804D01*
X107922572Y-104860765D01*
X107945671Y-104869030D01*
X107967850Y-104879520D01*
X107988893Y-104892132D01*
X108008599Y-104906747D01*
X108026777Y-104923223D01*
X108043253Y-104941401D01*
X108057868Y-104961107D01*
X108070480Y-104982150D01*
X108080970Y-105004329D01*
X108089235Y-105027428D01*
X108095196Y-105051227D01*
X108098796Y-105075495D01*
X108100000Y-105099999D01*
X108100000Y-105750001D01*
X108098796Y-105774505D01*
X108095196Y-105798773D01*
X108089235Y-105822572D01*
X108080970Y-105845671D01*
X108070480Y-105867850D01*
X108057868Y-105888893D01*
X108043253Y-105908599D01*
X108026777Y-105926777D01*
X108008599Y-105943253D01*
X107988893Y-105957868D01*
X107967850Y-105970480D01*
X107945671Y-105980970D01*
X107922572Y-105989235D01*
X107898773Y-105995196D01*
X107874505Y-105998796D01*
X107850001Y-106000000D01*
X106949999Y-106000000D01*
X106925495Y-105998796D01*
X106901227Y-105995196D01*
X106877428Y-105989235D01*
X106854329Y-105980970D01*
X106832150Y-105970480D01*
X106811107Y-105957868D01*
X106791401Y-105943253D01*
X106773223Y-105926777D01*
X106756747Y-105908599D01*
X106742132Y-105888893D01*
X106729520Y-105867850D01*
X106719030Y-105845671D01*
X106710765Y-105822572D01*
X106704804Y-105798773D01*
X106701204Y-105774505D01*
X106700000Y-105750001D01*
X106700000Y-105099999D01*
X106701204Y-105075495D01*
X106704804Y-105051227D01*
X106710765Y-105027428D01*
X106719030Y-105004329D01*
X106729520Y-104982150D01*
X106742132Y-104961107D01*
X106756747Y-104941401D01*
X106773223Y-104923223D01*
X106791401Y-104906747D01*
X106811107Y-104892132D01*
X106832150Y-104879520D01*
X106854329Y-104869030D01*
X106877428Y-104860765D01*
X106901227Y-104854804D01*
X106925495Y-104851204D01*
X106949999Y-104850000D01*
X107850001Y-104850000D01*
X107874505Y-104851204D01*
G37*
G04 #@! TD.AperFunction*
G04 #@! TA.AperFunction,SMDPad,CuDef*
G36*
X107874505Y-102801204D02*
G01*
X107898773Y-102804804D01*
X107922572Y-102810765D01*
X107945671Y-102819030D01*
X107967850Y-102829520D01*
X107988893Y-102842132D01*
X108008599Y-102856747D01*
X108026777Y-102873223D01*
X108043253Y-102891401D01*
X108057868Y-102911107D01*
X108070480Y-102932150D01*
X108080970Y-102954329D01*
X108089235Y-102977428D01*
X108095196Y-103001227D01*
X108098796Y-103025495D01*
X108100000Y-103049999D01*
X108100000Y-103700001D01*
X108098796Y-103724505D01*
X108095196Y-103748773D01*
X108089235Y-103772572D01*
X108080970Y-103795671D01*
X108070480Y-103817850D01*
X108057868Y-103838893D01*
X108043253Y-103858599D01*
X108026777Y-103876777D01*
X108008599Y-103893253D01*
X107988893Y-103907868D01*
X107967850Y-103920480D01*
X107945671Y-103930970D01*
X107922572Y-103939235D01*
X107898773Y-103945196D01*
X107874505Y-103948796D01*
X107850001Y-103950000D01*
X106949999Y-103950000D01*
X106925495Y-103948796D01*
X106901227Y-103945196D01*
X106877428Y-103939235D01*
X106854329Y-103930970D01*
X106832150Y-103920480D01*
X106811107Y-103907868D01*
X106791401Y-103893253D01*
X106773223Y-103876777D01*
X106756747Y-103858599D01*
X106742132Y-103838893D01*
X106729520Y-103817850D01*
X106719030Y-103795671D01*
X106710765Y-103772572D01*
X106704804Y-103748773D01*
X106701204Y-103724505D01*
X106700000Y-103700001D01*
X106700000Y-103049999D01*
X106701204Y-103025495D01*
X106704804Y-103001227D01*
X106710765Y-102977428D01*
X106719030Y-102954329D01*
X106729520Y-102932150D01*
X106742132Y-102911107D01*
X106756747Y-102891401D01*
X106773223Y-102873223D01*
X106791401Y-102856747D01*
X106811107Y-102842132D01*
X106832150Y-102829520D01*
X106854329Y-102819030D01*
X106877428Y-102810765D01*
X106901227Y-102804804D01*
X106925495Y-102801204D01*
X106949999Y-102800000D01*
X107850001Y-102800000D01*
X107874505Y-102801204D01*
G37*
G04 #@! TD.AperFunction*
D11*
X111500000Y-109800000D03*
X114040000Y-109800000D03*
X116580000Y-109800000D03*
X119120000Y-109800000D03*
X121660000Y-109800000D03*
D10*
X124200000Y-109800000D03*
G04 #@! TA.AperFunction,SMDPad,CuDef*
D13*
G36*
X131874505Y-96101204D02*
G01*
X131898773Y-96104804D01*
X131922572Y-96110765D01*
X131945671Y-96119030D01*
X131967850Y-96129520D01*
X131988893Y-96142132D01*
X132008599Y-96156747D01*
X132026777Y-96173223D01*
X132043253Y-96191401D01*
X132057868Y-96211107D01*
X132070480Y-96232150D01*
X132080970Y-96254329D01*
X132089235Y-96277428D01*
X132095196Y-96301227D01*
X132098796Y-96325495D01*
X132100000Y-96349999D01*
X132100000Y-97000001D01*
X132098796Y-97024505D01*
X132095196Y-97048773D01*
X132089235Y-97072572D01*
X132080970Y-97095671D01*
X132070480Y-97117850D01*
X132057868Y-97138893D01*
X132043253Y-97158599D01*
X132026777Y-97176777D01*
X132008599Y-97193253D01*
X131988893Y-97207868D01*
X131967850Y-97220480D01*
X131945671Y-97230970D01*
X131922572Y-97239235D01*
X131898773Y-97245196D01*
X131874505Y-97248796D01*
X131850001Y-97250000D01*
X130949999Y-97250000D01*
X130925495Y-97248796D01*
X130901227Y-97245196D01*
X130877428Y-97239235D01*
X130854329Y-97230970D01*
X130832150Y-97220480D01*
X130811107Y-97207868D01*
X130791401Y-97193253D01*
X130773223Y-97176777D01*
X130756747Y-97158599D01*
X130742132Y-97138893D01*
X130729520Y-97117850D01*
X130719030Y-97095671D01*
X130710765Y-97072572D01*
X130704804Y-97048773D01*
X130701204Y-97024505D01*
X130700000Y-97000001D01*
X130700000Y-96349999D01*
X130701204Y-96325495D01*
X130704804Y-96301227D01*
X130710765Y-96277428D01*
X130719030Y-96254329D01*
X130729520Y-96232150D01*
X130742132Y-96211107D01*
X130756747Y-96191401D01*
X130773223Y-96173223D01*
X130791401Y-96156747D01*
X130811107Y-96142132D01*
X130832150Y-96129520D01*
X130854329Y-96119030D01*
X130877428Y-96110765D01*
X130901227Y-96104804D01*
X130925495Y-96101204D01*
X130949999Y-96100000D01*
X131850001Y-96100000D01*
X131874505Y-96101204D01*
G37*
G04 #@! TD.AperFunction*
G04 #@! TA.AperFunction,SMDPad,CuDef*
G36*
X131874505Y-98151204D02*
G01*
X131898773Y-98154804D01*
X131922572Y-98160765D01*
X131945671Y-98169030D01*
X131967850Y-98179520D01*
X131988893Y-98192132D01*
X132008599Y-98206747D01*
X132026777Y-98223223D01*
X132043253Y-98241401D01*
X132057868Y-98261107D01*
X132070480Y-98282150D01*
X132080970Y-98304329D01*
X132089235Y-98327428D01*
X132095196Y-98351227D01*
X132098796Y-98375495D01*
X132100000Y-98399999D01*
X132100000Y-99050001D01*
X132098796Y-99074505D01*
X132095196Y-99098773D01*
X132089235Y-99122572D01*
X132080970Y-99145671D01*
X132070480Y-99167850D01*
X132057868Y-99188893D01*
X132043253Y-99208599D01*
X132026777Y-99226777D01*
X132008599Y-99243253D01*
X131988893Y-99257868D01*
X131967850Y-99270480D01*
X131945671Y-99280970D01*
X131922572Y-99289235D01*
X131898773Y-99295196D01*
X131874505Y-99298796D01*
X131850001Y-99300000D01*
X130949999Y-99300000D01*
X130925495Y-99298796D01*
X130901227Y-99295196D01*
X130877428Y-99289235D01*
X130854329Y-99280970D01*
X130832150Y-99270480D01*
X130811107Y-99257868D01*
X130791401Y-99243253D01*
X130773223Y-99226777D01*
X130756747Y-99208599D01*
X130742132Y-99188893D01*
X130729520Y-99167850D01*
X130719030Y-99145671D01*
X130710765Y-99122572D01*
X130704804Y-99098773D01*
X130701204Y-99074505D01*
X130700000Y-99050001D01*
X130700000Y-98399999D01*
X130701204Y-98375495D01*
X130704804Y-98351227D01*
X130710765Y-98327428D01*
X130719030Y-98304329D01*
X130729520Y-98282150D01*
X130742132Y-98261107D01*
X130756747Y-98241401D01*
X130773223Y-98223223D01*
X130791401Y-98206747D01*
X130811107Y-98192132D01*
X130832150Y-98179520D01*
X130854329Y-98169030D01*
X130877428Y-98160765D01*
X130901227Y-98154804D01*
X130925495Y-98151204D01*
X130949999Y-98150000D01*
X131850001Y-98150000D01*
X131874505Y-98151204D01*
G37*
G04 #@! TD.AperFunction*
G04 #@! TA.AperFunction,SMDPad,CuDef*
G36*
X111874505Y-103051204D02*
G01*
X111898773Y-103054804D01*
X111922572Y-103060765D01*
X111945671Y-103069030D01*
X111967850Y-103079520D01*
X111988893Y-103092132D01*
X112008599Y-103106747D01*
X112026777Y-103123223D01*
X112043253Y-103141401D01*
X112057868Y-103161107D01*
X112070480Y-103182150D01*
X112080970Y-103204329D01*
X112089235Y-103227428D01*
X112095196Y-103251227D01*
X112098796Y-103275495D01*
X112100000Y-103299999D01*
X112100000Y-103950001D01*
X112098796Y-103974505D01*
X112095196Y-103998773D01*
X112089235Y-104022572D01*
X112080970Y-104045671D01*
X112070480Y-104067850D01*
X112057868Y-104088893D01*
X112043253Y-104108599D01*
X112026777Y-104126777D01*
X112008599Y-104143253D01*
X111988893Y-104157868D01*
X111967850Y-104170480D01*
X111945671Y-104180970D01*
X111922572Y-104189235D01*
X111898773Y-104195196D01*
X111874505Y-104198796D01*
X111850001Y-104200000D01*
X110949999Y-104200000D01*
X110925495Y-104198796D01*
X110901227Y-104195196D01*
X110877428Y-104189235D01*
X110854329Y-104180970D01*
X110832150Y-104170480D01*
X110811107Y-104157868D01*
X110791401Y-104143253D01*
X110773223Y-104126777D01*
X110756747Y-104108599D01*
X110742132Y-104088893D01*
X110729520Y-104067850D01*
X110719030Y-104045671D01*
X110710765Y-104022572D01*
X110704804Y-103998773D01*
X110701204Y-103974505D01*
X110700000Y-103950001D01*
X110700000Y-103299999D01*
X110701204Y-103275495D01*
X110704804Y-103251227D01*
X110710765Y-103227428D01*
X110719030Y-103204329D01*
X110729520Y-103182150D01*
X110742132Y-103161107D01*
X110756747Y-103141401D01*
X110773223Y-103123223D01*
X110791401Y-103106747D01*
X110811107Y-103092132D01*
X110832150Y-103079520D01*
X110854329Y-103069030D01*
X110877428Y-103060765D01*
X110901227Y-103054804D01*
X110925495Y-103051204D01*
X110949999Y-103050000D01*
X111850001Y-103050000D01*
X111874505Y-103051204D01*
G37*
G04 #@! TD.AperFunction*
G04 #@! TA.AperFunction,SMDPad,CuDef*
G36*
X111874505Y-101001204D02*
G01*
X111898773Y-101004804D01*
X111922572Y-101010765D01*
X111945671Y-101019030D01*
X111967850Y-101029520D01*
X111988893Y-101042132D01*
X112008599Y-101056747D01*
X112026777Y-101073223D01*
X112043253Y-101091401D01*
X112057868Y-101111107D01*
X112070480Y-101132150D01*
X112080970Y-101154329D01*
X112089235Y-101177428D01*
X112095196Y-101201227D01*
X112098796Y-101225495D01*
X112100000Y-101249999D01*
X112100000Y-101900001D01*
X112098796Y-101924505D01*
X112095196Y-101948773D01*
X112089235Y-101972572D01*
X112080970Y-101995671D01*
X112070480Y-102017850D01*
X112057868Y-102038893D01*
X112043253Y-102058599D01*
X112026777Y-102076777D01*
X112008599Y-102093253D01*
X111988893Y-102107868D01*
X111967850Y-102120480D01*
X111945671Y-102130970D01*
X111922572Y-102139235D01*
X111898773Y-102145196D01*
X111874505Y-102148796D01*
X111850001Y-102150000D01*
X110949999Y-102150000D01*
X110925495Y-102148796D01*
X110901227Y-102145196D01*
X110877428Y-102139235D01*
X110854329Y-102130970D01*
X110832150Y-102120480D01*
X110811107Y-102107868D01*
X110791401Y-102093253D01*
X110773223Y-102076777D01*
X110756747Y-102058599D01*
X110742132Y-102038893D01*
X110729520Y-102017850D01*
X110719030Y-101995671D01*
X110710765Y-101972572D01*
X110704804Y-101948773D01*
X110701204Y-101924505D01*
X110700000Y-101900001D01*
X110700000Y-101249999D01*
X110701204Y-101225495D01*
X110704804Y-101201227D01*
X110710765Y-101177428D01*
X110719030Y-101154329D01*
X110729520Y-101132150D01*
X110742132Y-101111107D01*
X110756747Y-101091401D01*
X110773223Y-101073223D01*
X110791401Y-101056747D01*
X110811107Y-101042132D01*
X110832150Y-101029520D01*
X110854329Y-101019030D01*
X110877428Y-101010765D01*
X110901227Y-101004804D01*
X110925495Y-101001204D01*
X110949999Y-101000000D01*
X111850001Y-101000000D01*
X111874505Y-101001204D01*
G37*
G04 #@! TD.AperFunction*
G04 #@! TA.AperFunction,SMDPad,CuDef*
G36*
X125274505Y-100601204D02*
G01*
X125298773Y-100604804D01*
X125322572Y-100610765D01*
X125345671Y-100619030D01*
X125367850Y-100629520D01*
X125388893Y-100642132D01*
X125408599Y-100656747D01*
X125426777Y-100673223D01*
X125443253Y-100691401D01*
X125457868Y-100711107D01*
X125470480Y-100732150D01*
X125480970Y-100754329D01*
X125489235Y-100777428D01*
X125495196Y-100801227D01*
X125498796Y-100825495D01*
X125500000Y-100849999D01*
X125500000Y-101500001D01*
X125498796Y-101524505D01*
X125495196Y-101548773D01*
X125489235Y-101572572D01*
X125480970Y-101595671D01*
X125470480Y-101617850D01*
X125457868Y-101638893D01*
X125443253Y-101658599D01*
X125426777Y-101676777D01*
X125408599Y-101693253D01*
X125388893Y-101707868D01*
X125367850Y-101720480D01*
X125345671Y-101730970D01*
X125322572Y-101739235D01*
X125298773Y-101745196D01*
X125274505Y-101748796D01*
X125250001Y-101750000D01*
X124349999Y-101750000D01*
X124325495Y-101748796D01*
X124301227Y-101745196D01*
X124277428Y-101739235D01*
X124254329Y-101730970D01*
X124232150Y-101720480D01*
X124211107Y-101707868D01*
X124191401Y-101693253D01*
X124173223Y-101676777D01*
X124156747Y-101658599D01*
X124142132Y-101638893D01*
X124129520Y-101617850D01*
X124119030Y-101595671D01*
X124110765Y-101572572D01*
X124104804Y-101548773D01*
X124101204Y-101524505D01*
X124100000Y-101500001D01*
X124100000Y-100849999D01*
X124101204Y-100825495D01*
X124104804Y-100801227D01*
X124110765Y-100777428D01*
X124119030Y-100754329D01*
X124129520Y-100732150D01*
X124142132Y-100711107D01*
X124156747Y-100691401D01*
X124173223Y-100673223D01*
X124191401Y-100656747D01*
X124211107Y-100642132D01*
X124232150Y-100629520D01*
X124254329Y-100619030D01*
X124277428Y-100610765D01*
X124301227Y-100604804D01*
X124325495Y-100601204D01*
X124349999Y-100600000D01*
X125250001Y-100600000D01*
X125274505Y-100601204D01*
G37*
G04 #@! TD.AperFunction*
G04 #@! TA.AperFunction,SMDPad,CuDef*
G36*
X125274505Y-102651204D02*
G01*
X125298773Y-102654804D01*
X125322572Y-102660765D01*
X125345671Y-102669030D01*
X125367850Y-102679520D01*
X125388893Y-102692132D01*
X125408599Y-102706747D01*
X125426777Y-102723223D01*
X125443253Y-102741401D01*
X125457868Y-102761107D01*
X125470480Y-102782150D01*
X125480970Y-102804329D01*
X125489235Y-102827428D01*
X125495196Y-102851227D01*
X125498796Y-102875495D01*
X125500000Y-102899999D01*
X125500000Y-103550001D01*
X125498796Y-103574505D01*
X125495196Y-103598773D01*
X125489235Y-103622572D01*
X125480970Y-103645671D01*
X125470480Y-103667850D01*
X125457868Y-103688893D01*
X125443253Y-103708599D01*
X125426777Y-103726777D01*
X125408599Y-103743253D01*
X125388893Y-103757868D01*
X125367850Y-103770480D01*
X125345671Y-103780970D01*
X125322572Y-103789235D01*
X125298773Y-103795196D01*
X125274505Y-103798796D01*
X125250001Y-103800000D01*
X124349999Y-103800000D01*
X124325495Y-103798796D01*
X124301227Y-103795196D01*
X124277428Y-103789235D01*
X124254329Y-103780970D01*
X124232150Y-103770480D01*
X124211107Y-103757868D01*
X124191401Y-103743253D01*
X124173223Y-103726777D01*
X124156747Y-103708599D01*
X124142132Y-103688893D01*
X124129520Y-103667850D01*
X124119030Y-103645671D01*
X124110765Y-103622572D01*
X124104804Y-103598773D01*
X124101204Y-103574505D01*
X124100000Y-103550001D01*
X124100000Y-102899999D01*
X124101204Y-102875495D01*
X124104804Y-102851227D01*
X124110765Y-102827428D01*
X124119030Y-102804329D01*
X124129520Y-102782150D01*
X124142132Y-102761107D01*
X124156747Y-102741401D01*
X124173223Y-102723223D01*
X124191401Y-102706747D01*
X124211107Y-102692132D01*
X124232150Y-102679520D01*
X124254329Y-102669030D01*
X124277428Y-102660765D01*
X124301227Y-102654804D01*
X124325495Y-102651204D01*
X124349999Y-102650000D01*
X125250001Y-102650000D01*
X125274505Y-102651204D01*
G37*
G04 #@! TD.AperFunction*
G04 #@! TA.AperFunction,SMDPad,CuDef*
G36*
X121024505Y-76401204D02*
G01*
X121048773Y-76404804D01*
X121072572Y-76410765D01*
X121095671Y-76419030D01*
X121117850Y-76429520D01*
X121138893Y-76442132D01*
X121158599Y-76456747D01*
X121176777Y-76473223D01*
X121193253Y-76491401D01*
X121207868Y-76511107D01*
X121220480Y-76532150D01*
X121230970Y-76554329D01*
X121239235Y-76577428D01*
X121245196Y-76601227D01*
X121248796Y-76625495D01*
X121250000Y-76649999D01*
X121250000Y-77550001D01*
X121248796Y-77574505D01*
X121245196Y-77598773D01*
X121239235Y-77622572D01*
X121230970Y-77645671D01*
X121220480Y-77667850D01*
X121207868Y-77688893D01*
X121193253Y-77708599D01*
X121176777Y-77726777D01*
X121158599Y-77743253D01*
X121138893Y-77757868D01*
X121117850Y-77770480D01*
X121095671Y-77780970D01*
X121072572Y-77789235D01*
X121048773Y-77795196D01*
X121024505Y-77798796D01*
X121000001Y-77800000D01*
X120349999Y-77800000D01*
X120325495Y-77798796D01*
X120301227Y-77795196D01*
X120277428Y-77789235D01*
X120254329Y-77780970D01*
X120232150Y-77770480D01*
X120211107Y-77757868D01*
X120191401Y-77743253D01*
X120173223Y-77726777D01*
X120156747Y-77708599D01*
X120142132Y-77688893D01*
X120129520Y-77667850D01*
X120119030Y-77645671D01*
X120110765Y-77622572D01*
X120104804Y-77598773D01*
X120101204Y-77574505D01*
X120100000Y-77550001D01*
X120100000Y-76649999D01*
X120101204Y-76625495D01*
X120104804Y-76601227D01*
X120110765Y-76577428D01*
X120119030Y-76554329D01*
X120129520Y-76532150D01*
X120142132Y-76511107D01*
X120156747Y-76491401D01*
X120173223Y-76473223D01*
X120191401Y-76456747D01*
X120211107Y-76442132D01*
X120232150Y-76429520D01*
X120254329Y-76419030D01*
X120277428Y-76410765D01*
X120301227Y-76404804D01*
X120325495Y-76401204D01*
X120349999Y-76400000D01*
X121000001Y-76400000D01*
X121024505Y-76401204D01*
G37*
G04 #@! TD.AperFunction*
G04 #@! TA.AperFunction,SMDPad,CuDef*
G36*
X123074505Y-76401204D02*
G01*
X123098773Y-76404804D01*
X123122572Y-76410765D01*
X123145671Y-76419030D01*
X123167850Y-76429520D01*
X123188893Y-76442132D01*
X123208599Y-76456747D01*
X123226777Y-76473223D01*
X123243253Y-76491401D01*
X123257868Y-76511107D01*
X123270480Y-76532150D01*
X123280970Y-76554329D01*
X123289235Y-76577428D01*
X123295196Y-76601227D01*
X123298796Y-76625495D01*
X123300000Y-76649999D01*
X123300000Y-77550001D01*
X123298796Y-77574505D01*
X123295196Y-77598773D01*
X123289235Y-77622572D01*
X123280970Y-77645671D01*
X123270480Y-77667850D01*
X123257868Y-77688893D01*
X123243253Y-77708599D01*
X123226777Y-77726777D01*
X123208599Y-77743253D01*
X123188893Y-77757868D01*
X123167850Y-77770480D01*
X123145671Y-77780970D01*
X123122572Y-77789235D01*
X123098773Y-77795196D01*
X123074505Y-77798796D01*
X123050001Y-77800000D01*
X122399999Y-77800000D01*
X122375495Y-77798796D01*
X122351227Y-77795196D01*
X122327428Y-77789235D01*
X122304329Y-77780970D01*
X122282150Y-77770480D01*
X122261107Y-77757868D01*
X122241401Y-77743253D01*
X122223223Y-77726777D01*
X122206747Y-77708599D01*
X122192132Y-77688893D01*
X122179520Y-77667850D01*
X122169030Y-77645671D01*
X122160765Y-77622572D01*
X122154804Y-77598773D01*
X122151204Y-77574505D01*
X122150000Y-77550001D01*
X122150000Y-76649999D01*
X122151204Y-76625495D01*
X122154804Y-76601227D01*
X122160765Y-76577428D01*
X122169030Y-76554329D01*
X122179520Y-76532150D01*
X122192132Y-76511107D01*
X122206747Y-76491401D01*
X122223223Y-76473223D01*
X122241401Y-76456747D01*
X122261107Y-76442132D01*
X122282150Y-76429520D01*
X122304329Y-76419030D01*
X122327428Y-76410765D01*
X122351227Y-76404804D01*
X122375495Y-76401204D01*
X122399999Y-76400000D01*
X123050001Y-76400000D01*
X123074505Y-76401204D01*
G37*
G04 #@! TD.AperFunction*
G04 #@! TA.AperFunction,SMDPad,CuDef*
G36*
X114274505Y-76401204D02*
G01*
X114298773Y-76404804D01*
X114322572Y-76410765D01*
X114345671Y-76419030D01*
X114367850Y-76429520D01*
X114388893Y-76442132D01*
X114408599Y-76456747D01*
X114426777Y-76473223D01*
X114443253Y-76491401D01*
X114457868Y-76511107D01*
X114470480Y-76532150D01*
X114480970Y-76554329D01*
X114489235Y-76577428D01*
X114495196Y-76601227D01*
X114498796Y-76625495D01*
X114500000Y-76649999D01*
X114500000Y-77550001D01*
X114498796Y-77574505D01*
X114495196Y-77598773D01*
X114489235Y-77622572D01*
X114480970Y-77645671D01*
X114470480Y-77667850D01*
X114457868Y-77688893D01*
X114443253Y-77708599D01*
X114426777Y-77726777D01*
X114408599Y-77743253D01*
X114388893Y-77757868D01*
X114367850Y-77770480D01*
X114345671Y-77780970D01*
X114322572Y-77789235D01*
X114298773Y-77795196D01*
X114274505Y-77798796D01*
X114250001Y-77800000D01*
X113599999Y-77800000D01*
X113575495Y-77798796D01*
X113551227Y-77795196D01*
X113527428Y-77789235D01*
X113504329Y-77780970D01*
X113482150Y-77770480D01*
X113461107Y-77757868D01*
X113441401Y-77743253D01*
X113423223Y-77726777D01*
X113406747Y-77708599D01*
X113392132Y-77688893D01*
X113379520Y-77667850D01*
X113369030Y-77645671D01*
X113360765Y-77622572D01*
X113354804Y-77598773D01*
X113351204Y-77574505D01*
X113350000Y-77550001D01*
X113350000Y-76649999D01*
X113351204Y-76625495D01*
X113354804Y-76601227D01*
X113360765Y-76577428D01*
X113369030Y-76554329D01*
X113379520Y-76532150D01*
X113392132Y-76511107D01*
X113406747Y-76491401D01*
X113423223Y-76473223D01*
X113441401Y-76456747D01*
X113461107Y-76442132D01*
X113482150Y-76429520D01*
X113504329Y-76419030D01*
X113527428Y-76410765D01*
X113551227Y-76404804D01*
X113575495Y-76401204D01*
X113599999Y-76400000D01*
X114250001Y-76400000D01*
X114274505Y-76401204D01*
G37*
G04 #@! TD.AperFunction*
G04 #@! TA.AperFunction,SMDPad,CuDef*
G36*
X112224505Y-76401204D02*
G01*
X112248773Y-76404804D01*
X112272572Y-76410765D01*
X112295671Y-76419030D01*
X112317850Y-76429520D01*
X112338893Y-76442132D01*
X112358599Y-76456747D01*
X112376777Y-76473223D01*
X112393253Y-76491401D01*
X112407868Y-76511107D01*
X112420480Y-76532150D01*
X112430970Y-76554329D01*
X112439235Y-76577428D01*
X112445196Y-76601227D01*
X112448796Y-76625495D01*
X112450000Y-76649999D01*
X112450000Y-77550001D01*
X112448796Y-77574505D01*
X112445196Y-77598773D01*
X112439235Y-77622572D01*
X112430970Y-77645671D01*
X112420480Y-77667850D01*
X112407868Y-77688893D01*
X112393253Y-77708599D01*
X112376777Y-77726777D01*
X112358599Y-77743253D01*
X112338893Y-77757868D01*
X112317850Y-77770480D01*
X112295671Y-77780970D01*
X112272572Y-77789235D01*
X112248773Y-77795196D01*
X112224505Y-77798796D01*
X112200001Y-77800000D01*
X111549999Y-77800000D01*
X111525495Y-77798796D01*
X111501227Y-77795196D01*
X111477428Y-77789235D01*
X111454329Y-77780970D01*
X111432150Y-77770480D01*
X111411107Y-77757868D01*
X111391401Y-77743253D01*
X111373223Y-77726777D01*
X111356747Y-77708599D01*
X111342132Y-77688893D01*
X111329520Y-77667850D01*
X111319030Y-77645671D01*
X111310765Y-77622572D01*
X111304804Y-77598773D01*
X111301204Y-77574505D01*
X111300000Y-77550001D01*
X111300000Y-76649999D01*
X111301204Y-76625495D01*
X111304804Y-76601227D01*
X111310765Y-76577428D01*
X111319030Y-76554329D01*
X111329520Y-76532150D01*
X111342132Y-76511107D01*
X111356747Y-76491401D01*
X111373223Y-76473223D01*
X111391401Y-76456747D01*
X111411107Y-76442132D01*
X111432150Y-76429520D01*
X111454329Y-76419030D01*
X111477428Y-76410765D01*
X111501227Y-76404804D01*
X111525495Y-76401204D01*
X111549999Y-76400000D01*
X112200001Y-76400000D01*
X112224505Y-76401204D01*
G37*
G04 #@! TD.AperFunction*
G04 #@! TA.AperFunction,SMDPad,CuDef*
G36*
X107874505Y-109251204D02*
G01*
X107898773Y-109254804D01*
X107922572Y-109260765D01*
X107945671Y-109269030D01*
X107967850Y-109279520D01*
X107988893Y-109292132D01*
X108008599Y-109306747D01*
X108026777Y-109323223D01*
X108043253Y-109341401D01*
X108057868Y-109361107D01*
X108070480Y-109382150D01*
X108080970Y-109404329D01*
X108089235Y-109427428D01*
X108095196Y-109451227D01*
X108098796Y-109475495D01*
X108100000Y-109499999D01*
X108100000Y-110150001D01*
X108098796Y-110174505D01*
X108095196Y-110198773D01*
X108089235Y-110222572D01*
X108080970Y-110245671D01*
X108070480Y-110267850D01*
X108057868Y-110288893D01*
X108043253Y-110308599D01*
X108026777Y-110326777D01*
X108008599Y-110343253D01*
X107988893Y-110357868D01*
X107967850Y-110370480D01*
X107945671Y-110380970D01*
X107922572Y-110389235D01*
X107898773Y-110395196D01*
X107874505Y-110398796D01*
X107850001Y-110400000D01*
X106949999Y-110400000D01*
X106925495Y-110398796D01*
X106901227Y-110395196D01*
X106877428Y-110389235D01*
X106854329Y-110380970D01*
X106832150Y-110370480D01*
X106811107Y-110357868D01*
X106791401Y-110343253D01*
X106773223Y-110326777D01*
X106756747Y-110308599D01*
X106742132Y-110288893D01*
X106729520Y-110267850D01*
X106719030Y-110245671D01*
X106710765Y-110222572D01*
X106704804Y-110198773D01*
X106701204Y-110174505D01*
X106700000Y-110150001D01*
X106700000Y-109499999D01*
X106701204Y-109475495D01*
X106704804Y-109451227D01*
X106710765Y-109427428D01*
X106719030Y-109404329D01*
X106729520Y-109382150D01*
X106742132Y-109361107D01*
X106756747Y-109341401D01*
X106773223Y-109323223D01*
X106791401Y-109306747D01*
X106811107Y-109292132D01*
X106832150Y-109279520D01*
X106854329Y-109269030D01*
X106877428Y-109260765D01*
X106901227Y-109254804D01*
X106925495Y-109251204D01*
X106949999Y-109250000D01*
X107850001Y-109250000D01*
X107874505Y-109251204D01*
G37*
G04 #@! TD.AperFunction*
G04 #@! TA.AperFunction,SMDPad,CuDef*
G36*
X107874505Y-107201204D02*
G01*
X107898773Y-107204804D01*
X107922572Y-107210765D01*
X107945671Y-107219030D01*
X107967850Y-107229520D01*
X107988893Y-107242132D01*
X108008599Y-107256747D01*
X108026777Y-107273223D01*
X108043253Y-107291401D01*
X108057868Y-107311107D01*
X108070480Y-107332150D01*
X108080970Y-107354329D01*
X108089235Y-107377428D01*
X108095196Y-107401227D01*
X108098796Y-107425495D01*
X108100000Y-107449999D01*
X108100000Y-108100001D01*
X108098796Y-108124505D01*
X108095196Y-108148773D01*
X108089235Y-108172572D01*
X108080970Y-108195671D01*
X108070480Y-108217850D01*
X108057868Y-108238893D01*
X108043253Y-108258599D01*
X108026777Y-108276777D01*
X108008599Y-108293253D01*
X107988893Y-108307868D01*
X107967850Y-108320480D01*
X107945671Y-108330970D01*
X107922572Y-108339235D01*
X107898773Y-108345196D01*
X107874505Y-108348796D01*
X107850001Y-108350000D01*
X106949999Y-108350000D01*
X106925495Y-108348796D01*
X106901227Y-108345196D01*
X106877428Y-108339235D01*
X106854329Y-108330970D01*
X106832150Y-108320480D01*
X106811107Y-108307868D01*
X106791401Y-108293253D01*
X106773223Y-108276777D01*
X106756747Y-108258599D01*
X106742132Y-108238893D01*
X106729520Y-108217850D01*
X106719030Y-108195671D01*
X106710765Y-108172572D01*
X106704804Y-108148773D01*
X106701204Y-108124505D01*
X106700000Y-108100001D01*
X106700000Y-107449999D01*
X106701204Y-107425495D01*
X106704804Y-107401227D01*
X106710765Y-107377428D01*
X106719030Y-107354329D01*
X106729520Y-107332150D01*
X106742132Y-107311107D01*
X106756747Y-107291401D01*
X106773223Y-107273223D01*
X106791401Y-107256747D01*
X106811107Y-107242132D01*
X106832150Y-107229520D01*
X106854329Y-107219030D01*
X106877428Y-107210765D01*
X106901227Y-107204804D01*
X106925495Y-107201204D01*
X106949999Y-107200000D01*
X107850001Y-107200000D01*
X107874505Y-107201204D01*
G37*
G04 #@! TD.AperFunction*
D17*
X123900000Y-96600000D03*
X109112500Y-103712500D03*
X112900000Y-106400000D03*
X126300000Y-103606998D03*
X126300000Y-98900000D03*
X110000000Y-68000000D03*
X112000000Y-66000000D03*
X112000000Y-71000000D03*
X114000000Y-66000000D03*
X116000000Y-66000000D03*
X118000000Y-66000000D03*
X125612200Y-94935700D03*
X110000000Y-74000000D03*
X110000000Y-71000000D03*
X110000000Y-65000000D03*
X117000000Y-72000000D03*
X118000000Y-71000000D03*
X117000000Y-71000000D03*
X124000000Y-74000000D03*
X124000000Y-71000000D03*
X124000000Y-68000000D03*
X124000000Y-65000000D03*
X122000000Y-65000000D03*
X120000000Y-66000000D03*
X122000000Y-71000000D03*
X115000000Y-75000000D03*
X117000000Y-75000000D03*
X119000000Y-75000000D03*
X122000000Y-90000000D03*
X122730000Y-84730000D03*
X131260000Y-101400000D03*
X131260000Y-102860000D03*
X129390000Y-110570000D03*
X132550000Y-110590000D03*
X104850000Y-110470000D03*
X109440000Y-106540000D03*
X105200000Y-101700000D03*
X105900000Y-107100000D03*
X111620000Y-106540000D03*
X114528300Y-98768300D03*
X105600000Y-73600000D03*
X126700000Y-97200000D03*
X126000000Y-106700000D03*
X118400000Y-103400000D03*
X115762900Y-96507900D03*
X107173700Y-82836600D03*
X109696400Y-80634500D03*
X109017900Y-82943100D03*
X118300000Y-76300000D03*
X120025700Y-98391500D03*
X123148500Y-98089200D03*
X118300000Y-78300000D03*
X112254400Y-89400000D03*
X113313100Y-89409900D03*
X115538400Y-90200000D03*
X119800000Y-97244900D03*
X119000000Y-96451500D03*
X109487700Y-88896900D03*
X108425400Y-88430000D03*
X111226100Y-79561500D03*
X103400000Y-84080000D03*
X105712900Y-95206100D03*
X110487200Y-78725800D03*
D18*
X107400000Y-109825000D02*
X109003400Y-111428400D01*
X109003400Y-111428400D02*
X121763600Y-111428400D01*
X121763600Y-111428400D02*
X123024700Y-110167300D01*
X123024700Y-110167300D02*
X123024700Y-109800000D01*
X124200000Y-109800000D02*
X123024700Y-109800000D01*
X115000000Y-96175300D02*
X112375400Y-98799900D01*
X112375400Y-98799900D02*
X110773000Y-98799900D01*
X110773000Y-98799900D02*
X109449200Y-100123700D01*
X109449200Y-100123700D02*
X109449200Y-103375800D01*
X109449200Y-103375800D02*
X109112500Y-103712500D01*
X115000000Y-95100000D02*
X115000000Y-96175300D01*
X107400000Y-107775000D02*
X107400000Y-105425000D01*
X109112500Y-103712500D02*
X107400000Y-105425000D01*
X123506998Y-106400000D02*
X126300000Y-103606998D01*
X112900000Y-106400000D02*
X123506998Y-106400000D01*
X126300000Y-103606998D02*
X126300000Y-103606998D01*
X126300000Y-98900000D02*
X126200000Y-98900000D01*
X123900000Y-96600000D02*
X126300000Y-98900000D01*
X120275200Y-77499800D02*
X120178800Y-77596200D01*
X126210700Y-94935700D02*
X125612200Y-94935700D01*
X113234300Y-74410700D02*
X113925000Y-75101400D01*
X113925000Y-75101400D02*
X113925000Y-77100000D01*
X114421200Y-77596200D02*
X113925000Y-77100000D01*
X114421200Y-77596200D02*
X113400000Y-78617400D01*
X113400000Y-78617400D02*
X113400000Y-79700000D01*
X123775300Y-103620000D02*
X124170300Y-103225000D01*
X124170300Y-103225000D02*
X124800000Y-103225000D01*
X120675000Y-77100000D02*
X120275200Y-77499800D01*
X120275200Y-77499800D02*
X121400000Y-78624700D01*
X121400000Y-79700000D02*
X121400000Y-78624700D01*
X114400000Y-100980000D02*
X114400000Y-98896600D01*
X114400000Y-98896600D02*
X114528300Y-98768300D01*
X116600000Y-96696600D02*
X116600000Y-95100000D01*
X111500000Y-109800000D02*
X111500000Y-108624700D01*
X111500000Y-108624700D02*
X110365700Y-107490400D01*
X121800000Y-103620000D02*
X123775300Y-103620000D01*
X111400000Y-100980000D02*
X111400000Y-99825000D01*
X111400000Y-101575000D02*
X111400000Y-100980000D01*
X111400000Y-100980000D02*
X112424700Y-100980000D01*
X114400000Y-100980000D02*
X112424700Y-100980000D01*
X110020000Y-102610000D02*
X110419999Y-102210001D01*
X111440000Y-102190000D02*
X111440000Y-102220000D01*
X111400000Y-102150000D02*
X111440000Y-102190000D01*
X111400000Y-101575000D02*
X111400000Y-102150000D01*
X111440000Y-102220000D02*
X111449999Y-102210001D01*
X110419999Y-102210001D02*
X111440000Y-102220000D01*
X110020000Y-105960000D02*
X109440000Y-106540000D01*
X110020000Y-102610000D02*
X110020000Y-105960000D01*
X114528300Y-98768300D02*
X116600000Y-96696600D01*
X112190500Y-79723300D02*
X112190500Y-77415500D01*
X112190500Y-77415500D02*
X111875000Y-77100000D01*
X108200000Y-79766000D02*
X109864800Y-79766000D01*
X109864800Y-79766000D02*
X110385600Y-80286800D01*
X110385600Y-80286800D02*
X111627000Y-80286800D01*
X111627000Y-80286800D02*
X112190500Y-79723300D01*
X112190500Y-79723300D02*
X112600000Y-79723300D01*
X107173700Y-82836600D02*
X107173700Y-80792300D01*
X107173700Y-80792300D02*
X108200000Y-79766000D01*
X108200000Y-79575000D02*
X108200000Y-79766000D01*
X112600000Y-79723300D02*
X112600000Y-80775300D01*
X112600000Y-79700000D02*
X112600000Y-79723300D01*
X115762900Y-96507900D02*
X115800000Y-96470800D01*
X115800000Y-96470800D02*
X115800000Y-95100000D01*
X102300000Y-107240000D02*
X103535000Y-107240000D01*
X103535000Y-107240000D02*
X107400000Y-103375000D01*
X111400000Y-97775000D02*
X111161000Y-97775000D01*
X111161000Y-97775000D02*
X107400000Y-101536000D01*
X107400000Y-101536000D02*
X107400000Y-103375000D01*
X122200000Y-79700000D02*
X122200000Y-80775300D01*
X112600000Y-80775300D02*
X122200000Y-80775300D01*
X116580000Y-109800000D02*
X117755300Y-109800000D01*
X122725000Y-77100000D02*
X122200000Y-77625000D01*
X122200000Y-77625000D02*
X122200000Y-79700000D01*
X130700000Y-108525000D02*
X118663000Y-108525000D01*
X118663000Y-108525000D02*
X117755300Y-109432700D01*
X117755300Y-109432700D02*
X117755300Y-109800000D01*
X118825000Y-98300000D02*
X118825000Y-99980300D01*
X118825000Y-99980300D02*
X119824700Y-100980000D01*
X121800000Y-100980000D02*
X119824700Y-100980000D01*
X118200000Y-95100000D02*
X118200000Y-97675000D01*
X118200000Y-97675000D02*
X118825000Y-98300000D01*
X124800000Y-101175000D02*
X124605000Y-100980000D01*
X124605000Y-100980000D02*
X121800000Y-100980000D01*
X114400000Y-103620000D02*
X116375300Y-103620000D01*
X116775000Y-98300000D02*
X116775000Y-103220300D01*
X116775000Y-103220300D02*
X116375300Y-103620000D01*
X117400000Y-95100000D02*
X117400000Y-97675000D01*
X117400000Y-97675000D02*
X116775000Y-98300000D01*
X111400000Y-103625000D02*
X111405000Y-103620000D01*
X111405000Y-103620000D02*
X114400000Y-103620000D01*
X131400000Y-96675000D02*
X131380000Y-96655000D01*
X131380000Y-96655000D02*
X131380000Y-94625000D01*
X111975300Y-82200000D02*
X111975300Y-80967600D01*
X111975300Y-80967600D02*
X111783100Y-80775400D01*
X111783100Y-80775400D02*
X109837300Y-80775400D01*
X109837300Y-80775400D02*
X109696400Y-80634500D01*
X110900000Y-82200000D02*
X111975300Y-82200000D01*
X109017900Y-82943100D02*
X109767800Y-82943100D01*
X109767800Y-82943100D02*
X109824700Y-83000000D01*
X110900000Y-83000000D02*
X109824700Y-83000000D01*
X131900000Y-71395300D02*
X131900000Y-70220000D01*
X131300000Y-71400000D02*
X131900000Y-71395300D01*
X127375300Y-75552700D02*
X131300000Y-71400000D01*
X127375300Y-85809800D02*
X127375300Y-75552700D01*
X126985100Y-86200000D02*
X127375300Y-85809800D01*
X126300000Y-86200000D02*
X126985100Y-86200000D01*
X126989600Y-87000000D02*
X127825600Y-86164000D01*
X127825600Y-86164000D02*
X127825600Y-77642400D01*
X127825600Y-77642400D02*
X131390000Y-73940000D01*
X131900000Y-73935300D02*
X131900000Y-72760000D01*
X131390000Y-73940000D02*
X131900000Y-73935300D01*
X126300000Y-87000000D02*
X126989600Y-87000000D01*
X127018100Y-87800000D02*
X126300000Y-87800000D01*
X131410000Y-76470000D02*
X128276000Y-79732000D01*
X128276000Y-86542100D02*
X127018100Y-87800000D01*
X128276000Y-79732000D02*
X128276000Y-86542100D01*
X131900000Y-76475300D02*
X131410000Y-76470000D01*
X131900000Y-75300000D02*
X131900000Y-76475300D01*
X131900000Y-79015300D02*
X131900000Y-77840000D01*
X128951300Y-81596600D02*
X131400000Y-79015300D01*
X128951300Y-86647800D02*
X128951300Y-81596600D01*
X131400000Y-79015300D02*
X131900000Y-79015300D01*
X126999100Y-88600000D02*
X128951300Y-86647800D01*
X126300000Y-88600000D02*
X126999100Y-88600000D01*
X131440000Y-81560000D02*
X131900000Y-81555300D01*
X129626800Y-83461200D02*
X131440000Y-81560000D01*
X131900000Y-81555300D02*
X131900000Y-80380000D01*
X129626800Y-86763400D02*
X129626800Y-83461200D01*
X126990200Y-89400000D02*
X129626800Y-86763400D01*
X126300000Y-89400000D02*
X126990200Y-89400000D01*
X130610000Y-86513700D02*
X130610000Y-84903200D01*
X131900000Y-84095300D02*
X131900000Y-82920000D01*
X131532600Y-84095300D02*
X131900000Y-84095300D01*
X130610000Y-84903200D02*
X131532600Y-84095300D01*
X127038400Y-90200000D02*
X130610000Y-86513700D01*
X126300000Y-90200000D02*
X127038400Y-90200000D01*
X127375300Y-90812200D02*
X131380000Y-86640000D01*
X131900000Y-86635300D02*
X131900000Y-85460000D01*
X127375300Y-91000000D02*
X127375300Y-90812200D01*
X131380000Y-86640000D02*
X131900000Y-86635300D01*
X126300000Y-91000000D02*
X127375300Y-91000000D01*
X131900000Y-88000000D02*
X128100000Y-91800000D01*
X128100000Y-91800000D02*
X126300000Y-91800000D01*
X123148500Y-98089200D02*
X122846300Y-98391400D01*
X122846300Y-98391400D02*
X120025700Y-98391400D01*
X120025700Y-98391400D02*
X120025700Y-98391500D01*
X118300000Y-76300000D02*
X118300000Y-78300000D01*
X110900000Y-89400000D02*
X112254400Y-89400000D01*
X110900000Y-88600000D02*
X112503200Y-88600000D01*
X112503200Y-88600000D02*
X113313100Y-89409900D01*
X110900000Y-90200000D02*
X115538400Y-90200000D01*
X119800000Y-95100000D02*
X119800000Y-97244900D01*
X119000000Y-96175300D02*
X119000000Y-96451500D01*
X119000000Y-95100000D02*
X119000000Y-96175300D01*
X110900000Y-91000000D02*
X109824700Y-91000000D01*
X109824700Y-91000000D02*
X109824700Y-89233900D01*
X109824700Y-89233900D02*
X109487700Y-88896900D01*
X109824700Y-87000000D02*
X109824700Y-87030700D01*
X109824700Y-87030700D02*
X108425400Y-88430000D01*
X110900000Y-87000000D02*
X109824700Y-87000000D01*
X110297200Y-79561500D02*
X111226100Y-79561500D01*
X109377300Y-78641600D02*
X110297200Y-79561500D01*
X105047500Y-78641600D02*
X109377300Y-78641600D01*
X104504500Y-79184600D02*
X105047500Y-78641600D01*
X101758300Y-79184600D02*
X104504500Y-79184600D01*
X101124600Y-79818300D02*
X101758300Y-79184600D01*
X101124600Y-83441100D02*
X101124600Y-79818300D01*
X101758900Y-84075400D02*
X101124600Y-83441100D01*
X103400000Y-84080000D02*
X101758900Y-84075400D01*
X105712900Y-95206100D02*
X105174900Y-95744100D01*
X105174900Y-95744100D02*
X101832600Y-95744100D01*
X101832600Y-95744100D02*
X100635400Y-94546900D01*
X100635400Y-94546900D02*
X100635400Y-77743800D01*
X100635400Y-77743800D02*
X101767100Y-76612100D01*
X101767100Y-76612100D02*
X108373500Y-76612100D01*
X108373500Y-76612100D02*
X110487200Y-78725800D01*
X102300000Y-105875300D02*
X102300000Y-104700000D01*
X101932600Y-105875300D02*
X102300000Y-105875300D01*
X101124700Y-106683200D02*
X101932600Y-105875300D01*
X101124700Y-107798400D02*
X101124700Y-106683200D01*
X101836300Y-108510000D02*
X101124700Y-107798400D01*
X102930200Y-108510000D02*
X101836300Y-108510000D01*
X103220200Y-108800000D02*
X102930200Y-108510000D01*
X112049600Y-110978000D02*
X110960800Y-110978000D01*
X108782800Y-108800000D02*
X103220200Y-108800000D01*
X127300000Y-107600000D02*
X126825010Y-108074990D01*
X112770000Y-110257600D02*
X112049600Y-110978000D01*
X122260600Y-96175300D02*
X125826800Y-99741500D01*
X126825010Y-108074990D02*
X113864810Y-108074990D01*
X113864810Y-108074990D02*
X112770000Y-109169800D01*
X126641500Y-99741500D02*
X127300000Y-100400000D01*
X127300000Y-100400000D02*
X127300000Y-107600000D01*
X125826800Y-99741500D02*
X126641500Y-99741500D01*
X110960800Y-110978000D02*
X108782800Y-108800000D01*
X121400000Y-96175300D02*
X122260600Y-96175300D01*
X112770000Y-109169800D02*
X112770000Y-110257600D01*
X121400000Y-95100000D02*
X121400000Y-96175300D01*
X102300000Y-102160000D02*
X102300000Y-100984700D01*
X120600000Y-95100000D02*
X120600000Y-94024700D01*
X120600000Y-94024700D02*
X110341100Y-94024700D01*
X110341100Y-94024700D02*
X106015800Y-98350000D01*
X106015800Y-98350000D02*
X101836300Y-98350000D01*
X101836300Y-98350000D02*
X101124700Y-99061600D01*
X101124700Y-99061600D02*
X101124700Y-100176800D01*
X101124700Y-100176800D02*
X101932600Y-100984700D01*
X101932600Y-100984700D02*
X102300000Y-100984700D01*
X102300000Y-99620000D02*
X105436300Y-99620000D01*
X105436300Y-99620000D02*
X108881000Y-96175300D01*
X108881000Y-96175300D02*
X112600000Y-96175300D01*
X112600000Y-95100000D02*
X112600000Y-96175300D01*
X109824700Y-93400000D02*
X106144700Y-97080000D01*
X106144700Y-97080000D02*
X102300000Y-97080000D01*
X110900000Y-93400000D02*
X109824700Y-93400000D01*
X102300000Y-94540000D02*
X103475300Y-94540000D01*
X110900000Y-92600000D02*
X105415300Y-92600000D01*
X105415300Y-92600000D02*
X103475300Y-94540000D01*
X102300000Y-92000000D02*
X103475300Y-92000000D01*
X110900000Y-91800000D02*
X103675300Y-91800000D01*
X103675300Y-91800000D02*
X103475300Y-92000000D01*
X102300000Y-87980000D02*
X103475300Y-87980000D01*
X110900000Y-86200000D02*
X105255300Y-86200000D01*
X105255300Y-86200000D02*
X103475300Y-87980000D01*
X102300000Y-85440000D02*
X103475300Y-85440000D01*
X110900000Y-85400000D02*
X103515300Y-85400000D01*
X103515300Y-85400000D02*
X103475300Y-85440000D01*
X102300000Y-82900000D02*
X103475300Y-82900000D01*
X110900000Y-84600000D02*
X105175300Y-84600000D01*
X105175300Y-84600000D02*
X103475300Y-82900000D01*
X102300000Y-80360000D02*
X103475300Y-80360000D01*
X110900000Y-83800000D02*
X106915300Y-83800000D01*
X106915300Y-83800000D02*
X103475300Y-80360000D01*
X122200000Y-95100000D02*
X122200000Y-94024700D01*
X122200000Y-94024700D02*
X129930300Y-94024700D01*
X129930300Y-94024700D02*
X131380000Y-92575000D01*
X108200000Y-81625000D02*
X108425000Y-81400000D01*
X108425000Y-81400000D02*
X110900000Y-81400000D01*
X110900000Y-87800000D02*
X118007300Y-87800000D01*
X118007300Y-87800000D02*
X125202000Y-80605300D01*
X125202000Y-80605300D02*
X125202000Y-77988400D01*
X125202000Y-77988400D02*
X123172400Y-75958800D01*
X123172400Y-75958800D02*
X122567200Y-75958800D01*
X122567200Y-75958800D02*
X121180000Y-74571600D01*
X121180000Y-74571600D02*
X121180000Y-73150000D01*
X121180000Y-73150000D02*
X114320300Y-73150000D01*
X113220000Y-73150000D02*
X114320300Y-73150000D01*
D19*
G36*
X106061928Y-110150001D02*
G01*
X106078992Y-110323255D01*
X106129528Y-110489851D01*
X106211595Y-110643387D01*
X106322038Y-110777962D01*
X106456613Y-110888405D01*
X106610149Y-110970472D01*
X106776745Y-111021008D01*
X106949999Y-111038072D01*
X107538271Y-111038072D01*
X107715198Y-111215000D01*
X102775161Y-111215000D01*
X103031252Y-111124157D01*
X103281355Y-110975178D01*
X103497588Y-110780269D01*
X103671641Y-110546920D01*
X103796825Y-110284099D01*
X103841476Y-110136890D01*
X103720155Y-109907000D01*
X102527000Y-109907000D01*
X102527000Y-109927000D01*
X102273000Y-109927000D01*
X102273000Y-109907000D01*
X102253000Y-109907000D01*
X102253000Y-109653000D01*
X102273000Y-109653000D01*
X102273000Y-109633000D01*
X102527000Y-109633000D01*
X102527000Y-109653000D01*
X103720155Y-109653000D01*
X103769234Y-109560000D01*
X106061928Y-109560000D01*
X106061928Y-110150001D01*
G37*
X106061928Y-110150001D02*
X106078992Y-110323255D01*
X106129528Y-110489851D01*
X106211595Y-110643387D01*
X106322038Y-110777962D01*
X106456613Y-110888405D01*
X106610149Y-110970472D01*
X106776745Y-111021008D01*
X106949999Y-111038072D01*
X107538271Y-111038072D01*
X107715198Y-111215000D01*
X102775161Y-111215000D01*
X103031252Y-111124157D01*
X103281355Y-110975178D01*
X103497588Y-110780269D01*
X103671641Y-110546920D01*
X103796825Y-110284099D01*
X103841476Y-110136890D01*
X103720155Y-109907000D01*
X102527000Y-109907000D01*
X102527000Y-109927000D01*
X102273000Y-109927000D01*
X102273000Y-109907000D01*
X102253000Y-109907000D01*
X102253000Y-109653000D01*
X102273000Y-109653000D01*
X102273000Y-109633000D01*
X102527000Y-109633000D01*
X102527000Y-109653000D01*
X103720155Y-109653000D01*
X103769234Y-109560000D01*
X106061928Y-109560000D01*
X106061928Y-110150001D01*
G36*
X112135001Y-64703647D02*
G01*
X112137838Y-64732451D01*
X112137826Y-64734176D01*
X112138759Y-64743695D01*
X112141725Y-64771911D01*
X112144913Y-64804283D01*
X112146306Y-64808874D01*
X112157368Y-64862765D01*
X112168998Y-64923729D01*
X112171762Y-64932885D01*
X112189076Y-64988817D01*
X112213137Y-65046054D01*
X112236394Y-65103617D01*
X112240884Y-65112061D01*
X112268732Y-65163565D01*
X112303425Y-65214999D01*
X112337444Y-65266984D01*
X112343489Y-65274395D01*
X112380810Y-65319508D01*
X112424867Y-65363258D01*
X112468303Y-65407613D01*
X112475672Y-65413710D01*
X112521045Y-65450715D01*
X112572778Y-65485086D01*
X112623975Y-65520142D01*
X112632388Y-65524691D01*
X112632398Y-65524697D01*
X112632404Y-65524699D01*
X112684084Y-65552180D01*
X112741498Y-65575845D01*
X112798554Y-65600299D01*
X112807684Y-65603125D01*
X112807686Y-65603126D01*
X112807688Y-65603126D01*
X112807690Y-65603127D01*
X112863741Y-65620050D01*
X112924644Y-65632109D01*
X112985379Y-65645018D01*
X112985543Y-65645035D01*
X112985717Y-65645088D01*
X112990910Y-65645599D01*
X112994891Y-65646018D01*
X113053160Y-65651731D01*
X113053163Y-65651731D01*
X113086353Y-65655000D01*
X119483647Y-65655000D01*
X119512461Y-65652162D01*
X119514176Y-65652174D01*
X119523695Y-65651241D01*
X119551760Y-65648291D01*
X119584283Y-65645088D01*
X119588884Y-65643692D01*
X119642765Y-65632632D01*
X119703729Y-65621002D01*
X119712885Y-65618238D01*
X119768817Y-65600924D01*
X119826054Y-65576863D01*
X119883617Y-65553606D01*
X119892056Y-65549119D01*
X119892060Y-65549117D01*
X119892063Y-65549115D01*
X119943565Y-65521268D01*
X119994999Y-65486575D01*
X120046984Y-65452556D01*
X120054395Y-65446511D01*
X120099508Y-65409190D01*
X120143258Y-65365133D01*
X120187613Y-65321697D01*
X120193710Y-65314328D01*
X120230715Y-65268955D01*
X120265086Y-65217222D01*
X120300142Y-65166025D01*
X120304691Y-65157612D01*
X120304697Y-65157602D01*
X120304699Y-65157596D01*
X120332180Y-65105916D01*
X120355845Y-65048502D01*
X120380299Y-64991446D01*
X120383127Y-64982310D01*
X120400050Y-64926259D01*
X120412109Y-64865356D01*
X120425018Y-64804621D01*
X120425035Y-64804457D01*
X120425088Y-64804283D01*
X120425599Y-64799090D01*
X120426018Y-64795109D01*
X120431731Y-64736840D01*
X120431731Y-64736837D01*
X120435000Y-64703647D01*
X120435000Y-63485000D01*
X133315000Y-63485000D01*
X133315001Y-111215000D01*
X125340019Y-111215000D01*
X125404494Y-111180537D01*
X125501185Y-111101185D01*
X125580537Y-111004494D01*
X125639502Y-110894180D01*
X125675812Y-110774482D01*
X125688072Y-110650000D01*
X125688072Y-109285000D01*
X128930306Y-109285000D01*
X128954528Y-109364850D01*
X129036595Y-109518386D01*
X129147038Y-109652962D01*
X129281614Y-109763405D01*
X129435150Y-109845472D01*
X129601746Y-109896008D01*
X129775000Y-109913072D01*
X131625000Y-109913072D01*
X131798254Y-109896008D01*
X131964850Y-109845472D01*
X132118386Y-109763405D01*
X132252962Y-109652962D01*
X132363405Y-109518386D01*
X132445472Y-109364850D01*
X132496008Y-109198254D01*
X132513072Y-109025000D01*
X132513072Y-108025000D01*
X132496008Y-107851746D01*
X132445472Y-107685150D01*
X132363405Y-107531614D01*
X132252962Y-107397038D01*
X132118386Y-107286595D01*
X131964850Y-107204528D01*
X131798254Y-107153992D01*
X131625000Y-107136928D01*
X129775000Y-107136928D01*
X129601746Y-107153992D01*
X129435150Y-107204528D01*
X129281614Y-107286595D01*
X129147038Y-107397038D01*
X129036595Y-107531614D01*
X128954528Y-107685150D01*
X128930306Y-107765000D01*
X128044145Y-107765000D01*
X128049003Y-107748986D01*
X128060000Y-107637333D01*
X128060000Y-107637324D01*
X128063676Y-107600001D01*
X128060000Y-107562678D01*
X128060000Y-106025000D01*
X128886928Y-106025000D01*
X128899188Y-106149482D01*
X128935498Y-106269180D01*
X128994463Y-106379494D01*
X129073815Y-106476185D01*
X129170506Y-106555537D01*
X129280820Y-106614502D01*
X129400518Y-106650812D01*
X129525000Y-106663072D01*
X130414250Y-106660000D01*
X130573000Y-106501250D01*
X130573000Y-105402000D01*
X130827000Y-105402000D01*
X130827000Y-106501250D01*
X130985750Y-106660000D01*
X131875000Y-106663072D01*
X131999482Y-106650812D01*
X132119180Y-106614502D01*
X132229494Y-106555537D01*
X132326185Y-106476185D01*
X132405537Y-106379494D01*
X132464502Y-106269180D01*
X132500812Y-106149482D01*
X132513072Y-106025000D01*
X132510000Y-105560750D01*
X132351250Y-105402000D01*
X130827000Y-105402000D01*
X130573000Y-105402000D01*
X129048750Y-105402000D01*
X128890000Y-105560750D01*
X128886928Y-106025000D01*
X128060000Y-106025000D01*
X128060000Y-104525000D01*
X128886928Y-104525000D01*
X128890000Y-104989250D01*
X129048750Y-105148000D01*
X130573000Y-105148000D01*
X130573000Y-104048750D01*
X130827000Y-104048750D01*
X130827000Y-105148000D01*
X132351250Y-105148000D01*
X132510000Y-104989250D01*
X132513072Y-104525000D01*
X132500812Y-104400518D01*
X132464502Y-104280820D01*
X132405537Y-104170506D01*
X132326185Y-104073815D01*
X132229494Y-103994463D01*
X132119180Y-103935498D01*
X131999482Y-103899188D01*
X131875000Y-103886928D01*
X130985750Y-103890000D01*
X130827000Y-104048750D01*
X130573000Y-104048750D01*
X130414250Y-103890000D01*
X129525000Y-103886928D01*
X129400518Y-103899188D01*
X129280820Y-103935498D01*
X129170506Y-103994463D01*
X129073815Y-104073815D01*
X128994463Y-104170506D01*
X128935498Y-104280820D01*
X128899188Y-104400518D01*
X128886928Y-104525000D01*
X128060000Y-104525000D01*
X128060000Y-100437325D01*
X128063676Y-100400000D01*
X128060000Y-100362675D01*
X128060000Y-100362667D01*
X128049003Y-100251014D01*
X128005546Y-100107753D01*
X127934974Y-99975724D01*
X127840001Y-99859999D01*
X127811004Y-99836202D01*
X127274802Y-99300000D01*
X130061928Y-99300000D01*
X130074188Y-99424482D01*
X130110498Y-99544180D01*
X130169463Y-99654494D01*
X130248815Y-99751185D01*
X130345506Y-99830537D01*
X130455820Y-99889502D01*
X130575518Y-99925812D01*
X130700000Y-99938072D01*
X131114250Y-99935000D01*
X131273000Y-99776250D01*
X131273000Y-98852000D01*
X131527000Y-98852000D01*
X131527000Y-99776250D01*
X131685750Y-99935000D01*
X132100000Y-99938072D01*
X132224482Y-99925812D01*
X132344180Y-99889502D01*
X132454494Y-99830537D01*
X132551185Y-99751185D01*
X132630537Y-99654494D01*
X132689502Y-99544180D01*
X132725812Y-99424482D01*
X132738072Y-99300000D01*
X132735000Y-99010750D01*
X132576250Y-98852000D01*
X131527000Y-98852000D01*
X131273000Y-98852000D01*
X130223750Y-98852000D01*
X130065000Y-99010750D01*
X130061928Y-99300000D01*
X127274802Y-99300000D01*
X127260510Y-99285709D01*
X127295226Y-99201898D01*
X127335000Y-99001939D01*
X127335000Y-98798061D01*
X127295226Y-98598102D01*
X127217205Y-98409744D01*
X127103937Y-98240226D01*
X126959774Y-98096063D01*
X126790256Y-97982795D01*
X126601898Y-97904774D01*
X126401939Y-97865000D01*
X126318417Y-97865000D01*
X124935000Y-96539227D01*
X124935000Y-96498061D01*
X124931898Y-96482468D01*
X124999482Y-96475812D01*
X125119180Y-96439502D01*
X125229494Y-96380537D01*
X125326185Y-96301185D01*
X125405537Y-96204494D01*
X125464502Y-96094180D01*
X125500812Y-95974482D01*
X125513072Y-95850000D01*
X125513072Y-94784700D01*
X129892978Y-94784700D01*
X129930300Y-94788376D01*
X129967622Y-94784700D01*
X129967633Y-94784700D01*
X130041928Y-94777382D01*
X130041928Y-94950001D01*
X130058992Y-95123255D01*
X130109528Y-95289851D01*
X130191595Y-95443387D01*
X130302038Y-95577962D01*
X130399816Y-95658207D01*
X130322038Y-95722038D01*
X130211595Y-95856613D01*
X130129528Y-96010149D01*
X130078992Y-96176745D01*
X130061928Y-96349999D01*
X130061928Y-97000001D01*
X130078992Y-97173255D01*
X130129528Y-97339851D01*
X130211595Y-97493387D01*
X130322038Y-97627962D01*
X130328594Y-97633342D01*
X130248815Y-97698815D01*
X130169463Y-97795506D01*
X130110498Y-97905820D01*
X130074188Y-98025518D01*
X130061928Y-98150000D01*
X130065000Y-98439250D01*
X130223750Y-98598000D01*
X131273000Y-98598000D01*
X131273000Y-98578000D01*
X131527000Y-98578000D01*
X131527000Y-98598000D01*
X132576250Y-98598000D01*
X132735000Y-98439250D01*
X132738072Y-98150000D01*
X132725812Y-98025518D01*
X132689502Y-97905820D01*
X132630537Y-97795506D01*
X132551185Y-97698815D01*
X132471406Y-97633342D01*
X132477962Y-97627962D01*
X132588405Y-97493387D01*
X132670472Y-97339851D01*
X132721008Y-97173255D01*
X132738072Y-97000001D01*
X132738072Y-96349999D01*
X132721008Y-96176745D01*
X132670472Y-96010149D01*
X132588405Y-95856613D01*
X132477962Y-95722038D01*
X132380184Y-95641793D01*
X132457962Y-95577962D01*
X132568405Y-95443387D01*
X132650472Y-95289851D01*
X132701008Y-95123255D01*
X132718072Y-94950001D01*
X132718072Y-94299999D01*
X132701008Y-94126745D01*
X132650472Y-93960149D01*
X132568405Y-93806613D01*
X132457962Y-93672038D01*
X132370184Y-93600000D01*
X132457962Y-93527962D01*
X132568405Y-93393387D01*
X132650472Y-93239851D01*
X132701008Y-93073255D01*
X132718072Y-92900001D01*
X132718072Y-92249999D01*
X132701008Y-92076745D01*
X132650472Y-91910149D01*
X132568405Y-91756613D01*
X132457962Y-91622038D01*
X132323387Y-91511595D01*
X132169851Y-91429528D01*
X132003255Y-91378992D01*
X131830001Y-91361928D01*
X130929999Y-91361928D01*
X130756745Y-91378992D01*
X130590149Y-91429528D01*
X130436613Y-91511595D01*
X130302038Y-91622038D01*
X130191595Y-91756613D01*
X130109528Y-91910149D01*
X130058992Y-92076745D01*
X130041928Y-92249999D01*
X130041928Y-92838270D01*
X129615499Y-93264700D01*
X127688072Y-93264700D01*
X127688072Y-93125000D01*
X127675812Y-93000518D01*
X127675655Y-93000000D01*
X127675812Y-92999482D01*
X127688072Y-92875000D01*
X127688072Y-92560000D01*
X128062678Y-92560000D01*
X128100000Y-92563676D01*
X128137322Y-92560000D01*
X128137333Y-92560000D01*
X128248986Y-92549003D01*
X128392247Y-92505546D01*
X128524276Y-92434974D01*
X128640001Y-92340001D01*
X128663804Y-92310997D01*
X131517001Y-89457801D01*
X131653740Y-89485000D01*
X131946260Y-89485000D01*
X132233158Y-89427932D01*
X132503411Y-89315990D01*
X132746632Y-89153475D01*
X132953475Y-88946632D01*
X133115990Y-88703411D01*
X133227932Y-88433158D01*
X133285000Y-88146260D01*
X133285000Y-87853740D01*
X133227932Y-87566842D01*
X133115990Y-87296589D01*
X132953475Y-87053368D01*
X132746632Y-86846525D01*
X132649280Y-86781476D01*
X132649343Y-86780831D01*
X132650318Y-86777510D01*
X132656667Y-86706475D01*
X132660000Y-86672633D01*
X132660000Y-86671361D01*
X132746632Y-86613475D01*
X132953475Y-86406632D01*
X133115990Y-86163411D01*
X133227932Y-85893158D01*
X133285000Y-85606260D01*
X133285000Y-85313740D01*
X133227932Y-85026842D01*
X133115990Y-84756589D01*
X132953475Y-84513368D01*
X132746632Y-84306525D01*
X132649280Y-84241476D01*
X132660134Y-84131271D01*
X132746632Y-84073475D01*
X132953475Y-83866632D01*
X133115990Y-83623411D01*
X133227932Y-83353158D01*
X133285000Y-83066260D01*
X133285000Y-82773740D01*
X133227932Y-82486842D01*
X133115990Y-82216589D01*
X132953475Y-81973368D01*
X132746632Y-81766525D01*
X132649280Y-81701476D01*
X132649387Y-81700385D01*
X132650486Y-81696625D01*
X132656719Y-81625944D01*
X132660000Y-81592633D01*
X132660000Y-81591361D01*
X132746632Y-81533475D01*
X132953475Y-81326632D01*
X133115990Y-81083411D01*
X133227932Y-80813158D01*
X133285000Y-80526260D01*
X133285000Y-80233740D01*
X133227932Y-79946842D01*
X133115990Y-79676589D01*
X132953475Y-79433368D01*
X132746632Y-79226525D01*
X132649280Y-79161476D01*
X132656484Y-79088327D01*
X132660000Y-79052633D01*
X132660000Y-79052632D01*
X132660134Y-79051271D01*
X132746632Y-78993475D01*
X132953475Y-78786632D01*
X133115990Y-78543411D01*
X133227932Y-78273158D01*
X133285000Y-77986260D01*
X133285000Y-77693740D01*
X133227932Y-77406842D01*
X133115990Y-77136589D01*
X132953475Y-76893368D01*
X132746632Y-76686525D01*
X132649280Y-76621476D01*
X132655938Y-76553871D01*
X132660636Y-76510935D01*
X132746632Y-76453475D01*
X132953475Y-76246632D01*
X133115990Y-76003411D01*
X133227932Y-75733158D01*
X133285000Y-75446260D01*
X133285000Y-75153740D01*
X133227932Y-74866842D01*
X133115990Y-74596589D01*
X132953475Y-74353368D01*
X132746632Y-74146525D01*
X132649280Y-74081476D01*
X132649350Y-74080767D01*
X132650344Y-74077377D01*
X132656679Y-74006347D01*
X132660000Y-73972633D01*
X132660000Y-73971361D01*
X132746632Y-73913475D01*
X132953475Y-73706632D01*
X133115990Y-73463411D01*
X133227932Y-73193158D01*
X133285000Y-72906260D01*
X133285000Y-72613740D01*
X133227932Y-72326842D01*
X133115990Y-72056589D01*
X132953475Y-71813368D01*
X132746632Y-71606525D01*
X132649280Y-71541476D01*
X132649298Y-71541290D01*
X132650146Y-71538414D01*
X132656622Y-71466934D01*
X132660000Y-71432633D01*
X132660000Y-71431361D01*
X132746632Y-71373475D01*
X132953475Y-71166632D01*
X133115990Y-70923411D01*
X133227932Y-70653158D01*
X133285000Y-70366260D01*
X133285000Y-70073740D01*
X133227932Y-69786842D01*
X133115990Y-69516589D01*
X132953475Y-69273368D01*
X132746632Y-69066525D01*
X132503411Y-68904010D01*
X132233158Y-68792068D01*
X131946260Y-68735000D01*
X131653740Y-68735000D01*
X131366842Y-68792068D01*
X131096589Y-68904010D01*
X130853368Y-69066525D01*
X130646525Y-69273368D01*
X130484010Y-69516589D01*
X130372068Y-69786842D01*
X130315000Y-70073740D01*
X130315000Y-70366260D01*
X130372068Y-70653158D01*
X130484010Y-70923411D01*
X130575418Y-71060213D01*
X126855980Y-74995727D01*
X126835300Y-75012699D01*
X126804692Y-75049995D01*
X126797307Y-75057809D01*
X126781001Y-75078863D01*
X126740327Y-75128424D01*
X126735229Y-75137961D01*
X126728608Y-75146510D01*
X126699984Y-75203899D01*
X126669755Y-75260453D01*
X126666617Y-75270799D01*
X126661789Y-75280478D01*
X126644907Y-75342368D01*
X126626298Y-75403714D01*
X126625238Y-75414472D01*
X126622392Y-75424907D01*
X126617909Y-75488889D01*
X126615301Y-75515367D01*
X126615301Y-75526108D01*
X126611928Y-75574247D01*
X126615301Y-75600791D01*
X126615301Y-80486928D01*
X125962000Y-80486928D01*
X125962000Y-78025723D01*
X125965676Y-77988400D01*
X125962000Y-77951077D01*
X125962000Y-77951067D01*
X125951003Y-77839414D01*
X125907546Y-77696153D01*
X125836974Y-77564124D01*
X125742001Y-77448399D01*
X125713003Y-77424601D01*
X123736204Y-75447803D01*
X123712401Y-75418799D01*
X123596676Y-75323826D01*
X123464647Y-75253254D01*
X123321386Y-75209797D01*
X123209733Y-75198800D01*
X123209722Y-75198800D01*
X123172400Y-75195124D01*
X123135078Y-75198800D01*
X122882002Y-75198800D01*
X122102140Y-74418939D01*
X122199180Y-74389502D01*
X122309494Y-74330537D01*
X122406185Y-74251185D01*
X122485537Y-74154494D01*
X122544502Y-74044180D01*
X122580812Y-73924482D01*
X122593072Y-73800000D01*
X122593072Y-72500000D01*
X122580812Y-72375518D01*
X122544502Y-72255820D01*
X122485537Y-72145506D01*
X122406185Y-72048815D01*
X122309494Y-71969463D01*
X122199180Y-71910498D01*
X122079482Y-71874188D01*
X121955000Y-71861928D01*
X120405000Y-71861928D01*
X120280518Y-71874188D01*
X120160820Y-71910498D01*
X120050506Y-71969463D01*
X119953815Y-72048815D01*
X119874463Y-72145506D01*
X119815498Y-72255820D01*
X119779188Y-72375518D01*
X119777762Y-72390000D01*
X114622238Y-72390000D01*
X114620812Y-72375518D01*
X114584502Y-72255820D01*
X114525537Y-72145506D01*
X114446185Y-72048815D01*
X114349494Y-71969463D01*
X114239180Y-71910498D01*
X114119482Y-71874188D01*
X113995000Y-71861928D01*
X112445000Y-71861928D01*
X112320518Y-71874188D01*
X112200820Y-71910498D01*
X112090506Y-71969463D01*
X111993815Y-72048815D01*
X111914463Y-72145506D01*
X111855498Y-72255820D01*
X111819188Y-72375518D01*
X111806928Y-72500000D01*
X111806928Y-73800000D01*
X111819188Y-73924482D01*
X111855498Y-74044180D01*
X111914463Y-74154494D01*
X111993815Y-74251185D01*
X112090506Y-74330537D01*
X112200820Y-74389502D01*
X112320518Y-74425812D01*
X112445000Y-74438072D01*
X113995000Y-74438072D01*
X114119482Y-74425812D01*
X114239180Y-74389502D01*
X114349494Y-74330537D01*
X114446185Y-74251185D01*
X114525537Y-74154494D01*
X114584502Y-74044180D01*
X114620812Y-73924482D01*
X114622238Y-73910000D01*
X119777762Y-73910000D01*
X119779188Y-73924482D01*
X119815498Y-74044180D01*
X119874463Y-74154494D01*
X119953815Y-74251185D01*
X120050506Y-74330537D01*
X120160820Y-74389502D01*
X120280518Y-74425812D01*
X120405000Y-74438072D01*
X120420000Y-74438072D01*
X120420000Y-74534277D01*
X120416324Y-74571600D01*
X120420000Y-74608922D01*
X120420000Y-74608932D01*
X120430997Y-74720585D01*
X120469296Y-74846842D01*
X120474454Y-74863846D01*
X120545026Y-74995876D01*
X120584871Y-75044426D01*
X120639999Y-75111601D01*
X120669003Y-75135404D01*
X121300500Y-75766902D01*
X121250000Y-75761928D01*
X120960750Y-75765000D01*
X120802000Y-75923750D01*
X120802000Y-76973000D01*
X120822000Y-76973000D01*
X120822000Y-77227000D01*
X120802000Y-77227000D01*
X120802000Y-77247000D01*
X120548000Y-77247000D01*
X120548000Y-77227000D01*
X119623750Y-77227000D01*
X119465000Y-77385750D01*
X119461928Y-77800000D01*
X119474188Y-77924482D01*
X119510498Y-78044180D01*
X119569463Y-78154494D01*
X119648815Y-78251185D01*
X119722831Y-78311928D01*
X119525000Y-78311928D01*
X119400518Y-78324188D01*
X119400000Y-78324345D01*
X119399482Y-78324188D01*
X119335000Y-78317837D01*
X119335000Y-78198061D01*
X119295226Y-77998102D01*
X119217205Y-77809744D01*
X119103937Y-77640226D01*
X119060000Y-77596289D01*
X119060000Y-77003711D01*
X119103937Y-76959774D01*
X119217205Y-76790256D01*
X119295226Y-76601898D01*
X119335000Y-76401939D01*
X119335000Y-76400000D01*
X119461928Y-76400000D01*
X119465000Y-76814250D01*
X119623750Y-76973000D01*
X120548000Y-76973000D01*
X120548000Y-75923750D01*
X120389250Y-75765000D01*
X120100000Y-75761928D01*
X119975518Y-75774188D01*
X119855820Y-75810498D01*
X119745506Y-75869463D01*
X119648815Y-75948815D01*
X119569463Y-76045506D01*
X119510498Y-76155820D01*
X119474188Y-76275518D01*
X119461928Y-76400000D01*
X119335000Y-76400000D01*
X119335000Y-76198061D01*
X119295226Y-75998102D01*
X119217205Y-75809744D01*
X119103937Y-75640226D01*
X118959774Y-75496063D01*
X118790256Y-75382795D01*
X118601898Y-75304774D01*
X118401939Y-75265000D01*
X118198061Y-75265000D01*
X117998102Y-75304774D01*
X117809744Y-75382795D01*
X117640226Y-75496063D01*
X117496063Y-75640226D01*
X117382795Y-75809744D01*
X117304774Y-75998102D01*
X117265000Y-76198061D01*
X117265000Y-76401939D01*
X117304774Y-76601898D01*
X117382795Y-76790256D01*
X117496063Y-76959774D01*
X117540000Y-77003711D01*
X117540001Y-77596288D01*
X117496063Y-77640226D01*
X117382795Y-77809744D01*
X117304774Y-77998102D01*
X117265000Y-78198061D01*
X117265000Y-78311928D01*
X117125000Y-78311928D01*
X117000518Y-78324188D01*
X117000000Y-78324345D01*
X116999482Y-78324188D01*
X116875000Y-78311928D01*
X116325000Y-78311928D01*
X116200518Y-78324188D01*
X116200000Y-78324345D01*
X116199482Y-78324188D01*
X116075000Y-78311928D01*
X115525000Y-78311928D01*
X115400518Y-78324188D01*
X115400000Y-78324345D01*
X115399482Y-78324188D01*
X115275000Y-78311928D01*
X114877169Y-78311928D01*
X114951185Y-78251185D01*
X115030537Y-78154494D01*
X115089502Y-78044180D01*
X115125812Y-77924482D01*
X115138072Y-77800000D01*
X115135000Y-77385750D01*
X114976250Y-77227000D01*
X114052000Y-77227000D01*
X114052000Y-77247000D01*
X113798000Y-77247000D01*
X113798000Y-77227000D01*
X113778000Y-77227000D01*
X113778000Y-76973000D01*
X113798000Y-76973000D01*
X113798000Y-75923750D01*
X114052000Y-75923750D01*
X114052000Y-76973000D01*
X114976250Y-76973000D01*
X115135000Y-76814250D01*
X115138072Y-76400000D01*
X115125812Y-76275518D01*
X115089502Y-76155820D01*
X115030537Y-76045506D01*
X114951185Y-75948815D01*
X114854494Y-75869463D01*
X114744180Y-75810498D01*
X114624482Y-75774188D01*
X114500000Y-75761928D01*
X114210750Y-75765000D01*
X114052000Y-75923750D01*
X113798000Y-75923750D01*
X113639250Y-75765000D01*
X113350000Y-75761928D01*
X113225518Y-75774188D01*
X113105820Y-75810498D01*
X112995506Y-75869463D01*
X112898815Y-75948815D01*
X112833342Y-76028594D01*
X112827962Y-76022038D01*
X112693387Y-75911595D01*
X112539851Y-75829528D01*
X112373255Y-75778992D01*
X112200001Y-75761928D01*
X111549999Y-75761928D01*
X111376745Y-75778992D01*
X111210149Y-75829528D01*
X111056613Y-75911595D01*
X110922038Y-76022038D01*
X110811595Y-76156613D01*
X110729528Y-76310149D01*
X110678992Y-76476745D01*
X110661928Y-76649999D01*
X110661928Y-77550001D01*
X110677527Y-77708381D01*
X110589139Y-77690800D01*
X110527002Y-77690800D01*
X108937304Y-76101103D01*
X108913501Y-76072099D01*
X108797776Y-75977126D01*
X108665747Y-75906554D01*
X108522486Y-75863097D01*
X108410833Y-75852100D01*
X108410822Y-75852100D01*
X108373500Y-75848424D01*
X108336178Y-75852100D01*
X103770381Y-75852100D01*
X103827932Y-75713158D01*
X103885000Y-75426260D01*
X103885000Y-75133740D01*
X103827932Y-74846842D01*
X103715990Y-74576589D01*
X103553475Y-74333368D01*
X103346632Y-74126525D01*
X103172240Y-74010000D01*
X103346632Y-73893475D01*
X103553475Y-73686632D01*
X103715990Y-73443411D01*
X103827932Y-73173158D01*
X103885000Y-72886260D01*
X103885000Y-72593740D01*
X103827932Y-72306842D01*
X103715990Y-72036589D01*
X103553475Y-71793368D01*
X103346632Y-71586525D01*
X103172240Y-71470000D01*
X103346632Y-71353475D01*
X103553475Y-71146632D01*
X103715990Y-70903411D01*
X103827932Y-70633158D01*
X103885000Y-70346260D01*
X103885000Y-70053740D01*
X103827932Y-69766842D01*
X103715990Y-69496589D01*
X103584634Y-69300000D01*
X111806928Y-69300000D01*
X111819188Y-69424482D01*
X111855498Y-69544180D01*
X111914463Y-69654494D01*
X111993815Y-69751185D01*
X112090506Y-69830537D01*
X112200820Y-69889502D01*
X112320518Y-69925812D01*
X112445000Y-69938072D01*
X112934250Y-69935000D01*
X113093000Y-69776250D01*
X113093000Y-68777000D01*
X113347000Y-68777000D01*
X113347000Y-69776250D01*
X113505750Y-69935000D01*
X113995000Y-69938072D01*
X114119482Y-69925812D01*
X114239180Y-69889502D01*
X114349494Y-69830537D01*
X114446185Y-69751185D01*
X114525537Y-69654494D01*
X114584502Y-69544180D01*
X114620812Y-69424482D01*
X114633072Y-69300000D01*
X119766928Y-69300000D01*
X119779188Y-69424482D01*
X119815498Y-69544180D01*
X119874463Y-69654494D01*
X119953815Y-69751185D01*
X120050506Y-69830537D01*
X120160820Y-69889502D01*
X120280518Y-69925812D01*
X120405000Y-69938072D01*
X120894250Y-69935000D01*
X121053000Y-69776250D01*
X121053000Y-68777000D01*
X121307000Y-68777000D01*
X121307000Y-69776250D01*
X121465750Y-69935000D01*
X121955000Y-69938072D01*
X122079482Y-69925812D01*
X122199180Y-69889502D01*
X122309494Y-69830537D01*
X122406185Y-69751185D01*
X122485537Y-69654494D01*
X122544502Y-69544180D01*
X122580812Y-69424482D01*
X122593072Y-69300000D01*
X122590000Y-68935750D01*
X122431250Y-68777000D01*
X121307000Y-68777000D01*
X121053000Y-68777000D01*
X119928750Y-68777000D01*
X119770000Y-68935750D01*
X119766928Y-69300000D01*
X114633072Y-69300000D01*
X114630000Y-68935750D01*
X114471250Y-68777000D01*
X113347000Y-68777000D01*
X113093000Y-68777000D01*
X111968750Y-68777000D01*
X111810000Y-68935750D01*
X111806928Y-69300000D01*
X103584634Y-69300000D01*
X103553475Y-69253368D01*
X103375585Y-69075478D01*
X103494180Y-69039502D01*
X103604494Y-68980537D01*
X103701185Y-68901185D01*
X103780537Y-68804494D01*
X103839502Y-68694180D01*
X103875812Y-68574482D01*
X103888072Y-68450000D01*
X103888072Y-68000000D01*
X111806928Y-68000000D01*
X111810000Y-68364250D01*
X111968750Y-68523000D01*
X113093000Y-68523000D01*
X113093000Y-67523750D01*
X113347000Y-67523750D01*
X113347000Y-68523000D01*
X114471250Y-68523000D01*
X114630000Y-68364250D01*
X114633072Y-68000000D01*
X119766928Y-68000000D01*
X119770000Y-68364250D01*
X119928750Y-68523000D01*
X121053000Y-68523000D01*
X121053000Y-67523750D01*
X121307000Y-67523750D01*
X121307000Y-68523000D01*
X122431250Y-68523000D01*
X122590000Y-68364250D01*
X122593072Y-68000000D01*
X122580812Y-67875518D01*
X122544502Y-67755820D01*
X122485537Y-67645506D01*
X122406185Y-67548815D01*
X122309494Y-67469463D01*
X122199180Y-67410498D01*
X122079482Y-67374188D01*
X121955000Y-67361928D01*
X121465750Y-67365000D01*
X121307000Y-67523750D01*
X121053000Y-67523750D01*
X120894250Y-67365000D01*
X120405000Y-67361928D01*
X120280518Y-67374188D01*
X120160820Y-67410498D01*
X120050506Y-67469463D01*
X119953815Y-67548815D01*
X119874463Y-67645506D01*
X119815498Y-67755820D01*
X119779188Y-67875518D01*
X119766928Y-68000000D01*
X114633072Y-68000000D01*
X114620812Y-67875518D01*
X114584502Y-67755820D01*
X114525537Y-67645506D01*
X114446185Y-67548815D01*
X114349494Y-67469463D01*
X114239180Y-67410498D01*
X114119482Y-67374188D01*
X113995000Y-67361928D01*
X113505750Y-67365000D01*
X113347000Y-67523750D01*
X113093000Y-67523750D01*
X112934250Y-67365000D01*
X112445000Y-67361928D01*
X112320518Y-67374188D01*
X112200820Y-67410498D01*
X112090506Y-67469463D01*
X111993815Y-67548815D01*
X111914463Y-67645506D01*
X111855498Y-67755820D01*
X111819188Y-67875518D01*
X111806928Y-68000000D01*
X103888072Y-68000000D01*
X103888072Y-66750000D01*
X103875812Y-66625518D01*
X103839502Y-66505820D01*
X103780537Y-66395506D01*
X103701185Y-66298815D01*
X103604494Y-66219463D01*
X103494180Y-66160498D01*
X103374482Y-66124188D01*
X103250000Y-66111928D01*
X101550000Y-66111928D01*
X101425518Y-66124188D01*
X101305820Y-66160498D01*
X101195506Y-66219463D01*
X101098815Y-66298815D01*
X101019463Y-66395506D01*
X100985000Y-66459981D01*
X100985000Y-63485000D01*
X112135000Y-63485000D01*
X112135001Y-64703647D01*
G37*
X112135001Y-64703647D02*
X112137838Y-64732451D01*
X112137826Y-64734176D01*
X112138759Y-64743695D01*
X112141725Y-64771911D01*
X112144913Y-64804283D01*
X112146306Y-64808874D01*
X112157368Y-64862765D01*
X112168998Y-64923729D01*
X112171762Y-64932885D01*
X112189076Y-64988817D01*
X112213137Y-65046054D01*
X112236394Y-65103617D01*
X112240884Y-65112061D01*
X112268732Y-65163565D01*
X112303425Y-65214999D01*
X112337444Y-65266984D01*
X112343489Y-65274395D01*
X112380810Y-65319508D01*
X112424867Y-65363258D01*
X112468303Y-65407613D01*
X112475672Y-65413710D01*
X112521045Y-65450715D01*
X112572778Y-65485086D01*
X112623975Y-65520142D01*
X112632388Y-65524691D01*
X112632398Y-65524697D01*
X112632404Y-65524699D01*
X112684084Y-65552180D01*
X112741498Y-65575845D01*
X112798554Y-65600299D01*
X112807684Y-65603125D01*
X112807686Y-65603126D01*
X112807688Y-65603126D01*
X112807690Y-65603127D01*
X112863741Y-65620050D01*
X112924644Y-65632109D01*
X112985379Y-65645018D01*
X112985543Y-65645035D01*
X112985717Y-65645088D01*
X112990910Y-65645599D01*
X112994891Y-65646018D01*
X113053160Y-65651731D01*
X113053163Y-65651731D01*
X113086353Y-65655000D01*
X119483647Y-65655000D01*
X119512461Y-65652162D01*
X119514176Y-65652174D01*
X119523695Y-65651241D01*
X119551760Y-65648291D01*
X119584283Y-65645088D01*
X119588884Y-65643692D01*
X119642765Y-65632632D01*
X119703729Y-65621002D01*
X119712885Y-65618238D01*
X119768817Y-65600924D01*
X119826054Y-65576863D01*
X119883617Y-65553606D01*
X119892056Y-65549119D01*
X119892060Y-65549117D01*
X119892063Y-65549115D01*
X119943565Y-65521268D01*
X119994999Y-65486575D01*
X120046984Y-65452556D01*
X120054395Y-65446511D01*
X120099508Y-65409190D01*
X120143258Y-65365133D01*
X120187613Y-65321697D01*
X120193710Y-65314328D01*
X120230715Y-65268955D01*
X120265086Y-65217222D01*
X120300142Y-65166025D01*
X120304691Y-65157612D01*
X120304697Y-65157602D01*
X120304699Y-65157596D01*
X120332180Y-65105916D01*
X120355845Y-65048502D01*
X120380299Y-64991446D01*
X120383127Y-64982310D01*
X120400050Y-64926259D01*
X120412109Y-64865356D01*
X120425018Y-64804621D01*
X120425035Y-64804457D01*
X120425088Y-64804283D01*
X120425599Y-64799090D01*
X120426018Y-64795109D01*
X120431731Y-64736840D01*
X120431731Y-64736837D01*
X120435000Y-64703647D01*
X120435000Y-63485000D01*
X133315000Y-63485000D01*
X133315001Y-111215000D01*
X125340019Y-111215000D01*
X125404494Y-111180537D01*
X125501185Y-111101185D01*
X125580537Y-111004494D01*
X125639502Y-110894180D01*
X125675812Y-110774482D01*
X125688072Y-110650000D01*
X125688072Y-109285000D01*
X128930306Y-109285000D01*
X128954528Y-109364850D01*
X129036595Y-109518386D01*
X129147038Y-109652962D01*
X129281614Y-109763405D01*
X129435150Y-109845472D01*
X129601746Y-109896008D01*
X129775000Y-109913072D01*
X131625000Y-109913072D01*
X131798254Y-109896008D01*
X131964850Y-109845472D01*
X132118386Y-109763405D01*
X132252962Y-109652962D01*
X132363405Y-109518386D01*
X132445472Y-109364850D01*
X132496008Y-109198254D01*
X132513072Y-109025000D01*
X132513072Y-108025000D01*
X132496008Y-107851746D01*
X132445472Y-107685150D01*
X132363405Y-107531614D01*
X132252962Y-107397038D01*
X132118386Y-107286595D01*
X131964850Y-107204528D01*
X131798254Y-107153992D01*
X131625000Y-107136928D01*
X129775000Y-107136928D01*
X129601746Y-107153992D01*
X129435150Y-107204528D01*
X129281614Y-107286595D01*
X129147038Y-107397038D01*
X129036595Y-107531614D01*
X128954528Y-107685150D01*
X128930306Y-107765000D01*
X128044145Y-107765000D01*
X128049003Y-107748986D01*
X128060000Y-107637333D01*
X128060000Y-107637324D01*
X128063676Y-107600001D01*
X128060000Y-107562678D01*
X128060000Y-106025000D01*
X128886928Y-106025000D01*
X128899188Y-106149482D01*
X128935498Y-106269180D01*
X128994463Y-106379494D01*
X129073815Y-106476185D01*
X129170506Y-106555537D01*
X129280820Y-106614502D01*
X129400518Y-106650812D01*
X129525000Y-106663072D01*
X130414250Y-106660000D01*
X130573000Y-106501250D01*
X130573000Y-105402000D01*
X130827000Y-105402000D01*
X130827000Y-106501250D01*
X130985750Y-106660000D01*
X131875000Y-106663072D01*
X131999482Y-106650812D01*
X132119180Y-106614502D01*
X132229494Y-106555537D01*
X132326185Y-106476185D01*
X132405537Y-106379494D01*
X132464502Y-106269180D01*
X132500812Y-106149482D01*
X132513072Y-106025000D01*
X132510000Y-105560750D01*
X132351250Y-105402000D01*
X130827000Y-105402000D01*
X130573000Y-105402000D01*
X129048750Y-105402000D01*
X128890000Y-105560750D01*
X128886928Y-106025000D01*
X128060000Y-106025000D01*
X128060000Y-104525000D01*
X128886928Y-104525000D01*
X128890000Y-104989250D01*
X129048750Y-105148000D01*
X130573000Y-105148000D01*
X130573000Y-104048750D01*
X130827000Y-104048750D01*
X130827000Y-105148000D01*
X132351250Y-105148000D01*
X132510000Y-104989250D01*
X132513072Y-104525000D01*
X132500812Y-104400518D01*
X132464502Y-104280820D01*
X132405537Y-104170506D01*
X132326185Y-104073815D01*
X132229494Y-103994463D01*
X132119180Y-103935498D01*
X131999482Y-103899188D01*
X131875000Y-103886928D01*
X130985750Y-103890000D01*
X130827000Y-104048750D01*
X130573000Y-104048750D01*
X130414250Y-103890000D01*
X129525000Y-103886928D01*
X129400518Y-103899188D01*
X129280820Y-103935498D01*
X129170506Y-103994463D01*
X129073815Y-104073815D01*
X128994463Y-104170506D01*
X128935498Y-104280820D01*
X128899188Y-104400518D01*
X128886928Y-104525000D01*
X128060000Y-104525000D01*
X128060000Y-100437325D01*
X128063676Y-100400000D01*
X128060000Y-100362675D01*
X128060000Y-100362667D01*
X128049003Y-100251014D01*
X128005546Y-100107753D01*
X127934974Y-99975724D01*
X127840001Y-99859999D01*
X127811004Y-99836202D01*
X127274802Y-99300000D01*
X130061928Y-99300000D01*
X130074188Y-99424482D01*
X130110498Y-99544180D01*
X130169463Y-99654494D01*
X130248815Y-99751185D01*
X130345506Y-99830537D01*
X130455820Y-99889502D01*
X130575518Y-99925812D01*
X130700000Y-99938072D01*
X131114250Y-99935000D01*
X131273000Y-99776250D01*
X131273000Y-98852000D01*
X131527000Y-98852000D01*
X131527000Y-99776250D01*
X131685750Y-99935000D01*
X132100000Y-99938072D01*
X132224482Y-99925812D01*
X132344180Y-99889502D01*
X132454494Y-99830537D01*
X132551185Y-99751185D01*
X132630537Y-99654494D01*
X132689502Y-99544180D01*
X132725812Y-99424482D01*
X132738072Y-99300000D01*
X132735000Y-99010750D01*
X132576250Y-98852000D01*
X131527000Y-98852000D01*
X131273000Y-98852000D01*
X130223750Y-98852000D01*
X130065000Y-99010750D01*
X130061928Y-99300000D01*
X127274802Y-99300000D01*
X127260510Y-99285709D01*
X127295226Y-99201898D01*
X127335000Y-99001939D01*
X127335000Y-98798061D01*
X127295226Y-98598102D01*
X127217205Y-98409744D01*
X127103937Y-98240226D01*
X126959774Y-98096063D01*
X126790256Y-97982795D01*
X126601898Y-97904774D01*
X126401939Y-97865000D01*
X126318417Y-97865000D01*
X124935000Y-96539227D01*
X124935000Y-96498061D01*
X124931898Y-96482468D01*
X124999482Y-96475812D01*
X125119180Y-96439502D01*
X125229494Y-96380537D01*
X125326185Y-96301185D01*
X125405537Y-96204494D01*
X125464502Y-96094180D01*
X125500812Y-95974482D01*
X125513072Y-95850000D01*
X125513072Y-94784700D01*
X129892978Y-94784700D01*
X129930300Y-94788376D01*
X129967622Y-94784700D01*
X129967633Y-94784700D01*
X130041928Y-94777382D01*
X130041928Y-94950001D01*
X130058992Y-95123255D01*
X130109528Y-95289851D01*
X130191595Y-95443387D01*
X130302038Y-95577962D01*
X130399816Y-95658207D01*
X130322038Y-95722038D01*
X130211595Y-95856613D01*
X130129528Y-96010149D01*
X130078992Y-96176745D01*
X130061928Y-96349999D01*
X130061928Y-97000001D01*
X130078992Y-97173255D01*
X130129528Y-97339851D01*
X130211595Y-97493387D01*
X130322038Y-97627962D01*
X130328594Y-97633342D01*
X130248815Y-97698815D01*
X130169463Y-97795506D01*
X130110498Y-97905820D01*
X130074188Y-98025518D01*
X130061928Y-98150000D01*
X130065000Y-98439250D01*
X130223750Y-98598000D01*
X131273000Y-98598000D01*
X131273000Y-98578000D01*
X131527000Y-98578000D01*
X131527000Y-98598000D01*
X132576250Y-98598000D01*
X132735000Y-98439250D01*
X132738072Y-98150000D01*
X132725812Y-98025518D01*
X132689502Y-97905820D01*
X132630537Y-97795506D01*
X132551185Y-97698815D01*
X132471406Y-97633342D01*
X132477962Y-97627962D01*
X132588405Y-97493387D01*
X132670472Y-97339851D01*
X132721008Y-97173255D01*
X132738072Y-97000001D01*
X132738072Y-96349999D01*
X132721008Y-96176745D01*
X132670472Y-96010149D01*
X132588405Y-95856613D01*
X132477962Y-95722038D01*
X132380184Y-95641793D01*
X132457962Y-95577962D01*
X132568405Y-95443387D01*
X132650472Y-95289851D01*
X132701008Y-95123255D01*
X132718072Y-94950001D01*
X132718072Y-94299999D01*
X132701008Y-94126745D01*
X132650472Y-93960149D01*
X132568405Y-93806613D01*
X132457962Y-93672038D01*
X132370184Y-93600000D01*
X132457962Y-93527962D01*
X132568405Y-93393387D01*
X132650472Y-93239851D01*
X132701008Y-93073255D01*
X132718072Y-92900001D01*
X132718072Y-92249999D01*
X132701008Y-92076745D01*
X132650472Y-91910149D01*
X132568405Y-91756613D01*
X132457962Y-91622038D01*
X132323387Y-91511595D01*
X132169851Y-91429528D01*
X132003255Y-91378992D01*
X131830001Y-91361928D01*
X130929999Y-91361928D01*
X130756745Y-91378992D01*
X130590149Y-91429528D01*
X130436613Y-91511595D01*
X130302038Y-91622038D01*
X130191595Y-91756613D01*
X130109528Y-91910149D01*
X130058992Y-92076745D01*
X130041928Y-92249999D01*
X130041928Y-92838270D01*
X129615499Y-93264700D01*
X127688072Y-93264700D01*
X127688072Y-93125000D01*
X127675812Y-93000518D01*
X127675655Y-93000000D01*
X127675812Y-92999482D01*
X127688072Y-92875000D01*
X127688072Y-92560000D01*
X128062678Y-92560000D01*
X128100000Y-92563676D01*
X128137322Y-92560000D01*
X128137333Y-92560000D01*
X128248986Y-92549003D01*
X128392247Y-92505546D01*
X128524276Y-92434974D01*
X128640001Y-92340001D01*
X128663804Y-92310997D01*
X131517001Y-89457801D01*
X131653740Y-89485000D01*
X131946260Y-89485000D01*
X132233158Y-89427932D01*
X132503411Y-89315990D01*
X132746632Y-89153475D01*
X132953475Y-88946632D01*
X133115990Y-88703411D01*
X133227932Y-88433158D01*
X133285000Y-88146260D01*
X133285000Y-87853740D01*
X133227932Y-87566842D01*
X133115990Y-87296589D01*
X132953475Y-87053368D01*
X132746632Y-86846525D01*
X132649280Y-86781476D01*
X132649343Y-86780831D01*
X132650318Y-86777510D01*
X132656667Y-86706475D01*
X132660000Y-86672633D01*
X132660000Y-86671361D01*
X132746632Y-86613475D01*
X132953475Y-86406632D01*
X133115990Y-86163411D01*
X133227932Y-85893158D01*
X133285000Y-85606260D01*
X133285000Y-85313740D01*
X133227932Y-85026842D01*
X133115990Y-84756589D01*
X132953475Y-84513368D01*
X132746632Y-84306525D01*
X132649280Y-84241476D01*
X132660134Y-84131271D01*
X132746632Y-84073475D01*
X132953475Y-83866632D01*
X133115990Y-83623411D01*
X133227932Y-83353158D01*
X133285000Y-83066260D01*
X133285000Y-82773740D01*
X133227932Y-82486842D01*
X133115990Y-82216589D01*
X132953475Y-81973368D01*
X132746632Y-81766525D01*
X132649280Y-81701476D01*
X132649387Y-81700385D01*
X132650486Y-81696625D01*
X132656719Y-81625944D01*
X132660000Y-81592633D01*
X132660000Y-81591361D01*
X132746632Y-81533475D01*
X132953475Y-81326632D01*
X133115990Y-81083411D01*
X133227932Y-80813158D01*
X133285000Y-80526260D01*
X133285000Y-80233740D01*
X133227932Y-79946842D01*
X133115990Y-79676589D01*
X132953475Y-79433368D01*
X132746632Y-79226525D01*
X132649280Y-79161476D01*
X132656484Y-79088327D01*
X132660000Y-79052633D01*
X132660000Y-79052632D01*
X132660134Y-79051271D01*
X132746632Y-78993475D01*
X132953475Y-78786632D01*
X133115990Y-78543411D01*
X133227932Y-78273158D01*
X133285000Y-77986260D01*
X133285000Y-77693740D01*
X133227932Y-77406842D01*
X133115990Y-77136589D01*
X132953475Y-76893368D01*
X132746632Y-76686525D01*
X132649280Y-76621476D01*
X132655938Y-76553871D01*
X132660636Y-76510935D01*
X132746632Y-76453475D01*
X132953475Y-76246632D01*
X133115990Y-76003411D01*
X133227932Y-75733158D01*
X133285000Y-75446260D01*
X133285000Y-75153740D01*
X133227932Y-74866842D01*
X133115990Y-74596589D01*
X132953475Y-74353368D01*
X132746632Y-74146525D01*
X132649280Y-74081476D01*
X132649350Y-74080767D01*
X132650344Y-74077377D01*
X132656679Y-74006347D01*
X132660000Y-73972633D01*
X132660000Y-73971361D01*
X132746632Y-73913475D01*
X132953475Y-73706632D01*
X133115990Y-73463411D01*
X133227932Y-73193158D01*
X133285000Y-72906260D01*
X133285000Y-72613740D01*
X133227932Y-72326842D01*
X133115990Y-72056589D01*
X132953475Y-71813368D01*
X132746632Y-71606525D01*
X132649280Y-71541476D01*
X132649298Y-71541290D01*
X132650146Y-71538414D01*
X132656622Y-71466934D01*
X132660000Y-71432633D01*
X132660000Y-71431361D01*
X132746632Y-71373475D01*
X132953475Y-71166632D01*
X133115990Y-70923411D01*
X133227932Y-70653158D01*
X133285000Y-70366260D01*
X133285000Y-70073740D01*
X133227932Y-69786842D01*
X133115990Y-69516589D01*
X132953475Y-69273368D01*
X132746632Y-69066525D01*
X132503411Y-68904010D01*
X132233158Y-68792068D01*
X131946260Y-68735000D01*
X131653740Y-68735000D01*
X131366842Y-68792068D01*
X131096589Y-68904010D01*
X130853368Y-69066525D01*
X130646525Y-69273368D01*
X130484010Y-69516589D01*
X130372068Y-69786842D01*
X130315000Y-70073740D01*
X130315000Y-70366260D01*
X130372068Y-70653158D01*
X130484010Y-70923411D01*
X130575418Y-71060213D01*
X126855980Y-74995727D01*
X126835300Y-75012699D01*
X126804692Y-75049995D01*
X126797307Y-75057809D01*
X126781001Y-75078863D01*
X126740327Y-75128424D01*
X126735229Y-75137961D01*
X126728608Y-75146510D01*
X126699984Y-75203899D01*
X126669755Y-75260453D01*
X126666617Y-75270799D01*
X126661789Y-75280478D01*
X126644907Y-75342368D01*
X126626298Y-75403714D01*
X126625238Y-75414472D01*
X126622392Y-75424907D01*
X126617909Y-75488889D01*
X126615301Y-75515367D01*
X126615301Y-75526108D01*
X126611928Y-75574247D01*
X126615301Y-75600791D01*
X126615301Y-80486928D01*
X125962000Y-80486928D01*
X125962000Y-78025723D01*
X125965676Y-77988400D01*
X125962000Y-77951077D01*
X125962000Y-77951067D01*
X125951003Y-77839414D01*
X125907546Y-77696153D01*
X125836974Y-77564124D01*
X125742001Y-77448399D01*
X125713003Y-77424601D01*
X123736204Y-75447803D01*
X123712401Y-75418799D01*
X123596676Y-75323826D01*
X123464647Y-75253254D01*
X123321386Y-75209797D01*
X123209733Y-75198800D01*
X123209722Y-75198800D01*
X123172400Y-75195124D01*
X123135078Y-75198800D01*
X122882002Y-75198800D01*
X122102140Y-74418939D01*
X122199180Y-74389502D01*
X122309494Y-74330537D01*
X122406185Y-74251185D01*
X122485537Y-74154494D01*
X122544502Y-74044180D01*
X122580812Y-73924482D01*
X122593072Y-73800000D01*
X122593072Y-72500000D01*
X122580812Y-72375518D01*
X122544502Y-72255820D01*
X122485537Y-72145506D01*
X122406185Y-72048815D01*
X122309494Y-71969463D01*
X122199180Y-71910498D01*
X122079482Y-71874188D01*
X121955000Y-71861928D01*
X120405000Y-71861928D01*
X120280518Y-71874188D01*
X120160820Y-71910498D01*
X120050506Y-71969463D01*
X119953815Y-72048815D01*
X119874463Y-72145506D01*
X119815498Y-72255820D01*
X119779188Y-72375518D01*
X119777762Y-72390000D01*
X114622238Y-72390000D01*
X114620812Y-72375518D01*
X114584502Y-72255820D01*
X114525537Y-72145506D01*
X114446185Y-72048815D01*
X114349494Y-71969463D01*
X114239180Y-71910498D01*
X114119482Y-71874188D01*
X113995000Y-71861928D01*
X112445000Y-71861928D01*
X112320518Y-71874188D01*
X112200820Y-71910498D01*
X112090506Y-71969463D01*
X111993815Y-72048815D01*
X111914463Y-72145506D01*
X111855498Y-72255820D01*
X111819188Y-72375518D01*
X111806928Y-72500000D01*
X111806928Y-73800000D01*
X111819188Y-73924482D01*
X111855498Y-74044180D01*
X111914463Y-74154494D01*
X111993815Y-74251185D01*
X112090506Y-74330537D01*
X112200820Y-74389502D01*
X112320518Y-74425812D01*
X112445000Y-74438072D01*
X113995000Y-74438072D01*
X114119482Y-74425812D01*
X114239180Y-74389502D01*
X114349494Y-74330537D01*
X114446185Y-74251185D01*
X114525537Y-74154494D01*
X114584502Y-74044180D01*
X114620812Y-73924482D01*
X114622238Y-73910000D01*
X119777762Y-73910000D01*
X119779188Y-73924482D01*
X119815498Y-74044180D01*
X119874463Y-74154494D01*
X119953815Y-74251185D01*
X120050506Y-74330537D01*
X120160820Y-74389502D01*
X120280518Y-74425812D01*
X120405000Y-74438072D01*
X120420000Y-74438072D01*
X120420000Y-74534277D01*
X120416324Y-74571600D01*
X120420000Y-74608922D01*
X120420000Y-74608932D01*
X120430997Y-74720585D01*
X120469296Y-74846842D01*
X120474454Y-74863846D01*
X120545026Y-74995876D01*
X120584871Y-75044426D01*
X120639999Y-75111601D01*
X120669003Y-75135404D01*
X121300500Y-75766902D01*
X121250000Y-75761928D01*
X120960750Y-75765000D01*
X120802000Y-75923750D01*
X120802000Y-76973000D01*
X120822000Y-76973000D01*
X120822000Y-77227000D01*
X120802000Y-77227000D01*
X120802000Y-77247000D01*
X120548000Y-77247000D01*
X120548000Y-77227000D01*
X119623750Y-77227000D01*
X119465000Y-77385750D01*
X119461928Y-77800000D01*
X119474188Y-77924482D01*
X119510498Y-78044180D01*
X119569463Y-78154494D01*
X119648815Y-78251185D01*
X119722831Y-78311928D01*
X119525000Y-78311928D01*
X119400518Y-78324188D01*
X119400000Y-78324345D01*
X119399482Y-78324188D01*
X119335000Y-78317837D01*
X119335000Y-78198061D01*
X119295226Y-77998102D01*
X119217205Y-77809744D01*
X119103937Y-77640226D01*
X119060000Y-77596289D01*
X119060000Y-77003711D01*
X119103937Y-76959774D01*
X119217205Y-76790256D01*
X119295226Y-76601898D01*
X119335000Y-76401939D01*
X119335000Y-76400000D01*
X119461928Y-76400000D01*
X119465000Y-76814250D01*
X119623750Y-76973000D01*
X120548000Y-76973000D01*
X120548000Y-75923750D01*
X120389250Y-75765000D01*
X120100000Y-75761928D01*
X119975518Y-75774188D01*
X119855820Y-75810498D01*
X119745506Y-75869463D01*
X119648815Y-75948815D01*
X119569463Y-76045506D01*
X119510498Y-76155820D01*
X119474188Y-76275518D01*
X119461928Y-76400000D01*
X119335000Y-76400000D01*
X119335000Y-76198061D01*
X119295226Y-75998102D01*
X119217205Y-75809744D01*
X119103937Y-75640226D01*
X118959774Y-75496063D01*
X118790256Y-75382795D01*
X118601898Y-75304774D01*
X118401939Y-75265000D01*
X118198061Y-75265000D01*
X117998102Y-75304774D01*
X117809744Y-75382795D01*
X117640226Y-75496063D01*
X117496063Y-75640226D01*
X117382795Y-75809744D01*
X117304774Y-75998102D01*
X117265000Y-76198061D01*
X117265000Y-76401939D01*
X117304774Y-76601898D01*
X117382795Y-76790256D01*
X117496063Y-76959774D01*
X117540000Y-77003711D01*
X117540001Y-77596288D01*
X117496063Y-77640226D01*
X117382795Y-77809744D01*
X117304774Y-77998102D01*
X117265000Y-78198061D01*
X117265000Y-78311928D01*
X117125000Y-78311928D01*
X117000518Y-78324188D01*
X117000000Y-78324345D01*
X116999482Y-78324188D01*
X116875000Y-78311928D01*
X116325000Y-78311928D01*
X116200518Y-78324188D01*
X116200000Y-78324345D01*
X116199482Y-78324188D01*
X116075000Y-78311928D01*
X115525000Y-78311928D01*
X115400518Y-78324188D01*
X115400000Y-78324345D01*
X115399482Y-78324188D01*
X115275000Y-78311928D01*
X114877169Y-78311928D01*
X114951185Y-78251185D01*
X115030537Y-78154494D01*
X115089502Y-78044180D01*
X115125812Y-77924482D01*
X115138072Y-77800000D01*
X115135000Y-77385750D01*
X114976250Y-77227000D01*
X114052000Y-77227000D01*
X114052000Y-77247000D01*
X113798000Y-77247000D01*
X113798000Y-77227000D01*
X113778000Y-77227000D01*
X113778000Y-76973000D01*
X113798000Y-76973000D01*
X113798000Y-75923750D01*
X114052000Y-75923750D01*
X114052000Y-76973000D01*
X114976250Y-76973000D01*
X115135000Y-76814250D01*
X115138072Y-76400000D01*
X115125812Y-76275518D01*
X115089502Y-76155820D01*
X115030537Y-76045506D01*
X114951185Y-75948815D01*
X114854494Y-75869463D01*
X114744180Y-75810498D01*
X114624482Y-75774188D01*
X114500000Y-75761928D01*
X114210750Y-75765000D01*
X114052000Y-75923750D01*
X113798000Y-75923750D01*
X113639250Y-75765000D01*
X113350000Y-75761928D01*
X113225518Y-75774188D01*
X113105820Y-75810498D01*
X112995506Y-75869463D01*
X112898815Y-75948815D01*
X112833342Y-76028594D01*
X112827962Y-76022038D01*
X112693387Y-75911595D01*
X112539851Y-75829528D01*
X112373255Y-75778992D01*
X112200001Y-75761928D01*
X111549999Y-75761928D01*
X111376745Y-75778992D01*
X111210149Y-75829528D01*
X111056613Y-75911595D01*
X110922038Y-76022038D01*
X110811595Y-76156613D01*
X110729528Y-76310149D01*
X110678992Y-76476745D01*
X110661928Y-76649999D01*
X110661928Y-77550001D01*
X110677527Y-77708381D01*
X110589139Y-77690800D01*
X110527002Y-77690800D01*
X108937304Y-76101103D01*
X108913501Y-76072099D01*
X108797776Y-75977126D01*
X108665747Y-75906554D01*
X108522486Y-75863097D01*
X108410833Y-75852100D01*
X108410822Y-75852100D01*
X108373500Y-75848424D01*
X108336178Y-75852100D01*
X103770381Y-75852100D01*
X103827932Y-75713158D01*
X103885000Y-75426260D01*
X103885000Y-75133740D01*
X103827932Y-74846842D01*
X103715990Y-74576589D01*
X103553475Y-74333368D01*
X103346632Y-74126525D01*
X103172240Y-74010000D01*
X103346632Y-73893475D01*
X103553475Y-73686632D01*
X103715990Y-73443411D01*
X103827932Y-73173158D01*
X103885000Y-72886260D01*
X103885000Y-72593740D01*
X103827932Y-72306842D01*
X103715990Y-72036589D01*
X103553475Y-71793368D01*
X103346632Y-71586525D01*
X103172240Y-71470000D01*
X103346632Y-71353475D01*
X103553475Y-71146632D01*
X103715990Y-70903411D01*
X103827932Y-70633158D01*
X103885000Y-70346260D01*
X103885000Y-70053740D01*
X103827932Y-69766842D01*
X103715990Y-69496589D01*
X103584634Y-69300000D01*
X111806928Y-69300000D01*
X111819188Y-69424482D01*
X111855498Y-69544180D01*
X111914463Y-69654494D01*
X111993815Y-69751185D01*
X112090506Y-69830537D01*
X112200820Y-69889502D01*
X112320518Y-69925812D01*
X112445000Y-69938072D01*
X112934250Y-69935000D01*
X113093000Y-69776250D01*
X113093000Y-68777000D01*
X113347000Y-68777000D01*
X113347000Y-69776250D01*
X113505750Y-69935000D01*
X113995000Y-69938072D01*
X114119482Y-69925812D01*
X114239180Y-69889502D01*
X114349494Y-69830537D01*
X114446185Y-69751185D01*
X114525537Y-69654494D01*
X114584502Y-69544180D01*
X114620812Y-69424482D01*
X114633072Y-69300000D01*
X119766928Y-69300000D01*
X119779188Y-69424482D01*
X119815498Y-69544180D01*
X119874463Y-69654494D01*
X119953815Y-69751185D01*
X120050506Y-69830537D01*
X120160820Y-69889502D01*
X120280518Y-69925812D01*
X120405000Y-69938072D01*
X120894250Y-69935000D01*
X121053000Y-69776250D01*
X121053000Y-68777000D01*
X121307000Y-68777000D01*
X121307000Y-69776250D01*
X121465750Y-69935000D01*
X121955000Y-69938072D01*
X122079482Y-69925812D01*
X122199180Y-69889502D01*
X122309494Y-69830537D01*
X122406185Y-69751185D01*
X122485537Y-69654494D01*
X122544502Y-69544180D01*
X122580812Y-69424482D01*
X122593072Y-69300000D01*
X122590000Y-68935750D01*
X122431250Y-68777000D01*
X121307000Y-68777000D01*
X121053000Y-68777000D01*
X119928750Y-68777000D01*
X119770000Y-68935750D01*
X119766928Y-69300000D01*
X114633072Y-69300000D01*
X114630000Y-68935750D01*
X114471250Y-68777000D01*
X113347000Y-68777000D01*
X113093000Y-68777000D01*
X111968750Y-68777000D01*
X111810000Y-68935750D01*
X111806928Y-69300000D01*
X103584634Y-69300000D01*
X103553475Y-69253368D01*
X103375585Y-69075478D01*
X103494180Y-69039502D01*
X103604494Y-68980537D01*
X103701185Y-68901185D01*
X103780537Y-68804494D01*
X103839502Y-68694180D01*
X103875812Y-68574482D01*
X103888072Y-68450000D01*
X103888072Y-68000000D01*
X111806928Y-68000000D01*
X111810000Y-68364250D01*
X111968750Y-68523000D01*
X113093000Y-68523000D01*
X113093000Y-67523750D01*
X113347000Y-67523750D01*
X113347000Y-68523000D01*
X114471250Y-68523000D01*
X114630000Y-68364250D01*
X114633072Y-68000000D01*
X119766928Y-68000000D01*
X119770000Y-68364250D01*
X119928750Y-68523000D01*
X121053000Y-68523000D01*
X121053000Y-67523750D01*
X121307000Y-67523750D01*
X121307000Y-68523000D01*
X122431250Y-68523000D01*
X122590000Y-68364250D01*
X122593072Y-68000000D01*
X122580812Y-67875518D01*
X122544502Y-67755820D01*
X122485537Y-67645506D01*
X122406185Y-67548815D01*
X122309494Y-67469463D01*
X122199180Y-67410498D01*
X122079482Y-67374188D01*
X121955000Y-67361928D01*
X121465750Y-67365000D01*
X121307000Y-67523750D01*
X121053000Y-67523750D01*
X120894250Y-67365000D01*
X120405000Y-67361928D01*
X120280518Y-67374188D01*
X120160820Y-67410498D01*
X120050506Y-67469463D01*
X119953815Y-67548815D01*
X119874463Y-67645506D01*
X119815498Y-67755820D01*
X119779188Y-67875518D01*
X119766928Y-68000000D01*
X114633072Y-68000000D01*
X114620812Y-67875518D01*
X114584502Y-67755820D01*
X114525537Y-67645506D01*
X114446185Y-67548815D01*
X114349494Y-67469463D01*
X114239180Y-67410498D01*
X114119482Y-67374188D01*
X113995000Y-67361928D01*
X113505750Y-67365000D01*
X113347000Y-67523750D01*
X113093000Y-67523750D01*
X112934250Y-67365000D01*
X112445000Y-67361928D01*
X112320518Y-67374188D01*
X112200820Y-67410498D01*
X112090506Y-67469463D01*
X111993815Y-67548815D01*
X111914463Y-67645506D01*
X111855498Y-67755820D01*
X111819188Y-67875518D01*
X111806928Y-68000000D01*
X103888072Y-68000000D01*
X103888072Y-66750000D01*
X103875812Y-66625518D01*
X103839502Y-66505820D01*
X103780537Y-66395506D01*
X103701185Y-66298815D01*
X103604494Y-66219463D01*
X103494180Y-66160498D01*
X103374482Y-66124188D01*
X103250000Y-66111928D01*
X101550000Y-66111928D01*
X101425518Y-66124188D01*
X101305820Y-66160498D01*
X101195506Y-66219463D01*
X101098815Y-66298815D01*
X101019463Y-66395506D01*
X100985000Y-66459981D01*
X100985000Y-63485000D01*
X112135000Y-63485000D01*
X112135001Y-64703647D01*
G36*
X114167000Y-109673000D02*
G01*
X114187000Y-109673000D01*
X114187000Y-109927000D01*
X114167000Y-109927000D01*
X114167000Y-109947000D01*
X113913000Y-109947000D01*
X113913000Y-109927000D01*
X113893000Y-109927000D01*
X113893000Y-109673000D01*
X113913000Y-109673000D01*
X113913000Y-109653000D01*
X114167000Y-109653000D01*
X114167000Y-109673000D01*
G37*
X114167000Y-109673000D02*
X114187000Y-109673000D01*
X114187000Y-109927000D01*
X114167000Y-109927000D01*
X114167000Y-109947000D01*
X113913000Y-109947000D01*
X113913000Y-109927000D01*
X113893000Y-109927000D01*
X113893000Y-109673000D01*
X113913000Y-109673000D01*
X113913000Y-109653000D01*
X114167000Y-109653000D01*
X114167000Y-109673000D01*
G36*
X117872038Y-99377962D02*
G01*
X118006613Y-99488405D01*
X118065001Y-99519614D01*
X118065001Y-99942968D01*
X118061324Y-99980300D01*
X118075998Y-100129285D01*
X118119454Y-100272546D01*
X118190026Y-100404576D01*
X118260545Y-100490503D01*
X118285000Y-100520301D01*
X118313998Y-100544099D01*
X119260900Y-101491002D01*
X119284699Y-101520001D01*
X119400424Y-101614974D01*
X119511928Y-101674575D01*
X119511928Y-101750000D01*
X119524188Y-101874482D01*
X119560498Y-101994180D01*
X119619463Y-102104494D01*
X119698815Y-102201185D01*
X119795506Y-102280537D01*
X119831918Y-102300000D01*
X119795506Y-102319463D01*
X119698815Y-102398815D01*
X119619463Y-102495506D01*
X119560498Y-102605820D01*
X119524188Y-102725518D01*
X119511928Y-102850000D01*
X119515000Y-103334250D01*
X119673750Y-103493000D01*
X121673000Y-103493000D01*
X121673000Y-103473000D01*
X121927000Y-103473000D01*
X121927000Y-103493000D01*
X121947000Y-103493000D01*
X121947000Y-103747000D01*
X121927000Y-103747000D01*
X121927000Y-104866250D01*
X122085750Y-105025000D01*
X123450000Y-105028072D01*
X123574482Y-105015812D01*
X123694180Y-104979502D01*
X123804494Y-104920537D01*
X123901185Y-104841185D01*
X123980537Y-104744494D01*
X124039502Y-104634180D01*
X124075812Y-104514482D01*
X124083498Y-104436447D01*
X124100000Y-104438072D01*
X124396322Y-104435875D01*
X123192197Y-105640000D01*
X113603711Y-105640000D01*
X113559774Y-105596063D01*
X113390256Y-105482795D01*
X113201898Y-105404774D01*
X113001939Y-105365000D01*
X112798061Y-105365000D01*
X112598102Y-105404774D01*
X112409744Y-105482795D01*
X112240226Y-105596063D01*
X112096063Y-105740226D01*
X111982795Y-105909744D01*
X111904774Y-106098102D01*
X111865000Y-106298061D01*
X111865000Y-106501939D01*
X111904774Y-106701898D01*
X111982795Y-106890256D01*
X112096063Y-107059774D01*
X112240226Y-107203937D01*
X112409744Y-107317205D01*
X112598102Y-107395226D01*
X112798061Y-107435000D01*
X113001939Y-107435000D01*
X113201898Y-107395226D01*
X113390256Y-107317205D01*
X113559774Y-107203937D01*
X113603711Y-107160000D01*
X123469676Y-107160000D01*
X123506998Y-107163676D01*
X123544320Y-107160000D01*
X123544331Y-107160000D01*
X123655984Y-107149003D01*
X123799245Y-107105546D01*
X123931274Y-107034974D01*
X124046999Y-106940001D01*
X124070802Y-106910997D01*
X126339802Y-104641998D01*
X126401939Y-104641998D01*
X126540001Y-104614536D01*
X126540001Y-107285198D01*
X126510209Y-107314990D01*
X113902132Y-107314990D01*
X113864809Y-107311314D01*
X113827486Y-107314990D01*
X113827477Y-107314990D01*
X113715824Y-107325987D01*
X113572563Y-107369444D01*
X113440533Y-107440016D01*
X113359945Y-107506154D01*
X113324809Y-107534989D01*
X113301011Y-107563987D01*
X112306854Y-108558145D01*
X112266920Y-108528359D01*
X112004099Y-108403175D01*
X111856890Y-108358524D01*
X111627000Y-108479845D01*
X111627000Y-109673000D01*
X111647000Y-109673000D01*
X111647000Y-109927000D01*
X111627000Y-109927000D01*
X111627000Y-109947000D01*
X111373000Y-109947000D01*
X111373000Y-109927000D01*
X111353000Y-109927000D01*
X111353000Y-109673000D01*
X111373000Y-109673000D01*
X111373000Y-108479845D01*
X111143110Y-108358524D01*
X110995901Y-108403175D01*
X110733080Y-108528359D01*
X110499731Y-108702412D01*
X110304822Y-108918645D01*
X110182163Y-109124562D01*
X109346604Y-108289003D01*
X109322801Y-108259999D01*
X109207076Y-108165026D01*
X109075047Y-108094454D01*
X108931786Y-108050997D01*
X108820133Y-108040000D01*
X108820122Y-108040000D01*
X108782800Y-108036324D01*
X108745478Y-108040000D01*
X108738072Y-108040000D01*
X108738072Y-107449999D01*
X108721008Y-107276745D01*
X108670472Y-107110149D01*
X108588405Y-106956613D01*
X108477962Y-106822038D01*
X108343387Y-106711595D01*
X108189851Y-106629528D01*
X108160000Y-106620473D01*
X108160000Y-106579527D01*
X108189851Y-106570472D01*
X108343387Y-106488405D01*
X108477962Y-106377962D01*
X108588405Y-106243387D01*
X108670472Y-106089851D01*
X108721008Y-105923255D01*
X108738072Y-105750001D01*
X108738072Y-105161729D01*
X109152302Y-104747500D01*
X109214439Y-104747500D01*
X109414398Y-104707726D01*
X109602756Y-104629705D01*
X109772274Y-104516437D01*
X109916437Y-104372274D01*
X110029705Y-104202756D01*
X110075850Y-104091353D01*
X110078992Y-104123255D01*
X110129528Y-104289851D01*
X110211595Y-104443387D01*
X110322038Y-104577962D01*
X110456613Y-104688405D01*
X110610149Y-104770472D01*
X110776745Y-104821008D01*
X110949999Y-104838072D01*
X111850001Y-104838072D01*
X112023255Y-104821008D01*
X112189851Y-104770472D01*
X112225253Y-104751549D01*
X112298815Y-104841185D01*
X112395506Y-104920537D01*
X112505820Y-104979502D01*
X112625518Y-105015812D01*
X112750000Y-105028072D01*
X116050000Y-105028072D01*
X116174482Y-105015812D01*
X116294180Y-104979502D01*
X116404494Y-104920537D01*
X116501185Y-104841185D01*
X116580537Y-104744494D01*
X116639502Y-104634180D01*
X116675812Y-104514482D01*
X116688072Y-104390000D01*
X119511928Y-104390000D01*
X119524188Y-104514482D01*
X119560498Y-104634180D01*
X119619463Y-104744494D01*
X119698815Y-104841185D01*
X119795506Y-104920537D01*
X119905820Y-104979502D01*
X120025518Y-105015812D01*
X120150000Y-105028072D01*
X121514250Y-105025000D01*
X121673000Y-104866250D01*
X121673000Y-103747000D01*
X119673750Y-103747000D01*
X119515000Y-103905750D01*
X119511928Y-104390000D01*
X116688072Y-104390000D01*
X116688072Y-104314575D01*
X116799576Y-104254974D01*
X116915301Y-104160001D01*
X116939104Y-104130997D01*
X117285997Y-103784104D01*
X117315001Y-103760301D01*
X117409974Y-103644576D01*
X117480546Y-103512547D01*
X117524003Y-103369286D01*
X117535000Y-103257633D01*
X117535000Y-103257624D01*
X117538676Y-103220301D01*
X117535000Y-103182978D01*
X117535000Y-99519614D01*
X117593387Y-99488405D01*
X117727962Y-99377962D01*
X117800000Y-99290184D01*
X117872038Y-99377962D01*
G37*
X117872038Y-99377962D02*
X118006613Y-99488405D01*
X118065001Y-99519614D01*
X118065001Y-99942968D01*
X118061324Y-99980300D01*
X118075998Y-100129285D01*
X118119454Y-100272546D01*
X118190026Y-100404576D01*
X118260545Y-100490503D01*
X118285000Y-100520301D01*
X118313998Y-100544099D01*
X119260900Y-101491002D01*
X119284699Y-101520001D01*
X119400424Y-101614974D01*
X119511928Y-101674575D01*
X119511928Y-101750000D01*
X119524188Y-101874482D01*
X119560498Y-101994180D01*
X119619463Y-102104494D01*
X119698815Y-102201185D01*
X119795506Y-102280537D01*
X119831918Y-102300000D01*
X119795506Y-102319463D01*
X119698815Y-102398815D01*
X119619463Y-102495506D01*
X119560498Y-102605820D01*
X119524188Y-102725518D01*
X119511928Y-102850000D01*
X119515000Y-103334250D01*
X119673750Y-103493000D01*
X121673000Y-103493000D01*
X121673000Y-103473000D01*
X121927000Y-103473000D01*
X121927000Y-103493000D01*
X121947000Y-103493000D01*
X121947000Y-103747000D01*
X121927000Y-103747000D01*
X121927000Y-104866250D01*
X122085750Y-105025000D01*
X123450000Y-105028072D01*
X123574482Y-105015812D01*
X123694180Y-104979502D01*
X123804494Y-104920537D01*
X123901185Y-104841185D01*
X123980537Y-104744494D01*
X124039502Y-104634180D01*
X124075812Y-104514482D01*
X124083498Y-104436447D01*
X124100000Y-104438072D01*
X124396322Y-104435875D01*
X123192197Y-105640000D01*
X113603711Y-105640000D01*
X113559774Y-105596063D01*
X113390256Y-105482795D01*
X113201898Y-105404774D01*
X113001939Y-105365000D01*
X112798061Y-105365000D01*
X112598102Y-105404774D01*
X112409744Y-105482795D01*
X112240226Y-105596063D01*
X112096063Y-105740226D01*
X111982795Y-105909744D01*
X111904774Y-106098102D01*
X111865000Y-106298061D01*
X111865000Y-106501939D01*
X111904774Y-106701898D01*
X111982795Y-106890256D01*
X112096063Y-107059774D01*
X112240226Y-107203937D01*
X112409744Y-107317205D01*
X112598102Y-107395226D01*
X112798061Y-107435000D01*
X113001939Y-107435000D01*
X113201898Y-107395226D01*
X113390256Y-107317205D01*
X113559774Y-107203937D01*
X113603711Y-107160000D01*
X123469676Y-107160000D01*
X123506998Y-107163676D01*
X123544320Y-107160000D01*
X123544331Y-107160000D01*
X123655984Y-107149003D01*
X123799245Y-107105546D01*
X123931274Y-107034974D01*
X124046999Y-106940001D01*
X124070802Y-106910997D01*
X126339802Y-104641998D01*
X126401939Y-104641998D01*
X126540001Y-104614536D01*
X126540001Y-107285198D01*
X126510209Y-107314990D01*
X113902132Y-107314990D01*
X113864809Y-107311314D01*
X113827486Y-107314990D01*
X113827477Y-107314990D01*
X113715824Y-107325987D01*
X113572563Y-107369444D01*
X113440533Y-107440016D01*
X113359945Y-107506154D01*
X113324809Y-107534989D01*
X113301011Y-107563987D01*
X112306854Y-108558145D01*
X112266920Y-108528359D01*
X112004099Y-108403175D01*
X111856890Y-108358524D01*
X111627000Y-108479845D01*
X111627000Y-109673000D01*
X111647000Y-109673000D01*
X111647000Y-109927000D01*
X111627000Y-109927000D01*
X111627000Y-109947000D01*
X111373000Y-109947000D01*
X111373000Y-109927000D01*
X111353000Y-109927000D01*
X111353000Y-109673000D01*
X111373000Y-109673000D01*
X111373000Y-108479845D01*
X111143110Y-108358524D01*
X110995901Y-108403175D01*
X110733080Y-108528359D01*
X110499731Y-108702412D01*
X110304822Y-108918645D01*
X110182163Y-109124562D01*
X109346604Y-108289003D01*
X109322801Y-108259999D01*
X109207076Y-108165026D01*
X109075047Y-108094454D01*
X108931786Y-108050997D01*
X108820133Y-108040000D01*
X108820122Y-108040000D01*
X108782800Y-108036324D01*
X108745478Y-108040000D01*
X108738072Y-108040000D01*
X108738072Y-107449999D01*
X108721008Y-107276745D01*
X108670472Y-107110149D01*
X108588405Y-106956613D01*
X108477962Y-106822038D01*
X108343387Y-106711595D01*
X108189851Y-106629528D01*
X108160000Y-106620473D01*
X108160000Y-106579527D01*
X108189851Y-106570472D01*
X108343387Y-106488405D01*
X108477962Y-106377962D01*
X108588405Y-106243387D01*
X108670472Y-106089851D01*
X108721008Y-105923255D01*
X108738072Y-105750001D01*
X108738072Y-105161729D01*
X109152302Y-104747500D01*
X109214439Y-104747500D01*
X109414398Y-104707726D01*
X109602756Y-104629705D01*
X109772274Y-104516437D01*
X109916437Y-104372274D01*
X110029705Y-104202756D01*
X110075850Y-104091353D01*
X110078992Y-104123255D01*
X110129528Y-104289851D01*
X110211595Y-104443387D01*
X110322038Y-104577962D01*
X110456613Y-104688405D01*
X110610149Y-104770472D01*
X110776745Y-104821008D01*
X110949999Y-104838072D01*
X111850001Y-104838072D01*
X112023255Y-104821008D01*
X112189851Y-104770472D01*
X112225253Y-104751549D01*
X112298815Y-104841185D01*
X112395506Y-104920537D01*
X112505820Y-104979502D01*
X112625518Y-105015812D01*
X112750000Y-105028072D01*
X116050000Y-105028072D01*
X116174482Y-105015812D01*
X116294180Y-104979502D01*
X116404494Y-104920537D01*
X116501185Y-104841185D01*
X116580537Y-104744494D01*
X116639502Y-104634180D01*
X116675812Y-104514482D01*
X116688072Y-104390000D01*
X119511928Y-104390000D01*
X119524188Y-104514482D01*
X119560498Y-104634180D01*
X119619463Y-104744494D01*
X119698815Y-104841185D01*
X119795506Y-104920537D01*
X119905820Y-104979502D01*
X120025518Y-105015812D01*
X120150000Y-105028072D01*
X121514250Y-105025000D01*
X121673000Y-104866250D01*
X121673000Y-103747000D01*
X119673750Y-103747000D01*
X119515000Y-103905750D01*
X119511928Y-104390000D01*
X116688072Y-104390000D01*
X116688072Y-104314575D01*
X116799576Y-104254974D01*
X116915301Y-104160001D01*
X116939104Y-104130997D01*
X117285997Y-103784104D01*
X117315001Y-103760301D01*
X117409974Y-103644576D01*
X117480546Y-103512547D01*
X117524003Y-103369286D01*
X117535000Y-103257633D01*
X117535000Y-103257624D01*
X117538676Y-103220301D01*
X117535000Y-103182978D01*
X117535000Y-99519614D01*
X117593387Y-99488405D01*
X117727962Y-99377962D01*
X117800000Y-99290184D01*
X117872038Y-99377962D01*
G36*
X106078992Y-105923255D02*
G01*
X106129528Y-106089851D01*
X106211595Y-106243387D01*
X106322038Y-106377962D01*
X106456613Y-106488405D01*
X106610149Y-106570472D01*
X106640001Y-106579527D01*
X106640000Y-106620473D01*
X106610149Y-106629528D01*
X106456613Y-106711595D01*
X106322038Y-106822038D01*
X106211595Y-106956613D01*
X106129528Y-107110149D01*
X106078992Y-107276745D01*
X106061928Y-107449999D01*
X106061928Y-108040000D01*
X103651451Y-108040000D01*
X103685918Y-107988417D01*
X103827247Y-107945546D01*
X103959276Y-107874974D01*
X104075001Y-107780001D01*
X104098804Y-107750997D01*
X106065324Y-105784478D01*
X106078992Y-105923255D01*
G37*
X106078992Y-105923255D02*
X106129528Y-106089851D01*
X106211595Y-106243387D01*
X106322038Y-106377962D01*
X106456613Y-106488405D01*
X106610149Y-106570472D01*
X106640001Y-106579527D01*
X106640000Y-106620473D01*
X106610149Y-106629528D01*
X106456613Y-106711595D01*
X106322038Y-106822038D01*
X106211595Y-106956613D01*
X106129528Y-107110149D01*
X106078992Y-107276745D01*
X106061928Y-107449999D01*
X106061928Y-108040000D01*
X103651451Y-108040000D01*
X103685918Y-107988417D01*
X103827247Y-107945546D01*
X103959276Y-107874974D01*
X104075001Y-107780001D01*
X104098804Y-107750997D01*
X106065324Y-105784478D01*
X106078992Y-105923255D01*
G36*
X110211595Y-96956613D02*
G01*
X110129528Y-97110149D01*
X110078992Y-97276745D01*
X110061928Y-97449999D01*
X110061928Y-97799270D01*
X106889003Y-100972196D01*
X106859999Y-100995999D01*
X106827992Y-101035000D01*
X106765026Y-101111724D01*
X106753288Y-101133685D01*
X106694454Y-101243754D01*
X106650997Y-101387015D01*
X106640000Y-101498668D01*
X106640000Y-101498678D01*
X106636324Y-101536000D01*
X106640000Y-101573323D01*
X106640000Y-102220473D01*
X106610149Y-102229528D01*
X106456613Y-102311595D01*
X106322038Y-102422038D01*
X106211595Y-102556613D01*
X106129528Y-102710149D01*
X106078992Y-102876745D01*
X106061928Y-103049999D01*
X106061928Y-103638269D01*
X103480153Y-106220046D01*
X103346632Y-106086525D01*
X103172240Y-105970000D01*
X103346632Y-105853475D01*
X103553475Y-105646632D01*
X103715990Y-105403411D01*
X103827932Y-105133158D01*
X103885000Y-104846260D01*
X103885000Y-104553740D01*
X103827932Y-104266842D01*
X103715990Y-103996589D01*
X103553475Y-103753368D01*
X103346632Y-103546525D01*
X103172240Y-103430000D01*
X103346632Y-103313475D01*
X103553475Y-103106632D01*
X103715990Y-102863411D01*
X103827932Y-102593158D01*
X103885000Y-102306260D01*
X103885000Y-102013740D01*
X103827932Y-101726842D01*
X103715990Y-101456589D01*
X103553475Y-101213368D01*
X103346632Y-101006525D01*
X103172240Y-100890000D01*
X103346632Y-100773475D01*
X103553475Y-100566632D01*
X103678178Y-100380000D01*
X105398978Y-100380000D01*
X105436300Y-100383676D01*
X105473622Y-100380000D01*
X105473633Y-100380000D01*
X105585286Y-100369003D01*
X105728547Y-100325546D01*
X105860576Y-100254974D01*
X105976301Y-100160001D01*
X106000104Y-100130997D01*
X109195803Y-96935300D01*
X110229086Y-96935300D01*
X110211595Y-96956613D01*
G37*
X110211595Y-96956613D02*
X110129528Y-97110149D01*
X110078992Y-97276745D01*
X110061928Y-97449999D01*
X110061928Y-97799270D01*
X106889003Y-100972196D01*
X106859999Y-100995999D01*
X106827992Y-101035000D01*
X106765026Y-101111724D01*
X106753288Y-101133685D01*
X106694454Y-101243754D01*
X106650997Y-101387015D01*
X106640000Y-101498668D01*
X106640000Y-101498678D01*
X106636324Y-101536000D01*
X106640000Y-101573323D01*
X106640000Y-102220473D01*
X106610149Y-102229528D01*
X106456613Y-102311595D01*
X106322038Y-102422038D01*
X106211595Y-102556613D01*
X106129528Y-102710149D01*
X106078992Y-102876745D01*
X106061928Y-103049999D01*
X106061928Y-103638269D01*
X103480153Y-106220046D01*
X103346632Y-106086525D01*
X103172240Y-105970000D01*
X103346632Y-105853475D01*
X103553475Y-105646632D01*
X103715990Y-105403411D01*
X103827932Y-105133158D01*
X103885000Y-104846260D01*
X103885000Y-104553740D01*
X103827932Y-104266842D01*
X103715990Y-103996589D01*
X103553475Y-103753368D01*
X103346632Y-103546525D01*
X103172240Y-103430000D01*
X103346632Y-103313475D01*
X103553475Y-103106632D01*
X103715990Y-102863411D01*
X103827932Y-102593158D01*
X103885000Y-102306260D01*
X103885000Y-102013740D01*
X103827932Y-101726842D01*
X103715990Y-101456589D01*
X103553475Y-101213368D01*
X103346632Y-101006525D01*
X103172240Y-100890000D01*
X103346632Y-100773475D01*
X103553475Y-100566632D01*
X103678178Y-100380000D01*
X105398978Y-100380000D01*
X105436300Y-100383676D01*
X105473622Y-100380000D01*
X105473633Y-100380000D01*
X105585286Y-100369003D01*
X105728547Y-100325546D01*
X105860576Y-100254974D01*
X105976301Y-100160001D01*
X106000104Y-100130997D01*
X109195803Y-96935300D01*
X110229086Y-96935300D01*
X110211595Y-96956613D01*
G36*
X124927000Y-103098000D02*
G01*
X124947000Y-103098000D01*
X124947000Y-103352000D01*
X124927000Y-103352000D01*
X124927000Y-103372000D01*
X124673000Y-103372000D01*
X124673000Y-103352000D01*
X124653000Y-103352000D01*
X124653000Y-103098000D01*
X124673000Y-103098000D01*
X124673000Y-103078000D01*
X124927000Y-103078000D01*
X124927000Y-103098000D01*
G37*
X124927000Y-103098000D02*
X124947000Y-103098000D01*
X124947000Y-103352000D01*
X124927000Y-103352000D01*
X124927000Y-103372000D01*
X124673000Y-103372000D01*
X124673000Y-103352000D01*
X124653000Y-103352000D01*
X124653000Y-103098000D01*
X124673000Y-103098000D01*
X124673000Y-103078000D01*
X124927000Y-103078000D01*
X124927000Y-103098000D01*
G36*
X111527000Y-99698000D02*
G01*
X111547000Y-99698000D01*
X111547000Y-99952000D01*
X111527000Y-99952000D01*
X111527000Y-101448000D01*
X111547000Y-101448000D01*
X111547000Y-101702000D01*
X111527000Y-101702000D01*
X111527000Y-101722000D01*
X111273000Y-101722000D01*
X111273000Y-101702000D01*
X111253000Y-101702000D01*
X111253000Y-101448000D01*
X111273000Y-101448000D01*
X111273000Y-99952000D01*
X111253000Y-99952000D01*
X111253000Y-99698000D01*
X111273000Y-99698000D01*
X111273000Y-99678000D01*
X111527000Y-99678000D01*
X111527000Y-99698000D01*
G37*
X111527000Y-99698000D02*
X111547000Y-99698000D01*
X111547000Y-99952000D01*
X111527000Y-99952000D01*
X111527000Y-101448000D01*
X111547000Y-101448000D01*
X111547000Y-101702000D01*
X111527000Y-101702000D01*
X111527000Y-101722000D01*
X111273000Y-101722000D01*
X111273000Y-101702000D01*
X111253000Y-101702000D01*
X111253000Y-101448000D01*
X111273000Y-101448000D01*
X111273000Y-99952000D01*
X111253000Y-99952000D01*
X111253000Y-99698000D01*
X111273000Y-99698000D01*
X111273000Y-99678000D01*
X111527000Y-99678000D01*
X111527000Y-99698000D01*
G36*
X115103126Y-97311837D02*
G01*
X115272644Y-97425105D01*
X115461002Y-97503126D01*
X115621947Y-97535140D01*
X115578992Y-97676745D01*
X115561928Y-97849999D01*
X115561928Y-98750001D01*
X115578992Y-98923255D01*
X115629528Y-99089851D01*
X115711595Y-99243387D01*
X115822038Y-99377962D01*
X115956613Y-99488405D01*
X116015000Y-99519614D01*
X116015000Y-99572007D01*
X114685750Y-99575000D01*
X114527000Y-99733750D01*
X114527000Y-100853000D01*
X114547000Y-100853000D01*
X114547000Y-101107000D01*
X114527000Y-101107000D01*
X114527000Y-101127000D01*
X114273000Y-101127000D01*
X114273000Y-101107000D01*
X114253000Y-101107000D01*
X114253000Y-100853000D01*
X114273000Y-100853000D01*
X114273000Y-99733750D01*
X114114250Y-99575000D01*
X112750000Y-99571928D01*
X112697113Y-99577137D01*
X112735000Y-99539250D01*
X112735746Y-99469046D01*
X112799676Y-99434874D01*
X112915401Y-99339901D01*
X112939204Y-99310897D01*
X115020695Y-97229406D01*
X115103126Y-97311837D01*
G37*
X115103126Y-97311837D02*
X115272644Y-97425105D01*
X115461002Y-97503126D01*
X115621947Y-97535140D01*
X115578992Y-97676745D01*
X115561928Y-97849999D01*
X115561928Y-98750001D01*
X115578992Y-98923255D01*
X115629528Y-99089851D01*
X115711595Y-99243387D01*
X115822038Y-99377962D01*
X115956613Y-99488405D01*
X116015000Y-99519614D01*
X116015000Y-99572007D01*
X114685750Y-99575000D01*
X114527000Y-99733750D01*
X114527000Y-100853000D01*
X114547000Y-100853000D01*
X114547000Y-101107000D01*
X114527000Y-101107000D01*
X114527000Y-101127000D01*
X114273000Y-101127000D01*
X114273000Y-101107000D01*
X114253000Y-101107000D01*
X114253000Y-100853000D01*
X114273000Y-100853000D01*
X114273000Y-99733750D01*
X114114250Y-99575000D01*
X112750000Y-99571928D01*
X112697113Y-99577137D01*
X112735000Y-99539250D01*
X112735746Y-99469046D01*
X112799676Y-99434874D01*
X112915401Y-99339901D01*
X112939204Y-99310897D01*
X115020695Y-97229406D01*
X115103126Y-97311837D01*
G36*
X124911928Y-82475000D02*
G01*
X124924188Y-82599482D01*
X124924345Y-82600000D01*
X124924188Y-82600518D01*
X124911928Y-82725000D01*
X124911928Y-83275000D01*
X124924188Y-83399482D01*
X124924345Y-83400000D01*
X124924188Y-83400518D01*
X124911928Y-83525000D01*
X124911928Y-84075000D01*
X124924188Y-84199482D01*
X124924345Y-84200000D01*
X124924188Y-84200518D01*
X124911928Y-84325000D01*
X124911928Y-84875000D01*
X124924188Y-84999482D01*
X124924345Y-85000000D01*
X124924188Y-85000518D01*
X124911928Y-85125000D01*
X124911928Y-85675000D01*
X124924188Y-85799482D01*
X124924345Y-85800000D01*
X124924188Y-85800518D01*
X124911928Y-85925000D01*
X124911928Y-86475000D01*
X124924188Y-86599482D01*
X124924345Y-86600000D01*
X124924188Y-86600518D01*
X124911928Y-86725000D01*
X124911928Y-87275000D01*
X124924188Y-87399482D01*
X124924345Y-87400000D01*
X124924188Y-87400518D01*
X124911928Y-87525000D01*
X124911928Y-88075000D01*
X124924188Y-88199482D01*
X124924345Y-88200000D01*
X124924188Y-88200518D01*
X124911928Y-88325000D01*
X124911928Y-88875000D01*
X124924188Y-88999482D01*
X124924345Y-89000000D01*
X124924188Y-89000518D01*
X124911928Y-89125000D01*
X124911928Y-89675000D01*
X124924188Y-89799482D01*
X124924345Y-89800000D01*
X124924188Y-89800518D01*
X124911928Y-89925000D01*
X124911928Y-90475000D01*
X124924188Y-90599482D01*
X124924345Y-90600000D01*
X124924188Y-90600518D01*
X124911928Y-90725000D01*
X124911928Y-91275000D01*
X124924188Y-91399482D01*
X124924345Y-91400000D01*
X124924188Y-91400518D01*
X124911928Y-91525000D01*
X124911928Y-92075000D01*
X124924188Y-92199482D01*
X124924345Y-92200000D01*
X124924188Y-92200518D01*
X124911928Y-92325000D01*
X124911928Y-92875000D01*
X124924188Y-92999482D01*
X124924345Y-93000000D01*
X124924188Y-93000518D01*
X124911928Y-93125000D01*
X124911928Y-93264700D01*
X122237333Y-93264700D01*
X122200000Y-93261023D01*
X122162667Y-93264700D01*
X122051014Y-93275697D01*
X121907753Y-93319154D01*
X121775724Y-93389726D01*
X121659999Y-93484699D01*
X121565026Y-93600424D01*
X121505425Y-93711928D01*
X121294575Y-93711928D01*
X121234974Y-93600424D01*
X121140001Y-93484699D01*
X121024276Y-93389726D01*
X120892247Y-93319154D01*
X120748986Y-93275697D01*
X120637333Y-93264700D01*
X120600000Y-93261023D01*
X120562667Y-93264700D01*
X112288072Y-93264700D01*
X112288072Y-93125000D01*
X112275812Y-93000518D01*
X112275655Y-93000000D01*
X112275812Y-92999482D01*
X112288072Y-92875000D01*
X112288072Y-92325000D01*
X112275812Y-92200518D01*
X112275655Y-92200000D01*
X112275812Y-92199482D01*
X112288072Y-92075000D01*
X112288072Y-92017760D01*
X112765000Y-92017760D01*
X112765000Y-92182240D01*
X112797089Y-92343560D01*
X112860033Y-92495521D01*
X112951413Y-92632281D01*
X113067719Y-92748587D01*
X113204479Y-92839967D01*
X113356440Y-92902911D01*
X113517760Y-92935000D01*
X113682240Y-92935000D01*
X113843560Y-92902911D01*
X113995521Y-92839967D01*
X114132281Y-92748587D01*
X114248587Y-92632281D01*
X114339967Y-92495521D01*
X114402911Y-92343560D01*
X114435000Y-92182240D01*
X114435000Y-92017760D01*
X114402911Y-91856440D01*
X114339967Y-91704479D01*
X114248587Y-91567719D01*
X114132281Y-91451413D01*
X113995521Y-91360033D01*
X113843560Y-91297089D01*
X113682240Y-91265000D01*
X113517760Y-91265000D01*
X113356440Y-91297089D01*
X113204479Y-91360033D01*
X113067719Y-91451413D01*
X112951413Y-91567719D01*
X112860033Y-91704479D01*
X112797089Y-91856440D01*
X112765000Y-92017760D01*
X112288072Y-92017760D01*
X112288072Y-91525000D01*
X112275812Y-91400518D01*
X112275655Y-91400000D01*
X112275812Y-91399482D01*
X112288072Y-91275000D01*
X112288072Y-90960000D01*
X114834689Y-90960000D01*
X114878626Y-91003937D01*
X115048144Y-91117205D01*
X115236502Y-91195226D01*
X115307130Y-91209275D01*
X115157111Y-91271414D01*
X115003972Y-91373738D01*
X114873738Y-91503972D01*
X114771414Y-91657111D01*
X114700932Y-91827271D01*
X114665000Y-92007911D01*
X114665000Y-92192089D01*
X114700932Y-92372729D01*
X114771414Y-92542889D01*
X114873738Y-92696028D01*
X115003972Y-92826262D01*
X115157111Y-92928586D01*
X115327271Y-92999068D01*
X115507911Y-93035000D01*
X115692089Y-93035000D01*
X115872729Y-92999068D01*
X116042889Y-92928586D01*
X116196028Y-92826262D01*
X116326262Y-92696028D01*
X116428586Y-92542889D01*
X116499068Y-92372729D01*
X116535000Y-92192089D01*
X116535000Y-92017760D01*
X116765000Y-92017760D01*
X116765000Y-92182240D01*
X116797089Y-92343560D01*
X116860033Y-92495521D01*
X116951413Y-92632281D01*
X117067719Y-92748587D01*
X117204479Y-92839967D01*
X117356440Y-92902911D01*
X117517760Y-92935000D01*
X117682240Y-92935000D01*
X117843560Y-92902911D01*
X117995521Y-92839967D01*
X118132281Y-92748587D01*
X118248587Y-92632281D01*
X118339967Y-92495521D01*
X118402911Y-92343560D01*
X118435000Y-92182240D01*
X118435000Y-92017760D01*
X118765000Y-92017760D01*
X118765000Y-92182240D01*
X118797089Y-92343560D01*
X118860033Y-92495521D01*
X118951413Y-92632281D01*
X119067719Y-92748587D01*
X119204479Y-92839967D01*
X119356440Y-92902911D01*
X119517760Y-92935000D01*
X119682240Y-92935000D01*
X119843560Y-92902911D01*
X119995521Y-92839967D01*
X120132281Y-92748587D01*
X120248587Y-92632281D01*
X120339967Y-92495521D01*
X120402911Y-92343560D01*
X120435000Y-92182240D01*
X120435000Y-92017760D01*
X120765000Y-92017760D01*
X120765000Y-92182240D01*
X120797089Y-92343560D01*
X120860033Y-92495521D01*
X120951413Y-92632281D01*
X121067719Y-92748587D01*
X121204479Y-92839967D01*
X121356440Y-92902911D01*
X121517760Y-92935000D01*
X121682240Y-92935000D01*
X121843560Y-92902911D01*
X121995521Y-92839967D01*
X122132281Y-92748587D01*
X122248587Y-92632281D01*
X122339967Y-92495521D01*
X122402911Y-92343560D01*
X122435000Y-92182240D01*
X122435000Y-92017760D01*
X122433041Y-92007911D01*
X122665000Y-92007911D01*
X122665000Y-92192089D01*
X122700932Y-92372729D01*
X122771414Y-92542889D01*
X122873738Y-92696028D01*
X123003972Y-92826262D01*
X123157111Y-92928586D01*
X123327271Y-92999068D01*
X123507911Y-93035000D01*
X123692089Y-93035000D01*
X123872729Y-92999068D01*
X124042889Y-92928586D01*
X124196028Y-92826262D01*
X124326262Y-92696028D01*
X124428586Y-92542889D01*
X124499068Y-92372729D01*
X124535000Y-92192089D01*
X124535000Y-92007911D01*
X124499068Y-91827271D01*
X124428586Y-91657111D01*
X124326262Y-91503972D01*
X124196028Y-91373738D01*
X124042889Y-91271414D01*
X123872729Y-91200932D01*
X123692089Y-91165000D01*
X123507911Y-91165000D01*
X123327271Y-91200932D01*
X123157111Y-91271414D01*
X123003972Y-91373738D01*
X122873738Y-91503972D01*
X122771414Y-91657111D01*
X122700932Y-91827271D01*
X122665000Y-92007911D01*
X122433041Y-92007911D01*
X122402911Y-91856440D01*
X122339967Y-91704479D01*
X122248587Y-91567719D01*
X122132281Y-91451413D01*
X121995521Y-91360033D01*
X121843560Y-91297089D01*
X121682240Y-91265000D01*
X121517760Y-91265000D01*
X121356440Y-91297089D01*
X121204479Y-91360033D01*
X121067719Y-91451413D01*
X120951413Y-91567719D01*
X120860033Y-91704479D01*
X120797089Y-91856440D01*
X120765000Y-92017760D01*
X120435000Y-92017760D01*
X120402911Y-91856440D01*
X120339967Y-91704479D01*
X120248587Y-91567719D01*
X120132281Y-91451413D01*
X119995521Y-91360033D01*
X119843560Y-91297089D01*
X119682240Y-91265000D01*
X119517760Y-91265000D01*
X119356440Y-91297089D01*
X119204479Y-91360033D01*
X119067719Y-91451413D01*
X118951413Y-91567719D01*
X118860033Y-91704479D01*
X118797089Y-91856440D01*
X118765000Y-92017760D01*
X118435000Y-92017760D01*
X118402911Y-91856440D01*
X118339967Y-91704479D01*
X118248587Y-91567719D01*
X118132281Y-91451413D01*
X117995521Y-91360033D01*
X117843560Y-91297089D01*
X117682240Y-91265000D01*
X117517760Y-91265000D01*
X117356440Y-91297089D01*
X117204479Y-91360033D01*
X117067719Y-91451413D01*
X116951413Y-91567719D01*
X116860033Y-91704479D01*
X116797089Y-91856440D01*
X116765000Y-92017760D01*
X116535000Y-92017760D01*
X116535000Y-92007911D01*
X116499068Y-91827271D01*
X116428586Y-91657111D01*
X116326262Y-91503972D01*
X116196028Y-91373738D01*
X116042889Y-91271414D01*
X115872729Y-91200932D01*
X115841513Y-91194723D01*
X116028656Y-91117205D01*
X116198174Y-91003937D01*
X116342337Y-90859774D01*
X116455605Y-90690256D01*
X116533626Y-90501898D01*
X116573400Y-90301939D01*
X116573400Y-90098061D01*
X116533626Y-89898102D01*
X116455605Y-89709744D01*
X116342337Y-89540226D01*
X116198174Y-89396063D01*
X116028656Y-89282795D01*
X115840298Y-89204774D01*
X115640339Y-89165000D01*
X115436461Y-89165000D01*
X115236502Y-89204774D01*
X115048144Y-89282795D01*
X114878626Y-89396063D01*
X114834689Y-89440000D01*
X114348100Y-89440000D01*
X114348100Y-89307961D01*
X114308326Y-89108002D01*
X114230305Y-88919644D01*
X114117037Y-88750126D01*
X113972874Y-88605963D01*
X113904085Y-88560000D01*
X117969978Y-88560000D01*
X118007300Y-88563676D01*
X118044622Y-88560000D01*
X118044633Y-88560000D01*
X118156286Y-88549003D01*
X118299547Y-88505546D01*
X118431576Y-88434974D01*
X118547301Y-88340001D01*
X118571104Y-88310997D01*
X124911928Y-81970174D01*
X124911928Y-82475000D01*
G37*
X124911928Y-82475000D02*
X124924188Y-82599482D01*
X124924345Y-82600000D01*
X124924188Y-82600518D01*
X124911928Y-82725000D01*
X124911928Y-83275000D01*
X124924188Y-83399482D01*
X124924345Y-83400000D01*
X124924188Y-83400518D01*
X124911928Y-83525000D01*
X124911928Y-84075000D01*
X124924188Y-84199482D01*
X124924345Y-84200000D01*
X124924188Y-84200518D01*
X124911928Y-84325000D01*
X124911928Y-84875000D01*
X124924188Y-84999482D01*
X124924345Y-85000000D01*
X124924188Y-85000518D01*
X124911928Y-85125000D01*
X124911928Y-85675000D01*
X124924188Y-85799482D01*
X124924345Y-85800000D01*
X124924188Y-85800518D01*
X124911928Y-85925000D01*
X124911928Y-86475000D01*
X124924188Y-86599482D01*
X124924345Y-86600000D01*
X124924188Y-86600518D01*
X124911928Y-86725000D01*
X124911928Y-87275000D01*
X124924188Y-87399482D01*
X124924345Y-87400000D01*
X124924188Y-87400518D01*
X124911928Y-87525000D01*
X124911928Y-88075000D01*
X124924188Y-88199482D01*
X124924345Y-88200000D01*
X124924188Y-88200518D01*
X124911928Y-88325000D01*
X124911928Y-88875000D01*
X124924188Y-88999482D01*
X124924345Y-89000000D01*
X124924188Y-89000518D01*
X124911928Y-89125000D01*
X124911928Y-89675000D01*
X124924188Y-89799482D01*
X124924345Y-89800000D01*
X124924188Y-89800518D01*
X124911928Y-89925000D01*
X124911928Y-90475000D01*
X124924188Y-90599482D01*
X124924345Y-90600000D01*
X124924188Y-90600518D01*
X124911928Y-90725000D01*
X124911928Y-91275000D01*
X124924188Y-91399482D01*
X124924345Y-91400000D01*
X124924188Y-91400518D01*
X124911928Y-91525000D01*
X124911928Y-92075000D01*
X124924188Y-92199482D01*
X124924345Y-92200000D01*
X124924188Y-92200518D01*
X124911928Y-92325000D01*
X124911928Y-92875000D01*
X124924188Y-92999482D01*
X124924345Y-93000000D01*
X124924188Y-93000518D01*
X124911928Y-93125000D01*
X124911928Y-93264700D01*
X122237333Y-93264700D01*
X122200000Y-93261023D01*
X122162667Y-93264700D01*
X122051014Y-93275697D01*
X121907753Y-93319154D01*
X121775724Y-93389726D01*
X121659999Y-93484699D01*
X121565026Y-93600424D01*
X121505425Y-93711928D01*
X121294575Y-93711928D01*
X121234974Y-93600424D01*
X121140001Y-93484699D01*
X121024276Y-93389726D01*
X120892247Y-93319154D01*
X120748986Y-93275697D01*
X120637333Y-93264700D01*
X120600000Y-93261023D01*
X120562667Y-93264700D01*
X112288072Y-93264700D01*
X112288072Y-93125000D01*
X112275812Y-93000518D01*
X112275655Y-93000000D01*
X112275812Y-92999482D01*
X112288072Y-92875000D01*
X112288072Y-92325000D01*
X112275812Y-92200518D01*
X112275655Y-92200000D01*
X112275812Y-92199482D01*
X112288072Y-92075000D01*
X112288072Y-92017760D01*
X112765000Y-92017760D01*
X112765000Y-92182240D01*
X112797089Y-92343560D01*
X112860033Y-92495521D01*
X112951413Y-92632281D01*
X113067719Y-92748587D01*
X113204479Y-92839967D01*
X113356440Y-92902911D01*
X113517760Y-92935000D01*
X113682240Y-92935000D01*
X113843560Y-92902911D01*
X113995521Y-92839967D01*
X114132281Y-92748587D01*
X114248587Y-92632281D01*
X114339967Y-92495521D01*
X114402911Y-92343560D01*
X114435000Y-92182240D01*
X114435000Y-92017760D01*
X114402911Y-91856440D01*
X114339967Y-91704479D01*
X114248587Y-91567719D01*
X114132281Y-91451413D01*
X113995521Y-91360033D01*
X113843560Y-91297089D01*
X113682240Y-91265000D01*
X113517760Y-91265000D01*
X113356440Y-91297089D01*
X113204479Y-91360033D01*
X113067719Y-91451413D01*
X112951413Y-91567719D01*
X112860033Y-91704479D01*
X112797089Y-91856440D01*
X112765000Y-92017760D01*
X112288072Y-92017760D01*
X112288072Y-91525000D01*
X112275812Y-91400518D01*
X112275655Y-91400000D01*
X112275812Y-91399482D01*
X112288072Y-91275000D01*
X112288072Y-90960000D01*
X114834689Y-90960000D01*
X114878626Y-91003937D01*
X115048144Y-91117205D01*
X115236502Y-91195226D01*
X115307130Y-91209275D01*
X115157111Y-91271414D01*
X115003972Y-91373738D01*
X114873738Y-91503972D01*
X114771414Y-91657111D01*
X114700932Y-91827271D01*
X114665000Y-92007911D01*
X114665000Y-92192089D01*
X114700932Y-92372729D01*
X114771414Y-92542889D01*
X114873738Y-92696028D01*
X115003972Y-92826262D01*
X115157111Y-92928586D01*
X115327271Y-92999068D01*
X115507911Y-93035000D01*
X115692089Y-93035000D01*
X115872729Y-92999068D01*
X116042889Y-92928586D01*
X116196028Y-92826262D01*
X116326262Y-92696028D01*
X116428586Y-92542889D01*
X116499068Y-92372729D01*
X116535000Y-92192089D01*
X116535000Y-92017760D01*
X116765000Y-92017760D01*
X116765000Y-92182240D01*
X116797089Y-92343560D01*
X116860033Y-92495521D01*
X116951413Y-92632281D01*
X117067719Y-92748587D01*
X117204479Y-92839967D01*
X117356440Y-92902911D01*
X117517760Y-92935000D01*
X117682240Y-92935000D01*
X117843560Y-92902911D01*
X117995521Y-92839967D01*
X118132281Y-92748587D01*
X118248587Y-92632281D01*
X118339967Y-92495521D01*
X118402911Y-92343560D01*
X118435000Y-92182240D01*
X118435000Y-92017760D01*
X118765000Y-92017760D01*
X118765000Y-92182240D01*
X118797089Y-92343560D01*
X118860033Y-92495521D01*
X118951413Y-92632281D01*
X119067719Y-92748587D01*
X119204479Y-92839967D01*
X119356440Y-92902911D01*
X119517760Y-92935000D01*
X119682240Y-92935000D01*
X119843560Y-92902911D01*
X119995521Y-92839967D01*
X120132281Y-92748587D01*
X120248587Y-92632281D01*
X120339967Y-92495521D01*
X120402911Y-92343560D01*
X120435000Y-92182240D01*
X120435000Y-92017760D01*
X120765000Y-92017760D01*
X120765000Y-92182240D01*
X120797089Y-92343560D01*
X120860033Y-92495521D01*
X120951413Y-92632281D01*
X121067719Y-92748587D01*
X121204479Y-92839967D01*
X121356440Y-92902911D01*
X121517760Y-92935000D01*
X121682240Y-92935000D01*
X121843560Y-92902911D01*
X121995521Y-92839967D01*
X122132281Y-92748587D01*
X122248587Y-92632281D01*
X122339967Y-92495521D01*
X122402911Y-92343560D01*
X122435000Y-92182240D01*
X122435000Y-92017760D01*
X122433041Y-92007911D01*
X122665000Y-92007911D01*
X122665000Y-92192089D01*
X122700932Y-92372729D01*
X122771414Y-92542889D01*
X122873738Y-92696028D01*
X123003972Y-92826262D01*
X123157111Y-92928586D01*
X123327271Y-92999068D01*
X123507911Y-93035000D01*
X123692089Y-93035000D01*
X123872729Y-92999068D01*
X124042889Y-92928586D01*
X124196028Y-92826262D01*
X124326262Y-92696028D01*
X124428586Y-92542889D01*
X124499068Y-92372729D01*
X124535000Y-92192089D01*
X124535000Y-92007911D01*
X124499068Y-91827271D01*
X124428586Y-91657111D01*
X124326262Y-91503972D01*
X124196028Y-91373738D01*
X124042889Y-91271414D01*
X123872729Y-91200932D01*
X123692089Y-91165000D01*
X123507911Y-91165000D01*
X123327271Y-91200932D01*
X123157111Y-91271414D01*
X123003972Y-91373738D01*
X122873738Y-91503972D01*
X122771414Y-91657111D01*
X122700932Y-91827271D01*
X122665000Y-92007911D01*
X122433041Y-92007911D01*
X122402911Y-91856440D01*
X122339967Y-91704479D01*
X122248587Y-91567719D01*
X122132281Y-91451413D01*
X121995521Y-91360033D01*
X121843560Y-91297089D01*
X121682240Y-91265000D01*
X121517760Y-91265000D01*
X121356440Y-91297089D01*
X121204479Y-91360033D01*
X121067719Y-91451413D01*
X120951413Y-91567719D01*
X120860033Y-91704479D01*
X120797089Y-91856440D01*
X120765000Y-92017760D01*
X120435000Y-92017760D01*
X120402911Y-91856440D01*
X120339967Y-91704479D01*
X120248587Y-91567719D01*
X120132281Y-91451413D01*
X119995521Y-91360033D01*
X119843560Y-91297089D01*
X119682240Y-91265000D01*
X119517760Y-91265000D01*
X119356440Y-91297089D01*
X119204479Y-91360033D01*
X119067719Y-91451413D01*
X118951413Y-91567719D01*
X118860033Y-91704479D01*
X118797089Y-91856440D01*
X118765000Y-92017760D01*
X118435000Y-92017760D01*
X118402911Y-91856440D01*
X118339967Y-91704479D01*
X118248587Y-91567719D01*
X118132281Y-91451413D01*
X117995521Y-91360033D01*
X117843560Y-91297089D01*
X117682240Y-91265000D01*
X117517760Y-91265000D01*
X117356440Y-91297089D01*
X117204479Y-91360033D01*
X117067719Y-91451413D01*
X116951413Y-91567719D01*
X116860033Y-91704479D01*
X116797089Y-91856440D01*
X116765000Y-92017760D01*
X116535000Y-92017760D01*
X116535000Y-92007911D01*
X116499068Y-91827271D01*
X116428586Y-91657111D01*
X116326262Y-91503972D01*
X116196028Y-91373738D01*
X116042889Y-91271414D01*
X115872729Y-91200932D01*
X115841513Y-91194723D01*
X116028656Y-91117205D01*
X116198174Y-91003937D01*
X116342337Y-90859774D01*
X116455605Y-90690256D01*
X116533626Y-90501898D01*
X116573400Y-90301939D01*
X116573400Y-90098061D01*
X116533626Y-89898102D01*
X116455605Y-89709744D01*
X116342337Y-89540226D01*
X116198174Y-89396063D01*
X116028656Y-89282795D01*
X115840298Y-89204774D01*
X115640339Y-89165000D01*
X115436461Y-89165000D01*
X115236502Y-89204774D01*
X115048144Y-89282795D01*
X114878626Y-89396063D01*
X114834689Y-89440000D01*
X114348100Y-89440000D01*
X114348100Y-89307961D01*
X114308326Y-89108002D01*
X114230305Y-88919644D01*
X114117037Y-88750126D01*
X113972874Y-88605963D01*
X113904085Y-88560000D01*
X117969978Y-88560000D01*
X118007300Y-88563676D01*
X118044622Y-88560000D01*
X118044633Y-88560000D01*
X118156286Y-88549003D01*
X118299547Y-88505546D01*
X118431576Y-88434974D01*
X118547301Y-88340001D01*
X118571104Y-88310997D01*
X124911928Y-81970174D01*
X124911928Y-82475000D01*
M02*
