M48
; DRILL file {KiCad (5.1.5-0-10_14)} date 2020 November 09, Monday 16:05:44
; FORMAT={-:-/ absolute / inch / decimal}
; #@! TF.CreationDate,2020-11-09T16:05:44+01:00
; #@! TF.GenerationSoftware,Kicad,Pcbnew,(5.1.5-0-10_14)
FMAT,2
INCH
T1C0.0157
T2C0.0236
T3C0.0394
%
G90
G05
T1
X4.0709Y-3.3102
X4.128Y-4.3492
X4.1417Y-4.0039
X4.1575Y-2.8976
X4.1619Y-3.7483
X4.1693Y-4.2165
X4.2194Y-3.2613
X4.2687Y-3.4815
X4.292Y-3.2655
X4.2958Y-4.0832
X4.3087Y-4.1945
X4.3105Y-3.4999
X4.3188Y-3.1746
X4.3307Y-2.5591
X4.3307Y-2.6772
X4.3307Y-2.7953
X4.3307Y-2.9134
X4.3499Y-3.0994
X4.379Y-3.1323
X4.3945Y-4.1945
X4.4094Y-2.5984
X4.4094Y-2.7953
X4.4195Y-3.5197
X4.4449Y-4.189
X4.4611Y-3.5201
X4.4882Y-2.5984
X4.509Y-3.8885
X4.5276Y-2.9528
X4.5488Y-3.5512
X4.5576Y-3.7995
X4.5669Y-2.5984
X4.6063Y-2.7953
X4.6063Y-2.8346
X4.6063Y-2.9528
X4.6457Y-2.5984
X4.6457Y-2.7953
X4.6575Y-3.0039
X4.6575Y-3.0827
X4.6614Y-4.0709
X4.685Y-2.9528
X4.685Y-3.7973
X4.7165Y-3.8285
X4.7244Y-2.5984
X4.7254Y-3.8737
X4.8031Y-2.5591
X4.8031Y-2.7953
X4.8031Y-3.5433
X4.8319Y-3.3358
X4.8484Y-3.8618
X4.878Y-3.8031
X4.8819Y-2.5591
X4.8819Y-2.6772
X4.8819Y-2.7953
X4.8819Y-2.9134
X4.9454Y-3.7376
X4.9606Y-4.2008
X4.9724Y-3.8937
X4.9724Y-4.079
X4.9882Y-3.8268
X5.0941Y-4.3531
X5.1677Y-3.9921
X5.1677Y-4.0496
X5.2185Y-4.3539
X4.4724Y-3.626
X4.6299Y-3.626
X4.7087Y-3.626
X4.7874Y-3.626
T2
X4.5512Y-3.626
X4.8661Y-3.626
T3
X4.0315Y-2.6614
X4.0315Y-3.622
X4.0315Y-3.722
X4.0315Y-3.822
X4.0315Y-3.922
X4.0315Y-4.022
X4.0315Y-4.122
X4.0315Y-4.222
X4.0315Y-4.322
X5.189Y-2.7646
X5.189Y-2.8646
X5.189Y-2.9646
X5.189Y-3.0646
X5.189Y-3.1646
X5.189Y-3.2646
X5.189Y-3.3646
X5.189Y-3.4646
X4.0315Y-2.7638
X4.0315Y-2.8638
X4.0315Y-2.9638
X4.0315Y-3.0638
X4.0315Y-3.1638
X4.0315Y-3.2638
X4.0315Y-3.3638
X4.0315Y-3.4638
X4.3898Y-4.3228
X4.4898Y-4.3228
X4.5898Y-4.3228
X4.6898Y-4.3228
X4.7898Y-4.3228
X4.8898Y-4.3228
T0
M30
