G04 #@! TF.GenerationSoftware,KiCad,Pcbnew,(5.1.5-0-10_14)*
G04 #@! TF.CreationDate,2020-11-09T16:05:27+01:00*
G04 #@! TF.ProjectId,ATmega128_CC1101_Board,41546d65-6761-4313-9238-5f4343313130,rev?*
G04 #@! TF.SameCoordinates,Original*
G04 #@! TF.FileFunction,Soldermask,Top*
G04 #@! TF.FilePolarity,Negative*
%FSLAX46Y46*%
G04 Gerber Fmt 4.6, Leading zero omitted, Abs format (unit mm)*
G04 Created by KiCad (PCBNEW (5.1.5-0-10_14)) date 2020-11-09 16:05:27*
%MOMM*%
%LPD*%
G04 APERTURE LIST*
%ADD10C,0.100000*%
G04 APERTURE END LIST*
D10*
G36*
X125101000Y-110701000D02*
G01*
X123299000Y-110701000D01*
X123299000Y-108899000D01*
X125101000Y-108899000D01*
X125101000Y-110701000D01*
G37*
G36*
X121773512Y-108903927D02*
G01*
X121922812Y-108933624D01*
X122086784Y-109001544D01*
X122234354Y-109100147D01*
X122359853Y-109225646D01*
X122458456Y-109373216D01*
X122526376Y-109537188D01*
X122561000Y-109711259D01*
X122561000Y-109888741D01*
X122526376Y-110062812D01*
X122458456Y-110226784D01*
X122359853Y-110374354D01*
X122234354Y-110499853D01*
X122086784Y-110598456D01*
X121922812Y-110666376D01*
X121773512Y-110696073D01*
X121748742Y-110701000D01*
X121571258Y-110701000D01*
X121546488Y-110696073D01*
X121397188Y-110666376D01*
X121233216Y-110598456D01*
X121085646Y-110499853D01*
X120960147Y-110374354D01*
X120861544Y-110226784D01*
X120793624Y-110062812D01*
X120759000Y-109888741D01*
X120759000Y-109711259D01*
X120793624Y-109537188D01*
X120861544Y-109373216D01*
X120960147Y-109225646D01*
X121085646Y-109100147D01*
X121233216Y-109001544D01*
X121397188Y-108933624D01*
X121546488Y-108903927D01*
X121571258Y-108899000D01*
X121748742Y-108899000D01*
X121773512Y-108903927D01*
G37*
G36*
X119233512Y-108903927D02*
G01*
X119382812Y-108933624D01*
X119546784Y-109001544D01*
X119694354Y-109100147D01*
X119819853Y-109225646D01*
X119918456Y-109373216D01*
X119986376Y-109537188D01*
X120021000Y-109711259D01*
X120021000Y-109888741D01*
X119986376Y-110062812D01*
X119918456Y-110226784D01*
X119819853Y-110374354D01*
X119694354Y-110499853D01*
X119546784Y-110598456D01*
X119382812Y-110666376D01*
X119233512Y-110696073D01*
X119208742Y-110701000D01*
X119031258Y-110701000D01*
X119006488Y-110696073D01*
X118857188Y-110666376D01*
X118693216Y-110598456D01*
X118545646Y-110499853D01*
X118420147Y-110374354D01*
X118321544Y-110226784D01*
X118253624Y-110062812D01*
X118219000Y-109888741D01*
X118219000Y-109711259D01*
X118253624Y-109537188D01*
X118321544Y-109373216D01*
X118420147Y-109225646D01*
X118545646Y-109100147D01*
X118693216Y-109001544D01*
X118857188Y-108933624D01*
X119006488Y-108903927D01*
X119031258Y-108899000D01*
X119208742Y-108899000D01*
X119233512Y-108903927D01*
G37*
G36*
X116693512Y-108903927D02*
G01*
X116842812Y-108933624D01*
X117006784Y-109001544D01*
X117154354Y-109100147D01*
X117279853Y-109225646D01*
X117378456Y-109373216D01*
X117446376Y-109537188D01*
X117481000Y-109711259D01*
X117481000Y-109888741D01*
X117446376Y-110062812D01*
X117378456Y-110226784D01*
X117279853Y-110374354D01*
X117154354Y-110499853D01*
X117006784Y-110598456D01*
X116842812Y-110666376D01*
X116693512Y-110696073D01*
X116668742Y-110701000D01*
X116491258Y-110701000D01*
X116466488Y-110696073D01*
X116317188Y-110666376D01*
X116153216Y-110598456D01*
X116005646Y-110499853D01*
X115880147Y-110374354D01*
X115781544Y-110226784D01*
X115713624Y-110062812D01*
X115679000Y-109888741D01*
X115679000Y-109711259D01*
X115713624Y-109537188D01*
X115781544Y-109373216D01*
X115880147Y-109225646D01*
X116005646Y-109100147D01*
X116153216Y-109001544D01*
X116317188Y-108933624D01*
X116466488Y-108903927D01*
X116491258Y-108899000D01*
X116668742Y-108899000D01*
X116693512Y-108903927D01*
G37*
G36*
X114153512Y-108903927D02*
G01*
X114302812Y-108933624D01*
X114466784Y-109001544D01*
X114614354Y-109100147D01*
X114739853Y-109225646D01*
X114838456Y-109373216D01*
X114906376Y-109537188D01*
X114941000Y-109711259D01*
X114941000Y-109888741D01*
X114906376Y-110062812D01*
X114838456Y-110226784D01*
X114739853Y-110374354D01*
X114614354Y-110499853D01*
X114466784Y-110598456D01*
X114302812Y-110666376D01*
X114153512Y-110696073D01*
X114128742Y-110701000D01*
X113951258Y-110701000D01*
X113926488Y-110696073D01*
X113777188Y-110666376D01*
X113613216Y-110598456D01*
X113465646Y-110499853D01*
X113340147Y-110374354D01*
X113241544Y-110226784D01*
X113173624Y-110062812D01*
X113139000Y-109888741D01*
X113139000Y-109711259D01*
X113173624Y-109537188D01*
X113241544Y-109373216D01*
X113340147Y-109225646D01*
X113465646Y-109100147D01*
X113613216Y-109001544D01*
X113777188Y-108933624D01*
X113926488Y-108903927D01*
X113951258Y-108899000D01*
X114128742Y-108899000D01*
X114153512Y-108903927D01*
G37*
G36*
X111613512Y-108903927D02*
G01*
X111762812Y-108933624D01*
X111926784Y-109001544D01*
X112074354Y-109100147D01*
X112199853Y-109225646D01*
X112298456Y-109373216D01*
X112366376Y-109537188D01*
X112401000Y-109711259D01*
X112401000Y-109888741D01*
X112366376Y-110062812D01*
X112298456Y-110226784D01*
X112199853Y-110374354D01*
X112074354Y-110499853D01*
X111926784Y-110598456D01*
X111762812Y-110666376D01*
X111613512Y-110696073D01*
X111588742Y-110701000D01*
X111411258Y-110701000D01*
X111386488Y-110696073D01*
X111237188Y-110666376D01*
X111073216Y-110598456D01*
X110925646Y-110499853D01*
X110800147Y-110374354D01*
X110701544Y-110226784D01*
X110633624Y-110062812D01*
X110599000Y-109888741D01*
X110599000Y-109711259D01*
X110633624Y-109537188D01*
X110701544Y-109373216D01*
X110800147Y-109225646D01*
X110925646Y-109100147D01*
X111073216Y-109001544D01*
X111237188Y-108933624D01*
X111386488Y-108903927D01*
X111411258Y-108899000D01*
X111588742Y-108899000D01*
X111613512Y-108903927D01*
G37*
G36*
X102513512Y-108883927D02*
G01*
X102662812Y-108913624D01*
X102826784Y-108981544D01*
X102974354Y-109080147D01*
X103099853Y-109205646D01*
X103198456Y-109353216D01*
X103266376Y-109517188D01*
X103301000Y-109691259D01*
X103301000Y-109868741D01*
X103266376Y-110042812D01*
X103198456Y-110206784D01*
X103099853Y-110354354D01*
X102974354Y-110479853D01*
X102826784Y-110578456D01*
X102662812Y-110646376D01*
X102513512Y-110676073D01*
X102488742Y-110681000D01*
X102311258Y-110681000D01*
X102286488Y-110676073D01*
X102137188Y-110646376D01*
X101973216Y-110578456D01*
X101825646Y-110479853D01*
X101700147Y-110354354D01*
X101601544Y-110206784D01*
X101533624Y-110042812D01*
X101499000Y-109868741D01*
X101499000Y-109691259D01*
X101533624Y-109517188D01*
X101601544Y-109353216D01*
X101700147Y-109205646D01*
X101825646Y-109080147D01*
X101973216Y-108981544D01*
X102137188Y-108913624D01*
X102286488Y-108883927D01*
X102311258Y-108879000D01*
X102488742Y-108879000D01*
X102513512Y-108883927D01*
G37*
G36*
X107988674Y-109203465D02*
G01*
X108026367Y-109214899D01*
X108061103Y-109233466D01*
X108091548Y-109258452D01*
X108116534Y-109288897D01*
X108135101Y-109323633D01*
X108146535Y-109361326D01*
X108151000Y-109406661D01*
X108151000Y-110243339D01*
X108146535Y-110288674D01*
X108135101Y-110326367D01*
X108116534Y-110361103D01*
X108091548Y-110391548D01*
X108061103Y-110416534D01*
X108026367Y-110435101D01*
X107988674Y-110446535D01*
X107943339Y-110451000D01*
X106856661Y-110451000D01*
X106811326Y-110446535D01*
X106773633Y-110435101D01*
X106738897Y-110416534D01*
X106708452Y-110391548D01*
X106683466Y-110361103D01*
X106664899Y-110326367D01*
X106653465Y-110288674D01*
X106649000Y-110243339D01*
X106649000Y-109406661D01*
X106653465Y-109361326D01*
X106664899Y-109323633D01*
X106683466Y-109288897D01*
X106708452Y-109258452D01*
X106738897Y-109233466D01*
X106773633Y-109214899D01*
X106811326Y-109203465D01*
X106856661Y-109199000D01*
X107943339Y-109199000D01*
X107988674Y-109203465D01*
G37*
G36*
X131778048Y-107728122D02*
G01*
X131812387Y-107738539D01*
X131844036Y-107755456D01*
X131871778Y-107778222D01*
X131894544Y-107805964D01*
X131911461Y-107837613D01*
X131921878Y-107871952D01*
X131926000Y-107913807D01*
X131926000Y-109136193D01*
X131921878Y-109178048D01*
X131911461Y-109212387D01*
X131894544Y-109244036D01*
X131871778Y-109271778D01*
X131844036Y-109294544D01*
X131812387Y-109311461D01*
X131778048Y-109321878D01*
X131736193Y-109326000D01*
X129663807Y-109326000D01*
X129621952Y-109321878D01*
X129587613Y-109311461D01*
X129555964Y-109294544D01*
X129528222Y-109271778D01*
X129505456Y-109244036D01*
X129488539Y-109212387D01*
X129478122Y-109178048D01*
X129474000Y-109136193D01*
X129474000Y-107913807D01*
X129478122Y-107871952D01*
X129488539Y-107837613D01*
X129505456Y-107805964D01*
X129528222Y-107778222D01*
X129555964Y-107755456D01*
X129587613Y-107738539D01*
X129621952Y-107728122D01*
X129663807Y-107724000D01*
X131736193Y-107724000D01*
X131778048Y-107728122D01*
G37*
G36*
X107988674Y-107153465D02*
G01*
X108026367Y-107164899D01*
X108061103Y-107183466D01*
X108091548Y-107208452D01*
X108116534Y-107238897D01*
X108135101Y-107273633D01*
X108146535Y-107311326D01*
X108151000Y-107356661D01*
X108151000Y-108193339D01*
X108146535Y-108238674D01*
X108135101Y-108276367D01*
X108116534Y-108311103D01*
X108091548Y-108341548D01*
X108061103Y-108366534D01*
X108026367Y-108385101D01*
X107988674Y-108396535D01*
X107943339Y-108401000D01*
X106856661Y-108401000D01*
X106811326Y-108396535D01*
X106773633Y-108385101D01*
X106738897Y-108366534D01*
X106708452Y-108341548D01*
X106683466Y-108311103D01*
X106664899Y-108276367D01*
X106653465Y-108238674D01*
X106649000Y-108193339D01*
X106649000Y-107356661D01*
X106653465Y-107311326D01*
X106664899Y-107273633D01*
X106683466Y-107238897D01*
X106708452Y-107208452D01*
X106738897Y-107183466D01*
X106773633Y-107164899D01*
X106811326Y-107153465D01*
X106856661Y-107149000D01*
X107943339Y-107149000D01*
X107988674Y-107153465D01*
G37*
G36*
X102513512Y-106343927D02*
G01*
X102662812Y-106373624D01*
X102826784Y-106441544D01*
X102974354Y-106540147D01*
X103099853Y-106665646D01*
X103198456Y-106813216D01*
X103266376Y-106977188D01*
X103301000Y-107151259D01*
X103301000Y-107328741D01*
X103266376Y-107502812D01*
X103198456Y-107666784D01*
X103099853Y-107814354D01*
X102974354Y-107939853D01*
X102826784Y-108038456D01*
X102662812Y-108106376D01*
X102513512Y-108136073D01*
X102488742Y-108141000D01*
X102311258Y-108141000D01*
X102286488Y-108136073D01*
X102137188Y-108106376D01*
X101973216Y-108038456D01*
X101825646Y-107939853D01*
X101700147Y-107814354D01*
X101601544Y-107666784D01*
X101533624Y-107502812D01*
X101499000Y-107328741D01*
X101499000Y-107151259D01*
X101533624Y-106977188D01*
X101601544Y-106813216D01*
X101700147Y-106665646D01*
X101825646Y-106540147D01*
X101973216Y-106441544D01*
X102137188Y-106373624D01*
X102286488Y-106343927D01*
X102311258Y-106339000D01*
X102488742Y-106339000D01*
X102513512Y-106343927D01*
G37*
G36*
X131778048Y-104478122D02*
G01*
X131812387Y-104488539D01*
X131844036Y-104505456D01*
X131871778Y-104528222D01*
X131894544Y-104555964D01*
X131911461Y-104587613D01*
X131921878Y-104621952D01*
X131926000Y-104663807D01*
X131926000Y-105886193D01*
X131921878Y-105928048D01*
X131911461Y-105962387D01*
X131894544Y-105994036D01*
X131871778Y-106021778D01*
X131844036Y-106044544D01*
X131812387Y-106061461D01*
X131778048Y-106071878D01*
X131736193Y-106076000D01*
X129663807Y-106076000D01*
X129621952Y-106071878D01*
X129587613Y-106061461D01*
X129555964Y-106044544D01*
X129528222Y-106021778D01*
X129505456Y-105994036D01*
X129488539Y-105962387D01*
X129478122Y-105928048D01*
X129474000Y-105886193D01*
X129474000Y-104663807D01*
X129478122Y-104621952D01*
X129488539Y-104587613D01*
X129505456Y-104555964D01*
X129528222Y-104528222D01*
X129555964Y-104505456D01*
X129587613Y-104488539D01*
X129621952Y-104478122D01*
X129663807Y-104474000D01*
X131736193Y-104474000D01*
X131778048Y-104478122D01*
G37*
G36*
X107988674Y-104803465D02*
G01*
X108026367Y-104814899D01*
X108061103Y-104833466D01*
X108091548Y-104858452D01*
X108116534Y-104888897D01*
X108135101Y-104923633D01*
X108146535Y-104961326D01*
X108151000Y-105006661D01*
X108151000Y-105843339D01*
X108146535Y-105888674D01*
X108135101Y-105926367D01*
X108116534Y-105961103D01*
X108091548Y-105991548D01*
X108061103Y-106016534D01*
X108026367Y-106035101D01*
X107988674Y-106046535D01*
X107943339Y-106051000D01*
X106856661Y-106051000D01*
X106811326Y-106046535D01*
X106773633Y-106035101D01*
X106738897Y-106016534D01*
X106708452Y-105991548D01*
X106683466Y-105961103D01*
X106664899Y-105926367D01*
X106653465Y-105888674D01*
X106649000Y-105843339D01*
X106649000Y-105006661D01*
X106653465Y-104961326D01*
X106664899Y-104923633D01*
X106683466Y-104888897D01*
X106708452Y-104858452D01*
X106738897Y-104833466D01*
X106773633Y-104814899D01*
X106811326Y-104803465D01*
X106856661Y-104799000D01*
X107943339Y-104799000D01*
X107988674Y-104803465D01*
G37*
G36*
X102513512Y-103803927D02*
G01*
X102662812Y-103833624D01*
X102826784Y-103901544D01*
X102974354Y-104000147D01*
X103099853Y-104125646D01*
X103198456Y-104273216D01*
X103266376Y-104437188D01*
X103284483Y-104528222D01*
X103301000Y-104611258D01*
X103301000Y-104788742D01*
X103298071Y-104803465D01*
X103266376Y-104962812D01*
X103198456Y-105126784D01*
X103099853Y-105274354D01*
X102974354Y-105399853D01*
X102826784Y-105498456D01*
X102662812Y-105566376D01*
X102513512Y-105596073D01*
X102488742Y-105601000D01*
X102311258Y-105601000D01*
X102286488Y-105596073D01*
X102137188Y-105566376D01*
X101973216Y-105498456D01*
X101825646Y-105399853D01*
X101700147Y-105274354D01*
X101601544Y-105126784D01*
X101533624Y-104962812D01*
X101501929Y-104803465D01*
X101499000Y-104788742D01*
X101499000Y-104611258D01*
X101515517Y-104528222D01*
X101533624Y-104437188D01*
X101601544Y-104273216D01*
X101700147Y-104125646D01*
X101825646Y-104000147D01*
X101973216Y-103901544D01*
X102137188Y-103833624D01*
X102286488Y-103803927D01*
X102311258Y-103799000D01*
X102488742Y-103799000D01*
X102513512Y-103803927D01*
G37*
G36*
X123501000Y-104441000D02*
G01*
X120099000Y-104441000D01*
X120099000Y-102799000D01*
X123501000Y-102799000D01*
X123501000Y-104441000D01*
G37*
G36*
X116101000Y-104441000D02*
G01*
X112699000Y-104441000D01*
X112699000Y-102799000D01*
X116101000Y-102799000D01*
X116101000Y-104441000D01*
G37*
G36*
X111988674Y-103003465D02*
G01*
X112026367Y-103014899D01*
X112061103Y-103033466D01*
X112091548Y-103058452D01*
X112116534Y-103088897D01*
X112135101Y-103123633D01*
X112146535Y-103161326D01*
X112151000Y-103206661D01*
X112151000Y-104043339D01*
X112146535Y-104088674D01*
X112135101Y-104126367D01*
X112116534Y-104161103D01*
X112091548Y-104191548D01*
X112061103Y-104216534D01*
X112026367Y-104235101D01*
X111988674Y-104246535D01*
X111943339Y-104251000D01*
X110856661Y-104251000D01*
X110811326Y-104246535D01*
X110773633Y-104235101D01*
X110738897Y-104216534D01*
X110708452Y-104191548D01*
X110683466Y-104161103D01*
X110664899Y-104126367D01*
X110653465Y-104088674D01*
X110649000Y-104043339D01*
X110649000Y-103206661D01*
X110653465Y-103161326D01*
X110664899Y-103123633D01*
X110683466Y-103088897D01*
X110708452Y-103058452D01*
X110738897Y-103033466D01*
X110773633Y-103014899D01*
X110811326Y-103003465D01*
X110856661Y-102999000D01*
X111943339Y-102999000D01*
X111988674Y-103003465D01*
G37*
G36*
X107988674Y-102753465D02*
G01*
X108026367Y-102764899D01*
X108061103Y-102783466D01*
X108091548Y-102808452D01*
X108116534Y-102838897D01*
X108135101Y-102873633D01*
X108146535Y-102911326D01*
X108151000Y-102956661D01*
X108151000Y-103793339D01*
X108146535Y-103838674D01*
X108135101Y-103876367D01*
X108116534Y-103911103D01*
X108091548Y-103941548D01*
X108061103Y-103966534D01*
X108026367Y-103985101D01*
X107988674Y-103996535D01*
X107943339Y-104001000D01*
X106856661Y-104001000D01*
X106811326Y-103996535D01*
X106773633Y-103985101D01*
X106738897Y-103966534D01*
X106708452Y-103941548D01*
X106683466Y-103911103D01*
X106664899Y-103876367D01*
X106653465Y-103838674D01*
X106649000Y-103793339D01*
X106649000Y-102956661D01*
X106653465Y-102911326D01*
X106664899Y-102873633D01*
X106683466Y-102838897D01*
X106708452Y-102808452D01*
X106738897Y-102783466D01*
X106773633Y-102764899D01*
X106811326Y-102753465D01*
X106856661Y-102749000D01*
X107943339Y-102749000D01*
X107988674Y-102753465D01*
G37*
G36*
X125388674Y-102603465D02*
G01*
X125426367Y-102614899D01*
X125461103Y-102633466D01*
X125491548Y-102658452D01*
X125516534Y-102688897D01*
X125535101Y-102723633D01*
X125546535Y-102761326D01*
X125551000Y-102806661D01*
X125551000Y-103643339D01*
X125546535Y-103688674D01*
X125535101Y-103726367D01*
X125516534Y-103761103D01*
X125491548Y-103791548D01*
X125461103Y-103816534D01*
X125426367Y-103835101D01*
X125388674Y-103846535D01*
X125343339Y-103851000D01*
X124256661Y-103851000D01*
X124211326Y-103846535D01*
X124173633Y-103835101D01*
X124138897Y-103816534D01*
X124108452Y-103791548D01*
X124083466Y-103761103D01*
X124064899Y-103726367D01*
X124053465Y-103688674D01*
X124049000Y-103643339D01*
X124049000Y-102806661D01*
X124053465Y-102761326D01*
X124064899Y-102723633D01*
X124083466Y-102688897D01*
X124108452Y-102658452D01*
X124138897Y-102633466D01*
X124173633Y-102614899D01*
X124211326Y-102603465D01*
X124256661Y-102599000D01*
X125343339Y-102599000D01*
X125388674Y-102603465D01*
G37*
G36*
X102513512Y-101263927D02*
G01*
X102662812Y-101293624D01*
X102826784Y-101361544D01*
X102974354Y-101460147D01*
X103099853Y-101585646D01*
X103198456Y-101733216D01*
X103266376Y-101897188D01*
X103301000Y-102071259D01*
X103301000Y-102248741D01*
X103266376Y-102422812D01*
X103198456Y-102586784D01*
X103099853Y-102734354D01*
X102974354Y-102859853D01*
X102826784Y-102958456D01*
X102662812Y-103026376D01*
X102513512Y-103056073D01*
X102488742Y-103061000D01*
X102311258Y-103061000D01*
X102286488Y-103056073D01*
X102137188Y-103026376D01*
X101973216Y-102958456D01*
X101825646Y-102859853D01*
X101700147Y-102734354D01*
X101601544Y-102586784D01*
X101533624Y-102422812D01*
X101499000Y-102248741D01*
X101499000Y-102071259D01*
X101533624Y-101897188D01*
X101601544Y-101733216D01*
X101700147Y-101585646D01*
X101825646Y-101460147D01*
X101973216Y-101361544D01*
X102137188Y-101293624D01*
X102286488Y-101263927D01*
X102311258Y-101259000D01*
X102488742Y-101259000D01*
X102513512Y-101263927D01*
G37*
G36*
X111988674Y-100953465D02*
G01*
X112026367Y-100964899D01*
X112061103Y-100983466D01*
X112091548Y-101008452D01*
X112116534Y-101038897D01*
X112135101Y-101073633D01*
X112146535Y-101111326D01*
X112151000Y-101156661D01*
X112151000Y-101993339D01*
X112146535Y-102038674D01*
X112135101Y-102076367D01*
X112116534Y-102111103D01*
X112091548Y-102141548D01*
X112061103Y-102166534D01*
X112026367Y-102185101D01*
X111988674Y-102196535D01*
X111943339Y-102201000D01*
X110856661Y-102201000D01*
X110811326Y-102196535D01*
X110773633Y-102185101D01*
X110738897Y-102166534D01*
X110708452Y-102141548D01*
X110683466Y-102111103D01*
X110664899Y-102076367D01*
X110653465Y-102038674D01*
X110649000Y-101993339D01*
X110649000Y-101156661D01*
X110653465Y-101111326D01*
X110664899Y-101073633D01*
X110683466Y-101038897D01*
X110708452Y-101008452D01*
X110738897Y-100983466D01*
X110773633Y-100964899D01*
X110811326Y-100953465D01*
X110856661Y-100949000D01*
X111943339Y-100949000D01*
X111988674Y-100953465D01*
G37*
G36*
X125388674Y-100553465D02*
G01*
X125426367Y-100564899D01*
X125461103Y-100583466D01*
X125491548Y-100608452D01*
X125516534Y-100638897D01*
X125535101Y-100673633D01*
X125546535Y-100711326D01*
X125551000Y-100756661D01*
X125551000Y-101593339D01*
X125546535Y-101638674D01*
X125535101Y-101676367D01*
X125516534Y-101711103D01*
X125491548Y-101741548D01*
X125461103Y-101766534D01*
X125426367Y-101785101D01*
X125388674Y-101796535D01*
X125343339Y-101801000D01*
X124256661Y-101801000D01*
X124211326Y-101796535D01*
X124173633Y-101785101D01*
X124138897Y-101766534D01*
X124108452Y-101741548D01*
X124083466Y-101711103D01*
X124064899Y-101676367D01*
X124053465Y-101638674D01*
X124049000Y-101593339D01*
X124049000Y-100756661D01*
X124053465Y-100711326D01*
X124064899Y-100673633D01*
X124083466Y-100638897D01*
X124108452Y-100608452D01*
X124138897Y-100583466D01*
X124173633Y-100564899D01*
X124211326Y-100553465D01*
X124256661Y-100549000D01*
X125343339Y-100549000D01*
X125388674Y-100553465D01*
G37*
G36*
X123501000Y-101801000D02*
G01*
X120099000Y-101801000D01*
X120099000Y-100159000D01*
X123501000Y-100159000D01*
X123501000Y-101801000D01*
G37*
G36*
X116101000Y-101801000D02*
G01*
X112699000Y-101801000D01*
X112699000Y-100159000D01*
X116101000Y-100159000D01*
X116101000Y-101801000D01*
G37*
G36*
X102513512Y-98723927D02*
G01*
X102662812Y-98753624D01*
X102826784Y-98821544D01*
X102974354Y-98920147D01*
X103099853Y-99045646D01*
X103198456Y-99193216D01*
X103266376Y-99357188D01*
X103301000Y-99531259D01*
X103301000Y-99708741D01*
X103266376Y-99882812D01*
X103198456Y-100046784D01*
X103099853Y-100194354D01*
X102974354Y-100319853D01*
X102826784Y-100418456D01*
X102662812Y-100486376D01*
X102513512Y-100516073D01*
X102488742Y-100521000D01*
X102311258Y-100521000D01*
X102286488Y-100516073D01*
X102137188Y-100486376D01*
X101973216Y-100418456D01*
X101825646Y-100319853D01*
X101700147Y-100194354D01*
X101601544Y-100046784D01*
X101533624Y-99882812D01*
X101499000Y-99708741D01*
X101499000Y-99531259D01*
X101533624Y-99357188D01*
X101601544Y-99193216D01*
X101700147Y-99045646D01*
X101825646Y-98920147D01*
X101973216Y-98821544D01*
X102137188Y-98753624D01*
X102286488Y-98723927D01*
X102311258Y-98719000D01*
X102488742Y-98719000D01*
X102513512Y-98723927D01*
G37*
G36*
X111988674Y-99203465D02*
G01*
X112026367Y-99214899D01*
X112061103Y-99233466D01*
X112091548Y-99258452D01*
X112116534Y-99288897D01*
X112135101Y-99323633D01*
X112146535Y-99361326D01*
X112151000Y-99406661D01*
X112151000Y-100243339D01*
X112146535Y-100288674D01*
X112135101Y-100326367D01*
X112116534Y-100361103D01*
X112091548Y-100391548D01*
X112061103Y-100416534D01*
X112026367Y-100435101D01*
X111988674Y-100446535D01*
X111943339Y-100451000D01*
X110856661Y-100451000D01*
X110811326Y-100446535D01*
X110773633Y-100435101D01*
X110738897Y-100416534D01*
X110708452Y-100391548D01*
X110683466Y-100361103D01*
X110664899Y-100326367D01*
X110653465Y-100288674D01*
X110649000Y-100243339D01*
X110649000Y-99406661D01*
X110653465Y-99361326D01*
X110664899Y-99323633D01*
X110683466Y-99288897D01*
X110708452Y-99258452D01*
X110738897Y-99233466D01*
X110773633Y-99214899D01*
X110811326Y-99203465D01*
X110856661Y-99199000D01*
X111943339Y-99199000D01*
X111988674Y-99203465D01*
G37*
G36*
X131988674Y-98103465D02*
G01*
X132026367Y-98114899D01*
X132061103Y-98133466D01*
X132091548Y-98158452D01*
X132116534Y-98188897D01*
X132135101Y-98223633D01*
X132146535Y-98261326D01*
X132151000Y-98306661D01*
X132151000Y-99143339D01*
X132146535Y-99188674D01*
X132135101Y-99226367D01*
X132116534Y-99261103D01*
X132091548Y-99291548D01*
X132061103Y-99316534D01*
X132026367Y-99335101D01*
X131988674Y-99346535D01*
X131943339Y-99351000D01*
X130856661Y-99351000D01*
X130811326Y-99346535D01*
X130773633Y-99335101D01*
X130738897Y-99316534D01*
X130708452Y-99291548D01*
X130683466Y-99261103D01*
X130664899Y-99226367D01*
X130653465Y-99188674D01*
X130649000Y-99143339D01*
X130649000Y-98306661D01*
X130653465Y-98261326D01*
X130664899Y-98223633D01*
X130683466Y-98188897D01*
X130708452Y-98158452D01*
X130738897Y-98133466D01*
X130773633Y-98114899D01*
X130811326Y-98103465D01*
X130856661Y-98099000D01*
X131943339Y-98099000D01*
X131988674Y-98103465D01*
G37*
G36*
X117238674Y-97553465D02*
G01*
X117276367Y-97564899D01*
X117311103Y-97583466D01*
X117341548Y-97608452D01*
X117366534Y-97638897D01*
X117385101Y-97673633D01*
X117396535Y-97711326D01*
X117401000Y-97756661D01*
X117401000Y-98843339D01*
X117396535Y-98888674D01*
X117385101Y-98926367D01*
X117366534Y-98961103D01*
X117341548Y-98991548D01*
X117311103Y-99016534D01*
X117276367Y-99035101D01*
X117238674Y-99046535D01*
X117193339Y-99051000D01*
X116356661Y-99051000D01*
X116311326Y-99046535D01*
X116273633Y-99035101D01*
X116238897Y-99016534D01*
X116208452Y-98991548D01*
X116183466Y-98961103D01*
X116164899Y-98926367D01*
X116153465Y-98888674D01*
X116149000Y-98843339D01*
X116149000Y-97756661D01*
X116153465Y-97711326D01*
X116164899Y-97673633D01*
X116183466Y-97638897D01*
X116208452Y-97608452D01*
X116238897Y-97583466D01*
X116273633Y-97564899D01*
X116311326Y-97553465D01*
X116356661Y-97549000D01*
X117193339Y-97549000D01*
X117238674Y-97553465D01*
G37*
G36*
X119288674Y-97553465D02*
G01*
X119326367Y-97564899D01*
X119361103Y-97583466D01*
X119391548Y-97608452D01*
X119416534Y-97638897D01*
X119435101Y-97673633D01*
X119446535Y-97711326D01*
X119451000Y-97756661D01*
X119451000Y-98843339D01*
X119446535Y-98888674D01*
X119435101Y-98926367D01*
X119416534Y-98961103D01*
X119391548Y-98991548D01*
X119361103Y-99016534D01*
X119326367Y-99035101D01*
X119288674Y-99046535D01*
X119243339Y-99051000D01*
X118406661Y-99051000D01*
X118361326Y-99046535D01*
X118323633Y-99035101D01*
X118288897Y-99016534D01*
X118258452Y-98991548D01*
X118233466Y-98961103D01*
X118214899Y-98926367D01*
X118203465Y-98888674D01*
X118199000Y-98843339D01*
X118199000Y-97756661D01*
X118203465Y-97711326D01*
X118214899Y-97673633D01*
X118233466Y-97638897D01*
X118258452Y-97608452D01*
X118288897Y-97583466D01*
X118323633Y-97564899D01*
X118361326Y-97553465D01*
X118406661Y-97549000D01*
X119243339Y-97549000D01*
X119288674Y-97553465D01*
G37*
G36*
X111988674Y-97153465D02*
G01*
X112026367Y-97164899D01*
X112061103Y-97183466D01*
X112091548Y-97208452D01*
X112116534Y-97238897D01*
X112135101Y-97273633D01*
X112146535Y-97311326D01*
X112151000Y-97356661D01*
X112151000Y-98193339D01*
X112146535Y-98238674D01*
X112135101Y-98276367D01*
X112116534Y-98311103D01*
X112091548Y-98341548D01*
X112061103Y-98366534D01*
X112026367Y-98385101D01*
X111988674Y-98396535D01*
X111943339Y-98401000D01*
X110856661Y-98401000D01*
X110811326Y-98396535D01*
X110773633Y-98385101D01*
X110738897Y-98366534D01*
X110708452Y-98341548D01*
X110683466Y-98311103D01*
X110664899Y-98276367D01*
X110653465Y-98238674D01*
X110649000Y-98193339D01*
X110649000Y-97356661D01*
X110653465Y-97311326D01*
X110664899Y-97273633D01*
X110683466Y-97238897D01*
X110708452Y-97208452D01*
X110738897Y-97183466D01*
X110773633Y-97164899D01*
X110811326Y-97153465D01*
X110856661Y-97149000D01*
X111943339Y-97149000D01*
X111988674Y-97153465D01*
G37*
G36*
X102513512Y-96183927D02*
G01*
X102662812Y-96213624D01*
X102826784Y-96281544D01*
X102974354Y-96380147D01*
X103099853Y-96505646D01*
X103198456Y-96653216D01*
X103266376Y-96817188D01*
X103301000Y-96991259D01*
X103301000Y-97168741D01*
X103266376Y-97342812D01*
X103198456Y-97506784D01*
X103099853Y-97654354D01*
X102974354Y-97779853D01*
X102826784Y-97878456D01*
X102662812Y-97946376D01*
X102513512Y-97976073D01*
X102488742Y-97981000D01*
X102311258Y-97981000D01*
X102286488Y-97976073D01*
X102137188Y-97946376D01*
X101973216Y-97878456D01*
X101825646Y-97779853D01*
X101700147Y-97654354D01*
X101601544Y-97506784D01*
X101533624Y-97342812D01*
X101499000Y-97168741D01*
X101499000Y-96991259D01*
X101533624Y-96817188D01*
X101601544Y-96653216D01*
X101700147Y-96505646D01*
X101825646Y-96380147D01*
X101973216Y-96281544D01*
X102137188Y-96213624D01*
X102286488Y-96183927D01*
X102311258Y-96179000D01*
X102488742Y-96179000D01*
X102513512Y-96183927D01*
G37*
G36*
X131988674Y-96053465D02*
G01*
X132026367Y-96064899D01*
X132061103Y-96083466D01*
X132091548Y-96108452D01*
X132116534Y-96138897D01*
X132135101Y-96173633D01*
X132146535Y-96211326D01*
X132151000Y-96256661D01*
X132151000Y-97093339D01*
X132146535Y-97138674D01*
X132135101Y-97176367D01*
X132116534Y-97211103D01*
X132091548Y-97241548D01*
X132061103Y-97266534D01*
X132026367Y-97285101D01*
X131988674Y-97296535D01*
X131943339Y-97301000D01*
X130856661Y-97301000D01*
X130811326Y-97296535D01*
X130773633Y-97285101D01*
X130738897Y-97266534D01*
X130708452Y-97241548D01*
X130683466Y-97211103D01*
X130664899Y-97176367D01*
X130653465Y-97138674D01*
X130649000Y-97093339D01*
X130649000Y-96256661D01*
X130653465Y-96211326D01*
X130664899Y-96173633D01*
X130683466Y-96138897D01*
X130708452Y-96108452D01*
X130738897Y-96083466D01*
X130773633Y-96064899D01*
X130811326Y-96053465D01*
X130856661Y-96049000D01*
X131943339Y-96049000D01*
X131988674Y-96053465D01*
G37*
G36*
X124926000Y-95901000D02*
G01*
X112274000Y-95901000D01*
X112274000Y-94299000D01*
X124926000Y-94299000D01*
X124926000Y-95901000D01*
G37*
G36*
X102513512Y-93643927D02*
G01*
X102662812Y-93673624D01*
X102826784Y-93741544D01*
X102974354Y-93840147D01*
X103099853Y-93965646D01*
X103198456Y-94113216D01*
X103266376Y-94277188D01*
X103301000Y-94451259D01*
X103301000Y-94628741D01*
X103266376Y-94802812D01*
X103198456Y-94966784D01*
X103099853Y-95114354D01*
X102974354Y-95239853D01*
X102826784Y-95338456D01*
X102662812Y-95406376D01*
X102513512Y-95436073D01*
X102488742Y-95441000D01*
X102311258Y-95441000D01*
X102286488Y-95436073D01*
X102137188Y-95406376D01*
X101973216Y-95338456D01*
X101825646Y-95239853D01*
X101700147Y-95114354D01*
X101601544Y-94966784D01*
X101533624Y-94802812D01*
X101499000Y-94628741D01*
X101499000Y-94451259D01*
X101533624Y-94277188D01*
X101601544Y-94113216D01*
X101700147Y-93965646D01*
X101825646Y-93840147D01*
X101973216Y-93741544D01*
X102137188Y-93673624D01*
X102286488Y-93643927D01*
X102311258Y-93639000D01*
X102488742Y-93639000D01*
X102513512Y-93643927D01*
G37*
G36*
X131968674Y-94003465D02*
G01*
X132006367Y-94014899D01*
X132041103Y-94033466D01*
X132071548Y-94058452D01*
X132096534Y-94088897D01*
X132115101Y-94123633D01*
X132126535Y-94161326D01*
X132131000Y-94206661D01*
X132131000Y-95043339D01*
X132126535Y-95088674D01*
X132115101Y-95126367D01*
X132096534Y-95161103D01*
X132071548Y-95191548D01*
X132041103Y-95216534D01*
X132006367Y-95235101D01*
X131968674Y-95246535D01*
X131923339Y-95251000D01*
X130836661Y-95251000D01*
X130791326Y-95246535D01*
X130753633Y-95235101D01*
X130718897Y-95216534D01*
X130688452Y-95191548D01*
X130663466Y-95161103D01*
X130644899Y-95126367D01*
X130633465Y-95088674D01*
X130629000Y-95043339D01*
X130629000Y-94206661D01*
X130633465Y-94161326D01*
X130644899Y-94123633D01*
X130663466Y-94088897D01*
X130688452Y-94058452D01*
X130718897Y-94033466D01*
X130753633Y-94014899D01*
X130791326Y-94003465D01*
X130836661Y-93999000D01*
X131923339Y-93999000D01*
X131968674Y-94003465D01*
G37*
G36*
X127101000Y-93726000D02*
G01*
X125499000Y-93726000D01*
X125499000Y-81074000D01*
X127101000Y-81074000D01*
X127101000Y-93726000D01*
G37*
G36*
X111701000Y-93726000D02*
G01*
X110099000Y-93726000D01*
X110099000Y-81074000D01*
X111701000Y-81074000D01*
X111701000Y-93726000D01*
G37*
G36*
X131968674Y-91953465D02*
G01*
X132006367Y-91964899D01*
X132041103Y-91983466D01*
X132071548Y-92008452D01*
X132096534Y-92038897D01*
X132115101Y-92073633D01*
X132126535Y-92111326D01*
X132131000Y-92156661D01*
X132131000Y-92993339D01*
X132126535Y-93038674D01*
X132115101Y-93076367D01*
X132096534Y-93111103D01*
X132071548Y-93141548D01*
X132041103Y-93166534D01*
X132006367Y-93185101D01*
X131968674Y-93196535D01*
X131923339Y-93201000D01*
X130836661Y-93201000D01*
X130791326Y-93196535D01*
X130753633Y-93185101D01*
X130718897Y-93166534D01*
X130688452Y-93141548D01*
X130663466Y-93111103D01*
X130644899Y-93076367D01*
X130633465Y-93038674D01*
X130629000Y-92993339D01*
X130629000Y-92156661D01*
X130633465Y-92111326D01*
X130644899Y-92073633D01*
X130663466Y-92038897D01*
X130688452Y-92008452D01*
X130718897Y-91983466D01*
X130753633Y-91964899D01*
X130791326Y-91953465D01*
X130836661Y-91949000D01*
X131923339Y-91949000D01*
X131968674Y-91953465D01*
G37*
G36*
X102513512Y-91103927D02*
G01*
X102662812Y-91133624D01*
X102826784Y-91201544D01*
X102974354Y-91300147D01*
X103099853Y-91425646D01*
X103198456Y-91573216D01*
X103266376Y-91737188D01*
X103301000Y-91911259D01*
X103301000Y-92088741D01*
X103266376Y-92262812D01*
X103198456Y-92426784D01*
X103099853Y-92574354D01*
X102974354Y-92699853D01*
X102826784Y-92798456D01*
X102662812Y-92866376D01*
X102513512Y-92896073D01*
X102488742Y-92901000D01*
X102311258Y-92901000D01*
X102286488Y-92896073D01*
X102137188Y-92866376D01*
X101973216Y-92798456D01*
X101825646Y-92699853D01*
X101700147Y-92574354D01*
X101601544Y-92426784D01*
X101533624Y-92262812D01*
X101499000Y-92088741D01*
X101499000Y-91911259D01*
X101533624Y-91737188D01*
X101601544Y-91573216D01*
X101700147Y-91425646D01*
X101825646Y-91300147D01*
X101973216Y-91201544D01*
X102137188Y-91133624D01*
X102286488Y-91103927D01*
X102311258Y-91099000D01*
X102488742Y-91099000D01*
X102513512Y-91103927D01*
G37*
G36*
X131913512Y-87103927D02*
G01*
X132062812Y-87133624D01*
X132226784Y-87201544D01*
X132374354Y-87300147D01*
X132499853Y-87425646D01*
X132598456Y-87573216D01*
X132666376Y-87737188D01*
X132701000Y-87911259D01*
X132701000Y-88088741D01*
X132666376Y-88262812D01*
X132598456Y-88426784D01*
X132499853Y-88574354D01*
X132374354Y-88699853D01*
X132226784Y-88798456D01*
X132062812Y-88866376D01*
X131913512Y-88896073D01*
X131888742Y-88901000D01*
X131711258Y-88901000D01*
X131686488Y-88896073D01*
X131537188Y-88866376D01*
X131373216Y-88798456D01*
X131225646Y-88699853D01*
X131100147Y-88574354D01*
X131001544Y-88426784D01*
X130933624Y-88262812D01*
X130899000Y-88088741D01*
X130899000Y-87911259D01*
X130933624Y-87737188D01*
X131001544Y-87573216D01*
X131100147Y-87425646D01*
X131225646Y-87300147D01*
X131373216Y-87201544D01*
X131537188Y-87133624D01*
X131686488Y-87103927D01*
X131711258Y-87099000D01*
X131888742Y-87099000D01*
X131913512Y-87103927D01*
G37*
G36*
X102513512Y-87083927D02*
G01*
X102662812Y-87113624D01*
X102826784Y-87181544D01*
X102974354Y-87280147D01*
X103099853Y-87405646D01*
X103198456Y-87553216D01*
X103266376Y-87717188D01*
X103301000Y-87891259D01*
X103301000Y-88068741D01*
X103266376Y-88242812D01*
X103198456Y-88406784D01*
X103099853Y-88554354D01*
X102974354Y-88679853D01*
X102826784Y-88778456D01*
X102662812Y-88846376D01*
X102513512Y-88876073D01*
X102488742Y-88881000D01*
X102311258Y-88881000D01*
X102286488Y-88876073D01*
X102137188Y-88846376D01*
X101973216Y-88778456D01*
X101825646Y-88679853D01*
X101700147Y-88554354D01*
X101601544Y-88406784D01*
X101533624Y-88242812D01*
X101499000Y-88068741D01*
X101499000Y-87891259D01*
X101533624Y-87717188D01*
X101601544Y-87553216D01*
X101700147Y-87405646D01*
X101825646Y-87280147D01*
X101973216Y-87181544D01*
X102137188Y-87113624D01*
X102286488Y-87083927D01*
X102311258Y-87079000D01*
X102488742Y-87079000D01*
X102513512Y-87083927D01*
G37*
G36*
X131913512Y-84563927D02*
G01*
X132062812Y-84593624D01*
X132226784Y-84661544D01*
X132374354Y-84760147D01*
X132499853Y-84885646D01*
X132598456Y-85033216D01*
X132666376Y-85197188D01*
X132701000Y-85371259D01*
X132701000Y-85548741D01*
X132666376Y-85722812D01*
X132598456Y-85886784D01*
X132499853Y-86034354D01*
X132374354Y-86159853D01*
X132226784Y-86258456D01*
X132062812Y-86326376D01*
X131913512Y-86356073D01*
X131888742Y-86361000D01*
X131711258Y-86361000D01*
X131686488Y-86356073D01*
X131537188Y-86326376D01*
X131373216Y-86258456D01*
X131225646Y-86159853D01*
X131100147Y-86034354D01*
X131001544Y-85886784D01*
X130933624Y-85722812D01*
X130899000Y-85548741D01*
X130899000Y-85371259D01*
X130933624Y-85197188D01*
X131001544Y-85033216D01*
X131100147Y-84885646D01*
X131225646Y-84760147D01*
X131373216Y-84661544D01*
X131537188Y-84593624D01*
X131686488Y-84563927D01*
X131711258Y-84559000D01*
X131888742Y-84559000D01*
X131913512Y-84563927D01*
G37*
G36*
X102513512Y-84543927D02*
G01*
X102662812Y-84573624D01*
X102826784Y-84641544D01*
X102974354Y-84740147D01*
X103099853Y-84865646D01*
X103198456Y-85013216D01*
X103266376Y-85177188D01*
X103301000Y-85351259D01*
X103301000Y-85528741D01*
X103266376Y-85702812D01*
X103198456Y-85866784D01*
X103099853Y-86014354D01*
X102974354Y-86139853D01*
X102826784Y-86238456D01*
X102662812Y-86306376D01*
X102513512Y-86336073D01*
X102488742Y-86341000D01*
X102311258Y-86341000D01*
X102286488Y-86336073D01*
X102137188Y-86306376D01*
X101973216Y-86238456D01*
X101825646Y-86139853D01*
X101700147Y-86014354D01*
X101601544Y-85866784D01*
X101533624Y-85702812D01*
X101499000Y-85528741D01*
X101499000Y-85351259D01*
X101533624Y-85177188D01*
X101601544Y-85013216D01*
X101700147Y-84865646D01*
X101825646Y-84740147D01*
X101973216Y-84641544D01*
X102137188Y-84573624D01*
X102286488Y-84543927D01*
X102311258Y-84539000D01*
X102488742Y-84539000D01*
X102513512Y-84543927D01*
G37*
G36*
X131913512Y-82023927D02*
G01*
X132062812Y-82053624D01*
X132226784Y-82121544D01*
X132374354Y-82220147D01*
X132499853Y-82345646D01*
X132598456Y-82493216D01*
X132666376Y-82657188D01*
X132701000Y-82831259D01*
X132701000Y-83008741D01*
X132666376Y-83182812D01*
X132598456Y-83346784D01*
X132499853Y-83494354D01*
X132374354Y-83619853D01*
X132226784Y-83718456D01*
X132062812Y-83786376D01*
X131913512Y-83816073D01*
X131888742Y-83821000D01*
X131711258Y-83821000D01*
X131686488Y-83816073D01*
X131537188Y-83786376D01*
X131373216Y-83718456D01*
X131225646Y-83619853D01*
X131100147Y-83494354D01*
X131001544Y-83346784D01*
X130933624Y-83182812D01*
X130899000Y-83008741D01*
X130899000Y-82831259D01*
X130933624Y-82657188D01*
X131001544Y-82493216D01*
X131100147Y-82345646D01*
X131225646Y-82220147D01*
X131373216Y-82121544D01*
X131537188Y-82053624D01*
X131686488Y-82023927D01*
X131711258Y-82019000D01*
X131888742Y-82019000D01*
X131913512Y-82023927D01*
G37*
G36*
X102513512Y-82003927D02*
G01*
X102662812Y-82033624D01*
X102826784Y-82101544D01*
X102974354Y-82200147D01*
X103099853Y-82325646D01*
X103198456Y-82473216D01*
X103266376Y-82637188D01*
X103301000Y-82811259D01*
X103301000Y-82988741D01*
X103266376Y-83162812D01*
X103198456Y-83326784D01*
X103099853Y-83474354D01*
X102974354Y-83599853D01*
X102826784Y-83698456D01*
X102662812Y-83766376D01*
X102513512Y-83796073D01*
X102488742Y-83801000D01*
X102311258Y-83801000D01*
X102286488Y-83796073D01*
X102137188Y-83766376D01*
X101973216Y-83698456D01*
X101825646Y-83599853D01*
X101700147Y-83474354D01*
X101601544Y-83326784D01*
X101533624Y-83162812D01*
X101499000Y-82988741D01*
X101499000Y-82811259D01*
X101533624Y-82637188D01*
X101601544Y-82473216D01*
X101700147Y-82325646D01*
X101825646Y-82200147D01*
X101973216Y-82101544D01*
X102137188Y-82033624D01*
X102286488Y-82003927D01*
X102311258Y-81999000D01*
X102488742Y-81999000D01*
X102513512Y-82003927D01*
G37*
G36*
X108788674Y-81003465D02*
G01*
X108826367Y-81014899D01*
X108861103Y-81033466D01*
X108891548Y-81058452D01*
X108916534Y-81088897D01*
X108935101Y-81123633D01*
X108946535Y-81161326D01*
X108951000Y-81206661D01*
X108951000Y-82043339D01*
X108946535Y-82088674D01*
X108935101Y-82126367D01*
X108916534Y-82161103D01*
X108891548Y-82191548D01*
X108861103Y-82216534D01*
X108826367Y-82235101D01*
X108788674Y-82246535D01*
X108743339Y-82251000D01*
X107656661Y-82251000D01*
X107611326Y-82246535D01*
X107573633Y-82235101D01*
X107538897Y-82216534D01*
X107508452Y-82191548D01*
X107483466Y-82161103D01*
X107464899Y-82126367D01*
X107453465Y-82088674D01*
X107449000Y-82043339D01*
X107449000Y-81206661D01*
X107453465Y-81161326D01*
X107464899Y-81123633D01*
X107483466Y-81088897D01*
X107508452Y-81058452D01*
X107538897Y-81033466D01*
X107573633Y-81014899D01*
X107611326Y-81003465D01*
X107656661Y-80999000D01*
X108743339Y-80999000D01*
X108788674Y-81003465D01*
G37*
G36*
X131913512Y-79483927D02*
G01*
X132062812Y-79513624D01*
X132226784Y-79581544D01*
X132374354Y-79680147D01*
X132499853Y-79805646D01*
X132598456Y-79953216D01*
X132666376Y-80117188D01*
X132701000Y-80291259D01*
X132701000Y-80468741D01*
X132666376Y-80642812D01*
X132598456Y-80806784D01*
X132499853Y-80954354D01*
X132374354Y-81079853D01*
X132226784Y-81178456D01*
X132062812Y-81246376D01*
X131913512Y-81276073D01*
X131888742Y-81281000D01*
X131711258Y-81281000D01*
X131686488Y-81276073D01*
X131537188Y-81246376D01*
X131373216Y-81178456D01*
X131225646Y-81079853D01*
X131100147Y-80954354D01*
X131001544Y-80806784D01*
X130933624Y-80642812D01*
X130899000Y-80468741D01*
X130899000Y-80291259D01*
X130933624Y-80117188D01*
X131001544Y-79953216D01*
X131100147Y-79805646D01*
X131225646Y-79680147D01*
X131373216Y-79581544D01*
X131537188Y-79513624D01*
X131686488Y-79483927D01*
X131711258Y-79479000D01*
X131888742Y-79479000D01*
X131913512Y-79483927D01*
G37*
G36*
X102513512Y-79463927D02*
G01*
X102662812Y-79493624D01*
X102826784Y-79561544D01*
X102974354Y-79660147D01*
X103099853Y-79785646D01*
X103198456Y-79933216D01*
X103266376Y-80097188D01*
X103301000Y-80271259D01*
X103301000Y-80448741D01*
X103266376Y-80622812D01*
X103198456Y-80786784D01*
X103099853Y-80934354D01*
X102974354Y-81059853D01*
X102826784Y-81158456D01*
X102662812Y-81226376D01*
X102513512Y-81256073D01*
X102488742Y-81261000D01*
X102311258Y-81261000D01*
X102286488Y-81256073D01*
X102137188Y-81226376D01*
X101973216Y-81158456D01*
X101825646Y-81059853D01*
X101700147Y-80934354D01*
X101601544Y-80786784D01*
X101533624Y-80622812D01*
X101499000Y-80448741D01*
X101499000Y-80271259D01*
X101533624Y-80097188D01*
X101601544Y-79933216D01*
X101700147Y-79785646D01*
X101825646Y-79660147D01*
X101973216Y-79561544D01*
X102137188Y-79493624D01*
X102286488Y-79463927D01*
X102311258Y-79459000D01*
X102488742Y-79459000D01*
X102513512Y-79463927D01*
G37*
G36*
X124926000Y-80501000D02*
G01*
X112274000Y-80501000D01*
X112274000Y-78899000D01*
X124926000Y-78899000D01*
X124926000Y-80501000D01*
G37*
G36*
X108788674Y-78953465D02*
G01*
X108826367Y-78964899D01*
X108861103Y-78983466D01*
X108891548Y-79008452D01*
X108916534Y-79038897D01*
X108935101Y-79073633D01*
X108946535Y-79111326D01*
X108951000Y-79156661D01*
X108951000Y-79993339D01*
X108946535Y-80038674D01*
X108935101Y-80076367D01*
X108916534Y-80111103D01*
X108891548Y-80141548D01*
X108861103Y-80166534D01*
X108826367Y-80185101D01*
X108788674Y-80196535D01*
X108743339Y-80201000D01*
X107656661Y-80201000D01*
X107611326Y-80196535D01*
X107573633Y-80185101D01*
X107538897Y-80166534D01*
X107508452Y-80141548D01*
X107483466Y-80111103D01*
X107464899Y-80076367D01*
X107453465Y-80038674D01*
X107449000Y-79993339D01*
X107449000Y-79156661D01*
X107453465Y-79111326D01*
X107464899Y-79073633D01*
X107483466Y-79038897D01*
X107508452Y-79008452D01*
X107538897Y-78983466D01*
X107573633Y-78964899D01*
X107611326Y-78953465D01*
X107656661Y-78949000D01*
X108743339Y-78949000D01*
X108788674Y-78953465D01*
G37*
G36*
X131913512Y-76943927D02*
G01*
X132062812Y-76973624D01*
X132226784Y-77041544D01*
X132374354Y-77140147D01*
X132499853Y-77265646D01*
X132598456Y-77413216D01*
X132666376Y-77577188D01*
X132701000Y-77751259D01*
X132701000Y-77928741D01*
X132666376Y-78102812D01*
X132598456Y-78266784D01*
X132499853Y-78414354D01*
X132374354Y-78539853D01*
X132226784Y-78638456D01*
X132062812Y-78706376D01*
X131913512Y-78736073D01*
X131888742Y-78741000D01*
X131711258Y-78741000D01*
X131686488Y-78736073D01*
X131537188Y-78706376D01*
X131373216Y-78638456D01*
X131225646Y-78539853D01*
X131100147Y-78414354D01*
X131001544Y-78266784D01*
X130933624Y-78102812D01*
X130899000Y-77928741D01*
X130899000Y-77751259D01*
X130933624Y-77577188D01*
X131001544Y-77413216D01*
X131100147Y-77265646D01*
X131225646Y-77140147D01*
X131373216Y-77041544D01*
X131537188Y-76973624D01*
X131686488Y-76943927D01*
X131711258Y-76939000D01*
X131888742Y-76939000D01*
X131913512Y-76943927D01*
G37*
G36*
X102513512Y-76923927D02*
G01*
X102662812Y-76953624D01*
X102826784Y-77021544D01*
X102974354Y-77120147D01*
X103099853Y-77245646D01*
X103198456Y-77393216D01*
X103266376Y-77557188D01*
X103301000Y-77731259D01*
X103301000Y-77908741D01*
X103266376Y-78082812D01*
X103198456Y-78246784D01*
X103099853Y-78394354D01*
X102974354Y-78519853D01*
X102826784Y-78618456D01*
X102662812Y-78686376D01*
X102513512Y-78716073D01*
X102488742Y-78721000D01*
X102311258Y-78721000D01*
X102286488Y-78716073D01*
X102137188Y-78686376D01*
X101973216Y-78618456D01*
X101825646Y-78519853D01*
X101700147Y-78394354D01*
X101601544Y-78246784D01*
X101533624Y-78082812D01*
X101499000Y-77908741D01*
X101499000Y-77731259D01*
X101533624Y-77557188D01*
X101601544Y-77393216D01*
X101700147Y-77245646D01*
X101825646Y-77120147D01*
X101973216Y-77021544D01*
X102137188Y-76953624D01*
X102286488Y-76923927D01*
X102311258Y-76919000D01*
X102488742Y-76919000D01*
X102513512Y-76923927D01*
G37*
G36*
X114388674Y-76353465D02*
G01*
X114426367Y-76364899D01*
X114461103Y-76383466D01*
X114491548Y-76408452D01*
X114516534Y-76438897D01*
X114535101Y-76473633D01*
X114546535Y-76511326D01*
X114551000Y-76556661D01*
X114551000Y-77643339D01*
X114546535Y-77688674D01*
X114535101Y-77726367D01*
X114516534Y-77761103D01*
X114491548Y-77791548D01*
X114461103Y-77816534D01*
X114426367Y-77835101D01*
X114388674Y-77846535D01*
X114343339Y-77851000D01*
X113506661Y-77851000D01*
X113461326Y-77846535D01*
X113423633Y-77835101D01*
X113388897Y-77816534D01*
X113358452Y-77791548D01*
X113333466Y-77761103D01*
X113314899Y-77726367D01*
X113303465Y-77688674D01*
X113299000Y-77643339D01*
X113299000Y-76556661D01*
X113303465Y-76511326D01*
X113314899Y-76473633D01*
X113333466Y-76438897D01*
X113358452Y-76408452D01*
X113388897Y-76383466D01*
X113423633Y-76364899D01*
X113461326Y-76353465D01*
X113506661Y-76349000D01*
X114343339Y-76349000D01*
X114388674Y-76353465D01*
G37*
G36*
X112338674Y-76353465D02*
G01*
X112376367Y-76364899D01*
X112411103Y-76383466D01*
X112441548Y-76408452D01*
X112466534Y-76438897D01*
X112485101Y-76473633D01*
X112496535Y-76511326D01*
X112501000Y-76556661D01*
X112501000Y-77643339D01*
X112496535Y-77688674D01*
X112485101Y-77726367D01*
X112466534Y-77761103D01*
X112441548Y-77791548D01*
X112411103Y-77816534D01*
X112376367Y-77835101D01*
X112338674Y-77846535D01*
X112293339Y-77851000D01*
X111456661Y-77851000D01*
X111411326Y-77846535D01*
X111373633Y-77835101D01*
X111338897Y-77816534D01*
X111308452Y-77791548D01*
X111283466Y-77761103D01*
X111264899Y-77726367D01*
X111253465Y-77688674D01*
X111249000Y-77643339D01*
X111249000Y-76556661D01*
X111253465Y-76511326D01*
X111264899Y-76473633D01*
X111283466Y-76438897D01*
X111308452Y-76408452D01*
X111338897Y-76383466D01*
X111373633Y-76364899D01*
X111411326Y-76353465D01*
X111456661Y-76349000D01*
X112293339Y-76349000D01*
X112338674Y-76353465D01*
G37*
G36*
X123188674Y-76353465D02*
G01*
X123226367Y-76364899D01*
X123261103Y-76383466D01*
X123291548Y-76408452D01*
X123316534Y-76438897D01*
X123335101Y-76473633D01*
X123346535Y-76511326D01*
X123351000Y-76556661D01*
X123351000Y-77643339D01*
X123346535Y-77688674D01*
X123335101Y-77726367D01*
X123316534Y-77761103D01*
X123291548Y-77791548D01*
X123261103Y-77816534D01*
X123226367Y-77835101D01*
X123188674Y-77846535D01*
X123143339Y-77851000D01*
X122306661Y-77851000D01*
X122261326Y-77846535D01*
X122223633Y-77835101D01*
X122188897Y-77816534D01*
X122158452Y-77791548D01*
X122133466Y-77761103D01*
X122114899Y-77726367D01*
X122103465Y-77688674D01*
X122099000Y-77643339D01*
X122099000Y-76556661D01*
X122103465Y-76511326D01*
X122114899Y-76473633D01*
X122133466Y-76438897D01*
X122158452Y-76408452D01*
X122188897Y-76383466D01*
X122223633Y-76364899D01*
X122261326Y-76353465D01*
X122306661Y-76349000D01*
X123143339Y-76349000D01*
X123188674Y-76353465D01*
G37*
G36*
X121138674Y-76353465D02*
G01*
X121176367Y-76364899D01*
X121211103Y-76383466D01*
X121241548Y-76408452D01*
X121266534Y-76438897D01*
X121285101Y-76473633D01*
X121296535Y-76511326D01*
X121301000Y-76556661D01*
X121301000Y-77643339D01*
X121296535Y-77688674D01*
X121285101Y-77726367D01*
X121266534Y-77761103D01*
X121241548Y-77791548D01*
X121211103Y-77816534D01*
X121176367Y-77835101D01*
X121138674Y-77846535D01*
X121093339Y-77851000D01*
X120256661Y-77851000D01*
X120211326Y-77846535D01*
X120173633Y-77835101D01*
X120138897Y-77816534D01*
X120108452Y-77791548D01*
X120083466Y-77761103D01*
X120064899Y-77726367D01*
X120053465Y-77688674D01*
X120049000Y-77643339D01*
X120049000Y-76556661D01*
X120053465Y-76511326D01*
X120064899Y-76473633D01*
X120083466Y-76438897D01*
X120108452Y-76408452D01*
X120138897Y-76383466D01*
X120173633Y-76364899D01*
X120211326Y-76353465D01*
X120256661Y-76349000D01*
X121093339Y-76349000D01*
X121138674Y-76353465D01*
G37*
G36*
X131913512Y-74403927D02*
G01*
X132062812Y-74433624D01*
X132226784Y-74501544D01*
X132374354Y-74600147D01*
X132499853Y-74725646D01*
X132598456Y-74873216D01*
X132666376Y-75037188D01*
X132701000Y-75211259D01*
X132701000Y-75388741D01*
X132666376Y-75562812D01*
X132598456Y-75726784D01*
X132499853Y-75874354D01*
X132374354Y-75999853D01*
X132226784Y-76098456D01*
X132062812Y-76166376D01*
X131913512Y-76196073D01*
X131888742Y-76201000D01*
X131711258Y-76201000D01*
X131686488Y-76196073D01*
X131537188Y-76166376D01*
X131373216Y-76098456D01*
X131225646Y-75999853D01*
X131100147Y-75874354D01*
X131001544Y-75726784D01*
X130933624Y-75562812D01*
X130899000Y-75388741D01*
X130899000Y-75211259D01*
X130933624Y-75037188D01*
X131001544Y-74873216D01*
X131100147Y-74725646D01*
X131225646Y-74600147D01*
X131373216Y-74501544D01*
X131537188Y-74433624D01*
X131686488Y-74403927D01*
X131711258Y-74399000D01*
X131888742Y-74399000D01*
X131913512Y-74403927D01*
G37*
G36*
X102513512Y-74383927D02*
G01*
X102662812Y-74413624D01*
X102826784Y-74481544D01*
X102974354Y-74580147D01*
X103099853Y-74705646D01*
X103198456Y-74853216D01*
X103266376Y-75017188D01*
X103301000Y-75191259D01*
X103301000Y-75368741D01*
X103266376Y-75542812D01*
X103198456Y-75706784D01*
X103099853Y-75854354D01*
X102974354Y-75979853D01*
X102826784Y-76078456D01*
X102662812Y-76146376D01*
X102513512Y-76176073D01*
X102488742Y-76181000D01*
X102311258Y-76181000D01*
X102286488Y-76176073D01*
X102137188Y-76146376D01*
X101973216Y-76078456D01*
X101825646Y-75979853D01*
X101700147Y-75854354D01*
X101601544Y-75706784D01*
X101533624Y-75542812D01*
X101499000Y-75368741D01*
X101499000Y-75191259D01*
X101533624Y-75017188D01*
X101601544Y-74853216D01*
X101700147Y-74705646D01*
X101825646Y-74580147D01*
X101973216Y-74481544D01*
X102137188Y-74413624D01*
X102286488Y-74383927D01*
X102311258Y-74379000D01*
X102488742Y-74379000D01*
X102513512Y-74383927D01*
G37*
G36*
X122006000Y-73851000D02*
G01*
X120354000Y-73851000D01*
X120354000Y-72449000D01*
X122006000Y-72449000D01*
X122006000Y-73851000D01*
G37*
G36*
X114046000Y-73851000D02*
G01*
X112394000Y-73851000D01*
X112394000Y-72449000D01*
X114046000Y-72449000D01*
X114046000Y-73851000D01*
G37*
G36*
X131913512Y-71863927D02*
G01*
X132062812Y-71893624D01*
X132226784Y-71961544D01*
X132374354Y-72060147D01*
X132499853Y-72185646D01*
X132598456Y-72333216D01*
X132666376Y-72497188D01*
X132701000Y-72671259D01*
X132701000Y-72848741D01*
X132666376Y-73022812D01*
X132598456Y-73186784D01*
X132499853Y-73334354D01*
X132374354Y-73459853D01*
X132226784Y-73558456D01*
X132062812Y-73626376D01*
X131913512Y-73656073D01*
X131888742Y-73661000D01*
X131711258Y-73661000D01*
X131686488Y-73656073D01*
X131537188Y-73626376D01*
X131373216Y-73558456D01*
X131225646Y-73459853D01*
X131100147Y-73334354D01*
X131001544Y-73186784D01*
X130933624Y-73022812D01*
X130899000Y-72848741D01*
X130899000Y-72671259D01*
X130933624Y-72497188D01*
X131001544Y-72333216D01*
X131100147Y-72185646D01*
X131225646Y-72060147D01*
X131373216Y-71961544D01*
X131537188Y-71893624D01*
X131686488Y-71863927D01*
X131711258Y-71859000D01*
X131888742Y-71859000D01*
X131913512Y-71863927D01*
G37*
G36*
X102513512Y-71843927D02*
G01*
X102662812Y-71873624D01*
X102826784Y-71941544D01*
X102974354Y-72040147D01*
X103099853Y-72165646D01*
X103198456Y-72313216D01*
X103266376Y-72477188D01*
X103301000Y-72651259D01*
X103301000Y-72828741D01*
X103266376Y-73002812D01*
X103198456Y-73166784D01*
X103099853Y-73314354D01*
X102974354Y-73439853D01*
X102826784Y-73538456D01*
X102662812Y-73606376D01*
X102513512Y-73636073D01*
X102488742Y-73641000D01*
X102311258Y-73641000D01*
X102286488Y-73636073D01*
X102137188Y-73606376D01*
X101973216Y-73538456D01*
X101825646Y-73439853D01*
X101700147Y-73314354D01*
X101601544Y-73166784D01*
X101533624Y-73002812D01*
X101499000Y-72828741D01*
X101499000Y-72651259D01*
X101533624Y-72477188D01*
X101601544Y-72313216D01*
X101700147Y-72165646D01*
X101825646Y-72040147D01*
X101973216Y-71941544D01*
X102137188Y-71873624D01*
X102286488Y-71843927D01*
X102311258Y-71839000D01*
X102488742Y-71839000D01*
X102513512Y-71843927D01*
G37*
G36*
X131913512Y-69323927D02*
G01*
X132062812Y-69353624D01*
X132226784Y-69421544D01*
X132374354Y-69520147D01*
X132499853Y-69645646D01*
X132598456Y-69793216D01*
X132666376Y-69957188D01*
X132701000Y-70131259D01*
X132701000Y-70308741D01*
X132666376Y-70482812D01*
X132598456Y-70646784D01*
X132499853Y-70794354D01*
X132374354Y-70919853D01*
X132226784Y-71018456D01*
X132062812Y-71086376D01*
X131913512Y-71116073D01*
X131888742Y-71121000D01*
X131711258Y-71121000D01*
X131686488Y-71116073D01*
X131537188Y-71086376D01*
X131373216Y-71018456D01*
X131225646Y-70919853D01*
X131100147Y-70794354D01*
X131001544Y-70646784D01*
X130933624Y-70482812D01*
X130899000Y-70308741D01*
X130899000Y-70131259D01*
X130933624Y-69957188D01*
X131001544Y-69793216D01*
X131100147Y-69645646D01*
X131225646Y-69520147D01*
X131373216Y-69421544D01*
X131537188Y-69353624D01*
X131686488Y-69323927D01*
X131711258Y-69319000D01*
X131888742Y-69319000D01*
X131913512Y-69323927D01*
G37*
G36*
X102513512Y-69303927D02*
G01*
X102662812Y-69333624D01*
X102826784Y-69401544D01*
X102974354Y-69500147D01*
X103099853Y-69625646D01*
X103198456Y-69773216D01*
X103266376Y-69937188D01*
X103301000Y-70111259D01*
X103301000Y-70288741D01*
X103266376Y-70462812D01*
X103198456Y-70626784D01*
X103099853Y-70774354D01*
X102974354Y-70899853D01*
X102826784Y-70998456D01*
X102662812Y-71066376D01*
X102513512Y-71096073D01*
X102488742Y-71101000D01*
X102311258Y-71101000D01*
X102286488Y-71096073D01*
X102137188Y-71066376D01*
X101973216Y-70998456D01*
X101825646Y-70899853D01*
X101700147Y-70774354D01*
X101601544Y-70626784D01*
X101533624Y-70462812D01*
X101499000Y-70288741D01*
X101499000Y-70111259D01*
X101533624Y-69937188D01*
X101601544Y-69773216D01*
X101700147Y-69625646D01*
X101825646Y-69500147D01*
X101973216Y-69401544D01*
X102137188Y-69333624D01*
X102286488Y-69303927D01*
X102311258Y-69299000D01*
X102488742Y-69299000D01*
X102513512Y-69303927D01*
G37*
G36*
X114046000Y-69351000D02*
G01*
X112394000Y-69351000D01*
X112394000Y-67949000D01*
X114046000Y-67949000D01*
X114046000Y-69351000D01*
G37*
G36*
X122006000Y-69351000D02*
G01*
X120354000Y-69351000D01*
X120354000Y-67949000D01*
X122006000Y-67949000D01*
X122006000Y-69351000D01*
G37*
G36*
X103301000Y-68501000D02*
G01*
X101499000Y-68501000D01*
X101499000Y-66699000D01*
X103301000Y-66699000D01*
X103301000Y-68501000D01*
G37*
M02*
