G04 #@! TF.GenerationSoftware,KiCad,Pcbnew,(5.1.5-0-10_14)*
G04 #@! TF.CreationDate,2020-11-09T16:05:27+01:00*
G04 #@! TF.ProjectId,ATmega128_CC1101_Board,41546d65-6761-4313-9238-5f4343313130,rev?*
G04 #@! TF.SameCoordinates,Original*
G04 #@! TF.FileFunction,Soldermask,Bot*
G04 #@! TF.FilePolarity,Negative*
%FSLAX46Y46*%
G04 Gerber Fmt 4.6, Leading zero omitted, Abs format (unit mm)*
G04 Created by KiCad (PCBNEW (5.1.5-0-10_14)) date 2020-11-09 16:05:27*
%MOMM*%
%LPD*%
G04 APERTURE LIST*
%ADD10C,0.100000*%
G04 APERTURE END LIST*
D10*
G36*
X125101000Y-110701000D02*
G01*
X123299000Y-110701000D01*
X123299000Y-108899000D01*
X125101000Y-108899000D01*
X125101000Y-110701000D01*
G37*
G36*
X121773512Y-108903927D02*
G01*
X121922812Y-108933624D01*
X122086784Y-109001544D01*
X122234354Y-109100147D01*
X122359853Y-109225646D01*
X122458456Y-109373216D01*
X122526376Y-109537188D01*
X122561000Y-109711259D01*
X122561000Y-109888741D01*
X122526376Y-110062812D01*
X122458456Y-110226784D01*
X122359853Y-110374354D01*
X122234354Y-110499853D01*
X122086784Y-110598456D01*
X121922812Y-110666376D01*
X121773512Y-110696073D01*
X121748742Y-110701000D01*
X121571258Y-110701000D01*
X121546488Y-110696073D01*
X121397188Y-110666376D01*
X121233216Y-110598456D01*
X121085646Y-110499853D01*
X120960147Y-110374354D01*
X120861544Y-110226784D01*
X120793624Y-110062812D01*
X120759000Y-109888741D01*
X120759000Y-109711259D01*
X120793624Y-109537188D01*
X120861544Y-109373216D01*
X120960147Y-109225646D01*
X121085646Y-109100147D01*
X121233216Y-109001544D01*
X121397188Y-108933624D01*
X121546488Y-108903927D01*
X121571258Y-108899000D01*
X121748742Y-108899000D01*
X121773512Y-108903927D01*
G37*
G36*
X119233512Y-108903927D02*
G01*
X119382812Y-108933624D01*
X119546784Y-109001544D01*
X119694354Y-109100147D01*
X119819853Y-109225646D01*
X119918456Y-109373216D01*
X119986376Y-109537188D01*
X120021000Y-109711259D01*
X120021000Y-109888741D01*
X119986376Y-110062812D01*
X119918456Y-110226784D01*
X119819853Y-110374354D01*
X119694354Y-110499853D01*
X119546784Y-110598456D01*
X119382812Y-110666376D01*
X119233512Y-110696073D01*
X119208742Y-110701000D01*
X119031258Y-110701000D01*
X119006488Y-110696073D01*
X118857188Y-110666376D01*
X118693216Y-110598456D01*
X118545646Y-110499853D01*
X118420147Y-110374354D01*
X118321544Y-110226784D01*
X118253624Y-110062812D01*
X118219000Y-109888741D01*
X118219000Y-109711259D01*
X118253624Y-109537188D01*
X118321544Y-109373216D01*
X118420147Y-109225646D01*
X118545646Y-109100147D01*
X118693216Y-109001544D01*
X118857188Y-108933624D01*
X119006488Y-108903927D01*
X119031258Y-108899000D01*
X119208742Y-108899000D01*
X119233512Y-108903927D01*
G37*
G36*
X116693512Y-108903927D02*
G01*
X116842812Y-108933624D01*
X117006784Y-109001544D01*
X117154354Y-109100147D01*
X117279853Y-109225646D01*
X117378456Y-109373216D01*
X117446376Y-109537188D01*
X117481000Y-109711259D01*
X117481000Y-109888741D01*
X117446376Y-110062812D01*
X117378456Y-110226784D01*
X117279853Y-110374354D01*
X117154354Y-110499853D01*
X117006784Y-110598456D01*
X116842812Y-110666376D01*
X116693512Y-110696073D01*
X116668742Y-110701000D01*
X116491258Y-110701000D01*
X116466488Y-110696073D01*
X116317188Y-110666376D01*
X116153216Y-110598456D01*
X116005646Y-110499853D01*
X115880147Y-110374354D01*
X115781544Y-110226784D01*
X115713624Y-110062812D01*
X115679000Y-109888741D01*
X115679000Y-109711259D01*
X115713624Y-109537188D01*
X115781544Y-109373216D01*
X115880147Y-109225646D01*
X116005646Y-109100147D01*
X116153216Y-109001544D01*
X116317188Y-108933624D01*
X116466488Y-108903927D01*
X116491258Y-108899000D01*
X116668742Y-108899000D01*
X116693512Y-108903927D01*
G37*
G36*
X114153512Y-108903927D02*
G01*
X114302812Y-108933624D01*
X114466784Y-109001544D01*
X114614354Y-109100147D01*
X114739853Y-109225646D01*
X114838456Y-109373216D01*
X114906376Y-109537188D01*
X114941000Y-109711259D01*
X114941000Y-109888741D01*
X114906376Y-110062812D01*
X114838456Y-110226784D01*
X114739853Y-110374354D01*
X114614354Y-110499853D01*
X114466784Y-110598456D01*
X114302812Y-110666376D01*
X114153512Y-110696073D01*
X114128742Y-110701000D01*
X113951258Y-110701000D01*
X113926488Y-110696073D01*
X113777188Y-110666376D01*
X113613216Y-110598456D01*
X113465646Y-110499853D01*
X113340147Y-110374354D01*
X113241544Y-110226784D01*
X113173624Y-110062812D01*
X113139000Y-109888741D01*
X113139000Y-109711259D01*
X113173624Y-109537188D01*
X113241544Y-109373216D01*
X113340147Y-109225646D01*
X113465646Y-109100147D01*
X113613216Y-109001544D01*
X113777188Y-108933624D01*
X113926488Y-108903927D01*
X113951258Y-108899000D01*
X114128742Y-108899000D01*
X114153512Y-108903927D01*
G37*
G36*
X111613512Y-108903927D02*
G01*
X111762812Y-108933624D01*
X111926784Y-109001544D01*
X112074354Y-109100147D01*
X112199853Y-109225646D01*
X112298456Y-109373216D01*
X112366376Y-109537188D01*
X112401000Y-109711259D01*
X112401000Y-109888741D01*
X112366376Y-110062812D01*
X112298456Y-110226784D01*
X112199853Y-110374354D01*
X112074354Y-110499853D01*
X111926784Y-110598456D01*
X111762812Y-110666376D01*
X111613512Y-110696073D01*
X111588742Y-110701000D01*
X111411258Y-110701000D01*
X111386488Y-110696073D01*
X111237188Y-110666376D01*
X111073216Y-110598456D01*
X110925646Y-110499853D01*
X110800147Y-110374354D01*
X110701544Y-110226784D01*
X110633624Y-110062812D01*
X110599000Y-109888741D01*
X110599000Y-109711259D01*
X110633624Y-109537188D01*
X110701544Y-109373216D01*
X110800147Y-109225646D01*
X110925646Y-109100147D01*
X111073216Y-109001544D01*
X111237188Y-108933624D01*
X111386488Y-108903927D01*
X111411258Y-108899000D01*
X111588742Y-108899000D01*
X111613512Y-108903927D01*
G37*
G36*
X102513512Y-108883927D02*
G01*
X102662812Y-108913624D01*
X102826784Y-108981544D01*
X102974354Y-109080147D01*
X103099853Y-109205646D01*
X103198456Y-109353216D01*
X103266376Y-109517188D01*
X103301000Y-109691259D01*
X103301000Y-109868741D01*
X103266376Y-110042812D01*
X103198456Y-110206784D01*
X103099853Y-110354354D01*
X102974354Y-110479853D01*
X102826784Y-110578456D01*
X102662812Y-110646376D01*
X102513512Y-110676073D01*
X102488742Y-110681000D01*
X102311258Y-110681000D01*
X102286488Y-110676073D01*
X102137188Y-110646376D01*
X101973216Y-110578456D01*
X101825646Y-110479853D01*
X101700147Y-110354354D01*
X101601544Y-110206784D01*
X101533624Y-110042812D01*
X101499000Y-109868741D01*
X101499000Y-109691259D01*
X101533624Y-109517188D01*
X101601544Y-109353216D01*
X101700147Y-109205646D01*
X101825646Y-109080147D01*
X101973216Y-108981544D01*
X102137188Y-108913624D01*
X102286488Y-108883927D01*
X102311258Y-108879000D01*
X102488742Y-108879000D01*
X102513512Y-108883927D01*
G37*
G36*
X102513512Y-106343927D02*
G01*
X102662812Y-106373624D01*
X102826784Y-106441544D01*
X102974354Y-106540147D01*
X103099853Y-106665646D01*
X103198456Y-106813216D01*
X103266376Y-106977188D01*
X103301000Y-107151259D01*
X103301000Y-107328741D01*
X103266376Y-107502812D01*
X103198456Y-107666784D01*
X103099853Y-107814354D01*
X102974354Y-107939853D01*
X102826784Y-108038456D01*
X102662812Y-108106376D01*
X102513512Y-108136073D01*
X102488742Y-108141000D01*
X102311258Y-108141000D01*
X102286488Y-108136073D01*
X102137188Y-108106376D01*
X101973216Y-108038456D01*
X101825646Y-107939853D01*
X101700147Y-107814354D01*
X101601544Y-107666784D01*
X101533624Y-107502812D01*
X101499000Y-107328741D01*
X101499000Y-107151259D01*
X101533624Y-106977188D01*
X101601544Y-106813216D01*
X101700147Y-106665646D01*
X101825646Y-106540147D01*
X101973216Y-106441544D01*
X102137188Y-106373624D01*
X102286488Y-106343927D01*
X102311258Y-106339000D01*
X102488742Y-106339000D01*
X102513512Y-106343927D01*
G37*
G36*
X102513512Y-103803927D02*
G01*
X102662812Y-103833624D01*
X102826784Y-103901544D01*
X102974354Y-104000147D01*
X103099853Y-104125646D01*
X103198456Y-104273216D01*
X103266376Y-104437188D01*
X103301000Y-104611259D01*
X103301000Y-104788741D01*
X103266376Y-104962812D01*
X103198456Y-105126784D01*
X103099853Y-105274354D01*
X102974354Y-105399853D01*
X102826784Y-105498456D01*
X102662812Y-105566376D01*
X102513512Y-105596073D01*
X102488742Y-105601000D01*
X102311258Y-105601000D01*
X102286488Y-105596073D01*
X102137188Y-105566376D01*
X101973216Y-105498456D01*
X101825646Y-105399853D01*
X101700147Y-105274354D01*
X101601544Y-105126784D01*
X101533624Y-104962812D01*
X101499000Y-104788741D01*
X101499000Y-104611259D01*
X101533624Y-104437188D01*
X101601544Y-104273216D01*
X101700147Y-104125646D01*
X101825646Y-104000147D01*
X101973216Y-103901544D01*
X102137188Y-103833624D01*
X102286488Y-103803927D01*
X102311258Y-103799000D01*
X102488742Y-103799000D01*
X102513512Y-103803927D01*
G37*
G36*
X102513512Y-101263927D02*
G01*
X102662812Y-101293624D01*
X102826784Y-101361544D01*
X102974354Y-101460147D01*
X103099853Y-101585646D01*
X103198456Y-101733216D01*
X103266376Y-101897188D01*
X103301000Y-102071259D01*
X103301000Y-102248741D01*
X103266376Y-102422812D01*
X103198456Y-102586784D01*
X103099853Y-102734354D01*
X102974354Y-102859853D01*
X102826784Y-102958456D01*
X102662812Y-103026376D01*
X102513512Y-103056073D01*
X102488742Y-103061000D01*
X102311258Y-103061000D01*
X102286488Y-103056073D01*
X102137188Y-103026376D01*
X101973216Y-102958456D01*
X101825646Y-102859853D01*
X101700147Y-102734354D01*
X101601544Y-102586784D01*
X101533624Y-102422812D01*
X101499000Y-102248741D01*
X101499000Y-102071259D01*
X101533624Y-101897188D01*
X101601544Y-101733216D01*
X101700147Y-101585646D01*
X101825646Y-101460147D01*
X101973216Y-101361544D01*
X102137188Y-101293624D01*
X102286488Y-101263927D01*
X102311258Y-101259000D01*
X102488742Y-101259000D01*
X102513512Y-101263927D01*
G37*
G36*
X102513512Y-98723927D02*
G01*
X102662812Y-98753624D01*
X102826784Y-98821544D01*
X102974354Y-98920147D01*
X103099853Y-99045646D01*
X103198456Y-99193216D01*
X103266376Y-99357188D01*
X103301000Y-99531259D01*
X103301000Y-99708741D01*
X103266376Y-99882812D01*
X103198456Y-100046784D01*
X103099853Y-100194354D01*
X102974354Y-100319853D01*
X102826784Y-100418456D01*
X102662812Y-100486376D01*
X102513512Y-100516073D01*
X102488742Y-100521000D01*
X102311258Y-100521000D01*
X102286488Y-100516073D01*
X102137188Y-100486376D01*
X101973216Y-100418456D01*
X101825646Y-100319853D01*
X101700147Y-100194354D01*
X101601544Y-100046784D01*
X101533624Y-99882812D01*
X101499000Y-99708741D01*
X101499000Y-99531259D01*
X101533624Y-99357188D01*
X101601544Y-99193216D01*
X101700147Y-99045646D01*
X101825646Y-98920147D01*
X101973216Y-98821544D01*
X102137188Y-98753624D01*
X102286488Y-98723927D01*
X102311258Y-98719000D01*
X102488742Y-98719000D01*
X102513512Y-98723927D01*
G37*
G36*
X106281000Y-98426000D02*
G01*
X105119000Y-98426000D01*
X105119000Y-95774000D01*
X106281000Y-95774000D01*
X106281000Y-98426000D01*
G37*
G36*
X108481000Y-98426000D02*
G01*
X107319000Y-98426000D01*
X107319000Y-97674000D01*
X108481000Y-97674000D01*
X108481000Y-98426000D01*
G37*
G36*
X102513512Y-96183927D02*
G01*
X102662812Y-96213624D01*
X102826784Y-96281544D01*
X102974354Y-96380147D01*
X103099853Y-96505646D01*
X103198456Y-96653216D01*
X103266376Y-96817188D01*
X103301000Y-96991259D01*
X103301000Y-97168741D01*
X103266376Y-97342812D01*
X103198456Y-97506784D01*
X103099853Y-97654354D01*
X102974354Y-97779853D01*
X102826784Y-97878456D01*
X102662812Y-97946376D01*
X102513512Y-97976073D01*
X102488742Y-97981000D01*
X102311258Y-97981000D01*
X102286488Y-97976073D01*
X102137188Y-97946376D01*
X101973216Y-97878456D01*
X101825646Y-97779853D01*
X101700147Y-97654354D01*
X101601544Y-97506784D01*
X101533624Y-97342812D01*
X101499000Y-97168741D01*
X101499000Y-96991259D01*
X101533624Y-96817188D01*
X101601544Y-96653216D01*
X101700147Y-96505646D01*
X101825646Y-96380147D01*
X101973216Y-96281544D01*
X102137188Y-96213624D01*
X102286488Y-96183927D01*
X102311258Y-96179000D01*
X102488742Y-96179000D01*
X102513512Y-96183927D01*
G37*
G36*
X108481000Y-96526000D02*
G01*
X107319000Y-96526000D01*
X107319000Y-95774000D01*
X108481000Y-95774000D01*
X108481000Y-96526000D01*
G37*
G36*
X102513512Y-93643927D02*
G01*
X102662812Y-93673624D01*
X102826784Y-93741544D01*
X102974354Y-93840147D01*
X103099853Y-93965646D01*
X103198456Y-94113216D01*
X103266376Y-94277188D01*
X103301000Y-94451259D01*
X103301000Y-94628741D01*
X103266376Y-94802812D01*
X103198456Y-94966784D01*
X103099853Y-95114354D01*
X102974354Y-95239853D01*
X102826784Y-95338456D01*
X102662812Y-95406376D01*
X102513512Y-95436073D01*
X102488742Y-95441000D01*
X102311258Y-95441000D01*
X102286488Y-95436073D01*
X102137188Y-95406376D01*
X101973216Y-95338456D01*
X101825646Y-95239853D01*
X101700147Y-95114354D01*
X101601544Y-94966784D01*
X101533624Y-94802812D01*
X101499000Y-94628741D01*
X101499000Y-94451259D01*
X101533624Y-94277188D01*
X101601544Y-94113216D01*
X101700147Y-93965646D01*
X101825646Y-93840147D01*
X101973216Y-93741544D01*
X102137188Y-93673624D01*
X102286488Y-93643927D01*
X102311258Y-93639000D01*
X102488742Y-93639000D01*
X102513512Y-93643927D01*
G37*
G36*
X109526000Y-93126000D02*
G01*
X105074000Y-93126000D01*
X105074000Y-91574000D01*
X109526000Y-91574000D01*
X109526000Y-93126000D01*
G37*
G36*
X102513512Y-91103927D02*
G01*
X102662812Y-91133624D01*
X102826784Y-91201544D01*
X102974354Y-91300147D01*
X103099853Y-91425646D01*
X103198456Y-91573216D01*
X103266376Y-91737188D01*
X103301000Y-91911259D01*
X103301000Y-92088741D01*
X103266376Y-92262812D01*
X103198456Y-92426784D01*
X103099853Y-92574354D01*
X102974354Y-92699853D01*
X102826784Y-92798456D01*
X102662812Y-92866376D01*
X102513512Y-92896073D01*
X102488742Y-92901000D01*
X102311258Y-92901000D01*
X102286488Y-92896073D01*
X102137188Y-92866376D01*
X101973216Y-92798456D01*
X101825646Y-92699853D01*
X101700147Y-92574354D01*
X101601544Y-92426784D01*
X101533624Y-92262812D01*
X101499000Y-92088741D01*
X101499000Y-91911259D01*
X101533624Y-91737188D01*
X101601544Y-91573216D01*
X101700147Y-91425646D01*
X101825646Y-91300147D01*
X101973216Y-91201544D01*
X102137188Y-91133624D01*
X102286488Y-91103927D01*
X102311258Y-91099000D01*
X102488742Y-91099000D01*
X102513512Y-91103927D01*
G37*
G36*
X113811766Y-91401899D02*
G01*
X113943888Y-91456626D01*
X113943890Y-91456627D01*
X114062798Y-91536079D01*
X114163921Y-91637202D01*
X114230730Y-91737189D01*
X114243374Y-91756112D01*
X114298101Y-91888234D01*
X114326000Y-92028494D01*
X114326000Y-92171506D01*
X114298101Y-92311766D01*
X114243374Y-92443888D01*
X114243373Y-92443890D01*
X114163921Y-92562798D01*
X114062798Y-92663921D01*
X113943890Y-92743373D01*
X113943889Y-92743374D01*
X113943888Y-92743374D01*
X113811766Y-92798101D01*
X113671506Y-92826000D01*
X113528494Y-92826000D01*
X113388234Y-92798101D01*
X113256112Y-92743374D01*
X113256111Y-92743374D01*
X113256110Y-92743373D01*
X113137202Y-92663921D01*
X113036079Y-92562798D01*
X112956627Y-92443890D01*
X112956626Y-92443888D01*
X112901899Y-92311766D01*
X112874000Y-92171506D01*
X112874000Y-92028494D01*
X112901899Y-91888234D01*
X112956626Y-91756112D01*
X112969270Y-91737189D01*
X113036079Y-91637202D01*
X113137202Y-91536079D01*
X113256110Y-91456627D01*
X113256112Y-91456626D01*
X113388234Y-91401899D01*
X113528494Y-91374000D01*
X113671506Y-91374000D01*
X113811766Y-91401899D01*
G37*
G36*
X115811766Y-91401899D02*
G01*
X115943888Y-91456626D01*
X115943890Y-91456627D01*
X116062798Y-91536079D01*
X116163921Y-91637202D01*
X116230730Y-91737189D01*
X116243374Y-91756112D01*
X116298101Y-91888234D01*
X116326000Y-92028494D01*
X116326000Y-92171506D01*
X116298101Y-92311766D01*
X116243374Y-92443888D01*
X116243373Y-92443890D01*
X116163921Y-92562798D01*
X116062798Y-92663921D01*
X115943890Y-92743373D01*
X115943889Y-92743374D01*
X115943888Y-92743374D01*
X115811766Y-92798101D01*
X115671506Y-92826000D01*
X115528494Y-92826000D01*
X115388234Y-92798101D01*
X115256112Y-92743374D01*
X115256111Y-92743374D01*
X115256110Y-92743373D01*
X115137202Y-92663921D01*
X115036079Y-92562798D01*
X114956627Y-92443890D01*
X114956626Y-92443888D01*
X114901899Y-92311766D01*
X114874000Y-92171506D01*
X114874000Y-92028494D01*
X114901899Y-91888234D01*
X114956626Y-91756112D01*
X114969270Y-91737189D01*
X115036079Y-91637202D01*
X115137202Y-91536079D01*
X115256110Y-91456627D01*
X115256112Y-91456626D01*
X115388234Y-91401899D01*
X115528494Y-91374000D01*
X115671506Y-91374000D01*
X115811766Y-91401899D01*
G37*
G36*
X117811766Y-91401899D02*
G01*
X117943888Y-91456626D01*
X117943890Y-91456627D01*
X118062798Y-91536079D01*
X118163921Y-91637202D01*
X118230730Y-91737189D01*
X118243374Y-91756112D01*
X118298101Y-91888234D01*
X118326000Y-92028494D01*
X118326000Y-92171506D01*
X118298101Y-92311766D01*
X118243374Y-92443888D01*
X118243373Y-92443890D01*
X118163921Y-92562798D01*
X118062798Y-92663921D01*
X117943890Y-92743373D01*
X117943889Y-92743374D01*
X117943888Y-92743374D01*
X117811766Y-92798101D01*
X117671506Y-92826000D01*
X117528494Y-92826000D01*
X117388234Y-92798101D01*
X117256112Y-92743374D01*
X117256111Y-92743374D01*
X117256110Y-92743373D01*
X117137202Y-92663921D01*
X117036079Y-92562798D01*
X116956627Y-92443890D01*
X116956626Y-92443888D01*
X116901899Y-92311766D01*
X116874000Y-92171506D01*
X116874000Y-92028494D01*
X116901899Y-91888234D01*
X116956626Y-91756112D01*
X116969270Y-91737189D01*
X117036079Y-91637202D01*
X117137202Y-91536079D01*
X117256110Y-91456627D01*
X117256112Y-91456626D01*
X117388234Y-91401899D01*
X117528494Y-91374000D01*
X117671506Y-91374000D01*
X117811766Y-91401899D01*
G37*
G36*
X119811766Y-91401899D02*
G01*
X119943888Y-91456626D01*
X119943890Y-91456627D01*
X120062798Y-91536079D01*
X120163921Y-91637202D01*
X120230730Y-91737189D01*
X120243374Y-91756112D01*
X120298101Y-91888234D01*
X120326000Y-92028494D01*
X120326000Y-92171506D01*
X120298101Y-92311766D01*
X120243374Y-92443888D01*
X120243373Y-92443890D01*
X120163921Y-92562798D01*
X120062798Y-92663921D01*
X119943890Y-92743373D01*
X119943889Y-92743374D01*
X119943888Y-92743374D01*
X119811766Y-92798101D01*
X119671506Y-92826000D01*
X119528494Y-92826000D01*
X119388234Y-92798101D01*
X119256112Y-92743374D01*
X119256111Y-92743374D01*
X119256110Y-92743373D01*
X119137202Y-92663921D01*
X119036079Y-92562798D01*
X118956627Y-92443890D01*
X118956626Y-92443888D01*
X118901899Y-92311766D01*
X118874000Y-92171506D01*
X118874000Y-92028494D01*
X118901899Y-91888234D01*
X118956626Y-91756112D01*
X118969270Y-91737189D01*
X119036079Y-91637202D01*
X119137202Y-91536079D01*
X119256110Y-91456627D01*
X119256112Y-91456626D01*
X119388234Y-91401899D01*
X119528494Y-91374000D01*
X119671506Y-91374000D01*
X119811766Y-91401899D01*
G37*
G36*
X123811766Y-91401899D02*
G01*
X123943888Y-91456626D01*
X123943890Y-91456627D01*
X124062798Y-91536079D01*
X124163921Y-91637202D01*
X124230730Y-91737189D01*
X124243374Y-91756112D01*
X124298101Y-91888234D01*
X124326000Y-92028494D01*
X124326000Y-92171506D01*
X124298101Y-92311766D01*
X124243374Y-92443888D01*
X124243373Y-92443890D01*
X124163921Y-92562798D01*
X124062798Y-92663921D01*
X123943890Y-92743373D01*
X123943889Y-92743374D01*
X123943888Y-92743374D01*
X123811766Y-92798101D01*
X123671506Y-92826000D01*
X123528494Y-92826000D01*
X123388234Y-92798101D01*
X123256112Y-92743374D01*
X123256111Y-92743374D01*
X123256110Y-92743373D01*
X123137202Y-92663921D01*
X123036079Y-92562798D01*
X122956627Y-92443890D01*
X122956626Y-92443888D01*
X122901899Y-92311766D01*
X122874000Y-92171506D01*
X122874000Y-92028494D01*
X122901899Y-91888234D01*
X122956626Y-91756112D01*
X122969270Y-91737189D01*
X123036079Y-91637202D01*
X123137202Y-91536079D01*
X123256110Y-91456627D01*
X123256112Y-91456626D01*
X123388234Y-91401899D01*
X123528494Y-91374000D01*
X123671506Y-91374000D01*
X123811766Y-91401899D01*
G37*
G36*
X121811766Y-91401899D02*
G01*
X121943888Y-91456626D01*
X121943890Y-91456627D01*
X122062798Y-91536079D01*
X122163921Y-91637202D01*
X122230730Y-91737189D01*
X122243374Y-91756112D01*
X122298101Y-91888234D01*
X122326000Y-92028494D01*
X122326000Y-92171506D01*
X122298101Y-92311766D01*
X122243374Y-92443888D01*
X122243373Y-92443890D01*
X122163921Y-92562798D01*
X122062798Y-92663921D01*
X121943890Y-92743373D01*
X121943889Y-92743374D01*
X121943888Y-92743374D01*
X121811766Y-92798101D01*
X121671506Y-92826000D01*
X121528494Y-92826000D01*
X121388234Y-92798101D01*
X121256112Y-92743374D01*
X121256111Y-92743374D01*
X121256110Y-92743373D01*
X121137202Y-92663921D01*
X121036079Y-92562798D01*
X120956627Y-92443890D01*
X120956626Y-92443888D01*
X120901899Y-92311766D01*
X120874000Y-92171506D01*
X120874000Y-92028494D01*
X120901899Y-91888234D01*
X120956626Y-91756112D01*
X120969270Y-91737189D01*
X121036079Y-91637202D01*
X121137202Y-91536079D01*
X121256110Y-91456627D01*
X121256112Y-91456626D01*
X121388234Y-91401899D01*
X121528494Y-91374000D01*
X121671506Y-91374000D01*
X121811766Y-91401899D01*
G37*
G36*
X131913512Y-87103927D02*
G01*
X132062812Y-87133624D01*
X132226784Y-87201544D01*
X132374354Y-87300147D01*
X132499853Y-87425646D01*
X132598456Y-87573216D01*
X132666376Y-87737188D01*
X132701000Y-87911259D01*
X132701000Y-88088741D01*
X132666376Y-88262812D01*
X132598456Y-88426784D01*
X132499853Y-88574354D01*
X132374354Y-88699853D01*
X132226784Y-88798456D01*
X132062812Y-88866376D01*
X131913512Y-88896073D01*
X131888742Y-88901000D01*
X131711258Y-88901000D01*
X131686488Y-88896073D01*
X131537188Y-88866376D01*
X131373216Y-88798456D01*
X131225646Y-88699853D01*
X131100147Y-88574354D01*
X131001544Y-88426784D01*
X130933624Y-88262812D01*
X130899000Y-88088741D01*
X130899000Y-87911259D01*
X130933624Y-87737188D01*
X131001544Y-87573216D01*
X131100147Y-87425646D01*
X131225646Y-87300147D01*
X131373216Y-87201544D01*
X131537188Y-87133624D01*
X131686488Y-87103927D01*
X131711258Y-87099000D01*
X131888742Y-87099000D01*
X131913512Y-87103927D01*
G37*
G36*
X102513512Y-87083927D02*
G01*
X102662812Y-87113624D01*
X102826784Y-87181544D01*
X102974354Y-87280147D01*
X103099853Y-87405646D01*
X103198456Y-87553216D01*
X103266376Y-87717188D01*
X103301000Y-87891259D01*
X103301000Y-88068741D01*
X103266376Y-88242812D01*
X103198456Y-88406784D01*
X103099853Y-88554354D01*
X102974354Y-88679853D01*
X102826784Y-88778456D01*
X102662812Y-88846376D01*
X102513512Y-88876073D01*
X102488742Y-88881000D01*
X102311258Y-88881000D01*
X102286488Y-88876073D01*
X102137188Y-88846376D01*
X101973216Y-88778456D01*
X101825646Y-88679853D01*
X101700147Y-88554354D01*
X101601544Y-88406784D01*
X101533624Y-88242812D01*
X101499000Y-88068741D01*
X101499000Y-87891259D01*
X101533624Y-87717188D01*
X101601544Y-87553216D01*
X101700147Y-87405646D01*
X101825646Y-87280147D01*
X101973216Y-87181544D01*
X102137188Y-87113624D01*
X102286488Y-87083927D01*
X102311258Y-87079000D01*
X102488742Y-87079000D01*
X102513512Y-87083927D01*
G37*
G36*
X114088674Y-87603465D02*
G01*
X114126367Y-87614899D01*
X114161103Y-87633466D01*
X114191548Y-87658452D01*
X114216534Y-87688897D01*
X114235101Y-87723633D01*
X114246535Y-87761326D01*
X114251000Y-87806661D01*
X114251000Y-88643339D01*
X114246535Y-88688674D01*
X114235101Y-88726367D01*
X114216534Y-88761103D01*
X114191548Y-88791548D01*
X114161103Y-88816534D01*
X114126367Y-88835101D01*
X114088674Y-88846535D01*
X114043339Y-88851000D01*
X112956661Y-88851000D01*
X112911326Y-88846535D01*
X112873633Y-88835101D01*
X112838897Y-88816534D01*
X112808452Y-88791548D01*
X112783466Y-88761103D01*
X112764899Y-88726367D01*
X112753465Y-88688674D01*
X112749000Y-88643339D01*
X112749000Y-87806661D01*
X112753465Y-87761326D01*
X112764899Y-87723633D01*
X112783466Y-87688897D01*
X112808452Y-87658452D01*
X112838897Y-87633466D01*
X112873633Y-87614899D01*
X112911326Y-87603465D01*
X112956661Y-87599000D01*
X114043339Y-87599000D01*
X114088674Y-87603465D01*
G37*
G36*
X116188674Y-87603465D02*
G01*
X116226367Y-87614899D01*
X116261103Y-87633466D01*
X116291548Y-87658452D01*
X116316534Y-87688897D01*
X116335101Y-87723633D01*
X116346535Y-87761326D01*
X116351000Y-87806661D01*
X116351000Y-88643339D01*
X116346535Y-88688674D01*
X116335101Y-88726367D01*
X116316534Y-88761103D01*
X116291548Y-88791548D01*
X116261103Y-88816534D01*
X116226367Y-88835101D01*
X116188674Y-88846535D01*
X116143339Y-88851000D01*
X115056661Y-88851000D01*
X115011326Y-88846535D01*
X114973633Y-88835101D01*
X114938897Y-88816534D01*
X114908452Y-88791548D01*
X114883466Y-88761103D01*
X114864899Y-88726367D01*
X114853465Y-88688674D01*
X114849000Y-88643339D01*
X114849000Y-87806661D01*
X114853465Y-87761326D01*
X114864899Y-87723633D01*
X114883466Y-87688897D01*
X114908452Y-87658452D01*
X114938897Y-87633466D01*
X114973633Y-87614899D01*
X115011326Y-87603465D01*
X115056661Y-87599000D01*
X116143339Y-87599000D01*
X116188674Y-87603465D01*
G37*
G36*
X120188674Y-87603465D02*
G01*
X120226367Y-87614899D01*
X120261103Y-87633466D01*
X120291548Y-87658452D01*
X120316534Y-87688897D01*
X120335101Y-87723633D01*
X120346535Y-87761326D01*
X120351000Y-87806661D01*
X120351000Y-88643339D01*
X120346535Y-88688674D01*
X120335101Y-88726367D01*
X120316534Y-88761103D01*
X120291548Y-88791548D01*
X120261103Y-88816534D01*
X120226367Y-88835101D01*
X120188674Y-88846535D01*
X120143339Y-88851000D01*
X119056661Y-88851000D01*
X119011326Y-88846535D01*
X118973633Y-88835101D01*
X118938897Y-88816534D01*
X118908452Y-88791548D01*
X118883466Y-88761103D01*
X118864899Y-88726367D01*
X118853465Y-88688674D01*
X118849000Y-88643339D01*
X118849000Y-87806661D01*
X118853465Y-87761326D01*
X118864899Y-87723633D01*
X118883466Y-87688897D01*
X118908452Y-87658452D01*
X118938897Y-87633466D01*
X118973633Y-87614899D01*
X119011326Y-87603465D01*
X119056661Y-87599000D01*
X120143339Y-87599000D01*
X120188674Y-87603465D01*
G37*
G36*
X122188674Y-87603465D02*
G01*
X122226367Y-87614899D01*
X122261103Y-87633466D01*
X122291548Y-87658452D01*
X122316534Y-87688897D01*
X122335101Y-87723633D01*
X122346535Y-87761326D01*
X122351000Y-87806661D01*
X122351000Y-88643339D01*
X122346535Y-88688674D01*
X122335101Y-88726367D01*
X122316534Y-88761103D01*
X122291548Y-88791548D01*
X122261103Y-88816534D01*
X122226367Y-88835101D01*
X122188674Y-88846535D01*
X122143339Y-88851000D01*
X121056661Y-88851000D01*
X121011326Y-88846535D01*
X120973633Y-88835101D01*
X120938897Y-88816534D01*
X120908452Y-88791548D01*
X120883466Y-88761103D01*
X120864899Y-88726367D01*
X120853465Y-88688674D01*
X120849000Y-88643339D01*
X120849000Y-87806661D01*
X120853465Y-87761326D01*
X120864899Y-87723633D01*
X120883466Y-87688897D01*
X120908452Y-87658452D01*
X120938897Y-87633466D01*
X120973633Y-87614899D01*
X121011326Y-87603465D01*
X121056661Y-87599000D01*
X122143339Y-87599000D01*
X122188674Y-87603465D01*
G37*
G36*
X118188674Y-87603465D02*
G01*
X118226367Y-87614899D01*
X118261103Y-87633466D01*
X118291548Y-87658452D01*
X118316534Y-87688897D01*
X118335101Y-87723633D01*
X118346535Y-87761326D01*
X118351000Y-87806661D01*
X118351000Y-88643339D01*
X118346535Y-88688674D01*
X118335101Y-88726367D01*
X118316534Y-88761103D01*
X118291548Y-88791548D01*
X118261103Y-88816534D01*
X118226367Y-88835101D01*
X118188674Y-88846535D01*
X118143339Y-88851000D01*
X117056661Y-88851000D01*
X117011326Y-88846535D01*
X116973633Y-88835101D01*
X116938897Y-88816534D01*
X116908452Y-88791548D01*
X116883466Y-88761103D01*
X116864899Y-88726367D01*
X116853465Y-88688674D01*
X116849000Y-88643339D01*
X116849000Y-87806661D01*
X116853465Y-87761326D01*
X116864899Y-87723633D01*
X116883466Y-87688897D01*
X116908452Y-87658452D01*
X116938897Y-87633466D01*
X116973633Y-87614899D01*
X117011326Y-87603465D01*
X117056661Y-87599000D01*
X118143339Y-87599000D01*
X118188674Y-87603465D01*
G37*
G36*
X124188674Y-87603465D02*
G01*
X124226367Y-87614899D01*
X124261103Y-87633466D01*
X124291548Y-87658452D01*
X124316534Y-87688897D01*
X124335101Y-87723633D01*
X124346535Y-87761326D01*
X124351000Y-87806661D01*
X124351000Y-88643339D01*
X124346535Y-88688674D01*
X124335101Y-88726367D01*
X124316534Y-88761103D01*
X124291548Y-88791548D01*
X124261103Y-88816534D01*
X124226367Y-88835101D01*
X124188674Y-88846535D01*
X124143339Y-88851000D01*
X123056661Y-88851000D01*
X123011326Y-88846535D01*
X122973633Y-88835101D01*
X122938897Y-88816534D01*
X122908452Y-88791548D01*
X122883466Y-88761103D01*
X122864899Y-88726367D01*
X122853465Y-88688674D01*
X122849000Y-88643339D01*
X122849000Y-87806661D01*
X122853465Y-87761326D01*
X122864899Y-87723633D01*
X122883466Y-87688897D01*
X122908452Y-87658452D01*
X122938897Y-87633466D01*
X122973633Y-87614899D01*
X123011326Y-87603465D01*
X123056661Y-87599000D01*
X124143339Y-87599000D01*
X124188674Y-87603465D01*
G37*
G36*
X126588674Y-87603465D02*
G01*
X126626367Y-87614899D01*
X126661103Y-87633466D01*
X126691548Y-87658452D01*
X126716534Y-87688897D01*
X126735101Y-87723633D01*
X126746535Y-87761326D01*
X126751000Y-87806661D01*
X126751000Y-88643339D01*
X126746535Y-88688674D01*
X126735101Y-88726367D01*
X126716534Y-88761103D01*
X126691548Y-88791548D01*
X126661103Y-88816534D01*
X126626367Y-88835101D01*
X126588674Y-88846535D01*
X126543339Y-88851000D01*
X125456661Y-88851000D01*
X125411326Y-88846535D01*
X125373633Y-88835101D01*
X125338897Y-88816534D01*
X125308452Y-88791548D01*
X125283466Y-88761103D01*
X125264899Y-88726367D01*
X125253465Y-88688674D01*
X125249000Y-88643339D01*
X125249000Y-87806661D01*
X125253465Y-87761326D01*
X125264899Y-87723633D01*
X125283466Y-87688897D01*
X125308452Y-87658452D01*
X125338897Y-87633466D01*
X125373633Y-87614899D01*
X125411326Y-87603465D01*
X125456661Y-87599000D01*
X126543339Y-87599000D01*
X126588674Y-87603465D01*
G37*
G36*
X109526000Y-87226000D02*
G01*
X105074000Y-87226000D01*
X105074000Y-85674000D01*
X109526000Y-85674000D01*
X109526000Y-87226000D01*
G37*
G36*
X116188674Y-85553465D02*
G01*
X116226367Y-85564899D01*
X116261103Y-85583466D01*
X116291548Y-85608452D01*
X116316534Y-85638897D01*
X116335101Y-85673633D01*
X116346535Y-85711326D01*
X116351000Y-85756661D01*
X116351000Y-86593339D01*
X116346535Y-86638674D01*
X116335101Y-86676367D01*
X116316534Y-86711103D01*
X116291548Y-86741548D01*
X116261103Y-86766534D01*
X116226367Y-86785101D01*
X116188674Y-86796535D01*
X116143339Y-86801000D01*
X115056661Y-86801000D01*
X115011326Y-86796535D01*
X114973633Y-86785101D01*
X114938897Y-86766534D01*
X114908452Y-86741548D01*
X114883466Y-86711103D01*
X114864899Y-86676367D01*
X114853465Y-86638674D01*
X114849000Y-86593339D01*
X114849000Y-85756661D01*
X114853465Y-85711326D01*
X114864899Y-85673633D01*
X114883466Y-85638897D01*
X114908452Y-85608452D01*
X114938897Y-85583466D01*
X114973633Y-85564899D01*
X115011326Y-85553465D01*
X115056661Y-85549000D01*
X116143339Y-85549000D01*
X116188674Y-85553465D01*
G37*
G36*
X126588674Y-85553465D02*
G01*
X126626367Y-85564899D01*
X126661103Y-85583466D01*
X126691548Y-85608452D01*
X126716534Y-85638897D01*
X126735101Y-85673633D01*
X126746535Y-85711326D01*
X126751000Y-85756661D01*
X126751000Y-86593339D01*
X126746535Y-86638674D01*
X126735101Y-86676367D01*
X126716534Y-86711103D01*
X126691548Y-86741548D01*
X126661103Y-86766534D01*
X126626367Y-86785101D01*
X126588674Y-86796535D01*
X126543339Y-86801000D01*
X125456661Y-86801000D01*
X125411326Y-86796535D01*
X125373633Y-86785101D01*
X125338897Y-86766534D01*
X125308452Y-86741548D01*
X125283466Y-86711103D01*
X125264899Y-86676367D01*
X125253465Y-86638674D01*
X125249000Y-86593339D01*
X125249000Y-85756661D01*
X125253465Y-85711326D01*
X125264899Y-85673633D01*
X125283466Y-85638897D01*
X125308452Y-85608452D01*
X125338897Y-85583466D01*
X125373633Y-85564899D01*
X125411326Y-85553465D01*
X125456661Y-85549000D01*
X126543339Y-85549000D01*
X126588674Y-85553465D01*
G37*
G36*
X124188674Y-85553465D02*
G01*
X124226367Y-85564899D01*
X124261103Y-85583466D01*
X124291548Y-85608452D01*
X124316534Y-85638897D01*
X124335101Y-85673633D01*
X124346535Y-85711326D01*
X124351000Y-85756661D01*
X124351000Y-86593339D01*
X124346535Y-86638674D01*
X124335101Y-86676367D01*
X124316534Y-86711103D01*
X124291548Y-86741548D01*
X124261103Y-86766534D01*
X124226367Y-86785101D01*
X124188674Y-86796535D01*
X124143339Y-86801000D01*
X123056661Y-86801000D01*
X123011326Y-86796535D01*
X122973633Y-86785101D01*
X122938897Y-86766534D01*
X122908452Y-86741548D01*
X122883466Y-86711103D01*
X122864899Y-86676367D01*
X122853465Y-86638674D01*
X122849000Y-86593339D01*
X122849000Y-85756661D01*
X122853465Y-85711326D01*
X122864899Y-85673633D01*
X122883466Y-85638897D01*
X122908452Y-85608452D01*
X122938897Y-85583466D01*
X122973633Y-85564899D01*
X123011326Y-85553465D01*
X123056661Y-85549000D01*
X124143339Y-85549000D01*
X124188674Y-85553465D01*
G37*
G36*
X118188674Y-85553465D02*
G01*
X118226367Y-85564899D01*
X118261103Y-85583466D01*
X118291548Y-85608452D01*
X118316534Y-85638897D01*
X118335101Y-85673633D01*
X118346535Y-85711326D01*
X118351000Y-85756661D01*
X118351000Y-86593339D01*
X118346535Y-86638674D01*
X118335101Y-86676367D01*
X118316534Y-86711103D01*
X118291548Y-86741548D01*
X118261103Y-86766534D01*
X118226367Y-86785101D01*
X118188674Y-86796535D01*
X118143339Y-86801000D01*
X117056661Y-86801000D01*
X117011326Y-86796535D01*
X116973633Y-86785101D01*
X116938897Y-86766534D01*
X116908452Y-86741548D01*
X116883466Y-86711103D01*
X116864899Y-86676367D01*
X116853465Y-86638674D01*
X116849000Y-86593339D01*
X116849000Y-85756661D01*
X116853465Y-85711326D01*
X116864899Y-85673633D01*
X116883466Y-85638897D01*
X116908452Y-85608452D01*
X116938897Y-85583466D01*
X116973633Y-85564899D01*
X117011326Y-85553465D01*
X117056661Y-85549000D01*
X118143339Y-85549000D01*
X118188674Y-85553465D01*
G37*
G36*
X122188674Y-85553465D02*
G01*
X122226367Y-85564899D01*
X122261103Y-85583466D01*
X122291548Y-85608452D01*
X122316534Y-85638897D01*
X122335101Y-85673633D01*
X122346535Y-85711326D01*
X122351000Y-85756661D01*
X122351000Y-86593339D01*
X122346535Y-86638674D01*
X122335101Y-86676367D01*
X122316534Y-86711103D01*
X122291548Y-86741548D01*
X122261103Y-86766534D01*
X122226367Y-86785101D01*
X122188674Y-86796535D01*
X122143339Y-86801000D01*
X121056661Y-86801000D01*
X121011326Y-86796535D01*
X120973633Y-86785101D01*
X120938897Y-86766534D01*
X120908452Y-86741548D01*
X120883466Y-86711103D01*
X120864899Y-86676367D01*
X120853465Y-86638674D01*
X120849000Y-86593339D01*
X120849000Y-85756661D01*
X120853465Y-85711326D01*
X120864899Y-85673633D01*
X120883466Y-85638897D01*
X120908452Y-85608452D01*
X120938897Y-85583466D01*
X120973633Y-85564899D01*
X121011326Y-85553465D01*
X121056661Y-85549000D01*
X122143339Y-85549000D01*
X122188674Y-85553465D01*
G37*
G36*
X120188674Y-85553465D02*
G01*
X120226367Y-85564899D01*
X120261103Y-85583466D01*
X120291548Y-85608452D01*
X120316534Y-85638897D01*
X120335101Y-85673633D01*
X120346535Y-85711326D01*
X120351000Y-85756661D01*
X120351000Y-86593339D01*
X120346535Y-86638674D01*
X120335101Y-86676367D01*
X120316534Y-86711103D01*
X120291548Y-86741548D01*
X120261103Y-86766534D01*
X120226367Y-86785101D01*
X120188674Y-86796535D01*
X120143339Y-86801000D01*
X119056661Y-86801000D01*
X119011326Y-86796535D01*
X118973633Y-86785101D01*
X118938897Y-86766534D01*
X118908452Y-86741548D01*
X118883466Y-86711103D01*
X118864899Y-86676367D01*
X118853465Y-86638674D01*
X118849000Y-86593339D01*
X118849000Y-85756661D01*
X118853465Y-85711326D01*
X118864899Y-85673633D01*
X118883466Y-85638897D01*
X118908452Y-85608452D01*
X118938897Y-85583466D01*
X118973633Y-85564899D01*
X119011326Y-85553465D01*
X119056661Y-85549000D01*
X120143339Y-85549000D01*
X120188674Y-85553465D01*
G37*
G36*
X114088674Y-85553465D02*
G01*
X114126367Y-85564899D01*
X114161103Y-85583466D01*
X114191548Y-85608452D01*
X114216534Y-85638897D01*
X114235101Y-85673633D01*
X114246535Y-85711326D01*
X114251000Y-85756661D01*
X114251000Y-86593339D01*
X114246535Y-86638674D01*
X114235101Y-86676367D01*
X114216534Y-86711103D01*
X114191548Y-86741548D01*
X114161103Y-86766534D01*
X114126367Y-86785101D01*
X114088674Y-86796535D01*
X114043339Y-86801000D01*
X112956661Y-86801000D01*
X112911326Y-86796535D01*
X112873633Y-86785101D01*
X112838897Y-86766534D01*
X112808452Y-86741548D01*
X112783466Y-86711103D01*
X112764899Y-86676367D01*
X112753465Y-86638674D01*
X112749000Y-86593339D01*
X112749000Y-85756661D01*
X112753465Y-85711326D01*
X112764899Y-85673633D01*
X112783466Y-85638897D01*
X112808452Y-85608452D01*
X112838897Y-85583466D01*
X112873633Y-85564899D01*
X112911326Y-85553465D01*
X112956661Y-85549000D01*
X114043339Y-85549000D01*
X114088674Y-85553465D01*
G37*
G36*
X131913512Y-84563927D02*
G01*
X132062812Y-84593624D01*
X132226784Y-84661544D01*
X132374354Y-84760147D01*
X132499853Y-84885646D01*
X132598456Y-85033216D01*
X132666376Y-85197188D01*
X132696073Y-85346488D01*
X132701000Y-85371258D01*
X132701000Y-85548742D01*
X132699908Y-85554230D01*
X132666376Y-85722812D01*
X132598456Y-85886784D01*
X132499853Y-86034354D01*
X132374354Y-86159853D01*
X132226784Y-86258456D01*
X132062812Y-86326376D01*
X131913512Y-86356073D01*
X131888742Y-86361000D01*
X131711258Y-86361000D01*
X131686488Y-86356073D01*
X131537188Y-86326376D01*
X131373216Y-86258456D01*
X131225646Y-86159853D01*
X131100147Y-86034354D01*
X131001544Y-85886784D01*
X130933624Y-85722812D01*
X130900092Y-85554230D01*
X130899000Y-85548742D01*
X130899000Y-85371258D01*
X130903927Y-85346488D01*
X130933624Y-85197188D01*
X131001544Y-85033216D01*
X131100147Y-84885646D01*
X131225646Y-84760147D01*
X131373216Y-84661544D01*
X131537188Y-84593624D01*
X131686488Y-84563927D01*
X131711258Y-84559000D01*
X131888742Y-84559000D01*
X131913512Y-84563927D01*
G37*
G36*
X102513512Y-84543927D02*
G01*
X102662812Y-84573624D01*
X102826784Y-84641544D01*
X102974354Y-84740147D01*
X103099853Y-84865646D01*
X103198456Y-85013216D01*
X103266376Y-85177188D01*
X103301000Y-85351259D01*
X103301000Y-85528741D01*
X103266376Y-85702812D01*
X103198456Y-85866784D01*
X103099853Y-86014354D01*
X102974354Y-86139853D01*
X102826784Y-86238456D01*
X102662812Y-86306376D01*
X102513512Y-86336073D01*
X102488742Y-86341000D01*
X102311258Y-86341000D01*
X102286488Y-86336073D01*
X102137188Y-86306376D01*
X101973216Y-86238456D01*
X101825646Y-86139853D01*
X101700147Y-86014354D01*
X101601544Y-85866784D01*
X101533624Y-85702812D01*
X101499000Y-85528741D01*
X101499000Y-85351259D01*
X101533624Y-85177188D01*
X101601544Y-85013216D01*
X101700147Y-84865646D01*
X101825646Y-84740147D01*
X101973216Y-84641544D01*
X102137188Y-84573624D01*
X102286488Y-84543927D01*
X102311258Y-84539000D01*
X102488742Y-84539000D01*
X102513512Y-84543927D01*
G37*
G36*
X120511766Y-81201899D02*
G01*
X120619142Y-81246376D01*
X120643890Y-81256627D01*
X120762798Y-81336079D01*
X120863921Y-81437202D01*
X120863922Y-81437204D01*
X120943374Y-81556112D01*
X120998101Y-81688234D01*
X121026000Y-81828494D01*
X121026000Y-83851000D01*
X119574000Y-83851000D01*
X119574000Y-81828494D01*
X119601899Y-81688234D01*
X119656626Y-81556112D01*
X119736078Y-81437204D01*
X119736079Y-81437202D01*
X119837202Y-81336079D01*
X119956110Y-81256627D01*
X119980858Y-81246376D01*
X120088234Y-81201899D01*
X120228494Y-81174000D01*
X120371506Y-81174000D01*
X120511766Y-81201899D01*
G37*
G36*
X122511766Y-81201899D02*
G01*
X122619142Y-81246376D01*
X122643890Y-81256627D01*
X122762798Y-81336079D01*
X122863921Y-81437202D01*
X122863922Y-81437204D01*
X122943374Y-81556112D01*
X122998101Y-81688234D01*
X123026000Y-81828494D01*
X123026000Y-83851000D01*
X121574000Y-83851000D01*
X121574000Y-81828494D01*
X121601899Y-81688234D01*
X121656626Y-81556112D01*
X121736078Y-81437204D01*
X121736079Y-81437202D01*
X121837202Y-81336079D01*
X121956110Y-81256627D01*
X121980858Y-81246376D01*
X122088234Y-81201899D01*
X122228494Y-81174000D01*
X122371506Y-81174000D01*
X122511766Y-81201899D01*
G37*
G36*
X118511766Y-81201899D02*
G01*
X118619142Y-81246376D01*
X118643890Y-81256627D01*
X118762798Y-81336079D01*
X118863921Y-81437202D01*
X118863922Y-81437204D01*
X118943374Y-81556112D01*
X118998101Y-81688234D01*
X119026000Y-81828494D01*
X119026000Y-83851000D01*
X117574000Y-83851000D01*
X117574000Y-81828494D01*
X117601899Y-81688234D01*
X117656626Y-81556112D01*
X117736078Y-81437204D01*
X117736079Y-81437202D01*
X117837202Y-81336079D01*
X117956110Y-81256627D01*
X117980858Y-81246376D01*
X118088234Y-81201899D01*
X118228494Y-81174000D01*
X118371506Y-81174000D01*
X118511766Y-81201899D01*
G37*
G36*
X116511766Y-81201899D02*
G01*
X116619142Y-81246376D01*
X116643890Y-81256627D01*
X116762798Y-81336079D01*
X116863921Y-81437202D01*
X116863922Y-81437204D01*
X116943374Y-81556112D01*
X116998101Y-81688234D01*
X117026000Y-81828494D01*
X117026000Y-83851000D01*
X115574000Y-83851000D01*
X115574000Y-81828494D01*
X115601899Y-81688234D01*
X115656626Y-81556112D01*
X115736078Y-81437204D01*
X115736079Y-81437202D01*
X115837202Y-81336079D01*
X115956110Y-81256627D01*
X115980858Y-81246376D01*
X116088234Y-81201899D01*
X116228494Y-81174000D01*
X116371506Y-81174000D01*
X116511766Y-81201899D01*
G37*
G36*
X124511766Y-81201899D02*
G01*
X124619142Y-81246376D01*
X124643890Y-81256627D01*
X124762798Y-81336079D01*
X124863921Y-81437202D01*
X124863922Y-81437204D01*
X124943374Y-81556112D01*
X124998101Y-81688234D01*
X125026000Y-81828494D01*
X125026000Y-83851000D01*
X123574000Y-83851000D01*
X123574000Y-81828494D01*
X123601899Y-81688234D01*
X123656626Y-81556112D01*
X123736078Y-81437204D01*
X123736079Y-81437202D01*
X123837202Y-81336079D01*
X123956110Y-81256627D01*
X123980858Y-81246376D01*
X124088234Y-81201899D01*
X124228494Y-81174000D01*
X124371506Y-81174000D01*
X124511766Y-81201899D01*
G37*
G36*
X114511766Y-81201899D02*
G01*
X114619142Y-81246376D01*
X114643890Y-81256627D01*
X114762798Y-81336079D01*
X114863921Y-81437202D01*
X114863922Y-81437204D01*
X114943374Y-81556112D01*
X114998101Y-81688234D01*
X115026000Y-81828494D01*
X115026000Y-83851000D01*
X113574000Y-83851000D01*
X113574000Y-81828494D01*
X113601899Y-81688234D01*
X113656626Y-81556112D01*
X113736078Y-81437204D01*
X113736079Y-81437202D01*
X113837202Y-81336079D01*
X113956110Y-81256627D01*
X113980858Y-81246376D01*
X114088234Y-81201899D01*
X114228494Y-81174000D01*
X114371506Y-81174000D01*
X114511766Y-81201899D01*
G37*
G36*
X112511766Y-81201899D02*
G01*
X112619142Y-81246376D01*
X112643890Y-81256627D01*
X112762798Y-81336079D01*
X112863921Y-81437202D01*
X112863922Y-81437204D01*
X112943374Y-81556112D01*
X112998101Y-81688234D01*
X113026000Y-81828494D01*
X113026000Y-83851000D01*
X111574000Y-83851000D01*
X111574000Y-81828494D01*
X111601899Y-81688234D01*
X111656626Y-81556112D01*
X111736078Y-81437204D01*
X111736079Y-81437202D01*
X111837202Y-81336079D01*
X111956110Y-81256627D01*
X111980858Y-81246376D01*
X112088234Y-81201899D01*
X112228494Y-81174000D01*
X112371506Y-81174000D01*
X112511766Y-81201899D01*
G37*
G36*
X110511766Y-81201899D02*
G01*
X110619142Y-81246376D01*
X110643890Y-81256627D01*
X110762798Y-81336079D01*
X110863921Y-81437202D01*
X110863922Y-81437204D01*
X110943374Y-81556112D01*
X110998101Y-81688234D01*
X111026000Y-81828494D01*
X111026000Y-83851000D01*
X109574000Y-83851000D01*
X109574000Y-81828494D01*
X109601899Y-81688234D01*
X109656626Y-81556112D01*
X109736078Y-81437204D01*
X109736079Y-81437202D01*
X109837202Y-81336079D01*
X109956110Y-81256627D01*
X109980858Y-81246376D01*
X110088234Y-81201899D01*
X110228494Y-81174000D01*
X110371506Y-81174000D01*
X110511766Y-81201899D01*
G37*
G36*
X131913512Y-82023927D02*
G01*
X132062812Y-82053624D01*
X132226784Y-82121544D01*
X132374354Y-82220147D01*
X132499853Y-82345646D01*
X132598456Y-82493216D01*
X132666376Y-82657188D01*
X132701000Y-82831259D01*
X132701000Y-83008741D01*
X132666376Y-83182812D01*
X132598456Y-83346784D01*
X132499853Y-83494354D01*
X132374354Y-83619853D01*
X132226784Y-83718456D01*
X132062812Y-83786376D01*
X131913512Y-83816073D01*
X131888742Y-83821000D01*
X131711258Y-83821000D01*
X131686488Y-83816073D01*
X131537188Y-83786376D01*
X131373216Y-83718456D01*
X131225646Y-83619853D01*
X131100147Y-83494354D01*
X131001544Y-83346784D01*
X130933624Y-83182812D01*
X130899000Y-83008741D01*
X130899000Y-82831259D01*
X130933624Y-82657188D01*
X131001544Y-82493216D01*
X131100147Y-82345646D01*
X131225646Y-82220147D01*
X131373216Y-82121544D01*
X131537188Y-82053624D01*
X131686488Y-82023927D01*
X131711258Y-82019000D01*
X131888742Y-82019000D01*
X131913512Y-82023927D01*
G37*
G36*
X102513512Y-82003927D02*
G01*
X102662812Y-82033624D01*
X102826784Y-82101544D01*
X102974354Y-82200147D01*
X103099853Y-82325646D01*
X103198456Y-82473216D01*
X103266376Y-82637188D01*
X103301000Y-82811259D01*
X103301000Y-82988741D01*
X103266376Y-83162812D01*
X103198456Y-83326784D01*
X103099853Y-83474354D01*
X102974354Y-83599853D01*
X102826784Y-83698456D01*
X102662812Y-83766376D01*
X102513512Y-83796073D01*
X102488742Y-83801000D01*
X102311258Y-83801000D01*
X102286488Y-83796073D01*
X102137188Y-83766376D01*
X101973216Y-83698456D01*
X101825646Y-83599853D01*
X101700147Y-83474354D01*
X101601544Y-83326784D01*
X101533624Y-83162812D01*
X101499000Y-82988741D01*
X101499000Y-82811259D01*
X101533624Y-82637188D01*
X101601544Y-82473216D01*
X101700147Y-82325646D01*
X101825646Y-82200147D01*
X101973216Y-82101544D01*
X102137188Y-82033624D01*
X102286488Y-82003927D01*
X102311258Y-81999000D01*
X102488742Y-81999000D01*
X102513512Y-82003927D01*
G37*
G36*
X131913512Y-79483927D02*
G01*
X132062812Y-79513624D01*
X132226784Y-79581544D01*
X132374354Y-79680147D01*
X132499853Y-79805646D01*
X132598456Y-79953216D01*
X132666376Y-80117188D01*
X132701000Y-80291259D01*
X132701000Y-80468741D01*
X132666376Y-80642812D01*
X132598456Y-80806784D01*
X132499853Y-80954354D01*
X132374354Y-81079853D01*
X132226784Y-81178456D01*
X132062812Y-81246376D01*
X131913512Y-81276073D01*
X131888742Y-81281000D01*
X131711258Y-81281000D01*
X131686488Y-81276073D01*
X131537188Y-81246376D01*
X131373216Y-81178456D01*
X131225646Y-81079853D01*
X131100147Y-80954354D01*
X131001544Y-80806784D01*
X130933624Y-80642812D01*
X130899000Y-80468741D01*
X130899000Y-80291259D01*
X130933624Y-80117188D01*
X131001544Y-79953216D01*
X131100147Y-79805646D01*
X131225646Y-79680147D01*
X131373216Y-79581544D01*
X131537188Y-79513624D01*
X131686488Y-79483927D01*
X131711258Y-79479000D01*
X131888742Y-79479000D01*
X131913512Y-79483927D01*
G37*
G36*
X102513512Y-79463927D02*
G01*
X102662812Y-79493624D01*
X102826784Y-79561544D01*
X102974354Y-79660147D01*
X103099853Y-79785646D01*
X103198456Y-79933216D01*
X103266376Y-80097188D01*
X103301000Y-80271259D01*
X103301000Y-80448741D01*
X103266376Y-80622812D01*
X103198456Y-80786784D01*
X103099853Y-80934354D01*
X102974354Y-81059853D01*
X102826784Y-81158456D01*
X102662812Y-81226376D01*
X102513512Y-81256073D01*
X102488742Y-81261000D01*
X102311258Y-81261000D01*
X102286488Y-81256073D01*
X102137188Y-81226376D01*
X101973216Y-81158456D01*
X101825646Y-81059853D01*
X101700147Y-80934354D01*
X101601544Y-80786784D01*
X101533624Y-80622812D01*
X101499000Y-80448741D01*
X101499000Y-80271259D01*
X101533624Y-80097188D01*
X101601544Y-79933216D01*
X101700147Y-79785646D01*
X101825646Y-79660147D01*
X101973216Y-79561544D01*
X102137188Y-79493624D01*
X102286488Y-79463927D01*
X102311258Y-79459000D01*
X102488742Y-79459000D01*
X102513512Y-79463927D01*
G37*
G36*
X131913512Y-76943927D02*
G01*
X132062812Y-76973624D01*
X132226784Y-77041544D01*
X132374354Y-77140147D01*
X132499853Y-77265646D01*
X132598456Y-77413216D01*
X132666376Y-77577188D01*
X132701000Y-77751259D01*
X132701000Y-77928741D01*
X132666376Y-78102812D01*
X132598456Y-78266784D01*
X132499853Y-78414354D01*
X132374354Y-78539853D01*
X132226784Y-78638456D01*
X132062812Y-78706376D01*
X131913512Y-78736073D01*
X131888742Y-78741000D01*
X131711258Y-78741000D01*
X131686488Y-78736073D01*
X131537188Y-78706376D01*
X131373216Y-78638456D01*
X131225646Y-78539853D01*
X131100147Y-78414354D01*
X131001544Y-78266784D01*
X130933624Y-78102812D01*
X130899000Y-77928741D01*
X130899000Y-77751259D01*
X130933624Y-77577188D01*
X131001544Y-77413216D01*
X131100147Y-77265646D01*
X131225646Y-77140147D01*
X131373216Y-77041544D01*
X131537188Y-76973624D01*
X131686488Y-76943927D01*
X131711258Y-76939000D01*
X131888742Y-76939000D01*
X131913512Y-76943927D01*
G37*
G36*
X102513512Y-76923927D02*
G01*
X102662812Y-76953624D01*
X102826784Y-77021544D01*
X102974354Y-77120147D01*
X103099853Y-77245646D01*
X103198456Y-77393216D01*
X103266376Y-77557188D01*
X103301000Y-77731259D01*
X103301000Y-77908741D01*
X103266376Y-78082812D01*
X103198456Y-78246784D01*
X103099853Y-78394354D01*
X102974354Y-78519853D01*
X102826784Y-78618456D01*
X102662812Y-78686376D01*
X102513512Y-78716073D01*
X102488742Y-78721000D01*
X102311258Y-78721000D01*
X102286488Y-78716073D01*
X102137188Y-78686376D01*
X101973216Y-78618456D01*
X101825646Y-78519853D01*
X101700147Y-78394354D01*
X101601544Y-78246784D01*
X101533624Y-78082812D01*
X101499000Y-77908741D01*
X101499000Y-77731259D01*
X101533624Y-77557188D01*
X101601544Y-77393216D01*
X101700147Y-77245646D01*
X101825646Y-77120147D01*
X101973216Y-77021544D01*
X102137188Y-76953624D01*
X102286488Y-76923927D01*
X102311258Y-76919000D01*
X102488742Y-76919000D01*
X102513512Y-76923927D01*
G37*
G36*
X131913512Y-74403927D02*
G01*
X132062812Y-74433624D01*
X132226784Y-74501544D01*
X132374354Y-74600147D01*
X132499853Y-74725646D01*
X132598456Y-74873216D01*
X132666376Y-75037188D01*
X132701000Y-75211259D01*
X132701000Y-75388741D01*
X132666376Y-75562812D01*
X132598456Y-75726784D01*
X132499853Y-75874354D01*
X132374354Y-75999853D01*
X132226784Y-76098456D01*
X132062812Y-76166376D01*
X131913512Y-76196073D01*
X131888742Y-76201000D01*
X131711258Y-76201000D01*
X131686488Y-76196073D01*
X131537188Y-76166376D01*
X131373216Y-76098456D01*
X131225646Y-75999853D01*
X131100147Y-75874354D01*
X131001544Y-75726784D01*
X130933624Y-75562812D01*
X130899000Y-75388741D01*
X130899000Y-75211259D01*
X130933624Y-75037188D01*
X131001544Y-74873216D01*
X131100147Y-74725646D01*
X131225646Y-74600147D01*
X131373216Y-74501544D01*
X131537188Y-74433624D01*
X131686488Y-74403927D01*
X131711258Y-74399000D01*
X131888742Y-74399000D01*
X131913512Y-74403927D01*
G37*
G36*
X102513512Y-74383927D02*
G01*
X102662812Y-74413624D01*
X102826784Y-74481544D01*
X102974354Y-74580147D01*
X103099853Y-74705646D01*
X103198456Y-74853216D01*
X103266376Y-75017188D01*
X103301000Y-75191259D01*
X103301000Y-75368741D01*
X103266376Y-75542812D01*
X103198456Y-75706784D01*
X103099853Y-75854354D01*
X102974354Y-75979853D01*
X102826784Y-76078456D01*
X102662812Y-76146376D01*
X102513512Y-76176073D01*
X102488742Y-76181000D01*
X102311258Y-76181000D01*
X102286488Y-76176073D01*
X102137188Y-76146376D01*
X101973216Y-76078456D01*
X101825646Y-75979853D01*
X101700147Y-75854354D01*
X101601544Y-75706784D01*
X101533624Y-75542812D01*
X101499000Y-75368741D01*
X101499000Y-75191259D01*
X101533624Y-75017188D01*
X101601544Y-74853216D01*
X101700147Y-74705646D01*
X101825646Y-74580147D01*
X101973216Y-74481544D01*
X102137188Y-74413624D01*
X102286488Y-74383927D01*
X102311258Y-74379000D01*
X102488742Y-74379000D01*
X102513512Y-74383927D01*
G37*
G36*
X131913512Y-71863927D02*
G01*
X132062812Y-71893624D01*
X132226784Y-71961544D01*
X132374354Y-72060147D01*
X132499853Y-72185646D01*
X132598456Y-72333216D01*
X132666376Y-72497188D01*
X132701000Y-72671259D01*
X132701000Y-72848741D01*
X132666376Y-73022812D01*
X132598456Y-73186784D01*
X132499853Y-73334354D01*
X132374354Y-73459853D01*
X132226784Y-73558456D01*
X132062812Y-73626376D01*
X131913512Y-73656073D01*
X131888742Y-73661000D01*
X131711258Y-73661000D01*
X131686488Y-73656073D01*
X131537188Y-73626376D01*
X131373216Y-73558456D01*
X131225646Y-73459853D01*
X131100147Y-73334354D01*
X131001544Y-73186784D01*
X130933624Y-73022812D01*
X130899000Y-72848741D01*
X130899000Y-72671259D01*
X130933624Y-72497188D01*
X131001544Y-72333216D01*
X131100147Y-72185646D01*
X131225646Y-72060147D01*
X131373216Y-71961544D01*
X131537188Y-71893624D01*
X131686488Y-71863927D01*
X131711258Y-71859000D01*
X131888742Y-71859000D01*
X131913512Y-71863927D01*
G37*
G36*
X102513512Y-71843927D02*
G01*
X102662812Y-71873624D01*
X102826784Y-71941544D01*
X102974354Y-72040147D01*
X103099853Y-72165646D01*
X103198456Y-72313216D01*
X103266376Y-72477188D01*
X103301000Y-72651259D01*
X103301000Y-72828741D01*
X103266376Y-73002812D01*
X103198456Y-73166784D01*
X103099853Y-73314354D01*
X102974354Y-73439853D01*
X102826784Y-73538456D01*
X102662812Y-73606376D01*
X102513512Y-73636073D01*
X102488742Y-73641000D01*
X102311258Y-73641000D01*
X102286488Y-73636073D01*
X102137188Y-73606376D01*
X101973216Y-73538456D01*
X101825646Y-73439853D01*
X101700147Y-73314354D01*
X101601544Y-73166784D01*
X101533624Y-73002812D01*
X101499000Y-72828741D01*
X101499000Y-72651259D01*
X101533624Y-72477188D01*
X101601544Y-72313216D01*
X101700147Y-72165646D01*
X101825646Y-72040147D01*
X101973216Y-71941544D01*
X102137188Y-71873624D01*
X102286488Y-71843927D01*
X102311258Y-71839000D01*
X102488742Y-71839000D01*
X102513512Y-71843927D01*
G37*
G36*
X131913512Y-69323927D02*
G01*
X132062812Y-69353624D01*
X132226784Y-69421544D01*
X132374354Y-69520147D01*
X132499853Y-69645646D01*
X132598456Y-69793216D01*
X132666376Y-69957188D01*
X132701000Y-70131259D01*
X132701000Y-70308741D01*
X132666376Y-70482812D01*
X132598456Y-70646784D01*
X132499853Y-70794354D01*
X132374354Y-70919853D01*
X132226784Y-71018456D01*
X132062812Y-71086376D01*
X131913512Y-71116073D01*
X131888742Y-71121000D01*
X131711258Y-71121000D01*
X131686488Y-71116073D01*
X131537188Y-71086376D01*
X131373216Y-71018456D01*
X131225646Y-70919853D01*
X131100147Y-70794354D01*
X131001544Y-70646784D01*
X130933624Y-70482812D01*
X130899000Y-70308741D01*
X130899000Y-70131259D01*
X130933624Y-69957188D01*
X131001544Y-69793216D01*
X131100147Y-69645646D01*
X131225646Y-69520147D01*
X131373216Y-69421544D01*
X131537188Y-69353624D01*
X131686488Y-69323927D01*
X131711258Y-69319000D01*
X131888742Y-69319000D01*
X131913512Y-69323927D01*
G37*
G36*
X102513512Y-69303927D02*
G01*
X102662812Y-69333624D01*
X102826784Y-69401544D01*
X102974354Y-69500147D01*
X103099853Y-69625646D01*
X103198456Y-69773216D01*
X103266376Y-69937188D01*
X103301000Y-70111259D01*
X103301000Y-70288741D01*
X103266376Y-70462812D01*
X103198456Y-70626784D01*
X103099853Y-70774354D01*
X102974354Y-70899853D01*
X102826784Y-70998456D01*
X102662812Y-71066376D01*
X102513512Y-71096073D01*
X102488742Y-71101000D01*
X102311258Y-71101000D01*
X102286488Y-71096073D01*
X102137188Y-71066376D01*
X101973216Y-70998456D01*
X101825646Y-70899853D01*
X101700147Y-70774354D01*
X101601544Y-70626784D01*
X101533624Y-70462812D01*
X101499000Y-70288741D01*
X101499000Y-70111259D01*
X101533624Y-69937188D01*
X101601544Y-69773216D01*
X101700147Y-69625646D01*
X101825646Y-69500147D01*
X101973216Y-69401544D01*
X102137188Y-69333624D01*
X102286488Y-69303927D01*
X102311258Y-69299000D01*
X102488742Y-69299000D01*
X102513512Y-69303927D01*
G37*
G36*
X103301000Y-68501000D02*
G01*
X101499000Y-68501000D01*
X101499000Y-66699000D01*
X103301000Y-66699000D01*
X103301000Y-68501000D01*
G37*
M02*
