G04 #@! TF.GenerationSoftware,KiCad,Pcbnew,(5.1.5-0-10_14)*
G04 #@! TF.CreationDate,2020-11-09T16:05:27+01:00*
G04 #@! TF.ProjectId,ATmega128_CC1101_Board,41546d65-6761-4313-9238-5f4343313130,rev?*
G04 #@! TF.SameCoordinates,Original*
G04 #@! TF.FileFunction,Legend,Bot*
G04 #@! TF.FilePolarity,Positive*
%FSLAX46Y46*%
G04 Gerber Fmt 4.6, Leading zero omitted, Abs format (unit mm)*
G04 Created by KiCad (PCBNEW (5.1.5-0-10_14)) date 2020-11-09 16:05:27*
%MOMM*%
%LPD*%
G04 APERTURE LIST*
%ADD10C,0.150000*%
%ADD11C,0.120000*%
G04 APERTURE END LIST*
D10*
X118197619Y-93571428D02*
X117097619Y-93571428D01*
X117883333Y-93938095D01*
X117097619Y-94304761D01*
X118197619Y-94304761D01*
X118197619Y-94828571D02*
X117097619Y-94828571D01*
X118145238Y-95300000D02*
X118197619Y-95457142D01*
X118197619Y-95719047D01*
X118145238Y-95823809D01*
X118092857Y-95876190D01*
X117988095Y-95928571D01*
X117883333Y-95928571D01*
X117778571Y-95876190D01*
X117726190Y-95823809D01*
X117673809Y-95719047D01*
X117621428Y-95509523D01*
X117569047Y-95404761D01*
X117516666Y-95352380D01*
X117411904Y-95300000D01*
X117307142Y-95300000D01*
X117202380Y-95352380D01*
X117150000Y-95404761D01*
X117097619Y-95509523D01*
X117097619Y-95771428D01*
X117150000Y-95928571D01*
X117097619Y-96609523D02*
X117097619Y-96819047D01*
X117150000Y-96923809D01*
X117254761Y-97028571D01*
X117464285Y-97080952D01*
X117830952Y-97080952D01*
X118040476Y-97028571D01*
X118145238Y-96923809D01*
X118197619Y-96819047D01*
X118197619Y-96609523D01*
X118145238Y-96504761D01*
X118040476Y-96400000D01*
X117830952Y-96347619D01*
X117464285Y-96347619D01*
X117254761Y-96400000D01*
X117150000Y-96504761D01*
X117097619Y-96609523D01*
X120297619Y-93571428D02*
X119197619Y-93571428D01*
X119983333Y-93938095D01*
X119197619Y-94304761D01*
X120297619Y-94304761D01*
X119197619Y-95038095D02*
X119197619Y-95247619D01*
X119250000Y-95352380D01*
X119354761Y-95457142D01*
X119564285Y-95509523D01*
X119930952Y-95509523D01*
X120140476Y-95457142D01*
X120245238Y-95352380D01*
X120297619Y-95247619D01*
X120297619Y-95038095D01*
X120245238Y-94933333D01*
X120140476Y-94828571D01*
X119930952Y-94776190D01*
X119564285Y-94776190D01*
X119354761Y-94828571D01*
X119250000Y-94933333D01*
X119197619Y-95038095D01*
X120245238Y-95928571D02*
X120297619Y-96085714D01*
X120297619Y-96347619D01*
X120245238Y-96452380D01*
X120192857Y-96504761D01*
X120088095Y-96557142D01*
X119983333Y-96557142D01*
X119878571Y-96504761D01*
X119826190Y-96452380D01*
X119773809Y-96347619D01*
X119721428Y-96138095D01*
X119669047Y-96033333D01*
X119616666Y-95980952D01*
X119511904Y-95928571D01*
X119407142Y-95928571D01*
X119302380Y-95980952D01*
X119250000Y-96033333D01*
X119197619Y-96138095D01*
X119197619Y-96400000D01*
X119250000Y-96557142D01*
X120297619Y-97028571D02*
X119197619Y-97028571D01*
X122197619Y-94197619D02*
X121673809Y-93830952D01*
X122197619Y-93569047D02*
X121097619Y-93569047D01*
X121097619Y-93988095D01*
X121150000Y-94092857D01*
X121202380Y-94145238D01*
X121307142Y-94197619D01*
X121464285Y-94197619D01*
X121569047Y-94145238D01*
X121621428Y-94092857D01*
X121673809Y-93988095D01*
X121673809Y-93569047D01*
X122145238Y-94616666D02*
X122197619Y-94773809D01*
X122197619Y-95035714D01*
X122145238Y-95140476D01*
X122092857Y-95192857D01*
X121988095Y-95245238D01*
X121883333Y-95245238D01*
X121778571Y-95192857D01*
X121726190Y-95140476D01*
X121673809Y-95035714D01*
X121621428Y-94826190D01*
X121569047Y-94721428D01*
X121516666Y-94669047D01*
X121411904Y-94616666D01*
X121307142Y-94616666D01*
X121202380Y-94669047D01*
X121150000Y-94721428D01*
X121097619Y-94826190D01*
X121097619Y-95088095D01*
X121150000Y-95245238D01*
X121097619Y-95559523D02*
X121097619Y-96188095D01*
X122197619Y-95873809D02*
X121097619Y-95873809D01*
X113945238Y-93485714D02*
X113997619Y-93642857D01*
X113997619Y-93904761D01*
X113945238Y-94009523D01*
X113892857Y-94061904D01*
X113788095Y-94114285D01*
X113683333Y-94114285D01*
X113578571Y-94061904D01*
X113526190Y-94009523D01*
X113473809Y-93904761D01*
X113421428Y-93695238D01*
X113369047Y-93590476D01*
X113316666Y-93538095D01*
X113211904Y-93485714D01*
X113107142Y-93485714D01*
X113002380Y-93538095D01*
X112950000Y-93590476D01*
X112897619Y-93695238D01*
X112897619Y-93957142D01*
X112950000Y-94114285D01*
X113892857Y-95214285D02*
X113945238Y-95161904D01*
X113997619Y-95004761D01*
X113997619Y-94900000D01*
X113945238Y-94742857D01*
X113840476Y-94638095D01*
X113735714Y-94585714D01*
X113526190Y-94533333D01*
X113369047Y-94533333D01*
X113159523Y-94585714D01*
X113054761Y-94638095D01*
X112950000Y-94742857D01*
X112897619Y-94900000D01*
X112897619Y-95004761D01*
X112950000Y-95161904D01*
X113002380Y-95214285D01*
X113997619Y-95685714D02*
X112897619Y-95685714D01*
X113997619Y-96314285D02*
X113369047Y-95842857D01*
X112897619Y-96314285D02*
X113526190Y-95685714D01*
X115778571Y-93485714D02*
X115778571Y-94323809D01*
X116197619Y-93904761D02*
X115359523Y-93904761D01*
X115097619Y-95371428D02*
X115097619Y-94847619D01*
X115621428Y-94795238D01*
X115569047Y-94847619D01*
X115516666Y-94952380D01*
X115516666Y-95214285D01*
X115569047Y-95319047D01*
X115621428Y-95371428D01*
X115726190Y-95423809D01*
X115988095Y-95423809D01*
X116092857Y-95371428D01*
X116145238Y-95319047D01*
X116197619Y-95214285D01*
X116197619Y-94952380D01*
X116145238Y-94847619D01*
X116092857Y-94795238D01*
X115097619Y-95738095D02*
X116197619Y-96104761D01*
X115097619Y-96471428D01*
X123150000Y-94061904D02*
X123097619Y-93957142D01*
X123097619Y-93800000D01*
X123150000Y-93642857D01*
X123254761Y-93538095D01*
X123359523Y-93485714D01*
X123569047Y-93433333D01*
X123726190Y-93433333D01*
X123935714Y-93485714D01*
X124040476Y-93538095D01*
X124145238Y-93642857D01*
X124197619Y-93800000D01*
X124197619Y-93904761D01*
X124145238Y-94061904D01*
X124092857Y-94114285D01*
X123726190Y-94114285D01*
X123726190Y-93904761D01*
X124197619Y-94585714D02*
X123097619Y-94585714D01*
X124197619Y-95214285D01*
X123097619Y-95214285D01*
X124197619Y-95738095D02*
X123097619Y-95738095D01*
X123097619Y-96000000D01*
X123150000Y-96157142D01*
X123254761Y-96261904D01*
X123359523Y-96314285D01*
X123569047Y-96366666D01*
X123726190Y-96366666D01*
X123935714Y-96314285D01*
X124040476Y-96261904D01*
X124145238Y-96157142D01*
X124197619Y-96000000D01*
X124197619Y-95738095D01*
X109800000Y-91725000D02*
X109800000Y-93075000D01*
X104675000Y-91725000D02*
X104675000Y-87075000D01*
X109925000Y-91725000D02*
X109925000Y-87075000D01*
X104675000Y-91725000D02*
X104900000Y-91725000D01*
X104675000Y-87075000D02*
X104900000Y-87075000D01*
X109925000Y-87075000D02*
X109700000Y-87075000D01*
X109925000Y-91725000D02*
X109800000Y-91725000D01*
D11*
X122890000Y-87461252D02*
X122890000Y-86938748D01*
X124310000Y-87461252D02*
X124310000Y-86938748D01*
X116890000Y-87461252D02*
X116890000Y-86938748D01*
X118310000Y-87461252D02*
X118310000Y-86938748D01*
X114890000Y-87461252D02*
X114890000Y-86938748D01*
X116310000Y-87461252D02*
X116310000Y-86938748D01*
X122310000Y-86938748D02*
X122310000Y-87461252D01*
X120890000Y-86938748D02*
X120890000Y-87461252D01*
X120310000Y-86938748D02*
X120310000Y-87461252D01*
X118890000Y-86938748D02*
X118890000Y-87461252D01*
X114210000Y-86938748D02*
X114210000Y-87461252D01*
X112790000Y-86938748D02*
X112790000Y-87461252D01*
X126710000Y-86938748D02*
X126710000Y-87461252D01*
X125290000Y-86938748D02*
X125290000Y-87461252D01*
X107700000Y-98710000D02*
X105250000Y-98710000D01*
X105900000Y-95490000D02*
X107700000Y-95490000D01*
D10*
X108800000Y-82900000D02*
X109300000Y-82900000D01*
X125800000Y-82900000D02*
X125300000Y-82900000D01*
X114300000Y-63900000D02*
G75*
G03X114300000Y-63900000I-500000J0D01*
G01*
X119300000Y-63900000D02*
G75*
G03X119300000Y-63900000I-500000J0D01*
G01*
X116800000Y-63900000D02*
G75*
G03X116800000Y-63900000I-500000J0D01*
G01*
X125800000Y-82900000D02*
X125800000Y-62900000D01*
X125800000Y-62900000D02*
X108800000Y-62900000D01*
X108800000Y-62900000D02*
X108800000Y-82900000D01*
D11*
X124641400Y-93160000D02*
X124641400Y-91040000D01*
X124641400Y-91040000D02*
X112540000Y-91040000D01*
X124641400Y-93166800D02*
X112540000Y-93160000D01*
X112540000Y-93160000D02*
X112540000Y-91040000D01*
D10*
X107861904Y-93552380D02*
X107861904Y-94361904D01*
X107814285Y-94457142D01*
X107766666Y-94504761D01*
X107671428Y-94552380D01*
X107480952Y-94552380D01*
X107385714Y-94504761D01*
X107338095Y-94457142D01*
X107290476Y-94361904D01*
X107290476Y-93552380D01*
X106385714Y-93885714D02*
X106385714Y-94552380D01*
X106623809Y-93504761D02*
X106861904Y-94219047D01*
X106242857Y-94219047D01*
X124942857Y-90352380D02*
X125276190Y-89876190D01*
X125514285Y-90352380D02*
X125514285Y-89352380D01*
X125133333Y-89352380D01*
X125038095Y-89400000D01*
X124990476Y-89447619D01*
X124942857Y-89542857D01*
X124942857Y-89685714D01*
X124990476Y-89780952D01*
X125038095Y-89828571D01*
X125133333Y-89876190D01*
X125514285Y-89876190D01*
X123990476Y-90352380D02*
X124561904Y-90352380D01*
X124276190Y-90352380D02*
X124276190Y-89352380D01*
X124371428Y-89495238D01*
X124466666Y-89590476D01*
X124561904Y-89638095D01*
X123371428Y-89352380D02*
X123276190Y-89352380D01*
X123180952Y-89400000D01*
X123133333Y-89447619D01*
X123085714Y-89542857D01*
X123038095Y-89733333D01*
X123038095Y-89971428D01*
X123085714Y-90161904D01*
X123133333Y-90257142D01*
X123180952Y-90304761D01*
X123276190Y-90352380D01*
X123371428Y-90352380D01*
X123466666Y-90304761D01*
X123514285Y-90257142D01*
X123561904Y-90161904D01*
X123609523Y-89971428D01*
X123609523Y-89733333D01*
X123561904Y-89542857D01*
X123514285Y-89447619D01*
X123466666Y-89400000D01*
X123371428Y-89352380D01*
X118152380Y-89833333D02*
X117676190Y-89500000D01*
X118152380Y-89261904D02*
X117152380Y-89261904D01*
X117152380Y-89642857D01*
X117200000Y-89738095D01*
X117247619Y-89785714D01*
X117342857Y-89833333D01*
X117485714Y-89833333D01*
X117580952Y-89785714D01*
X117628571Y-89738095D01*
X117676190Y-89642857D01*
X117676190Y-89261904D01*
X118152380Y-90309523D02*
X118152380Y-90500000D01*
X118104761Y-90595238D01*
X118057142Y-90642857D01*
X117914285Y-90738095D01*
X117723809Y-90785714D01*
X117342857Y-90785714D01*
X117247619Y-90738095D01*
X117200000Y-90690476D01*
X117152380Y-90595238D01*
X117152380Y-90404761D01*
X117200000Y-90309523D01*
X117247619Y-90261904D01*
X117342857Y-90214285D01*
X117580952Y-90214285D01*
X117676190Y-90261904D01*
X117723809Y-90309523D01*
X117771428Y-90404761D01*
X117771428Y-90595238D01*
X117723809Y-90690476D01*
X117676190Y-90738095D01*
X117580952Y-90785714D01*
X116052380Y-89833333D02*
X115576190Y-89500000D01*
X116052380Y-89261904D02*
X115052380Y-89261904D01*
X115052380Y-89642857D01*
X115100000Y-89738095D01*
X115147619Y-89785714D01*
X115242857Y-89833333D01*
X115385714Y-89833333D01*
X115480952Y-89785714D01*
X115528571Y-89738095D01*
X115576190Y-89642857D01*
X115576190Y-89261904D01*
X115480952Y-90404761D02*
X115433333Y-90309523D01*
X115385714Y-90261904D01*
X115290476Y-90214285D01*
X115242857Y-90214285D01*
X115147619Y-90261904D01*
X115100000Y-90309523D01*
X115052380Y-90404761D01*
X115052380Y-90595238D01*
X115100000Y-90690476D01*
X115147619Y-90738095D01*
X115242857Y-90785714D01*
X115290476Y-90785714D01*
X115385714Y-90738095D01*
X115433333Y-90690476D01*
X115480952Y-90595238D01*
X115480952Y-90404761D01*
X115528571Y-90309523D01*
X115576190Y-90261904D01*
X115671428Y-90214285D01*
X115861904Y-90214285D01*
X115957142Y-90261904D01*
X116004761Y-90309523D01*
X116052380Y-90404761D01*
X116052380Y-90595238D01*
X116004761Y-90690476D01*
X115957142Y-90738095D01*
X115861904Y-90785714D01*
X115671428Y-90785714D01*
X115576190Y-90738095D01*
X115528571Y-90690476D01*
X115480952Y-90595238D01*
X122252380Y-89733333D02*
X121776190Y-89400000D01*
X122252380Y-89161904D02*
X121252380Y-89161904D01*
X121252380Y-89542857D01*
X121300000Y-89638095D01*
X121347619Y-89685714D01*
X121442857Y-89733333D01*
X121585714Y-89733333D01*
X121680952Y-89685714D01*
X121728571Y-89638095D01*
X121776190Y-89542857D01*
X121776190Y-89161904D01*
X121252380Y-90066666D02*
X121252380Y-90733333D01*
X122252380Y-90304761D01*
X120152380Y-89833333D02*
X119676190Y-89500000D01*
X120152380Y-89261904D02*
X119152380Y-89261904D01*
X119152380Y-89642857D01*
X119200000Y-89738095D01*
X119247619Y-89785714D01*
X119342857Y-89833333D01*
X119485714Y-89833333D01*
X119580952Y-89785714D01*
X119628571Y-89738095D01*
X119676190Y-89642857D01*
X119676190Y-89261904D01*
X119152380Y-90690476D02*
X119152380Y-90500000D01*
X119200000Y-90404761D01*
X119247619Y-90357142D01*
X119390476Y-90261904D01*
X119580952Y-90214285D01*
X119961904Y-90214285D01*
X120057142Y-90261904D01*
X120104761Y-90309523D01*
X120152380Y-90404761D01*
X120152380Y-90595238D01*
X120104761Y-90690476D01*
X120057142Y-90738095D01*
X119961904Y-90785714D01*
X119723809Y-90785714D01*
X119628571Y-90738095D01*
X119580952Y-90690476D01*
X119533333Y-90595238D01*
X119533333Y-90404761D01*
X119580952Y-90309523D01*
X119628571Y-90261904D01*
X119723809Y-90214285D01*
X112352380Y-86933333D02*
X111876190Y-86600000D01*
X112352380Y-86361904D02*
X111352380Y-86361904D01*
X111352380Y-86742857D01*
X111400000Y-86838095D01*
X111447619Y-86885714D01*
X111542857Y-86933333D01*
X111685714Y-86933333D01*
X111780952Y-86885714D01*
X111828571Y-86838095D01*
X111876190Y-86742857D01*
X111876190Y-86361904D01*
X111352380Y-87838095D02*
X111352380Y-87361904D01*
X111828571Y-87314285D01*
X111780952Y-87361904D01*
X111733333Y-87457142D01*
X111733333Y-87695238D01*
X111780952Y-87790476D01*
X111828571Y-87838095D01*
X111923809Y-87885714D01*
X112161904Y-87885714D01*
X112257142Y-87838095D01*
X112304761Y-87790476D01*
X112352380Y-87695238D01*
X112352380Y-87457142D01*
X112304761Y-87361904D01*
X112257142Y-87314285D01*
X128057142Y-86933333D02*
X128104761Y-86885714D01*
X128152380Y-86742857D01*
X128152380Y-86647619D01*
X128104761Y-86504761D01*
X128009523Y-86409523D01*
X127914285Y-86361904D01*
X127723809Y-86314285D01*
X127580952Y-86314285D01*
X127390476Y-86361904D01*
X127295238Y-86409523D01*
X127200000Y-86504761D01*
X127152380Y-86647619D01*
X127152380Y-86742857D01*
X127200000Y-86885714D01*
X127247619Y-86933333D01*
X127580952Y-87504761D02*
X127533333Y-87409523D01*
X127485714Y-87361904D01*
X127390476Y-87314285D01*
X127342857Y-87314285D01*
X127247619Y-87361904D01*
X127200000Y-87409523D01*
X127152380Y-87504761D01*
X127152380Y-87695238D01*
X127200000Y-87790476D01*
X127247619Y-87838095D01*
X127342857Y-87885714D01*
X127390476Y-87885714D01*
X127485714Y-87838095D01*
X127533333Y-87790476D01*
X127580952Y-87695238D01*
X127580952Y-87504761D01*
X127628571Y-87409523D01*
X127676190Y-87361904D01*
X127771428Y-87314285D01*
X127961904Y-87314285D01*
X128057142Y-87361904D01*
X128104761Y-87409523D01*
X128152380Y-87504761D01*
X128152380Y-87695238D01*
X128104761Y-87790476D01*
X128057142Y-87838095D01*
X127961904Y-87885714D01*
X127771428Y-87885714D01*
X127676190Y-87838095D01*
X127628571Y-87790476D01*
X127580952Y-87695238D01*
X107761904Y-99152380D02*
X107761904Y-99961904D01*
X107714285Y-100057142D01*
X107666666Y-100104761D01*
X107571428Y-100152380D01*
X107380952Y-100152380D01*
X107285714Y-100104761D01*
X107238095Y-100057142D01*
X107190476Y-99961904D01*
X107190476Y-99152380D01*
X106809523Y-99152380D02*
X106190476Y-99152380D01*
X106523809Y-99533333D01*
X106380952Y-99533333D01*
X106285714Y-99580952D01*
X106238095Y-99628571D01*
X106190476Y-99723809D01*
X106190476Y-99961904D01*
X106238095Y-100057142D01*
X106285714Y-100104761D01*
X106380952Y-100152380D01*
X106666666Y-100152380D01*
X106761904Y-100104761D01*
X106809523Y-100057142D01*
X123252380Y-77138095D02*
X124061904Y-77138095D01*
X124157142Y-77185714D01*
X124204761Y-77233333D01*
X124252380Y-77328571D01*
X124252380Y-77519047D01*
X124204761Y-77614285D01*
X124157142Y-77661904D01*
X124061904Y-77709523D01*
X123252380Y-77709523D01*
X123347619Y-78138095D02*
X123300000Y-78185714D01*
X123252380Y-78280952D01*
X123252380Y-78519047D01*
X123300000Y-78614285D01*
X123347619Y-78661904D01*
X123442857Y-78709523D01*
X123538095Y-78709523D01*
X123680952Y-78661904D01*
X124252380Y-78090476D01*
X124252380Y-78709523D01*
M02*
