G04 #@! TF.GenerationSoftware,KiCad,Pcbnew,(5.1.5-0-10_14)*
G04 #@! TF.CreationDate,2020-11-09T16:05:26+01:00*
G04 #@! TF.ProjectId,ATmega128_CC1101_Board,41546d65-6761-4313-9238-5f4343313130,rev?*
G04 #@! TF.SameCoordinates,Original*
G04 #@! TF.FileFunction,Legend,Top*
G04 #@! TF.FilePolarity,Positive*
%FSLAX46Y46*%
G04 Gerber Fmt 4.6, Leading zero omitted, Abs format (unit mm)*
G04 Created by KiCad (PCBNEW (5.1.5-0-10_14)) date 2020-11-09 16:05:26*
%MOMM*%
%LPD*%
G04 APERTURE LIST*
%ADD10C,0.150000*%
%ADD11C,0.120000*%
G04 APERTURE END LIST*
D10*
X104041370Y-67859644D02*
X104580118Y-67320896D01*
X104580118Y-67859644D02*
X104041370Y-67320896D01*
X104411759Y-66613790D02*
X104849492Y-66176057D01*
X104883164Y-66681133D01*
X104984179Y-66580118D01*
X105085194Y-66546446D01*
X105152538Y-66546446D01*
X105253553Y-66580118D01*
X105421912Y-66748477D01*
X105455583Y-66849492D01*
X105455583Y-66916835D01*
X105421912Y-67017851D01*
X105219881Y-67219881D01*
X105118866Y-67253553D01*
X105051522Y-67253553D01*
X105051522Y-65974026D02*
X105994331Y-66445431D01*
X105522927Y-65502622D01*
X104678087Y-88361675D02*
X103970981Y-87654568D01*
X104240355Y-87385194D01*
X104341370Y-87351522D01*
X104408713Y-87351522D01*
X104509729Y-87385194D01*
X104610744Y-87486209D01*
X104644416Y-87587225D01*
X104644416Y-87654568D01*
X104610744Y-87755583D01*
X104341370Y-88024957D01*
X105014805Y-87284179D02*
X105250507Y-87048477D01*
X105721912Y-87317851D02*
X105385194Y-87654568D01*
X104678087Y-86947461D01*
X105014805Y-86610744D01*
X105654568Y-85970981D02*
X105317851Y-86307698D01*
X105620896Y-86678087D01*
X105620896Y-86610744D01*
X105654568Y-86509729D01*
X105822927Y-86341370D01*
X105923942Y-86307698D01*
X105991286Y-86307698D01*
X106092301Y-86341370D01*
X106260660Y-86509729D01*
X106294331Y-86610744D01*
X106294331Y-86678087D01*
X106260660Y-86779103D01*
X106092301Y-86947461D01*
X105991286Y-86981133D01*
X105923942Y-86981133D01*
X104678087Y-85861675D02*
X103970981Y-85154568D01*
X104240355Y-84885194D01*
X104341370Y-84851522D01*
X104408713Y-84851522D01*
X104509729Y-84885194D01*
X104610744Y-84986209D01*
X104644416Y-85087225D01*
X104644416Y-85154568D01*
X104610744Y-85255583D01*
X104341370Y-85524957D01*
X105014805Y-84784179D02*
X105250507Y-84548477D01*
X105721912Y-84817851D02*
X105385194Y-85154568D01*
X104678087Y-84447461D01*
X105014805Y-84110744D01*
X105856599Y-83740355D02*
X106328003Y-84211759D01*
X105418866Y-83639339D02*
X105755583Y-84312774D01*
X106193316Y-83875042D01*
X104678087Y-83361675D02*
X103970981Y-82654568D01*
X104240355Y-82385194D01*
X104341370Y-82351522D01*
X104408713Y-82351522D01*
X104509729Y-82385194D01*
X104610744Y-82486209D01*
X104644416Y-82587225D01*
X104644416Y-82654568D01*
X104610744Y-82755583D01*
X104341370Y-83024957D01*
X105014805Y-82284179D02*
X105250507Y-82048477D01*
X105721912Y-82317851D02*
X105385194Y-82654568D01*
X104678087Y-81947461D01*
X105014805Y-81610744D01*
X105250507Y-81375042D02*
X105688240Y-80937309D01*
X105721912Y-81442385D01*
X105822927Y-81341370D01*
X105923942Y-81307698D01*
X105991286Y-81307698D01*
X106092301Y-81341370D01*
X106260660Y-81509729D01*
X106294331Y-81610744D01*
X106294331Y-81678087D01*
X106260660Y-81779103D01*
X106058629Y-81981133D01*
X105957614Y-82014805D01*
X105890270Y-82014805D01*
X104678087Y-80761675D02*
X103970981Y-80054568D01*
X104240355Y-79785194D01*
X104341370Y-79751522D01*
X104408713Y-79751522D01*
X104509729Y-79785194D01*
X104610744Y-79886209D01*
X104644416Y-79987225D01*
X104644416Y-80054568D01*
X104610744Y-80155583D01*
X104341370Y-80424957D01*
X105014805Y-79684179D02*
X105250507Y-79448477D01*
X105721912Y-79717851D02*
X105385194Y-80054568D01*
X104678087Y-79347461D01*
X105014805Y-79010744D01*
X105351522Y-78808713D02*
X105351522Y-78741370D01*
X105385194Y-78640355D01*
X105553553Y-78471996D01*
X105654568Y-78438324D01*
X105721912Y-78438324D01*
X105822927Y-78471996D01*
X105890270Y-78539339D01*
X105957614Y-78674026D01*
X105957614Y-79482148D01*
X106395347Y-79044416D01*
X104547038Y-78225381D02*
X104681725Y-78158037D01*
X104850084Y-77989679D01*
X104883755Y-77888663D01*
X104883755Y-77821320D01*
X104850084Y-77720305D01*
X104782740Y-77652961D01*
X104681725Y-77619289D01*
X104614381Y-77619289D01*
X104513366Y-77652961D01*
X104345007Y-77753976D01*
X104243992Y-77787648D01*
X104176649Y-77787648D01*
X104075633Y-77753976D01*
X104008290Y-77686633D01*
X103974618Y-77585618D01*
X103974618Y-77518274D01*
X104008290Y-77417259D01*
X104176649Y-77248900D01*
X104311336Y-77181557D01*
X105287816Y-77551946D02*
X104580710Y-76844839D01*
X104749068Y-76676480D01*
X104883755Y-76609137D01*
X105018442Y-76609137D01*
X105119458Y-76642809D01*
X105287816Y-76743824D01*
X105388832Y-76844839D01*
X105489847Y-77013198D01*
X105523519Y-77114213D01*
X105523519Y-77248900D01*
X105456175Y-77383587D01*
X105287816Y-77551946D01*
X105759221Y-76676480D02*
X106095938Y-76339763D01*
X105893908Y-76945854D02*
X105422503Y-76003045D01*
X106365312Y-76474450D01*
X107611167Y-75767343D02*
X107543824Y-75767343D01*
X107375465Y-75733671D01*
X107274450Y-75699999D01*
X107139763Y-75632656D01*
X106937732Y-75497969D01*
X106803045Y-75363282D01*
X106668358Y-75161251D01*
X106601015Y-75026564D01*
X106567343Y-74925549D01*
X106533671Y-74757190D01*
X106533671Y-74689847D01*
X107240778Y-74184771D02*
X106904061Y-74521488D01*
X107207106Y-74891877D01*
X107207106Y-74824534D01*
X107240778Y-74723519D01*
X107409137Y-74555160D01*
X107510152Y-74521488D01*
X107577496Y-74521488D01*
X107678511Y-74555160D01*
X107846870Y-74723519D01*
X107880541Y-74824534D01*
X107880541Y-74891877D01*
X107846870Y-74992893D01*
X107678511Y-75161251D01*
X107577496Y-75194923D01*
X107510152Y-75194923D01*
X107476480Y-73949068D02*
X108419289Y-74420473D01*
X107947885Y-73477664D01*
X109092724Y-74285786D02*
X109092724Y-74218442D01*
X109059053Y-74050084D01*
X109025381Y-73949068D01*
X108958037Y-73814381D01*
X108823350Y-73612351D01*
X108688663Y-73477664D01*
X108486633Y-73342977D01*
X108351946Y-73275633D01*
X108250931Y-73241962D01*
X108082572Y-73208290D01*
X108015228Y-73208290D01*
X104563874Y-75708545D02*
X104698561Y-75641201D01*
X104866920Y-75472843D01*
X104900591Y-75371827D01*
X104900591Y-75304484D01*
X104866920Y-75203469D01*
X104799576Y-75136125D01*
X104698561Y-75102453D01*
X104631217Y-75102453D01*
X104530202Y-75136125D01*
X104361843Y-75237140D01*
X104260828Y-75270812D01*
X104193485Y-75270812D01*
X104092469Y-75237140D01*
X104025126Y-75169797D01*
X103991454Y-75068782D01*
X103991454Y-75001438D01*
X104025126Y-74900423D01*
X104193485Y-74732064D01*
X104328172Y-74664721D01*
X105641370Y-74563705D02*
X105641370Y-74631049D01*
X105574026Y-74765736D01*
X105506683Y-74833079D01*
X105371996Y-74900423D01*
X105237309Y-74900423D01*
X105136294Y-74866751D01*
X104967935Y-74765736D01*
X104866920Y-74664721D01*
X104765904Y-74496362D01*
X104732233Y-74395347D01*
X104732233Y-74260660D01*
X104799576Y-74125973D01*
X104866920Y-74058629D01*
X105001607Y-73991286D01*
X105068950Y-73991286D01*
X106348477Y-73991286D02*
X106011759Y-74328003D01*
X105304652Y-73620896D01*
X107594331Y-73284179D02*
X107526988Y-73284179D01*
X107358629Y-73250507D01*
X107257614Y-73216835D01*
X107122927Y-73149492D01*
X106920896Y-73014805D01*
X106786209Y-72880118D01*
X106651522Y-72678087D01*
X106584179Y-72543400D01*
X106550507Y-72442385D01*
X106516835Y-72274026D01*
X106516835Y-72206683D01*
X107223942Y-71701607D02*
X106887225Y-72038324D01*
X107190270Y-72408713D01*
X107190270Y-72341370D01*
X107223942Y-72240355D01*
X107392301Y-72071996D01*
X107493316Y-72038324D01*
X107560660Y-72038324D01*
X107661675Y-72071996D01*
X107830034Y-72240355D01*
X107863705Y-72341370D01*
X107863705Y-72408713D01*
X107830034Y-72509729D01*
X107661675Y-72678087D01*
X107560660Y-72711759D01*
X107493316Y-72711759D01*
X107459644Y-71465904D02*
X108402453Y-71937309D01*
X107931049Y-70994500D01*
X109075888Y-71802622D02*
X109075888Y-71735278D01*
X109042217Y-71566920D01*
X109008545Y-71465904D01*
X108941201Y-71331217D01*
X108806514Y-71129187D01*
X108671827Y-70994500D01*
X108469797Y-70859813D01*
X108335110Y-70792469D01*
X108234095Y-70758798D01*
X108065736Y-70725126D01*
X107998392Y-70725126D01*
X104547038Y-73125381D02*
X104681725Y-73058037D01*
X104850084Y-72889679D01*
X104883755Y-72788663D01*
X104883755Y-72721320D01*
X104850084Y-72620305D01*
X104782740Y-72552961D01*
X104681725Y-72519289D01*
X104614381Y-72519289D01*
X104513366Y-72552961D01*
X104345007Y-72653976D01*
X104243992Y-72687648D01*
X104176649Y-72687648D01*
X104075633Y-72653976D01*
X104008290Y-72586633D01*
X103974618Y-72485618D01*
X103974618Y-72418274D01*
X104008290Y-72317259D01*
X104176649Y-72148900D01*
X104311336Y-72081557D01*
X105287816Y-72451946D02*
X104580710Y-71744839D01*
X104749068Y-71576480D01*
X104883755Y-71509137D01*
X105018442Y-71509137D01*
X105119458Y-71542809D01*
X105287816Y-71643824D01*
X105388832Y-71744839D01*
X105489847Y-71913198D01*
X105523519Y-72014213D01*
X105523519Y-72148900D01*
X105456175Y-72283587D01*
X105287816Y-72451946D01*
X105759221Y-71576480D02*
X106095938Y-71239763D01*
X105893908Y-71845854D02*
X105422503Y-70903045D01*
X106365312Y-71374450D01*
X107611167Y-70667343D02*
X107543824Y-70667343D01*
X107375465Y-70633671D01*
X107274450Y-70599999D01*
X107139763Y-70532656D01*
X106937732Y-70397969D01*
X106803045Y-70263282D01*
X106668358Y-70061251D01*
X106601015Y-69926564D01*
X106567343Y-69825549D01*
X106533671Y-69657190D01*
X106533671Y-69589847D01*
X106836717Y-69488832D02*
X107274450Y-69051099D01*
X107308122Y-69556175D01*
X107409137Y-69455160D01*
X107510152Y-69421488D01*
X107577496Y-69421488D01*
X107678511Y-69455160D01*
X107846870Y-69623519D01*
X107880541Y-69724534D01*
X107880541Y-69791877D01*
X107846870Y-69892893D01*
X107644839Y-70094923D01*
X107543824Y-70128595D01*
X107476480Y-70128595D01*
X107476480Y-68849068D02*
X108419289Y-69320473D01*
X107947885Y-68377664D01*
X109092724Y-69185786D02*
X109092724Y-69118442D01*
X109059053Y-68950084D01*
X109025381Y-68849068D01*
X108958037Y-68714381D01*
X108823350Y-68512351D01*
X108688663Y-68377664D01*
X108486633Y-68242977D01*
X108351946Y-68175633D01*
X108250931Y-68141962D01*
X108082572Y-68108290D01*
X108015228Y-68108290D01*
X104563874Y-70708545D02*
X104698561Y-70641201D01*
X104866920Y-70472843D01*
X104900591Y-70371827D01*
X104900591Y-70304484D01*
X104866920Y-70203469D01*
X104799576Y-70136125D01*
X104698561Y-70102453D01*
X104631217Y-70102453D01*
X104530202Y-70136125D01*
X104361843Y-70237140D01*
X104260828Y-70270812D01*
X104193485Y-70270812D01*
X104092469Y-70237140D01*
X104025126Y-70169797D01*
X103991454Y-70068782D01*
X103991454Y-70001438D01*
X104025126Y-69900423D01*
X104193485Y-69732064D01*
X104328172Y-69664721D01*
X105641370Y-69563705D02*
X105641370Y-69631049D01*
X105574026Y-69765736D01*
X105506683Y-69833079D01*
X105371996Y-69900423D01*
X105237309Y-69900423D01*
X105136294Y-69866751D01*
X104967935Y-69765736D01*
X104866920Y-69664721D01*
X104765904Y-69496362D01*
X104732233Y-69395347D01*
X104732233Y-69260660D01*
X104799576Y-69125973D01*
X104866920Y-69058629D01*
X105001607Y-68991286D01*
X105068950Y-68991286D01*
X106348477Y-68991286D02*
X106011759Y-69328003D01*
X105304652Y-68620896D01*
X107594331Y-68284179D02*
X107526988Y-68284179D01*
X107358629Y-68250507D01*
X107257614Y-68216835D01*
X107122927Y-68149492D01*
X106920896Y-68014805D01*
X106786209Y-67880118D01*
X106651522Y-67678087D01*
X106584179Y-67543400D01*
X106550507Y-67442385D01*
X106516835Y-67274026D01*
X106516835Y-67206683D01*
X106819881Y-67105668D02*
X107257614Y-66667935D01*
X107291286Y-67173011D01*
X107392301Y-67071996D01*
X107493316Y-67038324D01*
X107560660Y-67038324D01*
X107661675Y-67071996D01*
X107830034Y-67240355D01*
X107863705Y-67341370D01*
X107863705Y-67408713D01*
X107830034Y-67509729D01*
X107628003Y-67711759D01*
X107526988Y-67745431D01*
X107459644Y-67745431D01*
X107459644Y-66465904D02*
X108402453Y-66937309D01*
X107931049Y-65994500D01*
X109075888Y-66802622D02*
X109075888Y-66735278D01*
X109042217Y-66566920D01*
X109008545Y-66465904D01*
X108941201Y-66331217D01*
X108806514Y-66129187D01*
X108671827Y-65994500D01*
X108469797Y-65859813D01*
X108335110Y-65792469D01*
X108234095Y-65758798D01*
X108065736Y-65725126D01*
X107998392Y-65725126D01*
X104644416Y-92295347D02*
X103937309Y-91588240D01*
X104206683Y-91318866D01*
X104307698Y-91285194D01*
X104375042Y-91285194D01*
X104476057Y-91318866D01*
X104577072Y-91419881D01*
X104610744Y-91520896D01*
X104610744Y-91588240D01*
X104577072Y-91689255D01*
X104307698Y-91958629D01*
X105216835Y-90982148D02*
X105351522Y-90914805D01*
X105418866Y-90914805D01*
X105519881Y-90948477D01*
X105620896Y-91049492D01*
X105654568Y-91150507D01*
X105654568Y-91217851D01*
X105620896Y-91318866D01*
X105351522Y-91588240D01*
X104644416Y-90881133D01*
X104880118Y-90645431D01*
X104981133Y-90611759D01*
X105048477Y-90611759D01*
X105149492Y-90645431D01*
X105216835Y-90712774D01*
X105250507Y-90813790D01*
X105250507Y-90881133D01*
X105216835Y-90982148D01*
X104981133Y-91217851D01*
X105890270Y-90106683D02*
X106361675Y-90578087D01*
X105452538Y-90005668D02*
X105789255Y-90679103D01*
X106226988Y-90241370D01*
X104644416Y-94795347D02*
X103937309Y-94088240D01*
X104206683Y-93818866D01*
X104307698Y-93785194D01*
X104375042Y-93785194D01*
X104476057Y-93818866D01*
X104577072Y-93919881D01*
X104610744Y-94020896D01*
X104610744Y-94088240D01*
X104577072Y-94189255D01*
X104307698Y-94458629D01*
X105216835Y-93482148D02*
X105351522Y-93414805D01*
X105418866Y-93414805D01*
X105519881Y-93448477D01*
X105620896Y-93549492D01*
X105654568Y-93650507D01*
X105654568Y-93717851D01*
X105620896Y-93818866D01*
X105351522Y-94088240D01*
X104644416Y-93381133D01*
X104880118Y-93145431D01*
X104981133Y-93111759D01*
X105048477Y-93111759D01*
X105149492Y-93145431D01*
X105216835Y-93212774D01*
X105250507Y-93313790D01*
X105250507Y-93381133D01*
X105216835Y-93482148D01*
X104981133Y-93717851D01*
X105688240Y-92337309D02*
X105351522Y-92674026D01*
X105654568Y-93044416D01*
X105654568Y-92977072D01*
X105688240Y-92876057D01*
X105856599Y-92707698D01*
X105957614Y-92674026D01*
X106024957Y-92674026D01*
X106125973Y-92707698D01*
X106294331Y-92876057D01*
X106328003Y-92977072D01*
X106328003Y-93044416D01*
X106294331Y-93145431D01*
X106125973Y-93313790D01*
X106024957Y-93347461D01*
X105957614Y-93347461D01*
X104644416Y-97395347D02*
X103937309Y-96688240D01*
X104206683Y-96418866D01*
X104307698Y-96385194D01*
X104375042Y-96385194D01*
X104476057Y-96418866D01*
X104577072Y-96519881D01*
X104610744Y-96620896D01*
X104610744Y-96688240D01*
X104577072Y-96789255D01*
X104307698Y-97058629D01*
X105216835Y-96082148D02*
X105351522Y-96014805D01*
X105418866Y-96014805D01*
X105519881Y-96048477D01*
X105620896Y-96149492D01*
X105654568Y-96250507D01*
X105654568Y-96317851D01*
X105620896Y-96418866D01*
X105351522Y-96688240D01*
X104644416Y-95981133D01*
X104880118Y-95745431D01*
X104981133Y-95711759D01*
X105048477Y-95711759D01*
X105149492Y-95745431D01*
X105216835Y-95812774D01*
X105250507Y-95913790D01*
X105250507Y-95981133D01*
X105216835Y-96082148D01*
X104981133Y-96317851D01*
X105654568Y-94970981D02*
X105519881Y-95105668D01*
X105486209Y-95206683D01*
X105486209Y-95274026D01*
X105519881Y-95442385D01*
X105620896Y-95610744D01*
X105890270Y-95880118D01*
X105991286Y-95913790D01*
X106058629Y-95913790D01*
X106159644Y-95880118D01*
X106294331Y-95745431D01*
X106328003Y-95644416D01*
X106328003Y-95577072D01*
X106294331Y-95476057D01*
X106125973Y-95307698D01*
X106024957Y-95274026D01*
X105957614Y-95274026D01*
X105856599Y-95307698D01*
X105721912Y-95442385D01*
X105688240Y-95543400D01*
X105688240Y-95610744D01*
X105721912Y-95711759D01*
X104744416Y-99895347D02*
X104037309Y-99188240D01*
X104306683Y-98918866D01*
X104407698Y-98885194D01*
X104475042Y-98885194D01*
X104576057Y-98918866D01*
X104677072Y-99019881D01*
X104710744Y-99120896D01*
X104710744Y-99188240D01*
X104677072Y-99289255D01*
X104407698Y-99558629D01*
X105316835Y-98582148D02*
X105451522Y-98514805D01*
X105518866Y-98514805D01*
X105619881Y-98548477D01*
X105720896Y-98649492D01*
X105754568Y-98750507D01*
X105754568Y-98817851D01*
X105720896Y-98918866D01*
X105451522Y-99188240D01*
X104744416Y-98481133D01*
X104980118Y-98245431D01*
X105081133Y-98211759D01*
X105148477Y-98211759D01*
X105249492Y-98245431D01*
X105316835Y-98312774D01*
X105350507Y-98413790D01*
X105350507Y-98481133D01*
X105316835Y-98582148D01*
X105081133Y-98817851D01*
X105384179Y-97841370D02*
X105855583Y-97369965D01*
X106259644Y-98380118D01*
X105065312Y-102074450D02*
X104492893Y-101973435D01*
X104661251Y-102478511D02*
X103954145Y-101771404D01*
X104223519Y-101502030D01*
X104324534Y-101468358D01*
X104391877Y-101468358D01*
X104492893Y-101502030D01*
X104593908Y-101603045D01*
X104627580Y-101704061D01*
X104627580Y-101771404D01*
X104593908Y-101872419D01*
X104324534Y-102141793D01*
X104593908Y-101131641D02*
X105772419Y-101367343D01*
X105065312Y-100660236D02*
X105301015Y-101838748D01*
X106412183Y-100727580D02*
X106008122Y-101131641D01*
X106210152Y-100929610D02*
X105503045Y-100222503D01*
X105536717Y-100390862D01*
X105536717Y-100525549D01*
X105503045Y-100626564D01*
X103937309Y-104288240D02*
X104341370Y-103884179D01*
X104846446Y-104793316D02*
X104139339Y-104086209D01*
X104509729Y-103715820D02*
X105688240Y-103951522D01*
X104981133Y-103244416D02*
X105216835Y-104422927D01*
X106328003Y-103311759D02*
X105923942Y-103715820D01*
X106125973Y-103513790D02*
X105418866Y-102806683D01*
X105452538Y-102975042D01*
X105452538Y-103109729D01*
X105418866Y-103210744D01*
X103941370Y-107359644D02*
X104480118Y-106820896D01*
X104480118Y-107359644D02*
X103941370Y-106820896D01*
X104715820Y-105709729D02*
X104379103Y-106046446D01*
X104682148Y-106416835D01*
X104682148Y-106349492D01*
X104715820Y-106248477D01*
X104884179Y-106080118D01*
X104985194Y-106046446D01*
X105052538Y-106046446D01*
X105153553Y-106080118D01*
X105321912Y-106248477D01*
X105355583Y-106349492D01*
X105355583Y-106416835D01*
X105321912Y-106517851D01*
X105153553Y-106686209D01*
X105052538Y-106719881D01*
X104985194Y-106719881D01*
X104951522Y-105474026D02*
X105894331Y-105945431D01*
X105422927Y-105002622D01*
X104207698Y-109085194D02*
X104106683Y-109118866D01*
X104005668Y-109219881D01*
X103938324Y-109354568D01*
X103938324Y-109489255D01*
X103971996Y-109590270D01*
X104073011Y-109758629D01*
X104174026Y-109859644D01*
X104342385Y-109960660D01*
X104443400Y-109994331D01*
X104578087Y-109994331D01*
X104712774Y-109926988D01*
X104780118Y-109859644D01*
X104847461Y-109724957D01*
X104847461Y-109657614D01*
X104611759Y-109421912D01*
X104477072Y-109556599D01*
X105217851Y-109421912D02*
X104510744Y-108714805D01*
X105621912Y-109017851D01*
X104914805Y-108310744D01*
X105958629Y-108681133D02*
X105251522Y-107974026D01*
X105419881Y-107805668D01*
X105554568Y-107738324D01*
X105689255Y-107738324D01*
X105790270Y-107771996D01*
X105958629Y-107873011D01*
X106059644Y-107974026D01*
X106160660Y-108142385D01*
X106194331Y-108243400D01*
X106194331Y-108378087D01*
X106126988Y-108512774D01*
X105958629Y-108681133D01*
X112038095Y-107300000D02*
X111942857Y-107252380D01*
X111800000Y-107252380D01*
X111657142Y-107300000D01*
X111561904Y-107395238D01*
X111514285Y-107490476D01*
X111466666Y-107680952D01*
X111466666Y-107823809D01*
X111514285Y-108014285D01*
X111561904Y-108109523D01*
X111657142Y-108204761D01*
X111800000Y-108252380D01*
X111895238Y-108252380D01*
X112038095Y-108204761D01*
X112085714Y-108157142D01*
X112085714Y-107823809D01*
X111895238Y-107823809D01*
X112514285Y-108252380D02*
X112514285Y-107252380D01*
X113085714Y-108252380D01*
X113085714Y-107252380D01*
X113561904Y-108252380D02*
X113561904Y-107252380D01*
X113800000Y-107252380D01*
X113942857Y-107300000D01*
X114038095Y-107395238D01*
X114085714Y-107490476D01*
X114133333Y-107680952D01*
X114133333Y-107823809D01*
X114085714Y-108014285D01*
X114038095Y-108109523D01*
X113942857Y-108204761D01*
X113800000Y-108252380D01*
X113561904Y-108252380D01*
X129214285Y-69985714D02*
X129214285Y-70652380D01*
X128976190Y-69604761D02*
X128738095Y-70319047D01*
X129357142Y-70319047D01*
X129690476Y-69747619D02*
X129738095Y-69700000D01*
X129833333Y-69652380D01*
X130071428Y-69652380D01*
X130166666Y-69700000D01*
X130214285Y-69747619D01*
X130261904Y-69842857D01*
X130261904Y-69938095D01*
X130214285Y-70080952D01*
X129642857Y-70652380D01*
X130261904Y-70652380D01*
X129214285Y-72585714D02*
X129214285Y-73252380D01*
X128976190Y-72204761D02*
X128738095Y-72919047D01*
X129357142Y-72919047D01*
X130261904Y-73252380D02*
X129690476Y-73252380D01*
X129976190Y-73252380D02*
X129976190Y-72252380D01*
X129880952Y-72395238D01*
X129785714Y-72490476D01*
X129690476Y-72538095D01*
X129214285Y-75085714D02*
X129214285Y-75752380D01*
X128976190Y-74704761D02*
X128738095Y-75419047D01*
X129357142Y-75419047D01*
X129928571Y-74752380D02*
X130023809Y-74752380D01*
X130119047Y-74800000D01*
X130166666Y-74847619D01*
X130214285Y-74942857D01*
X130261904Y-75133333D01*
X130261904Y-75371428D01*
X130214285Y-75561904D01*
X130166666Y-75657142D01*
X130119047Y-75704761D01*
X130023809Y-75752380D01*
X129928571Y-75752380D01*
X129833333Y-75704761D01*
X129785714Y-75657142D01*
X129738095Y-75561904D01*
X129690476Y-75371428D01*
X129690476Y-75133333D01*
X129738095Y-74942857D01*
X129785714Y-74847619D01*
X129833333Y-74800000D01*
X129928571Y-74752380D01*
X128690476Y-77252380D02*
X129309523Y-77252380D01*
X128976190Y-77633333D01*
X129119047Y-77633333D01*
X129214285Y-77680952D01*
X129261904Y-77728571D01*
X129309523Y-77823809D01*
X129309523Y-78061904D01*
X129261904Y-78157142D01*
X129214285Y-78204761D01*
X129119047Y-78252380D01*
X128833333Y-78252380D01*
X128738095Y-78204761D01*
X128690476Y-78157142D01*
X129785714Y-78252380D02*
X129976190Y-78252380D01*
X130071428Y-78204761D01*
X130119047Y-78157142D01*
X130214285Y-78014285D01*
X130261904Y-77823809D01*
X130261904Y-77442857D01*
X130214285Y-77347619D01*
X130166666Y-77300000D01*
X130071428Y-77252380D01*
X129880952Y-77252380D01*
X129785714Y-77300000D01*
X129738095Y-77347619D01*
X129690476Y-77442857D01*
X129690476Y-77680952D01*
X129738095Y-77776190D01*
X129785714Y-77823809D01*
X129880952Y-77871428D01*
X130071428Y-77871428D01*
X130166666Y-77823809D01*
X130214285Y-77776190D01*
X130261904Y-77680952D01*
X128690476Y-79852380D02*
X129309523Y-79852380D01*
X128976190Y-80233333D01*
X129119047Y-80233333D01*
X129214285Y-80280952D01*
X129261904Y-80328571D01*
X129309523Y-80423809D01*
X129309523Y-80661904D01*
X129261904Y-80757142D01*
X129214285Y-80804761D01*
X129119047Y-80852380D01*
X128833333Y-80852380D01*
X128738095Y-80804761D01*
X128690476Y-80757142D01*
X129880952Y-80280952D02*
X129785714Y-80233333D01*
X129738095Y-80185714D01*
X129690476Y-80090476D01*
X129690476Y-80042857D01*
X129738095Y-79947619D01*
X129785714Y-79900000D01*
X129880952Y-79852380D01*
X130071428Y-79852380D01*
X130166666Y-79900000D01*
X130214285Y-79947619D01*
X130261904Y-80042857D01*
X130261904Y-80090476D01*
X130214285Y-80185714D01*
X130166666Y-80233333D01*
X130071428Y-80280952D01*
X129880952Y-80280952D01*
X129785714Y-80328571D01*
X129738095Y-80376190D01*
X129690476Y-80471428D01*
X129690476Y-80661904D01*
X129738095Y-80757142D01*
X129785714Y-80804761D01*
X129880952Y-80852380D01*
X130071428Y-80852380D01*
X130166666Y-80804761D01*
X130214285Y-80757142D01*
X130261904Y-80661904D01*
X130261904Y-80471428D01*
X130214285Y-80376190D01*
X130166666Y-80328571D01*
X130071428Y-80280952D01*
X128690476Y-82452380D02*
X129309523Y-82452380D01*
X128976190Y-82833333D01*
X129119047Y-82833333D01*
X129214285Y-82880952D01*
X129261904Y-82928571D01*
X129309523Y-83023809D01*
X129309523Y-83261904D01*
X129261904Y-83357142D01*
X129214285Y-83404761D01*
X129119047Y-83452380D01*
X128833333Y-83452380D01*
X128738095Y-83404761D01*
X128690476Y-83357142D01*
X129642857Y-82452380D02*
X130309523Y-82452380D01*
X129880952Y-83452380D01*
X128690476Y-84952380D02*
X129309523Y-84952380D01*
X128976190Y-85333333D01*
X129119047Y-85333333D01*
X129214285Y-85380952D01*
X129261904Y-85428571D01*
X129309523Y-85523809D01*
X129309523Y-85761904D01*
X129261904Y-85857142D01*
X129214285Y-85904761D01*
X129119047Y-85952380D01*
X128833333Y-85952380D01*
X128738095Y-85904761D01*
X128690476Y-85857142D01*
X130166666Y-84952380D02*
X129976190Y-84952380D01*
X129880952Y-85000000D01*
X129833333Y-85047619D01*
X129738095Y-85190476D01*
X129690476Y-85380952D01*
X129690476Y-85761904D01*
X129738095Y-85857142D01*
X129785714Y-85904761D01*
X129880952Y-85952380D01*
X130071428Y-85952380D01*
X130166666Y-85904761D01*
X130214285Y-85857142D01*
X130261904Y-85761904D01*
X130261904Y-85523809D01*
X130214285Y-85428571D01*
X130166666Y-85380952D01*
X130071428Y-85333333D01*
X129880952Y-85333333D01*
X129785714Y-85380952D01*
X129738095Y-85428571D01*
X129690476Y-85523809D01*
X128690476Y-87452380D02*
X129309523Y-87452380D01*
X128976190Y-87833333D01*
X129119047Y-87833333D01*
X129214285Y-87880952D01*
X129261904Y-87928571D01*
X129309523Y-88023809D01*
X129309523Y-88261904D01*
X129261904Y-88357142D01*
X129214285Y-88404761D01*
X129119047Y-88452380D01*
X128833333Y-88452380D01*
X128738095Y-88404761D01*
X128690476Y-88357142D01*
X130214285Y-87452380D02*
X129738095Y-87452380D01*
X129690476Y-87928571D01*
X129738095Y-87880952D01*
X129833333Y-87833333D01*
X130071428Y-87833333D01*
X130166666Y-87880952D01*
X130214285Y-87928571D01*
X130261904Y-88023809D01*
X130261904Y-88261904D01*
X130214285Y-88357142D01*
X130166666Y-88404761D01*
X130071428Y-88452380D01*
X129833333Y-88452380D01*
X129738095Y-88404761D01*
X129690476Y-88357142D01*
D11*
X101070000Y-66270000D02*
X102400000Y-66270000D01*
X101070000Y-67600000D02*
X101070000Y-66270000D01*
X101070000Y-68870000D02*
X103730000Y-68870000D01*
X103730000Y-68870000D02*
X103730000Y-68930000D01*
X101070000Y-68870000D02*
X101070000Y-68930000D01*
X101070000Y-68930000D02*
X103730000Y-68930000D01*
X101070000Y-68900000D02*
X103730000Y-68900000D01*
X103730000Y-68900000D02*
X103730000Y-89310000D01*
X101070000Y-68900000D02*
X101070000Y-89310000D01*
X101070000Y-89310000D02*
X103730000Y-89310000D01*
X133130000Y-89300000D02*
X130470000Y-89300000D01*
X130470000Y-89300000D02*
X130470000Y-68890000D01*
X133130000Y-89300000D02*
X133130000Y-68890000D01*
X133130000Y-68890000D02*
X130470000Y-68890000D01*
X101070000Y-90700000D02*
X103730000Y-90700000D01*
X103730000Y-90700000D02*
X103730000Y-111110000D01*
X101070000Y-90700000D02*
X101070000Y-111110000D01*
X101070000Y-111110000D02*
X103730000Y-111110000D01*
X113970000Y-74130000D02*
X120430000Y-74130000D01*
X113970000Y-69600000D02*
X113970000Y-72200000D01*
X113970000Y-67670000D02*
X120430000Y-67670000D01*
X120430000Y-69600000D02*
X120430000Y-72200000D01*
X113970000Y-67700000D02*
X113970000Y-67670000D01*
X113970000Y-74130000D02*
X113970000Y-74100000D01*
X120430000Y-74130000D02*
X120430000Y-74100000D01*
X120430000Y-67670000D02*
X120430000Y-67700000D01*
X132210000Y-109535000D02*
X132210000Y-105150000D01*
X129190000Y-109535000D02*
X132210000Y-109535000D01*
X129190000Y-105150000D02*
X129190000Y-109535000D01*
X118061252Y-97590000D02*
X117538748Y-97590000D01*
X118061252Y-99010000D02*
X117538748Y-99010000D01*
X114400000Y-102650000D02*
X114400000Y-101950000D01*
X121800000Y-101950000D02*
X121800000Y-102650000D01*
X123650000Y-101950000D02*
X121800000Y-101950000D01*
X114400000Y-99600000D02*
X114400000Y-100010000D01*
X121800000Y-99600000D02*
X114400000Y-99600000D01*
X121800000Y-100010000D02*
X121800000Y-99600000D01*
X123650000Y-100010000D02*
X121800000Y-100010000D01*
X114400000Y-105000000D02*
X114400000Y-104590000D01*
X121800000Y-105000000D02*
X114400000Y-105000000D01*
X121800000Y-104590000D02*
X121800000Y-105000000D01*
X110690000Y-98538748D02*
X110690000Y-99061252D01*
X112110000Y-98538748D02*
X112110000Y-99061252D01*
D10*
X111425000Y-80800000D02*
X110150000Y-80800000D01*
X125775000Y-80225000D02*
X125100000Y-80225000D01*
X125775000Y-94575000D02*
X125100000Y-94575000D01*
X111425000Y-94575000D02*
X112100000Y-94575000D01*
X111425000Y-80225000D02*
X112100000Y-80225000D01*
X111425000Y-94575000D02*
X111425000Y-93900000D01*
X125775000Y-94575000D02*
X125775000Y-93900000D01*
X125775000Y-80225000D02*
X125775000Y-80900000D01*
X111425000Y-80225000D02*
X111425000Y-80800000D01*
D11*
X108910000Y-80861252D02*
X108910000Y-80338748D01*
X107490000Y-80861252D02*
X107490000Y-80338748D01*
X130670000Y-93338748D02*
X130670000Y-93861252D01*
X132090000Y-93338748D02*
X132090000Y-93861252D01*
X106690000Y-104138748D02*
X106690000Y-104661252D01*
X108110000Y-104138748D02*
X108110000Y-104661252D01*
X125530000Y-108470000D02*
X125530000Y-109800000D01*
X124200000Y-108470000D02*
X125530000Y-108470000D01*
X122930000Y-108470000D02*
X122930000Y-111130000D01*
X122930000Y-111130000D02*
X110170000Y-111130000D01*
X122930000Y-108470000D02*
X110170000Y-108470000D01*
X110170000Y-108470000D02*
X110170000Y-111130000D01*
X132360000Y-99560000D02*
X132360000Y-96700000D01*
X130440000Y-99560000D02*
X132360000Y-99560000D01*
X130440000Y-96700000D02*
X130440000Y-99560000D01*
X110690000Y-102338748D02*
X110690000Y-102861252D01*
X112110000Y-102338748D02*
X112110000Y-102861252D01*
X125510000Y-102461252D02*
X125510000Y-101938748D01*
X124090000Y-102461252D02*
X124090000Y-101938748D01*
X121961252Y-76390000D02*
X121438748Y-76390000D01*
X121961252Y-77810000D02*
X121438748Y-77810000D01*
X112638748Y-77810000D02*
X113161252Y-77810000D01*
X112638748Y-76390000D02*
X113161252Y-76390000D01*
X106690000Y-108538748D02*
X106690000Y-109061252D01*
X108110000Y-108538748D02*
X108110000Y-109061252D01*
D10*
X115728571Y-66857142D02*
X115680952Y-66904761D01*
X115538095Y-66952380D01*
X115442857Y-66952380D01*
X115300000Y-66904761D01*
X115204761Y-66809523D01*
X115157142Y-66714285D01*
X115109523Y-66523809D01*
X115109523Y-66380952D01*
X115157142Y-66190476D01*
X115204761Y-66095238D01*
X115300000Y-66000000D01*
X115442857Y-65952380D01*
X115538095Y-65952380D01*
X115680952Y-66000000D01*
X115728571Y-66047619D01*
X116300000Y-66952380D02*
X116204761Y-66904761D01*
X116157142Y-66857142D01*
X116109523Y-66761904D01*
X116109523Y-66476190D01*
X116157142Y-66380952D01*
X116204761Y-66333333D01*
X116300000Y-66285714D01*
X116442857Y-66285714D01*
X116538095Y-66333333D01*
X116585714Y-66380952D01*
X116633333Y-66476190D01*
X116633333Y-66761904D01*
X116585714Y-66857142D01*
X116538095Y-66904761D01*
X116442857Y-66952380D01*
X116300000Y-66952380D01*
X117061904Y-66285714D02*
X117061904Y-66952380D01*
X117061904Y-66380952D02*
X117109523Y-66333333D01*
X117204761Y-66285714D01*
X117347619Y-66285714D01*
X117442857Y-66333333D01*
X117490476Y-66428571D01*
X117490476Y-66952380D01*
X117823809Y-66285714D02*
X118204761Y-66285714D01*
X117966666Y-66952380D02*
X117966666Y-66095238D01*
X118014285Y-66000000D01*
X118109523Y-65952380D01*
X118204761Y-65952380D01*
X118538095Y-66952380D02*
X118538095Y-66285714D01*
X118538095Y-65952380D02*
X118490476Y-66000000D01*
X118538095Y-66047619D01*
X118585714Y-66000000D01*
X118538095Y-65952380D01*
X118538095Y-66047619D01*
X119442857Y-66285714D02*
X119442857Y-67095238D01*
X119395238Y-67190476D01*
X119347619Y-67238095D01*
X119252380Y-67285714D01*
X119109523Y-67285714D01*
X119014285Y-67238095D01*
X119442857Y-66904761D02*
X119347619Y-66952380D01*
X119157142Y-66952380D01*
X119061904Y-66904761D01*
X119014285Y-66857142D01*
X118966666Y-66761904D01*
X118966666Y-66476190D01*
X119014285Y-66380952D01*
X119061904Y-66333333D01*
X119157142Y-66285714D01*
X119347619Y-66285714D01*
X119442857Y-66333333D01*
X128707142Y-107066666D02*
X128754761Y-107114285D01*
X128802380Y-107257142D01*
X128802380Y-107352380D01*
X128754761Y-107495238D01*
X128659523Y-107590476D01*
X128564285Y-107638095D01*
X128373809Y-107685714D01*
X128230952Y-107685714D01*
X128040476Y-107638095D01*
X127945238Y-107590476D01*
X127850000Y-107495238D01*
X127802380Y-107352380D01*
X127802380Y-107257142D01*
X127850000Y-107114285D01*
X127897619Y-107066666D01*
X127802380Y-106161904D02*
X127802380Y-106638095D01*
X128278571Y-106685714D01*
X128230952Y-106638095D01*
X128183333Y-106542857D01*
X128183333Y-106304761D01*
X128230952Y-106209523D01*
X128278571Y-106161904D01*
X128373809Y-106114285D01*
X128611904Y-106114285D01*
X128707142Y-106161904D01*
X128754761Y-106209523D01*
X128802380Y-106304761D01*
X128802380Y-106542857D01*
X128754761Y-106638095D01*
X128707142Y-106685714D01*
X117633333Y-97252380D02*
X117300000Y-96776190D01*
X117061904Y-97252380D02*
X117061904Y-96252380D01*
X117442857Y-96252380D01*
X117538095Y-96300000D01*
X117585714Y-96347619D01*
X117633333Y-96442857D01*
X117633333Y-96585714D01*
X117585714Y-96680952D01*
X117538095Y-96728571D01*
X117442857Y-96776190D01*
X117061904Y-96776190D01*
X118490476Y-96585714D02*
X118490476Y-97252380D01*
X118252380Y-96204761D02*
X118014285Y-96919047D01*
X118633333Y-96919047D01*
X117623809Y-105976190D02*
X117623809Y-106452380D01*
X117290476Y-105452380D02*
X117623809Y-105976190D01*
X117957142Y-105452380D01*
X118814285Y-106452380D02*
X118242857Y-106452380D01*
X118528571Y-106452380D02*
X118528571Y-105452380D01*
X118433333Y-105595238D01*
X118338095Y-105690476D01*
X118242857Y-105738095D01*
X109233333Y-99157142D02*
X109185714Y-99204761D01*
X109042857Y-99252380D01*
X108947619Y-99252380D01*
X108804761Y-99204761D01*
X108709523Y-99109523D01*
X108661904Y-99014285D01*
X108614285Y-98823809D01*
X108614285Y-98680952D01*
X108661904Y-98490476D01*
X108709523Y-98395238D01*
X108804761Y-98300000D01*
X108947619Y-98252380D01*
X109042857Y-98252380D01*
X109185714Y-98300000D01*
X109233333Y-98347619D01*
X110090476Y-98585714D02*
X110090476Y-99252380D01*
X109852380Y-98204761D02*
X109614285Y-98919047D01*
X110233333Y-98919047D01*
X108033333Y-78552380D02*
X107700000Y-78076190D01*
X107461904Y-78552380D02*
X107461904Y-77552380D01*
X107842857Y-77552380D01*
X107938095Y-77600000D01*
X107985714Y-77647619D01*
X108033333Y-77742857D01*
X108033333Y-77885714D01*
X107985714Y-77980952D01*
X107938095Y-78028571D01*
X107842857Y-78076190D01*
X107461904Y-78076190D01*
X108366666Y-77552380D02*
X108985714Y-77552380D01*
X108652380Y-77933333D01*
X108795238Y-77933333D01*
X108890476Y-77980952D01*
X108938095Y-78028571D01*
X108985714Y-78123809D01*
X108985714Y-78361904D01*
X108938095Y-78457142D01*
X108890476Y-78504761D01*
X108795238Y-78552380D01*
X108509523Y-78552380D01*
X108414285Y-78504761D01*
X108366666Y-78457142D01*
X129952380Y-93766666D02*
X129476190Y-94100000D01*
X129952380Y-94338095D02*
X128952380Y-94338095D01*
X128952380Y-93957142D01*
X129000000Y-93861904D01*
X129047619Y-93814285D01*
X129142857Y-93766666D01*
X129285714Y-93766666D01*
X129380952Y-93814285D01*
X129428571Y-93861904D01*
X129476190Y-93957142D01*
X129476190Y-94338095D01*
X129047619Y-93385714D02*
X129000000Y-93338095D01*
X128952380Y-93242857D01*
X128952380Y-93004761D01*
X129000000Y-92909523D01*
X129047619Y-92861904D01*
X129142857Y-92814285D01*
X129238095Y-92814285D01*
X129380952Y-92861904D01*
X129952380Y-93433333D01*
X129952380Y-92814285D01*
X109133333Y-106152380D02*
X108800000Y-105676190D01*
X108561904Y-106152380D02*
X108561904Y-105152380D01*
X108942857Y-105152380D01*
X109038095Y-105200000D01*
X109085714Y-105247619D01*
X109133333Y-105342857D01*
X109133333Y-105485714D01*
X109085714Y-105580952D01*
X109038095Y-105628571D01*
X108942857Y-105676190D01*
X108561904Y-105676190D01*
X110085714Y-106152380D02*
X109514285Y-106152380D01*
X109800000Y-106152380D02*
X109800000Y-105152380D01*
X109704761Y-105295238D01*
X109609523Y-105390476D01*
X109514285Y-105438095D01*
X122723809Y-107328571D02*
X122390476Y-107328571D01*
X122390476Y-107852380D02*
X122390476Y-106852380D01*
X122866666Y-106852380D01*
X123104761Y-106852380D02*
X123676190Y-106852380D01*
X123390476Y-107852380D02*
X123390476Y-106852380D01*
X124009523Y-107852380D02*
X124009523Y-106852380D01*
X124247619Y-106852380D01*
X124390476Y-106900000D01*
X124485714Y-106995238D01*
X124533333Y-107090476D01*
X124580952Y-107280952D01*
X124580952Y-107423809D01*
X124533333Y-107614285D01*
X124485714Y-107709523D01*
X124390476Y-107804761D01*
X124247619Y-107852380D01*
X124009523Y-107852380D01*
X125009523Y-107852380D02*
X125009523Y-106852380D01*
X129952380Y-98342857D02*
X129952380Y-98819047D01*
X128952380Y-98819047D01*
X129428571Y-98009523D02*
X129428571Y-97676190D01*
X129952380Y-97533333D02*
X129952380Y-98009523D01*
X128952380Y-98009523D01*
X128952380Y-97533333D01*
X129952380Y-97104761D02*
X128952380Y-97104761D01*
X128952380Y-96866666D01*
X129000000Y-96723809D01*
X129095238Y-96628571D01*
X129190476Y-96580952D01*
X129380952Y-96533333D01*
X129523809Y-96533333D01*
X129714285Y-96580952D01*
X129809523Y-96628571D01*
X129904761Y-96723809D01*
X129952380Y-96866666D01*
X129952380Y-97104761D01*
X109233333Y-102757142D02*
X109185714Y-102804761D01*
X109042857Y-102852380D01*
X108947619Y-102852380D01*
X108804761Y-102804761D01*
X108709523Y-102709523D01*
X108661904Y-102614285D01*
X108614285Y-102423809D01*
X108614285Y-102280952D01*
X108661904Y-102090476D01*
X108709523Y-101995238D01*
X108804761Y-101900000D01*
X108947619Y-101852380D01*
X109042857Y-101852380D01*
X109185714Y-101900000D01*
X109233333Y-101947619D01*
X109566666Y-101852380D02*
X110233333Y-101852380D01*
X109804761Y-102852380D01*
X126633333Y-102557142D02*
X126585714Y-102604761D01*
X126442857Y-102652380D01*
X126347619Y-102652380D01*
X126204761Y-102604761D01*
X126109523Y-102509523D01*
X126061904Y-102414285D01*
X126014285Y-102223809D01*
X126014285Y-102080952D01*
X126061904Y-101890476D01*
X126109523Y-101795238D01*
X126204761Y-101700000D01*
X126347619Y-101652380D01*
X126442857Y-101652380D01*
X126585714Y-101700000D01*
X126633333Y-101747619D01*
X127490476Y-101652380D02*
X127300000Y-101652380D01*
X127204761Y-101700000D01*
X127157142Y-101747619D01*
X127061904Y-101890476D01*
X127014285Y-102080952D01*
X127014285Y-102461904D01*
X127061904Y-102557142D01*
X127109523Y-102604761D01*
X127204761Y-102652380D01*
X127395238Y-102652380D01*
X127490476Y-102604761D01*
X127538095Y-102557142D01*
X127585714Y-102461904D01*
X127585714Y-102223809D01*
X127538095Y-102128571D01*
X127490476Y-102080952D01*
X127395238Y-102033333D01*
X127204761Y-102033333D01*
X127109523Y-102080952D01*
X127061904Y-102128571D01*
X127014285Y-102223809D01*
X121533333Y-75957142D02*
X121485714Y-76004761D01*
X121342857Y-76052380D01*
X121247619Y-76052380D01*
X121104761Y-76004761D01*
X121009523Y-75909523D01*
X120961904Y-75814285D01*
X120914285Y-75623809D01*
X120914285Y-75480952D01*
X120961904Y-75290476D01*
X121009523Y-75195238D01*
X121104761Y-75100000D01*
X121247619Y-75052380D01*
X121342857Y-75052380D01*
X121485714Y-75100000D01*
X121533333Y-75147619D01*
X121914285Y-75147619D02*
X121961904Y-75100000D01*
X122057142Y-75052380D01*
X122295238Y-75052380D01*
X122390476Y-75100000D01*
X122438095Y-75147619D01*
X122485714Y-75242857D01*
X122485714Y-75338095D01*
X122438095Y-75480952D01*
X121866666Y-76052380D01*
X122485714Y-76052380D01*
X112733333Y-75807142D02*
X112685714Y-75854761D01*
X112542857Y-75902380D01*
X112447619Y-75902380D01*
X112304761Y-75854761D01*
X112209523Y-75759523D01*
X112161904Y-75664285D01*
X112114285Y-75473809D01*
X112114285Y-75330952D01*
X112161904Y-75140476D01*
X112209523Y-75045238D01*
X112304761Y-74950000D01*
X112447619Y-74902380D01*
X112542857Y-74902380D01*
X112685714Y-74950000D01*
X112733333Y-74997619D01*
X113066666Y-74902380D02*
X113685714Y-74902380D01*
X113352380Y-75283333D01*
X113495238Y-75283333D01*
X113590476Y-75330952D01*
X113638095Y-75378571D01*
X113685714Y-75473809D01*
X113685714Y-75711904D01*
X113638095Y-75807142D01*
X113590476Y-75854761D01*
X113495238Y-75902380D01*
X113209523Y-75902380D01*
X113114285Y-75854761D01*
X113066666Y-75807142D01*
X109133333Y-107657142D02*
X109085714Y-107704761D01*
X108942857Y-107752380D01*
X108847619Y-107752380D01*
X108704761Y-107704761D01*
X108609523Y-107609523D01*
X108561904Y-107514285D01*
X108514285Y-107323809D01*
X108514285Y-107180952D01*
X108561904Y-106990476D01*
X108609523Y-106895238D01*
X108704761Y-106800000D01*
X108847619Y-106752380D01*
X108942857Y-106752380D01*
X109085714Y-106800000D01*
X109133333Y-106847619D01*
X110085714Y-107752380D02*
X109514285Y-107752380D01*
X109800000Y-107752380D02*
X109800000Y-106752380D01*
X109704761Y-106895238D01*
X109609523Y-106990476D01*
X109514285Y-107038095D01*
M02*
