G04 #@! TF.GenerationSoftware,KiCad,Pcbnew,(5.1.5-0-10_14)*
G04 #@! TF.CreationDate,2020-11-09T16:05:26+01:00*
G04 #@! TF.ProjectId,ATmega128_CC1101_Board,41546d65-6761-4313-9238-5f4343313130,rev?*
G04 #@! TF.SameCoordinates,Original*
G04 #@! TF.FileFunction,Copper,L2,Bot*
G04 #@! TF.FilePolarity,Positive*
%FSLAX46Y46*%
G04 Gerber Fmt 4.6, Leading zero omitted, Abs format (unit mm)*
G04 Created by KiCad (PCBNEW (5.1.5-0-10_14)) date 2020-11-09 16:05:26*
%MOMM*%
%LPD*%
G04 APERTURE LIST*
%ADD10R,1.700000X1.700000*%
%ADD11O,1.700000X1.700000*%
%ADD12R,0.450000X1.450000*%
%ADD13C,0.100000*%
%ADD14R,1.060000X0.650000*%
%ADD15C,1.350000*%
%ADD16R,1.350000X1.800000*%
%ADD17O,1.350000X1.350000*%
%ADD18C,0.800000*%
%ADD19C,0.250000*%
%ADD20C,0.254000*%
G04 APERTURE END LIST*
D10*
X102400000Y-67600000D03*
D11*
X102400000Y-87980000D03*
X102400000Y-85440000D03*
X102400000Y-82900000D03*
X102400000Y-80360000D03*
X102400000Y-77820000D03*
X102400000Y-75280000D03*
X102400000Y-72740000D03*
X102400000Y-70200000D03*
X131800000Y-70220000D03*
X131800000Y-72760000D03*
X131800000Y-75300000D03*
X131800000Y-77840000D03*
X131800000Y-80380000D03*
X131800000Y-82920000D03*
X131800000Y-85460000D03*
X131800000Y-88000000D03*
X102400000Y-109780000D03*
X102400000Y-107240000D03*
X102400000Y-104700000D03*
X102400000Y-102160000D03*
X102400000Y-99620000D03*
X102400000Y-97080000D03*
X102400000Y-94540000D03*
X102400000Y-92000000D03*
D12*
X109250000Y-86450000D03*
X108600000Y-86450000D03*
X107950000Y-86450000D03*
X107300000Y-86450000D03*
X106650000Y-86450000D03*
X106000000Y-86450000D03*
X105350000Y-86450000D03*
X105350000Y-92350000D03*
X106000000Y-92350000D03*
X106650000Y-92350000D03*
X107300000Y-92350000D03*
X107950000Y-92350000D03*
X108600000Y-92350000D03*
X109250000Y-92350000D03*
G04 #@! TA.AperFunction,SMDPad,CuDef*
D13*
G36*
X124074505Y-85601204D02*
G01*
X124098773Y-85604804D01*
X124122572Y-85610765D01*
X124145671Y-85619030D01*
X124167850Y-85629520D01*
X124188893Y-85642132D01*
X124208599Y-85656747D01*
X124226777Y-85673223D01*
X124243253Y-85691401D01*
X124257868Y-85711107D01*
X124270480Y-85732150D01*
X124280970Y-85754329D01*
X124289235Y-85777428D01*
X124295196Y-85801227D01*
X124298796Y-85825495D01*
X124300000Y-85849999D01*
X124300000Y-86500001D01*
X124298796Y-86524505D01*
X124295196Y-86548773D01*
X124289235Y-86572572D01*
X124280970Y-86595671D01*
X124270480Y-86617850D01*
X124257868Y-86638893D01*
X124243253Y-86658599D01*
X124226777Y-86676777D01*
X124208599Y-86693253D01*
X124188893Y-86707868D01*
X124167850Y-86720480D01*
X124145671Y-86730970D01*
X124122572Y-86739235D01*
X124098773Y-86745196D01*
X124074505Y-86748796D01*
X124050001Y-86750000D01*
X123149999Y-86750000D01*
X123125495Y-86748796D01*
X123101227Y-86745196D01*
X123077428Y-86739235D01*
X123054329Y-86730970D01*
X123032150Y-86720480D01*
X123011107Y-86707868D01*
X122991401Y-86693253D01*
X122973223Y-86676777D01*
X122956747Y-86658599D01*
X122942132Y-86638893D01*
X122929520Y-86617850D01*
X122919030Y-86595671D01*
X122910765Y-86572572D01*
X122904804Y-86548773D01*
X122901204Y-86524505D01*
X122900000Y-86500001D01*
X122900000Y-85849999D01*
X122901204Y-85825495D01*
X122904804Y-85801227D01*
X122910765Y-85777428D01*
X122919030Y-85754329D01*
X122929520Y-85732150D01*
X122942132Y-85711107D01*
X122956747Y-85691401D01*
X122973223Y-85673223D01*
X122991401Y-85656747D01*
X123011107Y-85642132D01*
X123032150Y-85629520D01*
X123054329Y-85619030D01*
X123077428Y-85610765D01*
X123101227Y-85604804D01*
X123125495Y-85601204D01*
X123149999Y-85600000D01*
X124050001Y-85600000D01*
X124074505Y-85601204D01*
G37*
G04 #@! TD.AperFunction*
G04 #@! TA.AperFunction,SMDPad,CuDef*
G36*
X124074505Y-87651204D02*
G01*
X124098773Y-87654804D01*
X124122572Y-87660765D01*
X124145671Y-87669030D01*
X124167850Y-87679520D01*
X124188893Y-87692132D01*
X124208599Y-87706747D01*
X124226777Y-87723223D01*
X124243253Y-87741401D01*
X124257868Y-87761107D01*
X124270480Y-87782150D01*
X124280970Y-87804329D01*
X124289235Y-87827428D01*
X124295196Y-87851227D01*
X124298796Y-87875495D01*
X124300000Y-87899999D01*
X124300000Y-88550001D01*
X124298796Y-88574505D01*
X124295196Y-88598773D01*
X124289235Y-88622572D01*
X124280970Y-88645671D01*
X124270480Y-88667850D01*
X124257868Y-88688893D01*
X124243253Y-88708599D01*
X124226777Y-88726777D01*
X124208599Y-88743253D01*
X124188893Y-88757868D01*
X124167850Y-88770480D01*
X124145671Y-88780970D01*
X124122572Y-88789235D01*
X124098773Y-88795196D01*
X124074505Y-88798796D01*
X124050001Y-88800000D01*
X123149999Y-88800000D01*
X123125495Y-88798796D01*
X123101227Y-88795196D01*
X123077428Y-88789235D01*
X123054329Y-88780970D01*
X123032150Y-88770480D01*
X123011107Y-88757868D01*
X122991401Y-88743253D01*
X122973223Y-88726777D01*
X122956747Y-88708599D01*
X122942132Y-88688893D01*
X122929520Y-88667850D01*
X122919030Y-88645671D01*
X122910765Y-88622572D01*
X122904804Y-88598773D01*
X122901204Y-88574505D01*
X122900000Y-88550001D01*
X122900000Y-87899999D01*
X122901204Y-87875495D01*
X122904804Y-87851227D01*
X122910765Y-87827428D01*
X122919030Y-87804329D01*
X122929520Y-87782150D01*
X122942132Y-87761107D01*
X122956747Y-87741401D01*
X122973223Y-87723223D01*
X122991401Y-87706747D01*
X123011107Y-87692132D01*
X123032150Y-87679520D01*
X123054329Y-87669030D01*
X123077428Y-87660765D01*
X123101227Y-87654804D01*
X123125495Y-87651204D01*
X123149999Y-87650000D01*
X124050001Y-87650000D01*
X124074505Y-87651204D01*
G37*
G04 #@! TD.AperFunction*
G04 #@! TA.AperFunction,SMDPad,CuDef*
G36*
X118074505Y-85601204D02*
G01*
X118098773Y-85604804D01*
X118122572Y-85610765D01*
X118145671Y-85619030D01*
X118167850Y-85629520D01*
X118188893Y-85642132D01*
X118208599Y-85656747D01*
X118226777Y-85673223D01*
X118243253Y-85691401D01*
X118257868Y-85711107D01*
X118270480Y-85732150D01*
X118280970Y-85754329D01*
X118289235Y-85777428D01*
X118295196Y-85801227D01*
X118298796Y-85825495D01*
X118300000Y-85849999D01*
X118300000Y-86500001D01*
X118298796Y-86524505D01*
X118295196Y-86548773D01*
X118289235Y-86572572D01*
X118280970Y-86595671D01*
X118270480Y-86617850D01*
X118257868Y-86638893D01*
X118243253Y-86658599D01*
X118226777Y-86676777D01*
X118208599Y-86693253D01*
X118188893Y-86707868D01*
X118167850Y-86720480D01*
X118145671Y-86730970D01*
X118122572Y-86739235D01*
X118098773Y-86745196D01*
X118074505Y-86748796D01*
X118050001Y-86750000D01*
X117149999Y-86750000D01*
X117125495Y-86748796D01*
X117101227Y-86745196D01*
X117077428Y-86739235D01*
X117054329Y-86730970D01*
X117032150Y-86720480D01*
X117011107Y-86707868D01*
X116991401Y-86693253D01*
X116973223Y-86676777D01*
X116956747Y-86658599D01*
X116942132Y-86638893D01*
X116929520Y-86617850D01*
X116919030Y-86595671D01*
X116910765Y-86572572D01*
X116904804Y-86548773D01*
X116901204Y-86524505D01*
X116900000Y-86500001D01*
X116900000Y-85849999D01*
X116901204Y-85825495D01*
X116904804Y-85801227D01*
X116910765Y-85777428D01*
X116919030Y-85754329D01*
X116929520Y-85732150D01*
X116942132Y-85711107D01*
X116956747Y-85691401D01*
X116973223Y-85673223D01*
X116991401Y-85656747D01*
X117011107Y-85642132D01*
X117032150Y-85629520D01*
X117054329Y-85619030D01*
X117077428Y-85610765D01*
X117101227Y-85604804D01*
X117125495Y-85601204D01*
X117149999Y-85600000D01*
X118050001Y-85600000D01*
X118074505Y-85601204D01*
G37*
G04 #@! TD.AperFunction*
G04 #@! TA.AperFunction,SMDPad,CuDef*
G36*
X118074505Y-87651204D02*
G01*
X118098773Y-87654804D01*
X118122572Y-87660765D01*
X118145671Y-87669030D01*
X118167850Y-87679520D01*
X118188893Y-87692132D01*
X118208599Y-87706747D01*
X118226777Y-87723223D01*
X118243253Y-87741401D01*
X118257868Y-87761107D01*
X118270480Y-87782150D01*
X118280970Y-87804329D01*
X118289235Y-87827428D01*
X118295196Y-87851227D01*
X118298796Y-87875495D01*
X118300000Y-87899999D01*
X118300000Y-88550001D01*
X118298796Y-88574505D01*
X118295196Y-88598773D01*
X118289235Y-88622572D01*
X118280970Y-88645671D01*
X118270480Y-88667850D01*
X118257868Y-88688893D01*
X118243253Y-88708599D01*
X118226777Y-88726777D01*
X118208599Y-88743253D01*
X118188893Y-88757868D01*
X118167850Y-88770480D01*
X118145671Y-88780970D01*
X118122572Y-88789235D01*
X118098773Y-88795196D01*
X118074505Y-88798796D01*
X118050001Y-88800000D01*
X117149999Y-88800000D01*
X117125495Y-88798796D01*
X117101227Y-88795196D01*
X117077428Y-88789235D01*
X117054329Y-88780970D01*
X117032150Y-88770480D01*
X117011107Y-88757868D01*
X116991401Y-88743253D01*
X116973223Y-88726777D01*
X116956747Y-88708599D01*
X116942132Y-88688893D01*
X116929520Y-88667850D01*
X116919030Y-88645671D01*
X116910765Y-88622572D01*
X116904804Y-88598773D01*
X116901204Y-88574505D01*
X116900000Y-88550001D01*
X116900000Y-87899999D01*
X116901204Y-87875495D01*
X116904804Y-87851227D01*
X116910765Y-87827428D01*
X116919030Y-87804329D01*
X116929520Y-87782150D01*
X116942132Y-87761107D01*
X116956747Y-87741401D01*
X116973223Y-87723223D01*
X116991401Y-87706747D01*
X117011107Y-87692132D01*
X117032150Y-87679520D01*
X117054329Y-87669030D01*
X117077428Y-87660765D01*
X117101227Y-87654804D01*
X117125495Y-87651204D01*
X117149999Y-87650000D01*
X118050001Y-87650000D01*
X118074505Y-87651204D01*
G37*
G04 #@! TD.AperFunction*
G04 #@! TA.AperFunction,SMDPad,CuDef*
G36*
X116074505Y-85601204D02*
G01*
X116098773Y-85604804D01*
X116122572Y-85610765D01*
X116145671Y-85619030D01*
X116167850Y-85629520D01*
X116188893Y-85642132D01*
X116208599Y-85656747D01*
X116226777Y-85673223D01*
X116243253Y-85691401D01*
X116257868Y-85711107D01*
X116270480Y-85732150D01*
X116280970Y-85754329D01*
X116289235Y-85777428D01*
X116295196Y-85801227D01*
X116298796Y-85825495D01*
X116300000Y-85849999D01*
X116300000Y-86500001D01*
X116298796Y-86524505D01*
X116295196Y-86548773D01*
X116289235Y-86572572D01*
X116280970Y-86595671D01*
X116270480Y-86617850D01*
X116257868Y-86638893D01*
X116243253Y-86658599D01*
X116226777Y-86676777D01*
X116208599Y-86693253D01*
X116188893Y-86707868D01*
X116167850Y-86720480D01*
X116145671Y-86730970D01*
X116122572Y-86739235D01*
X116098773Y-86745196D01*
X116074505Y-86748796D01*
X116050001Y-86750000D01*
X115149999Y-86750000D01*
X115125495Y-86748796D01*
X115101227Y-86745196D01*
X115077428Y-86739235D01*
X115054329Y-86730970D01*
X115032150Y-86720480D01*
X115011107Y-86707868D01*
X114991401Y-86693253D01*
X114973223Y-86676777D01*
X114956747Y-86658599D01*
X114942132Y-86638893D01*
X114929520Y-86617850D01*
X114919030Y-86595671D01*
X114910765Y-86572572D01*
X114904804Y-86548773D01*
X114901204Y-86524505D01*
X114900000Y-86500001D01*
X114900000Y-85849999D01*
X114901204Y-85825495D01*
X114904804Y-85801227D01*
X114910765Y-85777428D01*
X114919030Y-85754329D01*
X114929520Y-85732150D01*
X114942132Y-85711107D01*
X114956747Y-85691401D01*
X114973223Y-85673223D01*
X114991401Y-85656747D01*
X115011107Y-85642132D01*
X115032150Y-85629520D01*
X115054329Y-85619030D01*
X115077428Y-85610765D01*
X115101227Y-85604804D01*
X115125495Y-85601204D01*
X115149999Y-85600000D01*
X116050001Y-85600000D01*
X116074505Y-85601204D01*
G37*
G04 #@! TD.AperFunction*
G04 #@! TA.AperFunction,SMDPad,CuDef*
G36*
X116074505Y-87651204D02*
G01*
X116098773Y-87654804D01*
X116122572Y-87660765D01*
X116145671Y-87669030D01*
X116167850Y-87679520D01*
X116188893Y-87692132D01*
X116208599Y-87706747D01*
X116226777Y-87723223D01*
X116243253Y-87741401D01*
X116257868Y-87761107D01*
X116270480Y-87782150D01*
X116280970Y-87804329D01*
X116289235Y-87827428D01*
X116295196Y-87851227D01*
X116298796Y-87875495D01*
X116300000Y-87899999D01*
X116300000Y-88550001D01*
X116298796Y-88574505D01*
X116295196Y-88598773D01*
X116289235Y-88622572D01*
X116280970Y-88645671D01*
X116270480Y-88667850D01*
X116257868Y-88688893D01*
X116243253Y-88708599D01*
X116226777Y-88726777D01*
X116208599Y-88743253D01*
X116188893Y-88757868D01*
X116167850Y-88770480D01*
X116145671Y-88780970D01*
X116122572Y-88789235D01*
X116098773Y-88795196D01*
X116074505Y-88798796D01*
X116050001Y-88800000D01*
X115149999Y-88800000D01*
X115125495Y-88798796D01*
X115101227Y-88795196D01*
X115077428Y-88789235D01*
X115054329Y-88780970D01*
X115032150Y-88770480D01*
X115011107Y-88757868D01*
X114991401Y-88743253D01*
X114973223Y-88726777D01*
X114956747Y-88708599D01*
X114942132Y-88688893D01*
X114929520Y-88667850D01*
X114919030Y-88645671D01*
X114910765Y-88622572D01*
X114904804Y-88598773D01*
X114901204Y-88574505D01*
X114900000Y-88550001D01*
X114900000Y-87899999D01*
X114901204Y-87875495D01*
X114904804Y-87851227D01*
X114910765Y-87827428D01*
X114919030Y-87804329D01*
X114929520Y-87782150D01*
X114942132Y-87761107D01*
X114956747Y-87741401D01*
X114973223Y-87723223D01*
X114991401Y-87706747D01*
X115011107Y-87692132D01*
X115032150Y-87679520D01*
X115054329Y-87669030D01*
X115077428Y-87660765D01*
X115101227Y-87654804D01*
X115125495Y-87651204D01*
X115149999Y-87650000D01*
X116050001Y-87650000D01*
X116074505Y-87651204D01*
G37*
G04 #@! TD.AperFunction*
G04 #@! TA.AperFunction,SMDPad,CuDef*
G36*
X122074505Y-87651204D02*
G01*
X122098773Y-87654804D01*
X122122572Y-87660765D01*
X122145671Y-87669030D01*
X122167850Y-87679520D01*
X122188893Y-87692132D01*
X122208599Y-87706747D01*
X122226777Y-87723223D01*
X122243253Y-87741401D01*
X122257868Y-87761107D01*
X122270480Y-87782150D01*
X122280970Y-87804329D01*
X122289235Y-87827428D01*
X122295196Y-87851227D01*
X122298796Y-87875495D01*
X122300000Y-87899999D01*
X122300000Y-88550001D01*
X122298796Y-88574505D01*
X122295196Y-88598773D01*
X122289235Y-88622572D01*
X122280970Y-88645671D01*
X122270480Y-88667850D01*
X122257868Y-88688893D01*
X122243253Y-88708599D01*
X122226777Y-88726777D01*
X122208599Y-88743253D01*
X122188893Y-88757868D01*
X122167850Y-88770480D01*
X122145671Y-88780970D01*
X122122572Y-88789235D01*
X122098773Y-88795196D01*
X122074505Y-88798796D01*
X122050001Y-88800000D01*
X121149999Y-88800000D01*
X121125495Y-88798796D01*
X121101227Y-88795196D01*
X121077428Y-88789235D01*
X121054329Y-88780970D01*
X121032150Y-88770480D01*
X121011107Y-88757868D01*
X120991401Y-88743253D01*
X120973223Y-88726777D01*
X120956747Y-88708599D01*
X120942132Y-88688893D01*
X120929520Y-88667850D01*
X120919030Y-88645671D01*
X120910765Y-88622572D01*
X120904804Y-88598773D01*
X120901204Y-88574505D01*
X120900000Y-88550001D01*
X120900000Y-87899999D01*
X120901204Y-87875495D01*
X120904804Y-87851227D01*
X120910765Y-87827428D01*
X120919030Y-87804329D01*
X120929520Y-87782150D01*
X120942132Y-87761107D01*
X120956747Y-87741401D01*
X120973223Y-87723223D01*
X120991401Y-87706747D01*
X121011107Y-87692132D01*
X121032150Y-87679520D01*
X121054329Y-87669030D01*
X121077428Y-87660765D01*
X121101227Y-87654804D01*
X121125495Y-87651204D01*
X121149999Y-87650000D01*
X122050001Y-87650000D01*
X122074505Y-87651204D01*
G37*
G04 #@! TD.AperFunction*
G04 #@! TA.AperFunction,SMDPad,CuDef*
G36*
X122074505Y-85601204D02*
G01*
X122098773Y-85604804D01*
X122122572Y-85610765D01*
X122145671Y-85619030D01*
X122167850Y-85629520D01*
X122188893Y-85642132D01*
X122208599Y-85656747D01*
X122226777Y-85673223D01*
X122243253Y-85691401D01*
X122257868Y-85711107D01*
X122270480Y-85732150D01*
X122280970Y-85754329D01*
X122289235Y-85777428D01*
X122295196Y-85801227D01*
X122298796Y-85825495D01*
X122300000Y-85849999D01*
X122300000Y-86500001D01*
X122298796Y-86524505D01*
X122295196Y-86548773D01*
X122289235Y-86572572D01*
X122280970Y-86595671D01*
X122270480Y-86617850D01*
X122257868Y-86638893D01*
X122243253Y-86658599D01*
X122226777Y-86676777D01*
X122208599Y-86693253D01*
X122188893Y-86707868D01*
X122167850Y-86720480D01*
X122145671Y-86730970D01*
X122122572Y-86739235D01*
X122098773Y-86745196D01*
X122074505Y-86748796D01*
X122050001Y-86750000D01*
X121149999Y-86750000D01*
X121125495Y-86748796D01*
X121101227Y-86745196D01*
X121077428Y-86739235D01*
X121054329Y-86730970D01*
X121032150Y-86720480D01*
X121011107Y-86707868D01*
X120991401Y-86693253D01*
X120973223Y-86676777D01*
X120956747Y-86658599D01*
X120942132Y-86638893D01*
X120929520Y-86617850D01*
X120919030Y-86595671D01*
X120910765Y-86572572D01*
X120904804Y-86548773D01*
X120901204Y-86524505D01*
X120900000Y-86500001D01*
X120900000Y-85849999D01*
X120901204Y-85825495D01*
X120904804Y-85801227D01*
X120910765Y-85777428D01*
X120919030Y-85754329D01*
X120929520Y-85732150D01*
X120942132Y-85711107D01*
X120956747Y-85691401D01*
X120973223Y-85673223D01*
X120991401Y-85656747D01*
X121011107Y-85642132D01*
X121032150Y-85629520D01*
X121054329Y-85619030D01*
X121077428Y-85610765D01*
X121101227Y-85604804D01*
X121125495Y-85601204D01*
X121149999Y-85600000D01*
X122050001Y-85600000D01*
X122074505Y-85601204D01*
G37*
G04 #@! TD.AperFunction*
G04 #@! TA.AperFunction,SMDPad,CuDef*
G36*
X120074505Y-87651204D02*
G01*
X120098773Y-87654804D01*
X120122572Y-87660765D01*
X120145671Y-87669030D01*
X120167850Y-87679520D01*
X120188893Y-87692132D01*
X120208599Y-87706747D01*
X120226777Y-87723223D01*
X120243253Y-87741401D01*
X120257868Y-87761107D01*
X120270480Y-87782150D01*
X120280970Y-87804329D01*
X120289235Y-87827428D01*
X120295196Y-87851227D01*
X120298796Y-87875495D01*
X120300000Y-87899999D01*
X120300000Y-88550001D01*
X120298796Y-88574505D01*
X120295196Y-88598773D01*
X120289235Y-88622572D01*
X120280970Y-88645671D01*
X120270480Y-88667850D01*
X120257868Y-88688893D01*
X120243253Y-88708599D01*
X120226777Y-88726777D01*
X120208599Y-88743253D01*
X120188893Y-88757868D01*
X120167850Y-88770480D01*
X120145671Y-88780970D01*
X120122572Y-88789235D01*
X120098773Y-88795196D01*
X120074505Y-88798796D01*
X120050001Y-88800000D01*
X119149999Y-88800000D01*
X119125495Y-88798796D01*
X119101227Y-88795196D01*
X119077428Y-88789235D01*
X119054329Y-88780970D01*
X119032150Y-88770480D01*
X119011107Y-88757868D01*
X118991401Y-88743253D01*
X118973223Y-88726777D01*
X118956747Y-88708599D01*
X118942132Y-88688893D01*
X118929520Y-88667850D01*
X118919030Y-88645671D01*
X118910765Y-88622572D01*
X118904804Y-88598773D01*
X118901204Y-88574505D01*
X118900000Y-88550001D01*
X118900000Y-87899999D01*
X118901204Y-87875495D01*
X118904804Y-87851227D01*
X118910765Y-87827428D01*
X118919030Y-87804329D01*
X118929520Y-87782150D01*
X118942132Y-87761107D01*
X118956747Y-87741401D01*
X118973223Y-87723223D01*
X118991401Y-87706747D01*
X119011107Y-87692132D01*
X119032150Y-87679520D01*
X119054329Y-87669030D01*
X119077428Y-87660765D01*
X119101227Y-87654804D01*
X119125495Y-87651204D01*
X119149999Y-87650000D01*
X120050001Y-87650000D01*
X120074505Y-87651204D01*
G37*
G04 #@! TD.AperFunction*
G04 #@! TA.AperFunction,SMDPad,CuDef*
G36*
X120074505Y-85601204D02*
G01*
X120098773Y-85604804D01*
X120122572Y-85610765D01*
X120145671Y-85619030D01*
X120167850Y-85629520D01*
X120188893Y-85642132D01*
X120208599Y-85656747D01*
X120226777Y-85673223D01*
X120243253Y-85691401D01*
X120257868Y-85711107D01*
X120270480Y-85732150D01*
X120280970Y-85754329D01*
X120289235Y-85777428D01*
X120295196Y-85801227D01*
X120298796Y-85825495D01*
X120300000Y-85849999D01*
X120300000Y-86500001D01*
X120298796Y-86524505D01*
X120295196Y-86548773D01*
X120289235Y-86572572D01*
X120280970Y-86595671D01*
X120270480Y-86617850D01*
X120257868Y-86638893D01*
X120243253Y-86658599D01*
X120226777Y-86676777D01*
X120208599Y-86693253D01*
X120188893Y-86707868D01*
X120167850Y-86720480D01*
X120145671Y-86730970D01*
X120122572Y-86739235D01*
X120098773Y-86745196D01*
X120074505Y-86748796D01*
X120050001Y-86750000D01*
X119149999Y-86750000D01*
X119125495Y-86748796D01*
X119101227Y-86745196D01*
X119077428Y-86739235D01*
X119054329Y-86730970D01*
X119032150Y-86720480D01*
X119011107Y-86707868D01*
X118991401Y-86693253D01*
X118973223Y-86676777D01*
X118956747Y-86658599D01*
X118942132Y-86638893D01*
X118929520Y-86617850D01*
X118919030Y-86595671D01*
X118910765Y-86572572D01*
X118904804Y-86548773D01*
X118901204Y-86524505D01*
X118900000Y-86500001D01*
X118900000Y-85849999D01*
X118901204Y-85825495D01*
X118904804Y-85801227D01*
X118910765Y-85777428D01*
X118919030Y-85754329D01*
X118929520Y-85732150D01*
X118942132Y-85711107D01*
X118956747Y-85691401D01*
X118973223Y-85673223D01*
X118991401Y-85656747D01*
X119011107Y-85642132D01*
X119032150Y-85629520D01*
X119054329Y-85619030D01*
X119077428Y-85610765D01*
X119101227Y-85604804D01*
X119125495Y-85601204D01*
X119149999Y-85600000D01*
X120050001Y-85600000D01*
X120074505Y-85601204D01*
G37*
G04 #@! TD.AperFunction*
G04 #@! TA.AperFunction,SMDPad,CuDef*
G36*
X113974505Y-87651204D02*
G01*
X113998773Y-87654804D01*
X114022572Y-87660765D01*
X114045671Y-87669030D01*
X114067850Y-87679520D01*
X114088893Y-87692132D01*
X114108599Y-87706747D01*
X114126777Y-87723223D01*
X114143253Y-87741401D01*
X114157868Y-87761107D01*
X114170480Y-87782150D01*
X114180970Y-87804329D01*
X114189235Y-87827428D01*
X114195196Y-87851227D01*
X114198796Y-87875495D01*
X114200000Y-87899999D01*
X114200000Y-88550001D01*
X114198796Y-88574505D01*
X114195196Y-88598773D01*
X114189235Y-88622572D01*
X114180970Y-88645671D01*
X114170480Y-88667850D01*
X114157868Y-88688893D01*
X114143253Y-88708599D01*
X114126777Y-88726777D01*
X114108599Y-88743253D01*
X114088893Y-88757868D01*
X114067850Y-88770480D01*
X114045671Y-88780970D01*
X114022572Y-88789235D01*
X113998773Y-88795196D01*
X113974505Y-88798796D01*
X113950001Y-88800000D01*
X113049999Y-88800000D01*
X113025495Y-88798796D01*
X113001227Y-88795196D01*
X112977428Y-88789235D01*
X112954329Y-88780970D01*
X112932150Y-88770480D01*
X112911107Y-88757868D01*
X112891401Y-88743253D01*
X112873223Y-88726777D01*
X112856747Y-88708599D01*
X112842132Y-88688893D01*
X112829520Y-88667850D01*
X112819030Y-88645671D01*
X112810765Y-88622572D01*
X112804804Y-88598773D01*
X112801204Y-88574505D01*
X112800000Y-88550001D01*
X112800000Y-87899999D01*
X112801204Y-87875495D01*
X112804804Y-87851227D01*
X112810765Y-87827428D01*
X112819030Y-87804329D01*
X112829520Y-87782150D01*
X112842132Y-87761107D01*
X112856747Y-87741401D01*
X112873223Y-87723223D01*
X112891401Y-87706747D01*
X112911107Y-87692132D01*
X112932150Y-87679520D01*
X112954329Y-87669030D01*
X112977428Y-87660765D01*
X113001227Y-87654804D01*
X113025495Y-87651204D01*
X113049999Y-87650000D01*
X113950001Y-87650000D01*
X113974505Y-87651204D01*
G37*
G04 #@! TD.AperFunction*
G04 #@! TA.AperFunction,SMDPad,CuDef*
G36*
X113974505Y-85601204D02*
G01*
X113998773Y-85604804D01*
X114022572Y-85610765D01*
X114045671Y-85619030D01*
X114067850Y-85629520D01*
X114088893Y-85642132D01*
X114108599Y-85656747D01*
X114126777Y-85673223D01*
X114143253Y-85691401D01*
X114157868Y-85711107D01*
X114170480Y-85732150D01*
X114180970Y-85754329D01*
X114189235Y-85777428D01*
X114195196Y-85801227D01*
X114198796Y-85825495D01*
X114200000Y-85849999D01*
X114200000Y-86500001D01*
X114198796Y-86524505D01*
X114195196Y-86548773D01*
X114189235Y-86572572D01*
X114180970Y-86595671D01*
X114170480Y-86617850D01*
X114157868Y-86638893D01*
X114143253Y-86658599D01*
X114126777Y-86676777D01*
X114108599Y-86693253D01*
X114088893Y-86707868D01*
X114067850Y-86720480D01*
X114045671Y-86730970D01*
X114022572Y-86739235D01*
X113998773Y-86745196D01*
X113974505Y-86748796D01*
X113950001Y-86750000D01*
X113049999Y-86750000D01*
X113025495Y-86748796D01*
X113001227Y-86745196D01*
X112977428Y-86739235D01*
X112954329Y-86730970D01*
X112932150Y-86720480D01*
X112911107Y-86707868D01*
X112891401Y-86693253D01*
X112873223Y-86676777D01*
X112856747Y-86658599D01*
X112842132Y-86638893D01*
X112829520Y-86617850D01*
X112819030Y-86595671D01*
X112810765Y-86572572D01*
X112804804Y-86548773D01*
X112801204Y-86524505D01*
X112800000Y-86500001D01*
X112800000Y-85849999D01*
X112801204Y-85825495D01*
X112804804Y-85801227D01*
X112810765Y-85777428D01*
X112819030Y-85754329D01*
X112829520Y-85732150D01*
X112842132Y-85711107D01*
X112856747Y-85691401D01*
X112873223Y-85673223D01*
X112891401Y-85656747D01*
X112911107Y-85642132D01*
X112932150Y-85629520D01*
X112954329Y-85619030D01*
X112977428Y-85610765D01*
X113001227Y-85604804D01*
X113025495Y-85601204D01*
X113049999Y-85600000D01*
X113950001Y-85600000D01*
X113974505Y-85601204D01*
G37*
G04 #@! TD.AperFunction*
G04 #@! TA.AperFunction,SMDPad,CuDef*
G36*
X126474505Y-87651204D02*
G01*
X126498773Y-87654804D01*
X126522572Y-87660765D01*
X126545671Y-87669030D01*
X126567850Y-87679520D01*
X126588893Y-87692132D01*
X126608599Y-87706747D01*
X126626777Y-87723223D01*
X126643253Y-87741401D01*
X126657868Y-87761107D01*
X126670480Y-87782150D01*
X126680970Y-87804329D01*
X126689235Y-87827428D01*
X126695196Y-87851227D01*
X126698796Y-87875495D01*
X126700000Y-87899999D01*
X126700000Y-88550001D01*
X126698796Y-88574505D01*
X126695196Y-88598773D01*
X126689235Y-88622572D01*
X126680970Y-88645671D01*
X126670480Y-88667850D01*
X126657868Y-88688893D01*
X126643253Y-88708599D01*
X126626777Y-88726777D01*
X126608599Y-88743253D01*
X126588893Y-88757868D01*
X126567850Y-88770480D01*
X126545671Y-88780970D01*
X126522572Y-88789235D01*
X126498773Y-88795196D01*
X126474505Y-88798796D01*
X126450001Y-88800000D01*
X125549999Y-88800000D01*
X125525495Y-88798796D01*
X125501227Y-88795196D01*
X125477428Y-88789235D01*
X125454329Y-88780970D01*
X125432150Y-88770480D01*
X125411107Y-88757868D01*
X125391401Y-88743253D01*
X125373223Y-88726777D01*
X125356747Y-88708599D01*
X125342132Y-88688893D01*
X125329520Y-88667850D01*
X125319030Y-88645671D01*
X125310765Y-88622572D01*
X125304804Y-88598773D01*
X125301204Y-88574505D01*
X125300000Y-88550001D01*
X125300000Y-87899999D01*
X125301204Y-87875495D01*
X125304804Y-87851227D01*
X125310765Y-87827428D01*
X125319030Y-87804329D01*
X125329520Y-87782150D01*
X125342132Y-87761107D01*
X125356747Y-87741401D01*
X125373223Y-87723223D01*
X125391401Y-87706747D01*
X125411107Y-87692132D01*
X125432150Y-87679520D01*
X125454329Y-87669030D01*
X125477428Y-87660765D01*
X125501227Y-87654804D01*
X125525495Y-87651204D01*
X125549999Y-87650000D01*
X126450001Y-87650000D01*
X126474505Y-87651204D01*
G37*
G04 #@! TD.AperFunction*
G04 #@! TA.AperFunction,SMDPad,CuDef*
G36*
X126474505Y-85601204D02*
G01*
X126498773Y-85604804D01*
X126522572Y-85610765D01*
X126545671Y-85619030D01*
X126567850Y-85629520D01*
X126588893Y-85642132D01*
X126608599Y-85656747D01*
X126626777Y-85673223D01*
X126643253Y-85691401D01*
X126657868Y-85711107D01*
X126670480Y-85732150D01*
X126680970Y-85754329D01*
X126689235Y-85777428D01*
X126695196Y-85801227D01*
X126698796Y-85825495D01*
X126700000Y-85849999D01*
X126700000Y-86500001D01*
X126698796Y-86524505D01*
X126695196Y-86548773D01*
X126689235Y-86572572D01*
X126680970Y-86595671D01*
X126670480Y-86617850D01*
X126657868Y-86638893D01*
X126643253Y-86658599D01*
X126626777Y-86676777D01*
X126608599Y-86693253D01*
X126588893Y-86707868D01*
X126567850Y-86720480D01*
X126545671Y-86730970D01*
X126522572Y-86739235D01*
X126498773Y-86745196D01*
X126474505Y-86748796D01*
X126450001Y-86750000D01*
X125549999Y-86750000D01*
X125525495Y-86748796D01*
X125501227Y-86745196D01*
X125477428Y-86739235D01*
X125454329Y-86730970D01*
X125432150Y-86720480D01*
X125411107Y-86707868D01*
X125391401Y-86693253D01*
X125373223Y-86676777D01*
X125356747Y-86658599D01*
X125342132Y-86638893D01*
X125329520Y-86617850D01*
X125319030Y-86595671D01*
X125310765Y-86572572D01*
X125304804Y-86548773D01*
X125301204Y-86524505D01*
X125300000Y-86500001D01*
X125300000Y-85849999D01*
X125301204Y-85825495D01*
X125304804Y-85801227D01*
X125310765Y-85777428D01*
X125319030Y-85754329D01*
X125329520Y-85732150D01*
X125342132Y-85711107D01*
X125356747Y-85691401D01*
X125373223Y-85673223D01*
X125391401Y-85656747D01*
X125411107Y-85642132D01*
X125432150Y-85629520D01*
X125454329Y-85619030D01*
X125477428Y-85610765D01*
X125501227Y-85604804D01*
X125525495Y-85601204D01*
X125549999Y-85600000D01*
X126450001Y-85600000D01*
X126474505Y-85601204D01*
G37*
G04 #@! TD.AperFunction*
D14*
X107900000Y-98050000D03*
X107900000Y-96150000D03*
X105700000Y-96150000D03*
X105700000Y-97100000D03*
X105700000Y-98050000D03*
D15*
X110300000Y-81900000D03*
D16*
X110300000Y-82900000D03*
D15*
X124300000Y-81900000D03*
X122300000Y-81900000D03*
X120300000Y-81900000D03*
X118300000Y-81900000D03*
X116300000Y-81900000D03*
X114300000Y-81900000D03*
X112300000Y-81900000D03*
D16*
X124300000Y-82900000D03*
X122300000Y-82900000D03*
X120300000Y-82900000D03*
X118300000Y-82900000D03*
X116300000Y-82900000D03*
X114300000Y-82900000D03*
X112300000Y-82900000D03*
D17*
X113600000Y-92100000D03*
D15*
X115600000Y-92100000D03*
D17*
X117600000Y-92100000D03*
X119600000Y-92100000D03*
X121600000Y-92100000D03*
D15*
X123600000Y-92100000D03*
D11*
X111500000Y-109800000D03*
X114040000Y-109800000D03*
X116580000Y-109800000D03*
X119120000Y-109800000D03*
X121660000Y-109800000D03*
D10*
X124200000Y-109800000D03*
D18*
X123900000Y-96600000D03*
X109112500Y-103712500D03*
X112900000Y-106400000D03*
X126300000Y-103606998D03*
X126300000Y-98900000D03*
X110000000Y-68000000D03*
X112000000Y-66000000D03*
X112000000Y-71000000D03*
X114000000Y-66000000D03*
X116000000Y-66000000D03*
X118000000Y-66000000D03*
X125612200Y-94935700D03*
X110000000Y-74000000D03*
X110000000Y-71000000D03*
X110000000Y-65000000D03*
X117000000Y-72000000D03*
X118000000Y-71000000D03*
X117000000Y-71000000D03*
X124000000Y-74000000D03*
X124000000Y-71000000D03*
X124000000Y-68000000D03*
X124000000Y-65000000D03*
X122000000Y-65000000D03*
X120000000Y-66000000D03*
X122000000Y-71000000D03*
X115000000Y-75000000D03*
X117000000Y-75000000D03*
X119000000Y-75000000D03*
X122000000Y-90000000D03*
X122730000Y-84730000D03*
X131260000Y-101400000D03*
X131260000Y-102860000D03*
X129390000Y-110570000D03*
X132550000Y-110590000D03*
X104850000Y-110470000D03*
X109440000Y-106540000D03*
X105200000Y-101700000D03*
X105900000Y-107100000D03*
X111620000Y-106540000D03*
X114528300Y-98768300D03*
X105600000Y-73600000D03*
X126700000Y-97200000D03*
X126000000Y-106700000D03*
X118400000Y-103400000D03*
X115762900Y-96507900D03*
X107173700Y-82836600D03*
X109696400Y-80634500D03*
X109017900Y-82943100D03*
X118300000Y-76300000D03*
X120025700Y-98391500D03*
X123148500Y-98089200D03*
X118300000Y-78300000D03*
X112254400Y-89400000D03*
X113313100Y-89409900D03*
X115538400Y-90200000D03*
X119800000Y-97244900D03*
X119000000Y-96451500D03*
X109487700Y-88896900D03*
X108425400Y-88430000D03*
X111226100Y-79561500D03*
X103400000Y-84080000D03*
X105712900Y-95206100D03*
X110487200Y-78725800D03*
D19*
X121600000Y-93054594D02*
X123900000Y-95354594D01*
X121600000Y-92100000D02*
X121600000Y-93054594D01*
X123900000Y-95354594D02*
X123900000Y-96600000D01*
X123900000Y-96600000D02*
X123900000Y-96600000D01*
X109512499Y-104112499D02*
X110612499Y-104112499D01*
X109112500Y-103712500D02*
X109512499Y-104112499D01*
X110612499Y-104112499D02*
X112900000Y-106400000D01*
X112900000Y-106400000D02*
X112900000Y-106400000D01*
X126300000Y-103606998D02*
X126300000Y-98900000D01*
X122300000Y-82900000D02*
X122300000Y-81900000D01*
X122300000Y-82900000D02*
X122300000Y-84125300D01*
X117600000Y-88225000D02*
X118548800Y-87276200D01*
X118548800Y-87276200D02*
X122651200Y-87276200D01*
X122651200Y-87276200D02*
X123600000Y-88225000D01*
X104957300Y-97100000D02*
X104844700Y-97100000D01*
X105700000Y-97100000D02*
X104957300Y-97100000D01*
X117600000Y-88225000D02*
X115600000Y-88225000D01*
X114040000Y-109800000D02*
X111500000Y-109800000D01*
X105350000Y-92350000D02*
X105350000Y-93650000D01*
X101811200Y-103430000D02*
X103720000Y-103430000D01*
X101124700Y-104116500D02*
X101811200Y-103430000D01*
X101124700Y-107796800D02*
X101124700Y-104116500D01*
X101932600Y-108604700D02*
X101124700Y-107796800D01*
X103475300Y-109780000D02*
X102300000Y-109780000D01*
X102300000Y-109780000D02*
X102300000Y-108604700D01*
X102300000Y-108604700D02*
X101932600Y-108604700D01*
X103495300Y-109800000D02*
X103475300Y-109780000D01*
X111500000Y-109800000D02*
X103495300Y-109800000D01*
X105700000Y-96150000D02*
X106555300Y-96150000D01*
X106555300Y-98050000D02*
X106555300Y-96150000D01*
X109182700Y-101532600D02*
X106555300Y-98905200D01*
X106555300Y-98905200D02*
X106555300Y-98050000D01*
X109182700Y-101532600D02*
X103475300Y-107240000D01*
X113212000Y-101601400D02*
X109251500Y-101601400D01*
X109251500Y-101601400D02*
X109182700Y-101532600D01*
X105700000Y-98050000D02*
X106555300Y-98050000D01*
X115762900Y-99143000D02*
X115762900Y-96507900D01*
X113212000Y-101601400D02*
X115670400Y-99143000D01*
X115670400Y-99143000D02*
X115762900Y-99143000D01*
X115600000Y-92487500D02*
X116086100Y-92487500D01*
X116086100Y-92487500D02*
X120757100Y-97158500D01*
X120757100Y-97158500D02*
X120757100Y-98753900D01*
X120757100Y-98753900D02*
X120368000Y-99143000D01*
X120368000Y-99143000D02*
X115762900Y-99143000D01*
X102300000Y-107240000D02*
X103475300Y-107240000D01*
X116580000Y-109800000D02*
X116580000Y-108624700D01*
X116580000Y-108624700D02*
X113212000Y-105256700D01*
X113212000Y-105256700D02*
X113212000Y-101601400D01*
X109250000Y-85399700D02*
X109250000Y-84912900D01*
X109250000Y-84912900D02*
X107173700Y-82836600D01*
X109250000Y-87500300D02*
X110676200Y-88926500D01*
X110676200Y-88926500D02*
X110676200Y-90653600D01*
X110676200Y-90653600D02*
X113135700Y-93113100D01*
X113135700Y-93113100D02*
X114974400Y-93113100D01*
X114974400Y-93113100D02*
X115600000Y-92487500D01*
X115600000Y-92100000D02*
X115600000Y-92487500D01*
X109250000Y-86450000D02*
X109250000Y-87500300D01*
X109250000Y-86450000D02*
X109250000Y-85399700D01*
X122875600Y-98825600D02*
X123441800Y-98825600D01*
X123441800Y-98825600D02*
X127504500Y-94762900D01*
X127504500Y-94762900D02*
X127504500Y-83640000D01*
X127504500Y-83640000D02*
X121435500Y-77571000D01*
X121435500Y-77571000D02*
X110584200Y-77571000D01*
X110584200Y-77571000D02*
X109696400Y-78458800D01*
X109696400Y-78458800D02*
X109696400Y-80634500D01*
X119600000Y-93100300D02*
X122423200Y-95923500D01*
X122423200Y-95923500D02*
X122423200Y-98486400D01*
X122423200Y-98486400D02*
X122762400Y-98825600D01*
X122762400Y-98825600D02*
X122875600Y-98825600D01*
X120295300Y-109800000D02*
X120295300Y-110167300D01*
X120295300Y-110167300D02*
X121129400Y-111001400D01*
X121129400Y-111001400D02*
X122171400Y-111001400D01*
X122171400Y-111001400D02*
X122875600Y-110297200D01*
X122875600Y-110297200D02*
X122875600Y-98825600D01*
X119600000Y-92100000D02*
X119600000Y-93100300D01*
X119120000Y-109800000D02*
X120295300Y-109800000D01*
X121252900Y-108217600D02*
X119015700Y-108217600D01*
X119015700Y-108217600D02*
X117938300Y-109295000D01*
X117938300Y-109295000D02*
X117938300Y-110357500D01*
X117938300Y-110357500D02*
X119034200Y-111453400D01*
X119034200Y-111453400D02*
X124732100Y-111453400D01*
X124732100Y-111453400D02*
X127954900Y-108230600D01*
X127954900Y-108230600D02*
X127954900Y-83453500D01*
X127954900Y-83453500D02*
X121616800Y-77115400D01*
X121616800Y-77115400D02*
X110368200Y-77115400D01*
X110368200Y-77115400D02*
X108931800Y-78551800D01*
X108931800Y-78551800D02*
X108931800Y-82857000D01*
X108931800Y-82857000D02*
X109017900Y-82943100D01*
X121252900Y-108217600D02*
X121660000Y-108624700D01*
X117600000Y-93100300D02*
X121252900Y-96753200D01*
X121252900Y-96753200D02*
X121252900Y-108217600D01*
X121660000Y-109800000D02*
X121660000Y-108624700D01*
X117600000Y-92100000D02*
X117600000Y-93100300D01*
X114300000Y-82900000D02*
X114300000Y-81900000D01*
X126000000Y-86175000D02*
X127043600Y-87218600D01*
X127043600Y-87218600D02*
X127043600Y-94558700D01*
X127043600Y-94558700D02*
X123513100Y-98089200D01*
X123513100Y-98089200D02*
X123148500Y-98089200D01*
X124300000Y-82900000D02*
X124300000Y-81900000D01*
X126000000Y-86175000D02*
X124300000Y-84475000D01*
X124300000Y-84475000D02*
X124300000Y-82900000D01*
X120025700Y-98391500D02*
X118773500Y-98391500D01*
X118773500Y-98391500D02*
X116442400Y-96060400D01*
X116442400Y-96060400D02*
X116341200Y-96060400D01*
X116341200Y-96060400D02*
X116063400Y-95782600D01*
X116063400Y-95782600D02*
X115462500Y-95782600D01*
X115462500Y-95782600D02*
X115308200Y-95936900D01*
X115308200Y-95936900D02*
X110868500Y-95936900D01*
X110868500Y-95936900D02*
X110868500Y-95936800D01*
X110868500Y-95936800D02*
X110440800Y-95509200D01*
X110440800Y-95509200D02*
X110440800Y-94591100D01*
X110440800Y-94591100D02*
X109250000Y-93400300D01*
X108755300Y-98050000D02*
X110868500Y-95936800D01*
X107900000Y-98050000D02*
X108755300Y-98050000D01*
X109250000Y-92350000D02*
X109250000Y-93400300D01*
X109250000Y-92350000D02*
X109250000Y-91531900D01*
X109250000Y-91531900D02*
X107953800Y-90235700D01*
X107953800Y-90235700D02*
X107875600Y-90235700D01*
X107875600Y-90235700D02*
X105350000Y-87710100D01*
X105350000Y-87710100D02*
X105350000Y-86450000D01*
X124300000Y-81750000D02*
X124300000Y-82900000D01*
X120800000Y-78300000D02*
X124300000Y-81750000D01*
X118300000Y-78300000D02*
X120800000Y-78300000D01*
X117734315Y-76300000D02*
X118300000Y-76300000D01*
X108674990Y-75234626D02*
X109740364Y-76300000D01*
X108674990Y-72774990D02*
X108674990Y-75234626D01*
X109740364Y-76300000D02*
X117734315Y-76300000D01*
X103500000Y-67600000D02*
X108674990Y-72774990D01*
X102400000Y-67600000D02*
X103500000Y-67600000D01*
X113777100Y-90922600D02*
X115560500Y-89139200D01*
X115560500Y-89139200D02*
X118401100Y-89139200D01*
X118401100Y-89139200D02*
X119315300Y-88225000D01*
X119315300Y-88225000D02*
X119600000Y-88225000D01*
X113600000Y-91099700D02*
X113777100Y-90922600D01*
X113777100Y-90922600D02*
X112254400Y-89400000D01*
X113600000Y-92100000D02*
X113600000Y-91099700D01*
X113500000Y-88225000D02*
X113500000Y-89223000D01*
X113500000Y-89223000D02*
X113313100Y-89409900D01*
X115600000Y-86175000D02*
X113500000Y-86175000D01*
X110300000Y-84125300D02*
X111450300Y-84125300D01*
X111450300Y-84125300D02*
X113500000Y-86175000D01*
X110300000Y-82900000D02*
X110300000Y-84125300D01*
X110300000Y-81900000D02*
X110300000Y-82900000D01*
X119600000Y-86175000D02*
X117600000Y-86175000D01*
X118300000Y-82900000D02*
X118300000Y-84125300D01*
X118300000Y-84125300D02*
X117600000Y-84825300D01*
X117600000Y-84825300D02*
X117600000Y-86175000D01*
X118300000Y-81900000D02*
X118300000Y-82900000D01*
X121600000Y-88225000D02*
X119625000Y-90200000D01*
X119625000Y-90200000D02*
X115538400Y-90200000D01*
X123600000Y-86175000D02*
X121600000Y-86175000D01*
X120300000Y-82900000D02*
X120300000Y-84875000D01*
X120300000Y-84875000D02*
X121600000Y-86175000D01*
X120300000Y-81900000D02*
X120300000Y-82900000D01*
X119800000Y-97244900D02*
X118518000Y-97244900D01*
X118518000Y-97244900D02*
X116066000Y-94792900D01*
X116066000Y-94792900D02*
X113261500Y-94792900D01*
X113261500Y-94792900D02*
X108253900Y-89785300D01*
X108253900Y-89785300D02*
X108078100Y-89785300D01*
X108078100Y-89785300D02*
X106650000Y-88357200D01*
X106650000Y-88357200D02*
X106650000Y-86450000D01*
X102300000Y-78995300D02*
X102667300Y-78995300D01*
X102740000Y-78995300D02*
X104004300Y-80259600D01*
X103931600Y-80259600D02*
X103931600Y-82681300D01*
X103931600Y-82681300D02*
X106650000Y-85399700D01*
X106650000Y-86450000D02*
X106650000Y-85399700D01*
X102300000Y-77820000D02*
X102300000Y-78995300D01*
X104518100Y-78306100D02*
X104518100Y-81992100D01*
X104518100Y-81992100D02*
X107300000Y-84774000D01*
X107300000Y-84774000D02*
X107300000Y-86450000D01*
X119000000Y-96451500D02*
X116891100Y-94342600D01*
X116891100Y-94342600D02*
X113702800Y-94342600D01*
X113702800Y-94342600D02*
X108544800Y-89184600D01*
X108544800Y-89184600D02*
X108146000Y-89184600D01*
X108146000Y-89184600D02*
X107300000Y-88338600D01*
X107300000Y-88338600D02*
X107300000Y-86450000D01*
X102720000Y-76450000D02*
X104530000Y-78320000D01*
X102300000Y-76450000D02*
X102720000Y-76450000D01*
X102300000Y-75280000D02*
X102300000Y-76450000D01*
X109487700Y-88896900D02*
X109487700Y-88427200D01*
X109487700Y-88427200D02*
X108600000Y-87539500D01*
X108600000Y-87539500D02*
X108600000Y-86450000D01*
X107950000Y-86450000D02*
X107950000Y-87954600D01*
X107950000Y-87954600D02*
X108425400Y-88430000D01*
X116300000Y-81900000D02*
X113961500Y-79561500D01*
X113961500Y-79561500D02*
X111226100Y-79561500D01*
X116300000Y-82900000D02*
X116300000Y-81900000D01*
X108600000Y-91518800D02*
X108600000Y-92350000D01*
X108281300Y-91200100D02*
X108600000Y-91518800D01*
X108178200Y-91200100D02*
X108281300Y-91200100D01*
X103746900Y-86768800D02*
X108178200Y-91200100D01*
X103746900Y-84626800D02*
X103746900Y-86768800D01*
X103400000Y-84080000D02*
X103746900Y-84626800D01*
X112300000Y-81900000D02*
X110487200Y-80087200D01*
X110487200Y-80087200D02*
X110487200Y-78725800D01*
X107950000Y-92350000D02*
X107950000Y-93400300D01*
X107950000Y-93400300D02*
X107518700Y-93400300D01*
X107518700Y-93400300D02*
X105712900Y-95206100D01*
X112300000Y-82900000D02*
X112300000Y-81900000D01*
X103610000Y-71550000D02*
X102300000Y-72740000D01*
X102953500Y-68979100D02*
X103610000Y-69635600D01*
X101785200Y-68979100D02*
X102953500Y-68979100D01*
X100635400Y-70128900D02*
X101785200Y-68979100D01*
X106650000Y-91299700D02*
X103902900Y-91299700D01*
X100635400Y-88032200D02*
X100635400Y-70128900D01*
X103610000Y-69635600D02*
X103610000Y-71548600D01*
X103902900Y-91299700D02*
X100635400Y-88032200D01*
X106650000Y-92350000D02*
X106650000Y-91299700D01*
X102300000Y-71375300D02*
X102300000Y-70200000D01*
X101932600Y-71375300D02*
X102300000Y-71375300D01*
X101124700Y-72183200D02*
X101932600Y-71375300D01*
X101124700Y-85991000D02*
X101124700Y-72183200D01*
X101843700Y-86710000D02*
X101124700Y-85991000D01*
X102820000Y-86710000D02*
X101843700Y-86710000D01*
X107300000Y-91241500D02*
X102820000Y-86710000D01*
X107300000Y-92350000D02*
X107300000Y-91241500D01*
D20*
G36*
X108077500Y-103814439D02*
G01*
X108117274Y-104014398D01*
X108195295Y-104202756D01*
X108308563Y-104372274D01*
X108452726Y-104516437D01*
X108622244Y-104629705D01*
X108810602Y-104707726D01*
X109010561Y-104747500D01*
X109088274Y-104747500D01*
X109220252Y-104818045D01*
X109363513Y-104861502D01*
X109475166Y-104872499D01*
X109475176Y-104872499D01*
X109512498Y-104876175D01*
X109549821Y-104872499D01*
X110297698Y-104872499D01*
X111865000Y-106439802D01*
X111865000Y-106501939D01*
X111904774Y-106701898D01*
X111982795Y-106890256D01*
X112096063Y-107059774D01*
X112240226Y-107203937D01*
X112409744Y-107317205D01*
X112598102Y-107395226D01*
X112798061Y-107435000D01*
X113001939Y-107435000D01*
X113201898Y-107395226D01*
X113390256Y-107317205D01*
X113559774Y-107203937D01*
X113703937Y-107059774D01*
X113798600Y-106918101D01*
X115580196Y-108699697D01*
X115426525Y-108853368D01*
X115304805Y-109035534D01*
X115235178Y-108918645D01*
X115040269Y-108702412D01*
X114806920Y-108528359D01*
X114544099Y-108403175D01*
X114396890Y-108358524D01*
X114167000Y-108479845D01*
X114167000Y-109673000D01*
X114187000Y-109673000D01*
X114187000Y-109927000D01*
X114167000Y-109927000D01*
X114167000Y-109947000D01*
X113913000Y-109947000D01*
X113913000Y-109927000D01*
X111627000Y-109927000D01*
X111627000Y-109947000D01*
X111373000Y-109947000D01*
X111373000Y-109927000D01*
X110179186Y-109927000D01*
X110058519Y-110156891D01*
X110155843Y-110431252D01*
X110304822Y-110681355D01*
X110499731Y-110897588D01*
X110733080Y-111071641D01*
X110995901Y-111196825D01*
X111055822Y-111215000D01*
X102775161Y-111215000D01*
X103031252Y-111124157D01*
X103281355Y-110975178D01*
X103497588Y-110780269D01*
X103671641Y-110546920D01*
X103796825Y-110284099D01*
X103841476Y-110136890D01*
X103720155Y-109907000D01*
X102527000Y-109907000D01*
X102527000Y-109927000D01*
X102273000Y-109927000D01*
X102273000Y-109907000D01*
X102253000Y-109907000D01*
X102253000Y-109653000D01*
X102273000Y-109653000D01*
X102273000Y-109633000D01*
X102527000Y-109633000D01*
X102527000Y-109653000D01*
X103720155Y-109653000D01*
X103830921Y-109443109D01*
X110058519Y-109443109D01*
X110179186Y-109673000D01*
X111373000Y-109673000D01*
X111373000Y-108479845D01*
X111627000Y-108479845D01*
X111627000Y-109673000D01*
X113913000Y-109673000D01*
X113913000Y-108479845D01*
X113683110Y-108358524D01*
X113535901Y-108403175D01*
X113273080Y-108528359D01*
X113039731Y-108702412D01*
X112844822Y-108918645D01*
X112770000Y-109044255D01*
X112695178Y-108918645D01*
X112500269Y-108702412D01*
X112266920Y-108528359D01*
X112004099Y-108403175D01*
X111856890Y-108358524D01*
X111627000Y-108479845D01*
X111373000Y-108479845D01*
X111143110Y-108358524D01*
X110995901Y-108403175D01*
X110733080Y-108528359D01*
X110499731Y-108702412D01*
X110304822Y-108918645D01*
X110155843Y-109168748D01*
X110058519Y-109443109D01*
X103830921Y-109443109D01*
X103841476Y-109423110D01*
X103796825Y-109275901D01*
X103671641Y-109013080D01*
X103497588Y-108779731D01*
X103281355Y-108584822D01*
X103164466Y-108515195D01*
X103346632Y-108393475D01*
X103553475Y-108186632D01*
X103701094Y-107965704D01*
X103767547Y-107945546D01*
X103899576Y-107874974D01*
X104015301Y-107780001D01*
X104039104Y-107750997D01*
X108077500Y-103712602D01*
X108077500Y-103814439D01*
G37*
X108077500Y-103814439D02*
X108117274Y-104014398D01*
X108195295Y-104202756D01*
X108308563Y-104372274D01*
X108452726Y-104516437D01*
X108622244Y-104629705D01*
X108810602Y-104707726D01*
X109010561Y-104747500D01*
X109088274Y-104747500D01*
X109220252Y-104818045D01*
X109363513Y-104861502D01*
X109475166Y-104872499D01*
X109475176Y-104872499D01*
X109512498Y-104876175D01*
X109549821Y-104872499D01*
X110297698Y-104872499D01*
X111865000Y-106439802D01*
X111865000Y-106501939D01*
X111904774Y-106701898D01*
X111982795Y-106890256D01*
X112096063Y-107059774D01*
X112240226Y-107203937D01*
X112409744Y-107317205D01*
X112598102Y-107395226D01*
X112798061Y-107435000D01*
X113001939Y-107435000D01*
X113201898Y-107395226D01*
X113390256Y-107317205D01*
X113559774Y-107203937D01*
X113703937Y-107059774D01*
X113798600Y-106918101D01*
X115580196Y-108699697D01*
X115426525Y-108853368D01*
X115304805Y-109035534D01*
X115235178Y-108918645D01*
X115040269Y-108702412D01*
X114806920Y-108528359D01*
X114544099Y-108403175D01*
X114396890Y-108358524D01*
X114167000Y-108479845D01*
X114167000Y-109673000D01*
X114187000Y-109673000D01*
X114187000Y-109927000D01*
X114167000Y-109927000D01*
X114167000Y-109947000D01*
X113913000Y-109947000D01*
X113913000Y-109927000D01*
X111627000Y-109927000D01*
X111627000Y-109947000D01*
X111373000Y-109947000D01*
X111373000Y-109927000D01*
X110179186Y-109927000D01*
X110058519Y-110156891D01*
X110155843Y-110431252D01*
X110304822Y-110681355D01*
X110499731Y-110897588D01*
X110733080Y-111071641D01*
X110995901Y-111196825D01*
X111055822Y-111215000D01*
X102775161Y-111215000D01*
X103031252Y-111124157D01*
X103281355Y-110975178D01*
X103497588Y-110780269D01*
X103671641Y-110546920D01*
X103796825Y-110284099D01*
X103841476Y-110136890D01*
X103720155Y-109907000D01*
X102527000Y-109907000D01*
X102527000Y-109927000D01*
X102273000Y-109927000D01*
X102273000Y-109907000D01*
X102253000Y-109907000D01*
X102253000Y-109653000D01*
X102273000Y-109653000D01*
X102273000Y-109633000D01*
X102527000Y-109633000D01*
X102527000Y-109653000D01*
X103720155Y-109653000D01*
X103830921Y-109443109D01*
X110058519Y-109443109D01*
X110179186Y-109673000D01*
X111373000Y-109673000D01*
X111373000Y-108479845D01*
X111627000Y-108479845D01*
X111627000Y-109673000D01*
X113913000Y-109673000D01*
X113913000Y-108479845D01*
X113683110Y-108358524D01*
X113535901Y-108403175D01*
X113273080Y-108528359D01*
X113039731Y-108702412D01*
X112844822Y-108918645D01*
X112770000Y-109044255D01*
X112695178Y-108918645D01*
X112500269Y-108702412D01*
X112266920Y-108528359D01*
X112004099Y-108403175D01*
X111856890Y-108358524D01*
X111627000Y-108479845D01*
X111373000Y-108479845D01*
X111143110Y-108358524D01*
X110995901Y-108403175D01*
X110733080Y-108528359D01*
X110499731Y-108702412D01*
X110304822Y-108918645D01*
X110155843Y-109168748D01*
X110058519Y-109443109D01*
X103830921Y-109443109D01*
X103841476Y-109423110D01*
X103796825Y-109275901D01*
X103671641Y-109013080D01*
X103497588Y-108779731D01*
X103281355Y-108584822D01*
X103164466Y-108515195D01*
X103346632Y-108393475D01*
X103553475Y-108186632D01*
X103701094Y-107965704D01*
X103767547Y-107945546D01*
X103899576Y-107874974D01*
X104015301Y-107780001D01*
X104039104Y-107750997D01*
X108077500Y-103712602D01*
X108077500Y-103814439D01*
G36*
X112135001Y-64703647D02*
G01*
X112137838Y-64732451D01*
X112137826Y-64734176D01*
X112138759Y-64743695D01*
X112141725Y-64771911D01*
X112144913Y-64804283D01*
X112146306Y-64808874D01*
X112157368Y-64862765D01*
X112168998Y-64923729D01*
X112171762Y-64932885D01*
X112189076Y-64988817D01*
X112213137Y-65046054D01*
X112236394Y-65103617D01*
X112240884Y-65112061D01*
X112268732Y-65163565D01*
X112303425Y-65214999D01*
X112337444Y-65266984D01*
X112343489Y-65274395D01*
X112380810Y-65319508D01*
X112424867Y-65363258D01*
X112468303Y-65407613D01*
X112475672Y-65413710D01*
X112521045Y-65450715D01*
X112572778Y-65485086D01*
X112623975Y-65520142D01*
X112632388Y-65524691D01*
X112632398Y-65524697D01*
X112632404Y-65524699D01*
X112684084Y-65552180D01*
X112741498Y-65575845D01*
X112798554Y-65600299D01*
X112807684Y-65603125D01*
X112807686Y-65603126D01*
X112807688Y-65603126D01*
X112807690Y-65603127D01*
X112863741Y-65620050D01*
X112924644Y-65632109D01*
X112985379Y-65645018D01*
X112985543Y-65645035D01*
X112985717Y-65645088D01*
X112990910Y-65645599D01*
X112994891Y-65646018D01*
X113053160Y-65651731D01*
X113053163Y-65651731D01*
X113086353Y-65655000D01*
X119483647Y-65655000D01*
X119512461Y-65652162D01*
X119514176Y-65652174D01*
X119523695Y-65651241D01*
X119551760Y-65648291D01*
X119584283Y-65645088D01*
X119588884Y-65643692D01*
X119642765Y-65632632D01*
X119703729Y-65621002D01*
X119712885Y-65618238D01*
X119768817Y-65600924D01*
X119826054Y-65576863D01*
X119883617Y-65553606D01*
X119892056Y-65549119D01*
X119892060Y-65549117D01*
X119892063Y-65549115D01*
X119943565Y-65521268D01*
X119994999Y-65486575D01*
X120046984Y-65452556D01*
X120054395Y-65446511D01*
X120099508Y-65409190D01*
X120143258Y-65365133D01*
X120187613Y-65321697D01*
X120193710Y-65314328D01*
X120230715Y-65268955D01*
X120265086Y-65217222D01*
X120300142Y-65166025D01*
X120304691Y-65157612D01*
X120304697Y-65157602D01*
X120304699Y-65157596D01*
X120332180Y-65105916D01*
X120355845Y-65048502D01*
X120380299Y-64991446D01*
X120383127Y-64982310D01*
X120400050Y-64926259D01*
X120412109Y-64865356D01*
X120425018Y-64804621D01*
X120425035Y-64804457D01*
X120425088Y-64804283D01*
X120425599Y-64799090D01*
X120426018Y-64795109D01*
X120431731Y-64736840D01*
X120431731Y-64736837D01*
X120435000Y-64703647D01*
X120435000Y-63485000D01*
X133315000Y-63485000D01*
X133315001Y-111215000D01*
X126045301Y-111215000D01*
X128465909Y-108794394D01*
X128494901Y-108770601D01*
X128518695Y-108741608D01*
X128518699Y-108741604D01*
X128579159Y-108667932D01*
X128589874Y-108654876D01*
X128660446Y-108522847D01*
X128703903Y-108379586D01*
X128714900Y-108267933D01*
X128714900Y-108267924D01*
X128718576Y-108230601D01*
X128714900Y-108193278D01*
X128714900Y-83490822D01*
X128718576Y-83453500D01*
X128714900Y-83416177D01*
X128714900Y-83416167D01*
X128703903Y-83304514D01*
X128660446Y-83161253D01*
X128619567Y-83084774D01*
X128589874Y-83029223D01*
X128518699Y-82942497D01*
X128494901Y-82913499D01*
X128465903Y-82889701D01*
X122180604Y-76604403D01*
X122156801Y-76575399D01*
X122041076Y-76480426D01*
X121909047Y-76409854D01*
X121765786Y-76366397D01*
X121654133Y-76355400D01*
X121654122Y-76355400D01*
X121616800Y-76351724D01*
X121579478Y-76355400D01*
X119335000Y-76355400D01*
X119335000Y-76198061D01*
X119295226Y-75998102D01*
X119217205Y-75809744D01*
X119103937Y-75640226D01*
X118959774Y-75496063D01*
X118790256Y-75382795D01*
X118601898Y-75304774D01*
X118401939Y-75265000D01*
X118198061Y-75265000D01*
X117998102Y-75304774D01*
X117809744Y-75382795D01*
X117640226Y-75496063D01*
X117596289Y-75540000D01*
X110055166Y-75540000D01*
X109434990Y-74919825D01*
X109434990Y-72812312D01*
X109438666Y-72774989D01*
X109434990Y-72737666D01*
X109434990Y-72737657D01*
X109423993Y-72626004D01*
X109380536Y-72482743D01*
X109309965Y-72350715D01*
X109309964Y-72350713D01*
X109238789Y-72263987D01*
X109214991Y-72234989D01*
X109185994Y-72211192D01*
X107048542Y-70073740D01*
X130315000Y-70073740D01*
X130315000Y-70366260D01*
X130372068Y-70653158D01*
X130484010Y-70923411D01*
X130646525Y-71166632D01*
X130853368Y-71373475D01*
X131027760Y-71490000D01*
X130853368Y-71606525D01*
X130646525Y-71813368D01*
X130484010Y-72056589D01*
X130372068Y-72326842D01*
X130315000Y-72613740D01*
X130315000Y-72906260D01*
X130372068Y-73193158D01*
X130484010Y-73463411D01*
X130646525Y-73706632D01*
X130853368Y-73913475D01*
X131027760Y-74030000D01*
X130853368Y-74146525D01*
X130646525Y-74353368D01*
X130484010Y-74596589D01*
X130372068Y-74866842D01*
X130315000Y-75153740D01*
X130315000Y-75446260D01*
X130372068Y-75733158D01*
X130484010Y-76003411D01*
X130646525Y-76246632D01*
X130853368Y-76453475D01*
X131027760Y-76570000D01*
X130853368Y-76686525D01*
X130646525Y-76893368D01*
X130484010Y-77136589D01*
X130372068Y-77406842D01*
X130315000Y-77693740D01*
X130315000Y-77986260D01*
X130372068Y-78273158D01*
X130484010Y-78543411D01*
X130646525Y-78786632D01*
X130853368Y-78993475D01*
X131027760Y-79110000D01*
X130853368Y-79226525D01*
X130646525Y-79433368D01*
X130484010Y-79676589D01*
X130372068Y-79946842D01*
X130315000Y-80233740D01*
X130315000Y-80526260D01*
X130372068Y-80813158D01*
X130484010Y-81083411D01*
X130646525Y-81326632D01*
X130853368Y-81533475D01*
X131027760Y-81650000D01*
X130853368Y-81766525D01*
X130646525Y-81973368D01*
X130484010Y-82216589D01*
X130372068Y-82486842D01*
X130315000Y-82773740D01*
X130315000Y-83066260D01*
X130372068Y-83353158D01*
X130484010Y-83623411D01*
X130646525Y-83866632D01*
X130853368Y-84073475D01*
X131027760Y-84190000D01*
X130853368Y-84306525D01*
X130646525Y-84513368D01*
X130484010Y-84756589D01*
X130372068Y-85026842D01*
X130315000Y-85313740D01*
X130315000Y-85606260D01*
X130372068Y-85893158D01*
X130484010Y-86163411D01*
X130646525Y-86406632D01*
X130853368Y-86613475D01*
X131027760Y-86730000D01*
X130853368Y-86846525D01*
X130646525Y-87053368D01*
X130484010Y-87296589D01*
X130372068Y-87566842D01*
X130315000Y-87853740D01*
X130315000Y-88146260D01*
X130372068Y-88433158D01*
X130484010Y-88703411D01*
X130646525Y-88946632D01*
X130853368Y-89153475D01*
X131096589Y-89315990D01*
X131366842Y-89427932D01*
X131653740Y-89485000D01*
X131946260Y-89485000D01*
X132233158Y-89427932D01*
X132503411Y-89315990D01*
X132746632Y-89153475D01*
X132953475Y-88946632D01*
X133115990Y-88703411D01*
X133227932Y-88433158D01*
X133285000Y-88146260D01*
X133285000Y-87853740D01*
X133227932Y-87566842D01*
X133115990Y-87296589D01*
X132953475Y-87053368D01*
X132746632Y-86846525D01*
X132572240Y-86730000D01*
X132746632Y-86613475D01*
X132953475Y-86406632D01*
X133115990Y-86163411D01*
X133227932Y-85893158D01*
X133285000Y-85606260D01*
X133285000Y-85313740D01*
X133227932Y-85026842D01*
X133115990Y-84756589D01*
X132953475Y-84513368D01*
X132746632Y-84306525D01*
X132572240Y-84190000D01*
X132746632Y-84073475D01*
X132953475Y-83866632D01*
X133115990Y-83623411D01*
X133227932Y-83353158D01*
X133285000Y-83066260D01*
X133285000Y-82773740D01*
X133227932Y-82486842D01*
X133115990Y-82216589D01*
X132953475Y-81973368D01*
X132746632Y-81766525D01*
X132572240Y-81650000D01*
X132746632Y-81533475D01*
X132953475Y-81326632D01*
X133115990Y-81083411D01*
X133227932Y-80813158D01*
X133285000Y-80526260D01*
X133285000Y-80233740D01*
X133227932Y-79946842D01*
X133115990Y-79676589D01*
X132953475Y-79433368D01*
X132746632Y-79226525D01*
X132572240Y-79110000D01*
X132746632Y-78993475D01*
X132953475Y-78786632D01*
X133115990Y-78543411D01*
X133227932Y-78273158D01*
X133285000Y-77986260D01*
X133285000Y-77693740D01*
X133227932Y-77406842D01*
X133115990Y-77136589D01*
X132953475Y-76893368D01*
X132746632Y-76686525D01*
X132572240Y-76570000D01*
X132746632Y-76453475D01*
X132953475Y-76246632D01*
X133115990Y-76003411D01*
X133227932Y-75733158D01*
X133285000Y-75446260D01*
X133285000Y-75153740D01*
X133227932Y-74866842D01*
X133115990Y-74596589D01*
X132953475Y-74353368D01*
X132746632Y-74146525D01*
X132572240Y-74030000D01*
X132746632Y-73913475D01*
X132953475Y-73706632D01*
X133115990Y-73463411D01*
X133227932Y-73193158D01*
X133285000Y-72906260D01*
X133285000Y-72613740D01*
X133227932Y-72326842D01*
X133115990Y-72056589D01*
X132953475Y-71813368D01*
X132746632Y-71606525D01*
X132572240Y-71490000D01*
X132746632Y-71373475D01*
X132953475Y-71166632D01*
X133115990Y-70923411D01*
X133227932Y-70653158D01*
X133285000Y-70366260D01*
X133285000Y-70073740D01*
X133227932Y-69786842D01*
X133115990Y-69516589D01*
X132953475Y-69273368D01*
X132746632Y-69066525D01*
X132503411Y-68904010D01*
X132233158Y-68792068D01*
X131946260Y-68735000D01*
X131653740Y-68735000D01*
X131366842Y-68792068D01*
X131096589Y-68904010D01*
X130853368Y-69066525D01*
X130646525Y-69273368D01*
X130484010Y-69516589D01*
X130372068Y-69786842D01*
X130315000Y-70073740D01*
X107048542Y-70073740D01*
X104063804Y-67089003D01*
X104040001Y-67059999D01*
X103924276Y-66965026D01*
X103888072Y-66945674D01*
X103888072Y-66750000D01*
X103875812Y-66625518D01*
X103839502Y-66505820D01*
X103780537Y-66395506D01*
X103701185Y-66298815D01*
X103604494Y-66219463D01*
X103494180Y-66160498D01*
X103374482Y-66124188D01*
X103250000Y-66111928D01*
X101550000Y-66111928D01*
X101425518Y-66124188D01*
X101305820Y-66160498D01*
X101195506Y-66219463D01*
X101098815Y-66298815D01*
X101019463Y-66395506D01*
X100985000Y-66459981D01*
X100985000Y-63485000D01*
X112135000Y-63485000D01*
X112135001Y-64703647D01*
G37*
X112135001Y-64703647D02*
X112137838Y-64732451D01*
X112137826Y-64734176D01*
X112138759Y-64743695D01*
X112141725Y-64771911D01*
X112144913Y-64804283D01*
X112146306Y-64808874D01*
X112157368Y-64862765D01*
X112168998Y-64923729D01*
X112171762Y-64932885D01*
X112189076Y-64988817D01*
X112213137Y-65046054D01*
X112236394Y-65103617D01*
X112240884Y-65112061D01*
X112268732Y-65163565D01*
X112303425Y-65214999D01*
X112337444Y-65266984D01*
X112343489Y-65274395D01*
X112380810Y-65319508D01*
X112424867Y-65363258D01*
X112468303Y-65407613D01*
X112475672Y-65413710D01*
X112521045Y-65450715D01*
X112572778Y-65485086D01*
X112623975Y-65520142D01*
X112632388Y-65524691D01*
X112632398Y-65524697D01*
X112632404Y-65524699D01*
X112684084Y-65552180D01*
X112741498Y-65575845D01*
X112798554Y-65600299D01*
X112807684Y-65603125D01*
X112807686Y-65603126D01*
X112807688Y-65603126D01*
X112807690Y-65603127D01*
X112863741Y-65620050D01*
X112924644Y-65632109D01*
X112985379Y-65645018D01*
X112985543Y-65645035D01*
X112985717Y-65645088D01*
X112990910Y-65645599D01*
X112994891Y-65646018D01*
X113053160Y-65651731D01*
X113053163Y-65651731D01*
X113086353Y-65655000D01*
X119483647Y-65655000D01*
X119512461Y-65652162D01*
X119514176Y-65652174D01*
X119523695Y-65651241D01*
X119551760Y-65648291D01*
X119584283Y-65645088D01*
X119588884Y-65643692D01*
X119642765Y-65632632D01*
X119703729Y-65621002D01*
X119712885Y-65618238D01*
X119768817Y-65600924D01*
X119826054Y-65576863D01*
X119883617Y-65553606D01*
X119892056Y-65549119D01*
X119892060Y-65549117D01*
X119892063Y-65549115D01*
X119943565Y-65521268D01*
X119994999Y-65486575D01*
X120046984Y-65452556D01*
X120054395Y-65446511D01*
X120099508Y-65409190D01*
X120143258Y-65365133D01*
X120187613Y-65321697D01*
X120193710Y-65314328D01*
X120230715Y-65268955D01*
X120265086Y-65217222D01*
X120300142Y-65166025D01*
X120304691Y-65157612D01*
X120304697Y-65157602D01*
X120304699Y-65157596D01*
X120332180Y-65105916D01*
X120355845Y-65048502D01*
X120380299Y-64991446D01*
X120383127Y-64982310D01*
X120400050Y-64926259D01*
X120412109Y-64865356D01*
X120425018Y-64804621D01*
X120425035Y-64804457D01*
X120425088Y-64804283D01*
X120425599Y-64799090D01*
X120426018Y-64795109D01*
X120431731Y-64736840D01*
X120431731Y-64736837D01*
X120435000Y-64703647D01*
X120435000Y-63485000D01*
X133315000Y-63485000D01*
X133315001Y-111215000D01*
X126045301Y-111215000D01*
X128465909Y-108794394D01*
X128494901Y-108770601D01*
X128518695Y-108741608D01*
X128518699Y-108741604D01*
X128579159Y-108667932D01*
X128589874Y-108654876D01*
X128660446Y-108522847D01*
X128703903Y-108379586D01*
X128714900Y-108267933D01*
X128714900Y-108267924D01*
X128718576Y-108230601D01*
X128714900Y-108193278D01*
X128714900Y-83490822D01*
X128718576Y-83453500D01*
X128714900Y-83416177D01*
X128714900Y-83416167D01*
X128703903Y-83304514D01*
X128660446Y-83161253D01*
X128619567Y-83084774D01*
X128589874Y-83029223D01*
X128518699Y-82942497D01*
X128494901Y-82913499D01*
X128465903Y-82889701D01*
X122180604Y-76604403D01*
X122156801Y-76575399D01*
X122041076Y-76480426D01*
X121909047Y-76409854D01*
X121765786Y-76366397D01*
X121654133Y-76355400D01*
X121654122Y-76355400D01*
X121616800Y-76351724D01*
X121579478Y-76355400D01*
X119335000Y-76355400D01*
X119335000Y-76198061D01*
X119295226Y-75998102D01*
X119217205Y-75809744D01*
X119103937Y-75640226D01*
X118959774Y-75496063D01*
X118790256Y-75382795D01*
X118601898Y-75304774D01*
X118401939Y-75265000D01*
X118198061Y-75265000D01*
X117998102Y-75304774D01*
X117809744Y-75382795D01*
X117640226Y-75496063D01*
X117596289Y-75540000D01*
X110055166Y-75540000D01*
X109434990Y-74919825D01*
X109434990Y-72812312D01*
X109438666Y-72774989D01*
X109434990Y-72737666D01*
X109434990Y-72737657D01*
X109423993Y-72626004D01*
X109380536Y-72482743D01*
X109309965Y-72350715D01*
X109309964Y-72350713D01*
X109238789Y-72263987D01*
X109214991Y-72234989D01*
X109185994Y-72211192D01*
X107048542Y-70073740D01*
X130315000Y-70073740D01*
X130315000Y-70366260D01*
X130372068Y-70653158D01*
X130484010Y-70923411D01*
X130646525Y-71166632D01*
X130853368Y-71373475D01*
X131027760Y-71490000D01*
X130853368Y-71606525D01*
X130646525Y-71813368D01*
X130484010Y-72056589D01*
X130372068Y-72326842D01*
X130315000Y-72613740D01*
X130315000Y-72906260D01*
X130372068Y-73193158D01*
X130484010Y-73463411D01*
X130646525Y-73706632D01*
X130853368Y-73913475D01*
X131027760Y-74030000D01*
X130853368Y-74146525D01*
X130646525Y-74353368D01*
X130484010Y-74596589D01*
X130372068Y-74866842D01*
X130315000Y-75153740D01*
X130315000Y-75446260D01*
X130372068Y-75733158D01*
X130484010Y-76003411D01*
X130646525Y-76246632D01*
X130853368Y-76453475D01*
X131027760Y-76570000D01*
X130853368Y-76686525D01*
X130646525Y-76893368D01*
X130484010Y-77136589D01*
X130372068Y-77406842D01*
X130315000Y-77693740D01*
X130315000Y-77986260D01*
X130372068Y-78273158D01*
X130484010Y-78543411D01*
X130646525Y-78786632D01*
X130853368Y-78993475D01*
X131027760Y-79110000D01*
X130853368Y-79226525D01*
X130646525Y-79433368D01*
X130484010Y-79676589D01*
X130372068Y-79946842D01*
X130315000Y-80233740D01*
X130315000Y-80526260D01*
X130372068Y-80813158D01*
X130484010Y-81083411D01*
X130646525Y-81326632D01*
X130853368Y-81533475D01*
X131027760Y-81650000D01*
X130853368Y-81766525D01*
X130646525Y-81973368D01*
X130484010Y-82216589D01*
X130372068Y-82486842D01*
X130315000Y-82773740D01*
X130315000Y-83066260D01*
X130372068Y-83353158D01*
X130484010Y-83623411D01*
X130646525Y-83866632D01*
X130853368Y-84073475D01*
X131027760Y-84190000D01*
X130853368Y-84306525D01*
X130646525Y-84513368D01*
X130484010Y-84756589D01*
X130372068Y-85026842D01*
X130315000Y-85313740D01*
X130315000Y-85606260D01*
X130372068Y-85893158D01*
X130484010Y-86163411D01*
X130646525Y-86406632D01*
X130853368Y-86613475D01*
X131027760Y-86730000D01*
X130853368Y-86846525D01*
X130646525Y-87053368D01*
X130484010Y-87296589D01*
X130372068Y-87566842D01*
X130315000Y-87853740D01*
X130315000Y-88146260D01*
X130372068Y-88433158D01*
X130484010Y-88703411D01*
X130646525Y-88946632D01*
X130853368Y-89153475D01*
X131096589Y-89315990D01*
X131366842Y-89427932D01*
X131653740Y-89485000D01*
X131946260Y-89485000D01*
X132233158Y-89427932D01*
X132503411Y-89315990D01*
X132746632Y-89153475D01*
X132953475Y-88946632D01*
X133115990Y-88703411D01*
X133227932Y-88433158D01*
X133285000Y-88146260D01*
X133285000Y-87853740D01*
X133227932Y-87566842D01*
X133115990Y-87296589D01*
X132953475Y-87053368D01*
X132746632Y-86846525D01*
X132572240Y-86730000D01*
X132746632Y-86613475D01*
X132953475Y-86406632D01*
X133115990Y-86163411D01*
X133227932Y-85893158D01*
X133285000Y-85606260D01*
X133285000Y-85313740D01*
X133227932Y-85026842D01*
X133115990Y-84756589D01*
X132953475Y-84513368D01*
X132746632Y-84306525D01*
X132572240Y-84190000D01*
X132746632Y-84073475D01*
X132953475Y-83866632D01*
X133115990Y-83623411D01*
X133227932Y-83353158D01*
X133285000Y-83066260D01*
X133285000Y-82773740D01*
X133227932Y-82486842D01*
X133115990Y-82216589D01*
X132953475Y-81973368D01*
X132746632Y-81766525D01*
X132572240Y-81650000D01*
X132746632Y-81533475D01*
X132953475Y-81326632D01*
X133115990Y-81083411D01*
X133227932Y-80813158D01*
X133285000Y-80526260D01*
X133285000Y-80233740D01*
X133227932Y-79946842D01*
X133115990Y-79676589D01*
X132953475Y-79433368D01*
X132746632Y-79226525D01*
X132572240Y-79110000D01*
X132746632Y-78993475D01*
X132953475Y-78786632D01*
X133115990Y-78543411D01*
X133227932Y-78273158D01*
X133285000Y-77986260D01*
X133285000Y-77693740D01*
X133227932Y-77406842D01*
X133115990Y-77136589D01*
X132953475Y-76893368D01*
X132746632Y-76686525D01*
X132572240Y-76570000D01*
X132746632Y-76453475D01*
X132953475Y-76246632D01*
X133115990Y-76003411D01*
X133227932Y-75733158D01*
X133285000Y-75446260D01*
X133285000Y-75153740D01*
X133227932Y-74866842D01*
X133115990Y-74596589D01*
X132953475Y-74353368D01*
X132746632Y-74146525D01*
X132572240Y-74030000D01*
X132746632Y-73913475D01*
X132953475Y-73706632D01*
X133115990Y-73463411D01*
X133227932Y-73193158D01*
X133285000Y-72906260D01*
X133285000Y-72613740D01*
X133227932Y-72326842D01*
X133115990Y-72056589D01*
X132953475Y-71813368D01*
X132746632Y-71606525D01*
X132572240Y-71490000D01*
X132746632Y-71373475D01*
X132953475Y-71166632D01*
X133115990Y-70923411D01*
X133227932Y-70653158D01*
X133285000Y-70366260D01*
X133285000Y-70073740D01*
X133227932Y-69786842D01*
X133115990Y-69516589D01*
X132953475Y-69273368D01*
X132746632Y-69066525D01*
X132503411Y-68904010D01*
X132233158Y-68792068D01*
X131946260Y-68735000D01*
X131653740Y-68735000D01*
X131366842Y-68792068D01*
X131096589Y-68904010D01*
X130853368Y-69066525D01*
X130646525Y-69273368D01*
X130484010Y-69516589D01*
X130372068Y-69786842D01*
X130315000Y-70073740D01*
X107048542Y-70073740D01*
X104063804Y-67089003D01*
X104040001Y-67059999D01*
X103924276Y-66965026D01*
X103888072Y-66945674D01*
X103888072Y-66750000D01*
X103875812Y-66625518D01*
X103839502Y-66505820D01*
X103780537Y-66395506D01*
X103701185Y-66298815D01*
X103604494Y-66219463D01*
X103494180Y-66160498D01*
X103374482Y-66124188D01*
X103250000Y-66111928D01*
X101550000Y-66111928D01*
X101425518Y-66124188D01*
X101305820Y-66160498D01*
X101195506Y-66219463D01*
X101098815Y-66298815D01*
X101019463Y-66395506D01*
X100985000Y-66459981D01*
X100985000Y-63485000D01*
X112135000Y-63485000D01*
X112135001Y-64703647D01*
G36*
X127194900Y-98376363D02*
G01*
X127103937Y-98240226D01*
X126959774Y-98096063D01*
X126790256Y-97982795D01*
X126601898Y-97904774D01*
X126401939Y-97865000D01*
X126198061Y-97865000D01*
X125998102Y-97904774D01*
X125809744Y-97982795D01*
X125640226Y-98096063D01*
X125496063Y-98240226D01*
X125382795Y-98409744D01*
X125304774Y-98598102D01*
X125265000Y-98798061D01*
X125265000Y-99001939D01*
X125304774Y-99201898D01*
X125382795Y-99390256D01*
X125496063Y-99559774D01*
X125540001Y-99603712D01*
X125540000Y-102903287D01*
X125496063Y-102947224D01*
X125382795Y-103116742D01*
X125304774Y-103305100D01*
X125265000Y-103505059D01*
X125265000Y-103708937D01*
X125304774Y-103908896D01*
X125382795Y-104097254D01*
X125496063Y-104266772D01*
X125640226Y-104410935D01*
X125809744Y-104524203D01*
X125998102Y-104602224D01*
X126198061Y-104641998D01*
X126401939Y-104641998D01*
X126601898Y-104602224D01*
X126790256Y-104524203D01*
X126959774Y-104410935D01*
X127103937Y-104266772D01*
X127194900Y-104130636D01*
X127194900Y-107915797D01*
X125688072Y-109422626D01*
X125688072Y-108950000D01*
X125675812Y-108825518D01*
X125639502Y-108705820D01*
X125580537Y-108595506D01*
X125501185Y-108498815D01*
X125404494Y-108419463D01*
X125294180Y-108360498D01*
X125174482Y-108324188D01*
X125050000Y-108311928D01*
X123635600Y-108311928D01*
X123635600Y-99561009D01*
X123734047Y-99531146D01*
X123866076Y-99460574D01*
X123981801Y-99365601D01*
X124005604Y-99336597D01*
X127194900Y-96147302D01*
X127194900Y-98376363D01*
G37*
X127194900Y-98376363D02*
X127103937Y-98240226D01*
X126959774Y-98096063D01*
X126790256Y-97982795D01*
X126601898Y-97904774D01*
X126401939Y-97865000D01*
X126198061Y-97865000D01*
X125998102Y-97904774D01*
X125809744Y-97982795D01*
X125640226Y-98096063D01*
X125496063Y-98240226D01*
X125382795Y-98409744D01*
X125304774Y-98598102D01*
X125265000Y-98798061D01*
X125265000Y-99001939D01*
X125304774Y-99201898D01*
X125382795Y-99390256D01*
X125496063Y-99559774D01*
X125540001Y-99603712D01*
X125540000Y-102903287D01*
X125496063Y-102947224D01*
X125382795Y-103116742D01*
X125304774Y-103305100D01*
X125265000Y-103505059D01*
X125265000Y-103708937D01*
X125304774Y-103908896D01*
X125382795Y-104097254D01*
X125496063Y-104266772D01*
X125640226Y-104410935D01*
X125809744Y-104524203D01*
X125998102Y-104602224D01*
X126198061Y-104641998D01*
X126401939Y-104641998D01*
X126601898Y-104602224D01*
X126790256Y-104524203D01*
X126959774Y-104410935D01*
X127103937Y-104266772D01*
X127194900Y-104130636D01*
X127194900Y-107915797D01*
X125688072Y-109422626D01*
X125688072Y-108950000D01*
X125675812Y-108825518D01*
X125639502Y-108705820D01*
X125580537Y-108595506D01*
X125501185Y-108498815D01*
X125404494Y-108419463D01*
X125294180Y-108360498D01*
X125174482Y-108324188D01*
X125050000Y-108311928D01*
X123635600Y-108311928D01*
X123635600Y-99561009D01*
X123734047Y-99531146D01*
X123866076Y-99460574D01*
X123981801Y-99365601D01*
X124005604Y-99336597D01*
X127194900Y-96147302D01*
X127194900Y-98376363D01*
G36*
X101084010Y-107943411D02*
G01*
X101246525Y-108186632D01*
X101453368Y-108393475D01*
X101635534Y-108515195D01*
X101518645Y-108584822D01*
X101302412Y-108779731D01*
X101128359Y-109013080D01*
X101003175Y-109275901D01*
X100985000Y-109335822D01*
X100985000Y-107704379D01*
X101084010Y-107943411D01*
G37*
X101084010Y-107943411D02*
X101246525Y-108186632D01*
X101453368Y-108393475D01*
X101635534Y-108515195D01*
X101518645Y-108584822D01*
X101302412Y-108779731D01*
X101128359Y-109013080D01*
X101003175Y-109275901D01*
X100985000Y-109335822D01*
X100985000Y-107704379D01*
X101084010Y-107943411D01*
G36*
X120492901Y-107457600D02*
G01*
X119053025Y-107457600D01*
X119015700Y-107453924D01*
X118978375Y-107457600D01*
X118978367Y-107457600D01*
X118866714Y-107468597D01*
X118723453Y-107512054D01*
X118591424Y-107582626D01*
X118475699Y-107677599D01*
X118451901Y-107706597D01*
X117517845Y-108640654D01*
X117333089Y-108517204D01*
X117329003Y-108475714D01*
X117285546Y-108332453D01*
X117214974Y-108200424D01*
X117120001Y-108084699D01*
X117091003Y-108060901D01*
X113972000Y-104941899D01*
X113972000Y-101916201D01*
X115985202Y-99903000D01*
X120330678Y-99903000D01*
X120368000Y-99906676D01*
X120405322Y-99903000D01*
X120405333Y-99903000D01*
X120492900Y-99894375D01*
X120492901Y-107457600D01*
G37*
X120492901Y-107457600D02*
X119053025Y-107457600D01*
X119015700Y-107453924D01*
X118978375Y-107457600D01*
X118978367Y-107457600D01*
X118866714Y-107468597D01*
X118723453Y-107512054D01*
X118591424Y-107582626D01*
X118475699Y-107677599D01*
X118451901Y-107706597D01*
X117517845Y-108640654D01*
X117333089Y-108517204D01*
X117329003Y-108475714D01*
X117285546Y-108332453D01*
X117214974Y-108200424D01*
X117120001Y-108084699D01*
X117091003Y-108060901D01*
X113972000Y-104941899D01*
X113972000Y-101916201D01*
X115985202Y-99903000D01*
X120330678Y-99903000D01*
X120368000Y-99906676D01*
X120405322Y-99903000D01*
X120405333Y-99903000D01*
X120492900Y-99894375D01*
X120492901Y-107457600D01*
G36*
X104490000Y-92064250D02*
G01*
X104648750Y-92223000D01*
X105136928Y-92223000D01*
X105136928Y-92477000D01*
X104648750Y-92477000D01*
X104490000Y-92635750D01*
X104487002Y-93065285D01*
X104497366Y-93189939D01*
X104531849Y-93310175D01*
X104589126Y-93421375D01*
X104666997Y-93519263D01*
X104762469Y-93600078D01*
X104871873Y-93660715D01*
X104991004Y-93698844D01*
X105093250Y-93710000D01*
X105252000Y-93551250D01*
X105252000Y-93438678D01*
X105323815Y-93526185D01*
X105420506Y-93605537D01*
X105530820Y-93664502D01*
X105574503Y-93677753D01*
X105606750Y-93710000D01*
X105671773Y-93702905D01*
X105775000Y-93713072D01*
X106131126Y-93713072D01*
X105673099Y-94171100D01*
X105610961Y-94171100D01*
X105411002Y-94210874D01*
X105222644Y-94288895D01*
X105053126Y-94402163D01*
X104908963Y-94546326D01*
X104795695Y-94715844D01*
X104717674Y-94904202D01*
X104677900Y-95104161D01*
X104677900Y-95308039D01*
X104696413Y-95401112D01*
X104639463Y-95470506D01*
X104580498Y-95580820D01*
X104544188Y-95700518D01*
X104531928Y-95825000D01*
X104531928Y-96475000D01*
X104544188Y-96599482D01*
X104551929Y-96625000D01*
X104544188Y-96650518D01*
X104531928Y-96775000D01*
X104535000Y-96814250D01*
X104693750Y-96973000D01*
X104775859Y-96973000D01*
X104815506Y-97005537D01*
X104925820Y-97064502D01*
X105042841Y-97100000D01*
X104925820Y-97135498D01*
X104815506Y-97194463D01*
X104775859Y-97227000D01*
X104693750Y-97227000D01*
X104535000Y-97385750D01*
X104531928Y-97425000D01*
X104544188Y-97549482D01*
X104551929Y-97575000D01*
X104544188Y-97600518D01*
X104531928Y-97725000D01*
X104531928Y-98375000D01*
X104544188Y-98499482D01*
X104580498Y-98619180D01*
X104639463Y-98729494D01*
X104718815Y-98826185D01*
X104815506Y-98905537D01*
X104925820Y-98964502D01*
X105045518Y-99000812D01*
X105170000Y-99013072D01*
X105802248Y-99013072D01*
X105806297Y-99054185D01*
X105835817Y-99151500D01*
X105849754Y-99197446D01*
X105920326Y-99329476D01*
X105960171Y-99378026D01*
X106015299Y-99445201D01*
X106044303Y-99469004D01*
X108107898Y-101532599D01*
X103450303Y-106190196D01*
X103346632Y-106086525D01*
X103172240Y-105970000D01*
X103346632Y-105853475D01*
X103553475Y-105646632D01*
X103715990Y-105403411D01*
X103827932Y-105133158D01*
X103885000Y-104846260D01*
X103885000Y-104553740D01*
X103827932Y-104266842D01*
X103715990Y-103996589D01*
X103553475Y-103753368D01*
X103346632Y-103546525D01*
X103172240Y-103430000D01*
X103346632Y-103313475D01*
X103553475Y-103106632D01*
X103715990Y-102863411D01*
X103827932Y-102593158D01*
X103885000Y-102306260D01*
X103885000Y-102013740D01*
X103827932Y-101726842D01*
X103715990Y-101456589D01*
X103553475Y-101213368D01*
X103346632Y-101006525D01*
X103172240Y-100890000D01*
X103346632Y-100773475D01*
X103553475Y-100566632D01*
X103715990Y-100323411D01*
X103827932Y-100053158D01*
X103885000Y-99766260D01*
X103885000Y-99473740D01*
X103827932Y-99186842D01*
X103715990Y-98916589D01*
X103553475Y-98673368D01*
X103346632Y-98466525D01*
X103172240Y-98350000D01*
X103346632Y-98233475D01*
X103553475Y-98026632D01*
X103715990Y-97783411D01*
X103827932Y-97513158D01*
X103885000Y-97226260D01*
X103885000Y-96933740D01*
X103827932Y-96646842D01*
X103715990Y-96376589D01*
X103553475Y-96133368D01*
X103346632Y-95926525D01*
X103172240Y-95810000D01*
X103346632Y-95693475D01*
X103553475Y-95486632D01*
X103715990Y-95243411D01*
X103827932Y-94973158D01*
X103885000Y-94686260D01*
X103885000Y-94393740D01*
X103827932Y-94106842D01*
X103715990Y-93836589D01*
X103553475Y-93593368D01*
X103346632Y-93386525D01*
X103172240Y-93270000D01*
X103346632Y-93153475D01*
X103553475Y-92946632D01*
X103715990Y-92703411D01*
X103827932Y-92433158D01*
X103885000Y-92146260D01*
X103885000Y-92061613D01*
X103902900Y-92063376D01*
X103940223Y-92059700D01*
X104489968Y-92059700D01*
X104490000Y-92064250D01*
G37*
X104490000Y-92064250D02*
X104648750Y-92223000D01*
X105136928Y-92223000D01*
X105136928Y-92477000D01*
X104648750Y-92477000D01*
X104490000Y-92635750D01*
X104487002Y-93065285D01*
X104497366Y-93189939D01*
X104531849Y-93310175D01*
X104589126Y-93421375D01*
X104666997Y-93519263D01*
X104762469Y-93600078D01*
X104871873Y-93660715D01*
X104991004Y-93698844D01*
X105093250Y-93710000D01*
X105252000Y-93551250D01*
X105252000Y-93438678D01*
X105323815Y-93526185D01*
X105420506Y-93605537D01*
X105530820Y-93664502D01*
X105574503Y-93677753D01*
X105606750Y-93710000D01*
X105671773Y-93702905D01*
X105775000Y-93713072D01*
X106131126Y-93713072D01*
X105673099Y-94171100D01*
X105610961Y-94171100D01*
X105411002Y-94210874D01*
X105222644Y-94288895D01*
X105053126Y-94402163D01*
X104908963Y-94546326D01*
X104795695Y-94715844D01*
X104717674Y-94904202D01*
X104677900Y-95104161D01*
X104677900Y-95308039D01*
X104696413Y-95401112D01*
X104639463Y-95470506D01*
X104580498Y-95580820D01*
X104544188Y-95700518D01*
X104531928Y-95825000D01*
X104531928Y-96475000D01*
X104544188Y-96599482D01*
X104551929Y-96625000D01*
X104544188Y-96650518D01*
X104531928Y-96775000D01*
X104535000Y-96814250D01*
X104693750Y-96973000D01*
X104775859Y-96973000D01*
X104815506Y-97005537D01*
X104925820Y-97064502D01*
X105042841Y-97100000D01*
X104925820Y-97135498D01*
X104815506Y-97194463D01*
X104775859Y-97227000D01*
X104693750Y-97227000D01*
X104535000Y-97385750D01*
X104531928Y-97425000D01*
X104544188Y-97549482D01*
X104551929Y-97575000D01*
X104544188Y-97600518D01*
X104531928Y-97725000D01*
X104531928Y-98375000D01*
X104544188Y-98499482D01*
X104580498Y-98619180D01*
X104639463Y-98729494D01*
X104718815Y-98826185D01*
X104815506Y-98905537D01*
X104925820Y-98964502D01*
X105045518Y-99000812D01*
X105170000Y-99013072D01*
X105802248Y-99013072D01*
X105806297Y-99054185D01*
X105835817Y-99151500D01*
X105849754Y-99197446D01*
X105920326Y-99329476D01*
X105960171Y-99378026D01*
X106015299Y-99445201D01*
X106044303Y-99469004D01*
X108107898Y-101532599D01*
X103450303Y-106190196D01*
X103346632Y-106086525D01*
X103172240Y-105970000D01*
X103346632Y-105853475D01*
X103553475Y-105646632D01*
X103715990Y-105403411D01*
X103827932Y-105133158D01*
X103885000Y-104846260D01*
X103885000Y-104553740D01*
X103827932Y-104266842D01*
X103715990Y-103996589D01*
X103553475Y-103753368D01*
X103346632Y-103546525D01*
X103172240Y-103430000D01*
X103346632Y-103313475D01*
X103553475Y-103106632D01*
X103715990Y-102863411D01*
X103827932Y-102593158D01*
X103885000Y-102306260D01*
X103885000Y-102013740D01*
X103827932Y-101726842D01*
X103715990Y-101456589D01*
X103553475Y-101213368D01*
X103346632Y-101006525D01*
X103172240Y-100890000D01*
X103346632Y-100773475D01*
X103553475Y-100566632D01*
X103715990Y-100323411D01*
X103827932Y-100053158D01*
X103885000Y-99766260D01*
X103885000Y-99473740D01*
X103827932Y-99186842D01*
X103715990Y-98916589D01*
X103553475Y-98673368D01*
X103346632Y-98466525D01*
X103172240Y-98350000D01*
X103346632Y-98233475D01*
X103553475Y-98026632D01*
X103715990Y-97783411D01*
X103827932Y-97513158D01*
X103885000Y-97226260D01*
X103885000Y-96933740D01*
X103827932Y-96646842D01*
X103715990Y-96376589D01*
X103553475Y-96133368D01*
X103346632Y-95926525D01*
X103172240Y-95810000D01*
X103346632Y-95693475D01*
X103553475Y-95486632D01*
X103715990Y-95243411D01*
X103827932Y-94973158D01*
X103885000Y-94686260D01*
X103885000Y-94393740D01*
X103827932Y-94106842D01*
X103715990Y-93836589D01*
X103553475Y-93593368D01*
X103346632Y-93386525D01*
X103172240Y-93270000D01*
X103346632Y-93153475D01*
X103553475Y-92946632D01*
X103715990Y-92703411D01*
X103827932Y-92433158D01*
X103885000Y-92146260D01*
X103885000Y-92061613D01*
X103902900Y-92063376D01*
X103940223Y-92059700D01*
X104489968Y-92059700D01*
X104490000Y-92064250D01*
G36*
X101084010Y-102863411D02*
G01*
X101246525Y-103106632D01*
X101453368Y-103313475D01*
X101627760Y-103430000D01*
X101453368Y-103546525D01*
X101246525Y-103753368D01*
X101084010Y-103996589D01*
X100985000Y-104235621D01*
X100985000Y-102624379D01*
X101084010Y-102863411D01*
G37*
X101084010Y-102863411D02*
X101246525Y-103106632D01*
X101453368Y-103313475D01*
X101627760Y-103430000D01*
X101453368Y-103546525D01*
X101246525Y-103753368D01*
X101084010Y-103996589D01*
X100985000Y-104235621D01*
X100985000Y-102624379D01*
X101084010Y-102863411D01*
G36*
X114767674Y-96809798D02*
G01*
X114845695Y-96998156D01*
X114958963Y-97167674D01*
X115002901Y-97211612D01*
X115002900Y-98735698D01*
X112897199Y-100841400D01*
X109566302Y-100841400D01*
X107737973Y-99013072D01*
X108430000Y-99013072D01*
X108554482Y-99000812D01*
X108674180Y-98964502D01*
X108784494Y-98905537D01*
X108881185Y-98826185D01*
X108903423Y-98799088D01*
X108904286Y-98799003D01*
X109047547Y-98755546D01*
X109179576Y-98684974D01*
X109295301Y-98590001D01*
X109319104Y-98560997D01*
X111183202Y-96696900D01*
X114745217Y-96696900D01*
X114767674Y-96809798D01*
G37*
X114767674Y-96809798D02*
X114845695Y-96998156D01*
X114958963Y-97167674D01*
X115002901Y-97211612D01*
X115002900Y-98735698D01*
X112897199Y-100841400D01*
X109566302Y-100841400D01*
X107737973Y-99013072D01*
X108430000Y-99013072D01*
X108554482Y-99000812D01*
X108674180Y-98964502D01*
X108784494Y-98905537D01*
X108881185Y-98826185D01*
X108903423Y-98799088D01*
X108904286Y-98799003D01*
X109047547Y-98755546D01*
X109179576Y-98684974D01*
X109295301Y-98590001D01*
X109319104Y-98560997D01*
X111183202Y-96696900D01*
X114745217Y-96696900D01*
X114767674Y-96809798D01*
G36*
X124823750Y-88098000D02*
G01*
X125873000Y-88098000D01*
X125873000Y-88078000D01*
X126127000Y-88078000D01*
X126127000Y-88098000D01*
X126147000Y-88098000D01*
X126147000Y-88352000D01*
X126127000Y-88352000D01*
X126127000Y-89276250D01*
X126283600Y-89432850D01*
X126283601Y-94243897D01*
X124660000Y-95867499D01*
X124660000Y-95391916D01*
X124663676Y-95354593D01*
X124660000Y-95317270D01*
X124660000Y-95317261D01*
X124649003Y-95205608D01*
X124605546Y-95062347D01*
X124534974Y-94930318D01*
X124440001Y-94814593D01*
X124411004Y-94790796D01*
X122623608Y-93003400D01*
X122876205Y-93003400D01*
X122932630Y-93234621D01*
X123166808Y-93343017D01*
X123417633Y-93403645D01*
X123675465Y-93414174D01*
X123930398Y-93374200D01*
X124172633Y-93285259D01*
X124267370Y-93234621D01*
X124323795Y-93003400D01*
X123600000Y-92279605D01*
X122876205Y-93003400D01*
X122623608Y-93003400D01*
X122586414Y-92966207D01*
X122617544Y-92935077D01*
X122692559Y-92822809D01*
X122696600Y-92823795D01*
X123420395Y-92100000D01*
X123779605Y-92100000D01*
X124503400Y-92823795D01*
X124734621Y-92767370D01*
X124843017Y-92533192D01*
X124903645Y-92282367D01*
X124914174Y-92024535D01*
X124874200Y-91769602D01*
X124785259Y-91527367D01*
X124734621Y-91432630D01*
X124503400Y-91376205D01*
X123779605Y-92100000D01*
X123420395Y-92100000D01*
X122696600Y-91376205D01*
X122692559Y-91377191D01*
X122617544Y-91264923D01*
X122549221Y-91196600D01*
X122876205Y-91196600D01*
X123600000Y-91920395D01*
X124323795Y-91196600D01*
X124267370Y-90965379D01*
X124033192Y-90856983D01*
X123782367Y-90796355D01*
X123524535Y-90785826D01*
X123269602Y-90825800D01*
X123027367Y-90914741D01*
X122932630Y-90965379D01*
X122876205Y-91196600D01*
X122549221Y-91196600D01*
X122435077Y-91082456D01*
X122220518Y-90939093D01*
X121982113Y-90840342D01*
X121729024Y-90790000D01*
X121470976Y-90790000D01*
X121217887Y-90840342D01*
X120979482Y-90939093D01*
X120764923Y-91082456D01*
X120600000Y-91247379D01*
X120435077Y-91082456D01*
X120220518Y-90939093D01*
X120014295Y-90853672D01*
X120049276Y-90834974D01*
X120165001Y-90740001D01*
X120188804Y-90710997D01*
X121461730Y-89438072D01*
X122050001Y-89438072D01*
X122223255Y-89421008D01*
X122389851Y-89370472D01*
X122513581Y-89304337D01*
X122545506Y-89330537D01*
X122655820Y-89389502D01*
X122775518Y-89425812D01*
X122900000Y-89438072D01*
X123314250Y-89435000D01*
X123473000Y-89276250D01*
X123473000Y-88352000D01*
X123727000Y-88352000D01*
X123727000Y-89276250D01*
X123885750Y-89435000D01*
X124300000Y-89438072D01*
X124424482Y-89425812D01*
X124544180Y-89389502D01*
X124654494Y-89330537D01*
X124751185Y-89251185D01*
X124800000Y-89191704D01*
X124848815Y-89251185D01*
X124945506Y-89330537D01*
X125055820Y-89389502D01*
X125175518Y-89425812D01*
X125300000Y-89438072D01*
X125714250Y-89435000D01*
X125873000Y-89276250D01*
X125873000Y-88352000D01*
X124823750Y-88352000D01*
X124800000Y-88375750D01*
X124776250Y-88352000D01*
X123727000Y-88352000D01*
X123473000Y-88352000D01*
X123453000Y-88352000D01*
X123453000Y-88098000D01*
X123473000Y-88098000D01*
X123473000Y-88078000D01*
X123727000Y-88078000D01*
X123727000Y-88098000D01*
X124776250Y-88098000D01*
X124800000Y-88074250D01*
X124823750Y-88098000D01*
G37*
X124823750Y-88098000D02*
X125873000Y-88098000D01*
X125873000Y-88078000D01*
X126127000Y-88078000D01*
X126127000Y-88098000D01*
X126147000Y-88098000D01*
X126147000Y-88352000D01*
X126127000Y-88352000D01*
X126127000Y-89276250D01*
X126283600Y-89432850D01*
X126283601Y-94243897D01*
X124660000Y-95867499D01*
X124660000Y-95391916D01*
X124663676Y-95354593D01*
X124660000Y-95317270D01*
X124660000Y-95317261D01*
X124649003Y-95205608D01*
X124605546Y-95062347D01*
X124534974Y-94930318D01*
X124440001Y-94814593D01*
X124411004Y-94790796D01*
X122623608Y-93003400D01*
X122876205Y-93003400D01*
X122932630Y-93234621D01*
X123166808Y-93343017D01*
X123417633Y-93403645D01*
X123675465Y-93414174D01*
X123930398Y-93374200D01*
X124172633Y-93285259D01*
X124267370Y-93234621D01*
X124323795Y-93003400D01*
X123600000Y-92279605D01*
X122876205Y-93003400D01*
X122623608Y-93003400D01*
X122586414Y-92966207D01*
X122617544Y-92935077D01*
X122692559Y-92822809D01*
X122696600Y-92823795D01*
X123420395Y-92100000D01*
X123779605Y-92100000D01*
X124503400Y-92823795D01*
X124734621Y-92767370D01*
X124843017Y-92533192D01*
X124903645Y-92282367D01*
X124914174Y-92024535D01*
X124874200Y-91769602D01*
X124785259Y-91527367D01*
X124734621Y-91432630D01*
X124503400Y-91376205D01*
X123779605Y-92100000D01*
X123420395Y-92100000D01*
X122696600Y-91376205D01*
X122692559Y-91377191D01*
X122617544Y-91264923D01*
X122549221Y-91196600D01*
X122876205Y-91196600D01*
X123600000Y-91920395D01*
X124323795Y-91196600D01*
X124267370Y-90965379D01*
X124033192Y-90856983D01*
X123782367Y-90796355D01*
X123524535Y-90785826D01*
X123269602Y-90825800D01*
X123027367Y-90914741D01*
X122932630Y-90965379D01*
X122876205Y-91196600D01*
X122549221Y-91196600D01*
X122435077Y-91082456D01*
X122220518Y-90939093D01*
X121982113Y-90840342D01*
X121729024Y-90790000D01*
X121470976Y-90790000D01*
X121217887Y-90840342D01*
X120979482Y-90939093D01*
X120764923Y-91082456D01*
X120600000Y-91247379D01*
X120435077Y-91082456D01*
X120220518Y-90939093D01*
X120014295Y-90853672D01*
X120049276Y-90834974D01*
X120165001Y-90740001D01*
X120188804Y-90710997D01*
X121461730Y-89438072D01*
X122050001Y-89438072D01*
X122223255Y-89421008D01*
X122389851Y-89370472D01*
X122513581Y-89304337D01*
X122545506Y-89330537D01*
X122655820Y-89389502D01*
X122775518Y-89425812D01*
X122900000Y-89438072D01*
X123314250Y-89435000D01*
X123473000Y-89276250D01*
X123473000Y-88352000D01*
X123727000Y-88352000D01*
X123727000Y-89276250D01*
X123885750Y-89435000D01*
X124300000Y-89438072D01*
X124424482Y-89425812D01*
X124544180Y-89389502D01*
X124654494Y-89330537D01*
X124751185Y-89251185D01*
X124800000Y-89191704D01*
X124848815Y-89251185D01*
X124945506Y-89330537D01*
X125055820Y-89389502D01*
X125175518Y-89425812D01*
X125300000Y-89438072D01*
X125714250Y-89435000D01*
X125873000Y-89276250D01*
X125873000Y-88352000D01*
X124823750Y-88352000D01*
X124800000Y-88375750D01*
X124776250Y-88352000D01*
X123727000Y-88352000D01*
X123473000Y-88352000D01*
X123453000Y-88352000D01*
X123453000Y-88098000D01*
X123473000Y-88098000D01*
X123473000Y-88078000D01*
X123727000Y-88078000D01*
X123727000Y-88098000D01*
X124776250Y-88098000D01*
X124800000Y-88074250D01*
X124823750Y-88098000D01*
G36*
X115727000Y-88098000D02*
G01*
X117473000Y-88098000D01*
X117473000Y-88078000D01*
X117727000Y-88078000D01*
X117727000Y-88098000D01*
X117747000Y-88098000D01*
X117747000Y-88352000D01*
X117727000Y-88352000D01*
X117727000Y-88372000D01*
X117473000Y-88372000D01*
X117473000Y-88352000D01*
X115727000Y-88352000D01*
X115727000Y-88372000D01*
X115473000Y-88372000D01*
X115473000Y-88352000D01*
X115453000Y-88352000D01*
X115453000Y-88098000D01*
X115473000Y-88098000D01*
X115473000Y-88078000D01*
X115727000Y-88078000D01*
X115727000Y-88098000D01*
G37*
X115727000Y-88098000D02*
X117473000Y-88098000D01*
X117473000Y-88078000D01*
X117727000Y-88078000D01*
X117727000Y-88098000D01*
X117747000Y-88098000D01*
X117747000Y-88352000D01*
X117727000Y-88352000D01*
X117727000Y-88372000D01*
X117473000Y-88372000D01*
X117473000Y-88352000D01*
X115727000Y-88352000D01*
X115727000Y-88372000D01*
X115473000Y-88372000D01*
X115473000Y-88352000D01*
X115453000Y-88352000D01*
X115453000Y-88098000D01*
X115473000Y-88098000D01*
X115473000Y-88078000D01*
X115727000Y-88078000D01*
X115727000Y-88098000D01*
G36*
X122375465Y-83214174D02*
G01*
X122427000Y-83206093D01*
X122427000Y-84276250D01*
X122585750Y-84435000D01*
X122975000Y-84438072D01*
X123099482Y-84425812D01*
X123219180Y-84389502D01*
X123300000Y-84346302D01*
X123380820Y-84389502D01*
X123500518Y-84425812D01*
X123540000Y-84429701D01*
X123540000Y-84437677D01*
X123536324Y-84475000D01*
X123540000Y-84512322D01*
X123540000Y-84512332D01*
X123550997Y-84623985D01*
X123586121Y-84739774D01*
X123594454Y-84767246D01*
X123665026Y-84899276D01*
X123684485Y-84922986D01*
X123716444Y-84961928D01*
X123149999Y-84961928D01*
X122976745Y-84978992D01*
X122810149Y-85029528D01*
X122656613Y-85111595D01*
X122600000Y-85158056D01*
X122543387Y-85111595D01*
X122389851Y-85029528D01*
X122223255Y-84978992D01*
X122050001Y-84961928D01*
X121461729Y-84961928D01*
X121060000Y-84560199D01*
X121060000Y-84429701D01*
X121099482Y-84425812D01*
X121219180Y-84389502D01*
X121300000Y-84346302D01*
X121380820Y-84389502D01*
X121500518Y-84425812D01*
X121625000Y-84438072D01*
X122014250Y-84435000D01*
X122173000Y-84276250D01*
X122173000Y-83205906D01*
X122375465Y-83214174D01*
G37*
X122375465Y-83214174D02*
X122427000Y-83206093D01*
X122427000Y-84276250D01*
X122585750Y-84435000D01*
X122975000Y-84438072D01*
X123099482Y-84425812D01*
X123219180Y-84389502D01*
X123300000Y-84346302D01*
X123380820Y-84389502D01*
X123500518Y-84425812D01*
X123540000Y-84429701D01*
X123540000Y-84437677D01*
X123536324Y-84475000D01*
X123540000Y-84512322D01*
X123540000Y-84512332D01*
X123550997Y-84623985D01*
X123586121Y-84739774D01*
X123594454Y-84767246D01*
X123665026Y-84899276D01*
X123684485Y-84922986D01*
X123716444Y-84961928D01*
X123149999Y-84961928D01*
X122976745Y-84978992D01*
X122810149Y-85029528D01*
X122656613Y-85111595D01*
X122600000Y-85158056D01*
X122543387Y-85111595D01*
X122389851Y-85029528D01*
X122223255Y-84978992D01*
X122050001Y-84961928D01*
X121461729Y-84961928D01*
X121060000Y-84560199D01*
X121060000Y-84429701D01*
X121099482Y-84425812D01*
X121219180Y-84389502D01*
X121300000Y-84346302D01*
X121380820Y-84389502D01*
X121500518Y-84425812D01*
X121625000Y-84438072D01*
X122014250Y-84435000D01*
X122173000Y-84276250D01*
X122173000Y-83205906D01*
X122375465Y-83214174D01*
G36*
X107914990Y-73089792D02*
G01*
X107914991Y-75197294D01*
X107911314Y-75234626D01*
X107925988Y-75383611D01*
X107969444Y-75526872D01*
X108040016Y-75658902D01*
X108100957Y-75733158D01*
X108134990Y-75774627D01*
X108163988Y-75798425D01*
X109176565Y-76811003D01*
X109200363Y-76840001D01*
X109316088Y-76934974D01*
X109418880Y-76989918D01*
X108420803Y-77987996D01*
X108391799Y-78011799D01*
X108336671Y-78078974D01*
X108296826Y-78127524D01*
X108241183Y-78231624D01*
X108226254Y-78259554D01*
X108182797Y-78402815D01*
X108171800Y-78514468D01*
X108171800Y-78514478D01*
X108168124Y-78551800D01*
X108171800Y-78589123D01*
X108171801Y-82346426D01*
X108121884Y-82421133D01*
X108090905Y-82346344D01*
X107977637Y-82176826D01*
X107833474Y-82032663D01*
X107663956Y-81919395D01*
X107475598Y-81841374D01*
X107275639Y-81801600D01*
X107071761Y-81801600D01*
X106871802Y-81841374D01*
X106683444Y-81919395D01*
X106513926Y-82032663D01*
X106369763Y-82176826D01*
X106256495Y-82346344D01*
X106178474Y-82534702D01*
X106171345Y-82570543D01*
X105278100Y-81677299D01*
X105278100Y-78467035D01*
X105293575Y-78332449D01*
X105281332Y-78183244D01*
X105240216Y-78039294D01*
X105171806Y-77906131D01*
X105154232Y-77883991D01*
X105153074Y-77881824D01*
X105135953Y-77860961D01*
X105102055Y-77818256D01*
X105094496Y-77810446D01*
X105058101Y-77766099D01*
X105026352Y-77740043D01*
X103556752Y-76221728D01*
X103715990Y-75983411D01*
X103827932Y-75713158D01*
X103885000Y-75426260D01*
X103885000Y-75133740D01*
X103827932Y-74846842D01*
X103715990Y-74576589D01*
X103553475Y-74333368D01*
X103346632Y-74126525D01*
X103172240Y-74010000D01*
X103346632Y-73893475D01*
X103553475Y-73686632D01*
X103715990Y-73443411D01*
X103827932Y-73173158D01*
X103885000Y-72886260D01*
X103885000Y-72593740D01*
X103840053Y-72367776D01*
X104122865Y-72110871D01*
X104150001Y-72088601D01*
X104173493Y-72059976D01*
X104223901Y-72004233D01*
X104236407Y-71983315D01*
X104244974Y-71972876D01*
X104264606Y-71936147D01*
X104300722Y-71875738D01*
X104308386Y-71854242D01*
X104315546Y-71840847D01*
X104329141Y-71796030D01*
X104350998Y-71734726D01*
X104354072Y-71713842D01*
X104359003Y-71697586D01*
X104364138Y-71645455D01*
X104372798Y-71586615D01*
X104370000Y-71530939D01*
X104370000Y-69672922D01*
X104373676Y-69635599D01*
X104370000Y-69598276D01*
X104370000Y-69598267D01*
X104364159Y-69538960D01*
X107914990Y-73089792D01*
G37*
X107914990Y-73089792D02*
X107914991Y-75197294D01*
X107911314Y-75234626D01*
X107925988Y-75383611D01*
X107969444Y-75526872D01*
X108040016Y-75658902D01*
X108100957Y-75733158D01*
X108134990Y-75774627D01*
X108163988Y-75798425D01*
X109176565Y-76811003D01*
X109200363Y-76840001D01*
X109316088Y-76934974D01*
X109418880Y-76989918D01*
X108420803Y-77987996D01*
X108391799Y-78011799D01*
X108336671Y-78078974D01*
X108296826Y-78127524D01*
X108241183Y-78231624D01*
X108226254Y-78259554D01*
X108182797Y-78402815D01*
X108171800Y-78514468D01*
X108171800Y-78514478D01*
X108168124Y-78551800D01*
X108171800Y-78589123D01*
X108171801Y-82346426D01*
X108121884Y-82421133D01*
X108090905Y-82346344D01*
X107977637Y-82176826D01*
X107833474Y-82032663D01*
X107663956Y-81919395D01*
X107475598Y-81841374D01*
X107275639Y-81801600D01*
X107071761Y-81801600D01*
X106871802Y-81841374D01*
X106683444Y-81919395D01*
X106513926Y-82032663D01*
X106369763Y-82176826D01*
X106256495Y-82346344D01*
X106178474Y-82534702D01*
X106171345Y-82570543D01*
X105278100Y-81677299D01*
X105278100Y-78467035D01*
X105293575Y-78332449D01*
X105281332Y-78183244D01*
X105240216Y-78039294D01*
X105171806Y-77906131D01*
X105154232Y-77883991D01*
X105153074Y-77881824D01*
X105135953Y-77860961D01*
X105102055Y-77818256D01*
X105094496Y-77810446D01*
X105058101Y-77766099D01*
X105026352Y-77740043D01*
X103556752Y-76221728D01*
X103715990Y-75983411D01*
X103827932Y-75713158D01*
X103885000Y-75426260D01*
X103885000Y-75133740D01*
X103827932Y-74846842D01*
X103715990Y-74576589D01*
X103553475Y-74333368D01*
X103346632Y-74126525D01*
X103172240Y-74010000D01*
X103346632Y-73893475D01*
X103553475Y-73686632D01*
X103715990Y-73443411D01*
X103827932Y-73173158D01*
X103885000Y-72886260D01*
X103885000Y-72593740D01*
X103840053Y-72367776D01*
X104122865Y-72110871D01*
X104150001Y-72088601D01*
X104173493Y-72059976D01*
X104223901Y-72004233D01*
X104236407Y-71983315D01*
X104244974Y-71972876D01*
X104264606Y-71936147D01*
X104300722Y-71875738D01*
X104308386Y-71854242D01*
X104315546Y-71840847D01*
X104329141Y-71796030D01*
X104350998Y-71734726D01*
X104354072Y-71713842D01*
X104359003Y-71697586D01*
X104364138Y-71645455D01*
X104372798Y-71586615D01*
X104370000Y-71530939D01*
X104370000Y-69672922D01*
X104373676Y-69635599D01*
X104370000Y-69598276D01*
X104370000Y-69598267D01*
X104364159Y-69538960D01*
X107914990Y-73089792D01*
M02*
