G04 #@! TF.GenerationSoftware,KiCad,Pcbnew,(5.1.5-0-10_14)*
G04 #@! TF.CreationDate,2020-11-09T16:06:39+01:00*
G04 #@! TF.ProjectId,ATmega128_Breakout_Board,41546d65-6761-4313-9238-5f427265616b,rev?*
G04 #@! TF.SameCoordinates,Original*
G04 #@! TF.FileFunction,Soldermask,Bot*
G04 #@! TF.FilePolarity,Negative*
%FSLAX46Y46*%
G04 Gerber Fmt 4.6, Leading zero omitted, Abs format (unit mm)*
G04 Created by KiCad (PCBNEW (5.1.5-0-10_14)) date 2020-11-09 16:06:39*
%MOMM*%
%LPD*%
G04 APERTURE LIST*
%ADD10C,0.100000*%
G04 APERTURE END LIST*
D10*
G36*
X137713512Y-109403927D02*
G01*
X137862812Y-109433624D01*
X138026784Y-109501544D01*
X138174354Y-109600147D01*
X138299853Y-109725646D01*
X138398456Y-109873216D01*
X138466376Y-110037188D01*
X138501000Y-110211259D01*
X138501000Y-110388741D01*
X138466376Y-110562812D01*
X138398456Y-110726784D01*
X138299853Y-110874354D01*
X138174354Y-110999853D01*
X138026784Y-111098456D01*
X137862812Y-111166376D01*
X137713512Y-111196073D01*
X137688742Y-111201000D01*
X137511258Y-111201000D01*
X137486488Y-111196073D01*
X137337188Y-111166376D01*
X137173216Y-111098456D01*
X137025646Y-110999853D01*
X136900147Y-110874354D01*
X136801544Y-110726784D01*
X136733624Y-110562812D01*
X136699000Y-110388741D01*
X136699000Y-110211259D01*
X136733624Y-110037188D01*
X136801544Y-109873216D01*
X136900147Y-109725646D01*
X137025646Y-109600147D01*
X137173216Y-109501544D01*
X137337188Y-109433624D01*
X137486488Y-109403927D01*
X137511258Y-109399000D01*
X137688742Y-109399000D01*
X137713512Y-109403927D01*
G37*
G36*
X135173512Y-109403927D02*
G01*
X135322812Y-109433624D01*
X135486784Y-109501544D01*
X135634354Y-109600147D01*
X135759853Y-109725646D01*
X135858456Y-109873216D01*
X135926376Y-110037188D01*
X135961000Y-110211259D01*
X135961000Y-110388741D01*
X135926376Y-110562812D01*
X135858456Y-110726784D01*
X135759853Y-110874354D01*
X135634354Y-110999853D01*
X135486784Y-111098456D01*
X135322812Y-111166376D01*
X135173512Y-111196073D01*
X135148742Y-111201000D01*
X134971258Y-111201000D01*
X134946488Y-111196073D01*
X134797188Y-111166376D01*
X134633216Y-111098456D01*
X134485646Y-110999853D01*
X134360147Y-110874354D01*
X134261544Y-110726784D01*
X134193624Y-110562812D01*
X134159000Y-110388741D01*
X134159000Y-110211259D01*
X134193624Y-110037188D01*
X134261544Y-109873216D01*
X134360147Y-109725646D01*
X134485646Y-109600147D01*
X134633216Y-109501544D01*
X134797188Y-109433624D01*
X134946488Y-109403927D01*
X134971258Y-109399000D01*
X135148742Y-109399000D01*
X135173512Y-109403927D01*
G37*
G36*
X132633512Y-109403927D02*
G01*
X132782812Y-109433624D01*
X132946784Y-109501544D01*
X133094354Y-109600147D01*
X133219853Y-109725646D01*
X133318456Y-109873216D01*
X133386376Y-110037188D01*
X133421000Y-110211259D01*
X133421000Y-110388741D01*
X133386376Y-110562812D01*
X133318456Y-110726784D01*
X133219853Y-110874354D01*
X133094354Y-110999853D01*
X132946784Y-111098456D01*
X132782812Y-111166376D01*
X132633512Y-111196073D01*
X132608742Y-111201000D01*
X132431258Y-111201000D01*
X132406488Y-111196073D01*
X132257188Y-111166376D01*
X132093216Y-111098456D01*
X131945646Y-110999853D01*
X131820147Y-110874354D01*
X131721544Y-110726784D01*
X131653624Y-110562812D01*
X131619000Y-110388741D01*
X131619000Y-110211259D01*
X131653624Y-110037188D01*
X131721544Y-109873216D01*
X131820147Y-109725646D01*
X131945646Y-109600147D01*
X132093216Y-109501544D01*
X132257188Y-109433624D01*
X132406488Y-109403927D01*
X132431258Y-109399000D01*
X132608742Y-109399000D01*
X132633512Y-109403927D01*
G37*
G36*
X130093512Y-109403927D02*
G01*
X130242812Y-109433624D01*
X130406784Y-109501544D01*
X130554354Y-109600147D01*
X130679853Y-109725646D01*
X130778456Y-109873216D01*
X130846376Y-110037188D01*
X130881000Y-110211259D01*
X130881000Y-110388741D01*
X130846376Y-110562812D01*
X130778456Y-110726784D01*
X130679853Y-110874354D01*
X130554354Y-110999853D01*
X130406784Y-111098456D01*
X130242812Y-111166376D01*
X130093512Y-111196073D01*
X130068742Y-111201000D01*
X129891258Y-111201000D01*
X129866488Y-111196073D01*
X129717188Y-111166376D01*
X129553216Y-111098456D01*
X129405646Y-110999853D01*
X129280147Y-110874354D01*
X129181544Y-110726784D01*
X129113624Y-110562812D01*
X129079000Y-110388741D01*
X129079000Y-110211259D01*
X129113624Y-110037188D01*
X129181544Y-109873216D01*
X129280147Y-109725646D01*
X129405646Y-109600147D01*
X129553216Y-109501544D01*
X129717188Y-109433624D01*
X129866488Y-109403927D01*
X129891258Y-109399000D01*
X130068742Y-109399000D01*
X130093512Y-109403927D01*
G37*
G36*
X127553512Y-109403927D02*
G01*
X127702812Y-109433624D01*
X127866784Y-109501544D01*
X128014354Y-109600147D01*
X128139853Y-109725646D01*
X128238456Y-109873216D01*
X128306376Y-110037188D01*
X128341000Y-110211259D01*
X128341000Y-110388741D01*
X128306376Y-110562812D01*
X128238456Y-110726784D01*
X128139853Y-110874354D01*
X128014354Y-110999853D01*
X127866784Y-111098456D01*
X127702812Y-111166376D01*
X127553512Y-111196073D01*
X127528742Y-111201000D01*
X127351258Y-111201000D01*
X127326488Y-111196073D01*
X127177188Y-111166376D01*
X127013216Y-111098456D01*
X126865646Y-110999853D01*
X126740147Y-110874354D01*
X126641544Y-110726784D01*
X126573624Y-110562812D01*
X126539000Y-110388741D01*
X126539000Y-110211259D01*
X126573624Y-110037188D01*
X126641544Y-109873216D01*
X126740147Y-109725646D01*
X126865646Y-109600147D01*
X127013216Y-109501544D01*
X127177188Y-109433624D01*
X127326488Y-109403927D01*
X127351258Y-109399000D01*
X127528742Y-109399000D01*
X127553512Y-109403927D01*
G37*
G36*
X125013512Y-109403927D02*
G01*
X125162812Y-109433624D01*
X125326784Y-109501544D01*
X125474354Y-109600147D01*
X125599853Y-109725646D01*
X125698456Y-109873216D01*
X125766376Y-110037188D01*
X125801000Y-110211259D01*
X125801000Y-110388741D01*
X125766376Y-110562812D01*
X125698456Y-110726784D01*
X125599853Y-110874354D01*
X125474354Y-110999853D01*
X125326784Y-111098456D01*
X125162812Y-111166376D01*
X125013512Y-111196073D01*
X124988742Y-111201000D01*
X124811258Y-111201000D01*
X124786488Y-111196073D01*
X124637188Y-111166376D01*
X124473216Y-111098456D01*
X124325646Y-110999853D01*
X124200147Y-110874354D01*
X124101544Y-110726784D01*
X124033624Y-110562812D01*
X123999000Y-110388741D01*
X123999000Y-110211259D01*
X124033624Y-110037188D01*
X124101544Y-109873216D01*
X124200147Y-109725646D01*
X124325646Y-109600147D01*
X124473216Y-109501544D01*
X124637188Y-109433624D01*
X124786488Y-109403927D01*
X124811258Y-109399000D01*
X124988742Y-109399000D01*
X125013512Y-109403927D01*
G37*
G36*
X122473512Y-109403927D02*
G01*
X122622812Y-109433624D01*
X122786784Y-109501544D01*
X122934354Y-109600147D01*
X123059853Y-109725646D01*
X123158456Y-109873216D01*
X123226376Y-110037188D01*
X123261000Y-110211259D01*
X123261000Y-110388741D01*
X123226376Y-110562812D01*
X123158456Y-110726784D01*
X123059853Y-110874354D01*
X122934354Y-110999853D01*
X122786784Y-111098456D01*
X122622812Y-111166376D01*
X122473512Y-111196073D01*
X122448742Y-111201000D01*
X122271258Y-111201000D01*
X122246488Y-111196073D01*
X122097188Y-111166376D01*
X121933216Y-111098456D01*
X121785646Y-110999853D01*
X121660147Y-110874354D01*
X121561544Y-110726784D01*
X121493624Y-110562812D01*
X121459000Y-110388741D01*
X121459000Y-110211259D01*
X121493624Y-110037188D01*
X121561544Y-109873216D01*
X121660147Y-109725646D01*
X121785646Y-109600147D01*
X121933216Y-109501544D01*
X122097188Y-109433624D01*
X122246488Y-109403927D01*
X122271258Y-109399000D01*
X122448742Y-109399000D01*
X122473512Y-109403927D01*
G37*
G36*
X119933512Y-109403927D02*
G01*
X120082812Y-109433624D01*
X120246784Y-109501544D01*
X120394354Y-109600147D01*
X120519853Y-109725646D01*
X120618456Y-109873216D01*
X120686376Y-110037188D01*
X120721000Y-110211259D01*
X120721000Y-110388741D01*
X120686376Y-110562812D01*
X120618456Y-110726784D01*
X120519853Y-110874354D01*
X120394354Y-110999853D01*
X120246784Y-111098456D01*
X120082812Y-111166376D01*
X119933512Y-111196073D01*
X119908742Y-111201000D01*
X119731258Y-111201000D01*
X119706488Y-111196073D01*
X119557188Y-111166376D01*
X119393216Y-111098456D01*
X119245646Y-110999853D01*
X119120147Y-110874354D01*
X119021544Y-110726784D01*
X118953624Y-110562812D01*
X118919000Y-110388741D01*
X118919000Y-110211259D01*
X118953624Y-110037188D01*
X119021544Y-109873216D01*
X119120147Y-109725646D01*
X119245646Y-109600147D01*
X119393216Y-109501544D01*
X119557188Y-109433624D01*
X119706488Y-109403927D01*
X119731258Y-109399000D01*
X119908742Y-109399000D01*
X119933512Y-109403927D01*
G37*
G36*
X117393512Y-109403927D02*
G01*
X117542812Y-109433624D01*
X117706784Y-109501544D01*
X117854354Y-109600147D01*
X117979853Y-109725646D01*
X118078456Y-109873216D01*
X118146376Y-110037188D01*
X118181000Y-110211259D01*
X118181000Y-110388741D01*
X118146376Y-110562812D01*
X118078456Y-110726784D01*
X117979853Y-110874354D01*
X117854354Y-110999853D01*
X117706784Y-111098456D01*
X117542812Y-111166376D01*
X117393512Y-111196073D01*
X117368742Y-111201000D01*
X117191258Y-111201000D01*
X117166488Y-111196073D01*
X117017188Y-111166376D01*
X116853216Y-111098456D01*
X116705646Y-110999853D01*
X116580147Y-110874354D01*
X116481544Y-110726784D01*
X116413624Y-110562812D01*
X116379000Y-110388741D01*
X116379000Y-110211259D01*
X116413624Y-110037188D01*
X116481544Y-109873216D01*
X116580147Y-109725646D01*
X116705646Y-109600147D01*
X116853216Y-109501544D01*
X117017188Y-109433624D01*
X117166488Y-109403927D01*
X117191258Y-109399000D01*
X117368742Y-109399000D01*
X117393512Y-109403927D01*
G37*
G36*
X114853512Y-109403927D02*
G01*
X115002812Y-109433624D01*
X115166784Y-109501544D01*
X115314354Y-109600147D01*
X115439853Y-109725646D01*
X115538456Y-109873216D01*
X115606376Y-110037188D01*
X115641000Y-110211259D01*
X115641000Y-110388741D01*
X115606376Y-110562812D01*
X115538456Y-110726784D01*
X115439853Y-110874354D01*
X115314354Y-110999853D01*
X115166784Y-111098456D01*
X115002812Y-111166376D01*
X114853512Y-111196073D01*
X114828742Y-111201000D01*
X114651258Y-111201000D01*
X114626488Y-111196073D01*
X114477188Y-111166376D01*
X114313216Y-111098456D01*
X114165646Y-110999853D01*
X114040147Y-110874354D01*
X113941544Y-110726784D01*
X113873624Y-110562812D01*
X113839000Y-110388741D01*
X113839000Y-110211259D01*
X113873624Y-110037188D01*
X113941544Y-109873216D01*
X114040147Y-109725646D01*
X114165646Y-109600147D01*
X114313216Y-109501544D01*
X114477188Y-109433624D01*
X114626488Y-109403927D01*
X114651258Y-109399000D01*
X114828742Y-109399000D01*
X114853512Y-109403927D01*
G37*
G36*
X112313512Y-109403927D02*
G01*
X112462812Y-109433624D01*
X112626784Y-109501544D01*
X112774354Y-109600147D01*
X112899853Y-109725646D01*
X112998456Y-109873216D01*
X113066376Y-110037188D01*
X113101000Y-110211259D01*
X113101000Y-110388741D01*
X113066376Y-110562812D01*
X112998456Y-110726784D01*
X112899853Y-110874354D01*
X112774354Y-110999853D01*
X112626784Y-111098456D01*
X112462812Y-111166376D01*
X112313512Y-111196073D01*
X112288742Y-111201000D01*
X112111258Y-111201000D01*
X112086488Y-111196073D01*
X111937188Y-111166376D01*
X111773216Y-111098456D01*
X111625646Y-110999853D01*
X111500147Y-110874354D01*
X111401544Y-110726784D01*
X111333624Y-110562812D01*
X111299000Y-110388741D01*
X111299000Y-110211259D01*
X111333624Y-110037188D01*
X111401544Y-109873216D01*
X111500147Y-109725646D01*
X111625646Y-109600147D01*
X111773216Y-109501544D01*
X111937188Y-109433624D01*
X112086488Y-109403927D01*
X112111258Y-109399000D01*
X112288742Y-109399000D01*
X112313512Y-109403927D01*
G37*
G36*
X109773512Y-109403927D02*
G01*
X109922812Y-109433624D01*
X110086784Y-109501544D01*
X110234354Y-109600147D01*
X110359853Y-109725646D01*
X110458456Y-109873216D01*
X110526376Y-110037188D01*
X110561000Y-110211259D01*
X110561000Y-110388741D01*
X110526376Y-110562812D01*
X110458456Y-110726784D01*
X110359853Y-110874354D01*
X110234354Y-110999853D01*
X110086784Y-111098456D01*
X109922812Y-111166376D01*
X109773512Y-111196073D01*
X109748742Y-111201000D01*
X109571258Y-111201000D01*
X109546488Y-111196073D01*
X109397188Y-111166376D01*
X109233216Y-111098456D01*
X109085646Y-110999853D01*
X108960147Y-110874354D01*
X108861544Y-110726784D01*
X108793624Y-110562812D01*
X108759000Y-110388741D01*
X108759000Y-110211259D01*
X108793624Y-110037188D01*
X108861544Y-109873216D01*
X108960147Y-109725646D01*
X109085646Y-109600147D01*
X109233216Y-109501544D01*
X109397188Y-109433624D01*
X109546488Y-109403927D01*
X109571258Y-109399000D01*
X109748742Y-109399000D01*
X109773512Y-109403927D01*
G37*
G36*
X107233512Y-109403927D02*
G01*
X107382812Y-109433624D01*
X107546784Y-109501544D01*
X107694354Y-109600147D01*
X107819853Y-109725646D01*
X107918456Y-109873216D01*
X107986376Y-110037188D01*
X108021000Y-110211259D01*
X108021000Y-110388741D01*
X107986376Y-110562812D01*
X107918456Y-110726784D01*
X107819853Y-110874354D01*
X107694354Y-110999853D01*
X107546784Y-111098456D01*
X107382812Y-111166376D01*
X107233512Y-111196073D01*
X107208742Y-111201000D01*
X107031258Y-111201000D01*
X107006488Y-111196073D01*
X106857188Y-111166376D01*
X106693216Y-111098456D01*
X106545646Y-110999853D01*
X106420147Y-110874354D01*
X106321544Y-110726784D01*
X106253624Y-110562812D01*
X106219000Y-110388741D01*
X106219000Y-110211259D01*
X106253624Y-110037188D01*
X106321544Y-109873216D01*
X106420147Y-109725646D01*
X106545646Y-109600147D01*
X106693216Y-109501544D01*
X106857188Y-109433624D01*
X107006488Y-109403927D01*
X107031258Y-109399000D01*
X107208742Y-109399000D01*
X107233512Y-109403927D01*
G37*
G36*
X104693512Y-109403927D02*
G01*
X104842812Y-109433624D01*
X105006784Y-109501544D01*
X105154354Y-109600147D01*
X105279853Y-109725646D01*
X105378456Y-109873216D01*
X105446376Y-110037188D01*
X105481000Y-110211259D01*
X105481000Y-110388741D01*
X105446376Y-110562812D01*
X105378456Y-110726784D01*
X105279853Y-110874354D01*
X105154354Y-110999853D01*
X105006784Y-111098456D01*
X104842812Y-111166376D01*
X104693512Y-111196073D01*
X104668742Y-111201000D01*
X104491258Y-111201000D01*
X104466488Y-111196073D01*
X104317188Y-111166376D01*
X104153216Y-111098456D01*
X104005646Y-110999853D01*
X103880147Y-110874354D01*
X103781544Y-110726784D01*
X103713624Y-110562812D01*
X103679000Y-110388741D01*
X103679000Y-110211259D01*
X103713624Y-110037188D01*
X103781544Y-109873216D01*
X103880147Y-109725646D01*
X104005646Y-109600147D01*
X104153216Y-109501544D01*
X104317188Y-109433624D01*
X104466488Y-109403927D01*
X104491258Y-109399000D01*
X104668742Y-109399000D01*
X104693512Y-109403927D01*
G37*
G36*
X102153512Y-109403927D02*
G01*
X102302812Y-109433624D01*
X102466784Y-109501544D01*
X102614354Y-109600147D01*
X102739853Y-109725646D01*
X102838456Y-109873216D01*
X102906376Y-110037188D01*
X102941000Y-110211259D01*
X102941000Y-110388741D01*
X102906376Y-110562812D01*
X102838456Y-110726784D01*
X102739853Y-110874354D01*
X102614354Y-110999853D01*
X102466784Y-111098456D01*
X102302812Y-111166376D01*
X102153512Y-111196073D01*
X102128742Y-111201000D01*
X101951258Y-111201000D01*
X101926488Y-111196073D01*
X101777188Y-111166376D01*
X101613216Y-111098456D01*
X101465646Y-110999853D01*
X101340147Y-110874354D01*
X101241544Y-110726784D01*
X101173624Y-110562812D01*
X101139000Y-110388741D01*
X101139000Y-110211259D01*
X101173624Y-110037188D01*
X101241544Y-109873216D01*
X101340147Y-109725646D01*
X101465646Y-109600147D01*
X101613216Y-109501544D01*
X101777188Y-109433624D01*
X101926488Y-109403927D01*
X101951258Y-109399000D01*
X102128742Y-109399000D01*
X102153512Y-109403927D01*
G37*
G36*
X99613512Y-109403927D02*
G01*
X99762812Y-109433624D01*
X99926784Y-109501544D01*
X100074354Y-109600147D01*
X100199853Y-109725646D01*
X100298456Y-109873216D01*
X100366376Y-110037188D01*
X100401000Y-110211259D01*
X100401000Y-110388741D01*
X100366376Y-110562812D01*
X100298456Y-110726784D01*
X100199853Y-110874354D01*
X100074354Y-110999853D01*
X99926784Y-111098456D01*
X99762812Y-111166376D01*
X99613512Y-111196073D01*
X99588742Y-111201000D01*
X99411258Y-111201000D01*
X99386488Y-111196073D01*
X99237188Y-111166376D01*
X99073216Y-111098456D01*
X98925646Y-110999853D01*
X98800147Y-110874354D01*
X98701544Y-110726784D01*
X98633624Y-110562812D01*
X98599000Y-110388741D01*
X98599000Y-110211259D01*
X98633624Y-110037188D01*
X98701544Y-109873216D01*
X98800147Y-109725646D01*
X98925646Y-109600147D01*
X99073216Y-109501544D01*
X99237188Y-109433624D01*
X99386488Y-109403927D01*
X99411258Y-109399000D01*
X99588742Y-109399000D01*
X99613512Y-109403927D01*
G37*
G36*
X141413512Y-105603927D02*
G01*
X141562812Y-105633624D01*
X141726784Y-105701544D01*
X141874354Y-105800147D01*
X141999853Y-105925646D01*
X142098456Y-106073216D01*
X142166376Y-106237188D01*
X142201000Y-106411259D01*
X142201000Y-106588741D01*
X142166376Y-106762812D01*
X142098456Y-106926784D01*
X141999853Y-107074354D01*
X141874354Y-107199853D01*
X141726784Y-107298456D01*
X141562812Y-107366376D01*
X141413512Y-107396073D01*
X141388742Y-107401000D01*
X141211258Y-107401000D01*
X141186488Y-107396073D01*
X141037188Y-107366376D01*
X140873216Y-107298456D01*
X140725646Y-107199853D01*
X140600147Y-107074354D01*
X140501544Y-106926784D01*
X140433624Y-106762812D01*
X140399000Y-106588741D01*
X140399000Y-106411259D01*
X140433624Y-106237188D01*
X140501544Y-106073216D01*
X140600147Y-105925646D01*
X140725646Y-105800147D01*
X140873216Y-105701544D01*
X141037188Y-105633624D01*
X141186488Y-105603927D01*
X141211258Y-105599000D01*
X141388742Y-105599000D01*
X141413512Y-105603927D01*
G37*
G36*
X95813512Y-105603927D02*
G01*
X95962812Y-105633624D01*
X96126784Y-105701544D01*
X96274354Y-105800147D01*
X96399853Y-105925646D01*
X96498456Y-106073216D01*
X96566376Y-106237188D01*
X96601000Y-106411259D01*
X96601000Y-106588741D01*
X96566376Y-106762812D01*
X96498456Y-106926784D01*
X96399853Y-107074354D01*
X96274354Y-107199853D01*
X96126784Y-107298456D01*
X95962812Y-107366376D01*
X95813512Y-107396073D01*
X95788742Y-107401000D01*
X95611258Y-107401000D01*
X95586488Y-107396073D01*
X95437188Y-107366376D01*
X95273216Y-107298456D01*
X95125646Y-107199853D01*
X95000147Y-107074354D01*
X94901544Y-106926784D01*
X94833624Y-106762812D01*
X94799000Y-106588741D01*
X94799000Y-106411259D01*
X94833624Y-106237188D01*
X94901544Y-106073216D01*
X95000147Y-105925646D01*
X95125646Y-105800147D01*
X95273216Y-105701544D01*
X95437188Y-105633624D01*
X95586488Y-105603927D01*
X95611258Y-105599000D01*
X95788742Y-105599000D01*
X95813512Y-105603927D01*
G37*
G36*
X102956564Y-103339389D02*
G01*
X103147833Y-103418615D01*
X103147835Y-103418616D01*
X103319346Y-103533216D01*
X103319973Y-103533635D01*
X103466365Y-103680027D01*
X103581385Y-103852167D01*
X103660611Y-104043436D01*
X103701000Y-104246484D01*
X103701000Y-104453516D01*
X103660611Y-104656564D01*
X103618406Y-104758456D01*
X103581384Y-104847835D01*
X103466365Y-105019973D01*
X103319973Y-105166365D01*
X103147835Y-105281384D01*
X103147834Y-105281385D01*
X103147833Y-105281385D01*
X102956564Y-105360611D01*
X102753516Y-105401000D01*
X102546484Y-105401000D01*
X102343436Y-105360611D01*
X102152167Y-105281385D01*
X102152166Y-105281385D01*
X102152165Y-105281384D01*
X101980027Y-105166365D01*
X101833635Y-105019973D01*
X101718616Y-104847835D01*
X101681594Y-104758456D01*
X101639389Y-104656564D01*
X101599000Y-104453516D01*
X101599000Y-104246484D01*
X101639389Y-104043436D01*
X101718615Y-103852167D01*
X101833635Y-103680027D01*
X101980027Y-103533635D01*
X101980654Y-103533216D01*
X102152165Y-103418616D01*
X102152167Y-103418615D01*
X102343436Y-103339389D01*
X102546484Y-103299000D01*
X102753516Y-103299000D01*
X102956564Y-103339389D01*
G37*
G36*
X107456564Y-103339389D02*
G01*
X107647833Y-103418615D01*
X107647835Y-103418616D01*
X107819346Y-103533216D01*
X107819973Y-103533635D01*
X107966365Y-103680027D01*
X108081385Y-103852167D01*
X108160611Y-104043436D01*
X108201000Y-104246484D01*
X108201000Y-104453516D01*
X108160611Y-104656564D01*
X108118406Y-104758456D01*
X108081384Y-104847835D01*
X107966365Y-105019973D01*
X107819973Y-105166365D01*
X107647835Y-105281384D01*
X107647834Y-105281385D01*
X107647833Y-105281385D01*
X107456564Y-105360611D01*
X107253516Y-105401000D01*
X107046484Y-105401000D01*
X106843436Y-105360611D01*
X106652167Y-105281385D01*
X106652166Y-105281385D01*
X106652165Y-105281384D01*
X106480027Y-105166365D01*
X106333635Y-105019973D01*
X106218616Y-104847835D01*
X106181594Y-104758456D01*
X106139389Y-104656564D01*
X106099000Y-104453516D01*
X106099000Y-104246484D01*
X106139389Y-104043436D01*
X106218615Y-103852167D01*
X106333635Y-103680027D01*
X106480027Y-103533635D01*
X106480654Y-103533216D01*
X106652165Y-103418616D01*
X106652167Y-103418615D01*
X106843436Y-103339389D01*
X107046484Y-103299000D01*
X107253516Y-103299000D01*
X107456564Y-103339389D01*
G37*
G36*
X95813512Y-103063927D02*
G01*
X95962812Y-103093624D01*
X96126784Y-103161544D01*
X96274354Y-103260147D01*
X96399853Y-103385646D01*
X96498456Y-103533216D01*
X96566376Y-103697188D01*
X96596073Y-103846488D01*
X96597203Y-103852167D01*
X96601000Y-103871259D01*
X96601000Y-104048741D01*
X96566376Y-104222812D01*
X96498456Y-104386784D01*
X96399853Y-104534354D01*
X96274354Y-104659853D01*
X96126784Y-104758456D01*
X95962812Y-104826376D01*
X95813512Y-104856073D01*
X95788742Y-104861000D01*
X95611258Y-104861000D01*
X95586488Y-104856073D01*
X95437188Y-104826376D01*
X95273216Y-104758456D01*
X95125646Y-104659853D01*
X95000147Y-104534354D01*
X94901544Y-104386784D01*
X94833624Y-104222812D01*
X94799000Y-104048741D01*
X94799000Y-103871259D01*
X94802798Y-103852167D01*
X94803927Y-103846488D01*
X94833624Y-103697188D01*
X94901544Y-103533216D01*
X95000147Y-103385646D01*
X95125646Y-103260147D01*
X95273216Y-103161544D01*
X95437188Y-103093624D01*
X95586488Y-103063927D01*
X95611258Y-103059000D01*
X95788742Y-103059000D01*
X95813512Y-103063927D01*
G37*
G36*
X141413512Y-103063927D02*
G01*
X141562812Y-103093624D01*
X141726784Y-103161544D01*
X141874354Y-103260147D01*
X141999853Y-103385646D01*
X142098456Y-103533216D01*
X142166376Y-103697188D01*
X142196073Y-103846488D01*
X142197203Y-103852167D01*
X142201000Y-103871259D01*
X142201000Y-104048741D01*
X142166376Y-104222812D01*
X142098456Y-104386784D01*
X141999853Y-104534354D01*
X141874354Y-104659853D01*
X141726784Y-104758456D01*
X141562812Y-104826376D01*
X141413512Y-104856073D01*
X141388742Y-104861000D01*
X141211258Y-104861000D01*
X141186488Y-104856073D01*
X141037188Y-104826376D01*
X140873216Y-104758456D01*
X140725646Y-104659853D01*
X140600147Y-104534354D01*
X140501544Y-104386784D01*
X140433624Y-104222812D01*
X140399000Y-104048741D01*
X140399000Y-103871259D01*
X140402798Y-103852167D01*
X140403927Y-103846488D01*
X140433624Y-103697188D01*
X140501544Y-103533216D01*
X140600147Y-103385646D01*
X140725646Y-103260147D01*
X140873216Y-103161544D01*
X141037188Y-103093624D01*
X141186488Y-103063927D01*
X141211258Y-103059000D01*
X141388742Y-103059000D01*
X141413512Y-103063927D01*
G37*
G36*
X133073512Y-102403927D02*
G01*
X133222812Y-102433624D01*
X133386784Y-102501544D01*
X133534354Y-102600147D01*
X133659853Y-102725646D01*
X133758456Y-102873216D01*
X133826376Y-103037188D01*
X133861000Y-103211259D01*
X133861000Y-103388741D01*
X133826376Y-103562812D01*
X133758456Y-103726784D01*
X133659853Y-103874354D01*
X133534354Y-103999853D01*
X133386784Y-104098456D01*
X133222812Y-104166376D01*
X133073512Y-104196073D01*
X133048742Y-104201000D01*
X132871258Y-104201000D01*
X132846488Y-104196073D01*
X132697188Y-104166376D01*
X132533216Y-104098456D01*
X132385646Y-103999853D01*
X132260147Y-103874354D01*
X132161544Y-103726784D01*
X132093624Y-103562812D01*
X132059000Y-103388741D01*
X132059000Y-103211259D01*
X132093624Y-103037188D01*
X132161544Y-102873216D01*
X132260147Y-102725646D01*
X132385646Y-102600147D01*
X132533216Y-102501544D01*
X132697188Y-102433624D01*
X132846488Y-102403927D01*
X132871258Y-102399000D01*
X133048742Y-102399000D01*
X133073512Y-102403927D01*
G37*
G36*
X136401000Y-104201000D02*
G01*
X134599000Y-104201000D01*
X134599000Y-102399000D01*
X136401000Y-102399000D01*
X136401000Y-104201000D01*
G37*
G36*
X95813512Y-100523927D02*
G01*
X95962812Y-100553624D01*
X96126784Y-100621544D01*
X96274354Y-100720147D01*
X96399853Y-100845646D01*
X96498456Y-100993216D01*
X96566376Y-101157188D01*
X96601000Y-101331259D01*
X96601000Y-101508741D01*
X96566376Y-101682812D01*
X96498456Y-101846784D01*
X96399853Y-101994354D01*
X96274354Y-102119853D01*
X96126784Y-102218456D01*
X95962812Y-102286376D01*
X95813512Y-102316073D01*
X95788742Y-102321000D01*
X95611258Y-102321000D01*
X95586488Y-102316073D01*
X95437188Y-102286376D01*
X95273216Y-102218456D01*
X95125646Y-102119853D01*
X95000147Y-101994354D01*
X94901544Y-101846784D01*
X94833624Y-101682812D01*
X94799000Y-101508741D01*
X94799000Y-101331259D01*
X94833624Y-101157188D01*
X94901544Y-100993216D01*
X95000147Y-100845646D01*
X95125646Y-100720147D01*
X95273216Y-100621544D01*
X95437188Y-100553624D01*
X95586488Y-100523927D01*
X95611258Y-100519000D01*
X95788742Y-100519000D01*
X95813512Y-100523927D01*
G37*
G36*
X141413512Y-100523927D02*
G01*
X141562812Y-100553624D01*
X141726784Y-100621544D01*
X141874354Y-100720147D01*
X141999853Y-100845646D01*
X142098456Y-100993216D01*
X142166376Y-101157188D01*
X142201000Y-101331259D01*
X142201000Y-101508741D01*
X142166376Y-101682812D01*
X142098456Y-101846784D01*
X141999853Y-101994354D01*
X141874354Y-102119853D01*
X141726784Y-102218456D01*
X141562812Y-102286376D01*
X141413512Y-102316073D01*
X141388742Y-102321000D01*
X141211258Y-102321000D01*
X141186488Y-102316073D01*
X141037188Y-102286376D01*
X140873216Y-102218456D01*
X140725646Y-102119853D01*
X140600147Y-101994354D01*
X140501544Y-101846784D01*
X140433624Y-101682812D01*
X140399000Y-101508741D01*
X140399000Y-101331259D01*
X140433624Y-101157188D01*
X140501544Y-100993216D01*
X140600147Y-100845646D01*
X140725646Y-100720147D01*
X140873216Y-100621544D01*
X141037188Y-100553624D01*
X141186488Y-100523927D01*
X141211258Y-100519000D01*
X141388742Y-100519000D01*
X141413512Y-100523927D01*
G37*
G36*
X133073512Y-99863927D02*
G01*
X133222812Y-99893624D01*
X133386784Y-99961544D01*
X133534354Y-100060147D01*
X133659853Y-100185646D01*
X133758456Y-100333216D01*
X133826376Y-100497188D01*
X133861000Y-100671259D01*
X133861000Y-100848741D01*
X133826376Y-101022812D01*
X133758456Y-101186784D01*
X133659853Y-101334354D01*
X133534354Y-101459853D01*
X133386784Y-101558456D01*
X133222812Y-101626376D01*
X133073512Y-101656073D01*
X133048742Y-101661000D01*
X132871258Y-101661000D01*
X132846488Y-101656073D01*
X132697188Y-101626376D01*
X132533216Y-101558456D01*
X132385646Y-101459853D01*
X132260147Y-101334354D01*
X132161544Y-101186784D01*
X132093624Y-101022812D01*
X132059000Y-100848741D01*
X132059000Y-100671259D01*
X132093624Y-100497188D01*
X132161544Y-100333216D01*
X132260147Y-100185646D01*
X132385646Y-100060147D01*
X132533216Y-99961544D01*
X132697188Y-99893624D01*
X132846488Y-99863927D01*
X132871258Y-99859000D01*
X133048742Y-99859000D01*
X133073512Y-99863927D01*
G37*
G36*
X135613512Y-99863927D02*
G01*
X135762812Y-99893624D01*
X135926784Y-99961544D01*
X136074354Y-100060147D01*
X136199853Y-100185646D01*
X136298456Y-100333216D01*
X136366376Y-100497188D01*
X136401000Y-100671259D01*
X136401000Y-100848741D01*
X136366376Y-101022812D01*
X136298456Y-101186784D01*
X136199853Y-101334354D01*
X136074354Y-101459853D01*
X135926784Y-101558456D01*
X135762812Y-101626376D01*
X135613512Y-101656073D01*
X135588742Y-101661000D01*
X135411258Y-101661000D01*
X135386488Y-101656073D01*
X135237188Y-101626376D01*
X135073216Y-101558456D01*
X134925646Y-101459853D01*
X134800147Y-101334354D01*
X134701544Y-101186784D01*
X134633624Y-101022812D01*
X134599000Y-100848741D01*
X134599000Y-100671259D01*
X134633624Y-100497188D01*
X134701544Y-100333216D01*
X134800147Y-100185646D01*
X134925646Y-100060147D01*
X135073216Y-99961544D01*
X135237188Y-99893624D01*
X135386488Y-99863927D01*
X135411258Y-99859000D01*
X135588742Y-99859000D01*
X135613512Y-99863927D01*
G37*
G36*
X95813512Y-97983927D02*
G01*
X95962812Y-98013624D01*
X96126784Y-98081544D01*
X96274354Y-98180147D01*
X96399853Y-98305646D01*
X96498456Y-98453216D01*
X96566376Y-98617188D01*
X96601000Y-98791259D01*
X96601000Y-98968741D01*
X96566376Y-99142812D01*
X96498456Y-99306784D01*
X96399853Y-99454354D01*
X96274354Y-99579853D01*
X96126784Y-99678456D01*
X95962812Y-99746376D01*
X95813512Y-99776073D01*
X95788742Y-99781000D01*
X95611258Y-99781000D01*
X95586488Y-99776073D01*
X95437188Y-99746376D01*
X95273216Y-99678456D01*
X95125646Y-99579853D01*
X95000147Y-99454354D01*
X94901544Y-99306784D01*
X94833624Y-99142812D01*
X94799000Y-98968741D01*
X94799000Y-98791259D01*
X94833624Y-98617188D01*
X94901544Y-98453216D01*
X95000147Y-98305646D01*
X95125646Y-98180147D01*
X95273216Y-98081544D01*
X95437188Y-98013624D01*
X95586488Y-97983927D01*
X95611258Y-97979000D01*
X95788742Y-97979000D01*
X95813512Y-97983927D01*
G37*
G36*
X141413512Y-97983927D02*
G01*
X141562812Y-98013624D01*
X141726784Y-98081544D01*
X141874354Y-98180147D01*
X141999853Y-98305646D01*
X142098456Y-98453216D01*
X142166376Y-98617188D01*
X142201000Y-98791259D01*
X142201000Y-98968741D01*
X142166376Y-99142812D01*
X142098456Y-99306784D01*
X141999853Y-99454354D01*
X141874354Y-99579853D01*
X141726784Y-99678456D01*
X141562812Y-99746376D01*
X141413512Y-99776073D01*
X141388742Y-99781000D01*
X141211258Y-99781000D01*
X141186488Y-99776073D01*
X141037188Y-99746376D01*
X140873216Y-99678456D01*
X140725646Y-99579853D01*
X140600147Y-99454354D01*
X140501544Y-99306784D01*
X140433624Y-99142812D01*
X140399000Y-98968741D01*
X140399000Y-98791259D01*
X140433624Y-98617188D01*
X140501544Y-98453216D01*
X140600147Y-98305646D01*
X140725646Y-98180147D01*
X140873216Y-98081544D01*
X141037188Y-98013624D01*
X141186488Y-97983927D01*
X141211258Y-97979000D01*
X141388742Y-97979000D01*
X141413512Y-97983927D01*
G37*
G36*
X133073512Y-97323927D02*
G01*
X133222812Y-97353624D01*
X133386784Y-97421544D01*
X133534354Y-97520147D01*
X133659853Y-97645646D01*
X133758456Y-97793216D01*
X133826376Y-97957188D01*
X133861000Y-98131259D01*
X133861000Y-98308741D01*
X133826376Y-98482812D01*
X133758456Y-98646784D01*
X133659853Y-98794354D01*
X133534354Y-98919853D01*
X133386784Y-99018456D01*
X133222812Y-99086376D01*
X133073512Y-99116073D01*
X133048742Y-99121000D01*
X132871258Y-99121000D01*
X132846488Y-99116073D01*
X132697188Y-99086376D01*
X132533216Y-99018456D01*
X132385646Y-98919853D01*
X132260147Y-98794354D01*
X132161544Y-98646784D01*
X132093624Y-98482812D01*
X132059000Y-98308741D01*
X132059000Y-98131259D01*
X132093624Y-97957188D01*
X132161544Y-97793216D01*
X132260147Y-97645646D01*
X132385646Y-97520147D01*
X132533216Y-97421544D01*
X132697188Y-97353624D01*
X132846488Y-97323927D01*
X132871258Y-97319000D01*
X133048742Y-97319000D01*
X133073512Y-97323927D01*
G37*
G36*
X135613512Y-97323927D02*
G01*
X135762812Y-97353624D01*
X135926784Y-97421544D01*
X136074354Y-97520147D01*
X136199853Y-97645646D01*
X136298456Y-97793216D01*
X136366376Y-97957188D01*
X136401000Y-98131259D01*
X136401000Y-98308741D01*
X136366376Y-98482812D01*
X136298456Y-98646784D01*
X136199853Y-98794354D01*
X136074354Y-98919853D01*
X135926784Y-99018456D01*
X135762812Y-99086376D01*
X135613512Y-99116073D01*
X135588742Y-99121000D01*
X135411258Y-99121000D01*
X135386488Y-99116073D01*
X135237188Y-99086376D01*
X135073216Y-99018456D01*
X134925646Y-98919853D01*
X134800147Y-98794354D01*
X134701544Y-98646784D01*
X134633624Y-98482812D01*
X134599000Y-98308741D01*
X134599000Y-98131259D01*
X134633624Y-97957188D01*
X134701544Y-97793216D01*
X134800147Y-97645646D01*
X134925646Y-97520147D01*
X135073216Y-97421544D01*
X135237188Y-97353624D01*
X135386488Y-97323927D01*
X135411258Y-97319000D01*
X135588742Y-97319000D01*
X135613512Y-97323927D01*
G37*
G36*
X102956564Y-96839389D02*
G01*
X103137546Y-96914354D01*
X103147835Y-96918616D01*
X103319973Y-97033635D01*
X103466365Y-97180027D01*
X103581385Y-97352167D01*
X103660611Y-97543436D01*
X103701000Y-97746484D01*
X103701000Y-97953516D01*
X103660611Y-98156564D01*
X103650842Y-98180148D01*
X103581384Y-98347835D01*
X103466365Y-98519973D01*
X103319973Y-98666365D01*
X103147835Y-98781384D01*
X103147834Y-98781385D01*
X103147833Y-98781385D01*
X102956564Y-98860611D01*
X102753516Y-98901000D01*
X102546484Y-98901000D01*
X102343436Y-98860611D01*
X102152167Y-98781385D01*
X102152166Y-98781385D01*
X102152165Y-98781384D01*
X101980027Y-98666365D01*
X101833635Y-98519973D01*
X101718616Y-98347835D01*
X101649158Y-98180148D01*
X101639389Y-98156564D01*
X101599000Y-97953516D01*
X101599000Y-97746484D01*
X101639389Y-97543436D01*
X101718615Y-97352167D01*
X101833635Y-97180027D01*
X101980027Y-97033635D01*
X102152165Y-96918616D01*
X102162454Y-96914354D01*
X102343436Y-96839389D01*
X102546484Y-96799000D01*
X102753516Y-96799000D01*
X102956564Y-96839389D01*
G37*
G36*
X107456564Y-96839389D02*
G01*
X107637546Y-96914354D01*
X107647835Y-96918616D01*
X107819973Y-97033635D01*
X107966365Y-97180027D01*
X108081385Y-97352167D01*
X108160611Y-97543436D01*
X108201000Y-97746484D01*
X108201000Y-97953516D01*
X108160611Y-98156564D01*
X108150842Y-98180148D01*
X108081384Y-98347835D01*
X107966365Y-98519973D01*
X107819973Y-98666365D01*
X107647835Y-98781384D01*
X107647834Y-98781385D01*
X107647833Y-98781385D01*
X107456564Y-98860611D01*
X107253516Y-98901000D01*
X107046484Y-98901000D01*
X106843436Y-98860611D01*
X106652167Y-98781385D01*
X106652166Y-98781385D01*
X106652165Y-98781384D01*
X106480027Y-98666365D01*
X106333635Y-98519973D01*
X106218616Y-98347835D01*
X106149158Y-98180148D01*
X106139389Y-98156564D01*
X106099000Y-97953516D01*
X106099000Y-97746484D01*
X106139389Y-97543436D01*
X106218615Y-97352167D01*
X106333635Y-97180027D01*
X106480027Y-97033635D01*
X106652165Y-96918616D01*
X106662454Y-96914354D01*
X106843436Y-96839389D01*
X107046484Y-96799000D01*
X107253516Y-96799000D01*
X107456564Y-96839389D01*
G37*
G36*
X141413512Y-95443927D02*
G01*
X141562812Y-95473624D01*
X141726784Y-95541544D01*
X141874354Y-95640147D01*
X141999853Y-95765646D01*
X142098456Y-95913216D01*
X142166376Y-96077188D01*
X142201000Y-96251259D01*
X142201000Y-96428741D01*
X142166376Y-96602812D01*
X142098456Y-96766784D01*
X141999853Y-96914354D01*
X141874354Y-97039853D01*
X141726784Y-97138456D01*
X141562812Y-97206376D01*
X141413512Y-97236073D01*
X141388742Y-97241000D01*
X141211258Y-97241000D01*
X141186488Y-97236073D01*
X141037188Y-97206376D01*
X140873216Y-97138456D01*
X140725646Y-97039853D01*
X140600147Y-96914354D01*
X140501544Y-96766784D01*
X140433624Y-96602812D01*
X140399000Y-96428741D01*
X140399000Y-96251259D01*
X140433624Y-96077188D01*
X140501544Y-95913216D01*
X140600147Y-95765646D01*
X140725646Y-95640147D01*
X140873216Y-95541544D01*
X141037188Y-95473624D01*
X141186488Y-95443927D01*
X141211258Y-95439000D01*
X141388742Y-95439000D01*
X141413512Y-95443927D01*
G37*
G36*
X95813512Y-95443927D02*
G01*
X95962812Y-95473624D01*
X96126784Y-95541544D01*
X96274354Y-95640147D01*
X96399853Y-95765646D01*
X96498456Y-95913216D01*
X96566376Y-96077188D01*
X96601000Y-96251259D01*
X96601000Y-96428741D01*
X96566376Y-96602812D01*
X96498456Y-96766784D01*
X96399853Y-96914354D01*
X96274354Y-97039853D01*
X96126784Y-97138456D01*
X95962812Y-97206376D01*
X95813512Y-97236073D01*
X95788742Y-97241000D01*
X95611258Y-97241000D01*
X95586488Y-97236073D01*
X95437188Y-97206376D01*
X95273216Y-97138456D01*
X95125646Y-97039853D01*
X95000147Y-96914354D01*
X94901544Y-96766784D01*
X94833624Y-96602812D01*
X94799000Y-96428741D01*
X94799000Y-96251259D01*
X94833624Y-96077188D01*
X94901544Y-95913216D01*
X95000147Y-95765646D01*
X95125646Y-95640147D01*
X95273216Y-95541544D01*
X95437188Y-95473624D01*
X95586488Y-95443927D01*
X95611258Y-95439000D01*
X95788742Y-95439000D01*
X95813512Y-95443927D01*
G37*
G36*
X141413512Y-92903927D02*
G01*
X141562812Y-92933624D01*
X141726784Y-93001544D01*
X141874354Y-93100147D01*
X141999853Y-93225646D01*
X142098456Y-93373216D01*
X142166376Y-93537188D01*
X142201000Y-93711259D01*
X142201000Y-93888741D01*
X142166376Y-94062812D01*
X142098456Y-94226784D01*
X141999853Y-94374354D01*
X141874354Y-94499853D01*
X141726784Y-94598456D01*
X141562812Y-94666376D01*
X141413512Y-94696073D01*
X141388742Y-94701000D01*
X141211258Y-94701000D01*
X141186488Y-94696073D01*
X141037188Y-94666376D01*
X140873216Y-94598456D01*
X140725646Y-94499853D01*
X140600147Y-94374354D01*
X140501544Y-94226784D01*
X140433624Y-94062812D01*
X140399000Y-93888741D01*
X140399000Y-93711259D01*
X140433624Y-93537188D01*
X140501544Y-93373216D01*
X140600147Y-93225646D01*
X140725646Y-93100147D01*
X140873216Y-93001544D01*
X141037188Y-92933624D01*
X141186488Y-92903927D01*
X141211258Y-92899000D01*
X141388742Y-92899000D01*
X141413512Y-92903927D01*
G37*
G36*
X95813512Y-92903927D02*
G01*
X95962812Y-92933624D01*
X96126784Y-93001544D01*
X96274354Y-93100147D01*
X96399853Y-93225646D01*
X96498456Y-93373216D01*
X96566376Y-93537188D01*
X96601000Y-93711259D01*
X96601000Y-93888741D01*
X96566376Y-94062812D01*
X96498456Y-94226784D01*
X96399853Y-94374354D01*
X96274354Y-94499853D01*
X96126784Y-94598456D01*
X95962812Y-94666376D01*
X95813512Y-94696073D01*
X95788742Y-94701000D01*
X95611258Y-94701000D01*
X95586488Y-94696073D01*
X95437188Y-94666376D01*
X95273216Y-94598456D01*
X95125646Y-94499853D01*
X95000147Y-94374354D01*
X94901544Y-94226784D01*
X94833624Y-94062812D01*
X94799000Y-93888741D01*
X94799000Y-93711259D01*
X94833624Y-93537188D01*
X94901544Y-93373216D01*
X95000147Y-93225646D01*
X95125646Y-93100147D01*
X95273216Y-93001544D01*
X95437188Y-92933624D01*
X95586488Y-92903927D01*
X95611258Y-92899000D01*
X95788742Y-92899000D01*
X95813512Y-92903927D01*
G37*
G36*
X134313512Y-91503927D02*
G01*
X134462812Y-91533624D01*
X134626784Y-91601544D01*
X134774354Y-91700147D01*
X134899853Y-91825646D01*
X134998456Y-91973216D01*
X135066376Y-92137188D01*
X135101000Y-92311259D01*
X135101000Y-92488741D01*
X135066376Y-92662812D01*
X134998456Y-92826784D01*
X134899853Y-92974354D01*
X134774354Y-93099853D01*
X134626784Y-93198456D01*
X134462812Y-93266376D01*
X134313512Y-93296073D01*
X134288742Y-93301000D01*
X134111258Y-93301000D01*
X134086488Y-93296073D01*
X133937188Y-93266376D01*
X133773216Y-93198456D01*
X133625646Y-93099853D01*
X133500147Y-92974354D01*
X133401544Y-92826784D01*
X133333624Y-92662812D01*
X133299000Y-92488741D01*
X133299000Y-92311259D01*
X133333624Y-92137188D01*
X133401544Y-91973216D01*
X133500147Y-91825646D01*
X133625646Y-91700147D01*
X133773216Y-91601544D01*
X133937188Y-91533624D01*
X134086488Y-91503927D01*
X134111258Y-91499000D01*
X134288742Y-91499000D01*
X134313512Y-91503927D01*
G37*
G36*
X95813512Y-90363927D02*
G01*
X95962812Y-90393624D01*
X96126784Y-90461544D01*
X96274354Y-90560147D01*
X96399853Y-90685646D01*
X96498456Y-90833216D01*
X96566376Y-90997188D01*
X96601000Y-91171259D01*
X96601000Y-91348741D01*
X96566376Y-91522812D01*
X96498456Y-91686784D01*
X96399853Y-91834354D01*
X96274354Y-91959853D01*
X96126784Y-92058456D01*
X95962812Y-92126376D01*
X95813512Y-92156073D01*
X95788742Y-92161000D01*
X95611258Y-92161000D01*
X95586488Y-92156073D01*
X95437188Y-92126376D01*
X95273216Y-92058456D01*
X95125646Y-91959853D01*
X95000147Y-91834354D01*
X94901544Y-91686784D01*
X94833624Y-91522812D01*
X94799000Y-91348741D01*
X94799000Y-91171259D01*
X94833624Y-90997188D01*
X94901544Y-90833216D01*
X95000147Y-90685646D01*
X95125646Y-90560147D01*
X95273216Y-90461544D01*
X95437188Y-90393624D01*
X95586488Y-90363927D01*
X95611258Y-90359000D01*
X95788742Y-90359000D01*
X95813512Y-90363927D01*
G37*
G36*
X141413512Y-90363927D02*
G01*
X141562812Y-90393624D01*
X141726784Y-90461544D01*
X141874354Y-90560147D01*
X141999853Y-90685646D01*
X142098456Y-90833216D01*
X142166376Y-90997188D01*
X142201000Y-91171259D01*
X142201000Y-91348741D01*
X142166376Y-91522812D01*
X142098456Y-91686784D01*
X141999853Y-91834354D01*
X141874354Y-91959853D01*
X141726784Y-92058456D01*
X141562812Y-92126376D01*
X141413512Y-92156073D01*
X141388742Y-92161000D01*
X141211258Y-92161000D01*
X141186488Y-92156073D01*
X141037188Y-92126376D01*
X140873216Y-92058456D01*
X140725646Y-91959853D01*
X140600147Y-91834354D01*
X140501544Y-91686784D01*
X140433624Y-91522812D01*
X140399000Y-91348741D01*
X140399000Y-91171259D01*
X140433624Y-90997188D01*
X140501544Y-90833216D01*
X140600147Y-90685646D01*
X140725646Y-90560147D01*
X140873216Y-90461544D01*
X141037188Y-90393624D01*
X141186488Y-90363927D01*
X141211258Y-90359000D01*
X141388742Y-90359000D01*
X141413512Y-90363927D01*
G37*
G36*
X134313512Y-88963927D02*
G01*
X134462812Y-88993624D01*
X134626784Y-89061544D01*
X134774354Y-89160147D01*
X134899853Y-89285646D01*
X134998456Y-89433216D01*
X135066376Y-89597188D01*
X135101000Y-89771259D01*
X135101000Y-89948741D01*
X135066376Y-90122812D01*
X134998456Y-90286784D01*
X134899853Y-90434354D01*
X134774354Y-90559853D01*
X134626784Y-90658456D01*
X134462812Y-90726376D01*
X134313512Y-90756073D01*
X134288742Y-90761000D01*
X134111258Y-90761000D01*
X134086488Y-90756073D01*
X133937188Y-90726376D01*
X133773216Y-90658456D01*
X133625646Y-90559853D01*
X133500147Y-90434354D01*
X133401544Y-90286784D01*
X133333624Y-90122812D01*
X133299000Y-89948741D01*
X133299000Y-89771259D01*
X133333624Y-89597188D01*
X133401544Y-89433216D01*
X133500147Y-89285646D01*
X133625646Y-89160147D01*
X133773216Y-89061544D01*
X133937188Y-88993624D01*
X134086488Y-88963927D01*
X134111258Y-88959000D01*
X134288742Y-88959000D01*
X134313512Y-88963927D01*
G37*
G36*
X95813512Y-87823927D02*
G01*
X95962812Y-87853624D01*
X96126784Y-87921544D01*
X96274354Y-88020147D01*
X96399853Y-88145646D01*
X96498456Y-88293216D01*
X96566376Y-88457188D01*
X96601000Y-88631259D01*
X96601000Y-88808741D01*
X96566376Y-88982812D01*
X96498456Y-89146784D01*
X96399853Y-89294354D01*
X96274354Y-89419853D01*
X96126784Y-89518456D01*
X95962812Y-89586376D01*
X95813512Y-89616073D01*
X95788742Y-89621000D01*
X95611258Y-89621000D01*
X95586488Y-89616073D01*
X95437188Y-89586376D01*
X95273216Y-89518456D01*
X95125646Y-89419853D01*
X95000147Y-89294354D01*
X94901544Y-89146784D01*
X94833624Y-88982812D01*
X94799000Y-88808741D01*
X94799000Y-88631259D01*
X94833624Y-88457188D01*
X94901544Y-88293216D01*
X95000147Y-88145646D01*
X95125646Y-88020147D01*
X95273216Y-87921544D01*
X95437188Y-87853624D01*
X95586488Y-87823927D01*
X95611258Y-87819000D01*
X95788742Y-87819000D01*
X95813512Y-87823927D01*
G37*
G36*
X141413512Y-87823927D02*
G01*
X141562812Y-87853624D01*
X141726784Y-87921544D01*
X141874354Y-88020147D01*
X141999853Y-88145646D01*
X142098456Y-88293216D01*
X142166376Y-88457188D01*
X142201000Y-88631259D01*
X142201000Y-88808741D01*
X142166376Y-88982812D01*
X142098456Y-89146784D01*
X141999853Y-89294354D01*
X141874354Y-89419853D01*
X141726784Y-89518456D01*
X141562812Y-89586376D01*
X141413512Y-89616073D01*
X141388742Y-89621000D01*
X141211258Y-89621000D01*
X141186488Y-89616073D01*
X141037188Y-89586376D01*
X140873216Y-89518456D01*
X140725646Y-89419853D01*
X140600147Y-89294354D01*
X140501544Y-89146784D01*
X140433624Y-88982812D01*
X140399000Y-88808741D01*
X140399000Y-88631259D01*
X140433624Y-88457188D01*
X140501544Y-88293216D01*
X140600147Y-88145646D01*
X140725646Y-88020147D01*
X140873216Y-87921544D01*
X141037188Y-87853624D01*
X141186488Y-87823927D01*
X141211258Y-87819000D01*
X141388742Y-87819000D01*
X141413512Y-87823927D01*
G37*
G36*
X134313512Y-86423927D02*
G01*
X134462812Y-86453624D01*
X134626784Y-86521544D01*
X134774354Y-86620147D01*
X134899853Y-86745646D01*
X134998456Y-86893216D01*
X135066376Y-87057188D01*
X135101000Y-87231259D01*
X135101000Y-87408741D01*
X135066376Y-87582812D01*
X134998456Y-87746784D01*
X134899853Y-87894354D01*
X134774354Y-88019853D01*
X134626784Y-88118456D01*
X134462812Y-88186376D01*
X134313512Y-88216073D01*
X134288742Y-88221000D01*
X134111258Y-88221000D01*
X134086488Y-88216073D01*
X133937188Y-88186376D01*
X133773216Y-88118456D01*
X133625646Y-88019853D01*
X133500147Y-87894354D01*
X133401544Y-87746784D01*
X133333624Y-87582812D01*
X133299000Y-87408741D01*
X133299000Y-87231259D01*
X133333624Y-87057188D01*
X133401544Y-86893216D01*
X133500147Y-86745646D01*
X133625646Y-86620147D01*
X133773216Y-86521544D01*
X133937188Y-86453624D01*
X134086488Y-86423927D01*
X134111258Y-86419000D01*
X134288742Y-86419000D01*
X134313512Y-86423927D01*
G37*
G36*
X95813512Y-85283927D02*
G01*
X95962812Y-85313624D01*
X96126784Y-85381544D01*
X96274354Y-85480147D01*
X96399853Y-85605646D01*
X96498456Y-85753216D01*
X96566376Y-85917188D01*
X96601000Y-86091259D01*
X96601000Y-86268741D01*
X96566376Y-86442812D01*
X96498456Y-86606784D01*
X96399853Y-86754354D01*
X96274354Y-86879853D01*
X96126784Y-86978456D01*
X95962812Y-87046376D01*
X95813512Y-87076073D01*
X95788742Y-87081000D01*
X95611258Y-87081000D01*
X95586488Y-87076073D01*
X95437188Y-87046376D01*
X95273216Y-86978456D01*
X95125646Y-86879853D01*
X95000147Y-86754354D01*
X94901544Y-86606784D01*
X94833624Y-86442812D01*
X94799000Y-86268741D01*
X94799000Y-86091259D01*
X94833624Y-85917188D01*
X94901544Y-85753216D01*
X95000147Y-85605646D01*
X95125646Y-85480147D01*
X95273216Y-85381544D01*
X95437188Y-85313624D01*
X95586488Y-85283927D01*
X95611258Y-85279000D01*
X95788742Y-85279000D01*
X95813512Y-85283927D01*
G37*
G36*
X141413512Y-85283927D02*
G01*
X141562812Y-85313624D01*
X141726784Y-85381544D01*
X141874354Y-85480147D01*
X141999853Y-85605646D01*
X142098456Y-85753216D01*
X142166376Y-85917188D01*
X142201000Y-86091259D01*
X142201000Y-86268741D01*
X142166376Y-86442812D01*
X142098456Y-86606784D01*
X141999853Y-86754354D01*
X141874354Y-86879853D01*
X141726784Y-86978456D01*
X141562812Y-87046376D01*
X141413512Y-87076073D01*
X141388742Y-87081000D01*
X141211258Y-87081000D01*
X141186488Y-87076073D01*
X141037188Y-87046376D01*
X140873216Y-86978456D01*
X140725646Y-86879853D01*
X140600147Y-86754354D01*
X140501544Y-86606784D01*
X140433624Y-86442812D01*
X140399000Y-86268741D01*
X140399000Y-86091259D01*
X140433624Y-85917188D01*
X140501544Y-85753216D01*
X140600147Y-85605646D01*
X140725646Y-85480147D01*
X140873216Y-85381544D01*
X141037188Y-85313624D01*
X141186488Y-85283927D01*
X141211258Y-85279000D01*
X141388742Y-85279000D01*
X141413512Y-85283927D01*
G37*
G36*
X134313512Y-83883927D02*
G01*
X134462812Y-83913624D01*
X134626784Y-83981544D01*
X134774354Y-84080147D01*
X134899853Y-84205646D01*
X134998456Y-84353216D01*
X135066376Y-84517188D01*
X135101000Y-84691259D01*
X135101000Y-84868741D01*
X135066376Y-85042812D01*
X134998456Y-85206784D01*
X134899853Y-85354354D01*
X134774354Y-85479853D01*
X134626784Y-85578456D01*
X134462812Y-85646376D01*
X134313512Y-85676073D01*
X134288742Y-85681000D01*
X134111258Y-85681000D01*
X134086488Y-85676073D01*
X133937188Y-85646376D01*
X133773216Y-85578456D01*
X133625646Y-85479853D01*
X133500147Y-85354354D01*
X133401544Y-85206784D01*
X133333624Y-85042812D01*
X133299000Y-84868741D01*
X133299000Y-84691259D01*
X133333624Y-84517188D01*
X133401544Y-84353216D01*
X133500147Y-84205646D01*
X133625646Y-84080147D01*
X133773216Y-83981544D01*
X133937188Y-83913624D01*
X134086488Y-83883927D01*
X134111258Y-83879000D01*
X134288742Y-83879000D01*
X134313512Y-83883927D01*
G37*
G36*
X95813512Y-82743927D02*
G01*
X95962812Y-82773624D01*
X96126784Y-82841544D01*
X96274354Y-82940147D01*
X96399853Y-83065646D01*
X96498456Y-83213216D01*
X96566376Y-83377188D01*
X96601000Y-83551259D01*
X96601000Y-83728741D01*
X96566376Y-83902812D01*
X96498456Y-84066784D01*
X96399853Y-84214354D01*
X96274354Y-84339853D01*
X96126784Y-84438456D01*
X95962812Y-84506376D01*
X95813512Y-84536073D01*
X95788742Y-84541000D01*
X95611258Y-84541000D01*
X95586488Y-84536073D01*
X95437188Y-84506376D01*
X95273216Y-84438456D01*
X95125646Y-84339853D01*
X95000147Y-84214354D01*
X94901544Y-84066784D01*
X94833624Y-83902812D01*
X94799000Y-83728741D01*
X94799000Y-83551259D01*
X94833624Y-83377188D01*
X94901544Y-83213216D01*
X95000147Y-83065646D01*
X95125646Y-82940147D01*
X95273216Y-82841544D01*
X95437188Y-82773624D01*
X95586488Y-82743927D01*
X95611258Y-82739000D01*
X95788742Y-82739000D01*
X95813512Y-82743927D01*
G37*
G36*
X141413512Y-82743927D02*
G01*
X141562812Y-82773624D01*
X141726784Y-82841544D01*
X141874354Y-82940147D01*
X141999853Y-83065646D01*
X142098456Y-83213216D01*
X142166376Y-83377188D01*
X142201000Y-83551259D01*
X142201000Y-83728741D01*
X142166376Y-83902812D01*
X142098456Y-84066784D01*
X141999853Y-84214354D01*
X141874354Y-84339853D01*
X141726784Y-84438456D01*
X141562812Y-84506376D01*
X141413512Y-84536073D01*
X141388742Y-84541000D01*
X141211258Y-84541000D01*
X141186488Y-84536073D01*
X141037188Y-84506376D01*
X140873216Y-84438456D01*
X140725646Y-84339853D01*
X140600147Y-84214354D01*
X140501544Y-84066784D01*
X140433624Y-83902812D01*
X140399000Y-83728741D01*
X140399000Y-83551259D01*
X140433624Y-83377188D01*
X140501544Y-83213216D01*
X140600147Y-83065646D01*
X140725646Y-82940147D01*
X140873216Y-82841544D01*
X141037188Y-82773624D01*
X141186488Y-82743927D01*
X141211258Y-82739000D01*
X141388742Y-82739000D01*
X141413512Y-82743927D01*
G37*
G36*
X134313512Y-81343927D02*
G01*
X134462812Y-81373624D01*
X134626784Y-81441544D01*
X134774354Y-81540147D01*
X134899853Y-81665646D01*
X134998456Y-81813216D01*
X135066376Y-81977188D01*
X135101000Y-82151259D01*
X135101000Y-82328741D01*
X135066376Y-82502812D01*
X134998456Y-82666784D01*
X134899853Y-82814354D01*
X134774354Y-82939853D01*
X134626784Y-83038456D01*
X134462812Y-83106376D01*
X134313512Y-83136073D01*
X134288742Y-83141000D01*
X134111258Y-83141000D01*
X134086488Y-83136073D01*
X133937188Y-83106376D01*
X133773216Y-83038456D01*
X133625646Y-82939853D01*
X133500147Y-82814354D01*
X133401544Y-82666784D01*
X133333624Y-82502812D01*
X133299000Y-82328741D01*
X133299000Y-82151259D01*
X133333624Y-81977188D01*
X133401544Y-81813216D01*
X133500147Y-81665646D01*
X133625646Y-81540147D01*
X133773216Y-81441544D01*
X133937188Y-81373624D01*
X134086488Y-81343927D01*
X134111258Y-81339000D01*
X134288742Y-81339000D01*
X134313512Y-81343927D01*
G37*
G36*
X95813512Y-80203927D02*
G01*
X95962812Y-80233624D01*
X96126784Y-80301544D01*
X96274354Y-80400147D01*
X96399853Y-80525646D01*
X96498456Y-80673216D01*
X96566376Y-80837188D01*
X96601000Y-81011259D01*
X96601000Y-81188741D01*
X96566376Y-81362812D01*
X96498456Y-81526784D01*
X96399853Y-81674354D01*
X96274354Y-81799853D01*
X96126784Y-81898456D01*
X95962812Y-81966376D01*
X95813512Y-81996073D01*
X95788742Y-82001000D01*
X95611258Y-82001000D01*
X95586488Y-81996073D01*
X95437188Y-81966376D01*
X95273216Y-81898456D01*
X95125646Y-81799853D01*
X95000147Y-81674354D01*
X94901544Y-81526784D01*
X94833624Y-81362812D01*
X94799000Y-81188741D01*
X94799000Y-81011259D01*
X94833624Y-80837188D01*
X94901544Y-80673216D01*
X95000147Y-80525646D01*
X95125646Y-80400147D01*
X95273216Y-80301544D01*
X95437188Y-80233624D01*
X95586488Y-80203927D01*
X95611258Y-80199000D01*
X95788742Y-80199000D01*
X95813512Y-80203927D01*
G37*
G36*
X141413512Y-80203927D02*
G01*
X141562812Y-80233624D01*
X141726784Y-80301544D01*
X141874354Y-80400147D01*
X141999853Y-80525646D01*
X142098456Y-80673216D01*
X142166376Y-80837188D01*
X142201000Y-81011259D01*
X142201000Y-81188741D01*
X142166376Y-81362812D01*
X142098456Y-81526784D01*
X141999853Y-81674354D01*
X141874354Y-81799853D01*
X141726784Y-81898456D01*
X141562812Y-81966376D01*
X141413512Y-81996073D01*
X141388742Y-82001000D01*
X141211258Y-82001000D01*
X141186488Y-81996073D01*
X141037188Y-81966376D01*
X140873216Y-81898456D01*
X140725646Y-81799853D01*
X140600147Y-81674354D01*
X140501544Y-81526784D01*
X140433624Y-81362812D01*
X140399000Y-81188741D01*
X140399000Y-81011259D01*
X140433624Y-80837188D01*
X140501544Y-80673216D01*
X140600147Y-80525646D01*
X140725646Y-80400147D01*
X140873216Y-80301544D01*
X141037188Y-80233624D01*
X141186488Y-80203927D01*
X141211258Y-80199000D01*
X141388742Y-80199000D01*
X141413512Y-80203927D01*
G37*
G36*
X135101000Y-80601000D02*
G01*
X133299000Y-80601000D01*
X133299000Y-78799000D01*
X135101000Y-78799000D01*
X135101000Y-80601000D01*
G37*
G36*
X141413512Y-77663927D02*
G01*
X141562812Y-77693624D01*
X141726784Y-77761544D01*
X141874354Y-77860147D01*
X141999853Y-77985646D01*
X142098456Y-78133216D01*
X142166376Y-78297188D01*
X142201000Y-78471259D01*
X142201000Y-78648741D01*
X142166376Y-78822812D01*
X142098456Y-78986784D01*
X141999853Y-79134354D01*
X141874354Y-79259853D01*
X141726784Y-79358456D01*
X141562812Y-79426376D01*
X141413512Y-79456073D01*
X141388742Y-79461000D01*
X141211258Y-79461000D01*
X141186488Y-79456073D01*
X141037188Y-79426376D01*
X140873216Y-79358456D01*
X140725646Y-79259853D01*
X140600147Y-79134354D01*
X140501544Y-78986784D01*
X140433624Y-78822812D01*
X140399000Y-78648741D01*
X140399000Y-78471259D01*
X140433624Y-78297188D01*
X140501544Y-78133216D01*
X140600147Y-77985646D01*
X140725646Y-77860147D01*
X140873216Y-77761544D01*
X141037188Y-77693624D01*
X141186488Y-77663927D01*
X141211258Y-77659000D01*
X141388742Y-77659000D01*
X141413512Y-77663927D01*
G37*
G36*
X95813512Y-77663927D02*
G01*
X95962812Y-77693624D01*
X96126784Y-77761544D01*
X96274354Y-77860147D01*
X96399853Y-77985646D01*
X96498456Y-78133216D01*
X96566376Y-78297188D01*
X96601000Y-78471259D01*
X96601000Y-78648741D01*
X96566376Y-78822812D01*
X96498456Y-78986784D01*
X96399853Y-79134354D01*
X96274354Y-79259853D01*
X96126784Y-79358456D01*
X95962812Y-79426376D01*
X95813512Y-79456073D01*
X95788742Y-79461000D01*
X95611258Y-79461000D01*
X95586488Y-79456073D01*
X95437188Y-79426376D01*
X95273216Y-79358456D01*
X95125646Y-79259853D01*
X95000147Y-79134354D01*
X94901544Y-78986784D01*
X94833624Y-78822812D01*
X94799000Y-78648741D01*
X94799000Y-78471259D01*
X94833624Y-78297188D01*
X94901544Y-78133216D01*
X95000147Y-77985646D01*
X95125646Y-77860147D01*
X95273216Y-77761544D01*
X95437188Y-77693624D01*
X95586488Y-77663927D01*
X95611258Y-77659000D01*
X95788742Y-77659000D01*
X95813512Y-77663927D01*
G37*
G36*
X141413512Y-75123927D02*
G01*
X141562812Y-75153624D01*
X141726784Y-75221544D01*
X141874354Y-75320147D01*
X141999853Y-75445646D01*
X142098456Y-75593216D01*
X142166376Y-75757188D01*
X142201000Y-75931259D01*
X142201000Y-76108741D01*
X142166376Y-76282812D01*
X142098456Y-76446784D01*
X141999853Y-76594354D01*
X141874354Y-76719853D01*
X141726784Y-76818456D01*
X141562812Y-76886376D01*
X141413512Y-76916073D01*
X141388742Y-76921000D01*
X141211258Y-76921000D01*
X141186488Y-76916073D01*
X141037188Y-76886376D01*
X140873216Y-76818456D01*
X140725646Y-76719853D01*
X140600147Y-76594354D01*
X140501544Y-76446784D01*
X140433624Y-76282812D01*
X140399000Y-76108741D01*
X140399000Y-75931259D01*
X140433624Y-75757188D01*
X140501544Y-75593216D01*
X140600147Y-75445646D01*
X140725646Y-75320147D01*
X140873216Y-75221544D01*
X141037188Y-75153624D01*
X141186488Y-75123927D01*
X141211258Y-75119000D01*
X141388742Y-75119000D01*
X141413512Y-75123927D01*
G37*
G36*
X95813512Y-75123927D02*
G01*
X95962812Y-75153624D01*
X96126784Y-75221544D01*
X96274354Y-75320147D01*
X96399853Y-75445646D01*
X96498456Y-75593216D01*
X96566376Y-75757188D01*
X96601000Y-75931259D01*
X96601000Y-76108741D01*
X96566376Y-76282812D01*
X96498456Y-76446784D01*
X96399853Y-76594354D01*
X96274354Y-76719853D01*
X96126784Y-76818456D01*
X95962812Y-76886376D01*
X95813512Y-76916073D01*
X95788742Y-76921000D01*
X95611258Y-76921000D01*
X95586488Y-76916073D01*
X95437188Y-76886376D01*
X95273216Y-76818456D01*
X95125646Y-76719853D01*
X95000147Y-76594354D01*
X94901544Y-76446784D01*
X94833624Y-76282812D01*
X94799000Y-76108741D01*
X94799000Y-75931259D01*
X94833624Y-75757188D01*
X94901544Y-75593216D01*
X95000147Y-75445646D01*
X95125646Y-75320147D01*
X95273216Y-75221544D01*
X95437188Y-75153624D01*
X95586488Y-75123927D01*
X95611258Y-75119000D01*
X95788742Y-75119000D01*
X95813512Y-75123927D01*
G37*
G36*
X141413512Y-72583927D02*
G01*
X141562812Y-72613624D01*
X141726784Y-72681544D01*
X141874354Y-72780147D01*
X141999853Y-72905646D01*
X142098456Y-73053216D01*
X142166376Y-73217188D01*
X142201000Y-73391259D01*
X142201000Y-73568741D01*
X142166376Y-73742812D01*
X142098456Y-73906784D01*
X141999853Y-74054354D01*
X141874354Y-74179853D01*
X141726784Y-74278456D01*
X141562812Y-74346376D01*
X141413512Y-74376073D01*
X141388742Y-74381000D01*
X141211258Y-74381000D01*
X141186488Y-74376073D01*
X141037188Y-74346376D01*
X140873216Y-74278456D01*
X140725646Y-74179853D01*
X140600147Y-74054354D01*
X140501544Y-73906784D01*
X140433624Y-73742812D01*
X140399000Y-73568741D01*
X140399000Y-73391259D01*
X140433624Y-73217188D01*
X140501544Y-73053216D01*
X140600147Y-72905646D01*
X140725646Y-72780147D01*
X140873216Y-72681544D01*
X141037188Y-72613624D01*
X141186488Y-72583927D01*
X141211258Y-72579000D01*
X141388742Y-72579000D01*
X141413512Y-72583927D01*
G37*
G36*
X95813512Y-72583927D02*
G01*
X95962812Y-72613624D01*
X96126784Y-72681544D01*
X96274354Y-72780147D01*
X96399853Y-72905646D01*
X96498456Y-73053216D01*
X96566376Y-73217188D01*
X96601000Y-73391259D01*
X96601000Y-73568741D01*
X96566376Y-73742812D01*
X96498456Y-73906784D01*
X96399853Y-74054354D01*
X96274354Y-74179853D01*
X96126784Y-74278456D01*
X95962812Y-74346376D01*
X95813512Y-74376073D01*
X95788742Y-74381000D01*
X95611258Y-74381000D01*
X95586488Y-74376073D01*
X95437188Y-74346376D01*
X95273216Y-74278456D01*
X95125646Y-74179853D01*
X95000147Y-74054354D01*
X94901544Y-73906784D01*
X94833624Y-73742812D01*
X94799000Y-73568741D01*
X94799000Y-73391259D01*
X94833624Y-73217188D01*
X94901544Y-73053216D01*
X95000147Y-72905646D01*
X95125646Y-72780147D01*
X95273216Y-72681544D01*
X95437188Y-72613624D01*
X95586488Y-72583927D01*
X95611258Y-72579000D01*
X95788742Y-72579000D01*
X95813512Y-72583927D01*
G37*
G36*
X141413512Y-70043927D02*
G01*
X141562812Y-70073624D01*
X141726784Y-70141544D01*
X141874354Y-70240147D01*
X141999853Y-70365646D01*
X142098456Y-70513216D01*
X142166376Y-70677188D01*
X142201000Y-70851259D01*
X142201000Y-71028741D01*
X142166376Y-71202812D01*
X142098456Y-71366784D01*
X141999853Y-71514354D01*
X141874354Y-71639853D01*
X141726784Y-71738456D01*
X141562812Y-71806376D01*
X141413512Y-71836073D01*
X141388742Y-71841000D01*
X141211258Y-71841000D01*
X141186488Y-71836073D01*
X141037188Y-71806376D01*
X140873216Y-71738456D01*
X140725646Y-71639853D01*
X140600147Y-71514354D01*
X140501544Y-71366784D01*
X140433624Y-71202812D01*
X140399000Y-71028741D01*
X140399000Y-70851259D01*
X140433624Y-70677188D01*
X140501544Y-70513216D01*
X140600147Y-70365646D01*
X140725646Y-70240147D01*
X140873216Y-70141544D01*
X141037188Y-70073624D01*
X141186488Y-70043927D01*
X141211258Y-70039000D01*
X141388742Y-70039000D01*
X141413512Y-70043927D01*
G37*
G36*
X95813512Y-70043927D02*
G01*
X95962812Y-70073624D01*
X96126784Y-70141544D01*
X96274354Y-70240147D01*
X96399853Y-70365646D01*
X96498456Y-70513216D01*
X96566376Y-70677188D01*
X96601000Y-70851259D01*
X96601000Y-71028741D01*
X96566376Y-71202812D01*
X96498456Y-71366784D01*
X96399853Y-71514354D01*
X96274354Y-71639853D01*
X96126784Y-71738456D01*
X95962812Y-71806376D01*
X95813512Y-71836073D01*
X95788742Y-71841000D01*
X95611258Y-71841000D01*
X95586488Y-71836073D01*
X95437188Y-71806376D01*
X95273216Y-71738456D01*
X95125646Y-71639853D01*
X95000147Y-71514354D01*
X94901544Y-71366784D01*
X94833624Y-71202812D01*
X94799000Y-71028741D01*
X94799000Y-70851259D01*
X94833624Y-70677188D01*
X94901544Y-70513216D01*
X95000147Y-70365646D01*
X95125646Y-70240147D01*
X95273216Y-70141544D01*
X95437188Y-70073624D01*
X95586488Y-70043927D01*
X95611258Y-70039000D01*
X95788742Y-70039000D01*
X95813512Y-70043927D01*
G37*
G36*
X141413512Y-67503927D02*
G01*
X141562812Y-67533624D01*
X141726784Y-67601544D01*
X141874354Y-67700147D01*
X141999853Y-67825646D01*
X142098456Y-67973216D01*
X142166376Y-68137188D01*
X142201000Y-68311259D01*
X142201000Y-68488741D01*
X142166376Y-68662812D01*
X142098456Y-68826784D01*
X141999853Y-68974354D01*
X141874354Y-69099853D01*
X141726784Y-69198456D01*
X141562812Y-69266376D01*
X141413512Y-69296073D01*
X141388742Y-69301000D01*
X141211258Y-69301000D01*
X141186488Y-69296073D01*
X141037188Y-69266376D01*
X140873216Y-69198456D01*
X140725646Y-69099853D01*
X140600147Y-68974354D01*
X140501544Y-68826784D01*
X140433624Y-68662812D01*
X140399000Y-68488741D01*
X140399000Y-68311259D01*
X140433624Y-68137188D01*
X140501544Y-67973216D01*
X140600147Y-67825646D01*
X140725646Y-67700147D01*
X140873216Y-67601544D01*
X141037188Y-67533624D01*
X141186488Y-67503927D01*
X141211258Y-67499000D01*
X141388742Y-67499000D01*
X141413512Y-67503927D01*
G37*
G36*
X95813512Y-67503927D02*
G01*
X95962812Y-67533624D01*
X96126784Y-67601544D01*
X96274354Y-67700147D01*
X96399853Y-67825646D01*
X96498456Y-67973216D01*
X96566376Y-68137188D01*
X96601000Y-68311259D01*
X96601000Y-68488741D01*
X96566376Y-68662812D01*
X96498456Y-68826784D01*
X96399853Y-68974354D01*
X96274354Y-69099853D01*
X96126784Y-69198456D01*
X95962812Y-69266376D01*
X95813512Y-69296073D01*
X95788742Y-69301000D01*
X95611258Y-69301000D01*
X95586488Y-69296073D01*
X95437188Y-69266376D01*
X95273216Y-69198456D01*
X95125646Y-69099853D01*
X95000147Y-68974354D01*
X94901544Y-68826784D01*
X94833624Y-68662812D01*
X94799000Y-68488741D01*
X94799000Y-68311259D01*
X94833624Y-68137188D01*
X94901544Y-67973216D01*
X95000147Y-67825646D01*
X95125646Y-67700147D01*
X95273216Y-67601544D01*
X95437188Y-67533624D01*
X95586488Y-67503927D01*
X95611258Y-67499000D01*
X95788742Y-67499000D01*
X95813512Y-67503927D01*
G37*
G36*
X127453512Y-63703927D02*
G01*
X127602812Y-63733624D01*
X127766784Y-63801544D01*
X127914354Y-63900147D01*
X128039853Y-64025646D01*
X128138456Y-64173216D01*
X128206376Y-64337188D01*
X128241000Y-64511259D01*
X128241000Y-64688741D01*
X128206376Y-64862812D01*
X128138456Y-65026784D01*
X128039853Y-65174354D01*
X127914354Y-65299853D01*
X127766784Y-65398456D01*
X127602812Y-65466376D01*
X127453512Y-65496073D01*
X127428742Y-65501000D01*
X127251258Y-65501000D01*
X127226488Y-65496073D01*
X127077188Y-65466376D01*
X126913216Y-65398456D01*
X126765646Y-65299853D01*
X126640147Y-65174354D01*
X126541544Y-65026784D01*
X126473624Y-64862812D01*
X126439000Y-64688741D01*
X126439000Y-64511259D01*
X126473624Y-64337188D01*
X126541544Y-64173216D01*
X126640147Y-64025646D01*
X126765646Y-63900147D01*
X126913216Y-63801544D01*
X127077188Y-63733624D01*
X127226488Y-63703927D01*
X127251258Y-63699000D01*
X127428742Y-63699000D01*
X127453512Y-63703927D01*
G37*
G36*
X124913512Y-63703927D02*
G01*
X125062812Y-63733624D01*
X125226784Y-63801544D01*
X125374354Y-63900147D01*
X125499853Y-64025646D01*
X125598456Y-64173216D01*
X125666376Y-64337188D01*
X125701000Y-64511259D01*
X125701000Y-64688741D01*
X125666376Y-64862812D01*
X125598456Y-65026784D01*
X125499853Y-65174354D01*
X125374354Y-65299853D01*
X125226784Y-65398456D01*
X125062812Y-65466376D01*
X124913512Y-65496073D01*
X124888742Y-65501000D01*
X124711258Y-65501000D01*
X124686488Y-65496073D01*
X124537188Y-65466376D01*
X124373216Y-65398456D01*
X124225646Y-65299853D01*
X124100147Y-65174354D01*
X124001544Y-65026784D01*
X123933624Y-64862812D01*
X123899000Y-64688741D01*
X123899000Y-64511259D01*
X123933624Y-64337188D01*
X124001544Y-64173216D01*
X124100147Y-64025646D01*
X124225646Y-63900147D01*
X124373216Y-63801544D01*
X124537188Y-63733624D01*
X124686488Y-63703927D01*
X124711258Y-63699000D01*
X124888742Y-63699000D01*
X124913512Y-63703927D01*
G37*
G36*
X122373512Y-63703927D02*
G01*
X122522812Y-63733624D01*
X122686784Y-63801544D01*
X122834354Y-63900147D01*
X122959853Y-64025646D01*
X123058456Y-64173216D01*
X123126376Y-64337188D01*
X123161000Y-64511259D01*
X123161000Y-64688741D01*
X123126376Y-64862812D01*
X123058456Y-65026784D01*
X122959853Y-65174354D01*
X122834354Y-65299853D01*
X122686784Y-65398456D01*
X122522812Y-65466376D01*
X122373512Y-65496073D01*
X122348742Y-65501000D01*
X122171258Y-65501000D01*
X122146488Y-65496073D01*
X121997188Y-65466376D01*
X121833216Y-65398456D01*
X121685646Y-65299853D01*
X121560147Y-65174354D01*
X121461544Y-65026784D01*
X121393624Y-64862812D01*
X121359000Y-64688741D01*
X121359000Y-64511259D01*
X121393624Y-64337188D01*
X121461544Y-64173216D01*
X121560147Y-64025646D01*
X121685646Y-63900147D01*
X121833216Y-63801544D01*
X121997188Y-63733624D01*
X122146488Y-63703927D01*
X122171258Y-63699000D01*
X122348742Y-63699000D01*
X122373512Y-63703927D01*
G37*
G36*
X119833512Y-63703927D02*
G01*
X119982812Y-63733624D01*
X120146784Y-63801544D01*
X120294354Y-63900147D01*
X120419853Y-64025646D01*
X120518456Y-64173216D01*
X120586376Y-64337188D01*
X120621000Y-64511259D01*
X120621000Y-64688741D01*
X120586376Y-64862812D01*
X120518456Y-65026784D01*
X120419853Y-65174354D01*
X120294354Y-65299853D01*
X120146784Y-65398456D01*
X119982812Y-65466376D01*
X119833512Y-65496073D01*
X119808742Y-65501000D01*
X119631258Y-65501000D01*
X119606488Y-65496073D01*
X119457188Y-65466376D01*
X119293216Y-65398456D01*
X119145646Y-65299853D01*
X119020147Y-65174354D01*
X118921544Y-65026784D01*
X118853624Y-64862812D01*
X118819000Y-64688741D01*
X118819000Y-64511259D01*
X118853624Y-64337188D01*
X118921544Y-64173216D01*
X119020147Y-64025646D01*
X119145646Y-63900147D01*
X119293216Y-63801544D01*
X119457188Y-63733624D01*
X119606488Y-63703927D01*
X119631258Y-63699000D01*
X119808742Y-63699000D01*
X119833512Y-63703927D01*
G37*
G36*
X117293512Y-63703927D02*
G01*
X117442812Y-63733624D01*
X117606784Y-63801544D01*
X117754354Y-63900147D01*
X117879853Y-64025646D01*
X117978456Y-64173216D01*
X118046376Y-64337188D01*
X118081000Y-64511259D01*
X118081000Y-64688741D01*
X118046376Y-64862812D01*
X117978456Y-65026784D01*
X117879853Y-65174354D01*
X117754354Y-65299853D01*
X117606784Y-65398456D01*
X117442812Y-65466376D01*
X117293512Y-65496073D01*
X117268742Y-65501000D01*
X117091258Y-65501000D01*
X117066488Y-65496073D01*
X116917188Y-65466376D01*
X116753216Y-65398456D01*
X116605646Y-65299853D01*
X116480147Y-65174354D01*
X116381544Y-65026784D01*
X116313624Y-64862812D01*
X116279000Y-64688741D01*
X116279000Y-64511259D01*
X116313624Y-64337188D01*
X116381544Y-64173216D01*
X116480147Y-64025646D01*
X116605646Y-63900147D01*
X116753216Y-63801544D01*
X116917188Y-63733624D01*
X117066488Y-63703927D01*
X117091258Y-63699000D01*
X117268742Y-63699000D01*
X117293512Y-63703927D01*
G37*
G36*
X114753512Y-63703927D02*
G01*
X114902812Y-63733624D01*
X115066784Y-63801544D01*
X115214354Y-63900147D01*
X115339853Y-64025646D01*
X115438456Y-64173216D01*
X115506376Y-64337188D01*
X115541000Y-64511259D01*
X115541000Y-64688741D01*
X115506376Y-64862812D01*
X115438456Y-65026784D01*
X115339853Y-65174354D01*
X115214354Y-65299853D01*
X115066784Y-65398456D01*
X114902812Y-65466376D01*
X114753512Y-65496073D01*
X114728742Y-65501000D01*
X114551258Y-65501000D01*
X114526488Y-65496073D01*
X114377188Y-65466376D01*
X114213216Y-65398456D01*
X114065646Y-65299853D01*
X113940147Y-65174354D01*
X113841544Y-65026784D01*
X113773624Y-64862812D01*
X113739000Y-64688741D01*
X113739000Y-64511259D01*
X113773624Y-64337188D01*
X113841544Y-64173216D01*
X113940147Y-64025646D01*
X114065646Y-63900147D01*
X114213216Y-63801544D01*
X114377188Y-63733624D01*
X114526488Y-63703927D01*
X114551258Y-63699000D01*
X114728742Y-63699000D01*
X114753512Y-63703927D01*
G37*
G36*
X112213512Y-63703927D02*
G01*
X112362812Y-63733624D01*
X112526784Y-63801544D01*
X112674354Y-63900147D01*
X112799853Y-64025646D01*
X112898456Y-64173216D01*
X112966376Y-64337188D01*
X113001000Y-64511259D01*
X113001000Y-64688741D01*
X112966376Y-64862812D01*
X112898456Y-65026784D01*
X112799853Y-65174354D01*
X112674354Y-65299853D01*
X112526784Y-65398456D01*
X112362812Y-65466376D01*
X112213512Y-65496073D01*
X112188742Y-65501000D01*
X112011258Y-65501000D01*
X111986488Y-65496073D01*
X111837188Y-65466376D01*
X111673216Y-65398456D01*
X111525646Y-65299853D01*
X111400147Y-65174354D01*
X111301544Y-65026784D01*
X111233624Y-64862812D01*
X111199000Y-64688741D01*
X111199000Y-64511259D01*
X111233624Y-64337188D01*
X111301544Y-64173216D01*
X111400147Y-64025646D01*
X111525646Y-63900147D01*
X111673216Y-63801544D01*
X111837188Y-63733624D01*
X111986488Y-63703927D01*
X112011258Y-63699000D01*
X112188742Y-63699000D01*
X112213512Y-63703927D01*
G37*
G36*
X109673512Y-63703927D02*
G01*
X109822812Y-63733624D01*
X109986784Y-63801544D01*
X110134354Y-63900147D01*
X110259853Y-64025646D01*
X110358456Y-64173216D01*
X110426376Y-64337188D01*
X110461000Y-64511259D01*
X110461000Y-64688741D01*
X110426376Y-64862812D01*
X110358456Y-65026784D01*
X110259853Y-65174354D01*
X110134354Y-65299853D01*
X109986784Y-65398456D01*
X109822812Y-65466376D01*
X109673512Y-65496073D01*
X109648742Y-65501000D01*
X109471258Y-65501000D01*
X109446488Y-65496073D01*
X109297188Y-65466376D01*
X109133216Y-65398456D01*
X108985646Y-65299853D01*
X108860147Y-65174354D01*
X108761544Y-65026784D01*
X108693624Y-64862812D01*
X108659000Y-64688741D01*
X108659000Y-64511259D01*
X108693624Y-64337188D01*
X108761544Y-64173216D01*
X108860147Y-64025646D01*
X108985646Y-63900147D01*
X109133216Y-63801544D01*
X109297188Y-63733624D01*
X109446488Y-63703927D01*
X109471258Y-63699000D01*
X109648742Y-63699000D01*
X109673512Y-63703927D01*
G37*
G36*
X107133512Y-63703927D02*
G01*
X107282812Y-63733624D01*
X107446784Y-63801544D01*
X107594354Y-63900147D01*
X107719853Y-64025646D01*
X107818456Y-64173216D01*
X107886376Y-64337188D01*
X107921000Y-64511259D01*
X107921000Y-64688741D01*
X107886376Y-64862812D01*
X107818456Y-65026784D01*
X107719853Y-65174354D01*
X107594354Y-65299853D01*
X107446784Y-65398456D01*
X107282812Y-65466376D01*
X107133512Y-65496073D01*
X107108742Y-65501000D01*
X106931258Y-65501000D01*
X106906488Y-65496073D01*
X106757188Y-65466376D01*
X106593216Y-65398456D01*
X106445646Y-65299853D01*
X106320147Y-65174354D01*
X106221544Y-65026784D01*
X106153624Y-64862812D01*
X106119000Y-64688741D01*
X106119000Y-64511259D01*
X106153624Y-64337188D01*
X106221544Y-64173216D01*
X106320147Y-64025646D01*
X106445646Y-63900147D01*
X106593216Y-63801544D01*
X106757188Y-63733624D01*
X106906488Y-63703927D01*
X106931258Y-63699000D01*
X107108742Y-63699000D01*
X107133512Y-63703927D01*
G37*
G36*
X104593512Y-63703927D02*
G01*
X104742812Y-63733624D01*
X104906784Y-63801544D01*
X105054354Y-63900147D01*
X105179853Y-64025646D01*
X105278456Y-64173216D01*
X105346376Y-64337188D01*
X105381000Y-64511259D01*
X105381000Y-64688741D01*
X105346376Y-64862812D01*
X105278456Y-65026784D01*
X105179853Y-65174354D01*
X105054354Y-65299853D01*
X104906784Y-65398456D01*
X104742812Y-65466376D01*
X104593512Y-65496073D01*
X104568742Y-65501000D01*
X104391258Y-65501000D01*
X104366488Y-65496073D01*
X104217188Y-65466376D01*
X104053216Y-65398456D01*
X103905646Y-65299853D01*
X103780147Y-65174354D01*
X103681544Y-65026784D01*
X103613624Y-64862812D01*
X103579000Y-64688741D01*
X103579000Y-64511259D01*
X103613624Y-64337188D01*
X103681544Y-64173216D01*
X103780147Y-64025646D01*
X103905646Y-63900147D01*
X104053216Y-63801544D01*
X104217188Y-63733624D01*
X104366488Y-63703927D01*
X104391258Y-63699000D01*
X104568742Y-63699000D01*
X104593512Y-63703927D01*
G37*
G36*
X102053512Y-63703927D02*
G01*
X102202812Y-63733624D01*
X102366784Y-63801544D01*
X102514354Y-63900147D01*
X102639853Y-64025646D01*
X102738456Y-64173216D01*
X102806376Y-64337188D01*
X102841000Y-64511259D01*
X102841000Y-64688741D01*
X102806376Y-64862812D01*
X102738456Y-65026784D01*
X102639853Y-65174354D01*
X102514354Y-65299853D01*
X102366784Y-65398456D01*
X102202812Y-65466376D01*
X102053512Y-65496073D01*
X102028742Y-65501000D01*
X101851258Y-65501000D01*
X101826488Y-65496073D01*
X101677188Y-65466376D01*
X101513216Y-65398456D01*
X101365646Y-65299853D01*
X101240147Y-65174354D01*
X101141544Y-65026784D01*
X101073624Y-64862812D01*
X101039000Y-64688741D01*
X101039000Y-64511259D01*
X101073624Y-64337188D01*
X101141544Y-64173216D01*
X101240147Y-64025646D01*
X101365646Y-63900147D01*
X101513216Y-63801544D01*
X101677188Y-63733624D01*
X101826488Y-63703927D01*
X101851258Y-63699000D01*
X102028742Y-63699000D01*
X102053512Y-63703927D01*
G37*
G36*
X99513512Y-63703927D02*
G01*
X99662812Y-63733624D01*
X99826784Y-63801544D01*
X99974354Y-63900147D01*
X100099853Y-64025646D01*
X100198456Y-64173216D01*
X100266376Y-64337188D01*
X100301000Y-64511259D01*
X100301000Y-64688741D01*
X100266376Y-64862812D01*
X100198456Y-65026784D01*
X100099853Y-65174354D01*
X99974354Y-65299853D01*
X99826784Y-65398456D01*
X99662812Y-65466376D01*
X99513512Y-65496073D01*
X99488742Y-65501000D01*
X99311258Y-65501000D01*
X99286488Y-65496073D01*
X99137188Y-65466376D01*
X98973216Y-65398456D01*
X98825646Y-65299853D01*
X98700147Y-65174354D01*
X98601544Y-65026784D01*
X98533624Y-64862812D01*
X98499000Y-64688741D01*
X98499000Y-64511259D01*
X98533624Y-64337188D01*
X98601544Y-64173216D01*
X98700147Y-64025646D01*
X98825646Y-63900147D01*
X98973216Y-63801544D01*
X99137188Y-63733624D01*
X99286488Y-63703927D01*
X99311258Y-63699000D01*
X99488742Y-63699000D01*
X99513512Y-63703927D01*
G37*
G36*
X137613512Y-63703927D02*
G01*
X137762812Y-63733624D01*
X137926784Y-63801544D01*
X138074354Y-63900147D01*
X138199853Y-64025646D01*
X138298456Y-64173216D01*
X138366376Y-64337188D01*
X138401000Y-64511259D01*
X138401000Y-64688741D01*
X138366376Y-64862812D01*
X138298456Y-65026784D01*
X138199853Y-65174354D01*
X138074354Y-65299853D01*
X137926784Y-65398456D01*
X137762812Y-65466376D01*
X137613512Y-65496073D01*
X137588742Y-65501000D01*
X137411258Y-65501000D01*
X137386488Y-65496073D01*
X137237188Y-65466376D01*
X137073216Y-65398456D01*
X136925646Y-65299853D01*
X136800147Y-65174354D01*
X136701544Y-65026784D01*
X136633624Y-64862812D01*
X136599000Y-64688741D01*
X136599000Y-64511259D01*
X136633624Y-64337188D01*
X136701544Y-64173216D01*
X136800147Y-64025646D01*
X136925646Y-63900147D01*
X137073216Y-63801544D01*
X137237188Y-63733624D01*
X137386488Y-63703927D01*
X137411258Y-63699000D01*
X137588742Y-63699000D01*
X137613512Y-63703927D01*
G37*
G36*
X129993512Y-63703927D02*
G01*
X130142812Y-63733624D01*
X130306784Y-63801544D01*
X130454354Y-63900147D01*
X130579853Y-64025646D01*
X130678456Y-64173216D01*
X130746376Y-64337188D01*
X130781000Y-64511259D01*
X130781000Y-64688741D01*
X130746376Y-64862812D01*
X130678456Y-65026784D01*
X130579853Y-65174354D01*
X130454354Y-65299853D01*
X130306784Y-65398456D01*
X130142812Y-65466376D01*
X129993512Y-65496073D01*
X129968742Y-65501000D01*
X129791258Y-65501000D01*
X129766488Y-65496073D01*
X129617188Y-65466376D01*
X129453216Y-65398456D01*
X129305646Y-65299853D01*
X129180147Y-65174354D01*
X129081544Y-65026784D01*
X129013624Y-64862812D01*
X128979000Y-64688741D01*
X128979000Y-64511259D01*
X129013624Y-64337188D01*
X129081544Y-64173216D01*
X129180147Y-64025646D01*
X129305646Y-63900147D01*
X129453216Y-63801544D01*
X129617188Y-63733624D01*
X129766488Y-63703927D01*
X129791258Y-63699000D01*
X129968742Y-63699000D01*
X129993512Y-63703927D01*
G37*
G36*
X132533512Y-63703927D02*
G01*
X132682812Y-63733624D01*
X132846784Y-63801544D01*
X132994354Y-63900147D01*
X133119853Y-64025646D01*
X133218456Y-64173216D01*
X133286376Y-64337188D01*
X133321000Y-64511259D01*
X133321000Y-64688741D01*
X133286376Y-64862812D01*
X133218456Y-65026784D01*
X133119853Y-65174354D01*
X132994354Y-65299853D01*
X132846784Y-65398456D01*
X132682812Y-65466376D01*
X132533512Y-65496073D01*
X132508742Y-65501000D01*
X132331258Y-65501000D01*
X132306488Y-65496073D01*
X132157188Y-65466376D01*
X131993216Y-65398456D01*
X131845646Y-65299853D01*
X131720147Y-65174354D01*
X131621544Y-65026784D01*
X131553624Y-64862812D01*
X131519000Y-64688741D01*
X131519000Y-64511259D01*
X131553624Y-64337188D01*
X131621544Y-64173216D01*
X131720147Y-64025646D01*
X131845646Y-63900147D01*
X131993216Y-63801544D01*
X132157188Y-63733624D01*
X132306488Y-63703927D01*
X132331258Y-63699000D01*
X132508742Y-63699000D01*
X132533512Y-63703927D01*
G37*
G36*
X135073512Y-63703927D02*
G01*
X135222812Y-63733624D01*
X135386784Y-63801544D01*
X135534354Y-63900147D01*
X135659853Y-64025646D01*
X135758456Y-64173216D01*
X135826376Y-64337188D01*
X135861000Y-64511259D01*
X135861000Y-64688741D01*
X135826376Y-64862812D01*
X135758456Y-65026784D01*
X135659853Y-65174354D01*
X135534354Y-65299853D01*
X135386784Y-65398456D01*
X135222812Y-65466376D01*
X135073512Y-65496073D01*
X135048742Y-65501000D01*
X134871258Y-65501000D01*
X134846488Y-65496073D01*
X134697188Y-65466376D01*
X134533216Y-65398456D01*
X134385646Y-65299853D01*
X134260147Y-65174354D01*
X134161544Y-65026784D01*
X134093624Y-64862812D01*
X134059000Y-64688741D01*
X134059000Y-64511259D01*
X134093624Y-64337188D01*
X134161544Y-64173216D01*
X134260147Y-64025646D01*
X134385646Y-63900147D01*
X134533216Y-63801544D01*
X134697188Y-63733624D01*
X134846488Y-63703927D01*
X134871258Y-63699000D01*
X135048742Y-63699000D01*
X135073512Y-63703927D01*
G37*
M02*
