M48
; DRILL file {KiCad (5.1.5-0-10_14)} date 2020 November 09, Monday 16:06:42
; FORMAT={-:-/ absolute / inch / decimal}
; #@! TF.CreationDate,2020-11-09T16:06:42+01:00
; #@! TF.GenerationSoftware,Kicad,Pcbnew,(5.1.5-0-10_14)
FMAT,2
INCH
T1C0.0157
T2C0.0394
T3C0.0433
%
G90
G05
T1
X3.937Y-3.9441
X3.937Y-4.1425
X3.9626Y-2.774
X4.0933Y-3.6413
X4.0984Y-4.189
X4.1116Y-3.3061
X4.113Y-3.9594
X4.1476Y-2.7067
X4.2659Y-3.3923
X4.2673Y-4.1929
X4.2776Y-2.7205
X4.3015Y-3.469
X4.3589Y-3.7485
X4.3594Y-2.9598
X4.376Y-2.7665
X4.44Y-4.17
X4.47Y-3.33
X4.48Y-3.62
X4.4929Y-2.9104
X4.4961Y-3.1918
X4.5104Y-3.8218
X4.65Y-2.74
X4.66Y-3.5
X4.6732Y-2.874
X4.685Y-3.1912
X4.74Y-4.18
X4.746Y-3.0774
X4.7656Y-3.1923
X4.7886Y-3.3014
X4.8Y-3.58
X4.9139Y-2.9419
X4.9188Y-3.3911
X5.0216Y-3.8118
X5.0981Y-3.6723
X5.1233Y-3.5505
X5.218Y-2.7942
X5.42Y-3.92
X5.43Y-4.0
X5.4354Y-3.6465
X5.4362Y-3.4894
T2
X3.9173Y-4.3425
X4.0173Y-4.3425
X4.1173Y-4.3425
X4.2173Y-4.3425
X4.3173Y-4.3425
X4.4173Y-4.3425
X4.5173Y-4.3425
X4.6173Y-4.3425
X4.7173Y-4.3425
X4.8173Y-4.3425
X4.9173Y-4.3425
X5.0173Y-4.3425
X5.1173Y-4.3425
X5.2173Y-4.3425
X5.3173Y-4.3425
X5.4173Y-4.3425
X3.9134Y-2.5433
X4.0134Y-2.5433
X4.1134Y-2.5433
X4.2134Y-2.5433
X4.3134Y-2.5433
X4.4134Y-2.5433
X4.5134Y-2.5433
X4.6134Y-2.5433
X4.7134Y-2.5433
X4.8134Y-2.5433
X4.9134Y-2.5433
X5.0134Y-2.5433
X5.1134Y-2.5433
X5.2134Y-2.5433
X5.3134Y-2.5433
X5.4134Y-2.5433
X5.2346Y-3.8669
X5.2346Y-3.9669
X5.2346Y-4.0669
X5.3346Y-3.8669
X5.3346Y-3.9669
X5.3346Y-4.0669
X5.2835Y-3.1378
X5.2835Y-3.2378
X5.2835Y-3.3378
X5.2835Y-3.4378
X5.2835Y-3.5378
X5.2835Y-3.6378
X5.563Y-2.6929
X5.563Y-2.7929
X5.563Y-2.8929
X5.563Y-2.9929
X5.563Y-3.0929
X5.563Y-3.1929
X5.563Y-3.2929
X5.563Y-3.3929
X5.563Y-3.4929
X5.563Y-3.5929
X5.563Y-3.6929
X5.563Y-3.7929
X5.563Y-3.8929
X5.563Y-3.9929
X5.563Y-4.0929
X5.563Y-4.1929
X3.7677Y-2.6929
X3.7677Y-2.7929
X3.7677Y-2.8929
X3.7677Y-2.9929
X3.7677Y-3.0929
X3.7677Y-3.1929
X3.7677Y-3.2929
X3.7677Y-3.3929
X3.7677Y-3.4929
X3.7677Y-3.5929
X3.7677Y-3.6929
X3.7677Y-3.7929
X3.7677Y-3.8929
X3.7677Y-3.9929
X3.7677Y-4.0929
X3.7677Y-4.1929
T3
X4.0413Y-3.8524
X4.0413Y-4.1083
X4.2185Y-3.8524
X4.2185Y-4.1083
T0
M30
