G04 #@! TF.GenerationSoftware,KiCad,Pcbnew,(5.1.5-0-10_14)*
G04 #@! TF.CreationDate,2020-11-09T16:06:39+01:00*
G04 #@! TF.ProjectId,ATmega128_Breakout_Board,41546d65-6761-4313-9238-5f427265616b,rev?*
G04 #@! TF.SameCoordinates,Original*
G04 #@! TF.FileFunction,Copper,L1,Top*
G04 #@! TF.FilePolarity,Positive*
%FSLAX46Y46*%
G04 Gerber Fmt 4.6, Leading zero omitted, Abs format (unit mm)*
G04 Created by KiCad (PCBNEW (5.1.5-0-10_14)) date 2020-11-09 16:06:39*
%MOMM*%
%LPD*%
G04 APERTURE LIST*
%ADD10C,2.000000*%
%ADD11C,0.100000*%
%ADD12R,3.300000X1.540000*%
%ADD13O,1.700000X1.700000*%
%ADD14R,0.550000X1.500000*%
%ADD15R,1.500000X0.550000*%
%ADD16R,1.700000X1.700000*%
%ADD17C,0.800000*%
%ADD18C,0.250000*%
%ADD19C,0.254000*%
G04 APERTURE END LIST*
D10*
X102650000Y-97850000D03*
X107150000Y-97850000D03*
X102650000Y-104350000D03*
X107150000Y-104350000D03*
G04 #@! TA.AperFunction,SMDPad,CuDef*
D11*
G36*
X102899504Y-71426204D02*
G01*
X102923773Y-71429804D01*
X102947571Y-71435765D01*
X102970671Y-71444030D01*
X102992849Y-71454520D01*
X103013893Y-71467133D01*
X103033598Y-71481747D01*
X103051777Y-71498223D01*
X103068253Y-71516402D01*
X103082867Y-71536107D01*
X103095480Y-71557151D01*
X103105970Y-71579329D01*
X103114235Y-71602429D01*
X103120196Y-71626227D01*
X103123796Y-71650496D01*
X103125000Y-71675000D01*
X103125000Y-73525000D01*
X103123796Y-73549504D01*
X103120196Y-73573773D01*
X103114235Y-73597571D01*
X103105970Y-73620671D01*
X103095480Y-73642849D01*
X103082867Y-73663893D01*
X103068253Y-73683598D01*
X103051777Y-73701777D01*
X103033598Y-73718253D01*
X103013893Y-73732867D01*
X102992849Y-73745480D01*
X102970671Y-73755970D01*
X102947571Y-73764235D01*
X102923773Y-73770196D01*
X102899504Y-73773796D01*
X102875000Y-73775000D01*
X101875000Y-73775000D01*
X101850496Y-73773796D01*
X101826227Y-73770196D01*
X101802429Y-73764235D01*
X101779329Y-73755970D01*
X101757151Y-73745480D01*
X101736107Y-73732867D01*
X101716402Y-73718253D01*
X101698223Y-73701777D01*
X101681747Y-73683598D01*
X101667133Y-73663893D01*
X101654520Y-73642849D01*
X101644030Y-73620671D01*
X101635765Y-73597571D01*
X101629804Y-73573773D01*
X101626204Y-73549504D01*
X101625000Y-73525000D01*
X101625000Y-71675000D01*
X101626204Y-71650496D01*
X101629804Y-71626227D01*
X101635765Y-71602429D01*
X101644030Y-71579329D01*
X101654520Y-71557151D01*
X101667133Y-71536107D01*
X101681747Y-71516402D01*
X101698223Y-71498223D01*
X101716402Y-71481747D01*
X101736107Y-71467133D01*
X101757151Y-71454520D01*
X101779329Y-71444030D01*
X101802429Y-71435765D01*
X101826227Y-71429804D01*
X101850496Y-71426204D01*
X101875000Y-71425000D01*
X102875000Y-71425000D01*
X102899504Y-71426204D01*
G37*
G04 #@! TD.AperFunction*
G04 #@! TA.AperFunction,SMDPad,CuDef*
G36*
X106149504Y-71426204D02*
G01*
X106173773Y-71429804D01*
X106197571Y-71435765D01*
X106220671Y-71444030D01*
X106242849Y-71454520D01*
X106263893Y-71467133D01*
X106283598Y-71481747D01*
X106301777Y-71498223D01*
X106318253Y-71516402D01*
X106332867Y-71536107D01*
X106345480Y-71557151D01*
X106355970Y-71579329D01*
X106364235Y-71602429D01*
X106370196Y-71626227D01*
X106373796Y-71650496D01*
X106375000Y-71675000D01*
X106375000Y-73525000D01*
X106373796Y-73549504D01*
X106370196Y-73573773D01*
X106364235Y-73597571D01*
X106355970Y-73620671D01*
X106345480Y-73642849D01*
X106332867Y-73663893D01*
X106318253Y-73683598D01*
X106301777Y-73701777D01*
X106283598Y-73718253D01*
X106263893Y-73732867D01*
X106242849Y-73745480D01*
X106220671Y-73755970D01*
X106197571Y-73764235D01*
X106173773Y-73770196D01*
X106149504Y-73773796D01*
X106125000Y-73775000D01*
X105125000Y-73775000D01*
X105100496Y-73773796D01*
X105076227Y-73770196D01*
X105052429Y-73764235D01*
X105029329Y-73755970D01*
X105007151Y-73745480D01*
X104986107Y-73732867D01*
X104966402Y-73718253D01*
X104948223Y-73701777D01*
X104931747Y-73683598D01*
X104917133Y-73663893D01*
X104904520Y-73642849D01*
X104894030Y-73620671D01*
X104885765Y-73597571D01*
X104879804Y-73573773D01*
X104876204Y-73549504D01*
X104875000Y-73525000D01*
X104875000Y-71675000D01*
X104876204Y-71650496D01*
X104879804Y-71626227D01*
X104885765Y-71602429D01*
X104894030Y-71579329D01*
X104904520Y-71557151D01*
X104917133Y-71536107D01*
X104931747Y-71516402D01*
X104948223Y-71498223D01*
X104966402Y-71481747D01*
X104986107Y-71467133D01*
X105007151Y-71454520D01*
X105029329Y-71444030D01*
X105052429Y-71435765D01*
X105076227Y-71429804D01*
X105100496Y-71426204D01*
X105125000Y-71425000D01*
X106125000Y-71425000D01*
X106149504Y-71426204D01*
G37*
G04 #@! TD.AperFunction*
G04 #@! TA.AperFunction,SMDPad,CuDef*
G36*
X117124505Y-97401204D02*
G01*
X117148773Y-97404804D01*
X117172572Y-97410765D01*
X117195671Y-97419030D01*
X117217850Y-97429520D01*
X117238893Y-97442132D01*
X117258599Y-97456747D01*
X117276777Y-97473223D01*
X117293253Y-97491401D01*
X117307868Y-97511107D01*
X117320480Y-97532150D01*
X117330970Y-97554329D01*
X117339235Y-97577428D01*
X117345196Y-97601227D01*
X117348796Y-97625495D01*
X117350000Y-97649999D01*
X117350000Y-98550001D01*
X117348796Y-98574505D01*
X117345196Y-98598773D01*
X117339235Y-98622572D01*
X117330970Y-98645671D01*
X117320480Y-98667850D01*
X117307868Y-98688893D01*
X117293253Y-98708599D01*
X117276777Y-98726777D01*
X117258599Y-98743253D01*
X117238893Y-98757868D01*
X117217850Y-98770480D01*
X117195671Y-98780970D01*
X117172572Y-98789235D01*
X117148773Y-98795196D01*
X117124505Y-98798796D01*
X117100001Y-98800000D01*
X116449999Y-98800000D01*
X116425495Y-98798796D01*
X116401227Y-98795196D01*
X116377428Y-98789235D01*
X116354329Y-98780970D01*
X116332150Y-98770480D01*
X116311107Y-98757868D01*
X116291401Y-98743253D01*
X116273223Y-98726777D01*
X116256747Y-98708599D01*
X116242132Y-98688893D01*
X116229520Y-98667850D01*
X116219030Y-98645671D01*
X116210765Y-98622572D01*
X116204804Y-98598773D01*
X116201204Y-98574505D01*
X116200000Y-98550001D01*
X116200000Y-97649999D01*
X116201204Y-97625495D01*
X116204804Y-97601227D01*
X116210765Y-97577428D01*
X116219030Y-97554329D01*
X116229520Y-97532150D01*
X116242132Y-97511107D01*
X116256747Y-97491401D01*
X116273223Y-97473223D01*
X116291401Y-97456747D01*
X116311107Y-97442132D01*
X116332150Y-97429520D01*
X116354329Y-97419030D01*
X116377428Y-97410765D01*
X116401227Y-97404804D01*
X116425495Y-97401204D01*
X116449999Y-97400000D01*
X117100001Y-97400000D01*
X117124505Y-97401204D01*
G37*
G04 #@! TD.AperFunction*
G04 #@! TA.AperFunction,SMDPad,CuDef*
G36*
X119174505Y-97401204D02*
G01*
X119198773Y-97404804D01*
X119222572Y-97410765D01*
X119245671Y-97419030D01*
X119267850Y-97429520D01*
X119288893Y-97442132D01*
X119308599Y-97456747D01*
X119326777Y-97473223D01*
X119343253Y-97491401D01*
X119357868Y-97511107D01*
X119370480Y-97532150D01*
X119380970Y-97554329D01*
X119389235Y-97577428D01*
X119395196Y-97601227D01*
X119398796Y-97625495D01*
X119400000Y-97649999D01*
X119400000Y-98550001D01*
X119398796Y-98574505D01*
X119395196Y-98598773D01*
X119389235Y-98622572D01*
X119380970Y-98645671D01*
X119370480Y-98667850D01*
X119357868Y-98688893D01*
X119343253Y-98708599D01*
X119326777Y-98726777D01*
X119308599Y-98743253D01*
X119288893Y-98757868D01*
X119267850Y-98770480D01*
X119245671Y-98780970D01*
X119222572Y-98789235D01*
X119198773Y-98795196D01*
X119174505Y-98798796D01*
X119150001Y-98800000D01*
X118499999Y-98800000D01*
X118475495Y-98798796D01*
X118451227Y-98795196D01*
X118427428Y-98789235D01*
X118404329Y-98780970D01*
X118382150Y-98770480D01*
X118361107Y-98757868D01*
X118341401Y-98743253D01*
X118323223Y-98726777D01*
X118306747Y-98708599D01*
X118292132Y-98688893D01*
X118279520Y-98667850D01*
X118269030Y-98645671D01*
X118260765Y-98622572D01*
X118254804Y-98598773D01*
X118251204Y-98574505D01*
X118250000Y-98550001D01*
X118250000Y-97649999D01*
X118251204Y-97625495D01*
X118254804Y-97601227D01*
X118260765Y-97577428D01*
X118269030Y-97554329D01*
X118279520Y-97532150D01*
X118292132Y-97511107D01*
X118306747Y-97491401D01*
X118323223Y-97473223D01*
X118341401Y-97456747D01*
X118361107Y-97442132D01*
X118382150Y-97429520D01*
X118404329Y-97419030D01*
X118427428Y-97410765D01*
X118451227Y-97404804D01*
X118475495Y-97401204D01*
X118499999Y-97400000D01*
X119150001Y-97400000D01*
X119174505Y-97401204D01*
G37*
G04 #@! TD.AperFunction*
D12*
X121800000Y-103620000D03*
X114400000Y-103620000D03*
X114400000Y-100980000D03*
X121800000Y-100980000D03*
D13*
X99400000Y-64600000D03*
X101940000Y-64600000D03*
X104480000Y-64600000D03*
X107020000Y-64600000D03*
X109560000Y-64600000D03*
X112100000Y-64600000D03*
X114640000Y-64600000D03*
X117180000Y-64600000D03*
X119720000Y-64600000D03*
X122260000Y-64600000D03*
X124800000Y-64600000D03*
X127340000Y-64600000D03*
X129880000Y-64600000D03*
X132420000Y-64600000D03*
X134960000Y-64600000D03*
X137500000Y-64600000D03*
X141300000Y-68400000D03*
X141300000Y-70940000D03*
X141300000Y-73480000D03*
X141300000Y-76020000D03*
X141300000Y-78560000D03*
X141300000Y-81100000D03*
X141300000Y-83640000D03*
X141300000Y-86180000D03*
X141300000Y-88720000D03*
X141300000Y-91260000D03*
X141300000Y-93800000D03*
X141300000Y-96340000D03*
X141300000Y-98880000D03*
X141300000Y-101420000D03*
X141300000Y-103960000D03*
X141300000Y-106500000D03*
X137600000Y-110300000D03*
X135060000Y-110300000D03*
X132520000Y-110300000D03*
X129980000Y-110300000D03*
X127440000Y-110300000D03*
X124900000Y-110300000D03*
X122360000Y-110300000D03*
X119820000Y-110300000D03*
X117280000Y-110300000D03*
X114740000Y-110300000D03*
X112200000Y-110300000D03*
X109660000Y-110300000D03*
X107120000Y-110300000D03*
X104580000Y-110300000D03*
X102040000Y-110300000D03*
X99500000Y-110300000D03*
X95700000Y-106500000D03*
X95700000Y-103960000D03*
X95700000Y-101420000D03*
X95700000Y-98880000D03*
X95700000Y-96340000D03*
X95700000Y-93800000D03*
X95700000Y-91260000D03*
X95700000Y-88720000D03*
X95700000Y-86180000D03*
X95700000Y-83640000D03*
X95700000Y-81100000D03*
X95700000Y-78560000D03*
X95700000Y-76020000D03*
X95700000Y-73480000D03*
X95700000Y-70940000D03*
X95700000Y-68400000D03*
G04 #@! TA.AperFunction,SMDPad,CuDef*
D11*
G36*
X111874505Y-99251204D02*
G01*
X111898773Y-99254804D01*
X111922572Y-99260765D01*
X111945671Y-99269030D01*
X111967850Y-99279520D01*
X111988893Y-99292132D01*
X112008599Y-99306747D01*
X112026777Y-99323223D01*
X112043253Y-99341401D01*
X112057868Y-99361107D01*
X112070480Y-99382150D01*
X112080970Y-99404329D01*
X112089235Y-99427428D01*
X112095196Y-99451227D01*
X112098796Y-99475495D01*
X112100000Y-99499999D01*
X112100000Y-100150001D01*
X112098796Y-100174505D01*
X112095196Y-100198773D01*
X112089235Y-100222572D01*
X112080970Y-100245671D01*
X112070480Y-100267850D01*
X112057868Y-100288893D01*
X112043253Y-100308599D01*
X112026777Y-100326777D01*
X112008599Y-100343253D01*
X111988893Y-100357868D01*
X111967850Y-100370480D01*
X111945671Y-100380970D01*
X111922572Y-100389235D01*
X111898773Y-100395196D01*
X111874505Y-100398796D01*
X111850001Y-100400000D01*
X110949999Y-100400000D01*
X110925495Y-100398796D01*
X110901227Y-100395196D01*
X110877428Y-100389235D01*
X110854329Y-100380970D01*
X110832150Y-100370480D01*
X110811107Y-100357868D01*
X110791401Y-100343253D01*
X110773223Y-100326777D01*
X110756747Y-100308599D01*
X110742132Y-100288893D01*
X110729520Y-100267850D01*
X110719030Y-100245671D01*
X110710765Y-100222572D01*
X110704804Y-100198773D01*
X110701204Y-100174505D01*
X110700000Y-100150001D01*
X110700000Y-99499999D01*
X110701204Y-99475495D01*
X110704804Y-99451227D01*
X110710765Y-99427428D01*
X110719030Y-99404329D01*
X110729520Y-99382150D01*
X110742132Y-99361107D01*
X110756747Y-99341401D01*
X110773223Y-99323223D01*
X110791401Y-99306747D01*
X110811107Y-99292132D01*
X110832150Y-99279520D01*
X110854329Y-99269030D01*
X110877428Y-99260765D01*
X110901227Y-99254804D01*
X110925495Y-99251204D01*
X110949999Y-99250000D01*
X111850001Y-99250000D01*
X111874505Y-99251204D01*
G37*
G04 #@! TD.AperFunction*
G04 #@! TA.AperFunction,SMDPad,CuDef*
G36*
X111874505Y-97201204D02*
G01*
X111898773Y-97204804D01*
X111922572Y-97210765D01*
X111945671Y-97219030D01*
X111967850Y-97229520D01*
X111988893Y-97242132D01*
X112008599Y-97256747D01*
X112026777Y-97273223D01*
X112043253Y-97291401D01*
X112057868Y-97311107D01*
X112070480Y-97332150D01*
X112080970Y-97354329D01*
X112089235Y-97377428D01*
X112095196Y-97401227D01*
X112098796Y-97425495D01*
X112100000Y-97449999D01*
X112100000Y-98100001D01*
X112098796Y-98124505D01*
X112095196Y-98148773D01*
X112089235Y-98172572D01*
X112080970Y-98195671D01*
X112070480Y-98217850D01*
X112057868Y-98238893D01*
X112043253Y-98258599D01*
X112026777Y-98276777D01*
X112008599Y-98293253D01*
X111988893Y-98307868D01*
X111967850Y-98320480D01*
X111945671Y-98330970D01*
X111922572Y-98339235D01*
X111898773Y-98345196D01*
X111874505Y-98348796D01*
X111850001Y-98350000D01*
X110949999Y-98350000D01*
X110925495Y-98348796D01*
X110901227Y-98345196D01*
X110877428Y-98339235D01*
X110854329Y-98330970D01*
X110832150Y-98320480D01*
X110811107Y-98307868D01*
X110791401Y-98293253D01*
X110773223Y-98276777D01*
X110756747Y-98258599D01*
X110742132Y-98238893D01*
X110729520Y-98217850D01*
X110719030Y-98195671D01*
X110710765Y-98172572D01*
X110704804Y-98148773D01*
X110701204Y-98124505D01*
X110700000Y-98100001D01*
X110700000Y-97449999D01*
X110701204Y-97425495D01*
X110704804Y-97401227D01*
X110710765Y-97377428D01*
X110719030Y-97354329D01*
X110729520Y-97332150D01*
X110742132Y-97311107D01*
X110756747Y-97291401D01*
X110773223Y-97273223D01*
X110791401Y-97256747D01*
X110811107Y-97242132D01*
X110832150Y-97229520D01*
X110854329Y-97219030D01*
X110877428Y-97210765D01*
X110901227Y-97204804D01*
X110925495Y-97201204D01*
X110949999Y-97200000D01*
X111850001Y-97200000D01*
X111874505Y-97201204D01*
G37*
G04 #@! TD.AperFunction*
D14*
X112600000Y-79700000D03*
X113400000Y-79700000D03*
X114200000Y-79700000D03*
X115000000Y-79700000D03*
X115800000Y-79700000D03*
X116600000Y-79700000D03*
X117400000Y-79700000D03*
X118200000Y-79700000D03*
X119000000Y-79700000D03*
X119800000Y-79700000D03*
X120600000Y-79700000D03*
X121400000Y-79700000D03*
X122200000Y-79700000D03*
X123000000Y-79700000D03*
X123800000Y-79700000D03*
X124600000Y-79700000D03*
D15*
X126300000Y-81400000D03*
X126300000Y-82200000D03*
X126300000Y-83000000D03*
X126300000Y-83800000D03*
X126300000Y-84600000D03*
X126300000Y-85400000D03*
X126300000Y-86200000D03*
X126300000Y-87000000D03*
X126300000Y-87800000D03*
X126300000Y-88600000D03*
X126300000Y-89400000D03*
X126300000Y-90200000D03*
X126300000Y-91000000D03*
X126300000Y-91800000D03*
X126300000Y-92600000D03*
X126300000Y-93400000D03*
D14*
X124600000Y-95100000D03*
X123800000Y-95100000D03*
X123000000Y-95100000D03*
X122200000Y-95100000D03*
X121400000Y-95100000D03*
X120600000Y-95100000D03*
X119800000Y-95100000D03*
X119000000Y-95100000D03*
X118200000Y-95100000D03*
X117400000Y-95100000D03*
X116600000Y-95100000D03*
X115800000Y-95100000D03*
X115000000Y-95100000D03*
X114200000Y-95100000D03*
X113400000Y-95100000D03*
X112600000Y-95100000D03*
D15*
X110900000Y-93400000D03*
X110900000Y-92600000D03*
X110900000Y-91800000D03*
X110900000Y-91000000D03*
X110900000Y-90200000D03*
X110900000Y-89400000D03*
X110900000Y-88600000D03*
X110900000Y-87800000D03*
X110900000Y-87000000D03*
X110900000Y-86200000D03*
X110900000Y-85400000D03*
X110900000Y-84600000D03*
X110900000Y-83800000D03*
X110900000Y-83000000D03*
X110900000Y-82200000D03*
X110900000Y-81400000D03*
G04 #@! TA.AperFunction,SMDPad,CuDef*
D11*
G36*
X107874505Y-76101204D02*
G01*
X107898773Y-76104804D01*
X107922572Y-76110765D01*
X107945671Y-76119030D01*
X107967850Y-76129520D01*
X107988893Y-76142132D01*
X108008599Y-76156747D01*
X108026777Y-76173223D01*
X108043253Y-76191401D01*
X108057868Y-76211107D01*
X108070480Y-76232150D01*
X108080970Y-76254329D01*
X108089235Y-76277428D01*
X108095196Y-76301227D01*
X108098796Y-76325495D01*
X108100000Y-76349999D01*
X108100000Y-77000001D01*
X108098796Y-77024505D01*
X108095196Y-77048773D01*
X108089235Y-77072572D01*
X108080970Y-77095671D01*
X108070480Y-77117850D01*
X108057868Y-77138893D01*
X108043253Y-77158599D01*
X108026777Y-77176777D01*
X108008599Y-77193253D01*
X107988893Y-77207868D01*
X107967850Y-77220480D01*
X107945671Y-77230970D01*
X107922572Y-77239235D01*
X107898773Y-77245196D01*
X107874505Y-77248796D01*
X107850001Y-77250000D01*
X106949999Y-77250000D01*
X106925495Y-77248796D01*
X106901227Y-77245196D01*
X106877428Y-77239235D01*
X106854329Y-77230970D01*
X106832150Y-77220480D01*
X106811107Y-77207868D01*
X106791401Y-77193253D01*
X106773223Y-77176777D01*
X106756747Y-77158599D01*
X106742132Y-77138893D01*
X106729520Y-77117850D01*
X106719030Y-77095671D01*
X106710765Y-77072572D01*
X106704804Y-77048773D01*
X106701204Y-77024505D01*
X106700000Y-77000001D01*
X106700000Y-76349999D01*
X106701204Y-76325495D01*
X106704804Y-76301227D01*
X106710765Y-76277428D01*
X106719030Y-76254329D01*
X106729520Y-76232150D01*
X106742132Y-76211107D01*
X106756747Y-76191401D01*
X106773223Y-76173223D01*
X106791401Y-76156747D01*
X106811107Y-76142132D01*
X106832150Y-76129520D01*
X106854329Y-76119030D01*
X106877428Y-76110765D01*
X106901227Y-76104804D01*
X106925495Y-76101204D01*
X106949999Y-76100000D01*
X107850001Y-76100000D01*
X107874505Y-76101204D01*
G37*
G04 #@! TD.AperFunction*
G04 #@! TA.AperFunction,SMDPad,CuDef*
G36*
X107874505Y-78151204D02*
G01*
X107898773Y-78154804D01*
X107922572Y-78160765D01*
X107945671Y-78169030D01*
X107967850Y-78179520D01*
X107988893Y-78192132D01*
X108008599Y-78206747D01*
X108026777Y-78223223D01*
X108043253Y-78241401D01*
X108057868Y-78261107D01*
X108070480Y-78282150D01*
X108080970Y-78304329D01*
X108089235Y-78327428D01*
X108095196Y-78351227D01*
X108098796Y-78375495D01*
X108100000Y-78399999D01*
X108100000Y-79050001D01*
X108098796Y-79074505D01*
X108095196Y-79098773D01*
X108089235Y-79122572D01*
X108080970Y-79145671D01*
X108070480Y-79167850D01*
X108057868Y-79188893D01*
X108043253Y-79208599D01*
X108026777Y-79226777D01*
X108008599Y-79243253D01*
X107988893Y-79257868D01*
X107967850Y-79270480D01*
X107945671Y-79280970D01*
X107922572Y-79289235D01*
X107898773Y-79295196D01*
X107874505Y-79298796D01*
X107850001Y-79300000D01*
X106949999Y-79300000D01*
X106925495Y-79298796D01*
X106901227Y-79295196D01*
X106877428Y-79289235D01*
X106854329Y-79280970D01*
X106832150Y-79270480D01*
X106811107Y-79257868D01*
X106791401Y-79243253D01*
X106773223Y-79226777D01*
X106756747Y-79208599D01*
X106742132Y-79188893D01*
X106729520Y-79167850D01*
X106719030Y-79145671D01*
X106710765Y-79122572D01*
X106704804Y-79098773D01*
X106701204Y-79074505D01*
X106700000Y-79050001D01*
X106700000Y-78399999D01*
X106701204Y-78375495D01*
X106704804Y-78351227D01*
X106710765Y-78327428D01*
X106719030Y-78304329D01*
X106729520Y-78282150D01*
X106742132Y-78261107D01*
X106756747Y-78241401D01*
X106773223Y-78223223D01*
X106791401Y-78206747D01*
X106811107Y-78192132D01*
X106832150Y-78179520D01*
X106854329Y-78169030D01*
X106877428Y-78160765D01*
X106901227Y-78154804D01*
X106925495Y-78151204D01*
X106949999Y-78150000D01*
X107850001Y-78150000D01*
X107874505Y-78151204D01*
G37*
G04 #@! TD.AperFunction*
G04 #@! TA.AperFunction,SMDPad,CuDef*
G36*
X107394505Y-87501204D02*
G01*
X107418773Y-87504804D01*
X107442572Y-87510765D01*
X107465671Y-87519030D01*
X107487850Y-87529520D01*
X107508893Y-87542132D01*
X107528599Y-87556747D01*
X107546777Y-87573223D01*
X107563253Y-87591401D01*
X107577868Y-87611107D01*
X107590480Y-87632150D01*
X107600970Y-87654329D01*
X107609235Y-87677428D01*
X107615196Y-87701227D01*
X107618796Y-87725495D01*
X107620000Y-87749999D01*
X107620000Y-88400001D01*
X107618796Y-88424505D01*
X107615196Y-88448773D01*
X107609235Y-88472572D01*
X107600970Y-88495671D01*
X107590480Y-88517850D01*
X107577868Y-88538893D01*
X107563253Y-88558599D01*
X107546777Y-88576777D01*
X107528599Y-88593253D01*
X107508893Y-88607868D01*
X107487850Y-88620480D01*
X107465671Y-88630970D01*
X107442572Y-88639235D01*
X107418773Y-88645196D01*
X107394505Y-88648796D01*
X107370001Y-88650000D01*
X106469999Y-88650000D01*
X106445495Y-88648796D01*
X106421227Y-88645196D01*
X106397428Y-88639235D01*
X106374329Y-88630970D01*
X106352150Y-88620480D01*
X106331107Y-88607868D01*
X106311401Y-88593253D01*
X106293223Y-88576777D01*
X106276747Y-88558599D01*
X106262132Y-88538893D01*
X106249520Y-88517850D01*
X106239030Y-88495671D01*
X106230765Y-88472572D01*
X106224804Y-88448773D01*
X106221204Y-88424505D01*
X106220000Y-88400001D01*
X106220000Y-87749999D01*
X106221204Y-87725495D01*
X106224804Y-87701227D01*
X106230765Y-87677428D01*
X106239030Y-87654329D01*
X106249520Y-87632150D01*
X106262132Y-87611107D01*
X106276747Y-87591401D01*
X106293223Y-87573223D01*
X106311401Y-87556747D01*
X106331107Y-87542132D01*
X106352150Y-87529520D01*
X106374329Y-87519030D01*
X106397428Y-87510765D01*
X106421227Y-87504804D01*
X106445495Y-87501204D01*
X106469999Y-87500000D01*
X107370001Y-87500000D01*
X107394505Y-87501204D01*
G37*
G04 #@! TD.AperFunction*
G04 #@! TA.AperFunction,SMDPad,CuDef*
G36*
X107394505Y-89551204D02*
G01*
X107418773Y-89554804D01*
X107442572Y-89560765D01*
X107465671Y-89569030D01*
X107487850Y-89579520D01*
X107508893Y-89592132D01*
X107528599Y-89606747D01*
X107546777Y-89623223D01*
X107563253Y-89641401D01*
X107577868Y-89661107D01*
X107590480Y-89682150D01*
X107600970Y-89704329D01*
X107609235Y-89727428D01*
X107615196Y-89751227D01*
X107618796Y-89775495D01*
X107620000Y-89799999D01*
X107620000Y-90450001D01*
X107618796Y-90474505D01*
X107615196Y-90498773D01*
X107609235Y-90522572D01*
X107600970Y-90545671D01*
X107590480Y-90567850D01*
X107577868Y-90588893D01*
X107563253Y-90608599D01*
X107546777Y-90626777D01*
X107528599Y-90643253D01*
X107508893Y-90657868D01*
X107487850Y-90670480D01*
X107465671Y-90680970D01*
X107442572Y-90689235D01*
X107418773Y-90695196D01*
X107394505Y-90698796D01*
X107370001Y-90700000D01*
X106469999Y-90700000D01*
X106445495Y-90698796D01*
X106421227Y-90695196D01*
X106397428Y-90689235D01*
X106374329Y-90680970D01*
X106352150Y-90670480D01*
X106331107Y-90657868D01*
X106311401Y-90643253D01*
X106293223Y-90626777D01*
X106276747Y-90608599D01*
X106262132Y-90588893D01*
X106249520Y-90567850D01*
X106239030Y-90545671D01*
X106230765Y-90522572D01*
X106224804Y-90498773D01*
X106221204Y-90474505D01*
X106220000Y-90450001D01*
X106220000Y-89799999D01*
X106221204Y-89775495D01*
X106224804Y-89751227D01*
X106230765Y-89727428D01*
X106239030Y-89704329D01*
X106249520Y-89682150D01*
X106262132Y-89661107D01*
X106276747Y-89641401D01*
X106293223Y-89623223D01*
X106311401Y-89606747D01*
X106331107Y-89592132D01*
X106352150Y-89579520D01*
X106374329Y-89569030D01*
X106397428Y-89560765D01*
X106421227Y-89554804D01*
X106445495Y-89551204D01*
X106469999Y-89550000D01*
X107370001Y-89550000D01*
X107394505Y-89551204D01*
G37*
G04 #@! TD.AperFunction*
G04 #@! TA.AperFunction,SMDPad,CuDef*
G36*
X127724505Y-76001204D02*
G01*
X127748773Y-76004804D01*
X127772572Y-76010765D01*
X127795671Y-76019030D01*
X127817850Y-76029520D01*
X127838893Y-76042132D01*
X127858599Y-76056747D01*
X127876777Y-76073223D01*
X127893253Y-76091401D01*
X127907868Y-76111107D01*
X127920480Y-76132150D01*
X127930970Y-76154329D01*
X127939235Y-76177428D01*
X127945196Y-76201227D01*
X127948796Y-76225495D01*
X127950000Y-76249999D01*
X127950000Y-77150001D01*
X127948796Y-77174505D01*
X127945196Y-77198773D01*
X127939235Y-77222572D01*
X127930970Y-77245671D01*
X127920480Y-77267850D01*
X127907868Y-77288893D01*
X127893253Y-77308599D01*
X127876777Y-77326777D01*
X127858599Y-77343253D01*
X127838893Y-77357868D01*
X127817850Y-77370480D01*
X127795671Y-77380970D01*
X127772572Y-77389235D01*
X127748773Y-77395196D01*
X127724505Y-77398796D01*
X127700001Y-77400000D01*
X127049999Y-77400000D01*
X127025495Y-77398796D01*
X127001227Y-77395196D01*
X126977428Y-77389235D01*
X126954329Y-77380970D01*
X126932150Y-77370480D01*
X126911107Y-77357868D01*
X126891401Y-77343253D01*
X126873223Y-77326777D01*
X126856747Y-77308599D01*
X126842132Y-77288893D01*
X126829520Y-77267850D01*
X126819030Y-77245671D01*
X126810765Y-77222572D01*
X126804804Y-77198773D01*
X126801204Y-77174505D01*
X126800000Y-77150001D01*
X126800000Y-76249999D01*
X126801204Y-76225495D01*
X126804804Y-76201227D01*
X126810765Y-76177428D01*
X126819030Y-76154329D01*
X126829520Y-76132150D01*
X126842132Y-76111107D01*
X126856747Y-76091401D01*
X126873223Y-76073223D01*
X126891401Y-76056747D01*
X126911107Y-76042132D01*
X126932150Y-76029520D01*
X126954329Y-76019030D01*
X126977428Y-76010765D01*
X127001227Y-76004804D01*
X127025495Y-76001204D01*
X127049999Y-76000000D01*
X127700001Y-76000000D01*
X127724505Y-76001204D01*
G37*
G04 #@! TD.AperFunction*
G04 #@! TA.AperFunction,SMDPad,CuDef*
G36*
X129774505Y-76001204D02*
G01*
X129798773Y-76004804D01*
X129822572Y-76010765D01*
X129845671Y-76019030D01*
X129867850Y-76029520D01*
X129888893Y-76042132D01*
X129908599Y-76056747D01*
X129926777Y-76073223D01*
X129943253Y-76091401D01*
X129957868Y-76111107D01*
X129970480Y-76132150D01*
X129980970Y-76154329D01*
X129989235Y-76177428D01*
X129995196Y-76201227D01*
X129998796Y-76225495D01*
X130000000Y-76249999D01*
X130000000Y-77150001D01*
X129998796Y-77174505D01*
X129995196Y-77198773D01*
X129989235Y-77222572D01*
X129980970Y-77245671D01*
X129970480Y-77267850D01*
X129957868Y-77288893D01*
X129943253Y-77308599D01*
X129926777Y-77326777D01*
X129908599Y-77343253D01*
X129888893Y-77357868D01*
X129867850Y-77370480D01*
X129845671Y-77380970D01*
X129822572Y-77389235D01*
X129798773Y-77395196D01*
X129774505Y-77398796D01*
X129750001Y-77400000D01*
X129099999Y-77400000D01*
X129075495Y-77398796D01*
X129051227Y-77395196D01*
X129027428Y-77389235D01*
X129004329Y-77380970D01*
X128982150Y-77370480D01*
X128961107Y-77357868D01*
X128941401Y-77343253D01*
X128923223Y-77326777D01*
X128906747Y-77308599D01*
X128892132Y-77288893D01*
X128879520Y-77267850D01*
X128869030Y-77245671D01*
X128860765Y-77222572D01*
X128854804Y-77198773D01*
X128851204Y-77174505D01*
X128850000Y-77150001D01*
X128850000Y-76249999D01*
X128851204Y-76225495D01*
X128854804Y-76201227D01*
X128860765Y-76177428D01*
X128869030Y-76154329D01*
X128879520Y-76132150D01*
X128892132Y-76111107D01*
X128906747Y-76091401D01*
X128923223Y-76073223D01*
X128941401Y-76056747D01*
X128961107Y-76042132D01*
X128982150Y-76029520D01*
X129004329Y-76019030D01*
X129027428Y-76010765D01*
X129051227Y-76004804D01*
X129075495Y-76001204D01*
X129099999Y-76000000D01*
X129750001Y-76000000D01*
X129774505Y-76001204D01*
G37*
G04 #@! TD.AperFunction*
D13*
X132960000Y-98220000D03*
X135500000Y-98220000D03*
X132960000Y-100760000D03*
X135500000Y-100760000D03*
X132960000Y-103300000D03*
D16*
X135500000Y-103300000D03*
D13*
X134200000Y-92400000D03*
X134200000Y-89860000D03*
X134200000Y-87320000D03*
X134200000Y-84780000D03*
X134200000Y-82240000D03*
D16*
X134200000Y-79700000D03*
G04 #@! TA.AperFunction,SMDPad,CuDef*
D11*
G36*
X107374505Y-85451204D02*
G01*
X107398773Y-85454804D01*
X107422572Y-85460765D01*
X107445671Y-85469030D01*
X107467850Y-85479520D01*
X107488893Y-85492132D01*
X107508599Y-85506747D01*
X107526777Y-85523223D01*
X107543253Y-85541401D01*
X107557868Y-85561107D01*
X107570480Y-85582150D01*
X107580970Y-85604329D01*
X107589235Y-85627428D01*
X107595196Y-85651227D01*
X107598796Y-85675495D01*
X107600000Y-85699999D01*
X107600000Y-86350001D01*
X107598796Y-86374505D01*
X107595196Y-86398773D01*
X107589235Y-86422572D01*
X107580970Y-86445671D01*
X107570480Y-86467850D01*
X107557868Y-86488893D01*
X107543253Y-86508599D01*
X107526777Y-86526777D01*
X107508599Y-86543253D01*
X107488893Y-86557868D01*
X107467850Y-86570480D01*
X107445671Y-86580970D01*
X107422572Y-86589235D01*
X107398773Y-86595196D01*
X107374505Y-86598796D01*
X107350001Y-86600000D01*
X106449999Y-86600000D01*
X106425495Y-86598796D01*
X106401227Y-86595196D01*
X106377428Y-86589235D01*
X106354329Y-86580970D01*
X106332150Y-86570480D01*
X106311107Y-86557868D01*
X106291401Y-86543253D01*
X106273223Y-86526777D01*
X106256747Y-86508599D01*
X106242132Y-86488893D01*
X106229520Y-86467850D01*
X106219030Y-86445671D01*
X106210765Y-86422572D01*
X106204804Y-86398773D01*
X106201204Y-86374505D01*
X106200000Y-86350001D01*
X106200000Y-85699999D01*
X106201204Y-85675495D01*
X106204804Y-85651227D01*
X106210765Y-85627428D01*
X106219030Y-85604329D01*
X106229520Y-85582150D01*
X106242132Y-85561107D01*
X106256747Y-85541401D01*
X106273223Y-85523223D01*
X106291401Y-85506747D01*
X106311107Y-85492132D01*
X106332150Y-85479520D01*
X106354329Y-85469030D01*
X106377428Y-85460765D01*
X106401227Y-85454804D01*
X106425495Y-85451204D01*
X106449999Y-85450000D01*
X107350001Y-85450000D01*
X107374505Y-85451204D01*
G37*
G04 #@! TD.AperFunction*
G04 #@! TA.AperFunction,SMDPad,CuDef*
G36*
X107374505Y-83401204D02*
G01*
X107398773Y-83404804D01*
X107422572Y-83410765D01*
X107445671Y-83419030D01*
X107467850Y-83429520D01*
X107488893Y-83442132D01*
X107508599Y-83456747D01*
X107526777Y-83473223D01*
X107543253Y-83491401D01*
X107557868Y-83511107D01*
X107570480Y-83532150D01*
X107580970Y-83554329D01*
X107589235Y-83577428D01*
X107595196Y-83601227D01*
X107598796Y-83625495D01*
X107600000Y-83649999D01*
X107600000Y-84300001D01*
X107598796Y-84324505D01*
X107595196Y-84348773D01*
X107589235Y-84372572D01*
X107580970Y-84395671D01*
X107570480Y-84417850D01*
X107557868Y-84438893D01*
X107543253Y-84458599D01*
X107526777Y-84476777D01*
X107508599Y-84493253D01*
X107488893Y-84507868D01*
X107467850Y-84520480D01*
X107445671Y-84530970D01*
X107422572Y-84539235D01*
X107398773Y-84545196D01*
X107374505Y-84548796D01*
X107350001Y-84550000D01*
X106449999Y-84550000D01*
X106425495Y-84548796D01*
X106401227Y-84545196D01*
X106377428Y-84539235D01*
X106354329Y-84530970D01*
X106332150Y-84520480D01*
X106311107Y-84507868D01*
X106291401Y-84493253D01*
X106273223Y-84476777D01*
X106256747Y-84458599D01*
X106242132Y-84438893D01*
X106229520Y-84417850D01*
X106219030Y-84395671D01*
X106210765Y-84372572D01*
X106204804Y-84348773D01*
X106201204Y-84324505D01*
X106200000Y-84300001D01*
X106200000Y-83649999D01*
X106201204Y-83625495D01*
X106204804Y-83601227D01*
X106210765Y-83577428D01*
X106219030Y-83554329D01*
X106229520Y-83532150D01*
X106242132Y-83511107D01*
X106256747Y-83491401D01*
X106273223Y-83473223D01*
X106291401Y-83456747D01*
X106311107Y-83442132D01*
X106332150Y-83429520D01*
X106354329Y-83419030D01*
X106377428Y-83410765D01*
X106401227Y-83404804D01*
X106425495Y-83401204D01*
X106449999Y-83400000D01*
X107350001Y-83400000D01*
X107374505Y-83401204D01*
G37*
G04 #@! TD.AperFunction*
G04 #@! TA.AperFunction,SMDPad,CuDef*
G36*
X111874505Y-103051204D02*
G01*
X111898773Y-103054804D01*
X111922572Y-103060765D01*
X111945671Y-103069030D01*
X111967850Y-103079520D01*
X111988893Y-103092132D01*
X112008599Y-103106747D01*
X112026777Y-103123223D01*
X112043253Y-103141401D01*
X112057868Y-103161107D01*
X112070480Y-103182150D01*
X112080970Y-103204329D01*
X112089235Y-103227428D01*
X112095196Y-103251227D01*
X112098796Y-103275495D01*
X112100000Y-103299999D01*
X112100000Y-103950001D01*
X112098796Y-103974505D01*
X112095196Y-103998773D01*
X112089235Y-104022572D01*
X112080970Y-104045671D01*
X112070480Y-104067850D01*
X112057868Y-104088893D01*
X112043253Y-104108599D01*
X112026777Y-104126777D01*
X112008599Y-104143253D01*
X111988893Y-104157868D01*
X111967850Y-104170480D01*
X111945671Y-104180970D01*
X111922572Y-104189235D01*
X111898773Y-104195196D01*
X111874505Y-104198796D01*
X111850001Y-104200000D01*
X110949999Y-104200000D01*
X110925495Y-104198796D01*
X110901227Y-104195196D01*
X110877428Y-104189235D01*
X110854329Y-104180970D01*
X110832150Y-104170480D01*
X110811107Y-104157868D01*
X110791401Y-104143253D01*
X110773223Y-104126777D01*
X110756747Y-104108599D01*
X110742132Y-104088893D01*
X110729520Y-104067850D01*
X110719030Y-104045671D01*
X110710765Y-104022572D01*
X110704804Y-103998773D01*
X110701204Y-103974505D01*
X110700000Y-103950001D01*
X110700000Y-103299999D01*
X110701204Y-103275495D01*
X110704804Y-103251227D01*
X110710765Y-103227428D01*
X110719030Y-103204329D01*
X110729520Y-103182150D01*
X110742132Y-103161107D01*
X110756747Y-103141401D01*
X110773223Y-103123223D01*
X110791401Y-103106747D01*
X110811107Y-103092132D01*
X110832150Y-103079520D01*
X110854329Y-103069030D01*
X110877428Y-103060765D01*
X110901227Y-103054804D01*
X110925495Y-103051204D01*
X110949999Y-103050000D01*
X111850001Y-103050000D01*
X111874505Y-103051204D01*
G37*
G04 #@! TD.AperFunction*
G04 #@! TA.AperFunction,SMDPad,CuDef*
G36*
X111874505Y-101001204D02*
G01*
X111898773Y-101004804D01*
X111922572Y-101010765D01*
X111945671Y-101019030D01*
X111967850Y-101029520D01*
X111988893Y-101042132D01*
X112008599Y-101056747D01*
X112026777Y-101073223D01*
X112043253Y-101091401D01*
X112057868Y-101111107D01*
X112070480Y-101132150D01*
X112080970Y-101154329D01*
X112089235Y-101177428D01*
X112095196Y-101201227D01*
X112098796Y-101225495D01*
X112100000Y-101249999D01*
X112100000Y-101900001D01*
X112098796Y-101924505D01*
X112095196Y-101948773D01*
X112089235Y-101972572D01*
X112080970Y-101995671D01*
X112070480Y-102017850D01*
X112057868Y-102038893D01*
X112043253Y-102058599D01*
X112026777Y-102076777D01*
X112008599Y-102093253D01*
X111988893Y-102107868D01*
X111967850Y-102120480D01*
X111945671Y-102130970D01*
X111922572Y-102139235D01*
X111898773Y-102145196D01*
X111874505Y-102148796D01*
X111850001Y-102150000D01*
X110949999Y-102150000D01*
X110925495Y-102148796D01*
X110901227Y-102145196D01*
X110877428Y-102139235D01*
X110854329Y-102130970D01*
X110832150Y-102120480D01*
X110811107Y-102107868D01*
X110791401Y-102093253D01*
X110773223Y-102076777D01*
X110756747Y-102058599D01*
X110742132Y-102038893D01*
X110729520Y-102017850D01*
X110719030Y-101995671D01*
X110710765Y-101972572D01*
X110704804Y-101948773D01*
X110701204Y-101924505D01*
X110700000Y-101900001D01*
X110700000Y-101249999D01*
X110701204Y-101225495D01*
X110704804Y-101201227D01*
X110710765Y-101177428D01*
X110719030Y-101154329D01*
X110729520Y-101132150D01*
X110742132Y-101111107D01*
X110756747Y-101091401D01*
X110773223Y-101073223D01*
X110791401Y-101056747D01*
X110811107Y-101042132D01*
X110832150Y-101029520D01*
X110854329Y-101019030D01*
X110877428Y-101010765D01*
X110901227Y-101004804D01*
X110925495Y-101001204D01*
X110949999Y-101000000D01*
X111850001Y-101000000D01*
X111874505Y-101001204D01*
G37*
G04 #@! TD.AperFunction*
G04 #@! TA.AperFunction,SMDPad,CuDef*
G36*
X125274505Y-100601204D02*
G01*
X125298773Y-100604804D01*
X125322572Y-100610765D01*
X125345671Y-100619030D01*
X125367850Y-100629520D01*
X125388893Y-100642132D01*
X125408599Y-100656747D01*
X125426777Y-100673223D01*
X125443253Y-100691401D01*
X125457868Y-100711107D01*
X125470480Y-100732150D01*
X125480970Y-100754329D01*
X125489235Y-100777428D01*
X125495196Y-100801227D01*
X125498796Y-100825495D01*
X125500000Y-100849999D01*
X125500000Y-101500001D01*
X125498796Y-101524505D01*
X125495196Y-101548773D01*
X125489235Y-101572572D01*
X125480970Y-101595671D01*
X125470480Y-101617850D01*
X125457868Y-101638893D01*
X125443253Y-101658599D01*
X125426777Y-101676777D01*
X125408599Y-101693253D01*
X125388893Y-101707868D01*
X125367850Y-101720480D01*
X125345671Y-101730970D01*
X125322572Y-101739235D01*
X125298773Y-101745196D01*
X125274505Y-101748796D01*
X125250001Y-101750000D01*
X124349999Y-101750000D01*
X124325495Y-101748796D01*
X124301227Y-101745196D01*
X124277428Y-101739235D01*
X124254329Y-101730970D01*
X124232150Y-101720480D01*
X124211107Y-101707868D01*
X124191401Y-101693253D01*
X124173223Y-101676777D01*
X124156747Y-101658599D01*
X124142132Y-101638893D01*
X124129520Y-101617850D01*
X124119030Y-101595671D01*
X124110765Y-101572572D01*
X124104804Y-101548773D01*
X124101204Y-101524505D01*
X124100000Y-101500001D01*
X124100000Y-100849999D01*
X124101204Y-100825495D01*
X124104804Y-100801227D01*
X124110765Y-100777428D01*
X124119030Y-100754329D01*
X124129520Y-100732150D01*
X124142132Y-100711107D01*
X124156747Y-100691401D01*
X124173223Y-100673223D01*
X124191401Y-100656747D01*
X124211107Y-100642132D01*
X124232150Y-100629520D01*
X124254329Y-100619030D01*
X124277428Y-100610765D01*
X124301227Y-100604804D01*
X124325495Y-100601204D01*
X124349999Y-100600000D01*
X125250001Y-100600000D01*
X125274505Y-100601204D01*
G37*
G04 #@! TD.AperFunction*
G04 #@! TA.AperFunction,SMDPad,CuDef*
G36*
X125274505Y-102651204D02*
G01*
X125298773Y-102654804D01*
X125322572Y-102660765D01*
X125345671Y-102669030D01*
X125367850Y-102679520D01*
X125388893Y-102692132D01*
X125408599Y-102706747D01*
X125426777Y-102723223D01*
X125443253Y-102741401D01*
X125457868Y-102761107D01*
X125470480Y-102782150D01*
X125480970Y-102804329D01*
X125489235Y-102827428D01*
X125495196Y-102851227D01*
X125498796Y-102875495D01*
X125500000Y-102899999D01*
X125500000Y-103550001D01*
X125498796Y-103574505D01*
X125495196Y-103598773D01*
X125489235Y-103622572D01*
X125480970Y-103645671D01*
X125470480Y-103667850D01*
X125457868Y-103688893D01*
X125443253Y-103708599D01*
X125426777Y-103726777D01*
X125408599Y-103743253D01*
X125388893Y-103757868D01*
X125367850Y-103770480D01*
X125345671Y-103780970D01*
X125322572Y-103789235D01*
X125298773Y-103795196D01*
X125274505Y-103798796D01*
X125250001Y-103800000D01*
X124349999Y-103800000D01*
X124325495Y-103798796D01*
X124301227Y-103795196D01*
X124277428Y-103789235D01*
X124254329Y-103780970D01*
X124232150Y-103770480D01*
X124211107Y-103757868D01*
X124191401Y-103743253D01*
X124173223Y-103726777D01*
X124156747Y-103708599D01*
X124142132Y-103688893D01*
X124129520Y-103667850D01*
X124119030Y-103645671D01*
X124110765Y-103622572D01*
X124104804Y-103598773D01*
X124101204Y-103574505D01*
X124100000Y-103550001D01*
X124100000Y-102899999D01*
X124101204Y-102875495D01*
X124104804Y-102851227D01*
X124110765Y-102827428D01*
X124119030Y-102804329D01*
X124129520Y-102782150D01*
X124142132Y-102761107D01*
X124156747Y-102741401D01*
X124173223Y-102723223D01*
X124191401Y-102706747D01*
X124211107Y-102692132D01*
X124232150Y-102679520D01*
X124254329Y-102669030D01*
X124277428Y-102660765D01*
X124301227Y-102654804D01*
X124325495Y-102651204D01*
X124349999Y-102650000D01*
X125250001Y-102650000D01*
X125274505Y-102651204D01*
G37*
G04 #@! TD.AperFunction*
G04 #@! TA.AperFunction,SMDPad,CuDef*
G36*
X118124505Y-76001204D02*
G01*
X118148773Y-76004804D01*
X118172572Y-76010765D01*
X118195671Y-76019030D01*
X118217850Y-76029520D01*
X118238893Y-76042132D01*
X118258599Y-76056747D01*
X118276777Y-76073223D01*
X118293253Y-76091401D01*
X118307868Y-76111107D01*
X118320480Y-76132150D01*
X118330970Y-76154329D01*
X118339235Y-76177428D01*
X118345196Y-76201227D01*
X118348796Y-76225495D01*
X118350000Y-76249999D01*
X118350000Y-77150001D01*
X118348796Y-77174505D01*
X118345196Y-77198773D01*
X118339235Y-77222572D01*
X118330970Y-77245671D01*
X118320480Y-77267850D01*
X118307868Y-77288893D01*
X118293253Y-77308599D01*
X118276777Y-77326777D01*
X118258599Y-77343253D01*
X118238893Y-77357868D01*
X118217850Y-77370480D01*
X118195671Y-77380970D01*
X118172572Y-77389235D01*
X118148773Y-77395196D01*
X118124505Y-77398796D01*
X118100001Y-77400000D01*
X117449999Y-77400000D01*
X117425495Y-77398796D01*
X117401227Y-77395196D01*
X117377428Y-77389235D01*
X117354329Y-77380970D01*
X117332150Y-77370480D01*
X117311107Y-77357868D01*
X117291401Y-77343253D01*
X117273223Y-77326777D01*
X117256747Y-77308599D01*
X117242132Y-77288893D01*
X117229520Y-77267850D01*
X117219030Y-77245671D01*
X117210765Y-77222572D01*
X117204804Y-77198773D01*
X117201204Y-77174505D01*
X117200000Y-77150001D01*
X117200000Y-76249999D01*
X117201204Y-76225495D01*
X117204804Y-76201227D01*
X117210765Y-76177428D01*
X117219030Y-76154329D01*
X117229520Y-76132150D01*
X117242132Y-76111107D01*
X117256747Y-76091401D01*
X117273223Y-76073223D01*
X117291401Y-76056747D01*
X117311107Y-76042132D01*
X117332150Y-76029520D01*
X117354329Y-76019030D01*
X117377428Y-76010765D01*
X117401227Y-76004804D01*
X117425495Y-76001204D01*
X117449999Y-76000000D01*
X118100001Y-76000000D01*
X118124505Y-76001204D01*
G37*
G04 #@! TD.AperFunction*
G04 #@! TA.AperFunction,SMDPad,CuDef*
G36*
X120174505Y-76001204D02*
G01*
X120198773Y-76004804D01*
X120222572Y-76010765D01*
X120245671Y-76019030D01*
X120267850Y-76029520D01*
X120288893Y-76042132D01*
X120308599Y-76056747D01*
X120326777Y-76073223D01*
X120343253Y-76091401D01*
X120357868Y-76111107D01*
X120370480Y-76132150D01*
X120380970Y-76154329D01*
X120389235Y-76177428D01*
X120395196Y-76201227D01*
X120398796Y-76225495D01*
X120400000Y-76249999D01*
X120400000Y-77150001D01*
X120398796Y-77174505D01*
X120395196Y-77198773D01*
X120389235Y-77222572D01*
X120380970Y-77245671D01*
X120370480Y-77267850D01*
X120357868Y-77288893D01*
X120343253Y-77308599D01*
X120326777Y-77326777D01*
X120308599Y-77343253D01*
X120288893Y-77357868D01*
X120267850Y-77370480D01*
X120245671Y-77380970D01*
X120222572Y-77389235D01*
X120198773Y-77395196D01*
X120174505Y-77398796D01*
X120150001Y-77400000D01*
X119499999Y-77400000D01*
X119475495Y-77398796D01*
X119451227Y-77395196D01*
X119427428Y-77389235D01*
X119404329Y-77380970D01*
X119382150Y-77370480D01*
X119361107Y-77357868D01*
X119341401Y-77343253D01*
X119323223Y-77326777D01*
X119306747Y-77308599D01*
X119292132Y-77288893D01*
X119279520Y-77267850D01*
X119269030Y-77245671D01*
X119260765Y-77222572D01*
X119254804Y-77198773D01*
X119251204Y-77174505D01*
X119250000Y-77150001D01*
X119250000Y-76249999D01*
X119251204Y-76225495D01*
X119254804Y-76201227D01*
X119260765Y-76177428D01*
X119269030Y-76154329D01*
X119279520Y-76132150D01*
X119292132Y-76111107D01*
X119306747Y-76091401D01*
X119323223Y-76073223D01*
X119341401Y-76056747D01*
X119361107Y-76042132D01*
X119382150Y-76029520D01*
X119404329Y-76019030D01*
X119427428Y-76010765D01*
X119451227Y-76004804D01*
X119475495Y-76001204D01*
X119499999Y-76000000D01*
X120150001Y-76000000D01*
X120174505Y-76001204D01*
G37*
G04 #@! TD.AperFunction*
G04 #@! TA.AperFunction,SMDPad,CuDef*
G36*
X114574505Y-76001204D02*
G01*
X114598773Y-76004804D01*
X114622572Y-76010765D01*
X114645671Y-76019030D01*
X114667850Y-76029520D01*
X114688893Y-76042132D01*
X114708599Y-76056747D01*
X114726777Y-76073223D01*
X114743253Y-76091401D01*
X114757868Y-76111107D01*
X114770480Y-76132150D01*
X114780970Y-76154329D01*
X114789235Y-76177428D01*
X114795196Y-76201227D01*
X114798796Y-76225495D01*
X114800000Y-76249999D01*
X114800000Y-77150001D01*
X114798796Y-77174505D01*
X114795196Y-77198773D01*
X114789235Y-77222572D01*
X114780970Y-77245671D01*
X114770480Y-77267850D01*
X114757868Y-77288893D01*
X114743253Y-77308599D01*
X114726777Y-77326777D01*
X114708599Y-77343253D01*
X114688893Y-77357868D01*
X114667850Y-77370480D01*
X114645671Y-77380970D01*
X114622572Y-77389235D01*
X114598773Y-77395196D01*
X114574505Y-77398796D01*
X114550001Y-77400000D01*
X113899999Y-77400000D01*
X113875495Y-77398796D01*
X113851227Y-77395196D01*
X113827428Y-77389235D01*
X113804329Y-77380970D01*
X113782150Y-77370480D01*
X113761107Y-77357868D01*
X113741401Y-77343253D01*
X113723223Y-77326777D01*
X113706747Y-77308599D01*
X113692132Y-77288893D01*
X113679520Y-77267850D01*
X113669030Y-77245671D01*
X113660765Y-77222572D01*
X113654804Y-77198773D01*
X113651204Y-77174505D01*
X113650000Y-77150001D01*
X113650000Y-76249999D01*
X113651204Y-76225495D01*
X113654804Y-76201227D01*
X113660765Y-76177428D01*
X113669030Y-76154329D01*
X113679520Y-76132150D01*
X113692132Y-76111107D01*
X113706747Y-76091401D01*
X113723223Y-76073223D01*
X113741401Y-76056747D01*
X113761107Y-76042132D01*
X113782150Y-76029520D01*
X113804329Y-76019030D01*
X113827428Y-76010765D01*
X113851227Y-76004804D01*
X113875495Y-76001204D01*
X113899999Y-76000000D01*
X114550001Y-76000000D01*
X114574505Y-76001204D01*
G37*
G04 #@! TD.AperFunction*
G04 #@! TA.AperFunction,SMDPad,CuDef*
G36*
X112524505Y-76001204D02*
G01*
X112548773Y-76004804D01*
X112572572Y-76010765D01*
X112595671Y-76019030D01*
X112617850Y-76029520D01*
X112638893Y-76042132D01*
X112658599Y-76056747D01*
X112676777Y-76073223D01*
X112693253Y-76091401D01*
X112707868Y-76111107D01*
X112720480Y-76132150D01*
X112730970Y-76154329D01*
X112739235Y-76177428D01*
X112745196Y-76201227D01*
X112748796Y-76225495D01*
X112750000Y-76249999D01*
X112750000Y-77150001D01*
X112748796Y-77174505D01*
X112745196Y-77198773D01*
X112739235Y-77222572D01*
X112730970Y-77245671D01*
X112720480Y-77267850D01*
X112707868Y-77288893D01*
X112693253Y-77308599D01*
X112676777Y-77326777D01*
X112658599Y-77343253D01*
X112638893Y-77357868D01*
X112617850Y-77370480D01*
X112595671Y-77380970D01*
X112572572Y-77389235D01*
X112548773Y-77395196D01*
X112524505Y-77398796D01*
X112500001Y-77400000D01*
X111849999Y-77400000D01*
X111825495Y-77398796D01*
X111801227Y-77395196D01*
X111777428Y-77389235D01*
X111754329Y-77380970D01*
X111732150Y-77370480D01*
X111711107Y-77357868D01*
X111691401Y-77343253D01*
X111673223Y-77326777D01*
X111656747Y-77308599D01*
X111642132Y-77288893D01*
X111629520Y-77267850D01*
X111619030Y-77245671D01*
X111610765Y-77222572D01*
X111604804Y-77198773D01*
X111601204Y-77174505D01*
X111600000Y-77150001D01*
X111600000Y-76249999D01*
X111601204Y-76225495D01*
X111604804Y-76201227D01*
X111610765Y-76177428D01*
X111619030Y-76154329D01*
X111629520Y-76132150D01*
X111642132Y-76111107D01*
X111656747Y-76091401D01*
X111673223Y-76073223D01*
X111691401Y-76056747D01*
X111711107Y-76042132D01*
X111732150Y-76029520D01*
X111754329Y-76019030D01*
X111777428Y-76010765D01*
X111801227Y-76004804D01*
X111825495Y-76001204D01*
X111849999Y-76000000D01*
X112500001Y-76000000D01*
X112524505Y-76001204D01*
G37*
G04 #@! TD.AperFunction*
G04 #@! TA.AperFunction,SMDPad,CuDef*
G36*
X123424505Y-76001204D02*
G01*
X123448773Y-76004804D01*
X123472572Y-76010765D01*
X123495671Y-76019030D01*
X123517850Y-76029520D01*
X123538893Y-76042132D01*
X123558599Y-76056747D01*
X123576777Y-76073223D01*
X123593253Y-76091401D01*
X123607868Y-76111107D01*
X123620480Y-76132150D01*
X123630970Y-76154329D01*
X123639235Y-76177428D01*
X123645196Y-76201227D01*
X123648796Y-76225495D01*
X123650000Y-76249999D01*
X123650000Y-77150001D01*
X123648796Y-77174505D01*
X123645196Y-77198773D01*
X123639235Y-77222572D01*
X123630970Y-77245671D01*
X123620480Y-77267850D01*
X123607868Y-77288893D01*
X123593253Y-77308599D01*
X123576777Y-77326777D01*
X123558599Y-77343253D01*
X123538893Y-77357868D01*
X123517850Y-77370480D01*
X123495671Y-77380970D01*
X123472572Y-77389235D01*
X123448773Y-77395196D01*
X123424505Y-77398796D01*
X123400001Y-77400000D01*
X122749999Y-77400000D01*
X122725495Y-77398796D01*
X122701227Y-77395196D01*
X122677428Y-77389235D01*
X122654329Y-77380970D01*
X122632150Y-77370480D01*
X122611107Y-77357868D01*
X122591401Y-77343253D01*
X122573223Y-77326777D01*
X122556747Y-77308599D01*
X122542132Y-77288893D01*
X122529520Y-77267850D01*
X122519030Y-77245671D01*
X122510765Y-77222572D01*
X122504804Y-77198773D01*
X122501204Y-77174505D01*
X122500000Y-77150001D01*
X122500000Y-76249999D01*
X122501204Y-76225495D01*
X122504804Y-76201227D01*
X122510765Y-76177428D01*
X122519030Y-76154329D01*
X122529520Y-76132150D01*
X122542132Y-76111107D01*
X122556747Y-76091401D01*
X122573223Y-76073223D01*
X122591401Y-76056747D01*
X122611107Y-76042132D01*
X122632150Y-76029520D01*
X122654329Y-76019030D01*
X122677428Y-76010765D01*
X122701227Y-76004804D01*
X122725495Y-76001204D01*
X122749999Y-76000000D01*
X123400001Y-76000000D01*
X123424505Y-76001204D01*
G37*
G04 #@! TD.AperFunction*
G04 #@! TA.AperFunction,SMDPad,CuDef*
G36*
X125474505Y-76001204D02*
G01*
X125498773Y-76004804D01*
X125522572Y-76010765D01*
X125545671Y-76019030D01*
X125567850Y-76029520D01*
X125588893Y-76042132D01*
X125608599Y-76056747D01*
X125626777Y-76073223D01*
X125643253Y-76091401D01*
X125657868Y-76111107D01*
X125670480Y-76132150D01*
X125680970Y-76154329D01*
X125689235Y-76177428D01*
X125695196Y-76201227D01*
X125698796Y-76225495D01*
X125700000Y-76249999D01*
X125700000Y-77150001D01*
X125698796Y-77174505D01*
X125695196Y-77198773D01*
X125689235Y-77222572D01*
X125680970Y-77245671D01*
X125670480Y-77267850D01*
X125657868Y-77288893D01*
X125643253Y-77308599D01*
X125626777Y-77326777D01*
X125608599Y-77343253D01*
X125588893Y-77357868D01*
X125567850Y-77370480D01*
X125545671Y-77380970D01*
X125522572Y-77389235D01*
X125498773Y-77395196D01*
X125474505Y-77398796D01*
X125450001Y-77400000D01*
X124799999Y-77400000D01*
X124775495Y-77398796D01*
X124751227Y-77395196D01*
X124727428Y-77389235D01*
X124704329Y-77380970D01*
X124682150Y-77370480D01*
X124661107Y-77357868D01*
X124641401Y-77343253D01*
X124623223Y-77326777D01*
X124606747Y-77308599D01*
X124592132Y-77288893D01*
X124579520Y-77267850D01*
X124569030Y-77245671D01*
X124560765Y-77222572D01*
X124554804Y-77198773D01*
X124551204Y-77174505D01*
X124550000Y-77150001D01*
X124550000Y-76249999D01*
X124551204Y-76225495D01*
X124554804Y-76201227D01*
X124560765Y-76177428D01*
X124569030Y-76154329D01*
X124579520Y-76132150D01*
X124592132Y-76111107D01*
X124606747Y-76091401D01*
X124623223Y-76073223D01*
X124641401Y-76056747D01*
X124661107Y-76042132D01*
X124682150Y-76029520D01*
X124704329Y-76019030D01*
X124727428Y-76010765D01*
X124751227Y-76004804D01*
X124775495Y-76001204D01*
X124799999Y-76000000D01*
X125450001Y-76000000D01*
X125474505Y-76001204D01*
G37*
G04 #@! TD.AperFunction*
D17*
X124812400Y-74723900D03*
X127548200Y-96818600D03*
X114564800Y-97074100D03*
X121047100Y-81083700D03*
X108650000Y-69100000D03*
X105350000Y-68750000D03*
X110730000Y-75180000D03*
X120396000Y-106172000D03*
X112776000Y-105918000D03*
X138060000Y-92620000D03*
X138080000Y-88630000D03*
X137668000Y-99568000D03*
X137922000Y-101600000D03*
X113792000Y-91948000D03*
X113538000Y-84582000D03*
X121630400Y-83855600D03*
X121920000Y-90932000D03*
X118364000Y-88900000D03*
X118110000Y-69596000D03*
X100000000Y-100180000D03*
X100000000Y-105220000D03*
X103970000Y-92490000D03*
X111150000Y-70270000D03*
X100650000Y-70460000D03*
X104435000Y-83975000D03*
X104470000Y-100570000D03*
X108390000Y-106500000D03*
X104100000Y-106400000D03*
X132537350Y-70972650D03*
X109257400Y-88113300D03*
X108354500Y-86164100D03*
X110716500Y-95212700D03*
X124938500Y-86133600D03*
X130131800Y-90183100D03*
X129492900Y-93276900D03*
X114200000Y-81071500D03*
X114120700Y-73924300D03*
X119000000Y-81055400D03*
X120547500Y-78165400D03*
X118700000Y-73000000D03*
D18*
X124812400Y-74723900D02*
X123075000Y-76461300D01*
X123075000Y-76461300D02*
X123075000Y-76700000D01*
X125241800Y-76816800D02*
X125241800Y-80758200D01*
X125241800Y-80758200D02*
X124193200Y-81806800D01*
X124193200Y-81806800D02*
X124193200Y-93074700D01*
X124193200Y-93074700D02*
X127548200Y-96429700D01*
X127548200Y-96429700D02*
X127548200Y-96818600D01*
X125241800Y-76816800D02*
X125125000Y-76700000D01*
X125241800Y-76816800D02*
X127258200Y-76816800D01*
X127258200Y-76816800D02*
X127375000Y-76700000D01*
X115000000Y-95637600D02*
X115000000Y-95100000D01*
X115000000Y-95637600D02*
X115000000Y-96175300D01*
X107120000Y-110300000D02*
X107120000Y-109124700D01*
X107150000Y-104350000D02*
X107150000Y-109094700D01*
X107150000Y-109094700D02*
X107120000Y-109124700D01*
X115000000Y-96175300D02*
X114564800Y-96610500D01*
X114564800Y-96610500D02*
X114564800Y-97074100D01*
X106900000Y-83975000D02*
X104435000Y-83975000D01*
X121800000Y-103620000D02*
X119824700Y-103620000D01*
X121800000Y-103620000D02*
X124405000Y-103620000D01*
X124405000Y-103620000D02*
X124800000Y-103225000D01*
X118481300Y-106938700D02*
X119824700Y-105595300D01*
X121047100Y-81083700D02*
X120282100Y-81848700D01*
X120282100Y-81848700D02*
X113944800Y-81848700D01*
X113944800Y-81848700D02*
X113400000Y-81303900D01*
X113400000Y-81303900D02*
X113400000Y-80775300D01*
X121047100Y-81083700D02*
X121091600Y-81083700D01*
X121091600Y-81083700D02*
X121400000Y-80775300D01*
X114225000Y-76700000D02*
X114225000Y-76063100D01*
X121400000Y-79700000D02*
X121400000Y-80775300D01*
X113400000Y-79700000D02*
X113400000Y-80775300D01*
X117775000Y-76700000D02*
X117775000Y-75340300D01*
X111400000Y-100980000D02*
X111400000Y-99825000D01*
X111400000Y-101575000D02*
X111400000Y-100980000D01*
X112424700Y-100980000D02*
X111400000Y-100980000D01*
X114400000Y-100980000D02*
X112424700Y-100980000D01*
X116600000Y-95100000D02*
X116600000Y-96398600D01*
X116600000Y-96398600D02*
X115873600Y-97125000D01*
X115873600Y-97125000D02*
X115873600Y-99506400D01*
X115873600Y-99506400D02*
X114400000Y-100980000D01*
X112200000Y-109124700D02*
X110345600Y-107270300D01*
X110345600Y-107270300D02*
X110345600Y-102629400D01*
X110345600Y-102629400D02*
X111400000Y-101575000D01*
X112200000Y-110300000D02*
X112200000Y-109124700D01*
X134200000Y-93575300D02*
X132960000Y-94815300D01*
X132960000Y-94815300D02*
X132960000Y-98220000D01*
X134200000Y-92400000D02*
X134200000Y-93575300D01*
X134200000Y-89860000D02*
X134200000Y-92400000D01*
X132960000Y-102124700D02*
X132592600Y-102124700D01*
X132592600Y-102124700D02*
X131784700Y-101316800D01*
X131784700Y-101316800D02*
X131784700Y-90543300D01*
X131784700Y-90543300D02*
X133832700Y-88495300D01*
X133832700Y-88495300D02*
X134200000Y-88495300D01*
X115800000Y-95100000D02*
X115800000Y-87042000D01*
X115800000Y-87042000D02*
X117133000Y-85709000D01*
X115800000Y-95637600D02*
X115800000Y-95100000D01*
X103210000Y-70185000D02*
X105625000Y-72600000D01*
X107400000Y-76675000D02*
X107400000Y-74375000D01*
X107400000Y-74375000D02*
X105625000Y-72600000D01*
X117133000Y-85709000D02*
X117447600Y-85709000D01*
X117447600Y-85709000D02*
X122200000Y-80956600D01*
X122200000Y-80956600D02*
X122200000Y-80775300D01*
X117133000Y-85709000D02*
X112600000Y-81176000D01*
X112600000Y-81176000D02*
X112600000Y-79700000D01*
X122200000Y-79700000D02*
X122200000Y-80775300D01*
X120133800Y-76700000D02*
X122200000Y-78766200D01*
X122200000Y-78766200D02*
X122200000Y-79700000D01*
X132960000Y-103300000D02*
X132960000Y-102124700D01*
X134200000Y-87320000D02*
X134200000Y-88495300D01*
X115800000Y-95637600D02*
X115800000Y-96175300D01*
X112175000Y-76700000D02*
X107425000Y-76700000D01*
X107425000Y-76700000D02*
X107400000Y-76675000D01*
X112600000Y-78624700D02*
X112600000Y-77125000D01*
X112600000Y-77125000D02*
X112175000Y-76700000D01*
X129880000Y-64600000D02*
X131055300Y-64600000D01*
X129425000Y-76700000D02*
X138692100Y-67432900D01*
X138692100Y-67432900D02*
X138692100Y-64048100D01*
X138692100Y-64048100D02*
X138068700Y-63424700D01*
X138068700Y-63424700D02*
X131863200Y-63424700D01*
X131863200Y-63424700D02*
X131055300Y-64232600D01*
X131055300Y-64232600D02*
X131055300Y-64600000D01*
X120133800Y-76700000D02*
X119825000Y-76700000D01*
X129880000Y-65775300D02*
X120133800Y-75521500D01*
X120133800Y-75521500D02*
X120133800Y-76700000D01*
X129880000Y-64600000D02*
X129880000Y-65775300D01*
X112600000Y-79700000D02*
X112600000Y-78624700D01*
X111424400Y-97799400D02*
X111400000Y-97775000D01*
X115800000Y-96175300D02*
X115349700Y-96625600D01*
X115349700Y-96625600D02*
X115349700Y-97315000D01*
X115349700Y-97315000D02*
X114865300Y-97799400D01*
X114865300Y-97799400D02*
X111424400Y-97799400D01*
X109660000Y-110300000D02*
X109660000Y-99563800D01*
X109660000Y-99563800D02*
X111424400Y-97799400D01*
X103210000Y-70185000D02*
X103195000Y-70185000D01*
X99400000Y-66390000D02*
X99400000Y-64600000D01*
X103195000Y-70185000D02*
X99400000Y-66390000D01*
X121800000Y-100980000D02*
X119824700Y-100980000D01*
X119824700Y-100980000D02*
X119824700Y-99099700D01*
X119824700Y-99099700D02*
X118825000Y-98100000D01*
X124800000Y-101175000D02*
X124605000Y-100980000D01*
X124605000Y-100980000D02*
X121800000Y-100980000D01*
X118593800Y-97886100D02*
X118611100Y-97886100D01*
X118611100Y-97886100D02*
X118825000Y-98100000D01*
X117280000Y-110300000D02*
X117280000Y-109124700D01*
X118593800Y-97886100D02*
X118200000Y-97492300D01*
X118200000Y-97492300D02*
X118200000Y-95100000D01*
X117280000Y-109124700D02*
X117159600Y-109004300D01*
X117159600Y-109004300D02*
X117159600Y-99320300D01*
X117159600Y-99320300D02*
X118593800Y-97886100D01*
X114740000Y-109124700D02*
X116367700Y-107497000D01*
X116367700Y-107497000D02*
X116367700Y-103620000D01*
X116367700Y-103620000D02*
X116647200Y-103340500D01*
X116647200Y-103340500D02*
X116647200Y-98227800D01*
X116647200Y-98227800D02*
X116775000Y-98100000D01*
X115387700Y-103620000D02*
X116367700Y-103620000D01*
X114598800Y-103620000D02*
X114593800Y-103625000D01*
X114593800Y-103625000D02*
X111400000Y-103625000D01*
X114400000Y-103620000D02*
X114598800Y-103620000D01*
X115387700Y-103620000D02*
X114598800Y-103620000D01*
X114740000Y-110300000D02*
X114740000Y-109124700D01*
X117400000Y-95100000D02*
X117400000Y-97475000D01*
X117400000Y-97475000D02*
X116775000Y-98100000D01*
X106900000Y-86025000D02*
X105674600Y-86025000D01*
X105674600Y-86025000D02*
X104609800Y-84960200D01*
X104609800Y-84960200D02*
X95233200Y-84960200D01*
X95233200Y-84960200D02*
X94435400Y-85758000D01*
X94435400Y-85758000D02*
X94435400Y-86613600D01*
X94435400Y-86613600D02*
X95272200Y-87450400D01*
X95272200Y-87450400D02*
X106295400Y-87450400D01*
X106295400Y-87450400D02*
X106920000Y-88075000D01*
X110900000Y-82200000D02*
X109824700Y-82200000D01*
X109824700Y-82200000D02*
X108065700Y-80441000D01*
X108065700Y-80441000D02*
X106376300Y-80441000D01*
X106376300Y-80441000D02*
X96875300Y-70940000D01*
X95700000Y-70940000D02*
X96875300Y-70940000D01*
X132960000Y-100760000D02*
X132960000Y-99584700D01*
X134200000Y-84780000D02*
X134200000Y-85955300D01*
X134200000Y-85955300D02*
X134567300Y-85955300D01*
X134567300Y-85955300D02*
X135375700Y-86763700D01*
X135375700Y-86763700D02*
X135375700Y-95543700D01*
X135375700Y-95543700D02*
X134135300Y-96784100D01*
X134135300Y-96784100D02*
X134135300Y-98776800D01*
X134135300Y-98776800D02*
X133327400Y-99584700D01*
X133327400Y-99584700D02*
X132960000Y-99584700D01*
X110900000Y-83000000D02*
X109824700Y-83000000D01*
X109824700Y-83000000D02*
X107716000Y-80891300D01*
X107716000Y-80891300D02*
X104286600Y-80891300D01*
X104286600Y-80891300D02*
X96875300Y-73480000D01*
X135500000Y-103300000D02*
X135500000Y-102124700D01*
X134200000Y-82240000D02*
X134200000Y-83415300D01*
X134200000Y-83415300D02*
X134567300Y-83415300D01*
X134567300Y-83415300D02*
X136675300Y-85523300D01*
X136675300Y-85523300D02*
X136675300Y-101316800D01*
X136675300Y-101316800D02*
X135867400Y-102124700D01*
X135867400Y-102124700D02*
X135500000Y-102124700D01*
X95700000Y-73480000D02*
X96875300Y-73480000D01*
X110900000Y-89400000D02*
X109929400Y-89400000D01*
X109929400Y-89400000D02*
X105529400Y-93800000D01*
X105529400Y-93800000D02*
X95700000Y-93800000D01*
X95700000Y-106500000D02*
X96875300Y-106500000D01*
X110900000Y-93400000D02*
X109661700Y-93400000D01*
X109661700Y-93400000D02*
X96875300Y-106186400D01*
X96875300Y-106186400D02*
X96875300Y-106500000D01*
X109824700Y-92600000D02*
X99640000Y-102784700D01*
X99640000Y-102784700D02*
X95700000Y-102784700D01*
X110900000Y-92600000D02*
X109824700Y-92600000D01*
X95700000Y-103960000D02*
X95700000Y-102784700D01*
X95700000Y-102784700D02*
X95332700Y-102784700D01*
X95332700Y-102784700D02*
X94487700Y-101939700D01*
X94487700Y-101939700D02*
X94487700Y-90774100D01*
X94487700Y-90774100D02*
X95187600Y-90074200D01*
X95187600Y-90074200D02*
X106869200Y-90074200D01*
X106869200Y-90074200D02*
X106920000Y-90125000D01*
X95700000Y-101420000D02*
X96875300Y-101420000D01*
X110900000Y-91800000D02*
X109824700Y-91800000D01*
X109824700Y-91800000D02*
X105284700Y-96340000D01*
X105284700Y-96340000D02*
X101955300Y-96340000D01*
X101955300Y-96340000D02*
X96875300Y-101420000D01*
X109824700Y-91000000D02*
X104935000Y-95889700D01*
X104935000Y-95889700D02*
X99865600Y-95889700D01*
X99865600Y-95889700D02*
X96875300Y-98880000D01*
X110900000Y-91000000D02*
X109824700Y-91000000D01*
X95700000Y-98880000D02*
X96875300Y-98880000D01*
X95700000Y-96340000D02*
X96875300Y-96340000D01*
X110900000Y-90200000D02*
X109824700Y-90200000D01*
X109824700Y-90200000D02*
X104860000Y-95164700D01*
X104860000Y-95164700D02*
X98050600Y-95164700D01*
X98050600Y-95164700D02*
X96875300Y-96340000D01*
X96875300Y-91260000D02*
X107397300Y-91260000D01*
X107397300Y-91260000D02*
X109824700Y-88832600D01*
X109824700Y-88832600D02*
X109824700Y-88600000D01*
X110900000Y-88600000D02*
X109824700Y-88600000D01*
X95700000Y-91260000D02*
X96875300Y-91260000D01*
X109824700Y-87800000D02*
X109511400Y-88113300D01*
X109511400Y-88113300D02*
X109257400Y-88113300D01*
X110900000Y-87800000D02*
X109824700Y-87800000D01*
X95700000Y-86180000D02*
X96875300Y-86180000D01*
X110900000Y-87000000D02*
X97695300Y-87000000D01*
X97695300Y-87000000D02*
X96875300Y-86180000D01*
X110900000Y-86200000D02*
X109824700Y-86200000D01*
X108354500Y-86164100D02*
X109788800Y-86164100D01*
X109788800Y-86164100D02*
X109824700Y-86200000D01*
X95700000Y-81100000D02*
X96875300Y-81100000D01*
X110900000Y-85400000D02*
X109824700Y-85400000D01*
X109824700Y-85400000D02*
X109824700Y-85308900D01*
X109824700Y-85308900D02*
X107586900Y-83071100D01*
X107586900Y-83071100D02*
X98846400Y-83071100D01*
X98846400Y-83071100D02*
X96875300Y-81100000D01*
X109824700Y-84600000D02*
X107582100Y-82357400D01*
X107582100Y-82357400D02*
X100672700Y-82357400D01*
X100672700Y-82357400D02*
X96875300Y-78560000D01*
X95700000Y-78560000D02*
X96875300Y-78560000D01*
X110900000Y-84600000D02*
X109824700Y-84600000D01*
X109824700Y-83800000D02*
X107366300Y-81341600D01*
X107366300Y-81341600D02*
X102196900Y-81341600D01*
X102196900Y-81341600D02*
X96875300Y-76020000D01*
X95700000Y-76020000D02*
X96875300Y-76020000D01*
X110900000Y-83800000D02*
X109824700Y-83800000D01*
X107400000Y-78725000D02*
X107400000Y-78975300D01*
X107400000Y-78975300D02*
X109824700Y-81400000D01*
X107400000Y-78725000D02*
X106261400Y-78725000D01*
X106261400Y-78725000D02*
X96875300Y-69338900D01*
X96875300Y-69338900D02*
X96875300Y-68400000D01*
X95700000Y-68400000D02*
X96875300Y-68400000D01*
X110900000Y-81400000D02*
X109824700Y-81400000D01*
X124600000Y-95100000D02*
X124803700Y-95100000D01*
X124803700Y-95100000D02*
X128990700Y-99287000D01*
X128990700Y-99287000D02*
X128990700Y-104185100D01*
X128990700Y-104185100D02*
X131538500Y-106732900D01*
X131538500Y-106732900D02*
X133225000Y-106732900D01*
X133225000Y-106732900D02*
X136424700Y-109932600D01*
X136424700Y-109932600D02*
X136424700Y-110300000D01*
X137600000Y-110300000D02*
X136424700Y-110300000D01*
X123800000Y-96175300D02*
X125242100Y-96175300D01*
X125242100Y-96175300D02*
X128540400Y-99473600D01*
X128540400Y-99473600D02*
X128540400Y-104400600D01*
X128540400Y-104400600D02*
X133884700Y-109744900D01*
X133884700Y-109744900D02*
X133884700Y-110300000D01*
X135060000Y-110300000D02*
X133884700Y-110300000D01*
X123800000Y-95100000D02*
X123800000Y-96175300D01*
X123000000Y-96175300D02*
X123937000Y-97112300D01*
X123937000Y-97112300D02*
X125535600Y-97112300D01*
X125535600Y-97112300D02*
X128090100Y-99666800D01*
X128090100Y-99666800D02*
X128090100Y-104694800D01*
X128090100Y-104694800D02*
X132520000Y-109124700D01*
X132520000Y-110300000D02*
X132520000Y-109124700D01*
X123000000Y-95100000D02*
X123000000Y-96175300D01*
X122200000Y-96175300D02*
X123587400Y-97562700D01*
X123587400Y-97562700D02*
X125349000Y-97562700D01*
X125349000Y-97562700D02*
X127639800Y-99853500D01*
X127639800Y-99853500D02*
X127639800Y-106784500D01*
X127639800Y-106784500D02*
X129980000Y-109124700D01*
X129980000Y-110300000D02*
X129980000Y-109124700D01*
X122200000Y-95100000D02*
X122200000Y-96175300D01*
X121400000Y-96175300D02*
X123237700Y-98013000D01*
X123237700Y-98013000D02*
X125162400Y-98013000D01*
X125162400Y-98013000D02*
X127189500Y-100040100D01*
X127189500Y-100040100D02*
X127189500Y-108874200D01*
X127189500Y-108874200D02*
X127440000Y-109124700D01*
X127440000Y-110300000D02*
X127440000Y-109124700D01*
X121400000Y-95100000D02*
X121400000Y-96175300D01*
X120600000Y-96175300D02*
X122888000Y-98463300D01*
X122888000Y-98463300D02*
X124975800Y-98463300D01*
X124975800Y-98463300D02*
X126739200Y-100226700D01*
X126739200Y-100226700D02*
X126739200Y-107285500D01*
X126739200Y-107285500D02*
X124900000Y-109124700D01*
X124900000Y-110300000D02*
X124900000Y-109124700D01*
X120600000Y-95100000D02*
X120600000Y-96175300D01*
X119800000Y-96175300D02*
X122763400Y-99138700D01*
X122763400Y-99138700D02*
X125014300Y-99138700D01*
X125014300Y-99138700D02*
X126288900Y-100413300D01*
X126288900Y-100413300D02*
X126288900Y-105195800D01*
X126288900Y-105195800D02*
X122360000Y-109124700D01*
X119800000Y-95100000D02*
X119800000Y-96175300D01*
X122360000Y-110300000D02*
X122360000Y-109124700D01*
X119000000Y-96175300D02*
X122413800Y-99589100D01*
X122413800Y-99589100D02*
X124827800Y-99589100D01*
X124827800Y-99589100D02*
X125838600Y-100599900D01*
X125838600Y-100599900D02*
X125838600Y-103788400D01*
X125838600Y-103788400D02*
X120502300Y-109124700D01*
X120502300Y-109124700D02*
X119820000Y-109124700D01*
X119820000Y-110300000D02*
X119820000Y-109124700D01*
X119000000Y-95100000D02*
X119000000Y-96175300D01*
X104580000Y-109124700D02*
X105517300Y-108187400D01*
X105517300Y-108187400D02*
X105517300Y-102066100D01*
X105517300Y-102066100D02*
X110957700Y-96625700D01*
X110957700Y-96625700D02*
X113749600Y-96625700D01*
X113749600Y-96625700D02*
X114200000Y-96175300D01*
X104580000Y-110300000D02*
X104580000Y-109124700D01*
X114200000Y-95100000D02*
X114200000Y-96175300D01*
X113400000Y-95100000D02*
X113400000Y-94024700D01*
X113400000Y-94024700D02*
X111904500Y-94024700D01*
X111904500Y-94024700D02*
X110716500Y-95212700D01*
X99500000Y-110300000D02*
X99500000Y-109124700D01*
X112600000Y-95100000D02*
X112600000Y-96175300D01*
X112600000Y-96175300D02*
X110771200Y-96175300D01*
X110771200Y-96175300D02*
X104455300Y-102491200D01*
X104455300Y-102491200D02*
X104455300Y-104463200D01*
X104455300Y-104463200D02*
X99793800Y-109124700D01*
X99793800Y-109124700D02*
X99500000Y-109124700D01*
X127375300Y-81400000D02*
X127375300Y-80409200D01*
X127375300Y-80409200D02*
X139384500Y-68400000D01*
X139384500Y-68400000D02*
X141300000Y-68400000D01*
X126300000Y-81400000D02*
X127375300Y-81400000D01*
X127375300Y-82200000D02*
X128172700Y-81402600D01*
X128172700Y-81402600D02*
X128172700Y-80248800D01*
X128172700Y-80248800D02*
X137481500Y-70940000D01*
X137481500Y-70940000D02*
X141300000Y-70940000D01*
X126300000Y-82200000D02*
X127375300Y-82200000D01*
X127375300Y-83000000D02*
X128848100Y-81527200D01*
X128848100Y-81527200D02*
X128848100Y-80220000D01*
X128848100Y-80220000D02*
X135588100Y-73480000D01*
X135588100Y-73480000D02*
X141300000Y-73480000D01*
X126300000Y-83000000D02*
X127375300Y-83000000D01*
X127375300Y-83800000D02*
X129298400Y-81876900D01*
X129298400Y-81876900D02*
X129298400Y-80406700D01*
X129298400Y-80406700D02*
X133685100Y-76020000D01*
X133685100Y-76020000D02*
X141300000Y-76020000D01*
X126300000Y-83800000D02*
X127375300Y-83800000D01*
X127375300Y-84600000D02*
X129748700Y-82226600D01*
X129748700Y-82226600D02*
X129748700Y-80619400D01*
X129748700Y-80619400D02*
X132767500Y-77600600D01*
X132767500Y-77600600D02*
X139165300Y-77600600D01*
X139165300Y-77600600D02*
X140124700Y-78560000D01*
X141300000Y-78560000D02*
X140124700Y-78560000D01*
X126300000Y-84600000D02*
X127375300Y-84600000D01*
X141300000Y-81100000D02*
X140124700Y-81100000D01*
X126300000Y-85400000D02*
X127375300Y-85400000D01*
X127375300Y-85400000D02*
X130752800Y-82022500D01*
X130752800Y-82022500D02*
X130752800Y-80252200D01*
X130752800Y-80252200D02*
X132954000Y-78051000D01*
X132954000Y-78051000D02*
X137075700Y-78051000D01*
X137075700Y-78051000D02*
X140124700Y-81100000D01*
X127375300Y-86200000D02*
X132075400Y-81499900D01*
X132075400Y-81499900D02*
X132075400Y-79648600D01*
X132075400Y-79648600D02*
X133209300Y-78514700D01*
X133209300Y-78514700D02*
X135219800Y-78514700D01*
X135219800Y-78514700D02*
X140124700Y-83419600D01*
X140124700Y-83419600D02*
X140124700Y-83640000D01*
X141300000Y-83640000D02*
X140124700Y-83640000D01*
X126300000Y-86200000D02*
X127375300Y-86200000D01*
X126300000Y-87000000D02*
X125224700Y-87000000D01*
X125224700Y-87000000D02*
X125224700Y-86419800D01*
X125224700Y-86419800D02*
X124938500Y-86133600D01*
X141300000Y-88720000D02*
X141300000Y-87544700D01*
X126300000Y-87800000D02*
X127375300Y-87800000D01*
X127375300Y-87800000D02*
X127375300Y-87395300D01*
X127375300Y-87395300D02*
X133720300Y-81050300D01*
X133720300Y-81050300D02*
X134726800Y-81050300D01*
X134726800Y-81050300D02*
X140124700Y-86448200D01*
X140124700Y-86448200D02*
X140124700Y-86722400D01*
X140124700Y-86722400D02*
X140947000Y-87544700D01*
X140947000Y-87544700D02*
X141300000Y-87544700D01*
X126300000Y-88600000D02*
X128548700Y-88600000D01*
X128548700Y-88600000D02*
X130131800Y-90183100D01*
X141300000Y-93800000D02*
X141300000Y-94975300D01*
X126300000Y-89400000D02*
X127375300Y-89400000D01*
X127375300Y-89400000D02*
X131306700Y-93331400D01*
X131306700Y-93331400D02*
X131306700Y-103316500D01*
X131306700Y-103316500D02*
X132465600Y-104475400D01*
X132465600Y-104475400D02*
X136484800Y-104475400D01*
X136484800Y-104475400D02*
X138903400Y-102056800D01*
X138903400Y-102056800D02*
X138903400Y-97004600D01*
X138903400Y-97004600D02*
X140932700Y-94975300D01*
X140932700Y-94975300D02*
X141300000Y-94975300D01*
X127375300Y-90200000D02*
X127441800Y-90200000D01*
X127441800Y-90200000D02*
X130828700Y-93586900D01*
X130828700Y-93586900D02*
X130828700Y-103475400D01*
X130828700Y-103475400D02*
X132284900Y-104931600D01*
X132284900Y-104931600D02*
X136726500Y-104931600D01*
X136726500Y-104931600D02*
X140124700Y-101533400D01*
X140124700Y-101533400D02*
X140124700Y-98323200D01*
X140124700Y-98323200D02*
X140932600Y-97515300D01*
X140932600Y-97515300D02*
X141300000Y-97515300D01*
X141300000Y-96340000D02*
X141300000Y-97515300D01*
X126300000Y-90200000D02*
X127375300Y-90200000D01*
X126300000Y-91000000D02*
X127375300Y-91000000D01*
X127375300Y-91000000D02*
X127375300Y-91159300D01*
X127375300Y-91159300D02*
X129492900Y-93276900D01*
X127375300Y-91800000D02*
X128767600Y-93192300D01*
X128767600Y-93192300D02*
X128767600Y-93577300D01*
X128767600Y-93577300D02*
X130378400Y-95188100D01*
X130378400Y-95188100D02*
X130378400Y-103662000D01*
X130378400Y-103662000D02*
X132098300Y-105381900D01*
X132098300Y-105381900D02*
X137338100Y-105381900D01*
X137338100Y-105381900D02*
X141300000Y-101420000D01*
X126300000Y-91800000D02*
X127375300Y-91800000D01*
X127375300Y-92600000D02*
X127375300Y-92821900D01*
X127375300Y-92821900D02*
X129928100Y-95374700D01*
X129928100Y-95374700D02*
X129928100Y-103848600D01*
X129928100Y-103848600D02*
X131911700Y-105832200D01*
X131911700Y-105832200D02*
X138252500Y-105832200D01*
X138252500Y-105832200D02*
X140124700Y-103960000D01*
X126300000Y-92600000D02*
X127375300Y-92600000D01*
X141300000Y-103960000D02*
X140124700Y-103960000D01*
X140124700Y-106500000D02*
X139907200Y-106282500D01*
X139907200Y-106282500D02*
X131725100Y-106282500D01*
X131725100Y-106282500D02*
X129477700Y-104035100D01*
X129477700Y-104035100D02*
X129477700Y-96577700D01*
X129477700Y-96577700D02*
X126300000Y-93400000D01*
X141300000Y-106500000D02*
X140124700Y-106500000D01*
X114200000Y-80775300D02*
X114200000Y-81071500D01*
X114200000Y-79700000D02*
X114200000Y-80775300D01*
X115000000Y-79700000D02*
X115000000Y-78624700D01*
X115000000Y-78624700D02*
X114561100Y-78624700D01*
X114561100Y-78624700D02*
X113170100Y-77233700D01*
X113170100Y-77233700D02*
X113170100Y-76041400D01*
X113170100Y-76041400D02*
X107020000Y-69891300D01*
X107020000Y-69891300D02*
X107020000Y-64600000D01*
X109560000Y-65775300D02*
X115149800Y-71365100D01*
X115149800Y-71365100D02*
X115149800Y-77974500D01*
X115149800Y-77974500D02*
X115800000Y-78624700D01*
X109560000Y-64600000D02*
X109560000Y-65775300D01*
X115800000Y-79700000D02*
X115800000Y-78624700D01*
X112100000Y-64600000D02*
X112100000Y-65775300D01*
X116600000Y-79700000D02*
X116600000Y-78624700D01*
X116600000Y-78624700D02*
X115945400Y-77970100D01*
X115945400Y-77970100D02*
X115945400Y-69620700D01*
X115945400Y-69620700D02*
X112100000Y-65775300D01*
X114640000Y-64600000D02*
X114640000Y-65775300D01*
X117400000Y-79700000D02*
X117400000Y-78624700D01*
X117400000Y-78624700D02*
X116395800Y-77620500D01*
X116395800Y-77620500D02*
X116395800Y-67531100D01*
X116395800Y-67531100D02*
X114640000Y-65775300D01*
X117180000Y-64600000D02*
X117180000Y-65775300D01*
X118200000Y-79700000D02*
X118200000Y-78624700D01*
X118200000Y-78624700D02*
X118087200Y-78624700D01*
X118087200Y-78624700D02*
X116846200Y-77383700D01*
X116846200Y-77383700D02*
X116846200Y-66109100D01*
X116846200Y-66109100D02*
X117180000Y-65775300D01*
X118544700Y-64600000D02*
X118544700Y-64232600D01*
X118544700Y-64232600D02*
X117736800Y-63424700D01*
X117736800Y-63424700D02*
X109048000Y-63424700D01*
X109048000Y-63424700D02*
X108374600Y-64098100D01*
X108374600Y-64098100D02*
X108374600Y-65242900D01*
X108374600Y-65242900D02*
X114120700Y-70989000D01*
X114120700Y-70989000D02*
X114120700Y-73924300D01*
X119000000Y-80775300D02*
X119000000Y-81055400D01*
X119000000Y-79700000D02*
X119000000Y-80775300D01*
X119720000Y-64600000D02*
X118544700Y-64600000D01*
X122260000Y-64600000D02*
X123435300Y-64600000D01*
X119800000Y-79700000D02*
X119800000Y-78624700D01*
X119800000Y-78624700D02*
X118923600Y-77748300D01*
X118923600Y-77748300D02*
X118923600Y-74916600D01*
X118923600Y-74916600D02*
X128525400Y-65314800D01*
X128525400Y-65314800D02*
X128525400Y-64098100D01*
X128525400Y-64098100D02*
X127852000Y-63424700D01*
X127852000Y-63424700D02*
X124243200Y-63424700D01*
X124243200Y-63424700D02*
X123435300Y-64232600D01*
X123435300Y-64232600D02*
X123435300Y-64600000D01*
X120600000Y-79700000D02*
X120600000Y-78217900D01*
X120600000Y-78217900D02*
X120547500Y-78165400D01*
X124800000Y-65775300D02*
X124800000Y-64600000D01*
X118700000Y-73000000D02*
X118700000Y-71900000D01*
X118700000Y-71900000D02*
X124800000Y-65775300D01*
X132420000Y-65775300D02*
X131709600Y-65775300D01*
X131709600Y-65775300D02*
X121723300Y-75761600D01*
X121723300Y-75761600D02*
X121723300Y-77608800D01*
X121723300Y-77608800D02*
X123000000Y-78885500D01*
X123000000Y-78885500D02*
X123000000Y-79700000D01*
X132420000Y-64600000D02*
X132420000Y-65775300D01*
X123800000Y-79700000D02*
X123800000Y-78624700D01*
X134960000Y-64600000D02*
X133784700Y-64600000D01*
X123800000Y-78624700D02*
X123376100Y-78624700D01*
X123376100Y-78624700D02*
X122173600Y-77422200D01*
X122173600Y-77422200D02*
X122173600Y-75948200D01*
X122173600Y-75948200D02*
X125562400Y-72559400D01*
X125562400Y-72559400D02*
X126339500Y-72559400D01*
X126339500Y-72559400D02*
X133784700Y-65114200D01*
X133784700Y-65114200D02*
X133784700Y-64600000D01*
X124600000Y-79700000D02*
X124600000Y-78550700D01*
X124600000Y-78550700D02*
X124222800Y-78173500D01*
X124222800Y-78173500D02*
X124222800Y-75958600D01*
X124222800Y-75958600D02*
X124732200Y-75449200D01*
X124732200Y-75449200D02*
X125774600Y-75449200D01*
X125774600Y-75449200D02*
X136324700Y-64899100D01*
X136324700Y-64899100D02*
X136324700Y-64600000D01*
X137500000Y-64600000D02*
X136324700Y-64600000D01*
D19*
G36*
X110456613Y-104688405D02*
G01*
X110610149Y-104770472D01*
X110776745Y-104821008D01*
X110949999Y-104838072D01*
X111850001Y-104838072D01*
X112023255Y-104821008D01*
X112189851Y-104770472D01*
X112225253Y-104751549D01*
X112298815Y-104841185D01*
X112395506Y-104920537D01*
X112505820Y-104979502D01*
X112625518Y-105015812D01*
X112750000Y-105028072D01*
X115607701Y-105028072D01*
X115607700Y-107182197D01*
X114228998Y-108560901D01*
X114200000Y-108584699D01*
X114176202Y-108613697D01*
X114176201Y-108613698D01*
X114105026Y-108700424D01*
X114034454Y-108832454D01*
X114022438Y-108872068D01*
X113990998Y-108975714D01*
X113986912Y-109017203D01*
X113793368Y-109146525D01*
X113586525Y-109353368D01*
X113464805Y-109535534D01*
X113395178Y-109418645D01*
X113200269Y-109202412D01*
X112966920Y-109028359D01*
X112704099Y-108903175D01*
X112556890Y-108858524D01*
X112327000Y-108979845D01*
X112327000Y-110173000D01*
X112347000Y-110173000D01*
X112347000Y-110427000D01*
X112327000Y-110427000D01*
X112327000Y-110447000D01*
X112073000Y-110447000D01*
X112073000Y-110427000D01*
X112053000Y-110427000D01*
X112053000Y-110173000D01*
X112073000Y-110173000D01*
X112073000Y-108979845D01*
X111843110Y-108858524D01*
X111695901Y-108903175D01*
X111433080Y-109028359D01*
X111199731Y-109202412D01*
X111004822Y-109418645D01*
X110935195Y-109535534D01*
X110813475Y-109353368D01*
X110606632Y-109146525D01*
X110420000Y-109021822D01*
X110420000Y-104658357D01*
X110456613Y-104688405D01*
G37*
X110456613Y-104688405D02*
X110610149Y-104770472D01*
X110776745Y-104821008D01*
X110949999Y-104838072D01*
X111850001Y-104838072D01*
X112023255Y-104821008D01*
X112189851Y-104770472D01*
X112225253Y-104751549D01*
X112298815Y-104841185D01*
X112395506Y-104920537D01*
X112505820Y-104979502D01*
X112625518Y-105015812D01*
X112750000Y-105028072D01*
X115607701Y-105028072D01*
X115607700Y-107182197D01*
X114228998Y-108560901D01*
X114200000Y-108584699D01*
X114176202Y-108613697D01*
X114176201Y-108613698D01*
X114105026Y-108700424D01*
X114034454Y-108832454D01*
X114022438Y-108872068D01*
X113990998Y-108975714D01*
X113986912Y-109017203D01*
X113793368Y-109146525D01*
X113586525Y-109353368D01*
X113464805Y-109535534D01*
X113395178Y-109418645D01*
X113200269Y-109202412D01*
X112966920Y-109028359D01*
X112704099Y-108903175D01*
X112556890Y-108858524D01*
X112327000Y-108979845D01*
X112327000Y-110173000D01*
X112347000Y-110173000D01*
X112347000Y-110427000D01*
X112327000Y-110427000D01*
X112327000Y-110447000D01*
X112073000Y-110447000D01*
X112073000Y-110427000D01*
X112053000Y-110427000D01*
X112053000Y-110173000D01*
X112073000Y-110173000D01*
X112073000Y-108979845D01*
X111843110Y-108858524D01*
X111695901Y-108903175D01*
X111433080Y-109028359D01*
X111199731Y-109202412D01*
X111004822Y-109418645D01*
X110935195Y-109535534D01*
X110813475Y-109353368D01*
X110606632Y-109146525D01*
X110420000Y-109021822D01*
X110420000Y-104658357D01*
X110456613Y-104688405D01*
G36*
X108900000Y-109021821D02*
G01*
X108713368Y-109146525D01*
X108506525Y-109353368D01*
X108390000Y-109527760D01*
X108273475Y-109353368D01*
X108066632Y-109146525D01*
X107910000Y-109041867D01*
X107910000Y-105804909D01*
X107924463Y-105798918D01*
X108192252Y-105619987D01*
X108419987Y-105392252D01*
X108598918Y-105124463D01*
X108722168Y-104826912D01*
X108785000Y-104511033D01*
X108785000Y-104188967D01*
X108722168Y-103873088D01*
X108598918Y-103575537D01*
X108419987Y-103307748D01*
X108192252Y-103080013D01*
X107924463Y-102901082D01*
X107626912Y-102777832D01*
X107311033Y-102715000D01*
X106988967Y-102715000D01*
X106673088Y-102777832D01*
X106375537Y-102901082D01*
X106277300Y-102966722D01*
X106277300Y-102380901D01*
X108900001Y-99758201D01*
X108900000Y-109021821D01*
G37*
X108900000Y-109021821D02*
X108713368Y-109146525D01*
X108506525Y-109353368D01*
X108390000Y-109527760D01*
X108273475Y-109353368D01*
X108066632Y-109146525D01*
X107910000Y-109041867D01*
X107910000Y-105804909D01*
X107924463Y-105798918D01*
X108192252Y-105619987D01*
X108419987Y-105392252D01*
X108598918Y-105124463D01*
X108722168Y-104826912D01*
X108785000Y-104511033D01*
X108785000Y-104188967D01*
X108722168Y-103873088D01*
X108598918Y-103575537D01*
X108419987Y-103307748D01*
X108192252Y-103080013D01*
X107924463Y-102901082D01*
X107626912Y-102777832D01*
X107311033Y-102715000D01*
X106988967Y-102715000D01*
X106673088Y-102777832D01*
X106375537Y-102901082D01*
X106277300Y-102966722D01*
X106277300Y-102380901D01*
X108900001Y-99758201D01*
X108900000Y-109021821D01*
G36*
X104757300Y-107872598D02*
G01*
X104068998Y-108560901D01*
X104040000Y-108584699D01*
X104016202Y-108613697D01*
X104016201Y-108613698D01*
X103945026Y-108700424D01*
X103874454Y-108832454D01*
X103862438Y-108872068D01*
X103830998Y-108975714D01*
X103826912Y-109017203D01*
X103633368Y-109146525D01*
X103426525Y-109353368D01*
X103310000Y-109527760D01*
X103193475Y-109353368D01*
X102986632Y-109146525D01*
X102743411Y-108984010D01*
X102473158Y-108872068D01*
X102186260Y-108815000D01*
X101893740Y-108815000D01*
X101606842Y-108872068D01*
X101336589Y-108984010D01*
X101093368Y-109146525D01*
X100886525Y-109353368D01*
X100770000Y-109527760D01*
X100653475Y-109353368D01*
X100646704Y-109346597D01*
X104757300Y-105236001D01*
X104757300Y-107872598D01*
G37*
X104757300Y-107872598D02*
X104068998Y-108560901D01*
X104040000Y-108584699D01*
X104016202Y-108613697D01*
X104016201Y-108613698D01*
X103945026Y-108700424D01*
X103874454Y-108832454D01*
X103862438Y-108872068D01*
X103830998Y-108975714D01*
X103826912Y-109017203D01*
X103633368Y-109146525D01*
X103426525Y-109353368D01*
X103310000Y-109527760D01*
X103193475Y-109353368D01*
X102986632Y-109146525D01*
X102743411Y-108984010D01*
X102473158Y-108872068D01*
X102186260Y-108815000D01*
X101893740Y-108815000D01*
X101606842Y-108872068D01*
X101336589Y-108984010D01*
X101093368Y-109146525D01*
X100886525Y-109353368D01*
X100770000Y-109527760D01*
X100653475Y-109353368D01*
X100646704Y-109346597D01*
X104757300Y-105236001D01*
X104757300Y-107872598D01*
G36*
X118326745Y-99421008D02*
G01*
X118499999Y-99438072D01*
X119064701Y-99438072D01*
X119064700Y-100942667D01*
X119061023Y-100980000D01*
X119075697Y-101128986D01*
X119119154Y-101272247D01*
X119189726Y-101404276D01*
X119275673Y-101509003D01*
X119284699Y-101520001D01*
X119400424Y-101614974D01*
X119511928Y-101674575D01*
X119511928Y-101750000D01*
X119524188Y-101874482D01*
X119560498Y-101994180D01*
X119619463Y-102104494D01*
X119698815Y-102201185D01*
X119795506Y-102280537D01*
X119831918Y-102300000D01*
X119795506Y-102319463D01*
X119698815Y-102398815D01*
X119619463Y-102495506D01*
X119560498Y-102605820D01*
X119524188Y-102725518D01*
X119511928Y-102850000D01*
X119515000Y-103334250D01*
X119673750Y-103493000D01*
X121673000Y-103493000D01*
X121673000Y-103473000D01*
X121927000Y-103473000D01*
X121927000Y-103493000D01*
X121947000Y-103493000D01*
X121947000Y-103747000D01*
X121927000Y-103747000D01*
X121927000Y-104866250D01*
X122085750Y-105025000D01*
X123450000Y-105028072D01*
X123532224Y-105019974D01*
X120187499Y-108364700D01*
X119857333Y-108364700D01*
X119820000Y-108361023D01*
X119782667Y-108364700D01*
X119671014Y-108375697D01*
X119527753Y-108419154D01*
X119395724Y-108489726D01*
X119279999Y-108584699D01*
X119185026Y-108700424D01*
X119114454Y-108832453D01*
X119070997Y-108975714D01*
X119066911Y-109017204D01*
X118873368Y-109146525D01*
X118666525Y-109353368D01*
X118550000Y-109527760D01*
X118433475Y-109353368D01*
X118226632Y-109146525D01*
X118033089Y-109017204D01*
X118029003Y-108975714D01*
X117985546Y-108832453D01*
X117919600Y-108709079D01*
X117919600Y-104390000D01*
X119511928Y-104390000D01*
X119524188Y-104514482D01*
X119560498Y-104634180D01*
X119619463Y-104744494D01*
X119698815Y-104841185D01*
X119795506Y-104920537D01*
X119905820Y-104979502D01*
X120025518Y-105015812D01*
X120150000Y-105028072D01*
X121514250Y-105025000D01*
X121673000Y-104866250D01*
X121673000Y-103747000D01*
X119673750Y-103747000D01*
X119515000Y-103905750D01*
X119511928Y-104390000D01*
X117919600Y-104390000D01*
X117919600Y-99635101D01*
X118178625Y-99376077D01*
X118326745Y-99421008D01*
G37*
X118326745Y-99421008D02*
X118499999Y-99438072D01*
X119064701Y-99438072D01*
X119064700Y-100942667D01*
X119061023Y-100980000D01*
X119075697Y-101128986D01*
X119119154Y-101272247D01*
X119189726Y-101404276D01*
X119275673Y-101509003D01*
X119284699Y-101520001D01*
X119400424Y-101614974D01*
X119511928Y-101674575D01*
X119511928Y-101750000D01*
X119524188Y-101874482D01*
X119560498Y-101994180D01*
X119619463Y-102104494D01*
X119698815Y-102201185D01*
X119795506Y-102280537D01*
X119831918Y-102300000D01*
X119795506Y-102319463D01*
X119698815Y-102398815D01*
X119619463Y-102495506D01*
X119560498Y-102605820D01*
X119524188Y-102725518D01*
X119511928Y-102850000D01*
X119515000Y-103334250D01*
X119673750Y-103493000D01*
X121673000Y-103493000D01*
X121673000Y-103473000D01*
X121927000Y-103473000D01*
X121927000Y-103493000D01*
X121947000Y-103493000D01*
X121947000Y-103747000D01*
X121927000Y-103747000D01*
X121927000Y-104866250D01*
X122085750Y-105025000D01*
X123450000Y-105028072D01*
X123532224Y-105019974D01*
X120187499Y-108364700D01*
X119857333Y-108364700D01*
X119820000Y-108361023D01*
X119782667Y-108364700D01*
X119671014Y-108375697D01*
X119527753Y-108419154D01*
X119395724Y-108489726D01*
X119279999Y-108584699D01*
X119185026Y-108700424D01*
X119114454Y-108832453D01*
X119070997Y-108975714D01*
X119066911Y-109017204D01*
X118873368Y-109146525D01*
X118666525Y-109353368D01*
X118550000Y-109527760D01*
X118433475Y-109353368D01*
X118226632Y-109146525D01*
X118033089Y-109017204D01*
X118029003Y-108975714D01*
X117985546Y-108832453D01*
X117919600Y-108709079D01*
X117919600Y-104390000D01*
X119511928Y-104390000D01*
X119524188Y-104514482D01*
X119560498Y-104634180D01*
X119619463Y-104744494D01*
X119698815Y-104841185D01*
X119795506Y-104920537D01*
X119905820Y-104979502D01*
X120025518Y-105015812D01*
X120150000Y-105028072D01*
X121514250Y-105025000D01*
X121673000Y-104866250D01*
X121673000Y-103747000D01*
X119673750Y-103747000D01*
X119515000Y-103905750D01*
X119511928Y-104390000D01*
X117919600Y-104390000D01*
X117919600Y-99635101D01*
X118178625Y-99376077D01*
X118326745Y-99421008D01*
G36*
X105701082Y-98624463D02*
G01*
X105880013Y-98892252D01*
X106107748Y-99119987D01*
X106375537Y-99298918D01*
X106515009Y-99356689D01*
X103944303Y-101927396D01*
X103915299Y-101951199D01*
X103862939Y-102015000D01*
X103820326Y-102066924D01*
X103765764Y-102169002D01*
X103749754Y-102198954D01*
X103706297Y-102342215D01*
X103695300Y-102453868D01*
X103695300Y-102453878D01*
X103691624Y-102491200D01*
X103695300Y-102528523D01*
X103695301Y-103125091D01*
X103605807Y-103214585D01*
X103510044Y-102950186D01*
X103220429Y-102809296D01*
X102908892Y-102727616D01*
X102587405Y-102708282D01*
X102268325Y-102752039D01*
X101963912Y-102857205D01*
X101789956Y-102950186D01*
X101694192Y-103214587D01*
X102650000Y-104170395D01*
X102664143Y-104156253D01*
X102843748Y-104335858D01*
X102829605Y-104350000D01*
X102843748Y-104364143D01*
X102664143Y-104543748D01*
X102650000Y-104529605D01*
X101694192Y-105485413D01*
X101789956Y-105749814D01*
X101994419Y-105849280D01*
X99480783Y-108362916D01*
X99462667Y-108364700D01*
X99351014Y-108375697D01*
X99207753Y-108419154D01*
X99075724Y-108489726D01*
X98959999Y-108584699D01*
X98865026Y-108700424D01*
X98794454Y-108832453D01*
X98750997Y-108975714D01*
X98746911Y-109017204D01*
X98553368Y-109146525D01*
X98346525Y-109353368D01*
X98275232Y-109460066D01*
X98233977Y-109252665D01*
X98066684Y-108848785D01*
X97823813Y-108485303D01*
X97514697Y-108176187D01*
X97151215Y-107933316D01*
X96747335Y-107766023D01*
X96539934Y-107724768D01*
X96646632Y-107653475D01*
X96853475Y-107446632D01*
X96982796Y-107253089D01*
X97024286Y-107249003D01*
X97167547Y-107205546D01*
X97299576Y-107134974D01*
X97415301Y-107040001D01*
X97510274Y-106924276D01*
X97580846Y-106792247D01*
X97593601Y-106750199D01*
X97624303Y-106648986D01*
X97638977Y-106500000D01*
X97638755Y-106497746D01*
X99723906Y-104412595D01*
X101008282Y-104412595D01*
X101052039Y-104731675D01*
X101157205Y-105036088D01*
X101250186Y-105210044D01*
X101514587Y-105305808D01*
X102470395Y-104350000D01*
X101514587Y-103394192D01*
X101250186Y-103489956D01*
X101109296Y-103779571D01*
X101027616Y-104091108D01*
X101008282Y-104412595D01*
X99723906Y-104412595D01*
X105645712Y-98490789D01*
X105701082Y-98624463D01*
G37*
X105701082Y-98624463D02*
X105880013Y-98892252D01*
X106107748Y-99119987D01*
X106375537Y-99298918D01*
X106515009Y-99356689D01*
X103944303Y-101927396D01*
X103915299Y-101951199D01*
X103862939Y-102015000D01*
X103820326Y-102066924D01*
X103765764Y-102169002D01*
X103749754Y-102198954D01*
X103706297Y-102342215D01*
X103695300Y-102453868D01*
X103695300Y-102453878D01*
X103691624Y-102491200D01*
X103695300Y-102528523D01*
X103695301Y-103125091D01*
X103605807Y-103214585D01*
X103510044Y-102950186D01*
X103220429Y-102809296D01*
X102908892Y-102727616D01*
X102587405Y-102708282D01*
X102268325Y-102752039D01*
X101963912Y-102857205D01*
X101789956Y-102950186D01*
X101694192Y-103214587D01*
X102650000Y-104170395D01*
X102664143Y-104156253D01*
X102843748Y-104335858D01*
X102829605Y-104350000D01*
X102843748Y-104364143D01*
X102664143Y-104543748D01*
X102650000Y-104529605D01*
X101694192Y-105485413D01*
X101789956Y-105749814D01*
X101994419Y-105849280D01*
X99480783Y-108362916D01*
X99462667Y-108364700D01*
X99351014Y-108375697D01*
X99207753Y-108419154D01*
X99075724Y-108489726D01*
X98959999Y-108584699D01*
X98865026Y-108700424D01*
X98794454Y-108832453D01*
X98750997Y-108975714D01*
X98746911Y-109017204D01*
X98553368Y-109146525D01*
X98346525Y-109353368D01*
X98275232Y-109460066D01*
X98233977Y-109252665D01*
X98066684Y-108848785D01*
X97823813Y-108485303D01*
X97514697Y-108176187D01*
X97151215Y-107933316D01*
X96747335Y-107766023D01*
X96539934Y-107724768D01*
X96646632Y-107653475D01*
X96853475Y-107446632D01*
X96982796Y-107253089D01*
X97024286Y-107249003D01*
X97167547Y-107205546D01*
X97299576Y-107134974D01*
X97415301Y-107040001D01*
X97510274Y-106924276D01*
X97580846Y-106792247D01*
X97593601Y-106750199D01*
X97624303Y-106648986D01*
X97638977Y-106500000D01*
X97638755Y-106497746D01*
X99723906Y-104412595D01*
X101008282Y-104412595D01*
X101052039Y-104731675D01*
X101157205Y-105036088D01*
X101250186Y-105210044D01*
X101514587Y-105305808D01*
X102470395Y-104350000D01*
X101514587Y-103394192D01*
X101250186Y-103489956D01*
X101109296Y-103779571D01*
X101027616Y-104091108D01*
X101008282Y-104412595D01*
X99723906Y-104412595D01*
X105645712Y-98490789D01*
X105701082Y-98624463D01*
G36*
X124927000Y-103098000D02*
G01*
X124947000Y-103098000D01*
X124947000Y-103352000D01*
X124927000Y-103352000D01*
X124927000Y-103372000D01*
X124673000Y-103372000D01*
X124673000Y-103352000D01*
X124653000Y-103352000D01*
X124653000Y-103098000D01*
X124673000Y-103098000D01*
X124673000Y-103078000D01*
X124927000Y-103078000D01*
X124927000Y-103098000D01*
G37*
X124927000Y-103098000D02*
X124947000Y-103098000D01*
X124947000Y-103352000D01*
X124927000Y-103352000D01*
X124927000Y-103372000D01*
X124673000Y-103372000D01*
X124673000Y-103352000D01*
X124653000Y-103352000D01*
X124653000Y-103098000D01*
X124673000Y-103098000D01*
X124673000Y-103078000D01*
X124927000Y-103078000D01*
X124927000Y-103098000D01*
G36*
X139365057Y-86763360D02*
G01*
X139375697Y-86871386D01*
X139419154Y-87014647D01*
X139489726Y-87146676D01*
X139584699Y-87262401D01*
X139613701Y-87286202D01*
X140128237Y-87800738D01*
X139984010Y-88016589D01*
X139872068Y-88286842D01*
X139815000Y-88573740D01*
X139815000Y-88866260D01*
X139872068Y-89153158D01*
X139984010Y-89423411D01*
X140146525Y-89666632D01*
X140353368Y-89873475D01*
X140527760Y-89990000D01*
X140353368Y-90106525D01*
X140146525Y-90313368D01*
X139984010Y-90556589D01*
X139872068Y-90826842D01*
X139815000Y-91113740D01*
X139815000Y-91406260D01*
X139872068Y-91693158D01*
X139984010Y-91963411D01*
X140146525Y-92206632D01*
X140353368Y-92413475D01*
X140527760Y-92530000D01*
X140353368Y-92646525D01*
X140146525Y-92853368D01*
X139984010Y-93096589D01*
X139872068Y-93366842D01*
X139815000Y-93653740D01*
X139815000Y-93946260D01*
X139872068Y-94233158D01*
X139984010Y-94503411D01*
X140122509Y-94710689D01*
X138392398Y-96440801D01*
X138363400Y-96464599D01*
X138339602Y-96493597D01*
X138339601Y-96493598D01*
X138268426Y-96580324D01*
X138197854Y-96712354D01*
X138167580Y-96812158D01*
X138154398Y-96855614D01*
X138147219Y-96928501D01*
X138139724Y-97004600D01*
X138143401Y-97041932D01*
X138143400Y-101741998D01*
X136988072Y-102897327D01*
X136988072Y-102450000D01*
X136975812Y-102325518D01*
X136939502Y-102205820D01*
X136912186Y-102154716D01*
X137186302Y-101880599D01*
X137215301Y-101856801D01*
X137253731Y-101809974D01*
X137310274Y-101741077D01*
X137380846Y-101609047D01*
X137392468Y-101570733D01*
X137424303Y-101465786D01*
X137435300Y-101354133D01*
X137435300Y-101354124D01*
X137438976Y-101316801D01*
X137435300Y-101279478D01*
X137435300Y-85560622D01*
X137438976Y-85523299D01*
X137435300Y-85485976D01*
X137435300Y-85485967D01*
X137424303Y-85374314D01*
X137380846Y-85231053D01*
X137310274Y-85099024D01*
X137215301Y-84983299D01*
X137186304Y-84959502D01*
X135377491Y-83150690D01*
X135515990Y-82943411D01*
X135524519Y-82922820D01*
X139365057Y-86763360D01*
G37*
X139365057Y-86763360D02*
X139375697Y-86871386D01*
X139419154Y-87014647D01*
X139489726Y-87146676D01*
X139584699Y-87262401D01*
X139613701Y-87286202D01*
X140128237Y-87800738D01*
X139984010Y-88016589D01*
X139872068Y-88286842D01*
X139815000Y-88573740D01*
X139815000Y-88866260D01*
X139872068Y-89153158D01*
X139984010Y-89423411D01*
X140146525Y-89666632D01*
X140353368Y-89873475D01*
X140527760Y-89990000D01*
X140353368Y-90106525D01*
X140146525Y-90313368D01*
X139984010Y-90556589D01*
X139872068Y-90826842D01*
X139815000Y-91113740D01*
X139815000Y-91406260D01*
X139872068Y-91693158D01*
X139984010Y-91963411D01*
X140146525Y-92206632D01*
X140353368Y-92413475D01*
X140527760Y-92530000D01*
X140353368Y-92646525D01*
X140146525Y-92853368D01*
X139984010Y-93096589D01*
X139872068Y-93366842D01*
X139815000Y-93653740D01*
X139815000Y-93946260D01*
X139872068Y-94233158D01*
X139984010Y-94503411D01*
X140122509Y-94710689D01*
X138392398Y-96440801D01*
X138363400Y-96464599D01*
X138339602Y-96493597D01*
X138339601Y-96493598D01*
X138268426Y-96580324D01*
X138197854Y-96712354D01*
X138167580Y-96812158D01*
X138154398Y-96855614D01*
X138147219Y-96928501D01*
X138139724Y-97004600D01*
X138143401Y-97041932D01*
X138143400Y-101741998D01*
X136988072Y-102897327D01*
X136988072Y-102450000D01*
X136975812Y-102325518D01*
X136939502Y-102205820D01*
X136912186Y-102154716D01*
X137186302Y-101880599D01*
X137215301Y-101856801D01*
X137253731Y-101809974D01*
X137310274Y-101741077D01*
X137380846Y-101609047D01*
X137392468Y-101570733D01*
X137424303Y-101465786D01*
X137435300Y-101354133D01*
X137435300Y-101354124D01*
X137438976Y-101316801D01*
X137435300Y-101279478D01*
X137435300Y-85560622D01*
X137438976Y-85523299D01*
X137435300Y-85485976D01*
X137435300Y-85485967D01*
X137424303Y-85374314D01*
X137380846Y-85231053D01*
X137310274Y-85099024D01*
X137215301Y-84983299D01*
X137186304Y-84959502D01*
X135377491Y-83150690D01*
X135515990Y-82943411D01*
X135524519Y-82922820D01*
X139365057Y-86763360D01*
G36*
X102843748Y-97835858D02*
G01*
X102829605Y-97850000D01*
X102843748Y-97864143D01*
X102664143Y-98043748D01*
X102650000Y-98029605D01*
X101694192Y-98985413D01*
X101789956Y-99249814D01*
X101998590Y-99351309D01*
X99325199Y-102024700D01*
X97336465Y-102024700D01*
X97415301Y-101960001D01*
X97439104Y-101930997D01*
X101074220Y-98295881D01*
X101157205Y-98536088D01*
X101250186Y-98710044D01*
X101514587Y-98805808D01*
X102470395Y-97850000D01*
X102456253Y-97835858D01*
X102635858Y-97656253D01*
X102650000Y-97670395D01*
X102664143Y-97656253D01*
X102843748Y-97835858D01*
G37*
X102843748Y-97835858D02*
X102829605Y-97850000D01*
X102843748Y-97864143D01*
X102664143Y-98043748D01*
X102650000Y-98029605D01*
X101694192Y-98985413D01*
X101789956Y-99249814D01*
X101998590Y-99351309D01*
X99325199Y-102024700D01*
X97336465Y-102024700D01*
X97415301Y-101960001D01*
X97439104Y-101930997D01*
X101074220Y-98295881D01*
X101157205Y-98536088D01*
X101250186Y-98710044D01*
X101514587Y-98805808D01*
X102470395Y-97850000D01*
X102456253Y-97835858D01*
X102635858Y-97656253D01*
X102650000Y-97670395D01*
X102664143Y-97656253D01*
X102843748Y-97835858D01*
G36*
X111527000Y-99698000D02*
G01*
X111547000Y-99698000D01*
X111547000Y-99952000D01*
X111527000Y-99952000D01*
X111527000Y-101448000D01*
X111547000Y-101448000D01*
X111547000Y-101702000D01*
X111527000Y-101702000D01*
X111527000Y-101722000D01*
X111273000Y-101722000D01*
X111273000Y-101702000D01*
X111253000Y-101702000D01*
X111253000Y-101448000D01*
X111273000Y-101448000D01*
X111273000Y-99952000D01*
X111253000Y-99952000D01*
X111253000Y-99698000D01*
X111273000Y-99698000D01*
X111273000Y-99678000D01*
X111527000Y-99678000D01*
X111527000Y-99698000D01*
G37*
X111527000Y-99698000D02*
X111547000Y-99698000D01*
X111547000Y-99952000D01*
X111527000Y-99952000D01*
X111527000Y-101448000D01*
X111547000Y-101448000D01*
X111547000Y-101702000D01*
X111527000Y-101702000D01*
X111527000Y-101722000D01*
X111273000Y-101722000D01*
X111273000Y-101702000D01*
X111253000Y-101702000D01*
X111253000Y-101448000D01*
X111273000Y-101448000D01*
X111273000Y-99952000D01*
X111253000Y-99952000D01*
X111253000Y-99698000D01*
X111273000Y-99698000D01*
X111273000Y-99678000D01*
X111527000Y-99678000D01*
X111527000Y-99698000D01*
G36*
X115561928Y-98550001D02*
G01*
X115578992Y-98723255D01*
X115629528Y-98889851D01*
X115711595Y-99043387D01*
X115822038Y-99177962D01*
X115887201Y-99231440D01*
X115887201Y-99572295D01*
X114685750Y-99575000D01*
X114527000Y-99733750D01*
X114527000Y-100853000D01*
X114547000Y-100853000D01*
X114547000Y-101107000D01*
X114527000Y-101107000D01*
X114527000Y-101127000D01*
X114273000Y-101127000D01*
X114273000Y-101107000D01*
X114253000Y-101107000D01*
X114253000Y-100853000D01*
X114273000Y-100853000D01*
X114273000Y-99733750D01*
X114114250Y-99575000D01*
X112750000Y-99571928D01*
X112697113Y-99577137D01*
X112735000Y-99539250D01*
X112738072Y-99250000D01*
X112725812Y-99125518D01*
X112689502Y-99005820D01*
X112630537Y-98895506D01*
X112551185Y-98798815D01*
X112471406Y-98733342D01*
X112477962Y-98727962D01*
X112588405Y-98593387D01*
X112606571Y-98559400D01*
X114827978Y-98559400D01*
X114865300Y-98563076D01*
X114902622Y-98559400D01*
X114902633Y-98559400D01*
X115014286Y-98548403D01*
X115157547Y-98504946D01*
X115289576Y-98434374D01*
X115405301Y-98339401D01*
X115429104Y-98310397D01*
X115561928Y-98177573D01*
X115561928Y-98550001D01*
G37*
X115561928Y-98550001D02*
X115578992Y-98723255D01*
X115629528Y-98889851D01*
X115711595Y-99043387D01*
X115822038Y-99177962D01*
X115887201Y-99231440D01*
X115887201Y-99572295D01*
X114685750Y-99575000D01*
X114527000Y-99733750D01*
X114527000Y-100853000D01*
X114547000Y-100853000D01*
X114547000Y-101107000D01*
X114527000Y-101107000D01*
X114527000Y-101127000D01*
X114273000Y-101127000D01*
X114273000Y-101107000D01*
X114253000Y-101107000D01*
X114253000Y-100853000D01*
X114273000Y-100853000D01*
X114273000Y-99733750D01*
X114114250Y-99575000D01*
X112750000Y-99571928D01*
X112697113Y-99577137D01*
X112735000Y-99539250D01*
X112738072Y-99250000D01*
X112725812Y-99125518D01*
X112689502Y-99005820D01*
X112630537Y-98895506D01*
X112551185Y-98798815D01*
X112471406Y-98733342D01*
X112477962Y-98727962D01*
X112588405Y-98593387D01*
X112606571Y-98559400D01*
X114827978Y-98559400D01*
X114865300Y-98563076D01*
X114902622Y-98559400D01*
X114902633Y-98559400D01*
X115014286Y-98548403D01*
X115157547Y-98504946D01*
X115289576Y-98434374D01*
X115405301Y-98339401D01*
X115429104Y-98310397D01*
X115561928Y-98177573D01*
X115561928Y-98550001D01*
G36*
X134327000Y-89733000D02*
G01*
X134347000Y-89733000D01*
X134347000Y-89987000D01*
X134327000Y-89987000D01*
X134327000Y-92273000D01*
X134347000Y-92273000D01*
X134347000Y-92527000D01*
X134327000Y-92527000D01*
X134327000Y-93720814D01*
X134556891Y-93841481D01*
X134615701Y-93820619D01*
X134615701Y-95228897D01*
X133624303Y-96220296D01*
X133595299Y-96244099D01*
X133561361Y-96285453D01*
X133500326Y-96359824D01*
X133437847Y-96476714D01*
X133429754Y-96491854D01*
X133386297Y-96635115D01*
X133375300Y-96746768D01*
X133375300Y-96746778D01*
X133371624Y-96784100D01*
X133373036Y-96798435D01*
X133316891Y-96778519D01*
X133087000Y-96899186D01*
X133087000Y-98093000D01*
X133107000Y-98093000D01*
X133107000Y-98347000D01*
X133087000Y-98347000D01*
X133087000Y-98367000D01*
X132833000Y-98367000D01*
X132833000Y-98347000D01*
X132813000Y-98347000D01*
X132813000Y-98093000D01*
X132833000Y-98093000D01*
X132833000Y-96899186D01*
X132603109Y-96778519D01*
X132544700Y-96799238D01*
X132544700Y-92756890D01*
X132758524Y-92756890D01*
X132803175Y-92904099D01*
X132928359Y-93166920D01*
X133102412Y-93400269D01*
X133318645Y-93595178D01*
X133568748Y-93744157D01*
X133843109Y-93841481D01*
X134073000Y-93720814D01*
X134073000Y-92527000D01*
X132879845Y-92527000D01*
X132758524Y-92756890D01*
X132544700Y-92756890D01*
X132544700Y-90858101D01*
X132879164Y-90523637D01*
X132928359Y-90626920D01*
X133102412Y-90860269D01*
X133318645Y-91055178D01*
X133444255Y-91130000D01*
X133318645Y-91204822D01*
X133102412Y-91399731D01*
X132928359Y-91633080D01*
X132803175Y-91895901D01*
X132758524Y-92043110D01*
X132879845Y-92273000D01*
X134073000Y-92273000D01*
X134073000Y-89987000D01*
X134053000Y-89987000D01*
X134053000Y-89733000D01*
X134073000Y-89733000D01*
X134073000Y-89713000D01*
X134327000Y-89713000D01*
X134327000Y-89733000D01*
G37*
X134327000Y-89733000D02*
X134347000Y-89733000D01*
X134347000Y-89987000D01*
X134327000Y-89987000D01*
X134327000Y-92273000D01*
X134347000Y-92273000D01*
X134347000Y-92527000D01*
X134327000Y-92527000D01*
X134327000Y-93720814D01*
X134556891Y-93841481D01*
X134615701Y-93820619D01*
X134615701Y-95228897D01*
X133624303Y-96220296D01*
X133595299Y-96244099D01*
X133561361Y-96285453D01*
X133500326Y-96359824D01*
X133437847Y-96476714D01*
X133429754Y-96491854D01*
X133386297Y-96635115D01*
X133375300Y-96746768D01*
X133375300Y-96746778D01*
X133371624Y-96784100D01*
X133373036Y-96798435D01*
X133316891Y-96778519D01*
X133087000Y-96899186D01*
X133087000Y-98093000D01*
X133107000Y-98093000D01*
X133107000Y-98347000D01*
X133087000Y-98347000D01*
X133087000Y-98367000D01*
X132833000Y-98367000D01*
X132833000Y-98347000D01*
X132813000Y-98347000D01*
X132813000Y-98093000D01*
X132833000Y-98093000D01*
X132833000Y-96899186D01*
X132603109Y-96778519D01*
X132544700Y-96799238D01*
X132544700Y-92756890D01*
X132758524Y-92756890D01*
X132803175Y-92904099D01*
X132928359Y-93166920D01*
X133102412Y-93400269D01*
X133318645Y-93595178D01*
X133568748Y-93744157D01*
X133843109Y-93841481D01*
X134073000Y-93720814D01*
X134073000Y-92527000D01*
X132879845Y-92527000D01*
X132758524Y-92756890D01*
X132544700Y-92756890D01*
X132544700Y-90858101D01*
X132879164Y-90523637D01*
X132928359Y-90626920D01*
X133102412Y-90860269D01*
X133318645Y-91055178D01*
X133444255Y-91130000D01*
X133318645Y-91204822D01*
X133102412Y-91399731D01*
X132928359Y-91633080D01*
X132803175Y-91895901D01*
X132758524Y-92043110D01*
X132879845Y-92273000D01*
X134073000Y-92273000D01*
X134073000Y-89987000D01*
X134053000Y-89987000D01*
X134053000Y-89733000D01*
X134073000Y-89733000D01*
X134073000Y-89713000D01*
X134327000Y-89713000D01*
X134327000Y-89733000D01*
G36*
X116640000Y-96259982D02*
G01*
X116640001Y-96761928D01*
X116449999Y-96761928D01*
X116276745Y-96778992D01*
X116268655Y-96781446D01*
X116310997Y-96739104D01*
X116340001Y-96715301D01*
X116434974Y-96599576D01*
X116505546Y-96467547D01*
X116549003Y-96324286D01*
X116554701Y-96266439D01*
X116600000Y-96211241D01*
X116640000Y-96259982D01*
G37*
X116640000Y-96259982D02*
X116640001Y-96761928D01*
X116449999Y-96761928D01*
X116276745Y-96778992D01*
X116268655Y-96781446D01*
X116310997Y-96739104D01*
X116340001Y-96715301D01*
X116434974Y-96599576D01*
X116505546Y-96467547D01*
X116549003Y-96324286D01*
X116554701Y-96266439D01*
X116600000Y-96211241D01*
X116640000Y-96259982D01*
G36*
X123400518Y-81075812D02*
G01*
X123525000Y-81088072D01*
X123837127Y-81088072D01*
X123682202Y-81242996D01*
X123653199Y-81266799D01*
X123605447Y-81324986D01*
X123558226Y-81382524D01*
X123504787Y-81482500D01*
X123487654Y-81514554D01*
X123444197Y-81657815D01*
X123433200Y-81769468D01*
X123433200Y-81769478D01*
X123429524Y-81806800D01*
X123433200Y-81844122D01*
X123433201Y-93037368D01*
X123429524Y-93074700D01*
X123444198Y-93223685D01*
X123487654Y-93366946D01*
X123558226Y-93498976D01*
X123629401Y-93585702D01*
X123653200Y-93614701D01*
X123682198Y-93638499D01*
X123755627Y-93711928D01*
X123525000Y-93711928D01*
X123400518Y-93724188D01*
X123400000Y-93724345D01*
X123399482Y-93724188D01*
X123275000Y-93711928D01*
X122725000Y-93711928D01*
X122600518Y-93724188D01*
X122600000Y-93724345D01*
X122599482Y-93724188D01*
X122475000Y-93711928D01*
X121925000Y-93711928D01*
X121800518Y-93724188D01*
X121800000Y-93724345D01*
X121799482Y-93724188D01*
X121675000Y-93711928D01*
X121125000Y-93711928D01*
X121000518Y-93724188D01*
X121000000Y-93724345D01*
X120999482Y-93724188D01*
X120875000Y-93711928D01*
X120325000Y-93711928D01*
X120200518Y-93724188D01*
X120200000Y-93724345D01*
X120199482Y-93724188D01*
X120075000Y-93711928D01*
X119525000Y-93711928D01*
X119400518Y-93724188D01*
X119400000Y-93724345D01*
X119399482Y-93724188D01*
X119275000Y-93711928D01*
X118725000Y-93711928D01*
X118600518Y-93724188D01*
X118600000Y-93724345D01*
X118599482Y-93724188D01*
X118475000Y-93711928D01*
X117925000Y-93711928D01*
X117800518Y-93724188D01*
X117800000Y-93724345D01*
X117799482Y-93724188D01*
X117675000Y-93711928D01*
X117125000Y-93711928D01*
X117000518Y-93724188D01*
X116999337Y-93724546D01*
X116885750Y-93715000D01*
X116793667Y-93807083D01*
X116770506Y-93819463D01*
X116673815Y-93898815D01*
X116600000Y-93988759D01*
X116560000Y-93940019D01*
X116560000Y-87356801D01*
X117444437Y-86472364D01*
X117447600Y-86472676D01*
X117484922Y-86469000D01*
X117484933Y-86469000D01*
X117596586Y-86458003D01*
X117739847Y-86414546D01*
X117871876Y-86343974D01*
X117987601Y-86249001D01*
X118011404Y-86219997D01*
X122711004Y-81520398D01*
X122740001Y-81496601D01*
X122834974Y-81380876D01*
X122905546Y-81248847D01*
X122949003Y-81105586D01*
X122950728Y-81088072D01*
X123275000Y-81088072D01*
X123399482Y-81075812D01*
X123400000Y-81075655D01*
X123400518Y-81075812D01*
G37*
X123400518Y-81075812D02*
X123525000Y-81088072D01*
X123837127Y-81088072D01*
X123682202Y-81242996D01*
X123653199Y-81266799D01*
X123605447Y-81324986D01*
X123558226Y-81382524D01*
X123504787Y-81482500D01*
X123487654Y-81514554D01*
X123444197Y-81657815D01*
X123433200Y-81769468D01*
X123433200Y-81769478D01*
X123429524Y-81806800D01*
X123433200Y-81844122D01*
X123433201Y-93037368D01*
X123429524Y-93074700D01*
X123444198Y-93223685D01*
X123487654Y-93366946D01*
X123558226Y-93498976D01*
X123629401Y-93585702D01*
X123653200Y-93614701D01*
X123682198Y-93638499D01*
X123755627Y-93711928D01*
X123525000Y-93711928D01*
X123400518Y-93724188D01*
X123400000Y-93724345D01*
X123399482Y-93724188D01*
X123275000Y-93711928D01*
X122725000Y-93711928D01*
X122600518Y-93724188D01*
X122600000Y-93724345D01*
X122599482Y-93724188D01*
X122475000Y-93711928D01*
X121925000Y-93711928D01*
X121800518Y-93724188D01*
X121800000Y-93724345D01*
X121799482Y-93724188D01*
X121675000Y-93711928D01*
X121125000Y-93711928D01*
X121000518Y-93724188D01*
X121000000Y-93724345D01*
X120999482Y-93724188D01*
X120875000Y-93711928D01*
X120325000Y-93711928D01*
X120200518Y-93724188D01*
X120200000Y-93724345D01*
X120199482Y-93724188D01*
X120075000Y-93711928D01*
X119525000Y-93711928D01*
X119400518Y-93724188D01*
X119400000Y-93724345D01*
X119399482Y-93724188D01*
X119275000Y-93711928D01*
X118725000Y-93711928D01*
X118600518Y-93724188D01*
X118600000Y-93724345D01*
X118599482Y-93724188D01*
X118475000Y-93711928D01*
X117925000Y-93711928D01*
X117800518Y-93724188D01*
X117800000Y-93724345D01*
X117799482Y-93724188D01*
X117675000Y-93711928D01*
X117125000Y-93711928D01*
X117000518Y-93724188D01*
X116999337Y-93724546D01*
X116885750Y-93715000D01*
X116793667Y-93807083D01*
X116770506Y-93819463D01*
X116673815Y-93898815D01*
X116600000Y-93988759D01*
X116560000Y-93940019D01*
X116560000Y-87356801D01*
X117444437Y-86472364D01*
X117447600Y-86472676D01*
X117484922Y-86469000D01*
X117484933Y-86469000D01*
X117596586Y-86458003D01*
X117739847Y-86414546D01*
X117871876Y-86343974D01*
X117987601Y-86249001D01*
X118011404Y-86219997D01*
X122711004Y-81520398D01*
X122740001Y-81496601D01*
X122834974Y-81380876D01*
X122905546Y-81248847D01*
X122949003Y-81105586D01*
X122950728Y-81088072D01*
X123275000Y-81088072D01*
X123399482Y-81075812D01*
X123400000Y-81075655D01*
X123400518Y-81075812D01*
G36*
X116058198Y-85709000D02*
G01*
X115288998Y-86478201D01*
X115260000Y-86501999D01*
X115236202Y-86530997D01*
X115236201Y-86530998D01*
X115165026Y-86617724D01*
X115094454Y-86749754D01*
X115071971Y-86823874D01*
X115050998Y-86893014D01*
X115044420Y-86959801D01*
X115036324Y-87042000D01*
X115040001Y-87079332D01*
X115040000Y-93711928D01*
X114725000Y-93711928D01*
X114600518Y-93724188D01*
X114600000Y-93724345D01*
X114599482Y-93724188D01*
X114475000Y-93711928D01*
X114094575Y-93711928D01*
X114034974Y-93600424D01*
X113940001Y-93484699D01*
X113824276Y-93389726D01*
X113692247Y-93319154D01*
X113548986Y-93275697D01*
X113437333Y-93264700D01*
X113400000Y-93261023D01*
X113362667Y-93264700D01*
X112288072Y-93264700D01*
X112288072Y-93125000D01*
X112275812Y-93000518D01*
X112275655Y-93000000D01*
X112275812Y-92999482D01*
X112288072Y-92875000D01*
X112288072Y-92325000D01*
X112275812Y-92200518D01*
X112275655Y-92200000D01*
X112275812Y-92199482D01*
X112288072Y-92075000D01*
X112288072Y-91525000D01*
X112275812Y-91400518D01*
X112275655Y-91400000D01*
X112275812Y-91399482D01*
X112288072Y-91275000D01*
X112288072Y-90725000D01*
X112275812Y-90600518D01*
X112275655Y-90600000D01*
X112275812Y-90599482D01*
X112288072Y-90475000D01*
X112288072Y-89925000D01*
X112275812Y-89800518D01*
X112275655Y-89799999D01*
X112275812Y-89799482D01*
X112288072Y-89675000D01*
X112288072Y-89125000D01*
X112275812Y-89000518D01*
X112275655Y-89000000D01*
X112275812Y-88999482D01*
X112288072Y-88875000D01*
X112288072Y-88325000D01*
X112275812Y-88200518D01*
X112275655Y-88200000D01*
X112275812Y-88199482D01*
X112288072Y-88075000D01*
X112288072Y-87525000D01*
X112275812Y-87400518D01*
X112275655Y-87400000D01*
X112275812Y-87399482D01*
X112288072Y-87275000D01*
X112288072Y-86725000D01*
X112275812Y-86600518D01*
X112275655Y-86600000D01*
X112275812Y-86599482D01*
X112288072Y-86475000D01*
X112288072Y-85925000D01*
X112275812Y-85800518D01*
X112275655Y-85800000D01*
X112275812Y-85799482D01*
X112288072Y-85675000D01*
X112288072Y-85125000D01*
X112275812Y-85000518D01*
X112275655Y-85000000D01*
X112275812Y-84999482D01*
X112288072Y-84875000D01*
X112288072Y-84325000D01*
X112275812Y-84200518D01*
X112275655Y-84200000D01*
X112275812Y-84199482D01*
X112288072Y-84075000D01*
X112288072Y-83525000D01*
X112275812Y-83400518D01*
X112275655Y-83400000D01*
X112275812Y-83399482D01*
X112288072Y-83275000D01*
X112288072Y-82725000D01*
X112275812Y-82600518D01*
X112275655Y-82600000D01*
X112275812Y-82599482D01*
X112288072Y-82475000D01*
X112288072Y-81938873D01*
X116058198Y-85709000D01*
G37*
X116058198Y-85709000D02*
X115288998Y-86478201D01*
X115260000Y-86501999D01*
X115236202Y-86530997D01*
X115236201Y-86530998D01*
X115165026Y-86617724D01*
X115094454Y-86749754D01*
X115071971Y-86823874D01*
X115050998Y-86893014D01*
X115044420Y-86959801D01*
X115036324Y-87042000D01*
X115040001Y-87079332D01*
X115040000Y-93711928D01*
X114725000Y-93711928D01*
X114600518Y-93724188D01*
X114600000Y-93724345D01*
X114599482Y-93724188D01*
X114475000Y-93711928D01*
X114094575Y-93711928D01*
X114034974Y-93600424D01*
X113940001Y-93484699D01*
X113824276Y-93389726D01*
X113692247Y-93319154D01*
X113548986Y-93275697D01*
X113437333Y-93264700D01*
X113400000Y-93261023D01*
X113362667Y-93264700D01*
X112288072Y-93264700D01*
X112288072Y-93125000D01*
X112275812Y-93000518D01*
X112275655Y-93000000D01*
X112275812Y-92999482D01*
X112288072Y-92875000D01*
X112288072Y-92325000D01*
X112275812Y-92200518D01*
X112275655Y-92200000D01*
X112275812Y-92199482D01*
X112288072Y-92075000D01*
X112288072Y-91525000D01*
X112275812Y-91400518D01*
X112275655Y-91400000D01*
X112275812Y-91399482D01*
X112288072Y-91275000D01*
X112288072Y-90725000D01*
X112275812Y-90600518D01*
X112275655Y-90600000D01*
X112275812Y-90599482D01*
X112288072Y-90475000D01*
X112288072Y-89925000D01*
X112275812Y-89800518D01*
X112275655Y-89799999D01*
X112275812Y-89799482D01*
X112288072Y-89675000D01*
X112288072Y-89125000D01*
X112275812Y-89000518D01*
X112275655Y-89000000D01*
X112275812Y-88999482D01*
X112288072Y-88875000D01*
X112288072Y-88325000D01*
X112275812Y-88200518D01*
X112275655Y-88200000D01*
X112275812Y-88199482D01*
X112288072Y-88075000D01*
X112288072Y-87525000D01*
X112275812Y-87400518D01*
X112275655Y-87400000D01*
X112275812Y-87399482D01*
X112288072Y-87275000D01*
X112288072Y-86725000D01*
X112275812Y-86600518D01*
X112275655Y-86600000D01*
X112275812Y-86599482D01*
X112288072Y-86475000D01*
X112288072Y-85925000D01*
X112275812Y-85800518D01*
X112275655Y-85800000D01*
X112275812Y-85799482D01*
X112288072Y-85675000D01*
X112288072Y-85125000D01*
X112275812Y-85000518D01*
X112275655Y-85000000D01*
X112275812Y-84999482D01*
X112288072Y-84875000D01*
X112288072Y-84325000D01*
X112275812Y-84200518D01*
X112275655Y-84200000D01*
X112275812Y-84199482D01*
X112288072Y-84075000D01*
X112288072Y-83525000D01*
X112275812Y-83400518D01*
X112275655Y-83400000D01*
X112275812Y-83399482D01*
X112288072Y-83275000D01*
X112288072Y-82725000D01*
X112275812Y-82600518D01*
X112275655Y-82600000D01*
X112275812Y-82599482D01*
X112288072Y-82475000D01*
X112288072Y-81938873D01*
X116058198Y-85709000D01*
G36*
X105214599Y-93040000D02*
G01*
X96978178Y-93040000D01*
X96853475Y-92853368D01*
X96646632Y-92646525D01*
X96472240Y-92530000D01*
X96646632Y-92413475D01*
X96853475Y-92206632D01*
X96978178Y-92020000D01*
X106234599Y-92020000D01*
X105214599Y-93040000D01*
G37*
X105214599Y-93040000D02*
X96978178Y-93040000D01*
X96853475Y-92853368D01*
X96646632Y-92646525D01*
X96472240Y-92530000D01*
X96646632Y-92413475D01*
X96853475Y-92206632D01*
X96978178Y-92020000D01*
X106234599Y-92020000D01*
X105214599Y-93040000D01*
G36*
X98282600Y-83582102D02*
G01*
X98306399Y-83611101D01*
X98422124Y-83706074D01*
X98554153Y-83776646D01*
X98697414Y-83820103D01*
X98809067Y-83831100D01*
X98809076Y-83831100D01*
X98846399Y-83834776D01*
X98883722Y-83831100D01*
X105706850Y-83831100D01*
X105723750Y-83848000D01*
X106773000Y-83848000D01*
X106773000Y-83831100D01*
X107027000Y-83831100D01*
X107027000Y-83848000D01*
X107047000Y-83848000D01*
X107047000Y-84102000D01*
X107027000Y-84102000D01*
X107027000Y-84122000D01*
X106773000Y-84122000D01*
X106773000Y-84102000D01*
X105723750Y-84102000D01*
X105565000Y-84260750D01*
X105561928Y-84550000D01*
X105574188Y-84674482D01*
X105610498Y-84794180D01*
X105669463Y-84904494D01*
X105748815Y-85001185D01*
X105828594Y-85066658D01*
X105822038Y-85072038D01*
X105810499Y-85086098D01*
X105173604Y-84449202D01*
X105149801Y-84420199D01*
X105034076Y-84325226D01*
X104902047Y-84254654D01*
X104758786Y-84211197D01*
X104647133Y-84200200D01*
X104647122Y-84200200D01*
X104609800Y-84196524D01*
X104572478Y-84200200D01*
X97075310Y-84200200D01*
X97127932Y-84073158D01*
X97185000Y-83786260D01*
X97185000Y-83493740D01*
X97127932Y-83206842D01*
X97015990Y-82936589D01*
X96853475Y-82693368D01*
X96646632Y-82486525D01*
X96472240Y-82370000D01*
X96646632Y-82253475D01*
X96800303Y-82099804D01*
X98282600Y-83582102D01*
G37*
X98282600Y-83582102D02*
X98306399Y-83611101D01*
X98422124Y-83706074D01*
X98554153Y-83776646D01*
X98697414Y-83820103D01*
X98809067Y-83831100D01*
X98809076Y-83831100D01*
X98846399Y-83834776D01*
X98883722Y-83831100D01*
X105706850Y-83831100D01*
X105723750Y-83848000D01*
X106773000Y-83848000D01*
X106773000Y-83831100D01*
X107027000Y-83831100D01*
X107027000Y-83848000D01*
X107047000Y-83848000D01*
X107047000Y-84102000D01*
X107027000Y-84102000D01*
X107027000Y-84122000D01*
X106773000Y-84122000D01*
X106773000Y-84102000D01*
X105723750Y-84102000D01*
X105565000Y-84260750D01*
X105561928Y-84550000D01*
X105574188Y-84674482D01*
X105610498Y-84794180D01*
X105669463Y-84904494D01*
X105748815Y-85001185D01*
X105828594Y-85066658D01*
X105822038Y-85072038D01*
X105810499Y-85086098D01*
X105173604Y-84449202D01*
X105149801Y-84420199D01*
X105034076Y-84325226D01*
X104902047Y-84254654D01*
X104758786Y-84211197D01*
X104647133Y-84200200D01*
X104647122Y-84200200D01*
X104609800Y-84196524D01*
X104572478Y-84200200D01*
X97075310Y-84200200D01*
X97127932Y-84073158D01*
X97185000Y-83786260D01*
X97185000Y-83493740D01*
X97127932Y-83206842D01*
X97015990Y-82936589D01*
X96853475Y-82693368D01*
X96646632Y-82486525D01*
X96472240Y-82370000D01*
X96646632Y-82253475D01*
X96800303Y-82099804D01*
X98282600Y-83582102D01*
G36*
X121005904Y-81075894D02*
G01*
X117290300Y-84791499D01*
X114546891Y-82048089D01*
X114690256Y-81988705D01*
X114859774Y-81875437D01*
X115003937Y-81731274D01*
X115117205Y-81561756D01*
X115195226Y-81373398D01*
X115235000Y-81173439D01*
X115235000Y-81088072D01*
X115275000Y-81088072D01*
X115399482Y-81075812D01*
X115400000Y-81075655D01*
X115400518Y-81075812D01*
X115525000Y-81088072D01*
X116075000Y-81088072D01*
X116199482Y-81075812D01*
X116200000Y-81075655D01*
X116200518Y-81075812D01*
X116325000Y-81088072D01*
X116875000Y-81088072D01*
X116999482Y-81075812D01*
X117000000Y-81075655D01*
X117000518Y-81075812D01*
X117125000Y-81088072D01*
X117675000Y-81088072D01*
X117799482Y-81075812D01*
X117800000Y-81075655D01*
X117800518Y-81075812D01*
X117925000Y-81088072D01*
X117965000Y-81088072D01*
X117965000Y-81157339D01*
X118004774Y-81357298D01*
X118082795Y-81545656D01*
X118196063Y-81715174D01*
X118340226Y-81859337D01*
X118509744Y-81972605D01*
X118698102Y-82050626D01*
X118898061Y-82090400D01*
X119101939Y-82090400D01*
X119301898Y-82050626D01*
X119490256Y-81972605D01*
X119659774Y-81859337D01*
X119803937Y-81715174D01*
X119917205Y-81545656D01*
X119995226Y-81357298D01*
X120035000Y-81157339D01*
X120035000Y-81088072D01*
X120075000Y-81088072D01*
X120199482Y-81075812D01*
X120200000Y-81075655D01*
X120200518Y-81075812D01*
X120325000Y-81088072D01*
X120875000Y-81088072D01*
X120999482Y-81075812D01*
X121000663Y-81075454D01*
X121005904Y-81075894D01*
G37*
X121005904Y-81075894D02*
X117290300Y-84791499D01*
X114546891Y-82048089D01*
X114690256Y-81988705D01*
X114859774Y-81875437D01*
X115003937Y-81731274D01*
X115117205Y-81561756D01*
X115195226Y-81373398D01*
X115235000Y-81173439D01*
X115235000Y-81088072D01*
X115275000Y-81088072D01*
X115399482Y-81075812D01*
X115400000Y-81075655D01*
X115400518Y-81075812D01*
X115525000Y-81088072D01*
X116075000Y-81088072D01*
X116199482Y-81075812D01*
X116200000Y-81075655D01*
X116200518Y-81075812D01*
X116325000Y-81088072D01*
X116875000Y-81088072D01*
X116999482Y-81075812D01*
X117000000Y-81075655D01*
X117000518Y-81075812D01*
X117125000Y-81088072D01*
X117675000Y-81088072D01*
X117799482Y-81075812D01*
X117800000Y-81075655D01*
X117800518Y-81075812D01*
X117925000Y-81088072D01*
X117965000Y-81088072D01*
X117965000Y-81157339D01*
X118004774Y-81357298D01*
X118082795Y-81545656D01*
X118196063Y-81715174D01*
X118340226Y-81859337D01*
X118509744Y-81972605D01*
X118698102Y-82050626D01*
X118898061Y-82090400D01*
X119101939Y-82090400D01*
X119301898Y-82050626D01*
X119490256Y-81972605D01*
X119659774Y-81859337D01*
X119803937Y-81715174D01*
X119917205Y-81545656D01*
X119995226Y-81357298D01*
X120035000Y-81157339D01*
X120035000Y-81088072D01*
X120075000Y-81088072D01*
X120199482Y-81075812D01*
X120200000Y-81075655D01*
X120200518Y-81075812D01*
X120325000Y-81088072D01*
X120875000Y-81088072D01*
X120999482Y-81075812D01*
X121000663Y-81075454D01*
X121005904Y-81075894D01*
G36*
X98246525Y-65546632D02*
G01*
X98453368Y-65753475D01*
X98640000Y-65878179D01*
X98640000Y-66352677D01*
X98636324Y-66390000D01*
X98640000Y-66427322D01*
X98640000Y-66427332D01*
X98650997Y-66538985D01*
X98684400Y-66649101D01*
X98694454Y-66682246D01*
X98765026Y-66814276D01*
X98804871Y-66862826D01*
X98859999Y-66930001D01*
X98889003Y-66953804D01*
X102631205Y-70696008D01*
X102654999Y-70725001D01*
X102683992Y-70748795D01*
X102683996Y-70748799D01*
X102733613Y-70789518D01*
X102660750Y-70790000D01*
X102502000Y-70948750D01*
X102502000Y-72473000D01*
X103601250Y-72473000D01*
X103760000Y-72314250D01*
X103761737Y-71811538D01*
X104236928Y-72286730D01*
X104236928Y-73525000D01*
X104253992Y-73698254D01*
X104304528Y-73864850D01*
X104386595Y-74018386D01*
X104497038Y-74152962D01*
X104631614Y-74263405D01*
X104785150Y-74345472D01*
X104951746Y-74396008D01*
X105125000Y-74413072D01*
X106125000Y-74413072D01*
X106298254Y-74396008D01*
X106335046Y-74384847D01*
X106640001Y-74689803D01*
X106640001Y-75520473D01*
X106610149Y-75529528D01*
X106456613Y-75611595D01*
X106322038Y-75722038D01*
X106211595Y-75856613D01*
X106129528Y-76010149D01*
X106078992Y-76176745D01*
X106061928Y-76349999D01*
X106061928Y-77000001D01*
X106078992Y-77173255D01*
X106129528Y-77339851D01*
X106211595Y-77493387D01*
X106322038Y-77627962D01*
X106409816Y-77700000D01*
X106355653Y-77744451D01*
X103023603Y-74412401D01*
X103125000Y-74413072D01*
X103249482Y-74400812D01*
X103369180Y-74364502D01*
X103479494Y-74305537D01*
X103576185Y-74226185D01*
X103655537Y-74129494D01*
X103714502Y-74019180D01*
X103750812Y-73899482D01*
X103763072Y-73775000D01*
X103760000Y-72885750D01*
X103601250Y-72727000D01*
X102502000Y-72727000D01*
X102502000Y-72747000D01*
X102248000Y-72747000D01*
X102248000Y-72727000D01*
X102228000Y-72727000D01*
X102228000Y-72473000D01*
X102248000Y-72473000D01*
X102248000Y-70948750D01*
X102089250Y-70790000D01*
X101625000Y-70786928D01*
X101500518Y-70799188D01*
X101380820Y-70835498D01*
X101270506Y-70894463D01*
X101173815Y-70973815D01*
X101094463Y-71070506D01*
X101035498Y-71180820D01*
X100999188Y-71300518D01*
X100986928Y-71425000D01*
X100990000Y-72314250D01*
X101148748Y-72472998D01*
X101084199Y-72472998D01*
X97635300Y-69024099D01*
X97635300Y-68437333D01*
X97638977Y-68400000D01*
X97624303Y-68251014D01*
X97580846Y-68107753D01*
X97510274Y-67975724D01*
X97415301Y-67859999D01*
X97299576Y-67765026D01*
X97167547Y-67694454D01*
X97024286Y-67650997D01*
X96982796Y-67646911D01*
X96853475Y-67453368D01*
X96646632Y-67246525D01*
X96516994Y-67159903D01*
X96647335Y-67133977D01*
X97051215Y-66966684D01*
X97414697Y-66723813D01*
X97723813Y-66414697D01*
X97966684Y-66051215D01*
X98133977Y-65647335D01*
X98175232Y-65439934D01*
X98246525Y-65546632D01*
G37*
X98246525Y-65546632D02*
X98453368Y-65753475D01*
X98640000Y-65878179D01*
X98640000Y-66352677D01*
X98636324Y-66390000D01*
X98640000Y-66427322D01*
X98640000Y-66427332D01*
X98650997Y-66538985D01*
X98684400Y-66649101D01*
X98694454Y-66682246D01*
X98765026Y-66814276D01*
X98804871Y-66862826D01*
X98859999Y-66930001D01*
X98889003Y-66953804D01*
X102631205Y-70696008D01*
X102654999Y-70725001D01*
X102683992Y-70748795D01*
X102683996Y-70748799D01*
X102733613Y-70789518D01*
X102660750Y-70790000D01*
X102502000Y-70948750D01*
X102502000Y-72473000D01*
X103601250Y-72473000D01*
X103760000Y-72314250D01*
X103761737Y-71811538D01*
X104236928Y-72286730D01*
X104236928Y-73525000D01*
X104253992Y-73698254D01*
X104304528Y-73864850D01*
X104386595Y-74018386D01*
X104497038Y-74152962D01*
X104631614Y-74263405D01*
X104785150Y-74345472D01*
X104951746Y-74396008D01*
X105125000Y-74413072D01*
X106125000Y-74413072D01*
X106298254Y-74396008D01*
X106335046Y-74384847D01*
X106640001Y-74689803D01*
X106640001Y-75520473D01*
X106610149Y-75529528D01*
X106456613Y-75611595D01*
X106322038Y-75722038D01*
X106211595Y-75856613D01*
X106129528Y-76010149D01*
X106078992Y-76176745D01*
X106061928Y-76349999D01*
X106061928Y-77000001D01*
X106078992Y-77173255D01*
X106129528Y-77339851D01*
X106211595Y-77493387D01*
X106322038Y-77627962D01*
X106409816Y-77700000D01*
X106355653Y-77744451D01*
X103023603Y-74412401D01*
X103125000Y-74413072D01*
X103249482Y-74400812D01*
X103369180Y-74364502D01*
X103479494Y-74305537D01*
X103576185Y-74226185D01*
X103655537Y-74129494D01*
X103714502Y-74019180D01*
X103750812Y-73899482D01*
X103763072Y-73775000D01*
X103760000Y-72885750D01*
X103601250Y-72727000D01*
X102502000Y-72727000D01*
X102502000Y-72747000D01*
X102248000Y-72747000D01*
X102248000Y-72727000D01*
X102228000Y-72727000D01*
X102228000Y-72473000D01*
X102248000Y-72473000D01*
X102248000Y-70948750D01*
X102089250Y-70790000D01*
X101625000Y-70786928D01*
X101500518Y-70799188D01*
X101380820Y-70835498D01*
X101270506Y-70894463D01*
X101173815Y-70973815D01*
X101094463Y-71070506D01*
X101035498Y-71180820D01*
X100999188Y-71300518D01*
X100986928Y-71425000D01*
X100990000Y-72314250D01*
X101148748Y-72472998D01*
X101084199Y-72472998D01*
X97635300Y-69024099D01*
X97635300Y-68437333D01*
X97638977Y-68400000D01*
X97624303Y-68251014D01*
X97580846Y-68107753D01*
X97510274Y-67975724D01*
X97415301Y-67859999D01*
X97299576Y-67765026D01*
X97167547Y-67694454D01*
X97024286Y-67650997D01*
X96982796Y-67646911D01*
X96853475Y-67453368D01*
X96646632Y-67246525D01*
X96516994Y-67159903D01*
X96647335Y-67133977D01*
X97051215Y-66966684D01*
X97414697Y-66723813D01*
X97723813Y-66414697D01*
X97966684Y-66051215D01*
X98133977Y-65647335D01*
X98175232Y-65439934D01*
X98246525Y-65546632D01*
G36*
X123646525Y-65546632D02*
G01*
X123801128Y-65701235D01*
X118188404Y-71336689D01*
X118160000Y-71359999D01*
X118135713Y-71389593D01*
X118135170Y-71390138D01*
X118111957Y-71418540D01*
X118065027Y-71475724D01*
X118064663Y-71476404D01*
X118064170Y-71477008D01*
X118029230Y-71542694D01*
X117994455Y-71607753D01*
X117994231Y-71608493D01*
X117993865Y-71609180D01*
X117972427Y-71680372D01*
X117950998Y-71751014D01*
X117950922Y-71751783D01*
X117950698Y-71752528D01*
X117943562Y-71826516D01*
X117940001Y-71862667D01*
X117940001Y-71863431D01*
X117936325Y-71901543D01*
X117940001Y-71938107D01*
X117940001Y-72296288D01*
X117896063Y-72340226D01*
X117782795Y-72509744D01*
X117704774Y-72698102D01*
X117665000Y-72898061D01*
X117665000Y-73101939D01*
X117704774Y-73301898D01*
X117782795Y-73490256D01*
X117896063Y-73659774D01*
X118040226Y-73803937D01*
X118209744Y-73917205D01*
X118398102Y-73995226D01*
X118598061Y-74035000D01*
X118730399Y-74035000D01*
X118412598Y-74352801D01*
X118383600Y-74376599D01*
X118359802Y-74405597D01*
X118359801Y-74405598D01*
X118288626Y-74492324D01*
X118218054Y-74624354D01*
X118203206Y-74673303D01*
X118174598Y-74767614D01*
X118163601Y-74879267D01*
X118159924Y-74916600D01*
X118163601Y-74953932D01*
X118163601Y-75363908D01*
X118060750Y-75365000D01*
X117902000Y-75523750D01*
X117902000Y-76573000D01*
X117922000Y-76573000D01*
X117922000Y-76827000D01*
X117902000Y-76827000D01*
X117902000Y-76847000D01*
X117648000Y-76847000D01*
X117648000Y-76827000D01*
X117628000Y-76827000D01*
X117628000Y-76573000D01*
X117648000Y-76573000D01*
X117648000Y-75523750D01*
X117606200Y-75481950D01*
X117606200Y-66423902D01*
X117691002Y-66339100D01*
X117720001Y-66315301D01*
X117814974Y-66199576D01*
X117885546Y-66067547D01*
X117929003Y-65924286D01*
X117933089Y-65882796D01*
X118126632Y-65753475D01*
X118333475Y-65546632D01*
X118450000Y-65372240D01*
X118566525Y-65546632D01*
X118773368Y-65753475D01*
X119016589Y-65915990D01*
X119286842Y-66027932D01*
X119573740Y-66085000D01*
X119866260Y-66085000D01*
X120153158Y-66027932D01*
X120423411Y-65915990D01*
X120666632Y-65753475D01*
X120873475Y-65546632D01*
X120990000Y-65372240D01*
X121106525Y-65546632D01*
X121313368Y-65753475D01*
X121556589Y-65915990D01*
X121826842Y-66027932D01*
X122113740Y-66085000D01*
X122406260Y-66085000D01*
X122693158Y-66027932D01*
X122963411Y-65915990D01*
X123206632Y-65753475D01*
X123413475Y-65546632D01*
X123530000Y-65372240D01*
X123646525Y-65546632D01*
G37*
X123646525Y-65546632D02*
X123801128Y-65701235D01*
X118188404Y-71336689D01*
X118160000Y-71359999D01*
X118135713Y-71389593D01*
X118135170Y-71390138D01*
X118111957Y-71418540D01*
X118065027Y-71475724D01*
X118064663Y-71476404D01*
X118064170Y-71477008D01*
X118029230Y-71542694D01*
X117994455Y-71607753D01*
X117994231Y-71608493D01*
X117993865Y-71609180D01*
X117972427Y-71680372D01*
X117950998Y-71751014D01*
X117950922Y-71751783D01*
X117950698Y-71752528D01*
X117943562Y-71826516D01*
X117940001Y-71862667D01*
X117940001Y-71863431D01*
X117936325Y-71901543D01*
X117940001Y-71938107D01*
X117940001Y-72296288D01*
X117896063Y-72340226D01*
X117782795Y-72509744D01*
X117704774Y-72698102D01*
X117665000Y-72898061D01*
X117665000Y-73101939D01*
X117704774Y-73301898D01*
X117782795Y-73490256D01*
X117896063Y-73659774D01*
X118040226Y-73803937D01*
X118209744Y-73917205D01*
X118398102Y-73995226D01*
X118598061Y-74035000D01*
X118730399Y-74035000D01*
X118412598Y-74352801D01*
X118383600Y-74376599D01*
X118359802Y-74405597D01*
X118359801Y-74405598D01*
X118288626Y-74492324D01*
X118218054Y-74624354D01*
X118203206Y-74673303D01*
X118174598Y-74767614D01*
X118163601Y-74879267D01*
X118159924Y-74916600D01*
X118163601Y-74953932D01*
X118163601Y-75363908D01*
X118060750Y-75365000D01*
X117902000Y-75523750D01*
X117902000Y-76573000D01*
X117922000Y-76573000D01*
X117922000Y-76827000D01*
X117902000Y-76827000D01*
X117902000Y-76847000D01*
X117648000Y-76847000D01*
X117648000Y-76827000D01*
X117628000Y-76827000D01*
X117628000Y-76573000D01*
X117648000Y-76573000D01*
X117648000Y-75523750D01*
X117606200Y-75481950D01*
X117606200Y-66423902D01*
X117691002Y-66339100D01*
X117720001Y-66315301D01*
X117814974Y-66199576D01*
X117885546Y-66067547D01*
X117929003Y-65924286D01*
X117933089Y-65882796D01*
X118126632Y-65753475D01*
X118333475Y-65546632D01*
X118450000Y-65372240D01*
X118566525Y-65546632D01*
X118773368Y-65753475D01*
X119016589Y-65915990D01*
X119286842Y-66027932D01*
X119573740Y-66085000D01*
X119866260Y-66085000D01*
X120153158Y-66027932D01*
X120423411Y-65915990D01*
X120666632Y-65753475D01*
X120873475Y-65546632D01*
X120990000Y-65372240D01*
X121106525Y-65546632D01*
X121313368Y-65753475D01*
X121556589Y-65915990D01*
X121826842Y-66027932D01*
X122113740Y-66085000D01*
X122406260Y-66085000D01*
X122693158Y-66027932D01*
X122963411Y-65915990D01*
X123206632Y-65753475D01*
X123413475Y-65546632D01*
X123530000Y-65372240D01*
X123646525Y-65546632D01*
G36*
X113360700Y-71303802D02*
G01*
X113360701Y-73220588D01*
X113316763Y-73264526D01*
X113203495Y-73434044D01*
X113125474Y-73622402D01*
X113085700Y-73822361D01*
X113085700Y-74026239D01*
X113125474Y-74226198D01*
X113203495Y-74414556D01*
X113316763Y-74584074D01*
X113460926Y-74728237D01*
X113630444Y-74841505D01*
X113818802Y-74919526D01*
X114018761Y-74959300D01*
X114222639Y-74959300D01*
X114389801Y-74926050D01*
X114389801Y-75485949D01*
X114352000Y-75523750D01*
X114352000Y-76573000D01*
X114372000Y-76573000D01*
X114372000Y-76827000D01*
X114352000Y-76827000D01*
X114352000Y-76847000D01*
X114098000Y-76847000D01*
X114098000Y-76827000D01*
X114078000Y-76827000D01*
X114078000Y-76573000D01*
X114098000Y-76573000D01*
X114098000Y-75523750D01*
X113939250Y-75365000D01*
X113650000Y-75361928D01*
X113573012Y-75369510D01*
X107780000Y-69576499D01*
X107780000Y-65878178D01*
X107872962Y-65816063D01*
X113360700Y-71303802D01*
G37*
X113360700Y-71303802D02*
X113360701Y-73220588D01*
X113316763Y-73264526D01*
X113203495Y-73434044D01*
X113125474Y-73622402D01*
X113085700Y-73822361D01*
X113085700Y-74026239D01*
X113125474Y-74226198D01*
X113203495Y-74414556D01*
X113316763Y-74584074D01*
X113460926Y-74728237D01*
X113630444Y-74841505D01*
X113818802Y-74919526D01*
X114018761Y-74959300D01*
X114222639Y-74959300D01*
X114389801Y-74926050D01*
X114389801Y-75485949D01*
X114352000Y-75523750D01*
X114352000Y-76573000D01*
X114372000Y-76573000D01*
X114372000Y-76827000D01*
X114352000Y-76827000D01*
X114352000Y-76847000D01*
X114098000Y-76847000D01*
X114098000Y-76827000D01*
X114078000Y-76827000D01*
X114078000Y-76573000D01*
X114098000Y-76573000D01*
X114098000Y-75523750D01*
X113939250Y-75365000D01*
X113650000Y-75361928D01*
X113573012Y-75369510D01*
X107780000Y-69576499D01*
X107780000Y-65878178D01*
X107872962Y-65816063D01*
X113360700Y-71303802D01*
G36*
X102067000Y-64473000D02*
G01*
X102087000Y-64473000D01*
X102087000Y-64727000D01*
X102067000Y-64727000D01*
X102067000Y-65920155D01*
X102296890Y-66041476D01*
X102444099Y-65996825D01*
X102706920Y-65871641D01*
X102940269Y-65697588D01*
X103135178Y-65481355D01*
X103204805Y-65364466D01*
X103326525Y-65546632D01*
X103533368Y-65753475D01*
X103776589Y-65915990D01*
X104046842Y-66027932D01*
X104333740Y-66085000D01*
X104626260Y-66085000D01*
X104913158Y-66027932D01*
X105183411Y-65915990D01*
X105426632Y-65753475D01*
X105633475Y-65546632D01*
X105750000Y-65372240D01*
X105866525Y-65546632D01*
X106073368Y-65753475D01*
X106260001Y-65878179D01*
X106260000Y-69853977D01*
X106256324Y-69891300D01*
X106260000Y-69928622D01*
X106260000Y-69928632D01*
X106270997Y-70040285D01*
X106285442Y-70087903D01*
X106314454Y-70183546D01*
X106385026Y-70315576D01*
X106424871Y-70364126D01*
X106479999Y-70431301D01*
X106509003Y-70455104D01*
X111492734Y-75438836D01*
X111356613Y-75511595D01*
X111222038Y-75622038D01*
X111111595Y-75756613D01*
X111029528Y-75910149D01*
X111020473Y-75940000D01*
X108632976Y-75940000D01*
X108588405Y-75856613D01*
X108477962Y-75722038D01*
X108343387Y-75611595D01*
X108189851Y-75529528D01*
X108160000Y-75520473D01*
X108160000Y-74412322D01*
X108163676Y-74374999D01*
X108160000Y-74337676D01*
X108160000Y-74337667D01*
X108149003Y-74226014D01*
X108105546Y-74082753D01*
X108071124Y-74018354D01*
X108034974Y-73950723D01*
X107963799Y-73863997D01*
X107940001Y-73834999D01*
X107911003Y-73811201D01*
X107013072Y-72913271D01*
X107013072Y-71675000D01*
X106996008Y-71501746D01*
X106945472Y-71335150D01*
X106863405Y-71181614D01*
X106752962Y-71047038D01*
X106618386Y-70936595D01*
X106464850Y-70854528D01*
X106298254Y-70803992D01*
X106125000Y-70786928D01*
X105125000Y-70786928D01*
X104951746Y-70803992D01*
X104914954Y-70815153D01*
X103773804Y-69674003D01*
X103750001Y-69644999D01*
X103637359Y-69552557D01*
X100160000Y-66075199D01*
X100160000Y-65878178D01*
X100346632Y-65753475D01*
X100553475Y-65546632D01*
X100675195Y-65364466D01*
X100744822Y-65481355D01*
X100939731Y-65697588D01*
X101173080Y-65871641D01*
X101435901Y-65996825D01*
X101583110Y-66041476D01*
X101813000Y-65920155D01*
X101813000Y-64727000D01*
X101793000Y-64727000D01*
X101793000Y-64473000D01*
X101813000Y-64473000D01*
X101813000Y-64453000D01*
X102067000Y-64453000D01*
X102067000Y-64473000D01*
G37*
X102067000Y-64473000D02*
X102087000Y-64473000D01*
X102087000Y-64727000D01*
X102067000Y-64727000D01*
X102067000Y-65920155D01*
X102296890Y-66041476D01*
X102444099Y-65996825D01*
X102706920Y-65871641D01*
X102940269Y-65697588D01*
X103135178Y-65481355D01*
X103204805Y-65364466D01*
X103326525Y-65546632D01*
X103533368Y-65753475D01*
X103776589Y-65915990D01*
X104046842Y-66027932D01*
X104333740Y-66085000D01*
X104626260Y-66085000D01*
X104913158Y-66027932D01*
X105183411Y-65915990D01*
X105426632Y-65753475D01*
X105633475Y-65546632D01*
X105750000Y-65372240D01*
X105866525Y-65546632D01*
X106073368Y-65753475D01*
X106260001Y-65878179D01*
X106260000Y-69853977D01*
X106256324Y-69891300D01*
X106260000Y-69928622D01*
X106260000Y-69928632D01*
X106270997Y-70040285D01*
X106285442Y-70087903D01*
X106314454Y-70183546D01*
X106385026Y-70315576D01*
X106424871Y-70364126D01*
X106479999Y-70431301D01*
X106509003Y-70455104D01*
X111492734Y-75438836D01*
X111356613Y-75511595D01*
X111222038Y-75622038D01*
X111111595Y-75756613D01*
X111029528Y-75910149D01*
X111020473Y-75940000D01*
X108632976Y-75940000D01*
X108588405Y-75856613D01*
X108477962Y-75722038D01*
X108343387Y-75611595D01*
X108189851Y-75529528D01*
X108160000Y-75520473D01*
X108160000Y-74412322D01*
X108163676Y-74374999D01*
X108160000Y-74337676D01*
X108160000Y-74337667D01*
X108149003Y-74226014D01*
X108105546Y-74082753D01*
X108071124Y-74018354D01*
X108034974Y-73950723D01*
X107963799Y-73863997D01*
X107940001Y-73834999D01*
X107911003Y-73811201D01*
X107013072Y-72913271D01*
X107013072Y-71675000D01*
X106996008Y-71501746D01*
X106945472Y-71335150D01*
X106863405Y-71181614D01*
X106752962Y-71047038D01*
X106618386Y-70936595D01*
X106464850Y-70854528D01*
X106298254Y-70803992D01*
X106125000Y-70786928D01*
X105125000Y-70786928D01*
X104951746Y-70803992D01*
X104914954Y-70815153D01*
X103773804Y-69674003D01*
X103750001Y-69644999D01*
X103637359Y-69552557D01*
X100160000Y-66075199D01*
X100160000Y-65878178D01*
X100346632Y-65753475D01*
X100553475Y-65546632D01*
X100675195Y-65364466D01*
X100744822Y-65481355D01*
X100939731Y-65697588D01*
X101173080Y-65871641D01*
X101435901Y-65996825D01*
X101583110Y-66041476D01*
X101813000Y-65920155D01*
X101813000Y-64727000D01*
X101793000Y-64727000D01*
X101793000Y-64473000D01*
X101813000Y-64473000D01*
X101813000Y-64453000D01*
X102067000Y-64453000D01*
X102067000Y-64473000D01*
G36*
X136553368Y-65753475D02*
G01*
X136796589Y-65915990D01*
X137066842Y-66027932D01*
X137353740Y-66085000D01*
X137646260Y-66085000D01*
X137932100Y-66028142D01*
X137932100Y-67118098D01*
X129688271Y-75361928D01*
X129099999Y-75361928D01*
X128926745Y-75378992D01*
X128760149Y-75429528D01*
X128606613Y-75511595D01*
X128472038Y-75622038D01*
X128400000Y-75709816D01*
X128327962Y-75622038D01*
X128193387Y-75511595D01*
X128039851Y-75429528D01*
X127873255Y-75378992D01*
X127700001Y-75361928D01*
X127049999Y-75361928D01*
X126924292Y-75374309D01*
X136549247Y-65749354D01*
X136553368Y-65753475D01*
G37*
X136553368Y-65753475D02*
X136796589Y-65915990D01*
X137066842Y-66027932D01*
X137353740Y-66085000D01*
X137646260Y-66085000D01*
X137932100Y-66028142D01*
X137932100Y-67118098D01*
X129688271Y-75361928D01*
X129099999Y-75361928D01*
X128926745Y-75378992D01*
X128760149Y-75429528D01*
X128606613Y-75511595D01*
X128472038Y-75622038D01*
X128400000Y-75709816D01*
X128327962Y-75622038D01*
X128193387Y-75511595D01*
X128039851Y-75429528D01*
X127873255Y-75378992D01*
X127700001Y-75361928D01*
X127049999Y-75361928D01*
X126924292Y-75374309D01*
X136549247Y-65749354D01*
X136553368Y-65753475D01*
G36*
X127467000Y-64473000D02*
G01*
X127487000Y-64473000D01*
X127487000Y-64727000D01*
X127467000Y-64727000D01*
X127467000Y-64747000D01*
X127213000Y-64747000D01*
X127213000Y-64727000D01*
X127193000Y-64727000D01*
X127193000Y-64473000D01*
X127213000Y-64473000D01*
X127213000Y-64453000D01*
X127467000Y-64453000D01*
X127467000Y-64473000D01*
G37*
X127467000Y-64473000D02*
X127487000Y-64473000D01*
X127487000Y-64727000D01*
X127467000Y-64727000D01*
X127467000Y-64747000D01*
X127213000Y-64747000D01*
X127213000Y-64727000D01*
X127193000Y-64727000D01*
X127193000Y-64473000D01*
X127213000Y-64473000D01*
X127213000Y-64453000D01*
X127467000Y-64453000D01*
X127467000Y-64473000D01*
M02*
