G04 #@! TF.GenerationSoftware,KiCad,Pcbnew,(5.1.5-0-10_14)*
G04 #@! TF.CreationDate,2020-11-09T16:06:39+01:00*
G04 #@! TF.ProjectId,ATmega128_Breakout_Board,41546d65-6761-4313-9238-5f427265616b,rev?*
G04 #@! TF.SameCoordinates,Original*
G04 #@! TF.FileFunction,Paste,Top*
G04 #@! TF.FilePolarity,Positive*
%FSLAX46Y46*%
G04 Gerber Fmt 4.6, Leading zero omitted, Abs format (unit mm)*
G04 Created by KiCad (PCBNEW (5.1.5-0-10_14)) date 2020-11-09 16:06:39*
%MOMM*%
%LPD*%
G04 APERTURE LIST*
%ADD10C,0.100000*%
%ADD11R,3.300000X1.540000*%
%ADD12R,0.550000X1.500000*%
%ADD13R,1.500000X0.550000*%
G04 APERTURE END LIST*
D10*
G36*
X102899504Y-71426204D02*
G01*
X102923773Y-71429804D01*
X102947571Y-71435765D01*
X102970671Y-71444030D01*
X102992849Y-71454520D01*
X103013893Y-71467133D01*
X103033598Y-71481747D01*
X103051777Y-71498223D01*
X103068253Y-71516402D01*
X103082867Y-71536107D01*
X103095480Y-71557151D01*
X103105970Y-71579329D01*
X103114235Y-71602429D01*
X103120196Y-71626227D01*
X103123796Y-71650496D01*
X103125000Y-71675000D01*
X103125000Y-73525000D01*
X103123796Y-73549504D01*
X103120196Y-73573773D01*
X103114235Y-73597571D01*
X103105970Y-73620671D01*
X103095480Y-73642849D01*
X103082867Y-73663893D01*
X103068253Y-73683598D01*
X103051777Y-73701777D01*
X103033598Y-73718253D01*
X103013893Y-73732867D01*
X102992849Y-73745480D01*
X102970671Y-73755970D01*
X102947571Y-73764235D01*
X102923773Y-73770196D01*
X102899504Y-73773796D01*
X102875000Y-73775000D01*
X101875000Y-73775000D01*
X101850496Y-73773796D01*
X101826227Y-73770196D01*
X101802429Y-73764235D01*
X101779329Y-73755970D01*
X101757151Y-73745480D01*
X101736107Y-73732867D01*
X101716402Y-73718253D01*
X101698223Y-73701777D01*
X101681747Y-73683598D01*
X101667133Y-73663893D01*
X101654520Y-73642849D01*
X101644030Y-73620671D01*
X101635765Y-73597571D01*
X101629804Y-73573773D01*
X101626204Y-73549504D01*
X101625000Y-73525000D01*
X101625000Y-71675000D01*
X101626204Y-71650496D01*
X101629804Y-71626227D01*
X101635765Y-71602429D01*
X101644030Y-71579329D01*
X101654520Y-71557151D01*
X101667133Y-71536107D01*
X101681747Y-71516402D01*
X101698223Y-71498223D01*
X101716402Y-71481747D01*
X101736107Y-71467133D01*
X101757151Y-71454520D01*
X101779329Y-71444030D01*
X101802429Y-71435765D01*
X101826227Y-71429804D01*
X101850496Y-71426204D01*
X101875000Y-71425000D01*
X102875000Y-71425000D01*
X102899504Y-71426204D01*
G37*
G36*
X106149504Y-71426204D02*
G01*
X106173773Y-71429804D01*
X106197571Y-71435765D01*
X106220671Y-71444030D01*
X106242849Y-71454520D01*
X106263893Y-71467133D01*
X106283598Y-71481747D01*
X106301777Y-71498223D01*
X106318253Y-71516402D01*
X106332867Y-71536107D01*
X106345480Y-71557151D01*
X106355970Y-71579329D01*
X106364235Y-71602429D01*
X106370196Y-71626227D01*
X106373796Y-71650496D01*
X106375000Y-71675000D01*
X106375000Y-73525000D01*
X106373796Y-73549504D01*
X106370196Y-73573773D01*
X106364235Y-73597571D01*
X106355970Y-73620671D01*
X106345480Y-73642849D01*
X106332867Y-73663893D01*
X106318253Y-73683598D01*
X106301777Y-73701777D01*
X106283598Y-73718253D01*
X106263893Y-73732867D01*
X106242849Y-73745480D01*
X106220671Y-73755970D01*
X106197571Y-73764235D01*
X106173773Y-73770196D01*
X106149504Y-73773796D01*
X106125000Y-73775000D01*
X105125000Y-73775000D01*
X105100496Y-73773796D01*
X105076227Y-73770196D01*
X105052429Y-73764235D01*
X105029329Y-73755970D01*
X105007151Y-73745480D01*
X104986107Y-73732867D01*
X104966402Y-73718253D01*
X104948223Y-73701777D01*
X104931747Y-73683598D01*
X104917133Y-73663893D01*
X104904520Y-73642849D01*
X104894030Y-73620671D01*
X104885765Y-73597571D01*
X104879804Y-73573773D01*
X104876204Y-73549504D01*
X104875000Y-73525000D01*
X104875000Y-71675000D01*
X104876204Y-71650496D01*
X104879804Y-71626227D01*
X104885765Y-71602429D01*
X104894030Y-71579329D01*
X104904520Y-71557151D01*
X104917133Y-71536107D01*
X104931747Y-71516402D01*
X104948223Y-71498223D01*
X104966402Y-71481747D01*
X104986107Y-71467133D01*
X105007151Y-71454520D01*
X105029329Y-71444030D01*
X105052429Y-71435765D01*
X105076227Y-71429804D01*
X105100496Y-71426204D01*
X105125000Y-71425000D01*
X106125000Y-71425000D01*
X106149504Y-71426204D01*
G37*
G36*
X117124505Y-97401204D02*
G01*
X117148773Y-97404804D01*
X117172572Y-97410765D01*
X117195671Y-97419030D01*
X117217850Y-97429520D01*
X117238893Y-97442132D01*
X117258599Y-97456747D01*
X117276777Y-97473223D01*
X117293253Y-97491401D01*
X117307868Y-97511107D01*
X117320480Y-97532150D01*
X117330970Y-97554329D01*
X117339235Y-97577428D01*
X117345196Y-97601227D01*
X117348796Y-97625495D01*
X117350000Y-97649999D01*
X117350000Y-98550001D01*
X117348796Y-98574505D01*
X117345196Y-98598773D01*
X117339235Y-98622572D01*
X117330970Y-98645671D01*
X117320480Y-98667850D01*
X117307868Y-98688893D01*
X117293253Y-98708599D01*
X117276777Y-98726777D01*
X117258599Y-98743253D01*
X117238893Y-98757868D01*
X117217850Y-98770480D01*
X117195671Y-98780970D01*
X117172572Y-98789235D01*
X117148773Y-98795196D01*
X117124505Y-98798796D01*
X117100001Y-98800000D01*
X116449999Y-98800000D01*
X116425495Y-98798796D01*
X116401227Y-98795196D01*
X116377428Y-98789235D01*
X116354329Y-98780970D01*
X116332150Y-98770480D01*
X116311107Y-98757868D01*
X116291401Y-98743253D01*
X116273223Y-98726777D01*
X116256747Y-98708599D01*
X116242132Y-98688893D01*
X116229520Y-98667850D01*
X116219030Y-98645671D01*
X116210765Y-98622572D01*
X116204804Y-98598773D01*
X116201204Y-98574505D01*
X116200000Y-98550001D01*
X116200000Y-97649999D01*
X116201204Y-97625495D01*
X116204804Y-97601227D01*
X116210765Y-97577428D01*
X116219030Y-97554329D01*
X116229520Y-97532150D01*
X116242132Y-97511107D01*
X116256747Y-97491401D01*
X116273223Y-97473223D01*
X116291401Y-97456747D01*
X116311107Y-97442132D01*
X116332150Y-97429520D01*
X116354329Y-97419030D01*
X116377428Y-97410765D01*
X116401227Y-97404804D01*
X116425495Y-97401204D01*
X116449999Y-97400000D01*
X117100001Y-97400000D01*
X117124505Y-97401204D01*
G37*
G36*
X119174505Y-97401204D02*
G01*
X119198773Y-97404804D01*
X119222572Y-97410765D01*
X119245671Y-97419030D01*
X119267850Y-97429520D01*
X119288893Y-97442132D01*
X119308599Y-97456747D01*
X119326777Y-97473223D01*
X119343253Y-97491401D01*
X119357868Y-97511107D01*
X119370480Y-97532150D01*
X119380970Y-97554329D01*
X119389235Y-97577428D01*
X119395196Y-97601227D01*
X119398796Y-97625495D01*
X119400000Y-97649999D01*
X119400000Y-98550001D01*
X119398796Y-98574505D01*
X119395196Y-98598773D01*
X119389235Y-98622572D01*
X119380970Y-98645671D01*
X119370480Y-98667850D01*
X119357868Y-98688893D01*
X119343253Y-98708599D01*
X119326777Y-98726777D01*
X119308599Y-98743253D01*
X119288893Y-98757868D01*
X119267850Y-98770480D01*
X119245671Y-98780970D01*
X119222572Y-98789235D01*
X119198773Y-98795196D01*
X119174505Y-98798796D01*
X119150001Y-98800000D01*
X118499999Y-98800000D01*
X118475495Y-98798796D01*
X118451227Y-98795196D01*
X118427428Y-98789235D01*
X118404329Y-98780970D01*
X118382150Y-98770480D01*
X118361107Y-98757868D01*
X118341401Y-98743253D01*
X118323223Y-98726777D01*
X118306747Y-98708599D01*
X118292132Y-98688893D01*
X118279520Y-98667850D01*
X118269030Y-98645671D01*
X118260765Y-98622572D01*
X118254804Y-98598773D01*
X118251204Y-98574505D01*
X118250000Y-98550001D01*
X118250000Y-97649999D01*
X118251204Y-97625495D01*
X118254804Y-97601227D01*
X118260765Y-97577428D01*
X118269030Y-97554329D01*
X118279520Y-97532150D01*
X118292132Y-97511107D01*
X118306747Y-97491401D01*
X118323223Y-97473223D01*
X118341401Y-97456747D01*
X118361107Y-97442132D01*
X118382150Y-97429520D01*
X118404329Y-97419030D01*
X118427428Y-97410765D01*
X118451227Y-97404804D01*
X118475495Y-97401204D01*
X118499999Y-97400000D01*
X119150001Y-97400000D01*
X119174505Y-97401204D01*
G37*
D11*
X121800000Y-103620000D03*
X114400000Y-103620000D03*
X114400000Y-100980000D03*
X121800000Y-100980000D03*
D10*
G36*
X111874505Y-99251204D02*
G01*
X111898773Y-99254804D01*
X111922572Y-99260765D01*
X111945671Y-99269030D01*
X111967850Y-99279520D01*
X111988893Y-99292132D01*
X112008599Y-99306747D01*
X112026777Y-99323223D01*
X112043253Y-99341401D01*
X112057868Y-99361107D01*
X112070480Y-99382150D01*
X112080970Y-99404329D01*
X112089235Y-99427428D01*
X112095196Y-99451227D01*
X112098796Y-99475495D01*
X112100000Y-99499999D01*
X112100000Y-100150001D01*
X112098796Y-100174505D01*
X112095196Y-100198773D01*
X112089235Y-100222572D01*
X112080970Y-100245671D01*
X112070480Y-100267850D01*
X112057868Y-100288893D01*
X112043253Y-100308599D01*
X112026777Y-100326777D01*
X112008599Y-100343253D01*
X111988893Y-100357868D01*
X111967850Y-100370480D01*
X111945671Y-100380970D01*
X111922572Y-100389235D01*
X111898773Y-100395196D01*
X111874505Y-100398796D01*
X111850001Y-100400000D01*
X110949999Y-100400000D01*
X110925495Y-100398796D01*
X110901227Y-100395196D01*
X110877428Y-100389235D01*
X110854329Y-100380970D01*
X110832150Y-100370480D01*
X110811107Y-100357868D01*
X110791401Y-100343253D01*
X110773223Y-100326777D01*
X110756747Y-100308599D01*
X110742132Y-100288893D01*
X110729520Y-100267850D01*
X110719030Y-100245671D01*
X110710765Y-100222572D01*
X110704804Y-100198773D01*
X110701204Y-100174505D01*
X110700000Y-100150001D01*
X110700000Y-99499999D01*
X110701204Y-99475495D01*
X110704804Y-99451227D01*
X110710765Y-99427428D01*
X110719030Y-99404329D01*
X110729520Y-99382150D01*
X110742132Y-99361107D01*
X110756747Y-99341401D01*
X110773223Y-99323223D01*
X110791401Y-99306747D01*
X110811107Y-99292132D01*
X110832150Y-99279520D01*
X110854329Y-99269030D01*
X110877428Y-99260765D01*
X110901227Y-99254804D01*
X110925495Y-99251204D01*
X110949999Y-99250000D01*
X111850001Y-99250000D01*
X111874505Y-99251204D01*
G37*
G36*
X111874505Y-97201204D02*
G01*
X111898773Y-97204804D01*
X111922572Y-97210765D01*
X111945671Y-97219030D01*
X111967850Y-97229520D01*
X111988893Y-97242132D01*
X112008599Y-97256747D01*
X112026777Y-97273223D01*
X112043253Y-97291401D01*
X112057868Y-97311107D01*
X112070480Y-97332150D01*
X112080970Y-97354329D01*
X112089235Y-97377428D01*
X112095196Y-97401227D01*
X112098796Y-97425495D01*
X112100000Y-97449999D01*
X112100000Y-98100001D01*
X112098796Y-98124505D01*
X112095196Y-98148773D01*
X112089235Y-98172572D01*
X112080970Y-98195671D01*
X112070480Y-98217850D01*
X112057868Y-98238893D01*
X112043253Y-98258599D01*
X112026777Y-98276777D01*
X112008599Y-98293253D01*
X111988893Y-98307868D01*
X111967850Y-98320480D01*
X111945671Y-98330970D01*
X111922572Y-98339235D01*
X111898773Y-98345196D01*
X111874505Y-98348796D01*
X111850001Y-98350000D01*
X110949999Y-98350000D01*
X110925495Y-98348796D01*
X110901227Y-98345196D01*
X110877428Y-98339235D01*
X110854329Y-98330970D01*
X110832150Y-98320480D01*
X110811107Y-98307868D01*
X110791401Y-98293253D01*
X110773223Y-98276777D01*
X110756747Y-98258599D01*
X110742132Y-98238893D01*
X110729520Y-98217850D01*
X110719030Y-98195671D01*
X110710765Y-98172572D01*
X110704804Y-98148773D01*
X110701204Y-98124505D01*
X110700000Y-98100001D01*
X110700000Y-97449999D01*
X110701204Y-97425495D01*
X110704804Y-97401227D01*
X110710765Y-97377428D01*
X110719030Y-97354329D01*
X110729520Y-97332150D01*
X110742132Y-97311107D01*
X110756747Y-97291401D01*
X110773223Y-97273223D01*
X110791401Y-97256747D01*
X110811107Y-97242132D01*
X110832150Y-97229520D01*
X110854329Y-97219030D01*
X110877428Y-97210765D01*
X110901227Y-97204804D01*
X110925495Y-97201204D01*
X110949999Y-97200000D01*
X111850001Y-97200000D01*
X111874505Y-97201204D01*
G37*
D12*
X112600000Y-79700000D03*
X113400000Y-79700000D03*
X114200000Y-79700000D03*
X115000000Y-79700000D03*
X115800000Y-79700000D03*
X116600000Y-79700000D03*
X117400000Y-79700000D03*
X118200000Y-79700000D03*
X119000000Y-79700000D03*
X119800000Y-79700000D03*
X120600000Y-79700000D03*
X121400000Y-79700000D03*
X122200000Y-79700000D03*
X123000000Y-79700000D03*
X123800000Y-79700000D03*
X124600000Y-79700000D03*
D13*
X126300000Y-81400000D03*
X126300000Y-82200000D03*
X126300000Y-83000000D03*
X126300000Y-83800000D03*
X126300000Y-84600000D03*
X126300000Y-85400000D03*
X126300000Y-86200000D03*
X126300000Y-87000000D03*
X126300000Y-87800000D03*
X126300000Y-88600000D03*
X126300000Y-89400000D03*
X126300000Y-90200000D03*
X126300000Y-91000000D03*
X126300000Y-91800000D03*
X126300000Y-92600000D03*
X126300000Y-93400000D03*
D12*
X124600000Y-95100000D03*
X123800000Y-95100000D03*
X123000000Y-95100000D03*
X122200000Y-95100000D03*
X121400000Y-95100000D03*
X120600000Y-95100000D03*
X119800000Y-95100000D03*
X119000000Y-95100000D03*
X118200000Y-95100000D03*
X117400000Y-95100000D03*
X116600000Y-95100000D03*
X115800000Y-95100000D03*
X115000000Y-95100000D03*
X114200000Y-95100000D03*
X113400000Y-95100000D03*
X112600000Y-95100000D03*
D13*
X110900000Y-93400000D03*
X110900000Y-92600000D03*
X110900000Y-91800000D03*
X110900000Y-91000000D03*
X110900000Y-90200000D03*
X110900000Y-89400000D03*
X110900000Y-88600000D03*
X110900000Y-87800000D03*
X110900000Y-87000000D03*
X110900000Y-86200000D03*
X110900000Y-85400000D03*
X110900000Y-84600000D03*
X110900000Y-83800000D03*
X110900000Y-83000000D03*
X110900000Y-82200000D03*
X110900000Y-81400000D03*
D10*
G36*
X107874505Y-76101204D02*
G01*
X107898773Y-76104804D01*
X107922572Y-76110765D01*
X107945671Y-76119030D01*
X107967850Y-76129520D01*
X107988893Y-76142132D01*
X108008599Y-76156747D01*
X108026777Y-76173223D01*
X108043253Y-76191401D01*
X108057868Y-76211107D01*
X108070480Y-76232150D01*
X108080970Y-76254329D01*
X108089235Y-76277428D01*
X108095196Y-76301227D01*
X108098796Y-76325495D01*
X108100000Y-76349999D01*
X108100000Y-77000001D01*
X108098796Y-77024505D01*
X108095196Y-77048773D01*
X108089235Y-77072572D01*
X108080970Y-77095671D01*
X108070480Y-77117850D01*
X108057868Y-77138893D01*
X108043253Y-77158599D01*
X108026777Y-77176777D01*
X108008599Y-77193253D01*
X107988893Y-77207868D01*
X107967850Y-77220480D01*
X107945671Y-77230970D01*
X107922572Y-77239235D01*
X107898773Y-77245196D01*
X107874505Y-77248796D01*
X107850001Y-77250000D01*
X106949999Y-77250000D01*
X106925495Y-77248796D01*
X106901227Y-77245196D01*
X106877428Y-77239235D01*
X106854329Y-77230970D01*
X106832150Y-77220480D01*
X106811107Y-77207868D01*
X106791401Y-77193253D01*
X106773223Y-77176777D01*
X106756747Y-77158599D01*
X106742132Y-77138893D01*
X106729520Y-77117850D01*
X106719030Y-77095671D01*
X106710765Y-77072572D01*
X106704804Y-77048773D01*
X106701204Y-77024505D01*
X106700000Y-77000001D01*
X106700000Y-76349999D01*
X106701204Y-76325495D01*
X106704804Y-76301227D01*
X106710765Y-76277428D01*
X106719030Y-76254329D01*
X106729520Y-76232150D01*
X106742132Y-76211107D01*
X106756747Y-76191401D01*
X106773223Y-76173223D01*
X106791401Y-76156747D01*
X106811107Y-76142132D01*
X106832150Y-76129520D01*
X106854329Y-76119030D01*
X106877428Y-76110765D01*
X106901227Y-76104804D01*
X106925495Y-76101204D01*
X106949999Y-76100000D01*
X107850001Y-76100000D01*
X107874505Y-76101204D01*
G37*
G36*
X107874505Y-78151204D02*
G01*
X107898773Y-78154804D01*
X107922572Y-78160765D01*
X107945671Y-78169030D01*
X107967850Y-78179520D01*
X107988893Y-78192132D01*
X108008599Y-78206747D01*
X108026777Y-78223223D01*
X108043253Y-78241401D01*
X108057868Y-78261107D01*
X108070480Y-78282150D01*
X108080970Y-78304329D01*
X108089235Y-78327428D01*
X108095196Y-78351227D01*
X108098796Y-78375495D01*
X108100000Y-78399999D01*
X108100000Y-79050001D01*
X108098796Y-79074505D01*
X108095196Y-79098773D01*
X108089235Y-79122572D01*
X108080970Y-79145671D01*
X108070480Y-79167850D01*
X108057868Y-79188893D01*
X108043253Y-79208599D01*
X108026777Y-79226777D01*
X108008599Y-79243253D01*
X107988893Y-79257868D01*
X107967850Y-79270480D01*
X107945671Y-79280970D01*
X107922572Y-79289235D01*
X107898773Y-79295196D01*
X107874505Y-79298796D01*
X107850001Y-79300000D01*
X106949999Y-79300000D01*
X106925495Y-79298796D01*
X106901227Y-79295196D01*
X106877428Y-79289235D01*
X106854329Y-79280970D01*
X106832150Y-79270480D01*
X106811107Y-79257868D01*
X106791401Y-79243253D01*
X106773223Y-79226777D01*
X106756747Y-79208599D01*
X106742132Y-79188893D01*
X106729520Y-79167850D01*
X106719030Y-79145671D01*
X106710765Y-79122572D01*
X106704804Y-79098773D01*
X106701204Y-79074505D01*
X106700000Y-79050001D01*
X106700000Y-78399999D01*
X106701204Y-78375495D01*
X106704804Y-78351227D01*
X106710765Y-78327428D01*
X106719030Y-78304329D01*
X106729520Y-78282150D01*
X106742132Y-78261107D01*
X106756747Y-78241401D01*
X106773223Y-78223223D01*
X106791401Y-78206747D01*
X106811107Y-78192132D01*
X106832150Y-78179520D01*
X106854329Y-78169030D01*
X106877428Y-78160765D01*
X106901227Y-78154804D01*
X106925495Y-78151204D01*
X106949999Y-78150000D01*
X107850001Y-78150000D01*
X107874505Y-78151204D01*
G37*
G36*
X107394505Y-87501204D02*
G01*
X107418773Y-87504804D01*
X107442572Y-87510765D01*
X107465671Y-87519030D01*
X107487850Y-87529520D01*
X107508893Y-87542132D01*
X107528599Y-87556747D01*
X107546777Y-87573223D01*
X107563253Y-87591401D01*
X107577868Y-87611107D01*
X107590480Y-87632150D01*
X107600970Y-87654329D01*
X107609235Y-87677428D01*
X107615196Y-87701227D01*
X107618796Y-87725495D01*
X107620000Y-87749999D01*
X107620000Y-88400001D01*
X107618796Y-88424505D01*
X107615196Y-88448773D01*
X107609235Y-88472572D01*
X107600970Y-88495671D01*
X107590480Y-88517850D01*
X107577868Y-88538893D01*
X107563253Y-88558599D01*
X107546777Y-88576777D01*
X107528599Y-88593253D01*
X107508893Y-88607868D01*
X107487850Y-88620480D01*
X107465671Y-88630970D01*
X107442572Y-88639235D01*
X107418773Y-88645196D01*
X107394505Y-88648796D01*
X107370001Y-88650000D01*
X106469999Y-88650000D01*
X106445495Y-88648796D01*
X106421227Y-88645196D01*
X106397428Y-88639235D01*
X106374329Y-88630970D01*
X106352150Y-88620480D01*
X106331107Y-88607868D01*
X106311401Y-88593253D01*
X106293223Y-88576777D01*
X106276747Y-88558599D01*
X106262132Y-88538893D01*
X106249520Y-88517850D01*
X106239030Y-88495671D01*
X106230765Y-88472572D01*
X106224804Y-88448773D01*
X106221204Y-88424505D01*
X106220000Y-88400001D01*
X106220000Y-87749999D01*
X106221204Y-87725495D01*
X106224804Y-87701227D01*
X106230765Y-87677428D01*
X106239030Y-87654329D01*
X106249520Y-87632150D01*
X106262132Y-87611107D01*
X106276747Y-87591401D01*
X106293223Y-87573223D01*
X106311401Y-87556747D01*
X106331107Y-87542132D01*
X106352150Y-87529520D01*
X106374329Y-87519030D01*
X106397428Y-87510765D01*
X106421227Y-87504804D01*
X106445495Y-87501204D01*
X106469999Y-87500000D01*
X107370001Y-87500000D01*
X107394505Y-87501204D01*
G37*
G36*
X107394505Y-89551204D02*
G01*
X107418773Y-89554804D01*
X107442572Y-89560765D01*
X107465671Y-89569030D01*
X107487850Y-89579520D01*
X107508893Y-89592132D01*
X107528599Y-89606747D01*
X107546777Y-89623223D01*
X107563253Y-89641401D01*
X107577868Y-89661107D01*
X107590480Y-89682150D01*
X107600970Y-89704329D01*
X107609235Y-89727428D01*
X107615196Y-89751227D01*
X107618796Y-89775495D01*
X107620000Y-89799999D01*
X107620000Y-90450001D01*
X107618796Y-90474505D01*
X107615196Y-90498773D01*
X107609235Y-90522572D01*
X107600970Y-90545671D01*
X107590480Y-90567850D01*
X107577868Y-90588893D01*
X107563253Y-90608599D01*
X107546777Y-90626777D01*
X107528599Y-90643253D01*
X107508893Y-90657868D01*
X107487850Y-90670480D01*
X107465671Y-90680970D01*
X107442572Y-90689235D01*
X107418773Y-90695196D01*
X107394505Y-90698796D01*
X107370001Y-90700000D01*
X106469999Y-90700000D01*
X106445495Y-90698796D01*
X106421227Y-90695196D01*
X106397428Y-90689235D01*
X106374329Y-90680970D01*
X106352150Y-90670480D01*
X106331107Y-90657868D01*
X106311401Y-90643253D01*
X106293223Y-90626777D01*
X106276747Y-90608599D01*
X106262132Y-90588893D01*
X106249520Y-90567850D01*
X106239030Y-90545671D01*
X106230765Y-90522572D01*
X106224804Y-90498773D01*
X106221204Y-90474505D01*
X106220000Y-90450001D01*
X106220000Y-89799999D01*
X106221204Y-89775495D01*
X106224804Y-89751227D01*
X106230765Y-89727428D01*
X106239030Y-89704329D01*
X106249520Y-89682150D01*
X106262132Y-89661107D01*
X106276747Y-89641401D01*
X106293223Y-89623223D01*
X106311401Y-89606747D01*
X106331107Y-89592132D01*
X106352150Y-89579520D01*
X106374329Y-89569030D01*
X106397428Y-89560765D01*
X106421227Y-89554804D01*
X106445495Y-89551204D01*
X106469999Y-89550000D01*
X107370001Y-89550000D01*
X107394505Y-89551204D01*
G37*
G36*
X127724505Y-76001204D02*
G01*
X127748773Y-76004804D01*
X127772572Y-76010765D01*
X127795671Y-76019030D01*
X127817850Y-76029520D01*
X127838893Y-76042132D01*
X127858599Y-76056747D01*
X127876777Y-76073223D01*
X127893253Y-76091401D01*
X127907868Y-76111107D01*
X127920480Y-76132150D01*
X127930970Y-76154329D01*
X127939235Y-76177428D01*
X127945196Y-76201227D01*
X127948796Y-76225495D01*
X127950000Y-76249999D01*
X127950000Y-77150001D01*
X127948796Y-77174505D01*
X127945196Y-77198773D01*
X127939235Y-77222572D01*
X127930970Y-77245671D01*
X127920480Y-77267850D01*
X127907868Y-77288893D01*
X127893253Y-77308599D01*
X127876777Y-77326777D01*
X127858599Y-77343253D01*
X127838893Y-77357868D01*
X127817850Y-77370480D01*
X127795671Y-77380970D01*
X127772572Y-77389235D01*
X127748773Y-77395196D01*
X127724505Y-77398796D01*
X127700001Y-77400000D01*
X127049999Y-77400000D01*
X127025495Y-77398796D01*
X127001227Y-77395196D01*
X126977428Y-77389235D01*
X126954329Y-77380970D01*
X126932150Y-77370480D01*
X126911107Y-77357868D01*
X126891401Y-77343253D01*
X126873223Y-77326777D01*
X126856747Y-77308599D01*
X126842132Y-77288893D01*
X126829520Y-77267850D01*
X126819030Y-77245671D01*
X126810765Y-77222572D01*
X126804804Y-77198773D01*
X126801204Y-77174505D01*
X126800000Y-77150001D01*
X126800000Y-76249999D01*
X126801204Y-76225495D01*
X126804804Y-76201227D01*
X126810765Y-76177428D01*
X126819030Y-76154329D01*
X126829520Y-76132150D01*
X126842132Y-76111107D01*
X126856747Y-76091401D01*
X126873223Y-76073223D01*
X126891401Y-76056747D01*
X126911107Y-76042132D01*
X126932150Y-76029520D01*
X126954329Y-76019030D01*
X126977428Y-76010765D01*
X127001227Y-76004804D01*
X127025495Y-76001204D01*
X127049999Y-76000000D01*
X127700001Y-76000000D01*
X127724505Y-76001204D01*
G37*
G36*
X129774505Y-76001204D02*
G01*
X129798773Y-76004804D01*
X129822572Y-76010765D01*
X129845671Y-76019030D01*
X129867850Y-76029520D01*
X129888893Y-76042132D01*
X129908599Y-76056747D01*
X129926777Y-76073223D01*
X129943253Y-76091401D01*
X129957868Y-76111107D01*
X129970480Y-76132150D01*
X129980970Y-76154329D01*
X129989235Y-76177428D01*
X129995196Y-76201227D01*
X129998796Y-76225495D01*
X130000000Y-76249999D01*
X130000000Y-77150001D01*
X129998796Y-77174505D01*
X129995196Y-77198773D01*
X129989235Y-77222572D01*
X129980970Y-77245671D01*
X129970480Y-77267850D01*
X129957868Y-77288893D01*
X129943253Y-77308599D01*
X129926777Y-77326777D01*
X129908599Y-77343253D01*
X129888893Y-77357868D01*
X129867850Y-77370480D01*
X129845671Y-77380970D01*
X129822572Y-77389235D01*
X129798773Y-77395196D01*
X129774505Y-77398796D01*
X129750001Y-77400000D01*
X129099999Y-77400000D01*
X129075495Y-77398796D01*
X129051227Y-77395196D01*
X129027428Y-77389235D01*
X129004329Y-77380970D01*
X128982150Y-77370480D01*
X128961107Y-77357868D01*
X128941401Y-77343253D01*
X128923223Y-77326777D01*
X128906747Y-77308599D01*
X128892132Y-77288893D01*
X128879520Y-77267850D01*
X128869030Y-77245671D01*
X128860765Y-77222572D01*
X128854804Y-77198773D01*
X128851204Y-77174505D01*
X128850000Y-77150001D01*
X128850000Y-76249999D01*
X128851204Y-76225495D01*
X128854804Y-76201227D01*
X128860765Y-76177428D01*
X128869030Y-76154329D01*
X128879520Y-76132150D01*
X128892132Y-76111107D01*
X128906747Y-76091401D01*
X128923223Y-76073223D01*
X128941401Y-76056747D01*
X128961107Y-76042132D01*
X128982150Y-76029520D01*
X129004329Y-76019030D01*
X129027428Y-76010765D01*
X129051227Y-76004804D01*
X129075495Y-76001204D01*
X129099999Y-76000000D01*
X129750001Y-76000000D01*
X129774505Y-76001204D01*
G37*
G36*
X107374505Y-85451204D02*
G01*
X107398773Y-85454804D01*
X107422572Y-85460765D01*
X107445671Y-85469030D01*
X107467850Y-85479520D01*
X107488893Y-85492132D01*
X107508599Y-85506747D01*
X107526777Y-85523223D01*
X107543253Y-85541401D01*
X107557868Y-85561107D01*
X107570480Y-85582150D01*
X107580970Y-85604329D01*
X107589235Y-85627428D01*
X107595196Y-85651227D01*
X107598796Y-85675495D01*
X107600000Y-85699999D01*
X107600000Y-86350001D01*
X107598796Y-86374505D01*
X107595196Y-86398773D01*
X107589235Y-86422572D01*
X107580970Y-86445671D01*
X107570480Y-86467850D01*
X107557868Y-86488893D01*
X107543253Y-86508599D01*
X107526777Y-86526777D01*
X107508599Y-86543253D01*
X107488893Y-86557868D01*
X107467850Y-86570480D01*
X107445671Y-86580970D01*
X107422572Y-86589235D01*
X107398773Y-86595196D01*
X107374505Y-86598796D01*
X107350001Y-86600000D01*
X106449999Y-86600000D01*
X106425495Y-86598796D01*
X106401227Y-86595196D01*
X106377428Y-86589235D01*
X106354329Y-86580970D01*
X106332150Y-86570480D01*
X106311107Y-86557868D01*
X106291401Y-86543253D01*
X106273223Y-86526777D01*
X106256747Y-86508599D01*
X106242132Y-86488893D01*
X106229520Y-86467850D01*
X106219030Y-86445671D01*
X106210765Y-86422572D01*
X106204804Y-86398773D01*
X106201204Y-86374505D01*
X106200000Y-86350001D01*
X106200000Y-85699999D01*
X106201204Y-85675495D01*
X106204804Y-85651227D01*
X106210765Y-85627428D01*
X106219030Y-85604329D01*
X106229520Y-85582150D01*
X106242132Y-85561107D01*
X106256747Y-85541401D01*
X106273223Y-85523223D01*
X106291401Y-85506747D01*
X106311107Y-85492132D01*
X106332150Y-85479520D01*
X106354329Y-85469030D01*
X106377428Y-85460765D01*
X106401227Y-85454804D01*
X106425495Y-85451204D01*
X106449999Y-85450000D01*
X107350001Y-85450000D01*
X107374505Y-85451204D01*
G37*
G36*
X107374505Y-83401204D02*
G01*
X107398773Y-83404804D01*
X107422572Y-83410765D01*
X107445671Y-83419030D01*
X107467850Y-83429520D01*
X107488893Y-83442132D01*
X107508599Y-83456747D01*
X107526777Y-83473223D01*
X107543253Y-83491401D01*
X107557868Y-83511107D01*
X107570480Y-83532150D01*
X107580970Y-83554329D01*
X107589235Y-83577428D01*
X107595196Y-83601227D01*
X107598796Y-83625495D01*
X107600000Y-83649999D01*
X107600000Y-84300001D01*
X107598796Y-84324505D01*
X107595196Y-84348773D01*
X107589235Y-84372572D01*
X107580970Y-84395671D01*
X107570480Y-84417850D01*
X107557868Y-84438893D01*
X107543253Y-84458599D01*
X107526777Y-84476777D01*
X107508599Y-84493253D01*
X107488893Y-84507868D01*
X107467850Y-84520480D01*
X107445671Y-84530970D01*
X107422572Y-84539235D01*
X107398773Y-84545196D01*
X107374505Y-84548796D01*
X107350001Y-84550000D01*
X106449999Y-84550000D01*
X106425495Y-84548796D01*
X106401227Y-84545196D01*
X106377428Y-84539235D01*
X106354329Y-84530970D01*
X106332150Y-84520480D01*
X106311107Y-84507868D01*
X106291401Y-84493253D01*
X106273223Y-84476777D01*
X106256747Y-84458599D01*
X106242132Y-84438893D01*
X106229520Y-84417850D01*
X106219030Y-84395671D01*
X106210765Y-84372572D01*
X106204804Y-84348773D01*
X106201204Y-84324505D01*
X106200000Y-84300001D01*
X106200000Y-83649999D01*
X106201204Y-83625495D01*
X106204804Y-83601227D01*
X106210765Y-83577428D01*
X106219030Y-83554329D01*
X106229520Y-83532150D01*
X106242132Y-83511107D01*
X106256747Y-83491401D01*
X106273223Y-83473223D01*
X106291401Y-83456747D01*
X106311107Y-83442132D01*
X106332150Y-83429520D01*
X106354329Y-83419030D01*
X106377428Y-83410765D01*
X106401227Y-83404804D01*
X106425495Y-83401204D01*
X106449999Y-83400000D01*
X107350001Y-83400000D01*
X107374505Y-83401204D01*
G37*
G36*
X111874505Y-103051204D02*
G01*
X111898773Y-103054804D01*
X111922572Y-103060765D01*
X111945671Y-103069030D01*
X111967850Y-103079520D01*
X111988893Y-103092132D01*
X112008599Y-103106747D01*
X112026777Y-103123223D01*
X112043253Y-103141401D01*
X112057868Y-103161107D01*
X112070480Y-103182150D01*
X112080970Y-103204329D01*
X112089235Y-103227428D01*
X112095196Y-103251227D01*
X112098796Y-103275495D01*
X112100000Y-103299999D01*
X112100000Y-103950001D01*
X112098796Y-103974505D01*
X112095196Y-103998773D01*
X112089235Y-104022572D01*
X112080970Y-104045671D01*
X112070480Y-104067850D01*
X112057868Y-104088893D01*
X112043253Y-104108599D01*
X112026777Y-104126777D01*
X112008599Y-104143253D01*
X111988893Y-104157868D01*
X111967850Y-104170480D01*
X111945671Y-104180970D01*
X111922572Y-104189235D01*
X111898773Y-104195196D01*
X111874505Y-104198796D01*
X111850001Y-104200000D01*
X110949999Y-104200000D01*
X110925495Y-104198796D01*
X110901227Y-104195196D01*
X110877428Y-104189235D01*
X110854329Y-104180970D01*
X110832150Y-104170480D01*
X110811107Y-104157868D01*
X110791401Y-104143253D01*
X110773223Y-104126777D01*
X110756747Y-104108599D01*
X110742132Y-104088893D01*
X110729520Y-104067850D01*
X110719030Y-104045671D01*
X110710765Y-104022572D01*
X110704804Y-103998773D01*
X110701204Y-103974505D01*
X110700000Y-103950001D01*
X110700000Y-103299999D01*
X110701204Y-103275495D01*
X110704804Y-103251227D01*
X110710765Y-103227428D01*
X110719030Y-103204329D01*
X110729520Y-103182150D01*
X110742132Y-103161107D01*
X110756747Y-103141401D01*
X110773223Y-103123223D01*
X110791401Y-103106747D01*
X110811107Y-103092132D01*
X110832150Y-103079520D01*
X110854329Y-103069030D01*
X110877428Y-103060765D01*
X110901227Y-103054804D01*
X110925495Y-103051204D01*
X110949999Y-103050000D01*
X111850001Y-103050000D01*
X111874505Y-103051204D01*
G37*
G36*
X111874505Y-101001204D02*
G01*
X111898773Y-101004804D01*
X111922572Y-101010765D01*
X111945671Y-101019030D01*
X111967850Y-101029520D01*
X111988893Y-101042132D01*
X112008599Y-101056747D01*
X112026777Y-101073223D01*
X112043253Y-101091401D01*
X112057868Y-101111107D01*
X112070480Y-101132150D01*
X112080970Y-101154329D01*
X112089235Y-101177428D01*
X112095196Y-101201227D01*
X112098796Y-101225495D01*
X112100000Y-101249999D01*
X112100000Y-101900001D01*
X112098796Y-101924505D01*
X112095196Y-101948773D01*
X112089235Y-101972572D01*
X112080970Y-101995671D01*
X112070480Y-102017850D01*
X112057868Y-102038893D01*
X112043253Y-102058599D01*
X112026777Y-102076777D01*
X112008599Y-102093253D01*
X111988893Y-102107868D01*
X111967850Y-102120480D01*
X111945671Y-102130970D01*
X111922572Y-102139235D01*
X111898773Y-102145196D01*
X111874505Y-102148796D01*
X111850001Y-102150000D01*
X110949999Y-102150000D01*
X110925495Y-102148796D01*
X110901227Y-102145196D01*
X110877428Y-102139235D01*
X110854329Y-102130970D01*
X110832150Y-102120480D01*
X110811107Y-102107868D01*
X110791401Y-102093253D01*
X110773223Y-102076777D01*
X110756747Y-102058599D01*
X110742132Y-102038893D01*
X110729520Y-102017850D01*
X110719030Y-101995671D01*
X110710765Y-101972572D01*
X110704804Y-101948773D01*
X110701204Y-101924505D01*
X110700000Y-101900001D01*
X110700000Y-101249999D01*
X110701204Y-101225495D01*
X110704804Y-101201227D01*
X110710765Y-101177428D01*
X110719030Y-101154329D01*
X110729520Y-101132150D01*
X110742132Y-101111107D01*
X110756747Y-101091401D01*
X110773223Y-101073223D01*
X110791401Y-101056747D01*
X110811107Y-101042132D01*
X110832150Y-101029520D01*
X110854329Y-101019030D01*
X110877428Y-101010765D01*
X110901227Y-101004804D01*
X110925495Y-101001204D01*
X110949999Y-101000000D01*
X111850001Y-101000000D01*
X111874505Y-101001204D01*
G37*
G36*
X125274505Y-100601204D02*
G01*
X125298773Y-100604804D01*
X125322572Y-100610765D01*
X125345671Y-100619030D01*
X125367850Y-100629520D01*
X125388893Y-100642132D01*
X125408599Y-100656747D01*
X125426777Y-100673223D01*
X125443253Y-100691401D01*
X125457868Y-100711107D01*
X125470480Y-100732150D01*
X125480970Y-100754329D01*
X125489235Y-100777428D01*
X125495196Y-100801227D01*
X125498796Y-100825495D01*
X125500000Y-100849999D01*
X125500000Y-101500001D01*
X125498796Y-101524505D01*
X125495196Y-101548773D01*
X125489235Y-101572572D01*
X125480970Y-101595671D01*
X125470480Y-101617850D01*
X125457868Y-101638893D01*
X125443253Y-101658599D01*
X125426777Y-101676777D01*
X125408599Y-101693253D01*
X125388893Y-101707868D01*
X125367850Y-101720480D01*
X125345671Y-101730970D01*
X125322572Y-101739235D01*
X125298773Y-101745196D01*
X125274505Y-101748796D01*
X125250001Y-101750000D01*
X124349999Y-101750000D01*
X124325495Y-101748796D01*
X124301227Y-101745196D01*
X124277428Y-101739235D01*
X124254329Y-101730970D01*
X124232150Y-101720480D01*
X124211107Y-101707868D01*
X124191401Y-101693253D01*
X124173223Y-101676777D01*
X124156747Y-101658599D01*
X124142132Y-101638893D01*
X124129520Y-101617850D01*
X124119030Y-101595671D01*
X124110765Y-101572572D01*
X124104804Y-101548773D01*
X124101204Y-101524505D01*
X124100000Y-101500001D01*
X124100000Y-100849999D01*
X124101204Y-100825495D01*
X124104804Y-100801227D01*
X124110765Y-100777428D01*
X124119030Y-100754329D01*
X124129520Y-100732150D01*
X124142132Y-100711107D01*
X124156747Y-100691401D01*
X124173223Y-100673223D01*
X124191401Y-100656747D01*
X124211107Y-100642132D01*
X124232150Y-100629520D01*
X124254329Y-100619030D01*
X124277428Y-100610765D01*
X124301227Y-100604804D01*
X124325495Y-100601204D01*
X124349999Y-100600000D01*
X125250001Y-100600000D01*
X125274505Y-100601204D01*
G37*
G36*
X125274505Y-102651204D02*
G01*
X125298773Y-102654804D01*
X125322572Y-102660765D01*
X125345671Y-102669030D01*
X125367850Y-102679520D01*
X125388893Y-102692132D01*
X125408599Y-102706747D01*
X125426777Y-102723223D01*
X125443253Y-102741401D01*
X125457868Y-102761107D01*
X125470480Y-102782150D01*
X125480970Y-102804329D01*
X125489235Y-102827428D01*
X125495196Y-102851227D01*
X125498796Y-102875495D01*
X125500000Y-102899999D01*
X125500000Y-103550001D01*
X125498796Y-103574505D01*
X125495196Y-103598773D01*
X125489235Y-103622572D01*
X125480970Y-103645671D01*
X125470480Y-103667850D01*
X125457868Y-103688893D01*
X125443253Y-103708599D01*
X125426777Y-103726777D01*
X125408599Y-103743253D01*
X125388893Y-103757868D01*
X125367850Y-103770480D01*
X125345671Y-103780970D01*
X125322572Y-103789235D01*
X125298773Y-103795196D01*
X125274505Y-103798796D01*
X125250001Y-103800000D01*
X124349999Y-103800000D01*
X124325495Y-103798796D01*
X124301227Y-103795196D01*
X124277428Y-103789235D01*
X124254329Y-103780970D01*
X124232150Y-103770480D01*
X124211107Y-103757868D01*
X124191401Y-103743253D01*
X124173223Y-103726777D01*
X124156747Y-103708599D01*
X124142132Y-103688893D01*
X124129520Y-103667850D01*
X124119030Y-103645671D01*
X124110765Y-103622572D01*
X124104804Y-103598773D01*
X124101204Y-103574505D01*
X124100000Y-103550001D01*
X124100000Y-102899999D01*
X124101204Y-102875495D01*
X124104804Y-102851227D01*
X124110765Y-102827428D01*
X124119030Y-102804329D01*
X124129520Y-102782150D01*
X124142132Y-102761107D01*
X124156747Y-102741401D01*
X124173223Y-102723223D01*
X124191401Y-102706747D01*
X124211107Y-102692132D01*
X124232150Y-102679520D01*
X124254329Y-102669030D01*
X124277428Y-102660765D01*
X124301227Y-102654804D01*
X124325495Y-102651204D01*
X124349999Y-102650000D01*
X125250001Y-102650000D01*
X125274505Y-102651204D01*
G37*
G36*
X118124505Y-76001204D02*
G01*
X118148773Y-76004804D01*
X118172572Y-76010765D01*
X118195671Y-76019030D01*
X118217850Y-76029520D01*
X118238893Y-76042132D01*
X118258599Y-76056747D01*
X118276777Y-76073223D01*
X118293253Y-76091401D01*
X118307868Y-76111107D01*
X118320480Y-76132150D01*
X118330970Y-76154329D01*
X118339235Y-76177428D01*
X118345196Y-76201227D01*
X118348796Y-76225495D01*
X118350000Y-76249999D01*
X118350000Y-77150001D01*
X118348796Y-77174505D01*
X118345196Y-77198773D01*
X118339235Y-77222572D01*
X118330970Y-77245671D01*
X118320480Y-77267850D01*
X118307868Y-77288893D01*
X118293253Y-77308599D01*
X118276777Y-77326777D01*
X118258599Y-77343253D01*
X118238893Y-77357868D01*
X118217850Y-77370480D01*
X118195671Y-77380970D01*
X118172572Y-77389235D01*
X118148773Y-77395196D01*
X118124505Y-77398796D01*
X118100001Y-77400000D01*
X117449999Y-77400000D01*
X117425495Y-77398796D01*
X117401227Y-77395196D01*
X117377428Y-77389235D01*
X117354329Y-77380970D01*
X117332150Y-77370480D01*
X117311107Y-77357868D01*
X117291401Y-77343253D01*
X117273223Y-77326777D01*
X117256747Y-77308599D01*
X117242132Y-77288893D01*
X117229520Y-77267850D01*
X117219030Y-77245671D01*
X117210765Y-77222572D01*
X117204804Y-77198773D01*
X117201204Y-77174505D01*
X117200000Y-77150001D01*
X117200000Y-76249999D01*
X117201204Y-76225495D01*
X117204804Y-76201227D01*
X117210765Y-76177428D01*
X117219030Y-76154329D01*
X117229520Y-76132150D01*
X117242132Y-76111107D01*
X117256747Y-76091401D01*
X117273223Y-76073223D01*
X117291401Y-76056747D01*
X117311107Y-76042132D01*
X117332150Y-76029520D01*
X117354329Y-76019030D01*
X117377428Y-76010765D01*
X117401227Y-76004804D01*
X117425495Y-76001204D01*
X117449999Y-76000000D01*
X118100001Y-76000000D01*
X118124505Y-76001204D01*
G37*
G36*
X120174505Y-76001204D02*
G01*
X120198773Y-76004804D01*
X120222572Y-76010765D01*
X120245671Y-76019030D01*
X120267850Y-76029520D01*
X120288893Y-76042132D01*
X120308599Y-76056747D01*
X120326777Y-76073223D01*
X120343253Y-76091401D01*
X120357868Y-76111107D01*
X120370480Y-76132150D01*
X120380970Y-76154329D01*
X120389235Y-76177428D01*
X120395196Y-76201227D01*
X120398796Y-76225495D01*
X120400000Y-76249999D01*
X120400000Y-77150001D01*
X120398796Y-77174505D01*
X120395196Y-77198773D01*
X120389235Y-77222572D01*
X120380970Y-77245671D01*
X120370480Y-77267850D01*
X120357868Y-77288893D01*
X120343253Y-77308599D01*
X120326777Y-77326777D01*
X120308599Y-77343253D01*
X120288893Y-77357868D01*
X120267850Y-77370480D01*
X120245671Y-77380970D01*
X120222572Y-77389235D01*
X120198773Y-77395196D01*
X120174505Y-77398796D01*
X120150001Y-77400000D01*
X119499999Y-77400000D01*
X119475495Y-77398796D01*
X119451227Y-77395196D01*
X119427428Y-77389235D01*
X119404329Y-77380970D01*
X119382150Y-77370480D01*
X119361107Y-77357868D01*
X119341401Y-77343253D01*
X119323223Y-77326777D01*
X119306747Y-77308599D01*
X119292132Y-77288893D01*
X119279520Y-77267850D01*
X119269030Y-77245671D01*
X119260765Y-77222572D01*
X119254804Y-77198773D01*
X119251204Y-77174505D01*
X119250000Y-77150001D01*
X119250000Y-76249999D01*
X119251204Y-76225495D01*
X119254804Y-76201227D01*
X119260765Y-76177428D01*
X119269030Y-76154329D01*
X119279520Y-76132150D01*
X119292132Y-76111107D01*
X119306747Y-76091401D01*
X119323223Y-76073223D01*
X119341401Y-76056747D01*
X119361107Y-76042132D01*
X119382150Y-76029520D01*
X119404329Y-76019030D01*
X119427428Y-76010765D01*
X119451227Y-76004804D01*
X119475495Y-76001204D01*
X119499999Y-76000000D01*
X120150001Y-76000000D01*
X120174505Y-76001204D01*
G37*
G36*
X114574505Y-76001204D02*
G01*
X114598773Y-76004804D01*
X114622572Y-76010765D01*
X114645671Y-76019030D01*
X114667850Y-76029520D01*
X114688893Y-76042132D01*
X114708599Y-76056747D01*
X114726777Y-76073223D01*
X114743253Y-76091401D01*
X114757868Y-76111107D01*
X114770480Y-76132150D01*
X114780970Y-76154329D01*
X114789235Y-76177428D01*
X114795196Y-76201227D01*
X114798796Y-76225495D01*
X114800000Y-76249999D01*
X114800000Y-77150001D01*
X114798796Y-77174505D01*
X114795196Y-77198773D01*
X114789235Y-77222572D01*
X114780970Y-77245671D01*
X114770480Y-77267850D01*
X114757868Y-77288893D01*
X114743253Y-77308599D01*
X114726777Y-77326777D01*
X114708599Y-77343253D01*
X114688893Y-77357868D01*
X114667850Y-77370480D01*
X114645671Y-77380970D01*
X114622572Y-77389235D01*
X114598773Y-77395196D01*
X114574505Y-77398796D01*
X114550001Y-77400000D01*
X113899999Y-77400000D01*
X113875495Y-77398796D01*
X113851227Y-77395196D01*
X113827428Y-77389235D01*
X113804329Y-77380970D01*
X113782150Y-77370480D01*
X113761107Y-77357868D01*
X113741401Y-77343253D01*
X113723223Y-77326777D01*
X113706747Y-77308599D01*
X113692132Y-77288893D01*
X113679520Y-77267850D01*
X113669030Y-77245671D01*
X113660765Y-77222572D01*
X113654804Y-77198773D01*
X113651204Y-77174505D01*
X113650000Y-77150001D01*
X113650000Y-76249999D01*
X113651204Y-76225495D01*
X113654804Y-76201227D01*
X113660765Y-76177428D01*
X113669030Y-76154329D01*
X113679520Y-76132150D01*
X113692132Y-76111107D01*
X113706747Y-76091401D01*
X113723223Y-76073223D01*
X113741401Y-76056747D01*
X113761107Y-76042132D01*
X113782150Y-76029520D01*
X113804329Y-76019030D01*
X113827428Y-76010765D01*
X113851227Y-76004804D01*
X113875495Y-76001204D01*
X113899999Y-76000000D01*
X114550001Y-76000000D01*
X114574505Y-76001204D01*
G37*
G36*
X112524505Y-76001204D02*
G01*
X112548773Y-76004804D01*
X112572572Y-76010765D01*
X112595671Y-76019030D01*
X112617850Y-76029520D01*
X112638893Y-76042132D01*
X112658599Y-76056747D01*
X112676777Y-76073223D01*
X112693253Y-76091401D01*
X112707868Y-76111107D01*
X112720480Y-76132150D01*
X112730970Y-76154329D01*
X112739235Y-76177428D01*
X112745196Y-76201227D01*
X112748796Y-76225495D01*
X112750000Y-76249999D01*
X112750000Y-77150001D01*
X112748796Y-77174505D01*
X112745196Y-77198773D01*
X112739235Y-77222572D01*
X112730970Y-77245671D01*
X112720480Y-77267850D01*
X112707868Y-77288893D01*
X112693253Y-77308599D01*
X112676777Y-77326777D01*
X112658599Y-77343253D01*
X112638893Y-77357868D01*
X112617850Y-77370480D01*
X112595671Y-77380970D01*
X112572572Y-77389235D01*
X112548773Y-77395196D01*
X112524505Y-77398796D01*
X112500001Y-77400000D01*
X111849999Y-77400000D01*
X111825495Y-77398796D01*
X111801227Y-77395196D01*
X111777428Y-77389235D01*
X111754329Y-77380970D01*
X111732150Y-77370480D01*
X111711107Y-77357868D01*
X111691401Y-77343253D01*
X111673223Y-77326777D01*
X111656747Y-77308599D01*
X111642132Y-77288893D01*
X111629520Y-77267850D01*
X111619030Y-77245671D01*
X111610765Y-77222572D01*
X111604804Y-77198773D01*
X111601204Y-77174505D01*
X111600000Y-77150001D01*
X111600000Y-76249999D01*
X111601204Y-76225495D01*
X111604804Y-76201227D01*
X111610765Y-76177428D01*
X111619030Y-76154329D01*
X111629520Y-76132150D01*
X111642132Y-76111107D01*
X111656747Y-76091401D01*
X111673223Y-76073223D01*
X111691401Y-76056747D01*
X111711107Y-76042132D01*
X111732150Y-76029520D01*
X111754329Y-76019030D01*
X111777428Y-76010765D01*
X111801227Y-76004804D01*
X111825495Y-76001204D01*
X111849999Y-76000000D01*
X112500001Y-76000000D01*
X112524505Y-76001204D01*
G37*
G36*
X123424505Y-76001204D02*
G01*
X123448773Y-76004804D01*
X123472572Y-76010765D01*
X123495671Y-76019030D01*
X123517850Y-76029520D01*
X123538893Y-76042132D01*
X123558599Y-76056747D01*
X123576777Y-76073223D01*
X123593253Y-76091401D01*
X123607868Y-76111107D01*
X123620480Y-76132150D01*
X123630970Y-76154329D01*
X123639235Y-76177428D01*
X123645196Y-76201227D01*
X123648796Y-76225495D01*
X123650000Y-76249999D01*
X123650000Y-77150001D01*
X123648796Y-77174505D01*
X123645196Y-77198773D01*
X123639235Y-77222572D01*
X123630970Y-77245671D01*
X123620480Y-77267850D01*
X123607868Y-77288893D01*
X123593253Y-77308599D01*
X123576777Y-77326777D01*
X123558599Y-77343253D01*
X123538893Y-77357868D01*
X123517850Y-77370480D01*
X123495671Y-77380970D01*
X123472572Y-77389235D01*
X123448773Y-77395196D01*
X123424505Y-77398796D01*
X123400001Y-77400000D01*
X122749999Y-77400000D01*
X122725495Y-77398796D01*
X122701227Y-77395196D01*
X122677428Y-77389235D01*
X122654329Y-77380970D01*
X122632150Y-77370480D01*
X122611107Y-77357868D01*
X122591401Y-77343253D01*
X122573223Y-77326777D01*
X122556747Y-77308599D01*
X122542132Y-77288893D01*
X122529520Y-77267850D01*
X122519030Y-77245671D01*
X122510765Y-77222572D01*
X122504804Y-77198773D01*
X122501204Y-77174505D01*
X122500000Y-77150001D01*
X122500000Y-76249999D01*
X122501204Y-76225495D01*
X122504804Y-76201227D01*
X122510765Y-76177428D01*
X122519030Y-76154329D01*
X122529520Y-76132150D01*
X122542132Y-76111107D01*
X122556747Y-76091401D01*
X122573223Y-76073223D01*
X122591401Y-76056747D01*
X122611107Y-76042132D01*
X122632150Y-76029520D01*
X122654329Y-76019030D01*
X122677428Y-76010765D01*
X122701227Y-76004804D01*
X122725495Y-76001204D01*
X122749999Y-76000000D01*
X123400001Y-76000000D01*
X123424505Y-76001204D01*
G37*
G36*
X125474505Y-76001204D02*
G01*
X125498773Y-76004804D01*
X125522572Y-76010765D01*
X125545671Y-76019030D01*
X125567850Y-76029520D01*
X125588893Y-76042132D01*
X125608599Y-76056747D01*
X125626777Y-76073223D01*
X125643253Y-76091401D01*
X125657868Y-76111107D01*
X125670480Y-76132150D01*
X125680970Y-76154329D01*
X125689235Y-76177428D01*
X125695196Y-76201227D01*
X125698796Y-76225495D01*
X125700000Y-76249999D01*
X125700000Y-77150001D01*
X125698796Y-77174505D01*
X125695196Y-77198773D01*
X125689235Y-77222572D01*
X125680970Y-77245671D01*
X125670480Y-77267850D01*
X125657868Y-77288893D01*
X125643253Y-77308599D01*
X125626777Y-77326777D01*
X125608599Y-77343253D01*
X125588893Y-77357868D01*
X125567850Y-77370480D01*
X125545671Y-77380970D01*
X125522572Y-77389235D01*
X125498773Y-77395196D01*
X125474505Y-77398796D01*
X125450001Y-77400000D01*
X124799999Y-77400000D01*
X124775495Y-77398796D01*
X124751227Y-77395196D01*
X124727428Y-77389235D01*
X124704329Y-77380970D01*
X124682150Y-77370480D01*
X124661107Y-77357868D01*
X124641401Y-77343253D01*
X124623223Y-77326777D01*
X124606747Y-77308599D01*
X124592132Y-77288893D01*
X124579520Y-77267850D01*
X124569030Y-77245671D01*
X124560765Y-77222572D01*
X124554804Y-77198773D01*
X124551204Y-77174505D01*
X124550000Y-77150001D01*
X124550000Y-76249999D01*
X124551204Y-76225495D01*
X124554804Y-76201227D01*
X124560765Y-76177428D01*
X124569030Y-76154329D01*
X124579520Y-76132150D01*
X124592132Y-76111107D01*
X124606747Y-76091401D01*
X124623223Y-76073223D01*
X124641401Y-76056747D01*
X124661107Y-76042132D01*
X124682150Y-76029520D01*
X124704329Y-76019030D01*
X124727428Y-76010765D01*
X124751227Y-76004804D01*
X124775495Y-76001204D01*
X124799999Y-76000000D01*
X125450001Y-76000000D01*
X125474505Y-76001204D01*
G37*
M02*
