M48
; DRILL file {KiCad (5.1.5-0-10_14)} date 2020 November 09, Monday 16:08:34
; FORMAT={-:-/ absolute / inch / decimal}
; #@! TF.CreationDate,2020-11-09T16:08:34+01:00
; #@! TF.GenerationSoftware,Kicad,Pcbnew,(5.1.5-0-10_14)
FMAT,2
INCH
T1C0.0157
T2C0.0394
T3C0.0433
%
G90
G05
T1
X3.8976Y-4.122
X3.9409Y-3.5197
X4.0197Y-3.8937
X4.1929Y-4.378
X4.1929Y-4.685
X4.1969Y-4.0827
X4.2402Y-3.7362
X4.2756Y-3.9528
X4.3012Y-3.5236
X4.3859Y-4.5074
X4.4055Y-4.3858
X4.4803Y-3.3976
X4.4803Y-3.5551
X4.4803Y-3.6339
X4.4803Y-3.7126
X4.4803Y-3.7913
X4.4803Y-3.8701
X4.4803Y-3.4764
X4.4882Y-4.7402
X4.4882Y-4.8425
X4.5354Y-4.4685
X4.5591Y-3.4764
X4.5591Y-3.6339
X4.5591Y-3.7126
X4.5591Y-3.7913
X4.5591Y-3.8701
X4.5591Y-3.3976
X4.5591Y-3.5551
X4.5787Y-4.6181
X4.6024Y-4.3484
X4.6378Y-3.3976
X4.6378Y-3.4764
X4.6378Y-3.5551
X4.6378Y-3.6339
X4.6378Y-3.7126
X4.6378Y-3.7913
X4.6378Y-3.8701
X4.7165Y-3.3976
X4.7165Y-3.4764
X4.7165Y-3.5551
X4.7165Y-3.6339
X4.7165Y-3.7126
X4.7165Y-3.7913
X4.7165Y-3.8701
X4.7559Y-4.3209
X4.7953Y-3.3976
X4.7953Y-3.4764
X4.7953Y-3.5551
X4.7953Y-3.6339
X4.7953Y-3.7126
X4.7953Y-3.7913
X4.7953Y-3.8701
X4.8031Y-4.8425
X4.8071Y-4.7008
X4.8701Y-4.3228
X4.874Y-3.3976
X4.874Y-3.4764
X4.874Y-3.5551
X4.874Y-3.6339
X4.874Y-3.7126
X4.874Y-3.7913
X4.874Y-3.8701
X4.8808Y-3.933
X4.9528Y-3.3976
X4.9528Y-3.5551
X4.9528Y-3.4764
X4.9528Y-3.6339
X4.9528Y-3.7126
X4.9528Y-3.7913
X4.9528Y-3.8701
X4.9764Y-4.7598
X4.9787Y-4.3379
X5.0146Y-4.8886
X5.0315Y-3.4764
X5.0315Y-3.3976
X5.0315Y-3.5551
X5.0315Y-3.6339
X5.0315Y-3.7126
X5.0315Y-3.7913
X5.0315Y-3.8701
X5.0787Y-4.6339
X5.0816Y-4.2853
X5.0888Y-4.4171
X5.1286Y-4.4212
X5.1535Y-3.4016
X5.2106Y-4.8799
X5.248Y-4.7126
X5.2649Y-3.8194
X5.2697Y-4.8248
X5.2995Y-4.1045
X5.315Y-3.626
X5.3307Y-3.3976
X5.3543Y-4.4685
X5.4068Y-3.9287
X5.4685Y-3.3976
X5.4764Y-4.5197
X5.4803Y-4.6358
X5.4921Y-3.6339
X5.5098Y-4.7736
X5.5118Y-4.8819
X5.5512Y-4.4685
X5.5512Y-4.5807
T2
X3.8248Y-3.3346
X3.8248Y-3.4346
X3.8248Y-3.5346
X3.8248Y-3.6346
X3.8248Y-3.7346
X3.8248Y-3.8346
X3.8248Y-3.9346
X3.8248Y-4.0346
X3.8248Y-4.1346
X3.8248Y-4.2346
X3.8248Y-4.3346
X3.8248Y-4.4346
X3.8248Y-4.5346
X3.8248Y-4.6346
X3.8248Y-4.7346
X3.8248Y-4.8346
X3.9705Y-4.9843
X4.0705Y-4.9843
X4.1705Y-4.9843
X4.2705Y-4.9843
X4.3705Y-4.9843
X4.4705Y-4.9843
X4.5705Y-4.9843
X4.6705Y-4.9843
X4.7705Y-4.9843
X4.8705Y-4.9843
X4.9705Y-4.9843
X5.0705Y-4.9843
X5.1705Y-4.9843
X5.2705Y-4.9843
X5.3705Y-4.9843
X5.4705Y-4.9843
X3.9705Y-3.185
X4.0705Y-3.185
X4.1705Y-3.185
X4.2705Y-3.185
X4.3705Y-3.185
X4.4705Y-3.185
X4.5705Y-3.185
X4.6705Y-3.185
X4.7705Y-3.185
X4.8705Y-3.185
X4.9705Y-3.185
X5.0705Y-3.185
X5.1705Y-3.185
X5.2705Y-3.185
X5.3705Y-3.185
X5.4705Y-3.185
X5.1732Y-3.5354
X5.2732Y-3.5354
X5.3732Y-3.5354
X5.4732Y-3.5354
X5.6201Y-3.3346
X5.6201Y-3.4346
X5.6201Y-3.5346
X5.6201Y-3.6346
X5.6201Y-3.7346
X5.6201Y-3.8346
X5.6201Y-3.9346
X5.6201Y-4.0346
X5.6201Y-4.1346
X5.6201Y-4.2346
X5.6201Y-4.3346
X5.6201Y-4.4346
X5.6201Y-4.5346
X5.6201Y-4.6346
X5.6201Y-4.7346
X5.6201Y-4.8346
T3
X4.063Y-3.4075
X4.063Y-3.6634
X4.2402Y-3.4075
X4.2402Y-3.6634
T0
M30
