G04 #@! TF.GenerationSoftware,KiCad,Pcbnew,(5.1.5-0-10_14)*
G04 #@! TF.CreationDate,2020-11-09T16:08:32+01:00*
G04 #@! TF.ProjectId,ATmega128_Breakout_Board_CC1101_HAT,41546d65-6761-4313-9238-5f427265616b,rev?*
G04 #@! TF.SameCoordinates,Original*
G04 #@! TF.FileFunction,Paste,Top*
G04 #@! TF.FilePolarity,Positive*
%FSLAX46Y46*%
G04 Gerber Fmt 4.6, Leading zero omitted, Abs format (unit mm)*
G04 Created by KiCad (PCBNEW (5.1.5-0-10_14)) date 2020-11-09 16:08:32*
%MOMM*%
%LPD*%
G04 APERTURE LIST*
%ADD10C,0.100000*%
%ADD11C,1.350000*%
%ADD12R,0.650000X1.060000*%
%ADD13R,1.300000X0.900000*%
%ADD14R,0.610000X2.000000*%
%ADD15R,2.680000X3.600000*%
G04 APERTURE END LIST*
D10*
G36*
X109024505Y-95401204D02*
G01*
X109048773Y-95404804D01*
X109072572Y-95410765D01*
X109095671Y-95419030D01*
X109117850Y-95429520D01*
X109138893Y-95442132D01*
X109158599Y-95456747D01*
X109176777Y-95473223D01*
X109193253Y-95491401D01*
X109207868Y-95511107D01*
X109220480Y-95532150D01*
X109230970Y-95554329D01*
X109239235Y-95577428D01*
X109245196Y-95601227D01*
X109248796Y-95625495D01*
X109250000Y-95649999D01*
X109250000Y-96550001D01*
X109248796Y-96574505D01*
X109245196Y-96598773D01*
X109239235Y-96622572D01*
X109230970Y-96645671D01*
X109220480Y-96667850D01*
X109207868Y-96688893D01*
X109193253Y-96708599D01*
X109176777Y-96726777D01*
X109158599Y-96743253D01*
X109138893Y-96757868D01*
X109117850Y-96770480D01*
X109095671Y-96780970D01*
X109072572Y-96789235D01*
X109048773Y-96795196D01*
X109024505Y-96798796D01*
X109000001Y-96800000D01*
X108349999Y-96800000D01*
X108325495Y-96798796D01*
X108301227Y-96795196D01*
X108277428Y-96789235D01*
X108254329Y-96780970D01*
X108232150Y-96770480D01*
X108211107Y-96757868D01*
X108191401Y-96743253D01*
X108173223Y-96726777D01*
X108156747Y-96708599D01*
X108142132Y-96688893D01*
X108129520Y-96667850D01*
X108119030Y-96645671D01*
X108110765Y-96622572D01*
X108104804Y-96598773D01*
X108101204Y-96574505D01*
X108100000Y-96550001D01*
X108100000Y-95649999D01*
X108101204Y-95625495D01*
X108104804Y-95601227D01*
X108110765Y-95577428D01*
X108119030Y-95554329D01*
X108129520Y-95532150D01*
X108142132Y-95511107D01*
X108156747Y-95491401D01*
X108173223Y-95473223D01*
X108191401Y-95456747D01*
X108211107Y-95442132D01*
X108232150Y-95429520D01*
X108254329Y-95419030D01*
X108277428Y-95410765D01*
X108301227Y-95404804D01*
X108325495Y-95401204D01*
X108349999Y-95400000D01*
X109000001Y-95400000D01*
X109024505Y-95401204D01*
G37*
G36*
X111074505Y-95401204D02*
G01*
X111098773Y-95404804D01*
X111122572Y-95410765D01*
X111145671Y-95419030D01*
X111167850Y-95429520D01*
X111188893Y-95442132D01*
X111208599Y-95456747D01*
X111226777Y-95473223D01*
X111243253Y-95491401D01*
X111257868Y-95511107D01*
X111270480Y-95532150D01*
X111280970Y-95554329D01*
X111289235Y-95577428D01*
X111295196Y-95601227D01*
X111298796Y-95625495D01*
X111300000Y-95649999D01*
X111300000Y-96550001D01*
X111298796Y-96574505D01*
X111295196Y-96598773D01*
X111289235Y-96622572D01*
X111280970Y-96645671D01*
X111270480Y-96667850D01*
X111257868Y-96688893D01*
X111243253Y-96708599D01*
X111226777Y-96726777D01*
X111208599Y-96743253D01*
X111188893Y-96757868D01*
X111167850Y-96770480D01*
X111145671Y-96780970D01*
X111122572Y-96789235D01*
X111098773Y-96795196D01*
X111074505Y-96798796D01*
X111050001Y-96800000D01*
X110399999Y-96800000D01*
X110375495Y-96798796D01*
X110351227Y-96795196D01*
X110327428Y-96789235D01*
X110304329Y-96780970D01*
X110282150Y-96770480D01*
X110261107Y-96757868D01*
X110241401Y-96743253D01*
X110223223Y-96726777D01*
X110206747Y-96708599D01*
X110192132Y-96688893D01*
X110179520Y-96667850D01*
X110169030Y-96645671D01*
X110160765Y-96622572D01*
X110154804Y-96598773D01*
X110151204Y-96574505D01*
X110150000Y-96550001D01*
X110150000Y-95649999D01*
X110151204Y-95625495D01*
X110154804Y-95601227D01*
X110160765Y-95577428D01*
X110169030Y-95554329D01*
X110179520Y-95532150D01*
X110192132Y-95511107D01*
X110206747Y-95491401D01*
X110223223Y-95473223D01*
X110241401Y-95456747D01*
X110261107Y-95442132D01*
X110282150Y-95429520D01*
X110304329Y-95419030D01*
X110327428Y-95410765D01*
X110351227Y-95404804D01*
X110375495Y-95401204D01*
X110399999Y-95400000D01*
X111050001Y-95400000D01*
X111074505Y-95401204D01*
G37*
G36*
X106774505Y-95251203D02*
G01*
X106798773Y-95254803D01*
X106822572Y-95260764D01*
X106845671Y-95269029D01*
X106867850Y-95279519D01*
X106888893Y-95292131D01*
X106908599Y-95306746D01*
X106926777Y-95323222D01*
X106943253Y-95341400D01*
X106957868Y-95361106D01*
X106970480Y-95382149D01*
X106980970Y-95404328D01*
X106989235Y-95427427D01*
X106995196Y-95451226D01*
X106998796Y-95475494D01*
X107000000Y-95499998D01*
X107000000Y-96400000D01*
X106998796Y-96424504D01*
X106995196Y-96448772D01*
X106989235Y-96472571D01*
X106980970Y-96495670D01*
X106970480Y-96517849D01*
X106957868Y-96538892D01*
X106943253Y-96558598D01*
X106926777Y-96576776D01*
X106908599Y-96593252D01*
X106888893Y-96607867D01*
X106867850Y-96620479D01*
X106845671Y-96630969D01*
X106822572Y-96639234D01*
X106798773Y-96645195D01*
X106774505Y-96648795D01*
X106750001Y-96649999D01*
X106099999Y-96649999D01*
X106075495Y-96648795D01*
X106051227Y-96645195D01*
X106027428Y-96639234D01*
X106004329Y-96630969D01*
X105982150Y-96620479D01*
X105961107Y-96607867D01*
X105941401Y-96593252D01*
X105923223Y-96576776D01*
X105906747Y-96558598D01*
X105892132Y-96538892D01*
X105879520Y-96517849D01*
X105869030Y-96495670D01*
X105860765Y-96472571D01*
X105854804Y-96448772D01*
X105851204Y-96424504D01*
X105850000Y-96400000D01*
X105850000Y-95499998D01*
X105851204Y-95475494D01*
X105854804Y-95451226D01*
X105860765Y-95427427D01*
X105869030Y-95404328D01*
X105879520Y-95382149D01*
X105892132Y-95361106D01*
X105906747Y-95341400D01*
X105923223Y-95323222D01*
X105941401Y-95306746D01*
X105961107Y-95292131D01*
X105982150Y-95279519D01*
X106004329Y-95269029D01*
X106027428Y-95260764D01*
X106051227Y-95254803D01*
X106075495Y-95251203D01*
X106099999Y-95249999D01*
X106750001Y-95249999D01*
X106774505Y-95251203D01*
G37*
G36*
X104724505Y-95251203D02*
G01*
X104748773Y-95254803D01*
X104772572Y-95260764D01*
X104795671Y-95269029D01*
X104817850Y-95279519D01*
X104838893Y-95292131D01*
X104858599Y-95306746D01*
X104876777Y-95323222D01*
X104893253Y-95341400D01*
X104907868Y-95361106D01*
X104920480Y-95382149D01*
X104930970Y-95404328D01*
X104939235Y-95427427D01*
X104945196Y-95451226D01*
X104948796Y-95475494D01*
X104950000Y-95499998D01*
X104950000Y-96400000D01*
X104948796Y-96424504D01*
X104945196Y-96448772D01*
X104939235Y-96472571D01*
X104930970Y-96495670D01*
X104920480Y-96517849D01*
X104907868Y-96538892D01*
X104893253Y-96558598D01*
X104876777Y-96576776D01*
X104858599Y-96593252D01*
X104838893Y-96607867D01*
X104817850Y-96620479D01*
X104795671Y-96630969D01*
X104772572Y-96639234D01*
X104748773Y-96645195D01*
X104724505Y-96648795D01*
X104700001Y-96649999D01*
X104049999Y-96649999D01*
X104025495Y-96648795D01*
X104001227Y-96645195D01*
X103977428Y-96639234D01*
X103954329Y-96630969D01*
X103932150Y-96620479D01*
X103911107Y-96607867D01*
X103891401Y-96593252D01*
X103873223Y-96576776D01*
X103856747Y-96558598D01*
X103842132Y-96538892D01*
X103829520Y-96517849D01*
X103819030Y-96495670D01*
X103810765Y-96472571D01*
X103804804Y-96448772D01*
X103801204Y-96424504D01*
X103800000Y-96400000D01*
X103800000Y-95499998D01*
X103801204Y-95475494D01*
X103804804Y-95451226D01*
X103810765Y-95427427D01*
X103819030Y-95404328D01*
X103829520Y-95382149D01*
X103842132Y-95361106D01*
X103856747Y-95341400D01*
X103873223Y-95323222D01*
X103891401Y-95306746D01*
X103911107Y-95292131D01*
X103932150Y-95279519D01*
X103954329Y-95269029D01*
X103977428Y-95260764D01*
X104001227Y-95254803D01*
X104025495Y-95251203D01*
X104049999Y-95249999D01*
X104700001Y-95249999D01*
X104724505Y-95251203D01*
G37*
G36*
X114474504Y-107251204D02*
G01*
X114498772Y-107254804D01*
X114522571Y-107260765D01*
X114545670Y-107269030D01*
X114567849Y-107279520D01*
X114588892Y-107292132D01*
X114608598Y-107306747D01*
X114626776Y-107323223D01*
X114643252Y-107341401D01*
X114657867Y-107361107D01*
X114670479Y-107382150D01*
X114680969Y-107404329D01*
X114689234Y-107427428D01*
X114695195Y-107451227D01*
X114698795Y-107475495D01*
X114699999Y-107499999D01*
X114699999Y-108150001D01*
X114698795Y-108174505D01*
X114695195Y-108198773D01*
X114689234Y-108222572D01*
X114680969Y-108245671D01*
X114670479Y-108267850D01*
X114657867Y-108288893D01*
X114643252Y-108308599D01*
X114626776Y-108326777D01*
X114608598Y-108343253D01*
X114588892Y-108357868D01*
X114567849Y-108370480D01*
X114545670Y-108380970D01*
X114522571Y-108389235D01*
X114498772Y-108395196D01*
X114474504Y-108398796D01*
X114450000Y-108400000D01*
X113549998Y-108400000D01*
X113525494Y-108398796D01*
X113501226Y-108395196D01*
X113477427Y-108389235D01*
X113454328Y-108380970D01*
X113432149Y-108370480D01*
X113411106Y-108357868D01*
X113391400Y-108343253D01*
X113373222Y-108326777D01*
X113356746Y-108308599D01*
X113342131Y-108288893D01*
X113329519Y-108267850D01*
X113319029Y-108245671D01*
X113310764Y-108222572D01*
X113304803Y-108198773D01*
X113301203Y-108174505D01*
X113299999Y-108150001D01*
X113299999Y-107499999D01*
X113301203Y-107475495D01*
X113304803Y-107451227D01*
X113310764Y-107427428D01*
X113319029Y-107404329D01*
X113329519Y-107382150D01*
X113342131Y-107361107D01*
X113356746Y-107341401D01*
X113373222Y-107323223D01*
X113391400Y-107306747D01*
X113411106Y-107292132D01*
X113432149Y-107279520D01*
X113454328Y-107269030D01*
X113477427Y-107260765D01*
X113501226Y-107254804D01*
X113525494Y-107251204D01*
X113549998Y-107250000D01*
X114450000Y-107250000D01*
X114474504Y-107251204D01*
G37*
G36*
X114474504Y-105201204D02*
G01*
X114498772Y-105204804D01*
X114522571Y-105210765D01*
X114545670Y-105219030D01*
X114567849Y-105229520D01*
X114588892Y-105242132D01*
X114608598Y-105256747D01*
X114626776Y-105273223D01*
X114643252Y-105291401D01*
X114657867Y-105311107D01*
X114670479Y-105332150D01*
X114680969Y-105354329D01*
X114689234Y-105377428D01*
X114695195Y-105401227D01*
X114698795Y-105425495D01*
X114699999Y-105449999D01*
X114699999Y-106100001D01*
X114698795Y-106124505D01*
X114695195Y-106148773D01*
X114689234Y-106172572D01*
X114680969Y-106195671D01*
X114670479Y-106217850D01*
X114657867Y-106238893D01*
X114643252Y-106258599D01*
X114626776Y-106276777D01*
X114608598Y-106293253D01*
X114588892Y-106307868D01*
X114567849Y-106320480D01*
X114545670Y-106330970D01*
X114522571Y-106339235D01*
X114498772Y-106345196D01*
X114474504Y-106348796D01*
X114450000Y-106350000D01*
X113549998Y-106350000D01*
X113525494Y-106348796D01*
X113501226Y-106345196D01*
X113477427Y-106339235D01*
X113454328Y-106330970D01*
X113432149Y-106320480D01*
X113411106Y-106307868D01*
X113391400Y-106293253D01*
X113373222Y-106276777D01*
X113356746Y-106258599D01*
X113342131Y-106238893D01*
X113329519Y-106217850D01*
X113319029Y-106195671D01*
X113310764Y-106172572D01*
X113304803Y-106148773D01*
X113301203Y-106124505D01*
X113299999Y-106100001D01*
X113299999Y-105449999D01*
X113301203Y-105425495D01*
X113304803Y-105401227D01*
X113310764Y-105377428D01*
X113319029Y-105354329D01*
X113329519Y-105332150D01*
X113342131Y-105311107D01*
X113356746Y-105291401D01*
X113373222Y-105273223D01*
X113391400Y-105256747D01*
X113411106Y-105242132D01*
X113432149Y-105229520D01*
X113454328Y-105219030D01*
X113477427Y-105210765D01*
X113501226Y-105204804D01*
X113525494Y-105201204D01*
X113549998Y-105200000D01*
X114450000Y-105200000D01*
X114474504Y-105201204D01*
G37*
G36*
X104724505Y-97351205D02*
G01*
X104748773Y-97354805D01*
X104772572Y-97360766D01*
X104795671Y-97369031D01*
X104817850Y-97379521D01*
X104838893Y-97392133D01*
X104858599Y-97406748D01*
X104876777Y-97423224D01*
X104893253Y-97441402D01*
X104907868Y-97461108D01*
X104920480Y-97482151D01*
X104930970Y-97504330D01*
X104939235Y-97527429D01*
X104945196Y-97551228D01*
X104948796Y-97575496D01*
X104950000Y-97600000D01*
X104950000Y-98500002D01*
X104948796Y-98524506D01*
X104945196Y-98548774D01*
X104939235Y-98572573D01*
X104930970Y-98595672D01*
X104920480Y-98617851D01*
X104907868Y-98638894D01*
X104893253Y-98658600D01*
X104876777Y-98676778D01*
X104858599Y-98693254D01*
X104838893Y-98707869D01*
X104817850Y-98720481D01*
X104795671Y-98730971D01*
X104772572Y-98739236D01*
X104748773Y-98745197D01*
X104724505Y-98748797D01*
X104700001Y-98750001D01*
X104049999Y-98750001D01*
X104025495Y-98748797D01*
X104001227Y-98745197D01*
X103977428Y-98739236D01*
X103954329Y-98730971D01*
X103932150Y-98720481D01*
X103911107Y-98707869D01*
X103891401Y-98693254D01*
X103873223Y-98676778D01*
X103856747Y-98658600D01*
X103842132Y-98638894D01*
X103829520Y-98617851D01*
X103819030Y-98595672D01*
X103810765Y-98572573D01*
X103804804Y-98548774D01*
X103801204Y-98524506D01*
X103800000Y-98500002D01*
X103800000Y-97600000D01*
X103801204Y-97575496D01*
X103804804Y-97551228D01*
X103810765Y-97527429D01*
X103819030Y-97504330D01*
X103829520Y-97482151D01*
X103842132Y-97461108D01*
X103856747Y-97441402D01*
X103873223Y-97423224D01*
X103891401Y-97406748D01*
X103911107Y-97392133D01*
X103932150Y-97379521D01*
X103954329Y-97369031D01*
X103977428Y-97360766D01*
X104001227Y-97354805D01*
X104025495Y-97351205D01*
X104049999Y-97350001D01*
X104700001Y-97350001D01*
X104724505Y-97351205D01*
G37*
G36*
X106774505Y-97351205D02*
G01*
X106798773Y-97354805D01*
X106822572Y-97360766D01*
X106845671Y-97369031D01*
X106867850Y-97379521D01*
X106888893Y-97392133D01*
X106908599Y-97406748D01*
X106926777Y-97423224D01*
X106943253Y-97441402D01*
X106957868Y-97461108D01*
X106970480Y-97482151D01*
X106980970Y-97504330D01*
X106989235Y-97527429D01*
X106995196Y-97551228D01*
X106998796Y-97575496D01*
X107000000Y-97600000D01*
X107000000Y-98500002D01*
X106998796Y-98524506D01*
X106995196Y-98548774D01*
X106989235Y-98572573D01*
X106980970Y-98595672D01*
X106970480Y-98617851D01*
X106957868Y-98638894D01*
X106943253Y-98658600D01*
X106926777Y-98676778D01*
X106908599Y-98693254D01*
X106888893Y-98707869D01*
X106867850Y-98720481D01*
X106845671Y-98730971D01*
X106822572Y-98739236D01*
X106798773Y-98745197D01*
X106774505Y-98748797D01*
X106750001Y-98750001D01*
X106099999Y-98750001D01*
X106075495Y-98748797D01*
X106051227Y-98745197D01*
X106027428Y-98739236D01*
X106004329Y-98730971D01*
X105982150Y-98720481D01*
X105961107Y-98707869D01*
X105941401Y-98693254D01*
X105923223Y-98676778D01*
X105906747Y-98658600D01*
X105892132Y-98638894D01*
X105879520Y-98617851D01*
X105869030Y-98595672D01*
X105860765Y-98572573D01*
X105854804Y-98548774D01*
X105851204Y-98524506D01*
X105850000Y-98500002D01*
X105850000Y-97600000D01*
X105851204Y-97575496D01*
X105854804Y-97551228D01*
X105860765Y-97527429D01*
X105869030Y-97504330D01*
X105879520Y-97482151D01*
X105892132Y-97461108D01*
X105906747Y-97441402D01*
X105923223Y-97423224D01*
X105941401Y-97406748D01*
X105961107Y-97392133D01*
X105982150Y-97379521D01*
X106004329Y-97369031D01*
X106027428Y-97360766D01*
X106051227Y-97354805D01*
X106075495Y-97351205D01*
X106099999Y-97350001D01*
X106750001Y-97350001D01*
X106774505Y-97351205D01*
G37*
D11*
X126010000Y-101950000D03*
X124010000Y-101950000D03*
X122010000Y-101950000D03*
X120010000Y-101950000D03*
X118010000Y-101950000D03*
X116010000Y-101950000D03*
X114010000Y-101950000D03*
X128010000Y-101950000D03*
D10*
G36*
X132884802Y-97550482D02*
G01*
X132894509Y-97551921D01*
X132904028Y-97554306D01*
X132913268Y-97557612D01*
X132922140Y-97561808D01*
X132930557Y-97566853D01*
X132938439Y-97572699D01*
X132945711Y-97579289D01*
X132952301Y-97586561D01*
X132958147Y-97594443D01*
X132963192Y-97602860D01*
X132967388Y-97611732D01*
X132970694Y-97620972D01*
X132973079Y-97630491D01*
X132974518Y-97640198D01*
X132975000Y-97650000D01*
X132975000Y-97850000D01*
X132974518Y-97859802D01*
X132973079Y-97869509D01*
X132970694Y-97879028D01*
X132967388Y-97888268D01*
X132963192Y-97897140D01*
X132958147Y-97905557D01*
X132952301Y-97913439D01*
X132945711Y-97920711D01*
X132938439Y-97927301D01*
X132930557Y-97933147D01*
X132922140Y-97938192D01*
X132913268Y-97942388D01*
X132904028Y-97945694D01*
X132894509Y-97948079D01*
X132884802Y-97949518D01*
X132875000Y-97950000D01*
X131600000Y-97950000D01*
X131590198Y-97949518D01*
X131580491Y-97948079D01*
X131570972Y-97945694D01*
X131561732Y-97942388D01*
X131552860Y-97938192D01*
X131544443Y-97933147D01*
X131536561Y-97927301D01*
X131529289Y-97920711D01*
X131522699Y-97913439D01*
X131516853Y-97905557D01*
X131511808Y-97897140D01*
X131507612Y-97888268D01*
X131504306Y-97879028D01*
X131501921Y-97869509D01*
X131500482Y-97859802D01*
X131500000Y-97850000D01*
X131500000Y-97650000D01*
X131500482Y-97640198D01*
X131501921Y-97630491D01*
X131504306Y-97620972D01*
X131507612Y-97611732D01*
X131511808Y-97602860D01*
X131516853Y-97594443D01*
X131522699Y-97586561D01*
X131529289Y-97579289D01*
X131536561Y-97572699D01*
X131544443Y-97566853D01*
X131552860Y-97561808D01*
X131561732Y-97557612D01*
X131570972Y-97554306D01*
X131580491Y-97551921D01*
X131590198Y-97550482D01*
X131600000Y-97550000D01*
X132875000Y-97550000D01*
X132884802Y-97550482D01*
G37*
G36*
X132884802Y-96900482D02*
G01*
X132894509Y-96901921D01*
X132904028Y-96904306D01*
X132913268Y-96907612D01*
X132922140Y-96911808D01*
X132930557Y-96916853D01*
X132938439Y-96922699D01*
X132945711Y-96929289D01*
X132952301Y-96936561D01*
X132958147Y-96944443D01*
X132963192Y-96952860D01*
X132967388Y-96961732D01*
X132970694Y-96970972D01*
X132973079Y-96980491D01*
X132974518Y-96990198D01*
X132975000Y-97000000D01*
X132975000Y-97200000D01*
X132974518Y-97209802D01*
X132973079Y-97219509D01*
X132970694Y-97229028D01*
X132967388Y-97238268D01*
X132963192Y-97247140D01*
X132958147Y-97255557D01*
X132952301Y-97263439D01*
X132945711Y-97270711D01*
X132938439Y-97277301D01*
X132930557Y-97283147D01*
X132922140Y-97288192D01*
X132913268Y-97292388D01*
X132904028Y-97295694D01*
X132894509Y-97298079D01*
X132884802Y-97299518D01*
X132875000Y-97300000D01*
X131600000Y-97300000D01*
X131590198Y-97299518D01*
X131580491Y-97298079D01*
X131570972Y-97295694D01*
X131561732Y-97292388D01*
X131552860Y-97288192D01*
X131544443Y-97283147D01*
X131536561Y-97277301D01*
X131529289Y-97270711D01*
X131522699Y-97263439D01*
X131516853Y-97255557D01*
X131511808Y-97247140D01*
X131507612Y-97238268D01*
X131504306Y-97229028D01*
X131501921Y-97219509D01*
X131500482Y-97209802D01*
X131500000Y-97200000D01*
X131500000Y-97000000D01*
X131500482Y-96990198D01*
X131501921Y-96980491D01*
X131504306Y-96970972D01*
X131507612Y-96961732D01*
X131511808Y-96952860D01*
X131516853Y-96944443D01*
X131522699Y-96936561D01*
X131529289Y-96929289D01*
X131536561Y-96922699D01*
X131544443Y-96916853D01*
X131552860Y-96911808D01*
X131561732Y-96907612D01*
X131570972Y-96904306D01*
X131580491Y-96901921D01*
X131590198Y-96900482D01*
X131600000Y-96900000D01*
X132875000Y-96900000D01*
X132884802Y-96900482D01*
G37*
G36*
X132884802Y-96250482D02*
G01*
X132894509Y-96251921D01*
X132904028Y-96254306D01*
X132913268Y-96257612D01*
X132922140Y-96261808D01*
X132930557Y-96266853D01*
X132938439Y-96272699D01*
X132945711Y-96279289D01*
X132952301Y-96286561D01*
X132958147Y-96294443D01*
X132963192Y-96302860D01*
X132967388Y-96311732D01*
X132970694Y-96320972D01*
X132973079Y-96330491D01*
X132974518Y-96340198D01*
X132975000Y-96350000D01*
X132975000Y-96550000D01*
X132974518Y-96559802D01*
X132973079Y-96569509D01*
X132970694Y-96579028D01*
X132967388Y-96588268D01*
X132963192Y-96597140D01*
X132958147Y-96605557D01*
X132952301Y-96613439D01*
X132945711Y-96620711D01*
X132938439Y-96627301D01*
X132930557Y-96633147D01*
X132922140Y-96638192D01*
X132913268Y-96642388D01*
X132904028Y-96645694D01*
X132894509Y-96648079D01*
X132884802Y-96649518D01*
X132875000Y-96650000D01*
X131600000Y-96650000D01*
X131590198Y-96649518D01*
X131580491Y-96648079D01*
X131570972Y-96645694D01*
X131561732Y-96642388D01*
X131552860Y-96638192D01*
X131544443Y-96633147D01*
X131536561Y-96627301D01*
X131529289Y-96620711D01*
X131522699Y-96613439D01*
X131516853Y-96605557D01*
X131511808Y-96597140D01*
X131507612Y-96588268D01*
X131504306Y-96579028D01*
X131501921Y-96569509D01*
X131500482Y-96559802D01*
X131500000Y-96550000D01*
X131500000Y-96350000D01*
X131500482Y-96340198D01*
X131501921Y-96330491D01*
X131504306Y-96320972D01*
X131507612Y-96311732D01*
X131511808Y-96302860D01*
X131516853Y-96294443D01*
X131522699Y-96286561D01*
X131529289Y-96279289D01*
X131536561Y-96272699D01*
X131544443Y-96266853D01*
X131552860Y-96261808D01*
X131561732Y-96257612D01*
X131570972Y-96254306D01*
X131580491Y-96251921D01*
X131590198Y-96250482D01*
X131600000Y-96250000D01*
X132875000Y-96250000D01*
X132884802Y-96250482D01*
G37*
G36*
X132884802Y-95600482D02*
G01*
X132894509Y-95601921D01*
X132904028Y-95604306D01*
X132913268Y-95607612D01*
X132922140Y-95611808D01*
X132930557Y-95616853D01*
X132938439Y-95622699D01*
X132945711Y-95629289D01*
X132952301Y-95636561D01*
X132958147Y-95644443D01*
X132963192Y-95652860D01*
X132967388Y-95661732D01*
X132970694Y-95670972D01*
X132973079Y-95680491D01*
X132974518Y-95690198D01*
X132975000Y-95700000D01*
X132975000Y-95900000D01*
X132974518Y-95909802D01*
X132973079Y-95919509D01*
X132970694Y-95929028D01*
X132967388Y-95938268D01*
X132963192Y-95947140D01*
X132958147Y-95955557D01*
X132952301Y-95963439D01*
X132945711Y-95970711D01*
X132938439Y-95977301D01*
X132930557Y-95983147D01*
X132922140Y-95988192D01*
X132913268Y-95992388D01*
X132904028Y-95995694D01*
X132894509Y-95998079D01*
X132884802Y-95999518D01*
X132875000Y-96000000D01*
X131600000Y-96000000D01*
X131590198Y-95999518D01*
X131580491Y-95998079D01*
X131570972Y-95995694D01*
X131561732Y-95992388D01*
X131552860Y-95988192D01*
X131544443Y-95983147D01*
X131536561Y-95977301D01*
X131529289Y-95970711D01*
X131522699Y-95963439D01*
X131516853Y-95955557D01*
X131511808Y-95947140D01*
X131507612Y-95938268D01*
X131504306Y-95929028D01*
X131501921Y-95919509D01*
X131500482Y-95909802D01*
X131500000Y-95900000D01*
X131500000Y-95700000D01*
X131500482Y-95690198D01*
X131501921Y-95680491D01*
X131504306Y-95670972D01*
X131507612Y-95661732D01*
X131511808Y-95652860D01*
X131516853Y-95644443D01*
X131522699Y-95636561D01*
X131529289Y-95629289D01*
X131536561Y-95622699D01*
X131544443Y-95616853D01*
X131552860Y-95611808D01*
X131561732Y-95607612D01*
X131570972Y-95604306D01*
X131580491Y-95601921D01*
X131590198Y-95600482D01*
X131600000Y-95600000D01*
X132875000Y-95600000D01*
X132884802Y-95600482D01*
G37*
G36*
X132884802Y-94950482D02*
G01*
X132894509Y-94951921D01*
X132904028Y-94954306D01*
X132913268Y-94957612D01*
X132922140Y-94961808D01*
X132930557Y-94966853D01*
X132938439Y-94972699D01*
X132945711Y-94979289D01*
X132952301Y-94986561D01*
X132958147Y-94994443D01*
X132963192Y-95002860D01*
X132967388Y-95011732D01*
X132970694Y-95020972D01*
X132973079Y-95030491D01*
X132974518Y-95040198D01*
X132975000Y-95050000D01*
X132975000Y-95250000D01*
X132974518Y-95259802D01*
X132973079Y-95269509D01*
X132970694Y-95279028D01*
X132967388Y-95288268D01*
X132963192Y-95297140D01*
X132958147Y-95305557D01*
X132952301Y-95313439D01*
X132945711Y-95320711D01*
X132938439Y-95327301D01*
X132930557Y-95333147D01*
X132922140Y-95338192D01*
X132913268Y-95342388D01*
X132904028Y-95345694D01*
X132894509Y-95348079D01*
X132884802Y-95349518D01*
X132875000Y-95350000D01*
X131600000Y-95350000D01*
X131590198Y-95349518D01*
X131580491Y-95348079D01*
X131570972Y-95345694D01*
X131561732Y-95342388D01*
X131552860Y-95338192D01*
X131544443Y-95333147D01*
X131536561Y-95327301D01*
X131529289Y-95320711D01*
X131522699Y-95313439D01*
X131516853Y-95305557D01*
X131511808Y-95297140D01*
X131507612Y-95288268D01*
X131504306Y-95279028D01*
X131501921Y-95269509D01*
X131500482Y-95259802D01*
X131500000Y-95250000D01*
X131500000Y-95050000D01*
X131500482Y-95040198D01*
X131501921Y-95030491D01*
X131504306Y-95020972D01*
X131507612Y-95011732D01*
X131511808Y-95002860D01*
X131516853Y-94994443D01*
X131522699Y-94986561D01*
X131529289Y-94979289D01*
X131536561Y-94972699D01*
X131544443Y-94966853D01*
X131552860Y-94961808D01*
X131561732Y-94957612D01*
X131570972Y-94954306D01*
X131580491Y-94951921D01*
X131590198Y-94950482D01*
X131600000Y-94950000D01*
X132875000Y-94950000D01*
X132884802Y-94950482D01*
G37*
G36*
X132884802Y-94300482D02*
G01*
X132894509Y-94301921D01*
X132904028Y-94304306D01*
X132913268Y-94307612D01*
X132922140Y-94311808D01*
X132930557Y-94316853D01*
X132938439Y-94322699D01*
X132945711Y-94329289D01*
X132952301Y-94336561D01*
X132958147Y-94344443D01*
X132963192Y-94352860D01*
X132967388Y-94361732D01*
X132970694Y-94370972D01*
X132973079Y-94380491D01*
X132974518Y-94390198D01*
X132975000Y-94400000D01*
X132975000Y-94600000D01*
X132974518Y-94609802D01*
X132973079Y-94619509D01*
X132970694Y-94629028D01*
X132967388Y-94638268D01*
X132963192Y-94647140D01*
X132958147Y-94655557D01*
X132952301Y-94663439D01*
X132945711Y-94670711D01*
X132938439Y-94677301D01*
X132930557Y-94683147D01*
X132922140Y-94688192D01*
X132913268Y-94692388D01*
X132904028Y-94695694D01*
X132894509Y-94698079D01*
X132884802Y-94699518D01*
X132875000Y-94700000D01*
X131600000Y-94700000D01*
X131590198Y-94699518D01*
X131580491Y-94698079D01*
X131570972Y-94695694D01*
X131561732Y-94692388D01*
X131552860Y-94688192D01*
X131544443Y-94683147D01*
X131536561Y-94677301D01*
X131529289Y-94670711D01*
X131522699Y-94663439D01*
X131516853Y-94655557D01*
X131511808Y-94647140D01*
X131507612Y-94638268D01*
X131504306Y-94629028D01*
X131501921Y-94619509D01*
X131500482Y-94609802D01*
X131500000Y-94600000D01*
X131500000Y-94400000D01*
X131500482Y-94390198D01*
X131501921Y-94380491D01*
X131504306Y-94370972D01*
X131507612Y-94361732D01*
X131511808Y-94352860D01*
X131516853Y-94344443D01*
X131522699Y-94336561D01*
X131529289Y-94329289D01*
X131536561Y-94322699D01*
X131544443Y-94316853D01*
X131552860Y-94311808D01*
X131561732Y-94307612D01*
X131570972Y-94304306D01*
X131580491Y-94301921D01*
X131590198Y-94300482D01*
X131600000Y-94300000D01*
X132875000Y-94300000D01*
X132884802Y-94300482D01*
G37*
G36*
X132884802Y-93650482D02*
G01*
X132894509Y-93651921D01*
X132904028Y-93654306D01*
X132913268Y-93657612D01*
X132922140Y-93661808D01*
X132930557Y-93666853D01*
X132938439Y-93672699D01*
X132945711Y-93679289D01*
X132952301Y-93686561D01*
X132958147Y-93694443D01*
X132963192Y-93702860D01*
X132967388Y-93711732D01*
X132970694Y-93720972D01*
X132973079Y-93730491D01*
X132974518Y-93740198D01*
X132975000Y-93750000D01*
X132975000Y-93950000D01*
X132974518Y-93959802D01*
X132973079Y-93969509D01*
X132970694Y-93979028D01*
X132967388Y-93988268D01*
X132963192Y-93997140D01*
X132958147Y-94005557D01*
X132952301Y-94013439D01*
X132945711Y-94020711D01*
X132938439Y-94027301D01*
X132930557Y-94033147D01*
X132922140Y-94038192D01*
X132913268Y-94042388D01*
X132904028Y-94045694D01*
X132894509Y-94048079D01*
X132884802Y-94049518D01*
X132875000Y-94050000D01*
X131600000Y-94050000D01*
X131590198Y-94049518D01*
X131580491Y-94048079D01*
X131570972Y-94045694D01*
X131561732Y-94042388D01*
X131552860Y-94038192D01*
X131544443Y-94033147D01*
X131536561Y-94027301D01*
X131529289Y-94020711D01*
X131522699Y-94013439D01*
X131516853Y-94005557D01*
X131511808Y-93997140D01*
X131507612Y-93988268D01*
X131504306Y-93979028D01*
X131501921Y-93969509D01*
X131500482Y-93959802D01*
X131500000Y-93950000D01*
X131500000Y-93750000D01*
X131500482Y-93740198D01*
X131501921Y-93730491D01*
X131504306Y-93720972D01*
X131507612Y-93711732D01*
X131511808Y-93702860D01*
X131516853Y-93694443D01*
X131522699Y-93686561D01*
X131529289Y-93679289D01*
X131536561Y-93672699D01*
X131544443Y-93666853D01*
X131552860Y-93661808D01*
X131561732Y-93657612D01*
X131570972Y-93654306D01*
X131580491Y-93651921D01*
X131590198Y-93650482D01*
X131600000Y-93650000D01*
X132875000Y-93650000D01*
X132884802Y-93650482D01*
G37*
G36*
X138609802Y-93650482D02*
G01*
X138619509Y-93651921D01*
X138629028Y-93654306D01*
X138638268Y-93657612D01*
X138647140Y-93661808D01*
X138655557Y-93666853D01*
X138663439Y-93672699D01*
X138670711Y-93679289D01*
X138677301Y-93686561D01*
X138683147Y-93694443D01*
X138688192Y-93702860D01*
X138692388Y-93711732D01*
X138695694Y-93720972D01*
X138698079Y-93730491D01*
X138699518Y-93740198D01*
X138700000Y-93750000D01*
X138700000Y-93950000D01*
X138699518Y-93959802D01*
X138698079Y-93969509D01*
X138695694Y-93979028D01*
X138692388Y-93988268D01*
X138688192Y-93997140D01*
X138683147Y-94005557D01*
X138677301Y-94013439D01*
X138670711Y-94020711D01*
X138663439Y-94027301D01*
X138655557Y-94033147D01*
X138647140Y-94038192D01*
X138638268Y-94042388D01*
X138629028Y-94045694D01*
X138619509Y-94048079D01*
X138609802Y-94049518D01*
X138600000Y-94050000D01*
X137325000Y-94050000D01*
X137315198Y-94049518D01*
X137305491Y-94048079D01*
X137295972Y-94045694D01*
X137286732Y-94042388D01*
X137277860Y-94038192D01*
X137269443Y-94033147D01*
X137261561Y-94027301D01*
X137254289Y-94020711D01*
X137247699Y-94013439D01*
X137241853Y-94005557D01*
X137236808Y-93997140D01*
X137232612Y-93988268D01*
X137229306Y-93979028D01*
X137226921Y-93969509D01*
X137225482Y-93959802D01*
X137225000Y-93950000D01*
X137225000Y-93750000D01*
X137225482Y-93740198D01*
X137226921Y-93730491D01*
X137229306Y-93720972D01*
X137232612Y-93711732D01*
X137236808Y-93702860D01*
X137241853Y-93694443D01*
X137247699Y-93686561D01*
X137254289Y-93679289D01*
X137261561Y-93672699D01*
X137269443Y-93666853D01*
X137277860Y-93661808D01*
X137286732Y-93657612D01*
X137295972Y-93654306D01*
X137305491Y-93651921D01*
X137315198Y-93650482D01*
X137325000Y-93650000D01*
X138600000Y-93650000D01*
X138609802Y-93650482D01*
G37*
G36*
X138609802Y-94300482D02*
G01*
X138619509Y-94301921D01*
X138629028Y-94304306D01*
X138638268Y-94307612D01*
X138647140Y-94311808D01*
X138655557Y-94316853D01*
X138663439Y-94322699D01*
X138670711Y-94329289D01*
X138677301Y-94336561D01*
X138683147Y-94344443D01*
X138688192Y-94352860D01*
X138692388Y-94361732D01*
X138695694Y-94370972D01*
X138698079Y-94380491D01*
X138699518Y-94390198D01*
X138700000Y-94400000D01*
X138700000Y-94600000D01*
X138699518Y-94609802D01*
X138698079Y-94619509D01*
X138695694Y-94629028D01*
X138692388Y-94638268D01*
X138688192Y-94647140D01*
X138683147Y-94655557D01*
X138677301Y-94663439D01*
X138670711Y-94670711D01*
X138663439Y-94677301D01*
X138655557Y-94683147D01*
X138647140Y-94688192D01*
X138638268Y-94692388D01*
X138629028Y-94695694D01*
X138619509Y-94698079D01*
X138609802Y-94699518D01*
X138600000Y-94700000D01*
X137325000Y-94700000D01*
X137315198Y-94699518D01*
X137305491Y-94698079D01*
X137295972Y-94695694D01*
X137286732Y-94692388D01*
X137277860Y-94688192D01*
X137269443Y-94683147D01*
X137261561Y-94677301D01*
X137254289Y-94670711D01*
X137247699Y-94663439D01*
X137241853Y-94655557D01*
X137236808Y-94647140D01*
X137232612Y-94638268D01*
X137229306Y-94629028D01*
X137226921Y-94619509D01*
X137225482Y-94609802D01*
X137225000Y-94600000D01*
X137225000Y-94400000D01*
X137225482Y-94390198D01*
X137226921Y-94380491D01*
X137229306Y-94370972D01*
X137232612Y-94361732D01*
X137236808Y-94352860D01*
X137241853Y-94344443D01*
X137247699Y-94336561D01*
X137254289Y-94329289D01*
X137261561Y-94322699D01*
X137269443Y-94316853D01*
X137277860Y-94311808D01*
X137286732Y-94307612D01*
X137295972Y-94304306D01*
X137305491Y-94301921D01*
X137315198Y-94300482D01*
X137325000Y-94300000D01*
X138600000Y-94300000D01*
X138609802Y-94300482D01*
G37*
G36*
X138609802Y-94950482D02*
G01*
X138619509Y-94951921D01*
X138629028Y-94954306D01*
X138638268Y-94957612D01*
X138647140Y-94961808D01*
X138655557Y-94966853D01*
X138663439Y-94972699D01*
X138670711Y-94979289D01*
X138677301Y-94986561D01*
X138683147Y-94994443D01*
X138688192Y-95002860D01*
X138692388Y-95011732D01*
X138695694Y-95020972D01*
X138698079Y-95030491D01*
X138699518Y-95040198D01*
X138700000Y-95050000D01*
X138700000Y-95250000D01*
X138699518Y-95259802D01*
X138698079Y-95269509D01*
X138695694Y-95279028D01*
X138692388Y-95288268D01*
X138688192Y-95297140D01*
X138683147Y-95305557D01*
X138677301Y-95313439D01*
X138670711Y-95320711D01*
X138663439Y-95327301D01*
X138655557Y-95333147D01*
X138647140Y-95338192D01*
X138638268Y-95342388D01*
X138629028Y-95345694D01*
X138619509Y-95348079D01*
X138609802Y-95349518D01*
X138600000Y-95350000D01*
X137325000Y-95350000D01*
X137315198Y-95349518D01*
X137305491Y-95348079D01*
X137295972Y-95345694D01*
X137286732Y-95342388D01*
X137277860Y-95338192D01*
X137269443Y-95333147D01*
X137261561Y-95327301D01*
X137254289Y-95320711D01*
X137247699Y-95313439D01*
X137241853Y-95305557D01*
X137236808Y-95297140D01*
X137232612Y-95288268D01*
X137229306Y-95279028D01*
X137226921Y-95269509D01*
X137225482Y-95259802D01*
X137225000Y-95250000D01*
X137225000Y-95050000D01*
X137225482Y-95040198D01*
X137226921Y-95030491D01*
X137229306Y-95020972D01*
X137232612Y-95011732D01*
X137236808Y-95002860D01*
X137241853Y-94994443D01*
X137247699Y-94986561D01*
X137254289Y-94979289D01*
X137261561Y-94972699D01*
X137269443Y-94966853D01*
X137277860Y-94961808D01*
X137286732Y-94957612D01*
X137295972Y-94954306D01*
X137305491Y-94951921D01*
X137315198Y-94950482D01*
X137325000Y-94950000D01*
X138600000Y-94950000D01*
X138609802Y-94950482D01*
G37*
G36*
X138609802Y-95600482D02*
G01*
X138619509Y-95601921D01*
X138629028Y-95604306D01*
X138638268Y-95607612D01*
X138647140Y-95611808D01*
X138655557Y-95616853D01*
X138663439Y-95622699D01*
X138670711Y-95629289D01*
X138677301Y-95636561D01*
X138683147Y-95644443D01*
X138688192Y-95652860D01*
X138692388Y-95661732D01*
X138695694Y-95670972D01*
X138698079Y-95680491D01*
X138699518Y-95690198D01*
X138700000Y-95700000D01*
X138700000Y-95900000D01*
X138699518Y-95909802D01*
X138698079Y-95919509D01*
X138695694Y-95929028D01*
X138692388Y-95938268D01*
X138688192Y-95947140D01*
X138683147Y-95955557D01*
X138677301Y-95963439D01*
X138670711Y-95970711D01*
X138663439Y-95977301D01*
X138655557Y-95983147D01*
X138647140Y-95988192D01*
X138638268Y-95992388D01*
X138629028Y-95995694D01*
X138619509Y-95998079D01*
X138609802Y-95999518D01*
X138600000Y-96000000D01*
X137325000Y-96000000D01*
X137315198Y-95999518D01*
X137305491Y-95998079D01*
X137295972Y-95995694D01*
X137286732Y-95992388D01*
X137277860Y-95988192D01*
X137269443Y-95983147D01*
X137261561Y-95977301D01*
X137254289Y-95970711D01*
X137247699Y-95963439D01*
X137241853Y-95955557D01*
X137236808Y-95947140D01*
X137232612Y-95938268D01*
X137229306Y-95929028D01*
X137226921Y-95919509D01*
X137225482Y-95909802D01*
X137225000Y-95900000D01*
X137225000Y-95700000D01*
X137225482Y-95690198D01*
X137226921Y-95680491D01*
X137229306Y-95670972D01*
X137232612Y-95661732D01*
X137236808Y-95652860D01*
X137241853Y-95644443D01*
X137247699Y-95636561D01*
X137254289Y-95629289D01*
X137261561Y-95622699D01*
X137269443Y-95616853D01*
X137277860Y-95611808D01*
X137286732Y-95607612D01*
X137295972Y-95604306D01*
X137305491Y-95601921D01*
X137315198Y-95600482D01*
X137325000Y-95600000D01*
X138600000Y-95600000D01*
X138609802Y-95600482D01*
G37*
G36*
X138609802Y-96250482D02*
G01*
X138619509Y-96251921D01*
X138629028Y-96254306D01*
X138638268Y-96257612D01*
X138647140Y-96261808D01*
X138655557Y-96266853D01*
X138663439Y-96272699D01*
X138670711Y-96279289D01*
X138677301Y-96286561D01*
X138683147Y-96294443D01*
X138688192Y-96302860D01*
X138692388Y-96311732D01*
X138695694Y-96320972D01*
X138698079Y-96330491D01*
X138699518Y-96340198D01*
X138700000Y-96350000D01*
X138700000Y-96550000D01*
X138699518Y-96559802D01*
X138698079Y-96569509D01*
X138695694Y-96579028D01*
X138692388Y-96588268D01*
X138688192Y-96597140D01*
X138683147Y-96605557D01*
X138677301Y-96613439D01*
X138670711Y-96620711D01*
X138663439Y-96627301D01*
X138655557Y-96633147D01*
X138647140Y-96638192D01*
X138638268Y-96642388D01*
X138629028Y-96645694D01*
X138619509Y-96648079D01*
X138609802Y-96649518D01*
X138600000Y-96650000D01*
X137325000Y-96650000D01*
X137315198Y-96649518D01*
X137305491Y-96648079D01*
X137295972Y-96645694D01*
X137286732Y-96642388D01*
X137277860Y-96638192D01*
X137269443Y-96633147D01*
X137261561Y-96627301D01*
X137254289Y-96620711D01*
X137247699Y-96613439D01*
X137241853Y-96605557D01*
X137236808Y-96597140D01*
X137232612Y-96588268D01*
X137229306Y-96579028D01*
X137226921Y-96569509D01*
X137225482Y-96559802D01*
X137225000Y-96550000D01*
X137225000Y-96350000D01*
X137225482Y-96340198D01*
X137226921Y-96330491D01*
X137229306Y-96320972D01*
X137232612Y-96311732D01*
X137236808Y-96302860D01*
X137241853Y-96294443D01*
X137247699Y-96286561D01*
X137254289Y-96279289D01*
X137261561Y-96272699D01*
X137269443Y-96266853D01*
X137277860Y-96261808D01*
X137286732Y-96257612D01*
X137295972Y-96254306D01*
X137305491Y-96251921D01*
X137315198Y-96250482D01*
X137325000Y-96250000D01*
X138600000Y-96250000D01*
X138609802Y-96250482D01*
G37*
G36*
X138609802Y-96900482D02*
G01*
X138619509Y-96901921D01*
X138629028Y-96904306D01*
X138638268Y-96907612D01*
X138647140Y-96911808D01*
X138655557Y-96916853D01*
X138663439Y-96922699D01*
X138670711Y-96929289D01*
X138677301Y-96936561D01*
X138683147Y-96944443D01*
X138688192Y-96952860D01*
X138692388Y-96961732D01*
X138695694Y-96970972D01*
X138698079Y-96980491D01*
X138699518Y-96990198D01*
X138700000Y-97000000D01*
X138700000Y-97200000D01*
X138699518Y-97209802D01*
X138698079Y-97219509D01*
X138695694Y-97229028D01*
X138692388Y-97238268D01*
X138688192Y-97247140D01*
X138683147Y-97255557D01*
X138677301Y-97263439D01*
X138670711Y-97270711D01*
X138663439Y-97277301D01*
X138655557Y-97283147D01*
X138647140Y-97288192D01*
X138638268Y-97292388D01*
X138629028Y-97295694D01*
X138619509Y-97298079D01*
X138609802Y-97299518D01*
X138600000Y-97300000D01*
X137325000Y-97300000D01*
X137315198Y-97299518D01*
X137305491Y-97298079D01*
X137295972Y-97295694D01*
X137286732Y-97292388D01*
X137277860Y-97288192D01*
X137269443Y-97283147D01*
X137261561Y-97277301D01*
X137254289Y-97270711D01*
X137247699Y-97263439D01*
X137241853Y-97255557D01*
X137236808Y-97247140D01*
X137232612Y-97238268D01*
X137229306Y-97229028D01*
X137226921Y-97219509D01*
X137225482Y-97209802D01*
X137225000Y-97200000D01*
X137225000Y-97000000D01*
X137225482Y-96990198D01*
X137226921Y-96980491D01*
X137229306Y-96970972D01*
X137232612Y-96961732D01*
X137236808Y-96952860D01*
X137241853Y-96944443D01*
X137247699Y-96936561D01*
X137254289Y-96929289D01*
X137261561Y-96922699D01*
X137269443Y-96916853D01*
X137277860Y-96911808D01*
X137286732Y-96907612D01*
X137295972Y-96904306D01*
X137305491Y-96901921D01*
X137315198Y-96900482D01*
X137325000Y-96900000D01*
X138600000Y-96900000D01*
X138609802Y-96900482D01*
G37*
G36*
X138609802Y-97550482D02*
G01*
X138619509Y-97551921D01*
X138629028Y-97554306D01*
X138638268Y-97557612D01*
X138647140Y-97561808D01*
X138655557Y-97566853D01*
X138663439Y-97572699D01*
X138670711Y-97579289D01*
X138677301Y-97586561D01*
X138683147Y-97594443D01*
X138688192Y-97602860D01*
X138692388Y-97611732D01*
X138695694Y-97620972D01*
X138698079Y-97630491D01*
X138699518Y-97640198D01*
X138700000Y-97650000D01*
X138700000Y-97850000D01*
X138699518Y-97859802D01*
X138698079Y-97869509D01*
X138695694Y-97879028D01*
X138692388Y-97888268D01*
X138688192Y-97897140D01*
X138683147Y-97905557D01*
X138677301Y-97913439D01*
X138670711Y-97920711D01*
X138663439Y-97927301D01*
X138655557Y-97933147D01*
X138647140Y-97938192D01*
X138638268Y-97942388D01*
X138629028Y-97945694D01*
X138619509Y-97948079D01*
X138609802Y-97949518D01*
X138600000Y-97950000D01*
X137325000Y-97950000D01*
X137315198Y-97949518D01*
X137305491Y-97948079D01*
X137295972Y-97945694D01*
X137286732Y-97942388D01*
X137277860Y-97938192D01*
X137269443Y-97933147D01*
X137261561Y-97927301D01*
X137254289Y-97920711D01*
X137247699Y-97913439D01*
X137241853Y-97905557D01*
X137236808Y-97897140D01*
X137232612Y-97888268D01*
X137229306Y-97879028D01*
X137226921Y-97869509D01*
X137225482Y-97859802D01*
X137225000Y-97850000D01*
X137225000Y-97650000D01*
X137225482Y-97640198D01*
X137226921Y-97630491D01*
X137229306Y-97620972D01*
X137232612Y-97611732D01*
X137236808Y-97602860D01*
X137241853Y-97594443D01*
X137247699Y-97586561D01*
X137254289Y-97579289D01*
X137261561Y-97572699D01*
X137269443Y-97566853D01*
X137277860Y-97561808D01*
X137286732Y-97557612D01*
X137295972Y-97554306D01*
X137305491Y-97551921D01*
X137315198Y-97550482D01*
X137325000Y-97550000D01*
X138600000Y-97550000D01*
X138609802Y-97550482D01*
G37*
D12*
X136350000Y-106400000D03*
X138250000Y-106400000D03*
X138250000Y-108600000D03*
X137300000Y-108600000D03*
X136350000Y-108600000D03*
D10*
G36*
X118474505Y-107251203D02*
G01*
X118498773Y-107254803D01*
X118522572Y-107260764D01*
X118545671Y-107269029D01*
X118567850Y-107279519D01*
X118588893Y-107292131D01*
X118608599Y-107306746D01*
X118626777Y-107323222D01*
X118643253Y-107341400D01*
X118657868Y-107361106D01*
X118670480Y-107382149D01*
X118680970Y-107404328D01*
X118689235Y-107427427D01*
X118695196Y-107451226D01*
X118698796Y-107475494D01*
X118700000Y-107499998D01*
X118700000Y-108150000D01*
X118698796Y-108174504D01*
X118695196Y-108198772D01*
X118689235Y-108222571D01*
X118680970Y-108245670D01*
X118670480Y-108267849D01*
X118657868Y-108288892D01*
X118643253Y-108308598D01*
X118626777Y-108326776D01*
X118608599Y-108343252D01*
X118588893Y-108357867D01*
X118567850Y-108370479D01*
X118545671Y-108380969D01*
X118522572Y-108389234D01*
X118498773Y-108395195D01*
X118474505Y-108398795D01*
X118450001Y-108399999D01*
X117549999Y-108399999D01*
X117525495Y-108398795D01*
X117501227Y-108395195D01*
X117477428Y-108389234D01*
X117454329Y-108380969D01*
X117432150Y-108370479D01*
X117411107Y-108357867D01*
X117391401Y-108343252D01*
X117373223Y-108326776D01*
X117356747Y-108308598D01*
X117342132Y-108288892D01*
X117329520Y-108267849D01*
X117319030Y-108245670D01*
X117310765Y-108222571D01*
X117304804Y-108198772D01*
X117301204Y-108174504D01*
X117300000Y-108150000D01*
X117300000Y-107499998D01*
X117301204Y-107475494D01*
X117304804Y-107451226D01*
X117310765Y-107427427D01*
X117319030Y-107404328D01*
X117329520Y-107382149D01*
X117342132Y-107361106D01*
X117356747Y-107341400D01*
X117373223Y-107323222D01*
X117391401Y-107306746D01*
X117411107Y-107292131D01*
X117432150Y-107279519D01*
X117454329Y-107269029D01*
X117477428Y-107260764D01*
X117501227Y-107254803D01*
X117525495Y-107251203D01*
X117549999Y-107249999D01*
X118450001Y-107249999D01*
X118474505Y-107251203D01*
G37*
G36*
X118474505Y-105201203D02*
G01*
X118498773Y-105204803D01*
X118522572Y-105210764D01*
X118545671Y-105219029D01*
X118567850Y-105229519D01*
X118588893Y-105242131D01*
X118608599Y-105256746D01*
X118626777Y-105273222D01*
X118643253Y-105291400D01*
X118657868Y-105311106D01*
X118670480Y-105332149D01*
X118680970Y-105354328D01*
X118689235Y-105377427D01*
X118695196Y-105401226D01*
X118698796Y-105425494D01*
X118700000Y-105449998D01*
X118700000Y-106100000D01*
X118698796Y-106124504D01*
X118695196Y-106148772D01*
X118689235Y-106172571D01*
X118680970Y-106195670D01*
X118670480Y-106217849D01*
X118657868Y-106238892D01*
X118643253Y-106258598D01*
X118626777Y-106276776D01*
X118608599Y-106293252D01*
X118588893Y-106307867D01*
X118567850Y-106320479D01*
X118545671Y-106330969D01*
X118522572Y-106339234D01*
X118498773Y-106345195D01*
X118474505Y-106348795D01*
X118450001Y-106349999D01*
X117549999Y-106349999D01*
X117525495Y-106348795D01*
X117501227Y-106345195D01*
X117477428Y-106339234D01*
X117454329Y-106330969D01*
X117432150Y-106320479D01*
X117411107Y-106307867D01*
X117391401Y-106293252D01*
X117373223Y-106276776D01*
X117356747Y-106258598D01*
X117342132Y-106238892D01*
X117329520Y-106217849D01*
X117319030Y-106195670D01*
X117310765Y-106172571D01*
X117304804Y-106148772D01*
X117301204Y-106124504D01*
X117300000Y-106100000D01*
X117300000Y-105449998D01*
X117301204Y-105425494D01*
X117304804Y-105401226D01*
X117310765Y-105377427D01*
X117319030Y-105354328D01*
X117329520Y-105332149D01*
X117342132Y-105311106D01*
X117356747Y-105291400D01*
X117373223Y-105273222D01*
X117391401Y-105256746D01*
X117411107Y-105242131D01*
X117432150Y-105229519D01*
X117454329Y-105219029D01*
X117477428Y-105210764D01*
X117501227Y-105204803D01*
X117525495Y-105201203D01*
X117549999Y-105199999D01*
X118450001Y-105199999D01*
X118474505Y-105201203D01*
G37*
G36*
X120474505Y-107251204D02*
G01*
X120498773Y-107254804D01*
X120522572Y-107260765D01*
X120545671Y-107269030D01*
X120567850Y-107279520D01*
X120588893Y-107292132D01*
X120608599Y-107306747D01*
X120626777Y-107323223D01*
X120643253Y-107341401D01*
X120657868Y-107361107D01*
X120670480Y-107382150D01*
X120680970Y-107404329D01*
X120689235Y-107427428D01*
X120695196Y-107451227D01*
X120698796Y-107475495D01*
X120700000Y-107499999D01*
X120700000Y-108150001D01*
X120698796Y-108174505D01*
X120695196Y-108198773D01*
X120689235Y-108222572D01*
X120680970Y-108245671D01*
X120670480Y-108267850D01*
X120657868Y-108288893D01*
X120643253Y-108308599D01*
X120626777Y-108326777D01*
X120608599Y-108343253D01*
X120588893Y-108357868D01*
X120567850Y-108370480D01*
X120545671Y-108380970D01*
X120522572Y-108389235D01*
X120498773Y-108395196D01*
X120474505Y-108398796D01*
X120450001Y-108400000D01*
X119549999Y-108400000D01*
X119525495Y-108398796D01*
X119501227Y-108395196D01*
X119477428Y-108389235D01*
X119454329Y-108380970D01*
X119432150Y-108370480D01*
X119411107Y-108357868D01*
X119391401Y-108343253D01*
X119373223Y-108326777D01*
X119356747Y-108308599D01*
X119342132Y-108288893D01*
X119329520Y-108267850D01*
X119319030Y-108245671D01*
X119310765Y-108222572D01*
X119304804Y-108198773D01*
X119301204Y-108174505D01*
X119300000Y-108150001D01*
X119300000Y-107499999D01*
X119301204Y-107475495D01*
X119304804Y-107451227D01*
X119310765Y-107427428D01*
X119319030Y-107404329D01*
X119329520Y-107382150D01*
X119342132Y-107361107D01*
X119356747Y-107341401D01*
X119373223Y-107323223D01*
X119391401Y-107306747D01*
X119411107Y-107292132D01*
X119432150Y-107279520D01*
X119454329Y-107269030D01*
X119477428Y-107260765D01*
X119501227Y-107254804D01*
X119525495Y-107251204D01*
X119549999Y-107250000D01*
X120450001Y-107250000D01*
X120474505Y-107251204D01*
G37*
G36*
X120474505Y-105201204D02*
G01*
X120498773Y-105204804D01*
X120522572Y-105210765D01*
X120545671Y-105219030D01*
X120567850Y-105229520D01*
X120588893Y-105242132D01*
X120608599Y-105256747D01*
X120626777Y-105273223D01*
X120643253Y-105291401D01*
X120657868Y-105311107D01*
X120670480Y-105332150D01*
X120680970Y-105354329D01*
X120689235Y-105377428D01*
X120695196Y-105401227D01*
X120698796Y-105425495D01*
X120700000Y-105449999D01*
X120700000Y-106100001D01*
X120698796Y-106124505D01*
X120695196Y-106148773D01*
X120689235Y-106172572D01*
X120680970Y-106195671D01*
X120670480Y-106217850D01*
X120657868Y-106238893D01*
X120643253Y-106258599D01*
X120626777Y-106276777D01*
X120608599Y-106293253D01*
X120588893Y-106307868D01*
X120567850Y-106320480D01*
X120545671Y-106330970D01*
X120522572Y-106339235D01*
X120498773Y-106345196D01*
X120474505Y-106348796D01*
X120450001Y-106350000D01*
X119549999Y-106350000D01*
X119525495Y-106348796D01*
X119501227Y-106345196D01*
X119477428Y-106339235D01*
X119454329Y-106330970D01*
X119432150Y-106320480D01*
X119411107Y-106307868D01*
X119391401Y-106293253D01*
X119373223Y-106276777D01*
X119356747Y-106258599D01*
X119342132Y-106238893D01*
X119329520Y-106217850D01*
X119319030Y-106195671D01*
X119310765Y-106172572D01*
X119304804Y-106148773D01*
X119301204Y-106124505D01*
X119300000Y-106100001D01*
X119300000Y-105449999D01*
X119301204Y-105425495D01*
X119304804Y-105401227D01*
X119310765Y-105377428D01*
X119319030Y-105354329D01*
X119329520Y-105332150D01*
X119342132Y-105311107D01*
X119356747Y-105291401D01*
X119373223Y-105273223D01*
X119391401Y-105256747D01*
X119411107Y-105242132D01*
X119432150Y-105229520D01*
X119454329Y-105219030D01*
X119477428Y-105210765D01*
X119501227Y-105204804D01*
X119525495Y-105201204D01*
X119549999Y-105200000D01*
X120450001Y-105200000D01*
X120474505Y-105201204D01*
G37*
G36*
X130474505Y-107211204D02*
G01*
X130498773Y-107214804D01*
X130522572Y-107220765D01*
X130545671Y-107229030D01*
X130567850Y-107239520D01*
X130588893Y-107252132D01*
X130608599Y-107266747D01*
X130626777Y-107283223D01*
X130643253Y-107301401D01*
X130657868Y-107321107D01*
X130670480Y-107342150D01*
X130680970Y-107364329D01*
X130689235Y-107387428D01*
X130695196Y-107411227D01*
X130698796Y-107435495D01*
X130700000Y-107459999D01*
X130700000Y-108110001D01*
X130698796Y-108134505D01*
X130695196Y-108158773D01*
X130689235Y-108182572D01*
X130680970Y-108205671D01*
X130670480Y-108227850D01*
X130657868Y-108248893D01*
X130643253Y-108268599D01*
X130626777Y-108286777D01*
X130608599Y-108303253D01*
X130588893Y-108317868D01*
X130567850Y-108330480D01*
X130545671Y-108340970D01*
X130522572Y-108349235D01*
X130498773Y-108355196D01*
X130474505Y-108358796D01*
X130450001Y-108360000D01*
X129549999Y-108360000D01*
X129525495Y-108358796D01*
X129501227Y-108355196D01*
X129477428Y-108349235D01*
X129454329Y-108340970D01*
X129432150Y-108330480D01*
X129411107Y-108317868D01*
X129391401Y-108303253D01*
X129373223Y-108286777D01*
X129356747Y-108268599D01*
X129342132Y-108248893D01*
X129329520Y-108227850D01*
X129319030Y-108205671D01*
X129310765Y-108182572D01*
X129304804Y-108158773D01*
X129301204Y-108134505D01*
X129300000Y-108110001D01*
X129300000Y-107459999D01*
X129301204Y-107435495D01*
X129304804Y-107411227D01*
X129310765Y-107387428D01*
X129319030Y-107364329D01*
X129329520Y-107342150D01*
X129342132Y-107321107D01*
X129356747Y-107301401D01*
X129373223Y-107283223D01*
X129391401Y-107266747D01*
X129411107Y-107252132D01*
X129432150Y-107239520D01*
X129454329Y-107229030D01*
X129477428Y-107220765D01*
X129501227Y-107214804D01*
X129525495Y-107211204D01*
X129549999Y-107210000D01*
X130450001Y-107210000D01*
X130474505Y-107211204D01*
G37*
G36*
X130474505Y-105161204D02*
G01*
X130498773Y-105164804D01*
X130522572Y-105170765D01*
X130545671Y-105179030D01*
X130567850Y-105189520D01*
X130588893Y-105202132D01*
X130608599Y-105216747D01*
X130626777Y-105233223D01*
X130643253Y-105251401D01*
X130657868Y-105271107D01*
X130670480Y-105292150D01*
X130680970Y-105314329D01*
X130689235Y-105337428D01*
X130695196Y-105361227D01*
X130698796Y-105385495D01*
X130700000Y-105409999D01*
X130700000Y-106060001D01*
X130698796Y-106084505D01*
X130695196Y-106108773D01*
X130689235Y-106132572D01*
X130680970Y-106155671D01*
X130670480Y-106177850D01*
X130657868Y-106198893D01*
X130643253Y-106218599D01*
X130626777Y-106236777D01*
X130608599Y-106253253D01*
X130588893Y-106267868D01*
X130567850Y-106280480D01*
X130545671Y-106290970D01*
X130522572Y-106299235D01*
X130498773Y-106305196D01*
X130474505Y-106308796D01*
X130450001Y-106310000D01*
X129549999Y-106310000D01*
X129525495Y-106308796D01*
X129501227Y-106305196D01*
X129477428Y-106299235D01*
X129454329Y-106290970D01*
X129432150Y-106280480D01*
X129411107Y-106267868D01*
X129391401Y-106253253D01*
X129373223Y-106236777D01*
X129356747Y-106218599D01*
X129342132Y-106198893D01*
X129329520Y-106177850D01*
X129319030Y-106155671D01*
X129310765Y-106132572D01*
X129304804Y-106108773D01*
X129301204Y-106084505D01*
X129300000Y-106060001D01*
X129300000Y-105409999D01*
X129301204Y-105385495D01*
X129304804Y-105361227D01*
X129310765Y-105337428D01*
X129319030Y-105314329D01*
X129329520Y-105292150D01*
X129342132Y-105271107D01*
X129356747Y-105251401D01*
X129373223Y-105233223D01*
X129391401Y-105216747D01*
X129411107Y-105202132D01*
X129432150Y-105189520D01*
X129454329Y-105179030D01*
X129477428Y-105170765D01*
X129501227Y-105164804D01*
X129525495Y-105161204D01*
X129549999Y-105160000D01*
X130450001Y-105160000D01*
X130474505Y-105161204D01*
G37*
G36*
X116474505Y-105201204D02*
G01*
X116498773Y-105204804D01*
X116522572Y-105210765D01*
X116545671Y-105219030D01*
X116567850Y-105229520D01*
X116588893Y-105242132D01*
X116608599Y-105256747D01*
X116626777Y-105273223D01*
X116643253Y-105291401D01*
X116657868Y-105311107D01*
X116670480Y-105332150D01*
X116680970Y-105354329D01*
X116689235Y-105377428D01*
X116695196Y-105401227D01*
X116698796Y-105425495D01*
X116700000Y-105449999D01*
X116700000Y-106100001D01*
X116698796Y-106124505D01*
X116695196Y-106148773D01*
X116689235Y-106172572D01*
X116680970Y-106195671D01*
X116670480Y-106217850D01*
X116657868Y-106238893D01*
X116643253Y-106258599D01*
X116626777Y-106276777D01*
X116608599Y-106293253D01*
X116588893Y-106307868D01*
X116567850Y-106320480D01*
X116545671Y-106330970D01*
X116522572Y-106339235D01*
X116498773Y-106345196D01*
X116474505Y-106348796D01*
X116450001Y-106350000D01*
X115549999Y-106350000D01*
X115525495Y-106348796D01*
X115501227Y-106345196D01*
X115477428Y-106339235D01*
X115454329Y-106330970D01*
X115432150Y-106320480D01*
X115411107Y-106307868D01*
X115391401Y-106293253D01*
X115373223Y-106276777D01*
X115356747Y-106258599D01*
X115342132Y-106238893D01*
X115329520Y-106217850D01*
X115319030Y-106195671D01*
X115310765Y-106172572D01*
X115304804Y-106148773D01*
X115301204Y-106124505D01*
X115300000Y-106100001D01*
X115300000Y-105449999D01*
X115301204Y-105425495D01*
X115304804Y-105401227D01*
X115310765Y-105377428D01*
X115319030Y-105354329D01*
X115329520Y-105332150D01*
X115342132Y-105311107D01*
X115356747Y-105291401D01*
X115373223Y-105273223D01*
X115391401Y-105256747D01*
X115411107Y-105242132D01*
X115432150Y-105229520D01*
X115454329Y-105219030D01*
X115477428Y-105210765D01*
X115501227Y-105204804D01*
X115525495Y-105201204D01*
X115549999Y-105200000D01*
X116450001Y-105200000D01*
X116474505Y-105201204D01*
G37*
G36*
X116474505Y-107251204D02*
G01*
X116498773Y-107254804D01*
X116522572Y-107260765D01*
X116545671Y-107269030D01*
X116567850Y-107279520D01*
X116588893Y-107292132D01*
X116608599Y-107306747D01*
X116626777Y-107323223D01*
X116643253Y-107341401D01*
X116657868Y-107361107D01*
X116670480Y-107382150D01*
X116680970Y-107404329D01*
X116689235Y-107427428D01*
X116695196Y-107451227D01*
X116698796Y-107475495D01*
X116700000Y-107499999D01*
X116700000Y-108150001D01*
X116698796Y-108174505D01*
X116695196Y-108198773D01*
X116689235Y-108222572D01*
X116680970Y-108245671D01*
X116670480Y-108267850D01*
X116657868Y-108288893D01*
X116643253Y-108308599D01*
X116626777Y-108326777D01*
X116608599Y-108343253D01*
X116588893Y-108357868D01*
X116567850Y-108370480D01*
X116545671Y-108380970D01*
X116522572Y-108389235D01*
X116498773Y-108395196D01*
X116474505Y-108398796D01*
X116450001Y-108400000D01*
X115549999Y-108400000D01*
X115525495Y-108398796D01*
X115501227Y-108395196D01*
X115477428Y-108389235D01*
X115454329Y-108380970D01*
X115432150Y-108370480D01*
X115411107Y-108357868D01*
X115391401Y-108343253D01*
X115373223Y-108326777D01*
X115356747Y-108308599D01*
X115342132Y-108288893D01*
X115329520Y-108267850D01*
X115319030Y-108245671D01*
X115310765Y-108222572D01*
X115304804Y-108198773D01*
X115301204Y-108174505D01*
X115300000Y-108150001D01*
X115300000Y-107499999D01*
X115301204Y-107475495D01*
X115304804Y-107451227D01*
X115310765Y-107427428D01*
X115319030Y-107404329D01*
X115329520Y-107382150D01*
X115342132Y-107361107D01*
X115356747Y-107341401D01*
X115373223Y-107323223D01*
X115391401Y-107306747D01*
X115411107Y-107292132D01*
X115432150Y-107279520D01*
X115454329Y-107269030D01*
X115477428Y-107260765D01*
X115501227Y-107254804D01*
X115525495Y-107251204D01*
X115549999Y-107250000D01*
X116450001Y-107250000D01*
X116474505Y-107251204D01*
G37*
G36*
X122474506Y-105201204D02*
G01*
X122498774Y-105204804D01*
X122522573Y-105210765D01*
X122545672Y-105219030D01*
X122567851Y-105229520D01*
X122588894Y-105242132D01*
X122608600Y-105256747D01*
X122626778Y-105273223D01*
X122643254Y-105291401D01*
X122657869Y-105311107D01*
X122670481Y-105332150D01*
X122680971Y-105354329D01*
X122689236Y-105377428D01*
X122695197Y-105401227D01*
X122698797Y-105425495D01*
X122700001Y-105449999D01*
X122700001Y-106100001D01*
X122698797Y-106124505D01*
X122695197Y-106148773D01*
X122689236Y-106172572D01*
X122680971Y-106195671D01*
X122670481Y-106217850D01*
X122657869Y-106238893D01*
X122643254Y-106258599D01*
X122626778Y-106276777D01*
X122608600Y-106293253D01*
X122588894Y-106307868D01*
X122567851Y-106320480D01*
X122545672Y-106330970D01*
X122522573Y-106339235D01*
X122498774Y-106345196D01*
X122474506Y-106348796D01*
X122450002Y-106350000D01*
X121550000Y-106350000D01*
X121525496Y-106348796D01*
X121501228Y-106345196D01*
X121477429Y-106339235D01*
X121454330Y-106330970D01*
X121432151Y-106320480D01*
X121411108Y-106307868D01*
X121391402Y-106293253D01*
X121373224Y-106276777D01*
X121356748Y-106258599D01*
X121342133Y-106238893D01*
X121329521Y-106217850D01*
X121319031Y-106195671D01*
X121310766Y-106172572D01*
X121304805Y-106148773D01*
X121301205Y-106124505D01*
X121300001Y-106100001D01*
X121300001Y-105449999D01*
X121301205Y-105425495D01*
X121304805Y-105401227D01*
X121310766Y-105377428D01*
X121319031Y-105354329D01*
X121329521Y-105332150D01*
X121342133Y-105311107D01*
X121356748Y-105291401D01*
X121373224Y-105273223D01*
X121391402Y-105256747D01*
X121411108Y-105242132D01*
X121432151Y-105229520D01*
X121454330Y-105219030D01*
X121477429Y-105210765D01*
X121501228Y-105204804D01*
X121525496Y-105201204D01*
X121550000Y-105200000D01*
X122450002Y-105200000D01*
X122474506Y-105201204D01*
G37*
G36*
X122474506Y-107251204D02*
G01*
X122498774Y-107254804D01*
X122522573Y-107260765D01*
X122545672Y-107269030D01*
X122567851Y-107279520D01*
X122588894Y-107292132D01*
X122608600Y-107306747D01*
X122626778Y-107323223D01*
X122643254Y-107341401D01*
X122657869Y-107361107D01*
X122670481Y-107382150D01*
X122680971Y-107404329D01*
X122689236Y-107427428D01*
X122695197Y-107451227D01*
X122698797Y-107475495D01*
X122700001Y-107499999D01*
X122700001Y-108150001D01*
X122698797Y-108174505D01*
X122695197Y-108198773D01*
X122689236Y-108222572D01*
X122680971Y-108245671D01*
X122670481Y-108267850D01*
X122657869Y-108288893D01*
X122643254Y-108308599D01*
X122626778Y-108326777D01*
X122608600Y-108343253D01*
X122588894Y-108357868D01*
X122567851Y-108370480D01*
X122545672Y-108380970D01*
X122522573Y-108389235D01*
X122498774Y-108395196D01*
X122474506Y-108398796D01*
X122450002Y-108400000D01*
X121550000Y-108400000D01*
X121525496Y-108398796D01*
X121501228Y-108395196D01*
X121477429Y-108389235D01*
X121454330Y-108380970D01*
X121432151Y-108370480D01*
X121411108Y-108357868D01*
X121391402Y-108343253D01*
X121373224Y-108326777D01*
X121356748Y-108308599D01*
X121342133Y-108288893D01*
X121329521Y-108267850D01*
X121319031Y-108245671D01*
X121310766Y-108222572D01*
X121304805Y-108198773D01*
X121301205Y-108174505D01*
X121300001Y-108150001D01*
X121300001Y-107499999D01*
X121301205Y-107475495D01*
X121304805Y-107451227D01*
X121310766Y-107427428D01*
X121319031Y-107404329D01*
X121329521Y-107382150D01*
X121342133Y-107361107D01*
X121356748Y-107341401D01*
X121373224Y-107323223D01*
X121391402Y-107306747D01*
X121411108Y-107292132D01*
X121432151Y-107279520D01*
X121454330Y-107269030D01*
X121477429Y-107260765D01*
X121501228Y-107254804D01*
X121525496Y-107251204D01*
X121550000Y-107250000D01*
X122450002Y-107250000D01*
X122474506Y-107251204D01*
G37*
G36*
X128484505Y-105161204D02*
G01*
X128508773Y-105164804D01*
X128532572Y-105170765D01*
X128555671Y-105179030D01*
X128577850Y-105189520D01*
X128598893Y-105202132D01*
X128618599Y-105216747D01*
X128636777Y-105233223D01*
X128653253Y-105251401D01*
X128667868Y-105271107D01*
X128680480Y-105292150D01*
X128690970Y-105314329D01*
X128699235Y-105337428D01*
X128705196Y-105361227D01*
X128708796Y-105385495D01*
X128710000Y-105409999D01*
X128710000Y-106060001D01*
X128708796Y-106084505D01*
X128705196Y-106108773D01*
X128699235Y-106132572D01*
X128690970Y-106155671D01*
X128680480Y-106177850D01*
X128667868Y-106198893D01*
X128653253Y-106218599D01*
X128636777Y-106236777D01*
X128618599Y-106253253D01*
X128598893Y-106267868D01*
X128577850Y-106280480D01*
X128555671Y-106290970D01*
X128532572Y-106299235D01*
X128508773Y-106305196D01*
X128484505Y-106308796D01*
X128460001Y-106310000D01*
X127559999Y-106310000D01*
X127535495Y-106308796D01*
X127511227Y-106305196D01*
X127487428Y-106299235D01*
X127464329Y-106290970D01*
X127442150Y-106280480D01*
X127421107Y-106267868D01*
X127401401Y-106253253D01*
X127383223Y-106236777D01*
X127366747Y-106218599D01*
X127352132Y-106198893D01*
X127339520Y-106177850D01*
X127329030Y-106155671D01*
X127320765Y-106132572D01*
X127314804Y-106108773D01*
X127311204Y-106084505D01*
X127310000Y-106060001D01*
X127310000Y-105409999D01*
X127311204Y-105385495D01*
X127314804Y-105361227D01*
X127320765Y-105337428D01*
X127329030Y-105314329D01*
X127339520Y-105292150D01*
X127352132Y-105271107D01*
X127366747Y-105251401D01*
X127383223Y-105233223D01*
X127401401Y-105216747D01*
X127421107Y-105202132D01*
X127442150Y-105189520D01*
X127464329Y-105179030D01*
X127487428Y-105170765D01*
X127511227Y-105164804D01*
X127535495Y-105161204D01*
X127559999Y-105160000D01*
X128460001Y-105160000D01*
X128484505Y-105161204D01*
G37*
G36*
X128484505Y-107211204D02*
G01*
X128508773Y-107214804D01*
X128532572Y-107220765D01*
X128555671Y-107229030D01*
X128577850Y-107239520D01*
X128598893Y-107252132D01*
X128618599Y-107266747D01*
X128636777Y-107283223D01*
X128653253Y-107301401D01*
X128667868Y-107321107D01*
X128680480Y-107342150D01*
X128690970Y-107364329D01*
X128699235Y-107387428D01*
X128705196Y-107411227D01*
X128708796Y-107435495D01*
X128710000Y-107459999D01*
X128710000Y-108110001D01*
X128708796Y-108134505D01*
X128705196Y-108158773D01*
X128699235Y-108182572D01*
X128690970Y-108205671D01*
X128680480Y-108227850D01*
X128667868Y-108248893D01*
X128653253Y-108268599D01*
X128636777Y-108286777D01*
X128618599Y-108303253D01*
X128598893Y-108317868D01*
X128577850Y-108330480D01*
X128555671Y-108340970D01*
X128532572Y-108349235D01*
X128508773Y-108355196D01*
X128484505Y-108358796D01*
X128460001Y-108360000D01*
X127559999Y-108360000D01*
X127535495Y-108358796D01*
X127511227Y-108355196D01*
X127487428Y-108349235D01*
X127464329Y-108340970D01*
X127442150Y-108330480D01*
X127421107Y-108317868D01*
X127401401Y-108303253D01*
X127383223Y-108286777D01*
X127366747Y-108268599D01*
X127352132Y-108248893D01*
X127339520Y-108227850D01*
X127329030Y-108205671D01*
X127320765Y-108182572D01*
X127314804Y-108158773D01*
X127311204Y-108134505D01*
X127310000Y-108110001D01*
X127310000Y-107459999D01*
X127311204Y-107435495D01*
X127314804Y-107411227D01*
X127320765Y-107387428D01*
X127329030Y-107364329D01*
X127339520Y-107342150D01*
X127352132Y-107321107D01*
X127366747Y-107301401D01*
X127383223Y-107283223D01*
X127401401Y-107266747D01*
X127421107Y-107252132D01*
X127442150Y-107239520D01*
X127464329Y-107229030D01*
X127487428Y-107220765D01*
X127511227Y-107214804D01*
X127535495Y-107211204D01*
X127559999Y-107210000D01*
X128460001Y-107210000D01*
X128484505Y-107211204D01*
G37*
G36*
X110574505Y-119901204D02*
G01*
X110598773Y-119904804D01*
X110622572Y-119910765D01*
X110645671Y-119919030D01*
X110667850Y-119929520D01*
X110688893Y-119942132D01*
X110708599Y-119956747D01*
X110726777Y-119973223D01*
X110743253Y-119991401D01*
X110757868Y-120011107D01*
X110770480Y-120032150D01*
X110780970Y-120054329D01*
X110789235Y-120077428D01*
X110795196Y-120101227D01*
X110798796Y-120125495D01*
X110800000Y-120149999D01*
X110800000Y-121050001D01*
X110798796Y-121074505D01*
X110795196Y-121098773D01*
X110789235Y-121122572D01*
X110780970Y-121145671D01*
X110770480Y-121167850D01*
X110757868Y-121188893D01*
X110743253Y-121208599D01*
X110726777Y-121226777D01*
X110708599Y-121243253D01*
X110688893Y-121257868D01*
X110667850Y-121270480D01*
X110645671Y-121280970D01*
X110622572Y-121289235D01*
X110598773Y-121295196D01*
X110574505Y-121298796D01*
X110550001Y-121300000D01*
X109899999Y-121300000D01*
X109875495Y-121298796D01*
X109851227Y-121295196D01*
X109827428Y-121289235D01*
X109804329Y-121280970D01*
X109782150Y-121270480D01*
X109761107Y-121257868D01*
X109741401Y-121243253D01*
X109723223Y-121226777D01*
X109706747Y-121208599D01*
X109692132Y-121188893D01*
X109679520Y-121167850D01*
X109669030Y-121145671D01*
X109660765Y-121122572D01*
X109654804Y-121098773D01*
X109651204Y-121074505D01*
X109650000Y-121050001D01*
X109650000Y-120149999D01*
X109651204Y-120125495D01*
X109654804Y-120101227D01*
X109660765Y-120077428D01*
X109669030Y-120054329D01*
X109679520Y-120032150D01*
X109692132Y-120011107D01*
X109706747Y-119991401D01*
X109723223Y-119973223D01*
X109741401Y-119956747D01*
X109761107Y-119942132D01*
X109782150Y-119929520D01*
X109804329Y-119919030D01*
X109827428Y-119910765D01*
X109851227Y-119904804D01*
X109875495Y-119901204D01*
X109899999Y-119900000D01*
X110550001Y-119900000D01*
X110574505Y-119901204D01*
G37*
G36*
X108524505Y-119901204D02*
G01*
X108548773Y-119904804D01*
X108572572Y-119910765D01*
X108595671Y-119919030D01*
X108617850Y-119929520D01*
X108638893Y-119942132D01*
X108658599Y-119956747D01*
X108676777Y-119973223D01*
X108693253Y-119991401D01*
X108707868Y-120011107D01*
X108720480Y-120032150D01*
X108730970Y-120054329D01*
X108739235Y-120077428D01*
X108745196Y-120101227D01*
X108748796Y-120125495D01*
X108750000Y-120149999D01*
X108750000Y-121050001D01*
X108748796Y-121074505D01*
X108745196Y-121098773D01*
X108739235Y-121122572D01*
X108730970Y-121145671D01*
X108720480Y-121167850D01*
X108707868Y-121188893D01*
X108693253Y-121208599D01*
X108676777Y-121226777D01*
X108658599Y-121243253D01*
X108638893Y-121257868D01*
X108617850Y-121270480D01*
X108595671Y-121280970D01*
X108572572Y-121289235D01*
X108548773Y-121295196D01*
X108524505Y-121298796D01*
X108500001Y-121300000D01*
X107849999Y-121300000D01*
X107825495Y-121298796D01*
X107801227Y-121295196D01*
X107777428Y-121289235D01*
X107754329Y-121280970D01*
X107732150Y-121270480D01*
X107711107Y-121257868D01*
X107691401Y-121243253D01*
X107673223Y-121226777D01*
X107656747Y-121208599D01*
X107642132Y-121188893D01*
X107629520Y-121167850D01*
X107619030Y-121145671D01*
X107610765Y-121122572D01*
X107604804Y-121098773D01*
X107601204Y-121074505D01*
X107600000Y-121050001D01*
X107600000Y-120149999D01*
X107601204Y-120125495D01*
X107604804Y-120101227D01*
X107610765Y-120077428D01*
X107619030Y-120054329D01*
X107629520Y-120032150D01*
X107642132Y-120011107D01*
X107656747Y-119991401D01*
X107673223Y-119973223D01*
X107691401Y-119956747D01*
X107711107Y-119942132D01*
X107732150Y-119929520D01*
X107754329Y-119919030D01*
X107777428Y-119910765D01*
X107801227Y-119904804D01*
X107825495Y-119901204D01*
X107849999Y-119900000D01*
X108500001Y-119900000D01*
X108524505Y-119901204D01*
G37*
G36*
X110574505Y-117901204D02*
G01*
X110598773Y-117904804D01*
X110622572Y-117910765D01*
X110645671Y-117919030D01*
X110667850Y-117929520D01*
X110688893Y-117942132D01*
X110708599Y-117956747D01*
X110726777Y-117973223D01*
X110743253Y-117991401D01*
X110757868Y-118011107D01*
X110770480Y-118032150D01*
X110780970Y-118054329D01*
X110789235Y-118077428D01*
X110795196Y-118101227D01*
X110798796Y-118125495D01*
X110800000Y-118149999D01*
X110800000Y-119050001D01*
X110798796Y-119074505D01*
X110795196Y-119098773D01*
X110789235Y-119122572D01*
X110780970Y-119145671D01*
X110770480Y-119167850D01*
X110757868Y-119188893D01*
X110743253Y-119208599D01*
X110726777Y-119226777D01*
X110708599Y-119243253D01*
X110688893Y-119257868D01*
X110667850Y-119270480D01*
X110645671Y-119280970D01*
X110622572Y-119289235D01*
X110598773Y-119295196D01*
X110574505Y-119298796D01*
X110550001Y-119300000D01*
X109899999Y-119300000D01*
X109875495Y-119298796D01*
X109851227Y-119295196D01*
X109827428Y-119289235D01*
X109804329Y-119280970D01*
X109782150Y-119270480D01*
X109761107Y-119257868D01*
X109741401Y-119243253D01*
X109723223Y-119226777D01*
X109706747Y-119208599D01*
X109692132Y-119188893D01*
X109679520Y-119167850D01*
X109669030Y-119145671D01*
X109660765Y-119122572D01*
X109654804Y-119098773D01*
X109651204Y-119074505D01*
X109650000Y-119050001D01*
X109650000Y-118149999D01*
X109651204Y-118125495D01*
X109654804Y-118101227D01*
X109660765Y-118077428D01*
X109669030Y-118054329D01*
X109679520Y-118032150D01*
X109692132Y-118011107D01*
X109706747Y-117991401D01*
X109723223Y-117973223D01*
X109741401Y-117956747D01*
X109761107Y-117942132D01*
X109782150Y-117929520D01*
X109804329Y-117919030D01*
X109827428Y-117910765D01*
X109851227Y-117904804D01*
X109875495Y-117901204D01*
X109899999Y-117900000D01*
X110550001Y-117900000D01*
X110574505Y-117901204D01*
G37*
G36*
X108524505Y-117901204D02*
G01*
X108548773Y-117904804D01*
X108572572Y-117910765D01*
X108595671Y-117919030D01*
X108617850Y-117929520D01*
X108638893Y-117942132D01*
X108658599Y-117956747D01*
X108676777Y-117973223D01*
X108693253Y-117991401D01*
X108707868Y-118011107D01*
X108720480Y-118032150D01*
X108730970Y-118054329D01*
X108739235Y-118077428D01*
X108745196Y-118101227D01*
X108748796Y-118125495D01*
X108750000Y-118149999D01*
X108750000Y-119050001D01*
X108748796Y-119074505D01*
X108745196Y-119098773D01*
X108739235Y-119122572D01*
X108730970Y-119145671D01*
X108720480Y-119167850D01*
X108707868Y-119188893D01*
X108693253Y-119208599D01*
X108676777Y-119226777D01*
X108658599Y-119243253D01*
X108638893Y-119257868D01*
X108617850Y-119270480D01*
X108595671Y-119280970D01*
X108572572Y-119289235D01*
X108548773Y-119295196D01*
X108524505Y-119298796D01*
X108500001Y-119300000D01*
X107849999Y-119300000D01*
X107825495Y-119298796D01*
X107801227Y-119295196D01*
X107777428Y-119289235D01*
X107754329Y-119280970D01*
X107732150Y-119270480D01*
X107711107Y-119257868D01*
X107691401Y-119243253D01*
X107673223Y-119226777D01*
X107656747Y-119208599D01*
X107642132Y-119188893D01*
X107629520Y-119167850D01*
X107619030Y-119145671D01*
X107610765Y-119122572D01*
X107604804Y-119098773D01*
X107601204Y-119074505D01*
X107600000Y-119050001D01*
X107600000Y-118149999D01*
X107601204Y-118125495D01*
X107604804Y-118101227D01*
X107610765Y-118077428D01*
X107619030Y-118054329D01*
X107629520Y-118032150D01*
X107642132Y-118011107D01*
X107656747Y-117991401D01*
X107673223Y-117973223D01*
X107691401Y-117956747D01*
X107711107Y-117942132D01*
X107732150Y-117929520D01*
X107754329Y-117919030D01*
X107777428Y-117910765D01*
X107801227Y-117904804D01*
X107825495Y-117901204D01*
X107849999Y-117900000D01*
X108500001Y-117900000D01*
X108524505Y-117901204D01*
G37*
G36*
X108524505Y-121901204D02*
G01*
X108548773Y-121904804D01*
X108572572Y-121910765D01*
X108595671Y-121919030D01*
X108617850Y-121929520D01*
X108638893Y-121942132D01*
X108658599Y-121956747D01*
X108676777Y-121973223D01*
X108693253Y-121991401D01*
X108707868Y-122011107D01*
X108720480Y-122032150D01*
X108730970Y-122054329D01*
X108739235Y-122077428D01*
X108745196Y-122101227D01*
X108748796Y-122125495D01*
X108750000Y-122149999D01*
X108750000Y-123050001D01*
X108748796Y-123074505D01*
X108745196Y-123098773D01*
X108739235Y-123122572D01*
X108730970Y-123145671D01*
X108720480Y-123167850D01*
X108707868Y-123188893D01*
X108693253Y-123208599D01*
X108676777Y-123226777D01*
X108658599Y-123243253D01*
X108638893Y-123257868D01*
X108617850Y-123270480D01*
X108595671Y-123280970D01*
X108572572Y-123289235D01*
X108548773Y-123295196D01*
X108524505Y-123298796D01*
X108500001Y-123300000D01*
X107849999Y-123300000D01*
X107825495Y-123298796D01*
X107801227Y-123295196D01*
X107777428Y-123289235D01*
X107754329Y-123280970D01*
X107732150Y-123270480D01*
X107711107Y-123257868D01*
X107691401Y-123243253D01*
X107673223Y-123226777D01*
X107656747Y-123208599D01*
X107642132Y-123188893D01*
X107629520Y-123167850D01*
X107619030Y-123145671D01*
X107610765Y-123122572D01*
X107604804Y-123098773D01*
X107601204Y-123074505D01*
X107600000Y-123050001D01*
X107600000Y-122149999D01*
X107601204Y-122125495D01*
X107604804Y-122101227D01*
X107610765Y-122077428D01*
X107619030Y-122054329D01*
X107629520Y-122032150D01*
X107642132Y-122011107D01*
X107656747Y-121991401D01*
X107673223Y-121973223D01*
X107691401Y-121956747D01*
X107711107Y-121942132D01*
X107732150Y-121929520D01*
X107754329Y-121919030D01*
X107777428Y-121910765D01*
X107801227Y-121904804D01*
X107825495Y-121901204D01*
X107849999Y-121900000D01*
X108500001Y-121900000D01*
X108524505Y-121901204D01*
G37*
G36*
X110574505Y-121901204D02*
G01*
X110598773Y-121904804D01*
X110622572Y-121910765D01*
X110645671Y-121919030D01*
X110667850Y-121929520D01*
X110688893Y-121942132D01*
X110708599Y-121956747D01*
X110726777Y-121973223D01*
X110743253Y-121991401D01*
X110757868Y-122011107D01*
X110770480Y-122032150D01*
X110780970Y-122054329D01*
X110789235Y-122077428D01*
X110795196Y-122101227D01*
X110798796Y-122125495D01*
X110800000Y-122149999D01*
X110800000Y-123050001D01*
X110798796Y-123074505D01*
X110795196Y-123098773D01*
X110789235Y-123122572D01*
X110780970Y-123145671D01*
X110770480Y-123167850D01*
X110757868Y-123188893D01*
X110743253Y-123208599D01*
X110726777Y-123226777D01*
X110708599Y-123243253D01*
X110688893Y-123257868D01*
X110667850Y-123270480D01*
X110645671Y-123280970D01*
X110622572Y-123289235D01*
X110598773Y-123295196D01*
X110574505Y-123298796D01*
X110550001Y-123300000D01*
X109899999Y-123300000D01*
X109875495Y-123298796D01*
X109851227Y-123295196D01*
X109827428Y-123289235D01*
X109804329Y-123280970D01*
X109782150Y-123270480D01*
X109761107Y-123257868D01*
X109741401Y-123243253D01*
X109723223Y-123226777D01*
X109706747Y-123208599D01*
X109692132Y-123188893D01*
X109679520Y-123167850D01*
X109669030Y-123145671D01*
X109660765Y-123122572D01*
X109654804Y-123098773D01*
X109651204Y-123074505D01*
X109650000Y-123050001D01*
X109650000Y-122149999D01*
X109651204Y-122125495D01*
X109654804Y-122101227D01*
X109660765Y-122077428D01*
X109669030Y-122054329D01*
X109679520Y-122032150D01*
X109692132Y-122011107D01*
X109706747Y-121991401D01*
X109723223Y-121973223D01*
X109741401Y-121956747D01*
X109761107Y-121942132D01*
X109782150Y-121929520D01*
X109804329Y-121919030D01*
X109827428Y-121910765D01*
X109851227Y-121904804D01*
X109875495Y-121901204D01*
X109899999Y-121900000D01*
X110550001Y-121900000D01*
X110574505Y-121901204D01*
G37*
G36*
X110574505Y-112101204D02*
G01*
X110598773Y-112104804D01*
X110622572Y-112110765D01*
X110645671Y-112119030D01*
X110667850Y-112129520D01*
X110688893Y-112142132D01*
X110708599Y-112156747D01*
X110726777Y-112173223D01*
X110743253Y-112191401D01*
X110757868Y-112211107D01*
X110770480Y-112232150D01*
X110780970Y-112254329D01*
X110789235Y-112277428D01*
X110795196Y-112301227D01*
X110798796Y-112325495D01*
X110800000Y-112349999D01*
X110800000Y-113250001D01*
X110798796Y-113274505D01*
X110795196Y-113298773D01*
X110789235Y-113322572D01*
X110780970Y-113345671D01*
X110770480Y-113367850D01*
X110757868Y-113388893D01*
X110743253Y-113408599D01*
X110726777Y-113426777D01*
X110708599Y-113443253D01*
X110688893Y-113457868D01*
X110667850Y-113470480D01*
X110645671Y-113480970D01*
X110622572Y-113489235D01*
X110598773Y-113495196D01*
X110574505Y-113498796D01*
X110550001Y-113500000D01*
X109899999Y-113500000D01*
X109875495Y-113498796D01*
X109851227Y-113495196D01*
X109827428Y-113489235D01*
X109804329Y-113480970D01*
X109782150Y-113470480D01*
X109761107Y-113457868D01*
X109741401Y-113443253D01*
X109723223Y-113426777D01*
X109706747Y-113408599D01*
X109692132Y-113388893D01*
X109679520Y-113367850D01*
X109669030Y-113345671D01*
X109660765Y-113322572D01*
X109654804Y-113298773D01*
X109651204Y-113274505D01*
X109650000Y-113250001D01*
X109650000Y-112349999D01*
X109651204Y-112325495D01*
X109654804Y-112301227D01*
X109660765Y-112277428D01*
X109669030Y-112254329D01*
X109679520Y-112232150D01*
X109692132Y-112211107D01*
X109706747Y-112191401D01*
X109723223Y-112173223D01*
X109741401Y-112156747D01*
X109761107Y-112142132D01*
X109782150Y-112129520D01*
X109804329Y-112119030D01*
X109827428Y-112110765D01*
X109851227Y-112104804D01*
X109875495Y-112101204D01*
X109899999Y-112100000D01*
X110550001Y-112100000D01*
X110574505Y-112101204D01*
G37*
G36*
X108524505Y-112101204D02*
G01*
X108548773Y-112104804D01*
X108572572Y-112110765D01*
X108595671Y-112119030D01*
X108617850Y-112129520D01*
X108638893Y-112142132D01*
X108658599Y-112156747D01*
X108676777Y-112173223D01*
X108693253Y-112191401D01*
X108707868Y-112211107D01*
X108720480Y-112232150D01*
X108730970Y-112254329D01*
X108739235Y-112277428D01*
X108745196Y-112301227D01*
X108748796Y-112325495D01*
X108750000Y-112349999D01*
X108750000Y-113250001D01*
X108748796Y-113274505D01*
X108745196Y-113298773D01*
X108739235Y-113322572D01*
X108730970Y-113345671D01*
X108720480Y-113367850D01*
X108707868Y-113388893D01*
X108693253Y-113408599D01*
X108676777Y-113426777D01*
X108658599Y-113443253D01*
X108638893Y-113457868D01*
X108617850Y-113470480D01*
X108595671Y-113480970D01*
X108572572Y-113489235D01*
X108548773Y-113495196D01*
X108524505Y-113498796D01*
X108500001Y-113500000D01*
X107849999Y-113500000D01*
X107825495Y-113498796D01*
X107801227Y-113495196D01*
X107777428Y-113489235D01*
X107754329Y-113480970D01*
X107732150Y-113470480D01*
X107711107Y-113457868D01*
X107691401Y-113443253D01*
X107673223Y-113426777D01*
X107656747Y-113408599D01*
X107642132Y-113388893D01*
X107629520Y-113367850D01*
X107619030Y-113345671D01*
X107610765Y-113322572D01*
X107604804Y-113298773D01*
X107601204Y-113274505D01*
X107600000Y-113250001D01*
X107600000Y-112349999D01*
X107601204Y-112325495D01*
X107604804Y-112301227D01*
X107610765Y-112277428D01*
X107619030Y-112254329D01*
X107629520Y-112232150D01*
X107642132Y-112211107D01*
X107656747Y-112191401D01*
X107673223Y-112173223D01*
X107691401Y-112156747D01*
X107711107Y-112142132D01*
X107732150Y-112129520D01*
X107754329Y-112119030D01*
X107777428Y-112110765D01*
X107801227Y-112104804D01*
X107825495Y-112101204D01*
X107849999Y-112100000D01*
X108500001Y-112100000D01*
X108524505Y-112101204D01*
G37*
G36*
X110574505Y-110101204D02*
G01*
X110598773Y-110104804D01*
X110622572Y-110110765D01*
X110645671Y-110119030D01*
X110667850Y-110129520D01*
X110688893Y-110142132D01*
X110708599Y-110156747D01*
X110726777Y-110173223D01*
X110743253Y-110191401D01*
X110757868Y-110211107D01*
X110770480Y-110232150D01*
X110780970Y-110254329D01*
X110789235Y-110277428D01*
X110795196Y-110301227D01*
X110798796Y-110325495D01*
X110800000Y-110349999D01*
X110800000Y-111250001D01*
X110798796Y-111274505D01*
X110795196Y-111298773D01*
X110789235Y-111322572D01*
X110780970Y-111345671D01*
X110770480Y-111367850D01*
X110757868Y-111388893D01*
X110743253Y-111408599D01*
X110726777Y-111426777D01*
X110708599Y-111443253D01*
X110688893Y-111457868D01*
X110667850Y-111470480D01*
X110645671Y-111480970D01*
X110622572Y-111489235D01*
X110598773Y-111495196D01*
X110574505Y-111498796D01*
X110550001Y-111500000D01*
X109899999Y-111500000D01*
X109875495Y-111498796D01*
X109851227Y-111495196D01*
X109827428Y-111489235D01*
X109804329Y-111480970D01*
X109782150Y-111470480D01*
X109761107Y-111457868D01*
X109741401Y-111443253D01*
X109723223Y-111426777D01*
X109706747Y-111408599D01*
X109692132Y-111388893D01*
X109679520Y-111367850D01*
X109669030Y-111345671D01*
X109660765Y-111322572D01*
X109654804Y-111298773D01*
X109651204Y-111274505D01*
X109650000Y-111250001D01*
X109650000Y-110349999D01*
X109651204Y-110325495D01*
X109654804Y-110301227D01*
X109660765Y-110277428D01*
X109669030Y-110254329D01*
X109679520Y-110232150D01*
X109692132Y-110211107D01*
X109706747Y-110191401D01*
X109723223Y-110173223D01*
X109741401Y-110156747D01*
X109761107Y-110142132D01*
X109782150Y-110129520D01*
X109804329Y-110119030D01*
X109827428Y-110110765D01*
X109851227Y-110104804D01*
X109875495Y-110101204D01*
X109899999Y-110100000D01*
X110550001Y-110100000D01*
X110574505Y-110101204D01*
G37*
G36*
X108524505Y-110101204D02*
G01*
X108548773Y-110104804D01*
X108572572Y-110110765D01*
X108595671Y-110119030D01*
X108617850Y-110129520D01*
X108638893Y-110142132D01*
X108658599Y-110156747D01*
X108676777Y-110173223D01*
X108693253Y-110191401D01*
X108707868Y-110211107D01*
X108720480Y-110232150D01*
X108730970Y-110254329D01*
X108739235Y-110277428D01*
X108745196Y-110301227D01*
X108748796Y-110325495D01*
X108750000Y-110349999D01*
X108750000Y-111250001D01*
X108748796Y-111274505D01*
X108745196Y-111298773D01*
X108739235Y-111322572D01*
X108730970Y-111345671D01*
X108720480Y-111367850D01*
X108707868Y-111388893D01*
X108693253Y-111408599D01*
X108676777Y-111426777D01*
X108658599Y-111443253D01*
X108638893Y-111457868D01*
X108617850Y-111470480D01*
X108595671Y-111480970D01*
X108572572Y-111489235D01*
X108548773Y-111495196D01*
X108524505Y-111498796D01*
X108500001Y-111500000D01*
X107849999Y-111500000D01*
X107825495Y-111498796D01*
X107801227Y-111495196D01*
X107777428Y-111489235D01*
X107754329Y-111480970D01*
X107732150Y-111470480D01*
X107711107Y-111457868D01*
X107691401Y-111443253D01*
X107673223Y-111426777D01*
X107656747Y-111408599D01*
X107642132Y-111388893D01*
X107629520Y-111367850D01*
X107619030Y-111345671D01*
X107610765Y-111322572D01*
X107604804Y-111298773D01*
X107601204Y-111274505D01*
X107600000Y-111250001D01*
X107600000Y-110349999D01*
X107601204Y-110325495D01*
X107604804Y-110301227D01*
X107610765Y-110277428D01*
X107619030Y-110254329D01*
X107629520Y-110232150D01*
X107642132Y-110211107D01*
X107656747Y-110191401D01*
X107673223Y-110173223D01*
X107691401Y-110156747D01*
X107711107Y-110142132D01*
X107732150Y-110129520D01*
X107754329Y-110119030D01*
X107777428Y-110110765D01*
X107801227Y-110104804D01*
X107825495Y-110101204D01*
X107849999Y-110100000D01*
X108500001Y-110100000D01*
X108524505Y-110101204D01*
G37*
G36*
X108524505Y-114101204D02*
G01*
X108548773Y-114104804D01*
X108572572Y-114110765D01*
X108595671Y-114119030D01*
X108617850Y-114129520D01*
X108638893Y-114142132D01*
X108658599Y-114156747D01*
X108676777Y-114173223D01*
X108693253Y-114191401D01*
X108707868Y-114211107D01*
X108720480Y-114232150D01*
X108730970Y-114254329D01*
X108739235Y-114277428D01*
X108745196Y-114301227D01*
X108748796Y-114325495D01*
X108750000Y-114349999D01*
X108750000Y-115250001D01*
X108748796Y-115274505D01*
X108745196Y-115298773D01*
X108739235Y-115322572D01*
X108730970Y-115345671D01*
X108720480Y-115367850D01*
X108707868Y-115388893D01*
X108693253Y-115408599D01*
X108676777Y-115426777D01*
X108658599Y-115443253D01*
X108638893Y-115457868D01*
X108617850Y-115470480D01*
X108595671Y-115480970D01*
X108572572Y-115489235D01*
X108548773Y-115495196D01*
X108524505Y-115498796D01*
X108500001Y-115500000D01*
X107849999Y-115500000D01*
X107825495Y-115498796D01*
X107801227Y-115495196D01*
X107777428Y-115489235D01*
X107754329Y-115480970D01*
X107732150Y-115470480D01*
X107711107Y-115457868D01*
X107691401Y-115443253D01*
X107673223Y-115426777D01*
X107656747Y-115408599D01*
X107642132Y-115388893D01*
X107629520Y-115367850D01*
X107619030Y-115345671D01*
X107610765Y-115322572D01*
X107604804Y-115298773D01*
X107601204Y-115274505D01*
X107600000Y-115250001D01*
X107600000Y-114349999D01*
X107601204Y-114325495D01*
X107604804Y-114301227D01*
X107610765Y-114277428D01*
X107619030Y-114254329D01*
X107629520Y-114232150D01*
X107642132Y-114211107D01*
X107656747Y-114191401D01*
X107673223Y-114173223D01*
X107691401Y-114156747D01*
X107711107Y-114142132D01*
X107732150Y-114129520D01*
X107754329Y-114119030D01*
X107777428Y-114110765D01*
X107801227Y-114104804D01*
X107825495Y-114101204D01*
X107849999Y-114100000D01*
X108500001Y-114100000D01*
X108524505Y-114101204D01*
G37*
G36*
X110574505Y-114101204D02*
G01*
X110598773Y-114104804D01*
X110622572Y-114110765D01*
X110645671Y-114119030D01*
X110667850Y-114129520D01*
X110688893Y-114142132D01*
X110708599Y-114156747D01*
X110726777Y-114173223D01*
X110743253Y-114191401D01*
X110757868Y-114211107D01*
X110770480Y-114232150D01*
X110780970Y-114254329D01*
X110789235Y-114277428D01*
X110795196Y-114301227D01*
X110798796Y-114325495D01*
X110800000Y-114349999D01*
X110800000Y-115250001D01*
X110798796Y-115274505D01*
X110795196Y-115298773D01*
X110789235Y-115322572D01*
X110780970Y-115345671D01*
X110770480Y-115367850D01*
X110757868Y-115388893D01*
X110743253Y-115408599D01*
X110726777Y-115426777D01*
X110708599Y-115443253D01*
X110688893Y-115457868D01*
X110667850Y-115470480D01*
X110645671Y-115480970D01*
X110622572Y-115489235D01*
X110598773Y-115495196D01*
X110574505Y-115498796D01*
X110550001Y-115500000D01*
X109899999Y-115500000D01*
X109875495Y-115498796D01*
X109851227Y-115495196D01*
X109827428Y-115489235D01*
X109804329Y-115480970D01*
X109782150Y-115470480D01*
X109761107Y-115457868D01*
X109741401Y-115443253D01*
X109723223Y-115426777D01*
X109706747Y-115408599D01*
X109692132Y-115388893D01*
X109679520Y-115367850D01*
X109669030Y-115345671D01*
X109660765Y-115322572D01*
X109654804Y-115298773D01*
X109651204Y-115274505D01*
X109650000Y-115250001D01*
X109650000Y-114349999D01*
X109651204Y-114325495D01*
X109654804Y-114301227D01*
X109660765Y-114277428D01*
X109669030Y-114254329D01*
X109679520Y-114232150D01*
X109692132Y-114211107D01*
X109706747Y-114191401D01*
X109723223Y-114173223D01*
X109741401Y-114156747D01*
X109761107Y-114142132D01*
X109782150Y-114129520D01*
X109804329Y-114119030D01*
X109827428Y-114110765D01*
X109851227Y-114104804D01*
X109875495Y-114101204D01*
X109899999Y-114100000D01*
X110550001Y-114100000D01*
X110574505Y-114101204D01*
G37*
G36*
X110574505Y-104551204D02*
G01*
X110598773Y-104554804D01*
X110622572Y-104560765D01*
X110645671Y-104569030D01*
X110667850Y-104579520D01*
X110688893Y-104592132D01*
X110708599Y-104606747D01*
X110726777Y-104623223D01*
X110743253Y-104641401D01*
X110757868Y-104661107D01*
X110770480Y-104682150D01*
X110780970Y-104704329D01*
X110789235Y-104727428D01*
X110795196Y-104751227D01*
X110798796Y-104775495D01*
X110800000Y-104799999D01*
X110800000Y-105700001D01*
X110798796Y-105724505D01*
X110795196Y-105748773D01*
X110789235Y-105772572D01*
X110780970Y-105795671D01*
X110770480Y-105817850D01*
X110757868Y-105838893D01*
X110743253Y-105858599D01*
X110726777Y-105876777D01*
X110708599Y-105893253D01*
X110688893Y-105907868D01*
X110667850Y-105920480D01*
X110645671Y-105930970D01*
X110622572Y-105939235D01*
X110598773Y-105945196D01*
X110574505Y-105948796D01*
X110550001Y-105950000D01*
X109899999Y-105950000D01*
X109875495Y-105948796D01*
X109851227Y-105945196D01*
X109827428Y-105939235D01*
X109804329Y-105930970D01*
X109782150Y-105920480D01*
X109761107Y-105907868D01*
X109741401Y-105893253D01*
X109723223Y-105876777D01*
X109706747Y-105858599D01*
X109692132Y-105838893D01*
X109679520Y-105817850D01*
X109669030Y-105795671D01*
X109660765Y-105772572D01*
X109654804Y-105748773D01*
X109651204Y-105724505D01*
X109650000Y-105700001D01*
X109650000Y-104799999D01*
X109651204Y-104775495D01*
X109654804Y-104751227D01*
X109660765Y-104727428D01*
X109669030Y-104704329D01*
X109679520Y-104682150D01*
X109692132Y-104661107D01*
X109706747Y-104641401D01*
X109723223Y-104623223D01*
X109741401Y-104606747D01*
X109761107Y-104592132D01*
X109782150Y-104579520D01*
X109804329Y-104569030D01*
X109827428Y-104560765D01*
X109851227Y-104554804D01*
X109875495Y-104551204D01*
X109899999Y-104550000D01*
X110550001Y-104550000D01*
X110574505Y-104551204D01*
G37*
G36*
X108524505Y-104551204D02*
G01*
X108548773Y-104554804D01*
X108572572Y-104560765D01*
X108595671Y-104569030D01*
X108617850Y-104579520D01*
X108638893Y-104592132D01*
X108658599Y-104606747D01*
X108676777Y-104623223D01*
X108693253Y-104641401D01*
X108707868Y-104661107D01*
X108720480Y-104682150D01*
X108730970Y-104704329D01*
X108739235Y-104727428D01*
X108745196Y-104751227D01*
X108748796Y-104775495D01*
X108750000Y-104799999D01*
X108750000Y-105700001D01*
X108748796Y-105724505D01*
X108745196Y-105748773D01*
X108739235Y-105772572D01*
X108730970Y-105795671D01*
X108720480Y-105817850D01*
X108707868Y-105838893D01*
X108693253Y-105858599D01*
X108676777Y-105876777D01*
X108658599Y-105893253D01*
X108638893Y-105907868D01*
X108617850Y-105920480D01*
X108595671Y-105930970D01*
X108572572Y-105939235D01*
X108548773Y-105945196D01*
X108524505Y-105948796D01*
X108500001Y-105950000D01*
X107849999Y-105950000D01*
X107825495Y-105948796D01*
X107801227Y-105945196D01*
X107777428Y-105939235D01*
X107754329Y-105930970D01*
X107732150Y-105920480D01*
X107711107Y-105907868D01*
X107691401Y-105893253D01*
X107673223Y-105876777D01*
X107656747Y-105858599D01*
X107642132Y-105838893D01*
X107629520Y-105817850D01*
X107619030Y-105795671D01*
X107610765Y-105772572D01*
X107604804Y-105748773D01*
X107601204Y-105724505D01*
X107600000Y-105700001D01*
X107600000Y-104799999D01*
X107601204Y-104775495D01*
X107604804Y-104751227D01*
X107610765Y-104727428D01*
X107619030Y-104704329D01*
X107629520Y-104682150D01*
X107642132Y-104661107D01*
X107656747Y-104641401D01*
X107673223Y-104623223D01*
X107691401Y-104606747D01*
X107711107Y-104592132D01*
X107732150Y-104579520D01*
X107754329Y-104569030D01*
X107777428Y-104560765D01*
X107801227Y-104554804D01*
X107825495Y-104551204D01*
X107849999Y-104550000D01*
X108500001Y-104550000D01*
X108524505Y-104551204D01*
G37*
G36*
X110574505Y-102551204D02*
G01*
X110598773Y-102554804D01*
X110622572Y-102560765D01*
X110645671Y-102569030D01*
X110667850Y-102579520D01*
X110688893Y-102592132D01*
X110708599Y-102606747D01*
X110726777Y-102623223D01*
X110743253Y-102641401D01*
X110757868Y-102661107D01*
X110770480Y-102682150D01*
X110780970Y-102704329D01*
X110789235Y-102727428D01*
X110795196Y-102751227D01*
X110798796Y-102775495D01*
X110800000Y-102799999D01*
X110800000Y-103700001D01*
X110798796Y-103724505D01*
X110795196Y-103748773D01*
X110789235Y-103772572D01*
X110780970Y-103795671D01*
X110770480Y-103817850D01*
X110757868Y-103838893D01*
X110743253Y-103858599D01*
X110726777Y-103876777D01*
X110708599Y-103893253D01*
X110688893Y-103907868D01*
X110667850Y-103920480D01*
X110645671Y-103930970D01*
X110622572Y-103939235D01*
X110598773Y-103945196D01*
X110574505Y-103948796D01*
X110550001Y-103950000D01*
X109899999Y-103950000D01*
X109875495Y-103948796D01*
X109851227Y-103945196D01*
X109827428Y-103939235D01*
X109804329Y-103930970D01*
X109782150Y-103920480D01*
X109761107Y-103907868D01*
X109741401Y-103893253D01*
X109723223Y-103876777D01*
X109706747Y-103858599D01*
X109692132Y-103838893D01*
X109679520Y-103817850D01*
X109669030Y-103795671D01*
X109660765Y-103772572D01*
X109654804Y-103748773D01*
X109651204Y-103724505D01*
X109650000Y-103700001D01*
X109650000Y-102799999D01*
X109651204Y-102775495D01*
X109654804Y-102751227D01*
X109660765Y-102727428D01*
X109669030Y-102704329D01*
X109679520Y-102682150D01*
X109692132Y-102661107D01*
X109706747Y-102641401D01*
X109723223Y-102623223D01*
X109741401Y-102606747D01*
X109761107Y-102592132D01*
X109782150Y-102579520D01*
X109804329Y-102569030D01*
X109827428Y-102560765D01*
X109851227Y-102554804D01*
X109875495Y-102551204D01*
X109899999Y-102550000D01*
X110550001Y-102550000D01*
X110574505Y-102551204D01*
G37*
G36*
X108524505Y-102551204D02*
G01*
X108548773Y-102554804D01*
X108572572Y-102560765D01*
X108595671Y-102569030D01*
X108617850Y-102579520D01*
X108638893Y-102592132D01*
X108658599Y-102606747D01*
X108676777Y-102623223D01*
X108693253Y-102641401D01*
X108707868Y-102661107D01*
X108720480Y-102682150D01*
X108730970Y-102704329D01*
X108739235Y-102727428D01*
X108745196Y-102751227D01*
X108748796Y-102775495D01*
X108750000Y-102799999D01*
X108750000Y-103700001D01*
X108748796Y-103724505D01*
X108745196Y-103748773D01*
X108739235Y-103772572D01*
X108730970Y-103795671D01*
X108720480Y-103817850D01*
X108707868Y-103838893D01*
X108693253Y-103858599D01*
X108676777Y-103876777D01*
X108658599Y-103893253D01*
X108638893Y-103907868D01*
X108617850Y-103920480D01*
X108595671Y-103930970D01*
X108572572Y-103939235D01*
X108548773Y-103945196D01*
X108524505Y-103948796D01*
X108500001Y-103950000D01*
X107849999Y-103950000D01*
X107825495Y-103948796D01*
X107801227Y-103945196D01*
X107777428Y-103939235D01*
X107754329Y-103930970D01*
X107732150Y-103920480D01*
X107711107Y-103907868D01*
X107691401Y-103893253D01*
X107673223Y-103876777D01*
X107656747Y-103858599D01*
X107642132Y-103838893D01*
X107629520Y-103817850D01*
X107619030Y-103795671D01*
X107610765Y-103772572D01*
X107604804Y-103748773D01*
X107601204Y-103724505D01*
X107600000Y-103700001D01*
X107600000Y-102799999D01*
X107601204Y-102775495D01*
X107604804Y-102751227D01*
X107610765Y-102727428D01*
X107619030Y-102704329D01*
X107629520Y-102682150D01*
X107642132Y-102661107D01*
X107656747Y-102641401D01*
X107673223Y-102623223D01*
X107691401Y-102606747D01*
X107711107Y-102592132D01*
X107732150Y-102579520D01*
X107754329Y-102569030D01*
X107777428Y-102560765D01*
X107801227Y-102554804D01*
X107825495Y-102551204D01*
X107849999Y-102550000D01*
X108500001Y-102550000D01*
X108524505Y-102551204D01*
G37*
G36*
X108524505Y-106601204D02*
G01*
X108548773Y-106604804D01*
X108572572Y-106610765D01*
X108595671Y-106619030D01*
X108617850Y-106629520D01*
X108638893Y-106642132D01*
X108658599Y-106656747D01*
X108676777Y-106673223D01*
X108693253Y-106691401D01*
X108707868Y-106711107D01*
X108720480Y-106732150D01*
X108730970Y-106754329D01*
X108739235Y-106777428D01*
X108745196Y-106801227D01*
X108748796Y-106825495D01*
X108750000Y-106849999D01*
X108750000Y-107750001D01*
X108748796Y-107774505D01*
X108745196Y-107798773D01*
X108739235Y-107822572D01*
X108730970Y-107845671D01*
X108720480Y-107867850D01*
X108707868Y-107888893D01*
X108693253Y-107908599D01*
X108676777Y-107926777D01*
X108658599Y-107943253D01*
X108638893Y-107957868D01*
X108617850Y-107970480D01*
X108595671Y-107980970D01*
X108572572Y-107989235D01*
X108548773Y-107995196D01*
X108524505Y-107998796D01*
X108500001Y-108000000D01*
X107849999Y-108000000D01*
X107825495Y-107998796D01*
X107801227Y-107995196D01*
X107777428Y-107989235D01*
X107754329Y-107980970D01*
X107732150Y-107970480D01*
X107711107Y-107957868D01*
X107691401Y-107943253D01*
X107673223Y-107926777D01*
X107656747Y-107908599D01*
X107642132Y-107888893D01*
X107629520Y-107867850D01*
X107619030Y-107845671D01*
X107610765Y-107822572D01*
X107604804Y-107798773D01*
X107601204Y-107774505D01*
X107600000Y-107750001D01*
X107600000Y-106849999D01*
X107601204Y-106825495D01*
X107604804Y-106801227D01*
X107610765Y-106777428D01*
X107619030Y-106754329D01*
X107629520Y-106732150D01*
X107642132Y-106711107D01*
X107656747Y-106691401D01*
X107673223Y-106673223D01*
X107691401Y-106656747D01*
X107711107Y-106642132D01*
X107732150Y-106629520D01*
X107754329Y-106619030D01*
X107777428Y-106610765D01*
X107801227Y-106604804D01*
X107825495Y-106601204D01*
X107849999Y-106600000D01*
X108500001Y-106600000D01*
X108524505Y-106601204D01*
G37*
G36*
X110574505Y-106601204D02*
G01*
X110598773Y-106604804D01*
X110622572Y-106610765D01*
X110645671Y-106619030D01*
X110667850Y-106629520D01*
X110688893Y-106642132D01*
X110708599Y-106656747D01*
X110726777Y-106673223D01*
X110743253Y-106691401D01*
X110757868Y-106711107D01*
X110770480Y-106732150D01*
X110780970Y-106754329D01*
X110789235Y-106777428D01*
X110795196Y-106801227D01*
X110798796Y-106825495D01*
X110800000Y-106849999D01*
X110800000Y-107750001D01*
X110798796Y-107774505D01*
X110795196Y-107798773D01*
X110789235Y-107822572D01*
X110780970Y-107845671D01*
X110770480Y-107867850D01*
X110757868Y-107888893D01*
X110743253Y-107908599D01*
X110726777Y-107926777D01*
X110708599Y-107943253D01*
X110688893Y-107957868D01*
X110667850Y-107970480D01*
X110645671Y-107980970D01*
X110622572Y-107989235D01*
X110598773Y-107995196D01*
X110574505Y-107998796D01*
X110550001Y-108000000D01*
X109899999Y-108000000D01*
X109875495Y-107998796D01*
X109851227Y-107995196D01*
X109827428Y-107989235D01*
X109804329Y-107980970D01*
X109782150Y-107970480D01*
X109761107Y-107957868D01*
X109741401Y-107943253D01*
X109723223Y-107926777D01*
X109706747Y-107908599D01*
X109692132Y-107888893D01*
X109679520Y-107867850D01*
X109669030Y-107845671D01*
X109660765Y-107822572D01*
X109654804Y-107798773D01*
X109651204Y-107774505D01*
X109650000Y-107750001D01*
X109650000Y-106849999D01*
X109651204Y-106825495D01*
X109654804Y-106801227D01*
X109660765Y-106777428D01*
X109669030Y-106754329D01*
X109679520Y-106732150D01*
X109692132Y-106711107D01*
X109706747Y-106691401D01*
X109723223Y-106673223D01*
X109741401Y-106656747D01*
X109761107Y-106642132D01*
X109782150Y-106629520D01*
X109804329Y-106619030D01*
X109827428Y-106610765D01*
X109851227Y-106604804D01*
X109875495Y-106601204D01*
X109899999Y-106600000D01*
X110550001Y-106600000D01*
X110574505Y-106601204D01*
G37*
G36*
X101000000Y-119533500D02*
G01*
X104125000Y-119533500D01*
X104125000Y-119950000D01*
X105600000Y-119950000D01*
X105600000Y-120850000D01*
X104125000Y-120850000D01*
X104125000Y-121266500D01*
X101000000Y-121266500D01*
X101000000Y-119533500D01*
G37*
D13*
X104950000Y-118900000D03*
X104950000Y-121900000D03*
D10*
G36*
X101000000Y-111733500D02*
G01*
X104125000Y-111733500D01*
X104125000Y-112150000D01*
X105600000Y-112150000D01*
X105600000Y-113050000D01*
X104125000Y-113050000D01*
X104125000Y-113466500D01*
X101000000Y-113466500D01*
X101000000Y-111733500D01*
G37*
D13*
X104950000Y-111100000D03*
X104950000Y-114100000D03*
D10*
G36*
X101000000Y-104233500D02*
G01*
X104125000Y-104233500D01*
X104125000Y-104650000D01*
X105600000Y-104650000D01*
X105600000Y-105550000D01*
X104125000Y-105550000D01*
X104125000Y-105966500D01*
X101000000Y-105966500D01*
X101000000Y-104233500D01*
G37*
D13*
X104950000Y-103600000D03*
X104950000Y-106600000D03*
D14*
X122190000Y-116100000D03*
X123190000Y-116100000D03*
X124190000Y-116100000D03*
X125190000Y-116100000D03*
X126190000Y-116100000D03*
X127190000Y-116100000D03*
X128190000Y-116100000D03*
X129190000Y-116100000D03*
X130190000Y-116100000D03*
X131190000Y-116100000D03*
X132190000Y-116100000D03*
X133190000Y-116100000D03*
D15*
X119200000Y-118900000D03*
X136180000Y-118900000D03*
D10*
G36*
X136674505Y-102301204D02*
G01*
X136698773Y-102304804D01*
X136722572Y-102310765D01*
X136745671Y-102319030D01*
X136767850Y-102329520D01*
X136788893Y-102342132D01*
X136808599Y-102356747D01*
X136826777Y-102373223D01*
X136843253Y-102391401D01*
X136857868Y-102411107D01*
X136870480Y-102432150D01*
X136880970Y-102454329D01*
X136889235Y-102477428D01*
X136895196Y-102501227D01*
X136898796Y-102525495D01*
X136900000Y-102549999D01*
X136900000Y-103450001D01*
X136898796Y-103474505D01*
X136895196Y-103498773D01*
X136889235Y-103522572D01*
X136880970Y-103545671D01*
X136870480Y-103567850D01*
X136857868Y-103588893D01*
X136843253Y-103608599D01*
X136826777Y-103626777D01*
X136808599Y-103643253D01*
X136788893Y-103657868D01*
X136767850Y-103670480D01*
X136745671Y-103680970D01*
X136722572Y-103689235D01*
X136698773Y-103695196D01*
X136674505Y-103698796D01*
X136650001Y-103700000D01*
X135999999Y-103700000D01*
X135975495Y-103698796D01*
X135951227Y-103695196D01*
X135927428Y-103689235D01*
X135904329Y-103680970D01*
X135882150Y-103670480D01*
X135861107Y-103657868D01*
X135841401Y-103643253D01*
X135823223Y-103626777D01*
X135806747Y-103608599D01*
X135792132Y-103588893D01*
X135779520Y-103567850D01*
X135769030Y-103545671D01*
X135760765Y-103522572D01*
X135754804Y-103498773D01*
X135751204Y-103474505D01*
X135750000Y-103450001D01*
X135750000Y-102549999D01*
X135751204Y-102525495D01*
X135754804Y-102501227D01*
X135760765Y-102477428D01*
X135769030Y-102454329D01*
X135779520Y-102432150D01*
X135792132Y-102411107D01*
X135806747Y-102391401D01*
X135823223Y-102373223D01*
X135841401Y-102356747D01*
X135861107Y-102342132D01*
X135882150Y-102329520D01*
X135904329Y-102319030D01*
X135927428Y-102310765D01*
X135951227Y-102304804D01*
X135975495Y-102301204D01*
X135999999Y-102300000D01*
X136650001Y-102300000D01*
X136674505Y-102301204D01*
G37*
G36*
X138724505Y-102301204D02*
G01*
X138748773Y-102304804D01*
X138772572Y-102310765D01*
X138795671Y-102319030D01*
X138817850Y-102329520D01*
X138838893Y-102342132D01*
X138858599Y-102356747D01*
X138876777Y-102373223D01*
X138893253Y-102391401D01*
X138907868Y-102411107D01*
X138920480Y-102432150D01*
X138930970Y-102454329D01*
X138939235Y-102477428D01*
X138945196Y-102501227D01*
X138948796Y-102525495D01*
X138950000Y-102549999D01*
X138950000Y-103450001D01*
X138948796Y-103474505D01*
X138945196Y-103498773D01*
X138939235Y-103522572D01*
X138930970Y-103545671D01*
X138920480Y-103567850D01*
X138907868Y-103588893D01*
X138893253Y-103608599D01*
X138876777Y-103626777D01*
X138858599Y-103643253D01*
X138838893Y-103657868D01*
X138817850Y-103670480D01*
X138795671Y-103680970D01*
X138772572Y-103689235D01*
X138748773Y-103695196D01*
X138724505Y-103698796D01*
X138700001Y-103700000D01*
X138049999Y-103700000D01*
X138025495Y-103698796D01*
X138001227Y-103695196D01*
X137977428Y-103689235D01*
X137954329Y-103680970D01*
X137932150Y-103670480D01*
X137911107Y-103657868D01*
X137891401Y-103643253D01*
X137873223Y-103626777D01*
X137856747Y-103608599D01*
X137842132Y-103588893D01*
X137829520Y-103567850D01*
X137819030Y-103545671D01*
X137810765Y-103522572D01*
X137804804Y-103498773D01*
X137801204Y-103474505D01*
X137800000Y-103450001D01*
X137800000Y-102549999D01*
X137801204Y-102525495D01*
X137804804Y-102501227D01*
X137810765Y-102477428D01*
X137819030Y-102454329D01*
X137829520Y-102432150D01*
X137842132Y-102411107D01*
X137856747Y-102391401D01*
X137873223Y-102373223D01*
X137891401Y-102356747D01*
X137911107Y-102342132D01*
X137932150Y-102329520D01*
X137954329Y-102319030D01*
X137977428Y-102310765D01*
X138001227Y-102304804D01*
X138025495Y-102301204D01*
X138049999Y-102300000D01*
X138700001Y-102300000D01*
X138724505Y-102301204D01*
G37*
M02*
